<svg xmlns="http://www.w3.org/2000/svg" xmlns:xlink="http://www.w3.org/1999/xlink" width="500" zoomAndPan="magnify" viewBox="0 0 375 374.999991" height="500" preserveAspectRatio="xMidYMid meet" version="1.0"><defs><clipPath id="902ce668c8"><path d="M 212.15625 38.265625 L 300.523438 38.265625 L 300.523438 321.773438 L 212.15625 321.773438 Z M 212.15625 38.265625 " clip-rule="nonzero"/></clipPath><clipPath id="cf259ac38b"><path d="M 124 256 L 239 256 L 239 337.304688 L 124 337.304688 Z M 124 256 " clip-rule="nonzero"/></clipPath><clipPath id="e324006144"><path d="M 124 256 L 197 256 L 197 337.304688 L 124 337.304688 Z M 124 256 " clip-rule="nonzero"/></clipPath><clipPath id="9ea7fe36b4"><path d="M 85.769531 121 L 277 121 L 277 280 L 85.769531 280 Z M 85.769531 121 " clip-rule="nonzero"/></clipPath></defs><path fill="#7c4929" d="M 193.746094 54.066406 C 193.328125 54.753906 188.6875 42.867188 198.382812 39.46875 C 203.714844 37.597656 209.734375 37.757812 215.597656 38.855469 C 206.898438 40.808594 198.703125 45.886719 193.746094 54.066406 Z M 96.65625 114.9375 C 96.171875 109.96875 97.21875 105.082031 100.453125 101.640625 C 101.246094 100.796875 102.652344 99.8125 104.425781 98.753906 C 101.171875 103.800781 98.617188 109.210938 96.65625 114.9375 Z M 285.019531 255.632812 C 290 239.105469 303.144531 168.9375 289.550781 108.628906 C 283.925781 83.667969 267.96875 41.46875 226.890625 38.066406 C 216.714844 34.589844 203.722656 32.046875 194.183594 37.277344 C 184.125 42.796875 185.011719 54.003906 187.847656 63.546875 C 182.714844 63.242188 168.59375 61.898438 151.84375 66.464844 C 140.128906 69.652344 126.996094 75.652344 114.394531 86.691406 C 108.347656 89.511719 100.257812 94.015625 95.316406 98.722656 C 91.886719 101.988281 89.730469 115.566406 94.804688 121.078125 C 92.0625 131.53125 91.011719 142.902344 91.011719 154.9375 C 91.011719 207.5 131.910156 250.105469 182.359375 250.105469 C 215.164062 250.105469 236.6875 233.769531 242.726562 224.722656 C 235.921875 259.183594 239.445312 291.765625 254.058594 295.84375 L 254.058594 295.222656 C 252.382812 293.3125 251.15625 289.027344 250.722656 287.601562 C 249.804688 284.570312 249.304688 281.425781 249.148438 278.261719 C 248.847656 272.230469 249.765625 266.238281 251.222656 260.398438 C 252.175781 256.578125 253.449219 257.679688 253.203125 262.011719 C 252.285156 278.351562 254.316406 294.445312 264.734375 307.558594 C 273.101562 318.089844 286.824219 324.402344 300.246094 321.425781 C 302.300781 320.96875 268.023438 312.035156 285.019531 255.632812 " fill-opacity="1" fill-rule="nonzero"/><path fill="#612b15" d="M 273.671875 277.429688 C 272.441406 264.226562 272.476562 255.859375 271.308594 269.726562 C 270.339844 281.292969 270.429688 294.980469 273.691406 305.953125 C 272.988281 304.898438 268.40625 296.90625 266.140625 288.613281 C 260.6875 268.652344 262.007812 253.132812 265.796875 238.296875 C 271.964844 214.152344 284.664062 191.828125 285.316406 155.15625 C 285.542969 142.53125 277.089844 101.90625 265.988281 90.152344 C 252.347656 75.710938 245.6875 82.972656 243.859375 77.28125 C 242.101562 71.789062 257.410156 69.433594 261.894531 69.335938 C 261.660156 68.957031 261.402344 68.589844 261.128906 68.238281 C 254.367188 65.261719 246.75 66.148438 239.609375 67.558594 C 235.996094 68.269531 232.371094 69.054688 228.703125 69.449219 C 226.546875 69.683594 224.195312 69.945312 222.382812 68.542969 C 221.578125 67.921875 221.746094 66.566406 222.382812 65.917969 C 223.089844 65.199219 227.628906 62.527344 227.863281 62.402344 C 229.695312 61.417969 231.457031 60.582031 232.273438 60.371094 C 230.304688 60.726562 222.199219 62.253906 220.207031 62.300781 C 217.8125 62.355469 216.128906 61.203125 215.757812 58.777344 C 215.1875 55.039062 217.589844 52.523438 219.296875 49.5625 C 219.1875 49.5625 219.082031 49.554688 218.96875 49.554688 C 214.25 52.585938 210.847656 59.171875 206.253906 61.921875 C 203.128906 63.792969 197.105469 63.4375 196.902344 58.730469 C 196.855469 57.660156 197.167969 56.628906 197.695312 55.648438 C 197.527344 55.671875 197.363281 55.699219 197.195312 55.714844 C 197.976562 54.066406 200.167969 49.722656 205.09375 46.125 C 211.71875 41.285156 221.277344 37.226562 219.933594 37.429688 C 210.210938 38.894531 196.824219 45.238281 193.261719 55.417969 C 193.183594 55.394531 190.671875 52.316406 190.242188 48.886719 C 189.707031 44.632812 191.257812 39.796875 191.515625 39.203125 C 184.324219 45.125 185.292969 55.074219 187.847656 63.671875 C 205.777344 66.648438 220.179688 71.257812 231.636719 77.0625 C 262.945312 92.925781 272.3125 117.714844 271.800781 142.492188 C 271.726562 145.933594 271.460938 149.375 271.039062 152.792969 C 269.171875 152.503906 266.566406 152.050781 263.660156 150.246094 C 258.707031 147.171875 252.597656 138.726562 250.820312 136.753906 C 247.625 133.21875 260.449219 134.511719 255.222656 131.285156 C 246.964844 126.1875 234.460938 122.539062 230.273438 116.335938 C 226.503906 110.757812 229.246094 103.660156 232.015625 97.171875 C 234.578125 91.171875 233.542969 87.710938 230.882812 93.230469 C 227.535156 100.167969 221.984375 108.324219 214.269531 110.921875 C 220.195312 119.871094 221.652344 130.078125 217.679688 139.601562 C 213.429688 149.785156 199.832031 159.03125 189.234375 162.46875 C 187.882812 162.90625 201.457031 157.628906 208.976562 145.542969 C 214.207031 137.128906 217.109375 126.167969 211.457031 113.320312 C 210.882812 119.5 205.597656 139.097656 181.847656 155.140625 C 175.59375 159.363281 169.003906 163.632812 161.785156 166.019531 C 159.503906 166.773438 199.304688 142.742188 201.191406 125.78125 C 199.148438 123.742188 184.238281 145.660156 167.207031 156.3125 C 149.59375 167.328125 125.894531 170.59375 127.179688 169.503906 C 139.640625 158.949219 136.566406 147.148438 141.53125 138.21875 C 142.09375 137.203125 134.726562 144.460938 133.222656 146.890625 C 129.636719 152.667969 127.953125 158.179688 127.179688 158.949219 C 130.203125 121.257812 161.789062 113.304688 166.828125 111.746094 C 170.941406 110.476562 175.21875 109.707031 179.03125 109.664062 C 187.597656 109.574219 172.117188 122.765625 156.632812 134.070312 C 169.851562 131.8125 188.113281 114.351562 190.617188 114.09375 C 194.832031 112.105469 199.382812 110.445312 203.988281 109.707031 C 206.003906 109.332031 208.078125 109.148438 210.214844 109.21875 C 210.21875 109.214844 210.222656 109.214844 210.222656 109.214844 C 214.40625 106.585938 215.167969 100.910156 213.761719 97.738281 C 211.285156 99.933594 207.882812 104.089844 205.34375 105.425781 C 197.175781 109.726562 190.058594 107.605469 185.683594 107 C 185.234375 106.9375 183.15625 102.605469 181.214844 102.042969 C 179.714844 101.609375 178.367188 104.707031 177.441406 105.757812 C 156.527344 99.925781 146.6875 76.269531 146.296875 77.113281 C 145.003906 79.914062 149.007812 90.261719 152.859375 95.183594 C 154.476562 97.25 121.195312 86.625 124.976562 89.351562 C 128.804688 92.109375 157.035156 103.101562 160.199219 104.300781 C 159.929688 104.5625 155.355469 108.261719 146.988281 106.488281 C 134.851562 103.914062 117.078125 95.414062 112.492188 94.933594 C 109.371094 94.605469 106.050781 94.992188 102.269531 96.679688 C 94.523438 101.382812 91.453125 112.746094 95.117188 120.457031 C 94.738281 121.894531 94.398438 123.355469 94.085938 124.828125 C 95.792969 119.230469 97.25 114.859375 96.964844 114.3125 C 96.480469 109.347656 97.53125 104.460938 100.761719 101.019531 C 101.554688 100.175781 102.960938 99.191406 104.734375 98.128906 C 115.4375 97.371094 141.753906 109.621094 140.5 112.203125 C 140.351562 112.511719 107 113.417969 101.496094 126.179688 C 100.53125 128.414062 104.132812 125.839844 107 124.722656 C 111.640625 122.90625 117.023438 121.242188 116.171875 122.167969 C 109.863281 129.027344 105.421875 137.515625 101.621094 143.757812 C 98.5625 148.777344 95.921875 152.34375 93.058594 152.433594 C 92.382812 152.457031 91.320312 153.554688 91.320312 154.316406 C 91.320312 206.875 132.21875 249.484375 182.671875 249.484375 C 205.53125 249.484375 226.429688 240.734375 242.453125 226.277344 C 235.929688 260.691406 239.753906 292.859375 254.6875 296.121094 L 254.6875 295.933594 C 252.691406 294.527344 251.207031 289.328125 250.722656 287.730469 C 249.804688 284.695312 249.304688 281.550781 249.148438 278.386719 C 248.847656 272.355469 249.765625 266.367188 251.222656 260.523438 C 252.175781 256.703125 253.449219 257.804688 253.203125 262.140625 C 252.285156 278.472656 254.316406 294.574219 264.734375 307.683594 C 273.101562 318.214844 286.824219 324.53125 300.246094 321.550781 C 300.917969 321.402344 277.699219 320.652344 273.671875 277.429688 " fill-opacity="1" fill-rule="nonzero"/><g clip-path="url(#902ce668c8)"><path fill="#a46243" d="M 285.210938 255.820312 C 290.191406 239.292969 303.335938 169.125 289.738281 108.820312 C 284.191406 84.203125 268.59375 42.820312 228.765625 38.421875 C 228.730469 38.425781 228.691406 38.429688 228.65625 38.433594 C 228.324219 38.472656 213.066406 43.609375 212.234375 48.75 C 217.222656 45.582031 229.269531 42.015625 229.480469 41.667969 C 240.894531 44.191406 250.191406 49.640625 257.71875 56.632812 C 255.101562 55.425781 252.371094 54.445312 249.542969 53.71875 C 242.410156 51.878906 235.382812 52.074219 228.226562 52.9375 C 229.65625 51.871094 233.035156 45.976562 231.027344 47.296875 C 227.65625 49.511719 223.042969 50.273438 223.144531 55.226562 C 223.171875 56.550781 224.304688 57.195312 225.5 57.023438 C 233.296875 55.878906 240.84375 55.316406 248.554688 57.300781 C 255.265625 59.03125 261.410156 62.265625 266.699219 66.699219 C 272.40625 74.355469 276.671875 82.839844 279.777344 90.976562 C 280.550781 93.011719 281.191406 94.992188 281.742188 96.917969 C 277.796875 91.042969 264.488281 79.175781 264.671875 79.292969 C 266.703125 80.574219 273.492188 79.058594 271.46875 77.785156 C 268.328125 75.804688 262.578125 75.683594 259.136719 77.65625 C 258.171875 78.210938 258.066406 79.199219 258.429688 79.980469 C 258.5 80.453125 258.769531 80.902344 259.324219 81.210938 C 271.664062 88.070312 284.363281 103.570312 288.777344 116.796875 C 302.257812 177.039062 285.648438 242.710938 280.679688 259.214844 C 280.464844 259.917969 280.28125 260.601562 280.082031 261.292969 C 276.25 234.835938 284.058594 209.457031 284.492188 208.613281 C 285.578125 206.488281 264.671875 226.546875 264.363281 271.722656 C 264.351562 273.398438 266.621094 260.742188 269.453125 249.414062 C 270.667969 244.5625 273.800781 234.960938 274.742188 231.570312 C 275.46875 228.949219 275.050781 237.296875 274.992188 241.398438 C 274.867188 250.238281 276.410156 258.960938 276.878906 267.75 C 276.929688 268.769531 275.003906 288.574219 281.285156 302.683594 C 287.328125 316.253906 299.101562 321.910156 300.433594 321.613281 C 302.488281 321.15625 268.214844 312.226562 285.210938 255.820312 " fill-opacity="1" fill-rule="nonzero"/></g><path fill="#a46243" d="M 230.550781 79.625 C 228.015625 84.089844 225.257812 88.410156 222.273438 92.570312 C 221.886719 87.824219 219.28125 83.300781 214.898438 80.785156 C 214.089844 80.320312 212.769531 80.53125 212.347656 81.453125 C 209.351562 88.007812 204.773438 93.40625 198.898438 97.332031 C 200.085938 92.335938 199.574219 86.90625 193.511719 85.480469 C 192.265625 85.183594 191.253906 86.046875 191.15625 87.269531 C 190.945312 89.910156 190.304688 92.371094 189.292969 94.699219 C 188.441406 88.113281 187.234375 80.945312 182.890625 76.21875 C 182.175781 75.441406 180.988281 75.582031 180.257812 76.21875 C 174.570312 81.167969 172.835938 88.421875 171.789062 95.582031 C 167.988281 93.636719 162.582031 87.179688 160.367188 81.792969 C 157.402344 74.574219 158.230469 68.261719 157.742188 67.554688 C 157.734375 67.539062 157.722656 67.527344 157.714844 67.511719 C 154.859375 70.660156 154.246094 74.789062 154.894531 79.089844 C 157.015625 88.382812 163.691406 96.402344 172.78125 100.070312 C 174.039062 100.578125 175 99.328125 175.140625 98.28125 C 175.96875 91.929688 177.046875 85.191406 181.394531 80.339844 C 183.003906 82.796875 183.652344 85.707031 184.253906 88.605469 C 185.101562 92.675781 185.789062 96.777344 186.375 100.894531 C 186.625 102.65625 188.964844 102.464844 189.777344 101.339844 C 192.28125 97.882812 193.8125 94.113281 194.519531 90.019531 C 197.242188 92.363281 195.242188 97.644531 193.917969 100.5 C 193.128906 102.1875 194.730469 103.90625 196.464844 103.042969 C 204.320312 99.128906 210.652344 92.90625 214.664062 85.164062 C 218.746094 88.625 219.886719 94.679688 217.054688 99.429688 C 216.980469 99.550781 216.972656 99.648438 217.015625 99.714844 C 220.261719 97.96875 223.503906 96.128906 226.105469 93.515625 C 230.011719 89.589844 231.109375 84.660156 230.667969 79.460938 C 230.625 79.515625 230.582031 79.5625 230.550781 79.625 " fill-opacity="1" fill-rule="nonzero"/><path fill="#a46243" d="M 273.898438 155.253906 C 273.898438 132.878906 270.070312 112.734375 257.667969 96.484375 C 253.96875 91.640625 245.726562 85.027344 234.90625 79.03125 C 234.800781 79.03125 234.601562 79.007812 234.339844 78.976562 C 234.5 80.734375 248.433594 87.65625 256.007812 100.777344 C 260.128906 107.914062 262.710938 116.050781 265.15625 123.867188 C 261.132812 121.527344 256.871094 119.628906 252.410156 118.246094 C 250.761719 117.738281 249.09375 117.300781 247.40625 116.933594 C 245.957031 116.621094 243.601562 116.710938 242.308594 116.066406 C 241.398438 115.613281 240.53125 116.695312 242.160156 115.324219 C 243.257812 114.398438 245.03125 113.914062 246.324219 113.308594 C 249.085938 112.019531 255.835938 108.777344 251.375 105.144531 C 248.664062 102.9375 245.070312 103.148438 241.75 104.023438 C 241.75 104.023438 241.207031 96.839844 240.128906 98.976562 C 238.902344 101.417969 237.671875 103.855469 236.445312 106.292969 C 235.792969 107.582031 236.910156 109.667969 238.546875 109.023438 C 240.144531 108.394531 246.898438 105.675781 248.753906 107.703125 C 245.753906 110.421875 240.953125 110.835938 238 113.683594 C 236.078125 115.535156 236.183594 118.230469 238.894531 119.242188 C 240.835938 119.964844 243.117188 119.867188 245.148438 120.261719 C 247.6875 120.753906 250.195312 121.410156 252.652344 122.226562 C 257.632812 123.890625 262.277344 126.277344 266.636719 129.175781 C 267.78125 133.828125 268.585938 138.652344 269.121094 143.621094 C 268.511719 143.25 267.859375 142.917969 267.175781 142.617188 C 266.035156 142.121094 257.261719 136.554688 257.003906 138.304688 C 256.730469 140.160156 267.183594 145.410156 269.234375 148.667969 C 269.34375 148.84375 269.472656 148.980469 269.609375 149.097656 C 269.875 152.957031 270 156.894531 270 160.90625 C 270 178.605469 265.507812 195.175781 257.691406 209.375 C 267.910156 194.007812 273.898438 175.359375 273.898438 155.253906 " fill-opacity="1" fill-rule="nonzero"/><path fill="#a46243" d="M 120.273438 91.066406 C 116.996094 90.410156 113.730469 89.710938 110.457031 89.042969 C 105.207031 91.773438 99.386719 95.339844 95.503906 99.039062 C 94.816406 99.695312 94.179688 100.773438 93.640625 102.117188 C 98.425781 96.210938 106.152344 92.621094 113.882812 91.886719 C 123.613281 96.875 139.976562 102.902344 144.515625 100.714844 C 135.980469 99.652344 127.957031 95.210938 120.273438 91.066406 " fill-opacity="1" fill-rule="nonzero"/><path fill="#a46243" d="M 108.171875 103.839844 C 105.917969 104.613281 111.28125 105.164062 112.402344 107.5 C 111.679688 107.945312 110.945312 108.375 110.203125 108.792969 C 109.09375 109.425781 107.960938 110.027344 106.851562 110.65625 C 104.613281 111.929688 102.414062 113.285156 100.460938 114.96875 C 97.644531 117.394531 96.011719 120.210938 94.972656 123.417969 C 94.882812 123.144531 94.785156 122.871094 94.707031 122.585938 C 92.1875 132.710938 91.199219 143.671875 91.199219 155.253906 C 91.199219 167.574219 93.449219 179.347656 97.539062 190.15625 C 94.777344 180.941406 93.28125 171.113281 93.28125 160.90625 C 93.28125 154.945312 92.1875 141.773438 94.664062 131.800781 C 96.625 123.914062 101.96875 118.484375 103.804688 117.042969 C 107.183594 114.390625 111.503906 113.042969 114.808594 110.355469 C 116.46875 109.003906 116.953125 106.972656 115.730469 105.109375 C 113.996094 102.460938 110.726562 102.960938 108.171875 103.839844 " fill-opacity="1" fill-rule="nonzero"/><path fill="#a46243" d="M 183.664062 124.613281 C 175.730469 126.964844 168.488281 132.765625 161.957031 137.671875 C 156.964844 141.429688 151.1875 144.917969 146.605469 149.152344 C 148.203125 143.757812 150.851562 138.84375 153.273438 133.847656 C 154.808594 130.679688 162.515625 121.828125 162.027344 119.023438 C 161.84375 117.957031 160.648438 117.582031 159.738281 117.726562 C 154.839844 118.5 150.609375 120.761719 147.1875 124.339844 C 145.535156 126.070312 154.914062 120.753906 157.6875 122.023438 C 156.386719 123.828125 144.84375 138.09375 141.972656 155.417969 C 141.664062 157.285156 157.199219 145.878906 163.835938 140.882812 C 169.40625 136.691406 175.660156 131.621094 182.335938 129.007812 C 181.773438 132.59375 178.683594 135.667969 176.289062 138.152344 C 173.683594 140.859375 158.945312 154.707031 155.921875 156.9375 C 154.015625 158.347656 187.386719 142.867188 185.957031 125.910156 C 185.871094 124.921875 184.53125 124.359375 183.664062 124.613281 " fill-opacity="1" fill-rule="nonzero"/><g clip-path="url(#cf259ac38b)"><path fill="#e89c62" d="M 238.96875 337.304688 C 238.5625 329.179688 237.679688 321.417969 235.925781 318.226562 C 228.152344 304.125 213.867188 295.128906 195.789062 290.75 L 195.789062 256.183594 L 167.847656 256.242188 L 167.847656 290.808594 C 149.769531 295.191406 135.484375 304.183594 127.714844 318.289062 C 125.960938 321.46875 125.078125 329.203125 124.671875 337.304688 L 238.96875 337.304688 " fill-opacity="1" fill-rule="nonzero"/></g><g clip-path="url(#e324006144)"><path fill="#df7c3f" d="M 140.3125 318.964844 C 148.621094 303.136719 196.199219 290.695312 196.199219 290.695312 L 195.789062 256.183594 L 167.847656 256.242188 L 167.847656 290.808594 C 149.769531 295.191406 135.484375 304.183594 127.714844 318.289062 C 125.960938 321.46875 125.078125 329.203125 124.671875 337.304688 L 135.855469 337.304688 C 135.6875 329.21875 136.722656 325.808594 140.3125 318.964844 " fill-opacity="1" fill-rule="nonzero"/></g><g clip-path="url(#9ea7fe36b4)"><path fill="#e89c62" d="M 264.492188 180.8125 L 256.5625 180.8125 L 256.5625 177.800781 C 256.5625 154.679688 244.007812 133.160156 223.503906 122.40625 C 222.972656 122.125 222.429688 121.851562 221.882812 121.582031 C 221.878906 121.582031 221.882812 121.582031 221.878906 121.585938 C 224.375 130.527344 222.003906 141.582031 216.683594 148.898438 C 199.691406 172.265625 172.972656 170.667969 174.394531 170.007812 C 180.054688 167.367188 217.4375 150.03125 212.152344 128.542969 C 211.519531 125.96875 204.976562 157.945312 155.9375 172.046875 C 145.238281 175.121094 133.570312 176.921875 122.667969 174.4375 C 121.417969 174.152344 125.003906 150.972656 127.570312 144 C 132.152344 131.527344 136.46875 126.601562 136.632812 124.773438 C 136.664062 124.410156 134.394531 125.34375 131.007812 127.503906 C 114.722656 137.902344 105.015625 156.007812 105.015625 175.308594 L 105.015625 179.804688 L 98.871094 179.804688 C 97.410156 179.804688 95.957031 180.101562 94.636719 180.730469 C 87.945312 183.9375 85.886719 190.738281 85.886719 198.652344 C 85.886719 208.613281 95.925781 218.285156 105.738281 220.296875 C 106.320312 223.984375 106.875 227.019531 107.308594 229.042969 C 111.277344 247.578125 128.628906 260.417969 142.636719 267.914062 C 146.363281 269.910156 151.417969 272.023438 155.753906 273.699219 C 167.625 278.476562 175.277344 279.875 181.132812 279.347656 C 186.988281 279.875 194.640625 278.476562 206.507812 273.699219 C 210.847656 272.023438 215.902344 269.910156 219.628906 267.914062 C 233.636719 260.417969 250.988281 247.578125 254.957031 229.042969 C 255.371094 227.105469 255.9375 224.242188 256.542969 220.765625 C 266.316406 218.714844 276.703125 209.082031 276.703125 199.15625 C 276.703125 192.042969 274.84375 185.46875 269.503906 182.164062 C 268.007812 181.234375 266.253906 180.8125 264.492188 180.8125 " fill-opacity="1" fill-rule="nonzero"/></g><path fill="#df7c3f" d="M 223.503906 122.40625 C 222.972656 122.125 222.429688 121.851562 221.882812 121.582031 C 221.878906 121.582031 221.882812 121.582031 221.878906 121.585938 C 224.375 130.527344 222.003906 141.582031 216.683594 148.898438 C 199.691406 172.265625 172.972656 170.667969 174.394531 170.007812 C 180.054688 167.367188 217.4375 150.03125 212.152344 128.542969 C 211.519531 125.96875 204.976562 157.945312 155.9375 172.046875 C 145.238281 175.121094 133.570312 176.921875 122.667969 174.4375 C 121.417969 174.152344 125.003906 150.972656 127.570312 144 C 132.152344 131.527344 136.46875 126.601562 136.632812 124.773438 C 136.664062 124.410156 134.394531 125.34375 131.007812 127.503906 C 114.792969 137.859375 105.105469 155.851562 105.023438 175.054688 C 105.355469 173.820312 105.730469 172.597656 106.152344 171.390625 C 107.230469 168.324219 108.75 162.953125 111.902344 161.335938 C 114.207031 160.152344 115.828125 161.917969 116.410156 164.050781 C 117.046875 166.410156 117.417969 176.898438 118.175781 179.554688 C 118.175781 179.554688 130.058594 185.585938 164.308594 173.742188 C 168.390625 172.332031 167.078125 177.199219 167.03125 178.007812 C 167.886719 178.496094 182.453125 176.960938 196.902344 170.636719 C 206.933594 166.242188 228.054688 151.222656 228.808594 132 C 234.195312 134.789062 240.226562 142.484375 245.285156 150.671875 C 251.121094 160.117188 255.667969 170.21875 256.453125 174.195312 C 255.222656 152.460938 242.9375 132.597656 223.503906 122.40625 " fill-opacity="1" fill-rule="nonzero"/><path fill="#df7c3f" d="M 106.808594 186.488281 C 106.71875 186.476562 106.628906 186.464844 106.539062 186.453125 C 92.527344 184.890625 90.027344 192.875 90.027344 200.792969 C 90.027344 208.03125 98.40625 213.96875 106.808594 214.941406 L 106.808594 186.488281 " fill-opacity="1" fill-rule="nonzero"/><path fill="#df7c3f" d="M 255.371094 186.972656 C 255.460938 186.964844 255.550781 186.949219 255.640625 186.9375 C 269.652344 185.378906 272.152344 193.359375 272.152344 201.28125 C 272.152344 208.515625 263.773438 214.453125 255.371094 215.429688 L 255.371094 186.972656 " fill-opacity="1" fill-rule="nonzero"/></svg>