<svg xmlns="http://www.w3.org/2000/svg" xmlns:xlink="http://www.w3.org/1999/xlink" width="500" zoomAndPan="magnify" viewBox="0 0 375 374.999991" height="500" preserveAspectRatio="xMidYMid meet" version="1.0"><defs><g/></defs><path stroke-linecap="butt" transform="matrix(0.843694, 0, 0, 0.843694, 62.095378, 31.7349)" fill="none" stroke-linejoin="miter" d="M 155.063856 171.742189 C 165.004326 175.168341 172.717798 181.224296 178.204271 189.914684 C 183.690744 198.554143 186.302028 208.952977 186.028862 221.125076 C 185.866814 235.954758 182.037858 248.825978 174.537363 259.747995 C 167.041498 270.665382 156.397277 279.087234 142.595441 285.008921 C 128.798234 290.930608 112.204547 293.889136 92.809749 293.889136 C 66.683025 293.889136 46.445579 287.91189 32.10667 275.962027 C 17.81869 264.012165 9.424618 246.54805 6.924453 223.569682 C 5.891978 214.823735 5.216007 204.47583 4.887282 192.521338 C 4.618746 180.571475 4.618746 167.885453 4.887282 154.467901 C 5.216007 141.050349 5.70215 127.794845 6.354971 114.706019 C 7.007792 101.557003 7.85044 89.417313 8.882916 78.28232 C 15.999126 74.152417 24.527466 70.837384 34.467937 68.341849 C 44.408408 65.786125 54.973919 64.100828 66.164472 63.28596 C 77.410585 62.475721 88.383531 62.392382 99.083311 63.045203 C 109.83865 63.693394 119.672632 65.133304 128.580627 67.360303 C 137.493252 69.591931 144.609462 72.494901 149.929258 76.0831 C 158.841883 82.004787 165.522879 89.009879 169.976877 97.103006 C 174.430874 105.196132 176.87548 113.617984 177.310694 122.363931 C 177.796837 131.109879 176.523605 139.448392 173.481738 147.379471 C 170.43987 155.310549 165.791415 162.102664 159.545633 167.751185 C 158.948371 168.348447 158.295551 168.945708 157.5918 169.54297 C 156.93898 170.140231 156.096331 170.876391 155.063856 171.742189 Z M 83.846195 226.500431 C 86.563966 227.96812 89.605834 228.755209 92.971797 228.866328 C 96.397949 228.917257 99.518525 228.269066 102.342785 226.907865 C 105.602259 225.606854 107.857038 223.597462 109.10712 220.87969 C 110.412762 218.106359 110.898905 214.930223 110.57481 211.346654 C 110.412762 208.355716 109.352507 205.88796 107.398674 203.929498 C 105.495771 201.920106 103.157654 200.614464 100.388953 200.017202 C 98.161954 199.586618 95.393253 199.392161 92.078219 199.44772 C 88.818745 199.50328 86.156532 200.591314 84.091581 202.707195 C 83.929533 206.508371 83.846195 210.420667 83.846195 214.44408 C 83.846195 218.462864 83.846195 222.481647 83.846195 226.500431 Z M 82.299796 147.948953 C 84.688843 149.254594 87.351055 149.879636 90.286434 149.824076 C 93.272742 149.768517 95.907175 148.712892 98.189733 146.647941 C 100.523221 144.527431 101.611255 141.105909 101.449208 136.378745 C 101.28716 132.197914 99.819471 129.345873 97.046139 127.822625 C 94.332997 126.248447 91.480957 125.623406 88.490019 125.947501 C 85.559271 126.220667 83.494319 127.091095 82.299796 128.558785 C 81.429368 130.623736 80.943225 133.526705 80.832107 137.276952 C 80.776548 140.97164 81.267321 144.527431 82.299796 147.948953 Z M 282.336141 110.140903 C 283.09545 114.543971 283.664932 120.951801 284.049217 129.373653 C 284.428872 137.739946 284.646479 147.351691 284.697408 158.218149 C 284.752967 169.029047 284.697408 180.298309 284.53536 192.035194 C 284.428872 203.711891 284.127926 215.282098 283.641783 226.745818 C 283.206569 238.153978 282.688016 248.636151 282.090754 258.196967 C 281.549052 267.757783 280.812892 275.665712 279.891535 281.911494 C 276.196847 285.874718 271.497463 288.754538 265.793383 290.546323 C 260.089303 292.342738 254.005568 292.828881 247.542179 292.014012 C 241.07879 291.199144 234.805228 288.972145 228.721493 285.333016 C 222.633128 281.693887 217.257774 276.50373 212.586169 269.771804 C 207.914565 263.035249 204.627311 254.696736 202.724407 244.756265 C 202.127146 241.927375 201.585443 237.227991 201.09467 230.658113 C 200.659456 224.028046 200.252022 216.235865 199.872367 207.272311 C 199.548272 198.253197 199.302885 188.558113 199.140838 178.182429 C 198.97879 167.806744 198.923231 157.40328 198.97879 146.972036 C 199.085279 136.489863 199.275106 126.493833 199.548272 116.988577 C 199.872367 107.47869 200.363141 99.061468 201.015961 91.727651 C 201.719712 84.393834 202.590139 78.796242 203.622615 74.939506 C 207.752517 71.244818 212.803776 68.448337 218.776392 66.545434 C 224.809198 64.591602 231.166099 63.776733 237.847095 64.100828 C 244.528091 64.373995 250.935921 66.138 257.075215 69.397474 C 263.270068 72.656948 268.617643 77.601719 273.1272 84.231786 C 277.636757 90.801664 280.706404 99.441123 282.336141 110.140903 Z M 282.336141 110.140903 " stroke="#00387b" stroke-width="12.516188" stroke-opacity="1" stroke-miterlimit="4"/><g fill="#4b99f5" fill-opacity="1"><g transform="translate(62.095378, 275.562564)"><g><path d="M 130.84375 -98.9375 C 139.226562 -96.050781 145.734375 -90.945312 150.359375 -83.625 C 154.992188 -76.3125 157.1875 -67.519531 156.9375 -57.25 C 156.8125 -44.738281 153.585938 -33.882812 147.265625 -24.6875 C 140.953125 -15.488281 131.972656 -8.382812 120.328125 -3.375 C 108.691406 1.625 94.675781 4.125 78.28125 4.125 C 56.257812 4.125 39.207031 -0.910156 27.125 -10.984375 C 15.050781 -21.054688 7.945312 -35.789062 5.8125 -55.1875 C 4.9375 -62.570312 4.375 -71.300781 4.125 -81.375 C 3.875 -91.457031 3.875 -102.160156 4.125 -113.484375 C 4.375 -124.804688 4.78125 -136.003906 5.34375 -147.078125 C 5.90625 -158.160156 6.628906 -168.394531 7.515625 -177.78125 C 13.515625 -181.28125 20.707031 -184.09375 29.09375 -186.21875 C 37.476562 -188.351562 46.394531 -189.765625 55.84375 -190.453125 C 65.289062 -191.140625 74.550781 -191.203125 83.625 -190.640625 C 92.707031 -190.078125 101 -188.851562 108.5 -186.96875 C 116.007812 -185.09375 122.019531 -182.65625 126.53125 -179.65625 C 134.039062 -174.644531 139.671875 -168.726562 143.421875 -161.90625 C 147.179688 -155.09375 149.25 -147.992188 149.625 -140.609375 C 150 -133.222656 148.898438 -126.179688 146.328125 -119.484375 C 143.765625 -112.796875 139.859375 -107.070312 134.609375 -102.3125 C 134.097656 -101.8125 133.5625 -101.3125 133 -100.8125 C 132.4375 -100.3125 131.71875 -99.6875 130.84375 -98.9375 Z M 70.78125 -52.75 C 73.03125 -51.5 75.59375 -50.84375 78.46875 -50.78125 C 81.34375 -50.71875 83.972656 -51.25 86.359375 -52.375 C 89.109375 -53.5 91.015625 -55.21875 92.078125 -57.53125 C 93.140625 -59.851562 93.546875 -62.515625 93.296875 -65.515625 C 93.171875 -68.015625 92.296875 -70.109375 90.671875 -71.796875 C 89.046875 -73.492188 87.046875 -74.59375 84.671875 -75.09375 C 82.785156 -75.46875 80.46875 -75.625 77.71875 -75.5625 C 74.96875 -75.5 72.71875 -74.59375 70.96875 -72.84375 C 70.84375 -69.582031 70.78125 -66.265625 70.78125 -62.890625 C 70.78125 -59.515625 70.78125 -56.132812 70.78125 -52.75 Z M 69.453125 -119.015625 C 71.460938 -117.890625 73.71875 -117.359375 76.21875 -117.421875 C 78.71875 -117.484375 80.9375 -118.390625 82.875 -120.140625 C 84.820312 -121.898438 85.734375 -124.78125 85.609375 -128.78125 C 85.484375 -132.28125 84.257812 -134.6875 81.9375 -136 C 79.625 -137.320312 77.21875 -137.859375 74.71875 -137.609375 C 72.21875 -137.359375 70.460938 -136.609375 69.453125 -135.359375 C 68.703125 -133.597656 68.296875 -131.15625 68.234375 -128.03125 C 68.171875 -124.90625 68.578125 -121.898438 69.453125 -119.015625 Z M 69.453125 -119.015625 "/></g></g></g><g fill="#4b99f5" fill-opacity="1"><g transform="translate(223.165688, 275.562564)"><g><path d="M 77.15625 -150.9375 C 77.78125 -147.175781 78.25 -141.757812 78.5625 -134.6875 C 78.875 -127.625 79.0625 -119.523438 79.125 -110.390625 C 79.1875 -101.253906 79.15625 -91.738281 79.03125 -81.84375 C 78.90625 -71.957031 78.65625 -62.195312 78.28125 -52.5625 C 77.90625 -42.925781 77.46875 -34.070312 76.96875 -26 C 76.46875 -17.925781 75.84375 -11.257812 75.09375 -6 C 71.957031 -2.625 67.976562 -0.1875 63.15625 1.3125 C 58.34375 2.8125 53.210938 3.21875 47.765625 2.53125 C 42.328125 1.84375 37.039062 -0.03125 31.90625 -3.09375 C 26.78125 -6.164062 22.242188 -10.546875 18.296875 -16.234375 C 14.359375 -21.929688 11.578125 -28.972656 9.953125 -37.359375 C 9.453125 -39.734375 9.015625 -43.707031 8.640625 -49.28125 C 8.265625 -54.851562 7.921875 -61.421875 7.609375 -68.984375 C 7.296875 -76.554688 7.078125 -84.722656 6.953125 -93.484375 C 6.828125 -102.242188 6.796875 -111.035156 6.859375 -119.859375 C 6.921875 -128.679688 7.078125 -137.097656 7.328125 -145.109375 C 7.578125 -153.117188 7.984375 -160.222656 8.546875 -166.421875 C 9.109375 -172.617188 9.828125 -177.34375 10.703125 -180.59375 C 14.203125 -183.71875 18.484375 -186.09375 23.546875 -187.71875 C 28.617188 -189.351562 33.972656 -190.046875 39.609375 -189.796875 C 45.242188 -189.546875 50.65625 -188.039062 55.84375 -185.28125 C 61.039062 -182.53125 65.546875 -178.367188 69.359375 -172.796875 C 73.179688 -167.234375 75.78125 -159.945312 77.15625 -150.9375 Z M 77.15625 -150.9375 "/></g></g></g></svg>