<svg xmlns="http://www.w3.org/2000/svg" xmlns:xlink="http://www.w3.org/1999/xlink" width="500" zoomAndPan="magnify" viewBox="0 0 375 374.999991" height="500" preserveAspectRatio="xMidYMid meet" version="1.0"><defs><g/></defs><path stroke-linecap="butt" transform="matrix(0.75, 0, 0, 0.75, 12.379684, 33.334568)" fill="none" stroke-linejoin="miter" d="M 164.530224 180.585171 C 175.0771 184.220588 183.259392 190.647672 189.082309 199.866422 C 194.905226 209.03309 197.670851 220.069549 197.384393 232.981008 C 197.207309 248.715384 193.144809 262.376843 185.191684 273.960177 C 177.238558 285.54872 165.941682 294.481012 151.301056 300.762262 C 136.66043 307.048721 119.051054 310.189346 98.472928 310.189346 C 70.748968 310.189346 49.280216 303.845596 34.066674 291.168512 C 18.905214 278.486219 9.998964 259.954968 7.347922 235.574758 C 6.254172 226.293507 5.535422 215.31434 5.186463 202.632047 C 4.900005 189.954963 4.900005 176.496629 5.186463 162.257045 C 5.535422 148.022669 6.051047 133.960168 6.743755 120.069542 C 7.436464 106.116416 8.327089 93.236207 9.426047 81.418498 C 16.972923 77.038289 26.025006 73.522664 36.571882 70.871622 C 47.118758 68.163289 58.3323 66.37683 70.202093 65.512247 C 82.134385 64.647663 93.775011 64.559122 105.134387 65.25183 C 116.545846 65.944538 126.978138 67.47058 136.431264 69.835164 C 145.884389 72.199747 153.431265 75.283081 159.082307 79.085164 C 168.535432 85.371623 175.623975 92.803915 180.347933 101.392457 C 185.0771 109.981 187.67085 118.913292 188.129184 128.194543 C 188.650017 137.475793 187.29585 146.319544 184.066684 154.736211 C 180.842725 163.152878 175.910433 170.356004 169.285433 176.350796 C 168.650016 176.986212 167.957307 177.621629 167.207307 178.251838 C 166.514599 178.887254 165.623974 179.663296 164.530224 180.585171 Z M 88.962511 238.689341 C 91.847927 240.241425 95.071886 241.079967 98.650011 241.19455 C 102.28022 241.251842 105.59272 240.559133 108.59272 239.121633 C 112.051054 237.736216 114.441679 235.606008 115.764596 232.720591 C 117.150012 229.783091 117.670846 226.408091 117.321887 222.606007 C 117.150012 219.434132 116.025012 216.81434 113.952096 214.736215 C 111.931262 212.606006 109.457304 211.22059 106.514595 210.590381 C 104.150012 210.12684 101.212511 209.923715 97.696886 209.981006 C 94.238553 210.038298 91.415636 211.194548 89.222927 213.43934 C 89.051052 217.475798 88.962511 221.62684 88.962511 225.892466 C 88.962511 230.158091 88.962511 234.423716 88.962511 238.689341 Z M 87.321885 155.340378 C 89.858344 156.725794 92.681261 157.387253 95.795844 157.329961 C 98.962511 157.272669 101.759386 156.147669 104.181262 153.960169 C 106.660428 151.710169 107.81147 148.079961 107.639595 143.064335 C 107.46772 138.626835 105.910428 135.600793 102.972928 133.98621 C 100.087511 132.314335 97.061469 131.652876 93.894803 131.996626 C 90.780219 132.288293 88.592719 133.210168 87.321885 134.76746 C 86.40001 136.95496 85.879177 140.038293 85.764594 144.01746 C 85.707302 147.934127 86.228135 151.710169 87.321885 155.340378 Z M 333.113568 64.215372 C 349.196903 64.043497 363.228154 65.855997 375.217738 69.663289 C 387.264614 73.408081 397.525031 78.277873 405.99899 84.272665 C 414.525032 90.267457 421.587532 96.637249 427.181283 103.382041 C 432.769825 110.126833 437.181283 116.553917 440.405242 122.663292 C 443.634409 128.715376 445.967742 133.61121 447.410451 137.36121 C 452.88441 152.460169 456.144826 167.704962 457.181285 183.095588 C 458.217743 198.428922 456.373993 213.871632 451.644826 229.434133 C 438.733367 270.819552 411.269823 296.470595 369.254196 306.382054 C 352.248986 310.475805 335.478152 311.77268 318.936484 310.27268 C 302.389608 308.777888 286.25419 303.960179 270.519814 295.835179 C 255.587522 288.11122 243.660437 278.085177 234.722937 265.746635 C 225.847936 253.356009 219.623978 239.059133 216.051061 222.866424 C 213.686477 212.606006 212.30106 202.142464 211.900019 191.481005 C 211.493769 180.762254 212.103144 170.356004 213.717727 160.27267 C 215.384394 150.184127 218.123977 141.132043 221.931269 133.121626 C 225.676061 124.767459 230.545853 116.553917 236.540645 108.481 C 242.535437 100.355999 249.941688 92.949749 258.759397 86.262248 C 267.577106 79.574748 278.123981 74.246622 290.405232 70.267455 C 302.681275 66.230997 316.915651 64.215372 333.113568 64.215372 Z M 334.321902 148.684127 C 328.504193 148.684127 323.113568 150.298711 318.155234 153.527878 C 313.1969 156.751836 309.280233 161.569545 306.400025 167.965379 C 303.5719 174.303921 302.47815 182.199754 303.113566 191.65288 C 303.748983 200.819547 305.8219 208.079964 309.337525 213.43934 C 312.910442 218.746632 317.087526 222.548715 321.873984 224.856007 C 326.717735 227.158091 331.181277 228.137257 335.275027 227.793507 C 339.48336 227.507049 343.748986 226.152882 348.071903 223.731007 C 352.452111 221.25184 356.170861 217.329965 359.222945 211.97059 C 362.280237 206.611214 364.035445 199.522672 364.498987 190.704963 C 365.129195 181.767463 364.066695 174.189337 361.295862 167.965379 C 358.587528 161.74142 354.811486 156.986211 349.972944 153.699753 C 345.186486 150.356002 339.972944 148.684127 334.321902 148.684127 Z M 334.321902 148.684127 " stroke="#806400" stroke-width="13.279987" stroke-opacity="1" stroke-miterlimit="4"/><g fill="#ffce1f" fill-opacity="1"><g transform="translate(12.379684, 262.084553)"><g><path d="M 123.40625 -93.3125 C 131.320312 -90.59375 137.460938 -85.78125 141.828125 -78.875 C 146.191406 -71.96875 148.257812 -63.675781 148.03125 -54 C 147.90625 -42.195312 144.863281 -31.957031 138.90625 -23.28125 C 132.945312 -14.601562 124.476562 -7.90625 113.5 -3.1875 C 102.519531 1.53125 89.296875 3.890625 73.828125 3.890625 C 53.054688 3.890625 36.972656 -0.859375 25.578125 -10.359375 C 14.191406 -19.859375 7.492188 -33.757812 5.484375 -52.0625 C 4.660156 -59.019531 4.128906 -67.25 3.890625 -76.75 C 3.660156 -86.257812 3.660156 -96.351562 3.890625 -107.03125 C 4.128906 -117.71875 4.515625 -128.285156 5.046875 -138.734375 C 5.578125 -149.179688 6.253906 -158.828125 7.078125 -167.671875 C 12.742188 -170.984375 19.53125 -173.640625 27.4375 -175.640625 C 35.351562 -177.648438 43.765625 -178.976562 52.671875 -179.625 C 61.585938 -180.28125 70.320312 -180.34375 78.875 -179.8125 C 87.4375 -179.28125 95.257812 -178.128906 102.34375 -176.359375 C 109.425781 -174.585938 115.09375 -172.285156 119.34375 -169.453125 C 126.425781 -164.722656 131.738281 -159.140625 135.28125 -152.703125 C 138.820312 -146.273438 140.769531 -139.578125 141.125 -132.609375 C 141.476562 -125.648438 140.441406 -119.015625 138.015625 -112.703125 C 135.597656 -106.390625 131.910156 -100.988281 126.953125 -96.5 C 126.484375 -96.03125 125.984375 -95.554688 125.453125 -95.078125 C 124.921875 -94.609375 124.238281 -94.019531 123.40625 -93.3125 Z M 66.75 -49.75 C 68.875 -48.570312 71.289062 -47.953125 74 -47.890625 C 76.71875 -47.835938 79.203125 -48.34375 81.453125 -49.40625 C 84.046875 -50.46875 85.84375 -52.085938 86.84375 -54.265625 C 87.851562 -56.453125 88.238281 -58.960938 88 -61.796875 C 87.882812 -64.160156 87.054688 -66.132812 85.515625 -67.71875 C 83.984375 -69.3125 82.097656 -70.347656 79.859375 -70.828125 C 78.085938 -71.179688 75.898438 -71.328125 73.296875 -71.265625 C 70.703125 -71.203125 68.578125 -70.347656 66.921875 -68.703125 C 66.804688 -65.628906 66.75 -62.5 66.75 -59.3125 C 66.75 -56.125 66.75 -52.9375 66.75 -49.75 Z M 65.515625 -112.25 C 67.398438 -111.195312 69.519531 -110.695312 71.875 -110.75 C 74.238281 -110.8125 76.335938 -111.664062 78.171875 -113.3125 C 80.003906 -114.96875 80.859375 -117.6875 80.734375 -121.46875 C 80.617188 -124.769531 79.46875 -127.039062 77.28125 -128.28125 C 75.101562 -129.519531 72.832031 -130.019531 70.46875 -129.78125 C 68.101562 -129.550781 66.453125 -128.84375 65.515625 -127.65625 C 64.804688 -126.007812 64.421875 -123.707031 64.359375 -120.75 C 64.304688 -117.800781 64.691406 -114.96875 65.515625 -112.25 Z M 65.515625 -112.25 "/></g></g></g><g fill="#ffce1f" fill-opacity="1"><g transform="translate(164.301459, 262.084553)"><g><path d="M 97.921875 -180.609375 C 109.953125 -180.722656 120.484375 -179.363281 129.515625 -176.53125 C 138.546875 -173.695312 146.25 -170.035156 152.625 -165.546875 C 159 -161.066406 164.28125 -156.285156 168.46875 -151.203125 C 172.664062 -146.128906 175.972656 -141.320312 178.390625 -136.78125 C 180.804688 -132.238281 182.546875 -128.550781 183.609375 -125.71875 C 187.742188 -114.382812 190.191406 -102.960938 190.953125 -91.453125 C 191.722656 -79.941406 190.335938 -68.34375 186.796875 -56.65625 C 177.117188 -25.613281 156.519531 -6.375 125 1.0625 C 112.257812 4.132812 99.691406 5.109375 87.296875 3.984375 C 74.898438 2.859375 62.800781 -0.769531 51 -6.90625 C 39.78125 -12.6875 30.835938 -20.207031 24.171875 -29.46875 C 17.503906 -38.738281 12.8125 -49.457031 10.09375 -61.625 C 8.320312 -69.289062 7.285156 -77.132812 6.984375 -85.15625 C 6.691406 -93.1875 7.164062 -100.976562 8.40625 -108.53125 C 9.644531 -116.09375 11.679688 -122.882812 14.515625 -128.90625 C 17.347656 -135.15625 21.003906 -141.316406 25.484375 -147.390625 C 29.972656 -153.472656 35.523438 -159.023438 42.140625 -164.046875 C 48.753906 -169.066406 56.660156 -173.082031 65.859375 -176.09375 C 75.066406 -179.101562 85.753906 -180.609375 97.921875 -180.609375 Z M 98.796875 -117.21875 C 94.429688 -117.21875 90.390625 -116.003906 86.671875 -113.578125 C 82.953125 -111.160156 80.03125 -107.5625 77.90625 -102.78125 C 75.78125 -98 74.953125 -92.066406 75.421875 -84.984375 C 75.898438 -78.140625 77.46875 -72.710938 80.125 -68.703125 C 82.78125 -64.691406 85.90625 -61.828125 89.5 -60.109375 C 93.101562 -58.398438 96.441406 -57.664062 99.515625 -57.90625 C 102.703125 -58.132812 105.914062 -59.164062 109.15625 -61 C 112.40625 -62.832031 115.179688 -65.753906 117.484375 -69.765625 C 119.785156 -73.773438 121.113281 -79.085938 121.46875 -85.703125 C 121.9375 -92.429688 121.132812 -98.125 119.0625 -102.78125 C 117 -107.445312 114.164062 -111.019531 110.5625 -113.5 C 106.96875 -115.976562 103.046875 -117.21875 98.796875 -117.21875 Z M 98.796875 -117.21875 "/></g></g></g></svg>