<svg xmlns="http://www.w3.org/2000/svg" xmlns:xlink="http://www.w3.org/1999/xlink" width="500" zoomAndPan="magnify" viewBox="0 0 375 374.999991" height="500" preserveAspectRatio="xMidYMid meet" version="1.0"><defs><g/></defs><path stroke-linecap="butt" transform="matrix(0.75, 0, 0, 0.75, 18.023441, 33.834373)" fill="none" stroke-linejoin="miter" d="M 161.432298 178.929181 C 171.781257 182.491681 179.807299 188.798974 185.520841 197.845849 C 191.234383 206.840641 193.947925 217.668767 193.666675 230.335435 C 193.4948 245.778144 189.510425 259.179186 181.703133 270.543771 C 173.901049 281.913563 162.817715 290.679189 148.45313 296.845856 C 134.088546 303.007314 116.807295 306.090648 96.619794 306.090648 C 69.416667 306.090648 48.354165 299.866689 33.421873 287.429188 C 18.546872 274.986479 9.812496 256.804186 7.208329 232.88231 C 6.135413 223.778142 5.427079 213.0021 5.088538 200.564599 C 4.807288 188.12189 4.807288 174.913556 5.088538 160.944805 C 5.427079 146.976054 5.937496 133.179178 6.614579 119.548969 C 7.296871 105.866676 8.171871 93.226051 9.244788 81.6323 C 16.656247 77.335425 25.531247 73.882299 35.880206 71.283341 C 46.234374 68.627091 57.229166 66.871882 68.880209 66.022924 C 80.588543 65.173965 92.010418 65.090632 103.151044 65.767715 C 114.348962 66.450007 124.583337 67.944799 133.859379 70.262507 C 143.135422 72.585424 150.541672 75.611466 156.083339 79.340633 C 165.359382 85.5073 172.317715 92.798967 176.953132 101.226051 C 181.588549 109.653135 184.135424 118.418761 184.588549 127.522928 C 185.098966 136.627095 183.765633 145.309387 180.598966 153.564596 C 177.432299 161.825013 172.598965 168.892722 166.093757 174.772931 C 165.473965 175.397931 164.796881 176.017723 164.057298 176.642723 C 163.380215 177.262514 162.505215 178.028139 161.432298 178.929181 Z M 87.291668 235.934393 C 90.114585 237.460435 93.281252 238.283352 96.791669 238.397935 C 100.354169 238.455227 103.604169 237.772935 106.546878 236.361477 C 109.937503 235.002102 112.286461 232.908351 113.588545 230.085435 C 114.942712 227.200018 115.453128 223.892726 115.114587 220.158351 C 114.942712 217.048975 113.838545 214.476059 111.807295 212.4396 C 109.82292 210.34585 107.395836 208.986475 104.510419 208.366683 C 102.192711 207.913558 99.307294 207.715641 95.859377 207.772933 C 92.463543 207.830225 89.69271 208.960433 87.541668 211.163558 C 87.375001 215.1271 87.291668 219.194809 87.291668 223.382309 C 87.291668 227.564601 87.291668 231.752101 87.291668 235.934393 Z M 85.677085 154.158346 C 88.166668 155.517721 90.937502 156.168763 93.989585 156.111471 C 97.09896 156.05418 99.843752 154.950013 102.218752 152.80418 C 104.651044 150.595846 105.781253 147.033346 105.614586 142.116679 C 105.442711 137.762512 103.916669 134.793762 101.031252 133.210428 C 98.203127 131.569803 95.234377 130.918761 92.125002 131.257303 C 89.072918 131.538553 86.921876 132.444803 85.677085 133.970845 C 84.770835 136.121887 84.265626 139.147929 84.151043 143.048971 C 84.093751 146.892721 84.604168 150.595846 85.677085 154.158346 Z M 435.250024 222.278142 C 433.552107 237.095852 429.229191 249.845853 422.270857 260.538562 C 415.317731 271.168771 406.661481 279.960438 396.312522 286.918772 C 385.963563 293.819814 374.765645 298.934397 362.723978 302.272939 C 350.677102 305.611481 338.630226 307.278148 326.58335 307.278148 C 316.859391 307.278148 307.104182 306.71044 297.317724 305.580231 C 287.536473 304.507314 278.062514 302.356273 268.901055 299.132314 C 259.796888 295.908356 251.427096 291.215647 243.791678 285.054188 C 236.156261 278.830229 229.708344 270.715646 224.447927 260.705228 C 219.192718 250.637519 215.572926 238.111477 213.59376 223.127101 C 211.557301 209.101058 210.567718 193.830224 210.625009 177.319806 C 210.734384 160.80418 211.473968 143.955221 212.828135 126.762511 C 214.244801 109.51251 216.026052 92.913551 218.171885 76.965633 C 219.869802 75.158341 222.953135 73.486466 227.421886 71.960424 C 231.942719 70.377091 237.260428 69.220841 243.369803 68.481257 C 249.47397 67.689591 255.807304 67.580216 262.369805 68.142716 C 268.927097 68.653132 275.093764 70.064591 280.859389 72.387508 C 286.630223 74.705216 291.520848 78.03855 295.536473 82.397925 C 299.552099 86.6948 302.041682 92.377092 303.000016 99.444801 C 303.286474 101.934384 303.453141 106.715635 303.510432 113.783344 C 303.625016 120.793761 303.682307 129.137511 303.682307 138.804179 C 303.682307 148.418763 303.791682 158.517722 304.020849 169.090639 C 304.244807 179.663556 304.614599 189.762515 305.125016 199.377099 C 305.687516 208.934392 306.510432 217.017725 307.583349 223.637517 C 308.541683 228.726059 310.666683 232.741685 313.942725 235.679185 C 317.281266 238.621893 321.041683 240.205227 325.229184 240.434394 C 329.411476 240.658352 333.255226 239.356269 336.765643 236.528143 C 340.328143 233.647935 342.729185 229.03856 343.973977 222.705226 C 345.046893 217.15835 346.010435 209.923975 346.859393 200.986474 C 347.708352 191.99689 348.359394 182.18439 348.80731 171.548972 C 349.317727 160.861472 349.515644 150.033346 349.40106 139.059387 C 349.348977 128.090636 349.005227 117.710427 348.385435 107.929177 C 347.765643 98.147926 346.77606 89.778134 345.416685 82.8198 C 348.468769 79.710425 352.656269 77.048966 357.968769 74.845841 C 363.34377 72.585424 369.338562 71.028132 375.953145 70.179174 C 382.572937 69.330216 389.244813 69.418757 395.97398 70.434382 C 402.703147 71.397924 408.984398 73.543758 414.807315 76.8823 C 420.687523 80.215633 425.609399 84.970842 429.567732 91.1323 C 433.526066 97.298968 435.958358 105.101051 436.864608 114.54376 C 437.484399 120.877094 438.052108 126.647928 438.557316 131.851053 C 439.125024 136.996887 439.520858 142.226054 439.744816 147.543762 C 439.973983 152.861471 440.000025 158.856263 439.833358 165.528139 C 439.718775 172.142722 439.291691 180.007306 438.557316 189.111474 C 437.880233 198.215641 436.776066 209.272933 435.250024 222.278142 Z M 435.250024 222.278142 " stroke="#80004e" stroke-width="13.03005" stroke-opacity="1" stroke-miterlimit="4"/><g fill="#ff66c4" fill-opacity="1"><g transform="translate(18.023441, 259.584358)"><g><path d="M 121.09375 -91.5625 C 128.851562 -88.894531 134.875 -84.171875 139.15625 -77.390625 C 143.4375 -70.617188 145.460938 -62.484375 145.234375 -52.984375 C 145.117188 -41.398438 142.132812 -31.351562 136.28125 -22.84375 C 130.4375 -14.332031 122.128906 -7.757812 111.359375 -3.125 C 100.585938 1.507812 87.613281 3.828125 72.4375 3.828125 C 52.0625 3.828125 36.285156 -0.832031 25.109375 -10.15625 C 13.929688 -19.476562 7.359375 -33.117188 5.390625 -51.078125 C 4.578125 -57.910156 4.050781 -65.988281 3.8125 -75.3125 C 3.582031 -84.632812 3.582031 -94.535156 3.8125 -105.015625 C 4.050781 -115.492188 4.429688 -125.859375 4.953125 -136.109375 C 5.472656 -146.359375 6.140625 -155.828125 6.953125 -164.515625 C 12.503906 -167.765625 19.160156 -170.375 26.921875 -172.34375 C 34.679688 -174.3125 42.929688 -175.613281 51.671875 -176.25 C 60.421875 -176.882812 68.992188 -176.941406 77.390625 -176.421875 C 85.785156 -175.898438 93.457031 -174.769531 100.40625 -173.03125 C 107.363281 -171.289062 112.925781 -169.035156 117.09375 -166.265625 C 124.039062 -161.628906 129.25 -156.15625 132.71875 -149.84375 C 136.195312 -143.53125 138.109375 -136.957031 138.453125 -130.125 C 138.804688 -123.289062 137.796875 -116.773438 135.421875 -110.578125 C 133.046875 -104.378906 129.425781 -99.082031 124.5625 -94.6875 C 124.101562 -94.21875 123.613281 -93.75 123.09375 -93.28125 C 122.570312 -92.820312 121.90625 -92.25 121.09375 -91.5625 Z M 65.5 -48.8125 C 67.582031 -47.65625 69.953125 -47.046875 72.609375 -46.984375 C 75.273438 -46.929688 77.710938 -47.425781 79.921875 -48.46875 C 82.460938 -49.507812 84.222656 -51.101562 85.203125 -53.25 C 86.191406 -55.394531 86.570312 -57.851562 86.34375 -60.625 C 86.226562 -62.945312 85.414062 -64.890625 83.90625 -66.453125 C 82.40625 -68.015625 80.554688 -69.023438 78.359375 -69.484375 C 76.617188 -69.835938 74.472656 -69.984375 71.921875 -69.921875 C 69.378906 -69.867188 67.296875 -69.03125 65.671875 -67.40625 C 65.554688 -64.394531 65.5 -61.328125 65.5 -58.203125 C 65.5 -55.078125 65.5 -51.945312 65.5 -48.8125 Z M 64.28125 -110.140625 C 66.132812 -109.097656 68.21875 -108.601562 70.53125 -108.65625 C 72.851562 -108.71875 74.910156 -109.5625 76.703125 -111.1875 C 78.492188 -112.8125 79.332031 -115.472656 79.21875 -119.171875 C 79.101562 -122.421875 77.972656 -124.648438 75.828125 -125.859375 C 73.691406 -127.078125 71.460938 -127.570312 69.140625 -127.34375 C 66.828125 -127.113281 65.207031 -126.421875 64.28125 -125.265625 C 63.582031 -123.640625 63.203125 -121.378906 63.140625 -118.484375 C 63.085938 -115.585938 63.46875 -112.804688 64.28125 -110.140625 Z M 64.28125 -110.140625 "/></g></g></g><g fill="#ff66c4" fill-opacity="1"><g transform="translate(167.083778, 259.584358)"><g><path d="M 177.375 -59.0625 C 176.101562 -47.945312 172.859375 -38.394531 167.640625 -30.40625 C 162.429688 -22.414062 155.945312 -15.8125 148.1875 -10.59375 C 140.425781 -5.382812 132.03125 -1.535156 123 0.953125 C 113.96875 3.441406 104.9375 4.6875 95.90625 4.6875 C 88.601562 4.6875 81.273438 4.28125 73.921875 3.46875 C 66.566406 2.664062 59.472656 1.050781 52.640625 -1.375 C 45.804688 -3.8125 39.519531 -7.347656 33.78125 -11.984375 C 28.050781 -16.617188 23.21875 -22.695312 19.28125 -30.21875 C 15.34375 -37.75 12.625 -47.132812 11.125 -58.375 C 9.613281 -68.914062 8.882812 -80.378906 8.9375 -92.765625 C 9 -105.160156 9.550781 -117.816406 10.59375 -130.734375 C 11.632812 -143.648438 12.96875 -156.070312 14.59375 -168 C 15.863281 -169.382812 18.175781 -170.65625 21.53125 -171.8125 C 24.894531 -172.976562 28.863281 -173.847656 33.4375 -174.421875 C 38.019531 -175.003906 42.769531 -175.09375 47.6875 -174.6875 C 52.613281 -174.28125 57.25 -173.207031 61.59375 -171.46875 C 65.9375 -169.726562 69.613281 -167.238281 72.625 -164 C 75.632812 -160.757812 77.484375 -156.472656 78.171875 -151.140625 C 78.410156 -149.285156 78.554688 -145.722656 78.609375 -140.453125 C 78.671875 -135.191406 78.703125 -128.941406 78.703125 -121.703125 C 78.703125 -114.460938 78.785156 -106.875 78.953125 -98.9375 C 79.128906 -91 79.421875 -83.441406 79.828125 -76.265625 C 80.234375 -69.085938 80.84375 -63.007812 81.65625 -58.03125 C 82.34375 -54.207031 83.929688 -51.191406 86.421875 -48.984375 C 88.921875 -46.785156 91.734375 -45.597656 94.859375 -45.421875 C 97.984375 -45.253906 100.875 -46.238281 103.53125 -48.375 C 106.195312 -50.519531 107.992188 -53.96875 108.921875 -58.71875 C 109.734375 -62.882812 110.457031 -68.328125 111.09375 -75.046875 C 111.738281 -81.765625 112.234375 -89.117188 112.578125 -97.109375 C 112.921875 -105.109375 113.0625 -113.21875 113 -121.4375 C 112.945312 -129.65625 112.6875 -137.441406 112.21875 -144.796875 C 111.757812 -152.148438 111.007812 -158.4375 109.96875 -163.65625 C 112.28125 -165.96875 115.4375 -167.960938 119.4375 -169.640625 C 123.4375 -171.328125 127.925781 -172.488281 132.90625 -173.125 C 137.882812 -173.757812 142.890625 -173.695312 147.921875 -172.9375 C 152.960938 -172.1875 157.679688 -170.566406 162.078125 -168.078125 C 166.484375 -165.585938 170.160156 -162.023438 173.109375 -157.390625 C 176.066406 -152.765625 177.894531 -146.921875 178.59375 -139.859375 C 179.050781 -135.109375 179.484375 -130.789062 179.890625 -126.90625 C 180.296875 -123.03125 180.585938 -119.09375 180.765625 -115.09375 C 180.941406 -111.101562 180.96875 -106.613281 180.84375 -101.625 C 180.726562 -96.644531 180.410156 -90.738281 179.890625 -83.90625 C 179.367188 -77.070312 178.53125 -68.789062 177.375 -59.0625 Z M 177.375 -59.0625 "/></g></g></g></svg>