<svg xmlns="http://www.w3.org/2000/svg" xmlns:xlink="http://www.w3.org/1999/xlink" width="500" zoomAndPan="magnify" viewBox="0 0 375 374.999991" height="500" preserveAspectRatio="xMidYMid meet" version="1.0"><defs><g/></defs><path stroke-linecap="butt" transform="matrix(0.75, 0, 0, 0.75, -44.646365, 22.629366)" fill="none" stroke-linejoin="miter" d="M 172.439956 159.145231 C 175.143081 154.968147 177.502456 151.228563 179.502456 147.931688 C 181.559748 144.634813 183.71079 141.072313 185.950373 137.249396 C 188.184748 133.363979 190.83579 128.504604 193.893082 122.676478 C 195.835791 119.025436 198.163916 114.759811 200.872249 109.874394 C 203.637874 104.926477 206.492041 99.775435 209.43475 94.421268 C 212.439958 89.004601 215.325375 83.884809 218.091 79.056684 C 220.913917 74.228558 223.445167 70.140016 225.684751 66.780641 C 232.632668 65.311891 239.726418 65.311891 246.966002 66.780641 C 254.205586 68.197308 260.94517 70.7546 267.184754 74.462933 C 273.486837 78.171267 278.726421 82.853559 282.903505 88.504601 C 287.085797 94.098351 289.528505 100.515018 290.23163 107.754602 C 290.939964 114.994186 289.29413 122.707728 285.288921 130.89002 C 282.226421 137.306687 279.429546 142.546271 276.898296 146.608771 C 274.429546 150.608772 272.075379 154.202522 269.835795 157.379605 C 267.60142 160.499397 265.064962 164.004606 262.242045 167.890023 C 259.41392 171.718148 256.091003 176.660857 252.262878 182.723357 C 250.497253 185.311899 250.408711 188.051482 251.997253 190.936899 C 257.94517 201.884817 264.127462 212.921276 270.544129 224.051485 C 277.018088 235.119194 283.023296 245.712945 288.554547 255.837945 C 294.091005 265.962946 298.387881 275.030655 301.450381 283.035864 C 299.684756 289.337947 296.179547 295.134823 290.939964 300.431698 C 285.70038 305.728573 279.492046 309.968157 272.309754 313.150449 C 265.184754 316.384824 257.710795 317.973366 249.877461 317.916074 C 242.106627 317.858783 234.632668 315.619199 227.450376 311.207741 C 220.325376 306.733782 214.205583 299.52024 209.085791 289.572322 C 206.492041 284.447322 203.460791 278.593155 199.986833 271.999405 C 196.575374 265.405654 192.038915 256.546279 186.387873 245.421278 C 183.67954 249.775445 180.913915 254.369195 178.090998 259.192112 C 175.262873 264.020237 173.617039 267.728571 173.143081 270.322321 C 172.674331 272.853571 172.465997 277.26503 172.523289 283.567114 C 172.643081 289.806697 173.028497 296.311906 173.674331 303.08274 C 169.492039 306.61399 164.106622 309.348365 157.512871 311.291074 C 150.919121 313.233782 143.825371 314.119199 136.23162 313.942116 C 128.70037 313.765032 121.455577 312.410866 114.512869 309.879615 C 107.622243 307.291074 101.762868 303.317115 96.939951 297.95774 C 92.111825 292.546281 89.137867 285.567114 88.018075 277.030655 C 87.075367 270.259821 86.226408 261.900446 85.460783 251.952528 C 84.75245 242.004611 84.163908 230.994194 83.695158 218.926484 C 83.2212 206.858775 82.867033 194.410858 82.632658 181.577524 C 82.398283 168.681689 82.309741 156.056689 82.367033 143.692105 C 82.429533 131.332729 82.663908 119.853561 83.075367 109.254602 C 83.486825 98.598352 84.106617 89.504601 84.929533 81.968142 C 88.757659 77.145225 94.111826 73.3171 101.002451 70.488975 C 107.94516 67.666058 115.424327 66.103558 123.429536 65.811891 C 131.492036 65.515016 139.174329 66.666058 146.476412 69.2546 C 153.835788 71.78585 159.898288 75.905642 164.669122 81.619184 C 169.492039 87.327517 172.085789 94.921268 172.439956 104.400435 C 172.731622 111.462936 172.908706 117.087936 172.965997 121.26502 C 173.085789 125.447312 173.143081 128.978562 173.143081 131.863979 C 173.143081 134.744187 173.054539 137.806687 172.877456 141.046271 C 172.762872 144.280646 172.611831 148.462938 172.439956 153.58273 C 172.262872 154.233772 172.200372 154.968147 172.262872 155.791064 C 172.377456 156.556689 172.439956 157.67648 172.439956 159.145231 Z M 311.085798 239.150444 C 313.028507 229.494193 315.559757 218.692109 318.679549 206.744192 C 321.799341 194.791066 325.330591 182.520232 329.273299 169.921273 C 333.221216 157.265022 337.221217 145.046271 341.283717 133.275437 C 345.403509 121.442103 349.439967 110.608769 353.382676 100.780643 C 357.325385 90.947309 360.830593 83.056684 363.887885 77.113975 C 370.481635 74.874392 378.341011 72.8171 387.466012 70.931683 C 396.653512 68.988975 406.393096 67.900433 416.69518 67.666058 C 426.997264 67.369183 437.210806 68.697308 447.335807 71.640016 C 457.460808 74.525433 466.762892 79.676475 475.242059 87.093142 C 483.778518 94.452518 490.783727 104.811894 496.257685 118.176478 C 498.846227 124.593145 501.820186 132.832729 505.174353 142.900438 C 508.528519 152.905647 512.064978 164.030648 515.773312 176.27544 C 519.481645 188.462941 523.101437 201.03065 526.632687 213.983776 C 530.163938 226.936902 533.403521 239.561902 536.34623 251.863987 C 539.351438 264.171279 541.731647 275.384821 543.497272 285.509822 C 543.028522 289.806697 540.788938 294.103573 536.788938 298.400448 C 532.783729 302.640032 527.663937 306.259824 521.424354 309.265032 C 515.242062 312.207741 508.559769 314.150449 501.377477 315.093157 C 494.257685 316.093157 487.163935 315.530657 480.096226 313.410866 C 473.033725 311.353574 466.648308 307.259824 460.934766 301.140032 C 455.226433 295.015031 450.778516 286.509822 447.601432 275.619197 C 440.007682 275.26503 432.117056 275.176488 423.934764 275.353571 C 415.752472 275.530655 407.804555 275.530655 400.096221 275.353571 C 397.976429 280.35878 395.976429 285.832739 394.091012 291.780656 C 392.262887 297.723365 390.47122 303.817115 388.705595 310.056699 C 373.929552 315.530657 361.064968 317.504616 350.117051 315.973366 C 339.226425 314.442116 330.424341 310.233782 323.710799 303.348365 C 317.059757 296.400448 312.64309 287.395239 310.466006 276.32753 C 308.288923 265.197321 308.497256 252.806695 311.085798 239.150444 Z M 409.455596 206.390025 C 414.575388 206.390025 419.549347 206.390025 424.377472 206.390025 C 429.205598 206.390025 434.122265 206.390025 439.122265 206.390025 C 436.88789 196.556691 434.564973 186.874399 432.148306 177.33794 C 429.736848 167.744189 427.408722 158.14523 425.174347 148.55148 C 424.643097 148.666063 423.908722 148.728563 422.966014 148.728563 C 420.846222 158.20773 418.606639 167.712939 416.252472 177.249398 C 413.960805 186.728566 411.689971 196.442108 409.455596 206.390025 Z M 409.455596 206.390025 " stroke="#006f73" stroke-width="13.563413" stroke-opacity="1" stroke-miterlimit="4"/><g fill="#5ce1e6" fill-opacity="1"><g transform="translate(9.447382, 256.629351)"><g><path d="M 75.234375 -114.65625 C 77.285156 -117.789062 79.0625 -120.59375 80.5625 -123.0625 C 82.070312 -125.53125 83.671875 -128.210938 85.359375 -131.109375 C 87.046875 -134.003906 89.035156 -137.625 91.328125 -141.96875 C 92.773438 -144.738281 94.519531 -147.960938 96.5625 -151.640625 C 98.613281 -155.316406 100.753906 -159.171875 102.984375 -163.203125 C 105.222656 -167.242188 107.394531 -171.070312 109.5 -174.6875 C 111.613281 -178.3125 113.515625 -181.390625 115.203125 -183.921875 C 120.378906 -185.003906 125.679688 -185.003906 131.109375 -183.921875 C 136.535156 -182.835938 141.597656 -180.90625 146.296875 -178.125 C 151.003906 -175.351562 154.925781 -171.859375 158.0625 -167.640625 C 161.195312 -163.421875 163.035156 -158.597656 163.578125 -153.171875 C 164.117188 -147.742188 162.878906 -141.957031 159.859375 -135.8125 C 157.578125 -130.988281 155.5 -127.066406 153.625 -124.046875 C 151.757812 -121.035156 149.984375 -118.351562 148.296875 -116 C 146.609375 -113.65625 144.707031 -111.035156 142.59375 -108.140625 C 140.488281 -105.242188 137.988281 -101.507812 135.09375 -96.9375 C 133.757812 -95 133.695312 -92.945312 134.90625 -90.78125 C 139.363281 -82.582031 144.003906 -74.320312 148.828125 -66 C 153.648438 -57.6875 158.140625 -49.734375 162.296875 -42.140625 C 166.460938 -34.546875 169.691406 -27.734375 171.984375 -21.703125 C 170.660156 -16.992188 168.035156 -12.648438 164.109375 -8.671875 C 160.191406 -4.703125 155.550781 -1.515625 150.1875 0.890625 C 144.820312 3.304688 139.210938 4.484375 133.359375 4.421875 C 127.515625 4.367188 121.910156 2.6875 116.546875 -0.625 C 111.179688 -3.945312 106.570312 -9.34375 102.71875 -16.8125 C 100.789062 -20.675781 98.53125 -25.078125 95.9375 -30.015625 C 93.34375 -34.960938 89.9375 -41.59375 85.71875 -49.90625 C 83.664062 -46.65625 81.582031 -43.21875 79.46875 -39.59375 C 77.363281 -35.976562 76.132812 -33.207031 75.78125 -31.28125 C 75.414062 -29.351562 75.257812 -26.035156 75.3125 -21.328125 C 75.375 -16.628906 75.648438 -11.75 76.140625 -6.6875 C 73.003906 -4.039062 68.960938 -1.992188 64.015625 -0.546875 C 59.078125 0.898438 53.773438 1.5625 48.109375 1.4375 C 42.441406 1.320312 37.015625 0.300781 31.828125 -1.625 C 26.640625 -3.550781 22.238281 -6.535156 18.625 -10.578125 C 15.007812 -14.617188 12.78125 -19.832031 11.9375 -26.21875 C 11.207031 -31.28125 10.570312 -37.550781 10.03125 -45.03125 C 9.488281 -52.507812 9.035156 -60.769531 8.671875 -69.8125 C 8.316406 -78.851562 8.046875 -88.191406 7.859375 -97.828125 C 7.679688 -107.472656 7.625 -116.9375 7.6875 -126.21875 C 7.75 -135.507812 7.929688 -144.132812 8.234375 -152.09375 C 8.535156 -160.050781 8.984375 -166.863281 9.578125 -172.53125 C 12.472656 -176.144531 16.515625 -179.003906 21.703125 -181.109375 C 26.890625 -183.222656 32.492188 -184.398438 38.515625 -184.640625 C 44.546875 -184.878906 50.300781 -184.035156 55.78125 -182.109375 C 61.269531 -180.179688 65.820312 -177.078125 69.4375 -172.796875 C 73.0625 -168.515625 74.992188 -162.816406 75.234375 -155.703125 C 75.472656 -150.398438 75.625 -146.179688 75.6875 -143.046875 C 75.75 -139.910156 75.78125 -137.253906 75.78125 -135.078125 C 75.78125 -132.910156 75.71875 -130.617188 75.59375 -128.203125 C 75.46875 -125.796875 75.347656 -122.664062 75.234375 -118.8125 C 75.109375 -118.332031 75.078125 -117.789062 75.140625 -117.1875 C 75.203125 -116.582031 75.234375 -115.738281 75.234375 -114.65625 Z M 75.234375 -114.65625 "/></g></g></g><g fill="#5ce1e6" fill-opacity="1"><g transform="translate(185.952108, 256.629351)"><g><path d="M 2.71875 -54.609375 C 4.15625 -61.847656 6.050781 -69.957031 8.40625 -78.9375 C 10.757812 -87.914062 13.410156 -97.132812 16.359375 -106.59375 C 19.316406 -116.0625 22.332031 -125.226562 25.40625 -134.09375 C 28.476562 -142.957031 31.488281 -151.066406 34.4375 -158.421875 C 37.394531 -165.773438 40.019531 -171.679688 42.3125 -176.140625 C 47.257812 -177.828125 53.164062 -179.394531 60.03125 -180.84375 C 66.90625 -182.289062 74.203125 -183.101562 81.921875 -183.28125 C 89.640625 -183.46875 97.296875 -182.472656 104.890625 -180.296875 C 112.484375 -178.128906 119.472656 -174.269531 125.859375 -168.71875 C 132.253906 -163.175781 137.5 -155.40625 141.59375 -145.40625 C 143.53125 -140.582031 145.765625 -134.398438 148.296875 -126.859375 C 150.828125 -119.328125 153.476562 -110.976562 156.25 -101.8125 C 159.019531 -92.65625 161.726562 -83.222656 164.375 -73.515625 C 167.03125 -63.804688 169.472656 -54.335938 171.703125 -45.109375 C 173.941406 -35.890625 175.722656 -27.484375 177.046875 -19.890625 C 176.679688 -16.640625 174.992188 -13.414062 171.984375 -10.21875 C 168.972656 -7.019531 165.144531 -4.304688 160.5 -2.078125 C 155.851562 0.148438 150.847656 1.625 145.484375 2.34375 C 140.117188 3.070312 134.785156 2.648438 129.484375 1.078125 C 124.179688 -0.484375 119.390625 -3.554688 115.109375 -8.140625 C 110.828125 -12.722656 107.476562 -19.113281 105.0625 -27.3125 C 99.40625 -27.550781 93.5 -27.609375 87.34375 -27.484375 C 81.195312 -27.367188 75.226562 -27.367188 69.4375 -27.484375 C 67.875 -23.742188 66.398438 -19.644531 65.015625 -15.1875 C 63.628906 -10.726562 62.269531 -6.148438 60.9375 -1.453125 C 49.851562 2.648438 40.210938 4.128906 32.015625 2.984375 C 23.816406 1.835938 17.210938 -1.320312 12.203125 -6.5 C 7.203125 -11.6875 3.882812 -18.441406 2.25 -26.765625 C 0.625 -35.085938 0.78125 -44.367188 2.71875 -54.609375 Z M 76.5 -79.203125 C 80.351562 -79.203125 84.085938 -79.203125 87.703125 -79.203125 C 91.328125 -79.203125 95.003906 -79.203125 98.734375 -79.203125 C 97.046875 -86.554688 95.296875 -93.820312 93.484375 -101 C 91.679688 -108.175781 89.9375 -115.378906 88.25 -122.609375 C 87.882812 -122.492188 87.34375 -122.4375 86.625 -122.4375 C 85.050781 -115.320312 83.390625 -108.207031 81.640625 -101.09375 C 79.898438 -93.976562 78.1875 -86.679688 76.5 -79.203125 Z M 76.5 -79.203125 "/></g></g></g></svg>