<svg xmlns="http://www.w3.org/2000/svg" xmlns:xlink="http://www.w3.org/1999/xlink" width="500" zoomAndPan="magnify" viewBox="0 0 375 374.999991" height="500" preserveAspectRatio="xMidYMid meet" version="1.0"><defs><g/></defs><path stroke-linecap="butt" transform="matrix(0.75, 0, 0, 0.75, -44.646365, 37.061189)" fill="none" stroke-linejoin="miter" d="M 190.643082 159.147592 C 193.346207 154.9653 195.705582 151.230925 197.705582 147.934049 C 199.762874 144.637174 201.913916 141.074674 204.153499 137.246549 C 206.387875 133.361132 209.038916 128.506965 212.096208 122.678839 C 214.038917 119.027797 216.367042 114.762172 219.075375 109.871547 C 221.841001 104.928838 224.695168 99.777796 227.637876 94.418421 C 230.643085 89.006962 233.528501 83.881962 236.294127 79.053837 C 239.117043 74.23092 241.648294 70.137169 243.887877 66.783002 C 250.835794 65.309044 257.929545 65.309044 265.169129 66.783002 C 272.408712 68.194461 279.148296 70.756961 285.38788 74.465295 C 291.689964 78.173628 296.929547 82.850712 301.106631 88.506962 C 305.288923 94.095504 307.731631 100.512171 308.434756 107.756963 C 309.14309 114.996547 307.497256 122.704881 303.492048 130.892382 C 300.429547 137.309049 297.632672 142.548632 295.101422 146.605924 C 292.632672 150.611133 290.278505 154.199675 288.038922 157.381967 C 285.804547 160.501759 283.268088 164.001759 280.445171 167.887176 C 277.617046 171.715301 274.294129 176.65801 270.466004 182.725718 C 268.700379 185.31426 268.611837 188.053844 270.200379 190.934052 C 276.148296 201.887178 282.330588 212.923637 288.747255 224.048638 C 295.221214 235.116347 301.226423 245.715306 306.757673 255.840306 C 312.294132 265.965307 316.591007 275.027808 319.653507 283.038225 C 317.887882 289.3351 314.382673 295.131976 309.14309 300.434059 C 303.903506 305.730935 297.695172 309.970518 290.51288 313.147602 C 283.38788 316.387185 275.913921 317.975727 268.080587 317.918436 C 260.309753 317.855936 252.835794 315.62156 245.653502 311.204893 C 238.528502 306.730935 232.40871 299.517393 227.288918 289.569475 C 224.695168 284.449683 221.663917 278.590308 218.189959 271.996558 C 214.7785 265.402807 210.242042 256.543432 204.591 245.418431 C 201.882666 249.777806 199.117041 254.366348 196.294124 259.194473 C 193.465999 264.022599 191.820165 267.730932 191.346207 270.319474 C 190.877457 272.850724 190.669124 277.267391 190.726415 283.564267 C 190.846207 289.809059 191.231624 296.309059 191.877457 303.079893 C 187.695165 306.611143 182.309748 309.350727 175.715998 311.293435 C 169.122247 313.236144 162.028497 314.12156 154.434746 313.944477 C 146.903496 313.767394 139.658704 312.413227 132.715995 309.881977 C 125.825369 307.288227 119.965994 303.314268 115.143077 297.960101 C 110.314952 292.543434 107.340993 285.569475 106.221201 277.033016 C 105.278493 270.262182 104.429535 261.902807 103.66391 251.95489 C 102.955576 242.006972 102.367034 230.996555 101.898284 218.928846 C 101.424326 206.861137 101.070159 194.408011 100.835784 181.574677 C 100.601409 168.684051 100.512868 156.05905 100.570159 143.694466 C 100.632659 131.329882 100.867034 119.850714 101.278493 109.256963 C 101.689951 98.600713 102.309743 89.506962 103.13266 81.970503 C 106.960785 77.142378 112.314952 73.314253 119.205577 70.491336 C 126.148286 67.663211 133.627453 66.105919 141.632662 65.809044 C 149.695163 65.517377 157.377455 66.663211 164.679539 69.256961 C 172.038914 71.788211 178.101414 75.908003 182.872248 81.616337 C 187.695165 87.32467 190.288915 94.923629 190.643082 104.397588 C 190.934749 111.465297 191.111832 117.085089 191.169124 121.267381 C 191.288915 125.444465 191.346207 128.975715 191.346207 131.861132 C 191.346207 134.746549 191.257665 137.809049 191.080582 141.043424 C 190.965999 144.283007 190.814957 148.460091 190.643082 153.585091 C 190.465999 154.230925 190.403499 154.9653 190.465999 155.793425 C 190.580582 156.55905 190.643082 157.673633 190.643082 159.147592 Z M 338.913925 256.283015 C 338.61705 250.803848 338.382675 243.449681 338.205592 234.204888 C 338.028508 224.960096 337.939967 214.60072 337.939967 203.121553 C 337.939967 191.642386 338.059758 179.75176 338.294133 167.449676 C 338.528508 155.142383 338.856633 143.048632 339.268092 131.152798 C 339.67955 119.262172 340.1483 108.256963 340.67955 98.131963 C 341.268092 88.001754 341.976425 79.559045 342.799342 72.788211 C 350.804551 72.022586 360.549343 71.434044 372.028511 71.022586 C 383.56497 70.605919 395.929554 70.314253 409.111846 70.137169 C 422.299347 69.960086 435.518098 70.017378 448.762891 70.314253 C 462.007683 70.548628 474.549351 70.902794 486.377476 71.371544 C 498.21081 71.845503 508.367061 72.402794 516.846228 73.053836 C 518.314978 75.111128 519.611854 78.319461 520.731645 82.678837 C 521.846229 87.033004 522.43477 91.949671 522.49727 97.423629 C 522.611854 102.897588 521.93477 108.460088 520.46602 114.11113 C 519.049354 119.704881 516.518103 124.913215 512.87227 129.74134 C 509.27852 134.569465 504.304561 138.423632 497.945185 141.309049 C 491.591018 144.194466 483.58581 145.637174 473.929559 145.637174 C 470.752475 145.637174 467.778517 145.637174 465.007683 145.637174 C 462.304558 145.637174 459.242058 145.637174 455.825391 145.637174 C 452.471224 145.637174 448.288932 145.637174 443.288932 145.637174 C 438.341015 145.637174 432.012889 145.637174 424.304556 145.637174 C 424.304556 147.579883 424.304556 149.553841 424.304556 151.553841 C 424.304556 153.553841 424.304556 155.762175 424.304556 158.173633 C 427.835806 158.173633 432.689973 158.085092 438.872265 157.913217 C 445.054557 157.736133 451.762891 157.647592 459.007683 157.647592 C 466.247267 157.647592 473.367059 157.970508 480.377476 158.616342 C 487.382685 159.267383 493.445185 160.413217 498.564977 162.05905 C 503.393102 172.658009 505.393103 182.548635 504.570186 191.730927 C 503.804561 200.855928 500.242061 208.329887 493.887894 214.158012 C 487.528518 219.928846 478.403518 223.137179 466.512892 223.783013 C 462.450391 223.902804 458.653516 223.960096 455.122266 223.960096 C 451.585807 223.960096 447.497265 223.934054 442.846224 223.871554 C 438.195182 223.814263 432.101431 223.783013 424.564972 223.783013 C 424.564972 226.314263 424.564972 228.756971 424.564972 231.116347 C 424.564972 233.408013 424.564972 235.850722 424.564972 238.444472 C 425.330597 238.444472 426.184764 238.444472 427.127472 238.444472 C 428.127473 238.444472 429.101431 238.444472 430.044139 238.444472 C 442.934765 238.444472 455.825391 238.444472 468.721225 238.444472 C 481.669143 238.444472 494.591019 238.444472 507.481644 238.444472 C 512.132686 244.861139 515.106645 251.980931 516.40352 259.814265 C 517.700395 267.585099 517.137895 275.178849 514.726437 282.595517 C 512.30977 289.954892 507.721228 296.340309 500.950394 301.756976 C 494.236852 307.116351 485.174351 310.52781 473.752476 312.001768 C 469.689975 312.470519 464.247267 312.913227 457.413933 313.324685 C 450.585807 313.736144 443.080599 313.970519 434.898306 314.033019 C 426.716014 314.147602 418.564972 314.12156 410.439971 313.944477 C 402.314971 313.767394 394.986845 313.444477 388.450387 312.970519 C 381.976428 312.501769 376.971219 311.850727 373.439969 311.02781 C 362.195177 308.142393 353.867051 302.40281 348.450384 293.809059 C 343.091009 285.215308 339.913925 272.704891 338.913925 256.283015 Z M 338.913925 256.283015 " stroke="#804d00" stroke-width="13.563413" stroke-opacity="1" stroke-miterlimit="4"/><g fill="#ffbd59" fill-opacity="1"><g transform="translate(23.099725, 271.061174)"><g><path d="M 75.234375 -114.65625 C 77.285156 -117.789062 79.0625 -120.59375 80.5625 -123.0625 C 82.070312 -125.53125 83.671875 -128.210938 85.359375 -131.109375 C 87.046875 -134.003906 89.035156 -137.625 91.328125 -141.96875 C 92.773438 -144.738281 94.519531 -147.960938 96.5625 -151.640625 C 98.613281 -155.316406 100.753906 -159.171875 102.984375 -163.203125 C 105.222656 -167.242188 107.394531 -171.070312 109.5 -174.6875 C 111.613281 -178.3125 113.515625 -181.390625 115.203125 -183.921875 C 120.378906 -185.003906 125.679688 -185.003906 131.109375 -183.921875 C 136.535156 -182.835938 141.597656 -180.90625 146.296875 -178.125 C 151.003906 -175.351562 154.925781 -171.859375 158.0625 -167.640625 C 161.195312 -163.421875 163.035156 -158.597656 163.578125 -153.171875 C 164.117188 -147.742188 162.878906 -141.957031 159.859375 -135.8125 C 157.578125 -130.988281 155.5 -127.066406 153.625 -124.046875 C 151.757812 -121.035156 149.984375 -118.351562 148.296875 -116 C 146.609375 -113.65625 144.707031 -111.035156 142.59375 -108.140625 C 140.488281 -105.242188 137.988281 -101.507812 135.09375 -96.9375 C 133.757812 -95 133.695312 -92.945312 134.90625 -90.78125 C 139.363281 -82.582031 144.003906 -74.320312 148.828125 -66 C 153.648438 -57.6875 158.140625 -49.734375 162.296875 -42.140625 C 166.460938 -34.546875 169.691406 -27.734375 171.984375 -21.703125 C 170.660156 -16.992188 168.035156 -12.648438 164.109375 -8.671875 C 160.191406 -4.703125 155.550781 -1.515625 150.1875 0.890625 C 144.820312 3.304688 139.210938 4.484375 133.359375 4.421875 C 127.515625 4.367188 121.910156 2.6875 116.546875 -0.625 C 111.179688 -3.945312 106.570312 -9.34375 102.71875 -16.8125 C 100.789062 -20.675781 98.53125 -25.078125 95.9375 -30.015625 C 93.34375 -34.960938 89.9375 -41.59375 85.71875 -49.90625 C 83.664062 -46.65625 81.582031 -43.21875 79.46875 -39.59375 C 77.363281 -35.976562 76.132812 -33.207031 75.78125 -31.28125 C 75.414062 -29.351562 75.257812 -26.035156 75.3125 -21.328125 C 75.375 -16.628906 75.648438 -11.75 76.140625 -6.6875 C 73.003906 -4.039062 68.960938 -1.992188 64.015625 -0.546875 C 59.078125 0.898438 53.773438 1.5625 48.109375 1.4375 C 42.441406 1.320312 37.015625 0.300781 31.828125 -1.625 C 26.640625 -3.550781 22.238281 -6.535156 18.625 -10.578125 C 15.007812 -14.617188 12.78125 -19.832031 11.9375 -26.21875 C 11.207031 -31.28125 10.570312 -37.550781 10.03125 -45.03125 C 9.488281 -52.507812 9.035156 -60.769531 8.671875 -69.8125 C 8.316406 -78.851562 8.046875 -88.191406 7.859375 -97.828125 C 7.679688 -107.472656 7.625 -116.9375 7.6875 -126.21875 C 7.75 -135.507812 7.929688 -144.132812 8.234375 -152.09375 C 8.535156 -160.050781 8.984375 -166.863281 9.578125 -172.53125 C 12.472656 -176.144531 16.515625 -179.003906 21.703125 -181.109375 C 26.890625 -183.222656 32.492188 -184.398438 38.515625 -184.640625 C 44.546875 -184.878906 50.300781 -184.035156 55.78125 -182.109375 C 61.269531 -180.179688 65.820312 -177.078125 69.4375 -172.796875 C 73.0625 -168.515625 74.992188 -162.816406 75.234375 -155.703125 C 75.472656 -150.398438 75.625 -146.179688 75.6875 -143.046875 C 75.75 -139.910156 75.78125 -137.253906 75.78125 -135.078125 C 75.78125 -132.910156 75.71875 -130.617188 75.59375 -128.203125 C 75.46875 -125.796875 75.347656 -122.664062 75.234375 -118.8125 C 75.109375 -118.332031 75.078125 -117.789062 75.140625 -117.1875 C 75.203125 -116.582031 75.234375 -115.738281 75.234375 -114.65625 Z M 75.234375 -114.65625 "/></g></g></g><g fill="#ffbd59" fill-opacity="1"><g transform="translate(199.604451, 271.061174)"><g><path d="M 9.953125 -41.78125 C 9.703125 -45.875 9.515625 -51.382812 9.390625 -58.3125 C 9.273438 -65.25 9.21875 -73.023438 9.21875 -81.640625 C 9.21875 -90.265625 9.304688 -99.1875 9.484375 -108.40625 C 9.671875 -117.632812 9.914062 -126.707031 10.21875 -135.625 C 10.519531 -144.550781 10.878906 -152.8125 11.296875 -160.40625 C 11.722656 -168 12.238281 -174.328125 12.84375 -179.390625 C 18.863281 -179.992188 26.1875 -180.445312 34.8125 -180.75 C 43.4375 -181.050781 52.691406 -181.257812 62.578125 -181.375 C 72.460938 -181.5 82.375 -181.472656 92.3125 -181.296875 C 102.257812 -181.117188 111.664062 -180.847656 120.53125 -180.484375 C 129.394531 -180.117188 137.019531 -179.695312 143.40625 -179.21875 C 144.488281 -177.644531 145.453125 -175.226562 146.296875 -171.96875 C 147.140625 -168.71875 147.59375 -165.039062 147.65625 -160.9375 C 147.71875 -156.84375 147.207031 -152.6875 146.125 -148.46875 C 145.039062 -144.25 143.140625 -140.332031 140.421875 -136.71875 C 137.710938 -133.101562 133.972656 -130.207031 129.203125 -128.03125 C 124.441406 -125.863281 118.445312 -124.78125 111.21875 -124.78125 C 108.8125 -124.78125 106.582031 -124.78125 104.53125 -124.78125 C 102.476562 -124.78125 100.1875 -124.78125 97.65625 -124.78125 C 95.125 -124.78125 91.988281 -124.78125 88.25 -124.78125 C 84.507812 -124.78125 79.75 -124.78125 73.96875 -124.78125 C 73.96875 -123.332031 73.96875 -121.851562 73.96875 -120.34375 C 73.96875 -118.84375 73.96875 -117.1875 73.96875 -115.375 C 76.613281 -115.375 80.257812 -115.429688 84.90625 -115.546875 C 89.550781 -115.671875 94.582031 -115.734375 100 -115.734375 C 105.425781 -115.734375 110.757812 -115.492188 116 -115.015625 C 121.25 -114.535156 125.804688 -113.691406 129.671875 -112.484375 C 133.285156 -104.523438 134.789062 -97.109375 134.1875 -90.234375 C 133.582031 -83.367188 130.898438 -77.765625 126.140625 -73.421875 C 121.378906 -69.078125 114.535156 -66.664062 105.609375 -66.1875 C 102.597656 -66.070312 99.765625 -66.015625 97.109375 -66.015625 C 94.460938 -66.015625 91.390625 -66.039062 87.890625 -66.09375 C 84.390625 -66.15625 79.804688 -66.1875 74.140625 -66.1875 C 74.140625 -64.257812 74.140625 -62.421875 74.140625 -60.671875 C 74.140625 -58.921875 74.140625 -57.082031 74.140625 -55.15625 C 74.742188 -55.15625 75.40625 -55.15625 76.125 -55.15625 C 76.851562 -55.15625 77.582031 -55.15625 78.3125 -55.15625 C 87.945312 -55.15625 97.617188 -55.15625 107.328125 -55.15625 C 117.035156 -55.15625 126.710938 -55.15625 136.359375 -55.15625 C 139.847656 -50.332031 142.078125 -44.992188 143.046875 -39.140625 C 144.015625 -33.296875 143.59375 -27.601562 141.78125 -22.0625 C 139.96875 -16.519531 136.53125 -11.726562 131.46875 -7.6875 C 126.40625 -3.644531 119.59375 -1.082031 111.03125 0 C 108.019531 0.363281 103.953125 0.695312 98.828125 1 C 93.703125 1.300781 88.066406 1.476562 81.921875 1.53125 C 75.773438 1.59375 69.65625 1.5625 63.5625 1.4375 C 57.476562 1.320312 51.992188 1.082031 47.109375 0.71875 C 42.222656 0.363281 38.457031 -0.113281 35.8125 -0.71875 C 27.363281 -2.894531 21.117188 -7.207031 17.078125 -13.65625 C 13.046875 -20.101562 10.671875 -29.476562 9.953125 -41.78125 Z M 9.953125 -41.78125 "/></g></g></g></svg>