<svg xmlns="http://www.w3.org/2000/svg" xmlns:xlink="http://www.w3.org/1999/xlink" width="500" zoomAndPan="magnify" viewBox="0 0 375 374.999991" height="500" preserveAspectRatio="xMidYMid meet" version="1.0"><defs><g/></defs><path stroke-linecap="butt" transform="matrix(0.75, 0, 0, 0.75, -44.646365, 37.061189)" fill="none" stroke-linejoin="miter" d="M 234.53371 159.147592 C 237.236835 154.9653 239.59621 151.230925 241.59621 147.934049 C 243.653502 144.637174 245.804544 141.074674 248.044127 137.246549 C 250.278503 133.361132 252.929544 128.506965 255.986836 122.678839 C 257.929545 119.027797 260.25767 114.762172 262.966003 109.871547 C 265.731629 104.928838 268.585795 99.777796 271.528504 94.418421 C 274.533712 89.006962 277.419129 83.881962 280.184754 79.053837 C 283.007671 74.23092 285.538922 70.137169 287.778505 66.783002 C 294.726422 65.309044 301.820173 65.309044 309.059756 66.783002 C 316.29934 68.194461 323.038924 70.756961 329.278508 74.465295 C 335.580591 78.173628 340.820175 82.850712 344.997259 88.506962 C 349.179551 94.095504 351.622259 100.512171 352.325384 107.756963 C 353.033718 114.996547 351.387884 122.704881 347.382676 130.892382 C 344.320175 137.309049 341.5233 142.548632 338.99205 146.605924 C 336.5233 150.611133 334.169133 154.199675 331.92955 157.381967 C 329.695174 160.501759 327.158716 164.001759 324.335799 167.887176 C 321.507674 171.715301 318.184757 176.65801 314.356632 182.725718 C 312.591007 185.31426 312.502465 188.053844 314.091007 190.934052 C 320.038924 201.887178 326.221216 212.923637 332.637883 224.048638 C 339.111842 235.116347 345.11705 245.715306 350.648301 255.840306 C 356.184759 265.965307 360.481635 275.027808 363.544135 283.038225 C 361.77851 289.3351 358.273301 295.131976 353.033718 300.434059 C 347.794134 305.730935 341.5858 309.970518 334.403508 313.147602 C 327.278508 316.387185 319.804549 317.975727 311.971215 317.918436 C 304.200381 317.855936 296.726422 315.62156 289.54413 311.204893 C 282.41913 306.730935 276.299338 299.517393 271.179546 289.569475 C 268.585795 284.449683 265.554545 278.590308 262.080587 271.996558 C 258.669128 265.402807 254.132669 256.543432 248.481627 245.418431 C 245.773294 249.777806 243.007669 254.366348 240.184752 259.194473 C 237.356627 264.022599 235.710793 267.730932 235.236835 270.319474 C 234.768085 272.850724 234.559751 277.267391 234.617043 283.564267 C 234.736835 289.809059 235.122252 296.309059 235.768085 303.079893 C 231.585793 306.611143 226.200376 309.350727 219.606626 311.293435 C 213.012875 313.236144 205.919125 314.12156 198.325374 313.944477 C 190.794124 313.767394 183.549331 312.413227 176.606623 309.881977 C 169.715997 307.288227 163.856622 303.314268 159.033705 297.960101 C 154.20558 292.543434 151.231621 285.569475 150.111829 277.033016 C 149.169121 270.262182 148.320162 261.902807 147.554537 251.95489 C 146.846204 242.006972 146.257662 230.996555 145.788912 218.928846 C 145.314954 206.861137 144.960787 194.408011 144.726412 181.574677 C 144.492037 168.684051 144.403496 156.05905 144.460787 143.694466 C 144.523287 131.329882 144.757662 119.850714 145.169121 109.256963 C 145.580579 98.600713 146.200371 89.506962 147.023287 81.970503 C 150.851413 77.142378 156.20558 73.314253 163.096205 70.491336 C 170.038914 67.663211 177.518081 66.105919 185.52329 65.809044 C 193.58579 65.517377 201.268083 66.663211 208.570166 69.256961 C 215.929542 71.788211 221.992042 75.908003 226.762876 81.616337 C 231.585793 87.32467 234.179543 94.923629 234.53371 104.397588 C 234.825377 111.465297 235.00246 117.085089 235.059752 121.267381 C 235.179543 125.444465 235.236835 128.975715 235.236835 131.861132 C 235.236835 134.746549 235.148293 137.809049 234.97121 141.043424 C 234.856627 144.283007 234.705585 148.460091 234.53371 153.585091 C 234.356626 154.230925 234.294126 154.9653 234.356626 155.793425 C 234.47121 156.55905 234.53371 157.673633 234.53371 159.147592 Z M 468.632684 118.173631 C 469.460809 122.944464 470.075392 129.887173 470.48685 139.012174 C 470.903517 148.079883 471.137892 158.501758 471.195184 170.272593 C 471.252475 181.986135 471.195184 194.204886 471.0181 206.918428 C 470.903517 219.574679 470.575392 232.116347 470.04935 244.538222 C 469.575392 256.897598 469.0181 268.262182 468.372267 278.621558 C 467.778517 288.980934 466.98685 297.548643 465.98685 304.319476 C 461.981641 308.616352 456.887891 311.736143 450.710807 313.678852 C 444.528515 315.62156 437.934765 316.15281 430.929556 315.267394 C 423.924347 314.381977 417.122263 311.970518 410.528513 308.02781 C 403.939971 304.079893 398.111846 298.460101 393.049345 291.158017 C 387.986845 283.861142 384.424345 274.824683 382.361845 264.053849 C 381.716011 260.991348 381.127469 255.897598 380.596219 248.772598 C 380.127469 241.590306 379.684761 233.147597 379.273303 223.434054 C 378.919136 213.658012 378.653511 203.152803 378.476428 191.908011 C 378.299344 180.663218 378.242053 169.392384 378.299344 158.085092 C 378.419136 146.725716 378.622261 135.892382 378.919136 125.590298 C 379.273303 115.288214 379.799344 106.163213 380.507678 98.215296 C 381.273303 90.272587 382.216011 84.204879 383.335803 80.027795 C 387.809762 76.022586 393.28372 72.991336 399.757679 70.934044 C 406.294138 68.814253 413.179555 67.928836 420.419139 68.283002 C 427.663931 68.579877 434.60664 70.491336 441.26289 74.022586 C 447.971224 77.553836 453.768099 82.913212 458.658725 90.095504 C 463.544142 97.215296 466.867058 106.574672 468.632684 118.173631 Z M 468.632684 118.173631 " stroke="#002557" stroke-width="13.563413" stroke-opacity="1" stroke-miterlimit="4"/><g fill="#004aad" fill-opacity="1"><g transform="translate(56.017691, 271.061174)"><g><path d="M 75.234375 -114.65625 C 77.285156 -117.789062 79.0625 -120.59375 80.5625 -123.0625 C 82.070312 -125.53125 83.671875 -128.210938 85.359375 -131.109375 C 87.046875 -134.003906 89.035156 -137.625 91.328125 -141.96875 C 92.773438 -144.738281 94.519531 -147.960938 96.5625 -151.640625 C 98.613281 -155.316406 100.753906 -159.171875 102.984375 -163.203125 C 105.222656 -167.242188 107.394531 -171.070312 109.5 -174.6875 C 111.613281 -178.3125 113.515625 -181.390625 115.203125 -183.921875 C 120.378906 -185.003906 125.679688 -185.003906 131.109375 -183.921875 C 136.535156 -182.835938 141.597656 -180.90625 146.296875 -178.125 C 151.003906 -175.351562 154.925781 -171.859375 158.0625 -167.640625 C 161.195312 -163.421875 163.035156 -158.597656 163.578125 -153.171875 C 164.117188 -147.742188 162.878906 -141.957031 159.859375 -135.8125 C 157.578125 -130.988281 155.5 -127.066406 153.625 -124.046875 C 151.757812 -121.035156 149.984375 -118.351562 148.296875 -116 C 146.609375 -113.65625 144.707031 -111.035156 142.59375 -108.140625 C 140.488281 -105.242188 137.988281 -101.507812 135.09375 -96.9375 C 133.757812 -95 133.695312 -92.945312 134.90625 -90.78125 C 139.363281 -82.582031 144.003906 -74.320312 148.828125 -66 C 153.648438 -57.6875 158.140625 -49.734375 162.296875 -42.140625 C 166.460938 -34.546875 169.691406 -27.734375 171.984375 -21.703125 C 170.660156 -16.992188 168.035156 -12.648438 164.109375 -8.671875 C 160.191406 -4.703125 155.550781 -1.515625 150.1875 0.890625 C 144.820312 3.304688 139.210938 4.484375 133.359375 4.421875 C 127.515625 4.367188 121.910156 2.6875 116.546875 -0.625 C 111.179688 -3.945312 106.570312 -9.34375 102.71875 -16.8125 C 100.789062 -20.675781 98.53125 -25.078125 95.9375 -30.015625 C 93.34375 -34.960938 89.9375 -41.59375 85.71875 -49.90625 C 83.664062 -46.65625 81.582031 -43.21875 79.46875 -39.59375 C 77.363281 -35.976562 76.132812 -33.207031 75.78125 -31.28125 C 75.414062 -29.351562 75.257812 -26.035156 75.3125 -21.328125 C 75.375 -16.628906 75.648438 -11.75 76.140625 -6.6875 C 73.003906 -4.039062 68.960938 -1.992188 64.015625 -0.546875 C 59.078125 0.898438 53.773438 1.5625 48.109375 1.4375 C 42.441406 1.320312 37.015625 0.300781 31.828125 -1.625 C 26.640625 -3.550781 22.238281 -6.535156 18.625 -10.578125 C 15.007812 -14.617188 12.78125 -19.832031 11.9375 -26.21875 C 11.207031 -31.28125 10.570312 -37.550781 10.03125 -45.03125 C 9.488281 -52.507812 9.035156 -60.769531 8.671875 -69.8125 C 8.316406 -78.851562 8.046875 -88.191406 7.859375 -97.828125 C 7.679688 -107.472656 7.625 -116.9375 7.6875 -126.21875 C 7.75 -135.507812 7.929688 -144.132812 8.234375 -152.09375 C 8.535156 -160.050781 8.984375 -166.863281 9.578125 -172.53125 C 12.472656 -176.144531 16.515625 -179.003906 21.703125 -181.109375 C 26.890625 -183.222656 32.492188 -184.398438 38.515625 -184.640625 C 44.546875 -184.878906 50.300781 -184.035156 55.78125 -182.109375 C 61.269531 -180.179688 65.820312 -177.078125 69.4375 -172.796875 C 73.0625 -168.515625 74.992188 -162.816406 75.234375 -155.703125 C 75.472656 -150.398438 75.625 -146.179688 75.6875 -143.046875 C 75.75 -139.910156 75.78125 -137.253906 75.78125 -135.078125 C 75.78125 -132.910156 75.71875 -130.617188 75.59375 -128.203125 C 75.46875 -125.796875 75.347656 -122.664062 75.234375 -118.8125 C 75.109375 -118.332031 75.078125 -117.789062 75.140625 -117.1875 C 75.203125 -116.582031 75.234375 -115.738281 75.234375 -114.65625 Z M 75.234375 -114.65625 "/></g></g></g><g fill="#004aad" fill-opacity="1"><g transform="translate(232.522417, 271.061174)"><g><path d="M 74.328125 -145.40625 C 74.929688 -141.78125 75.382812 -136.5625 75.6875 -129.75 C 75.988281 -122.9375 76.164062 -115.128906 76.21875 -106.328125 C 76.28125 -97.535156 76.25 -88.375 76.125 -78.84375 C 76.007812 -69.320312 75.769531 -59.921875 75.40625 -50.640625 C 75.050781 -41.359375 74.628906 -32.828125 74.140625 -25.046875 C 73.660156 -17.265625 73.0625 -10.84375 72.34375 -5.78125 C 69.320312 -2.53125 65.488281 -0.179688 60.84375 1.265625 C 56.207031 2.710938 51.265625 3.101562 46.015625 2.4375 C 40.773438 1.78125 35.679688 -0.0234375 30.734375 -2.984375 C 25.796875 -5.941406 21.425781 -10.160156 17.625 -15.640625 C 13.832031 -21.128906 11.148438 -27.910156 9.578125 -35.984375 C 9.097656 -38.273438 8.675781 -42.101562 8.3125 -47.46875 C 7.957031 -52.832031 7.628906 -59.160156 7.328125 -66.453125 C 7.023438 -73.753906 6.8125 -81.625 6.6875 -90.0625 C 6.570312 -98.5 6.539062 -106.96875 6.59375 -115.46875 C 6.65625 -123.96875 6.804688 -132.070312 7.046875 -139.78125 C 7.296875 -147.5 7.691406 -154.34375 8.234375 -160.3125 C 8.773438 -166.28125 9.46875 -170.832031 10.3125 -173.96875 C 13.6875 -176.988281 17.8125 -179.28125 22.6875 -180.84375 C 27.570312 -182.40625 32.726562 -183.066406 38.15625 -182.828125 C 43.582031 -182.585938 48.796875 -181.140625 53.796875 -178.484375 C 58.804688 -175.835938 63.148438 -171.832031 66.828125 -166.46875 C 70.503906 -161.101562 73.003906 -154.082031 74.328125 -145.40625 Z M 74.328125 -145.40625 "/></g></g></g></svg>