<svg xmlns="http://www.w3.org/2000/svg" xmlns:xlink="http://www.w3.org/1999/xlink" width="500" zoomAndPan="magnify" viewBox="0 0 375 374.999991" height="500" preserveAspectRatio="xMidYMid meet" version="1.0"><defs><g/></defs><path stroke-linecap="butt" transform="matrix(0.75, 0, 0, 0.75, -44.646365, 38.360857)" fill="none" stroke-linejoin="miter" d="M 164.429539 151.471992 C 167.007664 147.492826 169.247247 143.930325 171.153497 140.794908 C 173.117039 137.654283 175.158706 134.263658 177.288914 130.623033 C 179.419123 126.919908 181.945165 122.300116 184.856623 116.748032 C 186.705582 113.274073 188.919123 109.211573 191.497249 104.560531 C 194.132666 99.852197 196.851416 94.945947 199.653499 89.846988 C 202.512874 84.690738 205.257666 79.815738 207.893083 75.216779 C 210.585792 70.623029 212.992042 66.727195 215.12225 63.529278 C 221.736834 62.128237 228.492043 62.128237 235.382668 63.529278 C 242.278502 64.878237 248.695169 67.315737 254.637878 70.846987 C 260.63267 74.378237 265.622254 78.831363 269.60142 84.211571 C 273.580587 89.539697 275.908713 95.649072 276.580588 102.539698 C 277.252463 109.435531 275.684754 116.779282 271.872254 124.565741 C 268.955587 130.675116 266.294129 135.6647 263.887878 139.534492 C 261.533712 143.341784 259.28892 146.763659 257.158711 149.789701 C 255.028503 152.758451 252.622253 156.096993 249.929544 159.79491 C 247.236836 163.435535 244.070169 168.143869 240.429544 173.919911 C 238.747252 176.383452 238.663918 178.992828 240.179544 181.737619 C 245.835794 192.159495 251.721211 202.669913 257.830586 213.263663 C 263.997253 223.800122 269.716004 233.888665 274.981629 243.52929 C 280.252463 253.169916 284.341005 261.800125 287.257672 269.425125 C 285.57538 275.419917 282.242046 280.940751 277.252463 285.987626 C 272.262879 291.029293 266.35142 295.065752 259.512878 298.091794 C 252.731628 301.175127 245.611836 302.690752 238.15871 302.633461 C 230.762876 302.576169 223.643084 300.445961 216.804542 296.242835 C 210.023292 291.982418 204.195166 285.117835 199.320166 275.643876 C 196.851416 270.768875 193.965999 265.19075 190.658707 258.914708 C 187.408707 252.638666 183.090998 244.201165 177.710789 233.607415 C 175.132664 237.758456 172.497247 242.128248 169.809747 246.727207 C 167.117039 251.320957 165.54933 254.852208 165.101414 257.315749 C 164.653497 259.727208 164.45558 263.930333 164.512872 269.930334 C 164.622247 275.867834 164.98683 282.065751 165.606622 288.50846 C 161.627455 291.873043 156.497246 294.47721 150.221204 296.326169 C 143.939954 298.175127 137.189953 299.018877 129.960786 298.847002 C 122.783702 298.680335 115.887869 297.393877 109.278493 294.982419 C 102.721201 292.513668 97.143076 288.732418 92.544117 283.63346 C 87.950367 278.477209 85.122242 271.836584 84.054533 263.706375 C 83.1587 257.263666 82.3462 249.305332 81.617033 239.831373 C 80.945158 230.357414 80.382658 219.878247 79.934741 208.388663 C 79.486825 196.899079 79.148283 185.044911 78.924325 172.826161 C 78.700366 160.550118 78.617033 148.529284 78.674325 136.75845 C 78.731616 124.987616 78.955575 114.060532 79.3462 103.971989 C 79.736825 93.826155 80.325366 85.164696 81.111825 77.992821 C 84.757658 73.393862 89.856617 69.753237 96.413909 67.060529 C 103.028493 64.373028 110.143077 62.888653 117.768077 62.607403 C 125.445161 62.326153 132.76287 63.419903 139.710787 65.883445 C 146.715996 68.294904 152.492038 72.216779 157.028496 77.654279 C 161.627455 83.09178 164.090997 90.320947 164.429539 99.346989 C 164.710789 106.070948 164.877455 111.425115 164.934747 115.404282 C 165.044122 119.383449 165.101414 122.748032 165.101414 125.492824 C 165.101414 128.237616 165.01808 131.154283 164.846205 134.237616 C 164.73683 137.32095 164.596205 141.300117 164.429539 146.175117 C 164.257664 146.789701 164.20558 147.492826 164.257664 148.274076 C 164.372247 149.003242 164.429539 150.070951 164.429539 151.471992 Z M 419.934764 62.857403 C 435.570181 62.690737 449.221224 64.456362 460.877475 68.154279 C 472.591017 71.800112 482.570184 76.534488 490.809768 82.362613 C 499.101436 88.190738 505.966019 94.383447 511.40352 100.945948 C 516.84102 107.50324 521.127479 113.748032 524.268104 119.69074 C 527.408729 125.576157 529.674354 130.341783 531.080604 133.982408 C 536.403521 148.669909 539.570188 163.492827 540.580605 178.456369 C 541.585813 193.367829 539.794147 208.388663 535.195188 223.518872 C 522.643104 263.763667 495.934769 288.706377 455.075391 298.347002 C 438.54414 302.326169 422.231639 303.586586 406.148304 302.128252 C 390.059762 300.669919 374.367052 295.992835 359.064968 288.086585 C 344.549342 280.576168 332.950383 270.826167 324.262882 258.831375 C 315.627465 246.77929 309.575381 232.883456 306.101423 217.133455 C 303.804548 207.154288 302.455589 196.982412 302.064964 186.61262 C 301.674339 176.190744 302.262881 166.070952 303.830589 156.263659 C 305.455589 146.456367 308.117048 137.654283 311.820173 129.862616 C 315.460798 121.737616 320.195174 113.748032 326.023299 105.904281 C 331.856633 98.003239 339.05455 90.800114 347.632676 84.294905 C 356.205593 77.794904 366.46601 72.612612 378.403511 68.74282 C 390.341012 64.820945 404.184763 62.857403 419.934764 62.857403 Z M 421.111847 144.998034 C 415.450388 144.998034 410.210805 146.565742 405.387888 149.706367 C 400.570179 152.841784 396.757679 157.524076 393.955595 163.748035 C 391.210803 169.909494 390.143095 177.591786 390.762887 186.779286 C 391.37747 195.690745 393.398304 202.753246 396.81497 207.966788 C 400.288929 213.123038 404.351429 216.820955 409.00768 219.065747 C 413.710805 221.30533 418.054555 222.258455 422.03893 221.925122 C 426.127472 221.643872 430.273306 220.326164 434.48164 217.971997 C 438.736848 215.560538 442.351432 211.753246 445.32539 206.539704 C 448.294141 201.326162 450.002474 194.430329 450.450391 185.857411 C 451.070182 177.169911 450.033724 169.800119 447.341015 163.748035 C 444.705599 157.690743 441.038932 153.065743 436.330598 149.873034 C 431.674348 146.623034 426.606639 144.998034 421.111847 144.998034 Z M 421.111847 144.998034 " stroke="#10105b" stroke-width="12.913575" stroke-opacity="1" stroke-miterlimit="4"/><g fill="#6a6ab5" fill-opacity="1"><g transform="translate(7.045038, 261.110842)"><g><path d="M 71.625 -109.15625 C 73.570312 -112.144531 75.265625 -114.816406 76.703125 -117.171875 C 78.140625 -119.523438 79.660156 -122.078125 81.265625 -124.828125 C 82.867188 -127.578125 84.765625 -131.019531 86.953125 -135.15625 C 88.328125 -137.800781 89.988281 -140.875 91.9375 -144.375 C 93.894531 -147.875 95.929688 -151.546875 98.046875 -155.390625 C 100.171875 -159.234375 102.238281 -162.875 104.25 -166.3125 C 106.257812 -169.757812 108.066406 -172.691406 109.671875 -175.109375 C 114.609375 -176.140625 119.660156 -176.132812 124.828125 -175.09375 C 129.992188 -174.0625 134.8125 -172.226562 139.28125 -169.59375 C 143.757812 -166.957031 147.488281 -163.628906 150.46875 -159.609375 C 153.457031 -155.585938 155.210938 -150.992188 155.734375 -145.828125 C 156.253906 -140.671875 155.078125 -135.164062 152.203125 -129.3125 C 150.023438 -124.71875 148.046875 -120.984375 146.265625 -118.109375 C 144.484375 -115.242188 142.789062 -112.691406 141.1875 -110.453125 C 139.582031 -108.210938 137.773438 -105.710938 135.765625 -102.953125 C 133.753906 -100.203125 131.367188 -96.644531 128.609375 -92.28125 C 127.347656 -90.445312 127.289062 -88.5 128.4375 -86.4375 C 132.6875 -78.625 137.109375 -70.757812 141.703125 -62.84375 C 146.296875 -54.925781 150.570312 -47.347656 154.53125 -40.109375 C 158.488281 -32.878906 161.554688 -26.394531 163.734375 -20.65625 C 162.472656 -16.1875 159.976562 -12.054688 156.25 -8.265625 C 152.519531 -4.472656 148.097656 -1.429688 142.984375 0.859375 C 137.878906 3.148438 132.539062 4.265625 126.96875 4.203125 C 121.40625 4.148438 116.070312 2.546875 110.96875 -0.609375 C 105.863281 -3.765625 101.472656 -8.898438 97.796875 -16.015625 C 95.960938 -19.679688 93.8125 -23.867188 91.34375 -28.578125 C 88.875 -33.285156 85.628906 -39.597656 81.609375 -47.515625 C 79.660156 -44.421875 77.679688 -41.148438 75.671875 -37.703125 C 73.660156 -34.265625 72.484375 -31.625 72.140625 -29.78125 C 71.796875 -27.945312 71.648438 -24.789062 71.703125 -20.3125 C 71.765625 -15.84375 72.023438 -11.195312 72.484375 -6.375 C 69.503906 -3.84375 65.660156 -1.890625 60.953125 -0.515625 C 56.242188 0.859375 51.191406 1.488281 45.796875 1.375 C 40.398438 1.257812 35.234375 0.285156 30.296875 -1.546875 C 25.367188 -3.378906 21.179688 -6.21875 17.734375 -10.0625 C 14.285156 -13.914062 12.160156 -18.882812 11.359375 -24.96875 C 10.671875 -29.789062 10.066406 -35.757812 9.546875 -42.875 C 9.035156 -49.988281 8.609375 -57.847656 8.265625 -66.453125 C 7.921875 -75.066406 7.660156 -83.960938 7.484375 -93.140625 C 7.316406 -102.328125 7.257812 -111.335938 7.3125 -120.171875 C 7.375 -129.015625 7.546875 -137.222656 7.828125 -144.796875 C 8.117188 -152.378906 8.550781 -158.863281 9.125 -164.25 C 11.875 -167.695312 15.71875 -170.425781 20.65625 -172.4375 C 25.59375 -174.445312 30.929688 -175.566406 36.671875 -175.796875 C 42.410156 -176.023438 47.890625 -175.21875 53.109375 -173.375 C 58.335938 -171.539062 62.671875 -168.585938 66.109375 -164.515625 C 69.554688 -160.441406 71.394531 -155.019531 71.625 -148.25 C 71.851562 -143.195312 71.992188 -139.175781 72.046875 -136.1875 C 72.109375 -133.207031 72.140625 -130.679688 72.140625 -128.609375 C 72.140625 -126.546875 72.082031 -124.363281 71.96875 -122.0625 C 71.851562 -119.769531 71.738281 -116.789062 71.625 -113.125 C 71.507812 -112.664062 71.476562 -112.144531 71.53125 -111.5625 C 71.59375 -110.988281 71.625 -110.1875 71.625 -109.15625 Z M 71.625 -109.15625 "/></g></g></g><g fill="#6a6ab5" fill-opacity="1"><g transform="translate(175.092712, 261.110842)"><g><path d="M 95.21875 -175.625 C 106.925781 -175.738281 117.171875 -174.414062 125.953125 -171.65625 C 134.734375 -168.90625 142.222656 -165.347656 148.421875 -160.984375 C 154.617188 -156.617188 159.753906 -151.96875 163.828125 -147.03125 C 167.898438 -142.101562 171.113281 -137.425781 173.46875 -133 C 175.820312 -128.582031 177.515625 -125 178.546875 -122.25 C 182.566406 -111.226562 184.945312 -100.117188 185.6875 -88.921875 C 186.4375 -77.734375 185.085938 -66.457031 181.640625 -55.09375 C 172.234375 -24.90625 152.207031 -6.195312 121.5625 1.03125 C 109.164062 4.019531 96.941406 4.96875 84.890625 3.875 C 72.835938 2.78125 61.070312 -0.75 49.59375 -6.71875 C 38.6875 -12.34375 29.988281 -19.660156 23.5 -28.671875 C 17.019531 -37.679688 12.457031 -48.097656 9.8125 -59.921875 C 8.09375 -67.378906 7.085938 -75.007812 6.796875 -82.8125 C 6.515625 -90.625 6.972656 -98.203125 8.171875 -105.546875 C 9.378906 -112.890625 11.363281 -119.488281 14.125 -125.34375 C 16.875 -131.425781 20.429688 -137.421875 24.796875 -143.328125 C 29.160156 -149.242188 34.554688 -154.640625 40.984375 -159.515625 C 47.410156 -164.398438 55.097656 -168.304688 64.046875 -171.234375 C 73.003906 -174.160156 83.394531 -175.625 95.21875 -175.625 Z M 96.078125 -113.984375 C 91.828125 -113.984375 87.894531 -112.804688 84.28125 -110.453125 C 80.664062 -108.097656 77.820312 -104.59375 75.75 -99.9375 C 73.6875 -95.289062 72.882812 -89.523438 73.34375 -82.640625 C 73.800781 -75.984375 75.320312 -70.703125 77.90625 -66.796875 C 80.488281 -62.898438 83.53125 -60.117188 87.03125 -58.453125 C 90.53125 -56.785156 93.773438 -56.066406 96.765625 -56.296875 C 99.859375 -56.523438 102.984375 -57.53125 106.140625 -59.3125 C 109.296875 -61.09375 111.992188 -63.929688 114.234375 -67.828125 C 116.472656 -71.734375 117.765625 -76.898438 118.109375 -83.328125 C 118.566406 -89.867188 117.789062 -95.40625 115.78125 -99.9375 C 113.78125 -104.476562 111.023438 -107.953125 107.515625 -110.359375 C 104.015625 -112.773438 100.203125 -113.984375 96.078125 -113.984375 Z M 96.078125 -113.984375 "/></g></g></g></svg>