<svg xmlns="http://www.w3.org/2000/svg" xmlns:xlink="http://www.w3.org/1999/xlink" width="500" zoomAndPan="magnify" viewBox="0 0 375 374.999991" height="500" preserveAspectRatio="xMidYMid meet" version="1.0"><defs><g/></defs><path stroke-linecap="butt" transform="matrix(0.75, 0, 0, 0.75, -44.646365, 37.961013)" fill="none" stroke-linejoin="miter" d="M 165.33058 154.218659 C 167.945164 150.176992 170.221206 146.562409 172.158706 143.374909 C 174.148289 140.187409 176.226414 136.7447 178.387873 133.046783 C 180.55454 129.291574 183.111831 124.593657 186.075373 118.95824 C 187.950373 115.432199 190.200374 111.30199 192.820165 106.578031 C 195.492041 101.796781 198.252457 96.817614 201.101416 91.64053 C 204.002458 86.400947 206.788916 81.45303 209.466 76.786363 C 212.200375 72.119696 214.643084 68.161362 216.80975 64.91657 C 223.523292 63.494695 230.382668 63.494695 237.382668 64.91657 C 244.382669 66.281154 250.898294 68.76032 256.934753 72.343654 C 263.023295 75.932196 268.091004 80.458238 272.132671 85.92178 C 276.169129 91.32803 278.533713 97.531156 279.216004 104.531156 C 279.898296 111.531157 278.304546 118.98949 274.434754 126.900949 C 271.476421 133.104075 268.773295 138.166575 266.325379 142.093659 C 263.934753 145.963451 261.658712 149.437409 259.497253 152.510326 C 257.330586 155.525951 254.882669 158.911368 252.153503 162.671785 C 249.419127 166.369702 246.205586 171.150952 242.507669 177.015536 C 240.799335 179.515536 240.710794 182.166578 242.247252 184.953036 C 247.997252 195.541579 253.976419 206.213455 260.179545 216.968664 C 266.439962 227.666581 272.242046 237.911373 277.596213 247.703041 C 282.945171 257.4895 287.101422 266.255125 290.059755 273.999917 C 288.351422 280.088459 284.966005 285.692626 279.898296 290.817627 C 274.835796 295.937419 268.830587 300.036377 261.887878 303.109294 C 254.997253 306.239503 247.768086 307.775961 240.200377 307.71867 C 232.68996 307.661378 225.460793 305.499919 218.518084 301.229086 C 211.627458 296.906169 205.710791 289.93221 200.757666 280.317626 C 198.252457 275.364501 195.320166 269.697834 191.965999 263.328042 C 188.663915 256.953041 184.278498 248.385332 178.814956 237.630123 C 176.200373 241.838457 173.523289 246.281165 170.794122 250.947832 C 168.059747 255.614499 166.465997 259.197833 166.012872 261.703041 C 165.554539 264.150958 165.356622 268.421792 165.413914 274.510334 C 165.528497 280.541584 165.898289 286.833251 166.523289 293.374919 C 162.481622 296.791585 157.273288 299.437419 150.898288 301.317627 C 144.523287 303.192628 137.66912 304.046794 130.32537 303.880128 C 123.038911 303.708253 116.03891 302.400961 109.325368 299.953044 C 102.663909 297.447835 97.002451 293.604085 92.335784 288.427002 C 87.669117 283.187418 84.794117 276.442626 83.710783 268.192625 C 82.799325 261.64575 81.976408 253.562416 81.236825 243.947832 C 80.554533 234.32804 79.981616 223.682206 79.528491 212.015538 C 79.070158 200.348871 78.731616 188.312412 78.50245 175.900953 C 78.273283 163.43741 78.18995 151.229076 78.247241 139.27595 C 78.304533 127.328033 78.5337 116.229074 78.929533 105.984281 C 79.330575 95.682197 79.924325 86.885322 80.7212 79.604071 C 84.424325 74.937404 89.601409 71.234279 96.262867 68.505112 C 102.97641 65.770737 110.205577 64.265529 117.945161 63.97907 C 125.742036 63.692612 133.16912 64.801987 140.226412 67.307195 C 147.340996 69.755112 153.205579 73.739487 157.814955 79.260321 C 162.481622 84.781155 164.98683 92.124905 165.33058 101.286364 C 165.61183 108.11449 165.783705 113.55199 165.840997 117.593657 C 165.95558 121.635324 166.012872 125.046783 166.012872 127.838449 C 166.012872 130.624908 165.92433 133.58845 165.752455 136.718658 C 165.64308 139.848867 165.497247 143.890534 165.33058 148.838451 C 165.158705 149.463451 165.101414 150.176992 165.158705 150.973868 C 165.273289 151.713451 165.33058 152.796784 165.33058 154.218659 Z M 533.898313 222.775956 C 532.189979 237.687415 527.835812 250.520749 520.835812 261.275958 C 513.835811 271.979084 505.127478 280.828043 494.71081 287.828043 C 484.294143 294.770752 473.023309 299.921794 460.903516 303.281169 C 448.778516 306.640544 436.658723 308.317628 424.533722 308.317628 C 414.742055 308.317628 404.924346 307.74992 395.080595 306.609294 C 385.231636 305.531169 375.700386 303.364503 366.481635 300.119711 C 357.314968 296.880127 348.893092 292.156168 341.2108 285.947835 C 333.5233 279.687418 327.038924 271.52075 321.742049 261.447833 C 316.450382 251.317624 312.809757 238.708248 310.814965 223.624914 C 308.76809 209.51033 307.773298 194.145745 307.825381 177.525953 C 307.939965 160.90616 308.679548 143.942617 310.04934 126.640533 C 311.471215 109.281156 313.262882 92.57803 315.42434 76.525946 C 317.132674 74.708238 320.23684 73.025946 324.731632 71.489487 C 329.283716 69.895737 334.632675 68.72907 340.783717 67.989487 C 346.929551 67.192612 353.304551 67.078029 359.90351 67.650945 C 366.507677 68.161362 372.710802 69.583237 378.518094 71.916571 C 384.320178 74.249904 389.247262 77.609279 393.288929 81.994696 C 397.325387 86.317613 399.830596 92.036364 400.799346 99.150947 C 401.085804 101.656156 401.252471 106.468656 401.309762 113.578032 C 401.424346 120.640532 401.481637 129.031158 401.481637 138.765533 C 401.481637 148.442617 401.596221 158.598868 401.825387 169.244702 C 402.049346 179.885328 402.419138 190.046787 402.934763 199.723871 C 403.502471 209.343663 404.330596 217.47908 405.408721 224.140539 C 406.377471 229.260331 408.512888 233.301998 411.814971 236.260331 C 415.169138 239.223873 418.955597 240.817623 423.169139 241.041582 C 427.377472 241.270748 431.247264 239.963457 434.778515 237.114498 C 438.361848 234.213456 440.783723 229.572831 442.033723 223.197831 C 443.117057 217.624914 444.085807 210.338455 444.939974 201.343663 C 445.788932 192.296787 446.445182 182.421786 446.903515 171.718661 C 447.413932 160.963452 447.611849 150.062409 447.497265 139.020742 C 447.439974 127.979074 447.101432 117.536365 446.476432 107.687406 C 445.846224 97.843656 444.851432 89.42178 443.486849 82.42178 C 446.559765 79.286363 450.773307 76.614488 456.122266 74.395738 C 461.528516 72.119696 467.559767 70.551987 474.221226 69.697821 C 480.877476 68.843654 487.596226 68.932195 494.36706 69.953029 C 501.143102 70.921779 507.460811 73.083237 513.320186 76.442613 C 519.242062 79.801988 524.195187 84.583238 528.174354 90.786364 C 532.158729 96.989489 534.606646 104.843656 535.518105 114.348865 C 536.143105 120.723866 536.716021 126.531158 537.226438 131.765533 C 537.794146 136.942617 538.195188 142.208242 538.419146 147.557201 C 538.648313 152.911368 538.679563 158.942618 538.507688 165.65616 C 538.393105 172.317619 537.966021 180.229078 537.226438 189.390537 C 536.544146 198.557204 535.434771 209.682205 533.898313 222.775956 Z M 533.898313 222.775956 " stroke="#802f00" stroke-width="13.113525" stroke-opacity="1" stroke-miterlimit="4"/><g fill="#ff7828" fill-opacity="1"><g transform="translate(6.611445, 264.460998)"><g><path d="M 72.734375 -110.84375 C 74.710938 -113.875 76.429688 -116.582031 77.890625 -118.96875 C 79.347656 -121.363281 80.890625 -123.957031 82.515625 -126.75 C 84.148438 -129.550781 86.078125 -133.050781 88.296875 -137.25 C 89.691406 -139.9375 91.378906 -143.054688 93.359375 -146.609375 C 95.347656 -150.160156 97.421875 -153.890625 99.578125 -157.796875 C 101.734375 -161.703125 103.828125 -165.398438 105.859375 -168.890625 C 107.898438 -172.390625 109.738281 -175.363281 111.375 -177.8125 C 116.382812 -178.863281 121.507812 -178.863281 126.75 -177.8125 C 132 -176.769531 136.894531 -174.90625 141.4375 -172.21875 C 145.988281 -169.539062 149.78125 -166.160156 152.8125 -162.078125 C 155.84375 -157.992188 157.617188 -153.328125 158.140625 -148.078125 C 158.671875 -142.835938 157.476562 -137.25 154.5625 -131.3125 C 152.34375 -126.644531 150.328125 -122.851562 148.515625 -119.9375 C 146.710938 -117.03125 144.992188 -114.4375 143.359375 -112.15625 C 141.734375 -109.882812 139.898438 -107.347656 137.859375 -104.546875 C 135.816406 -101.753906 133.398438 -98.144531 130.609375 -93.71875 C 129.328125 -91.851562 129.269531 -89.867188 130.4375 -87.765625 C 134.75 -79.835938 139.234375 -71.851562 143.890625 -63.8125 C 148.554688 -55.769531 152.898438 -48.078125 156.921875 -40.734375 C 160.941406 -33.390625 164.0625 -26.804688 166.28125 -20.984375 C 165 -16.429688 162.460938 -12.234375 158.671875 -8.390625 C 154.878906 -4.546875 150.390625 -1.457031 145.203125 0.875 C 140.015625 3.207031 134.59375 4.34375 128.9375 4.28125 C 123.289062 4.226562 117.875 2.597656 112.6875 -0.609375 C 107.5 -3.816406 103.039062 -9.035156 99.3125 -16.265625 C 97.445312 -19.992188 95.257812 -24.242188 92.75 -29.015625 C 90.25 -33.796875 86.957031 -40.207031 82.875 -48.25 C 80.894531 -45.101562 78.882812 -41.78125 76.84375 -38.28125 C 74.800781 -34.789062 73.609375 -32.113281 73.265625 -30.25 C 72.910156 -28.382812 72.757812 -25.175781 72.8125 -20.625 C 72.875 -16.082031 73.140625 -11.363281 73.609375 -6.46875 C 70.578125 -3.90625 66.671875 -1.921875 61.890625 -0.515625 C 57.109375 0.878906 51.976562 1.515625 46.5 1.390625 C 41.03125 1.273438 35.785156 0.285156 30.765625 -1.578125 C 25.753906 -3.441406 21.5 -6.320312 18 -10.21875 C 14.507812 -14.125 12.359375 -19.171875 11.546875 -25.359375 C 10.835938 -30.253906 10.222656 -36.3125 9.703125 -43.53125 C 9.179688 -50.757812 8.742188 -58.742188 8.390625 -67.484375 C 8.046875 -76.234375 7.785156 -85.269531 7.609375 -94.59375 C 7.429688 -103.914062 7.367188 -113.0625 7.421875 -122.03125 C 7.484375 -131.007812 7.660156 -139.34375 7.953125 -147.03125 C 8.242188 -154.726562 8.679688 -161.316406 9.265625 -166.796875 C 12.066406 -170.296875 15.972656 -173.066406 20.984375 -175.109375 C 25.992188 -177.148438 31.410156 -178.285156 37.234375 -178.515625 C 43.066406 -178.742188 48.632812 -177.925781 53.9375 -176.0625 C 59.238281 -174.195312 63.640625 -171.195312 67.140625 -167.0625 C 70.640625 -162.925781 72.503906 -157.421875 72.734375 -150.546875 C 72.960938 -145.410156 73.109375 -141.328125 73.171875 -138.296875 C 73.234375 -135.265625 73.265625 -132.703125 73.265625 -130.609375 C 73.265625 -128.515625 73.203125 -126.300781 73.078125 -123.96875 C 72.960938 -121.632812 72.847656 -118.601562 72.734375 -114.875 C 72.617188 -114.40625 72.585938 -113.878906 72.640625 -113.296875 C 72.703125 -112.710938 72.734375 -111.894531 72.734375 -110.84375 Z M 72.734375 -110.84375 "/></g></g></g><g fill="#ff7828" fill-opacity="1"><g transform="translate(177.260171, 264.460998)"><g><path d="M 178.515625 -59.453125 C 177.234375 -48.253906 173.96875 -38.632812 168.71875 -30.59375 C 163.476562 -22.550781 156.953125 -15.90625 149.140625 -10.65625 C 141.328125 -5.414062 132.875 -1.546875 123.78125 0.953125 C 114.695312 3.460938 105.609375 4.71875 96.515625 4.71875 C 89.171875 4.71875 81.796875 4.304688 74.390625 3.484375 C 66.992188 2.671875 59.851562 1.039062 52.96875 -1.40625 C 46.09375 -3.851562 39.769531 -7.40625 34 -12.0625 C 28.238281 -16.726562 23.375 -22.847656 19.40625 -30.421875 C 15.445312 -37.992188 12.707031 -47.4375 11.1875 -58.75 C 9.675781 -69.351562 8.945312 -80.890625 9 -93.359375 C 9.0625 -105.835938 9.613281 -118.570312 10.65625 -131.5625 C 11.707031 -144.5625 13.050781 -157.066406 14.6875 -169.078125 C 15.96875 -170.472656 18.296875 -171.753906 21.671875 -172.921875 C 25.054688 -174.085938 29.050781 -174.960938 33.65625 -175.546875 C 38.257812 -176.128906 43.035156 -176.210938 47.984375 -175.796875 C 52.941406 -175.390625 57.601562 -174.3125 61.96875 -172.5625 C 66.34375 -170.820312 70.046875 -168.316406 73.078125 -165.046875 C 76.109375 -161.785156 77.976562 -157.472656 78.6875 -152.109375 C 78.914062 -150.242188 79.054688 -146.660156 79.109375 -141.359375 C 79.171875 -136.054688 79.203125 -129.757812 79.203125 -122.46875 C 79.203125 -115.1875 79.289062 -107.550781 79.46875 -99.5625 C 79.644531 -91.582031 79.9375 -83.976562 80.34375 -76.75 C 80.75 -69.53125 81.359375 -63.410156 82.171875 -58.390625 C 82.867188 -54.546875 84.472656 -51.515625 86.984375 -49.296875 C 89.492188 -47.085938 92.320312 -45.894531 95.46875 -45.71875 C 98.613281 -45.539062 101.523438 -46.53125 104.203125 -48.6875 C 106.890625 -50.84375 108.695312 -54.3125 109.625 -59.09375 C 110.4375 -63.289062 111.164062 -68.769531 111.8125 -75.53125 C 112.457031 -82.289062 112.953125 -89.691406 113.296875 -97.734375 C 113.648438 -105.773438 113.796875 -113.929688 113.734375 -122.203125 C 113.679688 -130.484375 113.421875 -138.320312 112.953125 -145.71875 C 112.484375 -153.125 111.722656 -159.453125 110.671875 -164.703125 C 113.003906 -167.035156 116.179688 -169.046875 120.203125 -170.734375 C 124.222656 -172.421875 128.738281 -173.582031 133.75 -174.21875 C 138.769531 -174.863281 143.8125 -174.804688 148.875 -174.046875 C 153.945312 -173.296875 158.695312 -171.664062 163.125 -169.15625 C 167.550781 -166.65625 171.25 -163.070312 174.21875 -158.40625 C 177.195312 -153.75 179.035156 -147.863281 179.734375 -140.75 C 180.203125 -135.96875 180.640625 -131.625 181.046875 -127.71875 C 181.453125 -123.8125 181.742188 -119.847656 181.921875 -115.828125 C 182.097656 -111.804688 182.128906 -107.289062 182.015625 -102.28125 C 181.898438 -97.269531 181.578125 -91.328125 181.046875 -84.453125 C 180.523438 -77.578125 179.679688 -69.242188 178.515625 -59.453125 Z M 178.515625 -59.453125 "/></g></g></g></svg>