<svg xmlns="http://www.w3.org/2000/svg" xmlns:xlink="http://www.w3.org/1999/xlink" width="500" zoomAndPan="magnify" viewBox="0 0 375 374.999991" height="500" preserveAspectRatio="xMidYMid meet" version="1.0"><defs><g/></defs><path stroke-linecap="butt" transform="matrix(0.75, 0, 0, 0.75, 7.770279, 23.35208)" fill="none" stroke-linejoin="miter" d="M 232.446936 185.764947 C 232.446936 193.176406 231.71256 201.494115 230.24381 210.728491 C 228.832352 219.962866 226.358393 229.520159 222.832352 239.400368 C 219.301101 249.280577 214.483393 258.837869 208.363601 268.067036 C 202.249017 277.301412 194.545891 285.624329 185.254224 293.035788 C 175.962557 300.384747 164.785473 306.238914 151.72818 310.587872 C 138.733388 314.879539 123.47297 317.030581 105.946927 317.030581 C 86.717759 317.030581 70.717758 315.087873 57.957341 311.207664 C 45.196923 307.264955 35.431298 300.796205 28.67088 291.796204 C 21.905255 282.801412 17.821921 270.598286 16.410463 255.186827 C 14.644838 235.546201 13.790671 210.994116 13.847963 181.530572 C 13.910463 152.067029 14.999005 119.192026 17.113588 82.905566 C 25.113589 78.259732 34.639631 74.613898 45.696923 71.968065 C 56.811507 69.322231 68.545883 67.645148 80.894842 66.936815 C 93.301093 66.17119 105.504219 66.290981 117.50422 67.290981 C 129.561512 68.23369 140.613596 69.817023 150.670888 72.056607 C 160.728181 74.290982 168.962556 77.113899 175.374015 80.525357 C 194.780266 90.817025 209.129226 104.45765 218.420893 121.452443 C 227.769852 138.452444 232.446936 159.889946 232.446936 185.764947 Z M 111.769844 249.629535 C 118.061511 249.45766 124.118803 247.337868 129.94172 243.280576 C 135.821929 239.165993 140.676096 232.369117 144.499013 222.900367 C 148.379222 213.431616 150.316722 200.582657 150.316722 184.353489 C 150.316722 172.47328 148.670888 162.915988 145.379221 155.681612 C 142.087555 148.447237 137.853179 142.978486 132.676096 139.275361 C 127.561512 135.567027 122.118803 133.244111 116.358386 132.306611 C 110.592761 131.363902 105.301094 131.363902 100.478177 132.306611 C 100.478177 135.363902 100.478177 140.155569 100.478177 146.68682 C 100.478177 153.15557 100.420885 160.650362 100.301094 169.181613 C 100.243802 177.650364 100.212552 186.379531 100.212552 195.379531 C 100.212552 204.379532 100.212552 212.874324 100.212552 220.874325 C 100.212552 228.811825 100.301094 235.488909 100.478177 240.900368 C 100.59276 244.603493 102.066719 246.983701 104.889635 248.046202 C 107.712552 249.103493 110.004219 249.629535 111.769844 249.629535 Z M 244.264645 239.223284 C 246.202145 229.57745 248.733395 218.785783 251.847978 206.848282 C 254.96777 194.910781 258.493812 182.645156 262.436521 170.061821 C 266.374021 157.415987 270.374021 145.212861 274.431313 133.452444 C 278.551105 121.629527 282.577147 110.811818 286.519856 100.9889 C 290.457356 91.165983 293.957356 83.285774 297.014648 77.348274 C 303.60319 75.113898 311.452149 73.056607 320.566733 71.17119 C 329.743817 69.23369 339.478193 68.145148 349.76986 67.910773 C 360.061527 67.613898 370.264653 68.936815 380.379237 71.879523 C 390.493821 74.759732 399.785488 79.905565 408.254239 87.317024 C 416.780281 94.665983 423.780281 105.014942 429.249032 118.36911 C 431.837574 124.77536 434.806324 133.009736 438.160491 143.067028 C 441.514658 153.067029 445.040699 164.181613 448.743825 176.41078 C 452.452158 188.587864 456.066742 201.145157 459.597992 214.082658 C 463.124034 227.020158 466.358409 239.634743 469.301118 251.92641 C 472.301118 264.218078 474.681326 275.421203 476.446952 285.535787 C 475.972993 289.827454 473.738618 294.119121 469.738618 298.415996 C 465.743826 302.650372 460.624034 306.264955 454.389658 309.264956 C 448.217783 312.207664 441.540699 314.145164 434.368824 315.087873 C 427.249032 316.087873 420.165698 315.530581 413.108406 313.410789 C 406.051114 311.353497 399.670905 307.264955 393.962571 301.150372 C 388.259446 295.035788 383.816737 286.535787 380.644862 275.655578 C 373.05632 275.301412 365.176111 275.21287 357.004235 275.389953 C 348.827152 275.567037 340.889651 275.567037 333.181317 275.389953 C 331.066734 280.389954 329.066734 285.858704 327.186525 291.796204 C 325.363608 297.738913 323.566733 303.827455 321.806316 310.061831 C 307.04069 315.530581 294.191731 317.499331 283.254231 315.968081 C 272.374021 314.442039 263.582354 310.233706 256.879229 303.353497 C 250.233395 296.415996 245.821936 287.415996 243.644853 276.358703 C 241.467769 265.244119 241.676103 252.86391 244.264645 239.223284 Z M 342.535484 206.494115 C 347.650068 206.494115 352.618818 206.494115 357.441735 206.494115 C 362.264652 206.494115 367.176111 206.494115 372.176111 206.494115 C 369.941736 196.671198 367.618819 186.999323 365.207361 177.47328 C 362.795902 167.884738 360.472986 158.301404 358.23861 148.712862 C 357.70736 148.832653 356.972985 148.889945 356.030277 148.889945 C 353.915694 158.358696 351.681318 167.858696 349.327152 177.384739 C 347.035485 186.853489 344.76986 196.556615 342.535484 206.494115 Z M 342.535484 206.494115 " stroke="#436100" stroke-width="13.549988" stroke-opacity="1" stroke-miterlimit="4"/><g fill="#91c123" fill-opacity="1"><g transform="translate(7.770279, 257.352064)"><g><path d="M 174.34375 -94.671875 C 174.34375 -89.128906 173.800781 -82.894531 172.71875 -75.96875 C 171.632812 -69.039062 169.765625 -61.875 167.109375 -54.46875 C 164.460938 -47.0625 160.847656 -39.894531 156.265625 -32.96875 C 151.691406 -26.039062 145.910156 -19.804688 138.921875 -14.265625 C 131.941406 -8.734375 123.570312 -4.335938 113.8125 -1.078125 C 104.0625 2.171875 92.625 3.796875 79.5 3.796875 C 65.039062 3.796875 53.023438 2.320312 43.453125 -0.625 C 33.878906 -3.582031 26.5625 -8.429688 21.5 -15.171875 C 16.4375 -21.921875 13.363281 -31.078125 12.28125 -42.640625 C 10.957031 -57.328125 10.328125 -75.722656 10.390625 -97.828125 C 10.453125 -119.929688 11.265625 -144.59375 12.828125 -171.8125 C 18.847656 -175.300781 26.015625 -178.039062 34.328125 -180.03125 C 42.640625 -182.019531 51.429688 -183.285156 60.703125 -183.828125 C 69.972656 -184.367188 79.125 -184.273438 88.15625 -183.546875 C 97.195312 -182.828125 105.476562 -181.625 113 -179.9375 C 120.53125 -178.257812 126.707031 -176.15625 131.53125 -173.625 C 146.101562 -165.914062 156.878906 -155.675781 163.859375 -142.90625 C 170.847656 -130.132812 174.34375 -114.054688 174.34375 -94.671875 Z M 83.828125 -46.796875 C 88.523438 -46.910156 93.070312 -48.503906 97.46875 -51.578125 C 101.863281 -54.648438 105.503906 -59.738281 108.390625 -66.84375 C 111.285156 -73.945312 112.734375 -83.582031 112.734375 -95.75 C 112.734375 -104.664062 111.5 -111.832031 109.03125 -117.25 C 106.5625 -122.664062 103.398438 -126.757812 99.546875 -129.53125 C 95.691406 -132.300781 91.597656 -134.046875 87.265625 -134.765625 C 82.929688 -135.492188 78.957031 -135.5 75.34375 -134.78125 C 75.34375 -132.488281 75.34375 -128.898438 75.34375 -124.015625 C 75.34375 -119.140625 75.3125 -113.507812 75.25 -107.125 C 75.1875 -100.75 75.15625 -94.1875 75.15625 -87.4375 C 75.15625 -80.695312 75.15625 -74.34375 75.15625 -68.375 C 75.15625 -62.414062 75.21875 -57.390625 75.34375 -53.296875 C 75.457031 -50.523438 76.566406 -48.75 78.671875 -47.96875 C 80.785156 -47.1875 82.503906 -46.796875 83.828125 -46.796875 Z M 83.828125 -46.796875 "/></g></g></g><g fill="#91c123" fill-opacity="1"><g transform="translate(188.254624, 257.352064)"><g><path d="M 2.703125 -54.5625 C 4.148438 -61.789062 6.046875 -69.890625 8.390625 -78.859375 C 10.742188 -87.835938 13.394531 -97.050781 16.34375 -106.5 C 19.300781 -115.957031 22.3125 -125.113281 25.375 -133.96875 C 28.445312 -142.820312 31.457031 -150.921875 34.40625 -158.265625 C 37.363281 -165.609375 39.988281 -171.507812 42.28125 -175.96875 C 47.21875 -177.65625 53.117188 -179.21875 59.984375 -180.65625 C 66.847656 -182.101562 74.132812 -182.914062 81.84375 -183.09375 C 89.550781 -183.28125 97.195312 -182.289062 104.78125 -180.125 C 112.375 -177.957031 119.359375 -174.101562 125.734375 -168.5625 C 132.117188 -163.019531 137.363281 -155.25 141.46875 -145.25 C 143.394531 -140.4375 145.617188 -134.265625 148.140625 -126.734375 C 150.671875 -119.210938 153.320312 -110.875 156.09375 -101.71875 C 158.863281 -92.5625 161.570312 -83.132812 164.21875 -73.4375 C 166.875 -63.738281 169.316406 -54.28125 171.546875 -45.0625 C 173.773438 -35.851562 175.550781 -27.457031 176.875 -19.875 C 176.507812 -16.625 174.820312 -13.398438 171.8125 -10.203125 C 168.800781 -7.015625 164.976562 -4.304688 160.34375 -2.078125 C 155.707031 0.148438 150.707031 1.625 145.34375 2.34375 C 139.988281 3.070312 134.660156 2.648438 129.359375 1.078125 C 124.054688 -0.484375 119.265625 -3.550781 114.984375 -8.125 C 110.710938 -12.707031 107.375 -19.09375 104.96875 -27.28125 C 99.300781 -27.519531 93.394531 -27.578125 87.25 -27.453125 C 81.113281 -27.335938 75.15625 -27.34375 69.375 -27.46875 C 67.8125 -23.726562 66.335938 -19.628906 64.953125 -15.171875 C 63.566406 -10.710938 62.210938 -6.140625 60.890625 -1.453125 C 49.804688 2.648438 40.164062 4.128906 31.96875 2.984375 C 23.78125 1.835938 17.1875 -1.320312 12.1875 -6.5 C 7.195312 -11.675781 3.882812 -18.421875 2.25 -26.734375 C 0.625 -35.046875 0.773438 -44.320312 2.703125 -54.5625 Z M 76.421875 -79.125 C 80.273438 -79.125 84.007812 -79.125 87.625 -79.125 C 91.238281 -79.125 94.910156 -79.125 98.640625 -79.125 C 96.953125 -86.476562 95.203125 -93.738281 93.390625 -100.90625 C 91.585938 -108.070312 89.847656 -115.265625 88.171875 -122.484375 C 87.804688 -122.367188 87.265625 -122.3125 86.546875 -122.3125 C 84.972656 -115.207031 83.3125 -108.097656 81.5625 -100.984375 C 79.820312 -93.878906 78.109375 -86.59375 76.421875 -79.125 Z M 76.421875 -79.125 "/></g></g></g></svg>