<svg xmlns="http://www.w3.org/2000/svg" xmlns:xlink="http://www.w3.org/1999/xlink" width="500" zoomAndPan="magnify" viewBox="0 0 375 374.999991" height="500" preserveAspectRatio="xMidYMid meet" version="1.0"><defs><g/></defs><path stroke-linecap="butt" transform="matrix(0.75, 0, 0, 0.75, 21.196876, 23.352069)" fill="none" stroke-linejoin="miter" d="M 232.445847 185.764962 C 232.445847 193.176421 231.711472 201.49413 230.242722 210.728505 C 228.831263 219.962881 226.362513 229.520173 222.831263 239.400382 C 219.305221 249.280591 214.482304 258.837884 208.362512 268.067051 C 202.247928 277.301426 194.544803 285.624344 185.253135 293.035803 C 175.961468 300.384761 164.784384 306.238928 151.7323 310.587887 C 138.732299 314.879554 123.471881 317.030596 105.945839 317.030596 C 86.716671 317.030596 70.721878 315.087887 57.956252 311.207679 C 45.195835 307.26497 35.435417 300.79622 28.669792 291.796219 C 21.909375 282.801427 17.820833 270.598301 16.409374 255.186842 C 14.643749 235.546215 13.789582 210.99413 13.852082 181.530587 C 13.909374 152.067043 14.997916 119.192041 17.112499 82.90558 C 25.1125 78.259747 34.638542 74.613913 45.695835 71.96808 C 56.810419 69.317038 68.544794 67.645163 80.893754 66.936829 C 93.300004 66.171204 105.50313 66.290996 117.503131 67.290996 C 129.560423 68.233704 140.617716 69.817038 150.6698 72.056621 C 160.727092 74.290996 168.961468 77.113913 175.372926 80.525372 C 194.779178 90.817039 209.128137 104.457665 218.419804 121.452458 C 227.773972 138.452459 232.445847 159.88996 232.445847 185.764962 Z M 111.768756 249.62955 C 118.060423 249.457675 124.117715 247.337883 129.940632 243.280591 C 135.820841 239.166007 140.675007 232.369132 144.497924 222.900381 C 148.378133 213.431631 150.320841 200.582671 150.320841 184.353504 C 150.320841 172.473295 148.6698 162.916002 145.378133 155.681627 C 142.086466 148.447251 137.852091 142.978501 132.675007 139.275376 C 127.560423 135.567042 122.117715 133.244125 116.357298 132.306625 C 110.591672 131.363917 105.300005 131.363917 100.477088 132.306625 C 100.477088 135.363917 100.477088 140.155584 100.477088 146.686835 C 100.477088 153.155585 100.419797 160.650377 100.300005 169.181628 C 100.242713 177.650378 100.211463 186.379546 100.211463 195.379546 C 100.211463 204.379547 100.211463 212.874339 100.211463 220.874339 C 100.211463 228.81184 100.300005 235.488924 100.477088 240.900382 C 100.59688 244.603508 102.06563 246.983716 104.888547 248.046216 C 107.711464 249.103508 110.00313 249.62955 111.768756 249.62955 Z M 253.87814 256.337883 C 253.586473 250.869133 253.34689 243.514966 253.169807 234.28059 C 252.997932 225.051423 252.90939 214.697256 252.90939 203.228505 C 252.90939 191.764963 253.023973 179.884753 253.258348 167.593086 C 253.497932 155.301418 253.820848 143.212876 254.232307 131.332667 C 254.643765 119.457666 255.112515 108.457665 255.643765 98.343081 C 256.232307 88.228497 256.935432 79.785789 257.758349 73.025371 C 265.758349 72.259746 275.492725 71.671205 286.956267 71.259746 C 298.487518 70.848288 310.836477 70.556621 324.008353 70.379538 C 337.180229 70.202455 350.383355 70.259746 363.61773 70.556621 C 376.852106 70.790996 389.378149 71.145163 401.195858 71.613913 C 413.018775 72.082663 423.164609 72.639955 431.63336 73.290996 C 433.10211 75.348288 434.393777 78.551413 435.513569 82.90558 C 436.63336 87.254539 437.216694 92.165998 437.279194 97.634748 C 437.393777 103.103498 436.716694 108.665999 435.247944 114.311832 C 433.836485 119.895166 431.310443 125.1035 427.66461 129.921208 C 424.076068 134.744125 419.107317 138.598292 412.75315 141.478501 C 406.404192 144.363918 398.404191 145.801418 388.758357 145.801418 C 385.581274 145.801418 382.612523 145.801418 379.852107 145.801418 C 377.143773 145.801418 374.086481 145.801418 370.675023 145.801418 C 367.320856 145.801418 363.14898 145.801418 358.14898 145.801418 C 353.206271 145.801418 346.888563 145.801418 339.180229 145.801418 C 339.180229 147.744126 339.180229 149.712876 339.180229 151.712877 C 339.180229 153.712877 339.180229 155.916002 339.180229 158.32746 C 342.711479 158.32746 347.560438 158.238919 353.737521 158.061835 C 359.914605 157.88996 366.617731 157.801419 373.852106 157.801419 C 381.086482 157.801419 388.201065 158.124335 395.201066 158.770169 C 402.195858 159.416002 408.25315 160.561835 413.372942 162.212877 C 418.195859 172.796211 420.195859 182.67642 419.367734 191.848296 C 418.607317 200.968088 415.050026 208.436839 408.695858 214.259756 C 402.3469 220.020173 393.227107 223.228506 381.346898 223.87434 C 377.289606 223.988923 373.497939 224.051423 369.971898 224.051423 C 366.440647 224.051423 362.352105 224.020173 357.706272 223.962881 C 353.060438 223.900381 346.977104 223.87434 339.445854 223.87434 C 339.445854 226.400381 339.445854 228.84309 339.445854 231.197257 C 339.445854 233.488924 339.445854 235.926424 339.445854 238.514966 C 340.211479 238.514966 341.065646 238.514966 342.003146 238.514966 C 343.003146 238.514966 343.977104 238.514966 344.914604 238.514966 C 357.794813 238.514966 370.675023 238.514966 383.555232 238.514966 C 396.492733 238.514966 409.404192 238.514966 422.279193 238.514966 C 426.925026 244.926424 429.898985 252.041008 431.190652 259.863925 C 432.482318 267.629551 431.925027 275.212885 429.513568 282.624344 C 427.10211 289.973302 422.518776 296.358719 415.753151 301.76497 C 409.050025 307.119137 399.992733 310.530595 388.581274 311.999345 C 384.523982 312.468095 379.086481 312.910804 372.263564 313.322262 C 365.440647 313.733721 357.940647 313.968096 349.768771 314.030596 C 341.591687 314.145179 333.445853 314.119137 325.33127 313.942054 C 317.216686 313.764971 309.893769 313.442054 303.367727 312.968096 C 296.898976 312.499345 291.898976 311.853512 288.367726 311.030595 C 277.138558 308.150387 268.815641 302.416011 263.404182 293.827469 C 258.055224 285.238927 254.87814 272.744135 253.87814 256.337883 Z M 253.87814 256.337883 " stroke="#478000" stroke-width="13.549988" stroke-opacity="1" stroke-miterlimit="4"/><g fill="#c1ff72" fill-opacity="1"><g transform="translate(21.196876, 257.352053)"><g><path d="M 174.34375 -94.671875 C 174.34375 -89.128906 173.800781 -82.894531 172.71875 -75.96875 C 171.632812 -69.039062 169.765625 -61.875 167.109375 -54.46875 C 164.460938 -47.0625 160.847656 -39.894531 156.265625 -32.96875 C 151.691406 -26.039062 145.910156 -19.804688 138.921875 -14.265625 C 131.941406 -8.734375 123.570312 -4.335938 113.8125 -1.078125 C 104.0625 2.171875 92.625 3.796875 79.5 3.796875 C 65.039062 3.796875 53.023438 2.320312 43.453125 -0.625 C 33.878906 -3.582031 26.5625 -8.429688 21.5 -15.171875 C 16.4375 -21.921875 13.363281 -31.078125 12.28125 -42.640625 C 10.957031 -57.328125 10.328125 -75.722656 10.390625 -97.828125 C 10.453125 -119.929688 11.265625 -144.59375 12.828125 -171.8125 C 18.847656 -175.300781 26.015625 -178.039062 34.328125 -180.03125 C 42.640625 -182.019531 51.429688 -183.285156 60.703125 -183.828125 C 69.972656 -184.367188 79.125 -184.273438 88.15625 -183.546875 C 97.195312 -182.828125 105.476562 -181.625 113 -179.9375 C 120.53125 -178.257812 126.707031 -176.15625 131.53125 -173.625 C 146.101562 -165.914062 156.878906 -155.675781 163.859375 -142.90625 C 170.847656 -130.132812 174.34375 -114.054688 174.34375 -94.671875 Z M 83.828125 -46.796875 C 88.523438 -46.910156 93.070312 -48.503906 97.46875 -51.578125 C 101.863281 -54.648438 105.503906 -59.738281 108.390625 -66.84375 C 111.285156 -73.945312 112.734375 -83.582031 112.734375 -95.75 C 112.734375 -104.664062 111.5 -111.832031 109.03125 -117.25 C 106.5625 -122.664062 103.398438 -126.757812 99.546875 -129.53125 C 95.691406 -132.300781 91.597656 -134.046875 87.265625 -134.765625 C 82.929688 -135.492188 78.957031 -135.5 75.34375 -134.78125 C 75.34375 -132.488281 75.34375 -128.898438 75.34375 -124.015625 C 75.34375 -119.140625 75.3125 -113.507812 75.25 -107.125 C 75.1875 -100.75 75.15625 -94.1875 75.15625 -87.4375 C 75.15625 -80.695312 75.15625 -74.34375 75.15625 -68.375 C 75.15625 -62.414062 75.21875 -57.390625 75.34375 -53.296875 C 75.457031 -50.523438 76.566406 -48.75 78.671875 -47.96875 C 80.785156 -47.1875 82.503906 -46.796875 83.828125 -46.796875 Z M 83.828125 -46.796875 "/></g></g></g><g fill="#c1ff72" fill-opacity="1"><g transform="translate(201.681222, 257.352053)"><g><path d="M 9.9375 -41.734375 C 9.695312 -45.828125 9.515625 -51.335938 9.390625 -58.265625 C 9.273438 -65.191406 9.21875 -72.957031 9.21875 -81.5625 C 9.21875 -90.175781 9.304688 -99.085938 9.484375 -108.296875 C 9.660156 -117.515625 9.898438 -126.582031 10.203125 -135.5 C 10.503906 -144.414062 10.863281 -152.664062 11.28125 -160.25 C 11.707031 -167.84375 12.222656 -174.164062 12.828125 -179.21875 C 18.847656 -179.820312 26.164062 -180.273438 34.78125 -180.578125 C 43.394531 -180.878906 52.640625 -181.085938 62.515625 -181.203125 C 72.390625 -181.328125 82.296875 -181.296875 92.234375 -181.109375 C 102.171875 -180.929688 111.5625 -180.660156 120.40625 -180.296875 C 129.257812 -179.941406 136.878906 -179.523438 143.265625 -179.046875 C 144.347656 -177.472656 145.3125 -175.0625 146.15625 -171.8125 C 147 -168.5625 147.453125 -164.890625 147.515625 -160.796875 C 147.578125 -156.703125 147.066406 -152.546875 145.984375 -148.328125 C 144.898438 -144.109375 143 -140.191406 140.28125 -136.578125 C 137.570312 -132.960938 133.835938 -130.070312 129.078125 -127.90625 C 124.328125 -125.738281 118.335938 -124.65625 111.109375 -124.65625 C 108.703125 -124.65625 106.472656 -124.65625 104.421875 -124.65625 C 102.378906 -124.65625 100.09375 -124.65625 97.5625 -124.65625 C 95.03125 -124.65625 91.894531 -124.65625 88.15625 -124.65625 C 84.425781 -124.65625 79.671875 -124.65625 73.890625 -124.65625 C 73.890625 -123.207031 73.890625 -121.726562 73.890625 -120.21875 C 73.890625 -118.71875 73.890625 -117.066406 73.890625 -115.265625 C 76.546875 -115.265625 80.191406 -115.320312 84.828125 -115.4375 C 89.460938 -115.5625 94.488281 -115.625 99.90625 -115.625 C 105.320312 -115.625 110.648438 -115.382812 115.890625 -114.90625 C 121.128906 -114.425781 125.675781 -113.582031 129.53125 -112.375 C 133.144531 -104.425781 134.648438 -97.019531 134.046875 -90.15625 C 133.453125 -83.289062 130.773438 -77.6875 126.015625 -73.34375 C 121.253906 -69.007812 114.421875 -66.601562 105.515625 -66.125 C 102.503906 -66 99.671875 -65.9375 97.015625 -65.9375 C 94.367188 -65.9375 91.296875 -65.96875 87.796875 -66.03125 C 84.304688 -66.09375 79.734375 -66.125 74.078125 -66.125 C 74.078125 -64.195312 74.078125 -62.359375 74.078125 -60.609375 C 74.078125 -58.867188 74.078125 -57.035156 74.078125 -55.109375 C 74.679688 -55.109375 75.34375 -55.109375 76.0625 -55.109375 C 76.78125 -55.109375 77.503906 -55.109375 78.234375 -55.109375 C 87.867188 -55.109375 97.53125 -55.109375 107.21875 -55.109375 C 116.914062 -55.109375 126.582031 -55.109375 136.21875 -55.109375 C 139.71875 -50.285156 141.945312 -44.953125 142.90625 -39.109375 C 143.875 -33.273438 143.453125 -27.585938 141.640625 -22.046875 C 139.835938 -16.503906 136.40625 -11.710938 131.34375 -7.671875 C 126.28125 -3.640625 119.472656 -1.082031 110.921875 0 C 107.910156 0.363281 103.847656 0.695312 98.734375 1 C 93.617188 1.300781 87.988281 1.476562 81.84375 1.53125 C 75.695312 1.59375 69.582031 1.5625 63.5 1.4375 C 57.414062 1.320312 51.9375 1.082031 47.0625 0.71875 C 42.1875 0.363281 38.421875 -0.113281 35.765625 -0.71875 C 27.335938 -2.882812 21.101562 -7.191406 17.0625 -13.640625 C 13.03125 -20.085938 10.65625 -29.453125 9.9375 -41.734375 Z M 9.9375 -41.734375 "/></g></g></g></svg>