<svg xmlns="http://www.w3.org/2000/svg" xmlns:xlink="http://www.w3.org/1999/xlink" width="500" zoomAndPan="magnify" viewBox="0 0 375 374.999991" height="500" preserveAspectRatio="xMidYMid meet" version="1.0"><defs><g/></defs><path stroke-linecap="butt" transform="matrix(0.75, 0, 0, 0.75, 54.074994, 23.352069)" fill="none" stroke-linejoin="miter" d="M 232.446899 185.764962 C 232.446899 193.176421 231.712524 201.49413 230.243773 210.728505 C 228.832315 219.962881 226.358357 229.520173 222.832315 239.400382 C 219.301064 249.280591 214.483356 258.837884 208.363564 268.067051 C 202.24898 277.301426 194.545854 285.624344 185.254187 293.035803 C 175.96252 300.384761 164.785436 306.238928 151.728143 310.587887 C 138.733351 314.879554 123.472933 317.030596 105.94689 317.030596 C 86.717722 317.030596 70.717721 315.087887 57.957304 311.207679 C 45.196886 307.26497 35.431261 300.79622 28.670844 291.796219 C 21.905218 282.801427 17.821885 270.598301 16.410426 255.186842 C 14.644801 235.546215 13.790634 210.99413 13.847926 181.530587 C 13.910426 152.067043 14.998968 119.192041 17.113551 82.90558 C 25.113552 78.259747 34.639594 74.613913 45.696886 71.96808 C 56.81147 69.317038 68.545846 67.645163 80.894805 66.936829 C 93.301056 66.171204 105.504182 66.290996 117.504183 67.290996 C 129.561475 68.233704 140.613559 69.817038 150.670852 72.056621 C 160.728144 74.290996 168.962519 77.113913 175.373978 80.525372 C 194.780229 90.817039 209.129189 104.457665 218.420856 121.452458 C 227.769815 138.452459 232.446899 159.88996 232.446899 185.764962 Z M 111.769807 249.62955 C 118.061474 249.457675 124.118766 247.337883 129.941684 243.280591 C 135.821892 239.166007 140.676059 232.369132 144.498976 222.900381 C 148.379185 213.431631 150.316685 200.582671 150.316685 184.353504 C 150.316685 172.473295 148.670851 162.916002 145.379185 155.681627 C 142.087518 148.447251 137.853142 142.978501 132.676059 139.275376 C 127.561475 135.567042 122.118766 133.244125 116.358349 132.306625 C 110.592724 131.363917 105.301057 131.363917 100.47814 132.306625 C 100.47814 135.363917 100.47814 140.155584 100.47814 146.686835 C 100.47814 153.155585 100.420848 160.650377 100.301057 169.181628 C 100.243765 177.650378 100.212515 186.379546 100.212515 195.379546 C 100.212515 204.379547 100.212515 212.874339 100.212515 220.874339 C 100.212515 228.81184 100.301057 235.488924 100.47814 240.900382 C 100.592723 244.603508 102.066682 246.983716 104.889599 248.046216 C 107.712515 249.103508 110.004182 249.62955 111.769807 249.62955 Z M 339.623989 118.369124 C 340.446906 123.129541 341.066697 130.07225 341.478156 139.186834 C 341.889614 148.244126 342.123989 158.650377 342.181281 170.416003 C 342.238572 182.119129 342.181281 194.322254 342.004197 207.02538 C 341.889614 219.666006 341.566697 232.192049 341.035447 244.603508 C 340.566697 256.952467 340.004197 268.301426 339.358364 278.655593 C 338.769822 289.004552 337.978156 297.561844 336.978155 304.32747 C 332.978155 308.619137 327.889613 311.73372 321.717738 313.676429 C 315.540654 315.619137 308.952112 316.145179 301.95732 315.264971 C 294.957319 314.379554 288.165652 311.968095 281.57711 308.030595 C 274.988568 304.087887 269.170859 298.473303 264.113567 291.181636 C 259.051067 283.889969 255.493775 274.863926 253.436483 264.098301 C 252.79065 261.041009 252.202108 255.952467 251.670858 248.837883 C 251.202108 241.660799 250.7594 233.223299 250.347941 223.520173 C 249.998983 213.759756 249.733358 203.259755 249.556275 192.025379 C 249.379191 180.796212 249.3219 169.530586 249.379191 158.238919 C 249.498983 146.88996 249.702108 136.067042 249.998983 125.775375 C 250.347941 115.483708 250.879191 106.369124 251.582317 98.431623 C 252.347942 90.488914 253.29065 84.431622 254.405233 80.259747 C 258.879192 76.259747 264.347942 73.228496 270.816693 71.171205 C 277.342735 69.056621 284.222944 68.171204 291.457319 68.525371 C 298.691695 68.822246 305.629195 70.728496 312.275029 74.259746 C 318.983363 77.785788 324.77503 83.139955 329.655238 90.317039 C 334.535447 97.431623 337.858364 106.780582 339.623989 118.369124 Z M 339.623989 118.369124 " stroke="#5a0073" stroke-width="13.549988" stroke-opacity="1" stroke-miterlimit="4"/><g fill="#cb6ce6" fill-opacity="1"><g transform="translate(54.074994, 257.352053)"><g><path d="M 174.34375 -94.671875 C 174.34375 -89.128906 173.800781 -82.894531 172.71875 -75.96875 C 171.632812 -69.039062 169.765625 -61.875 167.109375 -54.46875 C 164.460938 -47.0625 160.847656 -39.894531 156.265625 -32.96875 C 151.691406 -26.039062 145.910156 -19.804688 138.921875 -14.265625 C 131.941406 -8.734375 123.570312 -4.335938 113.8125 -1.078125 C 104.0625 2.171875 92.625 3.796875 79.5 3.796875 C 65.039062 3.796875 53.023438 2.320312 43.453125 -0.625 C 33.878906 -3.582031 26.5625 -8.429688 21.5 -15.171875 C 16.4375 -21.921875 13.363281 -31.078125 12.28125 -42.640625 C 10.957031 -57.328125 10.328125 -75.722656 10.390625 -97.828125 C 10.453125 -119.929688 11.265625 -144.59375 12.828125 -171.8125 C 18.847656 -175.300781 26.015625 -178.039062 34.328125 -180.03125 C 42.640625 -182.019531 51.429688 -183.285156 60.703125 -183.828125 C 69.972656 -184.367188 79.125 -184.273438 88.15625 -183.546875 C 97.195312 -182.828125 105.476562 -181.625 113 -179.9375 C 120.53125 -178.257812 126.707031 -176.15625 131.53125 -173.625 C 146.101562 -165.914062 156.878906 -155.675781 163.859375 -142.90625 C 170.847656 -130.132812 174.34375 -114.054688 174.34375 -94.671875 Z M 83.828125 -46.796875 C 88.523438 -46.910156 93.070312 -48.503906 97.46875 -51.578125 C 101.863281 -54.648438 105.503906 -59.738281 108.390625 -66.84375 C 111.285156 -73.945312 112.734375 -83.582031 112.734375 -95.75 C 112.734375 -104.664062 111.5 -111.832031 109.03125 -117.25 C 106.5625 -122.664062 103.398438 -126.757812 99.546875 -129.53125 C 95.691406 -132.300781 91.597656 -134.046875 87.265625 -134.765625 C 82.929688 -135.492188 78.957031 -135.5 75.34375 -134.78125 C 75.34375 -132.488281 75.34375 -128.898438 75.34375 -124.015625 C 75.34375 -119.140625 75.3125 -113.507812 75.25 -107.125 C 75.1875 -100.75 75.15625 -94.1875 75.15625 -87.4375 C 75.15625 -80.695312 75.15625 -74.34375 75.15625 -68.375 C 75.15625 -62.414062 75.21875 -57.390625 75.34375 -53.296875 C 75.457031 -50.523438 76.566406 -48.75 78.671875 -47.96875 C 80.785156 -47.1875 82.503906 -46.796875 83.828125 -46.796875 Z M 83.828125 -46.796875 "/></g></g></g><g fill="#cb6ce6" fill-opacity="1"><g transform="translate(234.559339, 257.352053)"><g><path d="M 74.25 -145.25 C 74.851562 -141.644531 75.304688 -136.4375 75.609375 -129.625 C 75.910156 -122.820312 76.085938 -115.023438 76.140625 -106.234375 C 76.203125 -97.441406 76.171875 -88.285156 76.046875 -78.765625 C 75.929688 -69.253906 75.691406 -59.859375 75.328125 -50.578125 C 74.972656 -41.304688 74.550781 -32.785156 74.0625 -25.015625 C 73.582031 -17.253906 72.984375 -10.84375 72.265625 -5.78125 C 69.253906 -2.53125 65.429688 -0.179688 60.796875 1.265625 C 56.160156 2.710938 51.222656 3.101562 45.984375 2.4375 C 40.742188 1.78125 35.65625 -0.0195312 30.71875 -2.96875 C 25.78125 -5.925781 21.410156 -10.144531 17.609375 -15.625 C 13.816406 -21.101562 11.140625 -27.878906 9.578125 -35.953125 C 9.097656 -38.242188 8.675781 -42.066406 8.3125 -47.421875 C 7.945312 -52.785156 7.613281 -59.109375 7.3125 -66.390625 C 7.007812 -73.679688 6.796875 -81.539062 6.671875 -89.96875 C 6.554688 -98.40625 6.53125 -106.867188 6.59375 -115.359375 C 6.65625 -123.847656 6.804688 -131.945312 7.046875 -139.65625 C 7.285156 -147.363281 7.675781 -154.195312 8.21875 -160.15625 C 8.757812 -166.125 9.453125 -170.671875 10.296875 -173.796875 C 13.671875 -176.804688 17.796875 -179.09375 22.671875 -180.65625 C 27.546875 -182.226562 32.691406 -182.894531 38.109375 -182.65625 C 43.535156 -182.414062 48.75 -180.96875 53.75 -178.3125 C 58.75 -175.664062 63.082031 -171.660156 66.75 -166.296875 C 70.425781 -160.941406 72.925781 -153.925781 74.25 -145.25 Z M 74.25 -145.25 "/></g></g></g></svg>