<svg xmlns="http://www.w3.org/2000/svg" xmlns:xlink="http://www.w3.org/1999/xlink" width="500" zoomAndPan="magnify" viewBox="0 0 375 374.999991" height="500" preserveAspectRatio="xMidYMid meet" version="1.0"><defs><g/></defs><path stroke-linecap="butt" transform="matrix(0.75, 0, 0, 0.75, 5.264069, 24.651795)" fill="none" stroke-linejoin="miter" d="M 221.298964 176.818451 C 221.298964 183.870535 220.601048 191.797619 219.200006 200.584078 C 217.856256 209.375745 215.502089 218.474704 212.142714 227.880955 C 208.783339 237.287205 204.194797 246.386164 198.37188 255.177832 C 192.548962 263.96429 185.215629 271.886166 176.36667 278.943458 C 167.522919 285.943459 156.882293 291.511167 144.455209 295.657001 C 132.080209 299.745543 117.548958 301.78721 100.866665 301.78721 C 82.554164 301.78721 67.324996 299.938251 55.179162 296.245543 C 43.028119 292.490334 33.731244 286.334084 27.293743 277.766375 C 20.856243 269.198666 16.965618 257.584082 15.621868 242.912206 C 13.939576 224.214288 13.127076 200.839286 13.184367 172.787201 C 13.241659 144.735116 14.278117 113.438239 16.293743 78.891362 C 23.908326 74.469486 32.976035 70.995528 43.502078 68.479903 C 54.085412 65.959069 65.257287 64.365319 77.012497 63.693444 C 88.824997 62.964277 100.44479 63.073652 111.866666 64.026777 C 123.345833 64.922611 133.871875 66.433027 143.444793 68.563236 C 153.01771 70.688236 160.856252 73.375736 166.960419 76.625736 C 185.439587 86.422612 199.101046 99.412196 207.944797 115.594489 C 216.845839 131.776782 221.298964 152.183033 221.298964 176.818451 Z M 106.408332 237.620539 C 112.397916 237.453872 118.163541 235.438247 123.710416 231.573663 C 129.309375 227.656996 133.929167 221.188246 137.564584 212.177829 C 141.262501 203.162203 143.111459 190.927827 143.111459 175.474701 C 143.111459 164.162201 141.543751 155.06845 138.408334 148.177824 C 135.272917 141.292407 131.241667 136.084074 126.314583 132.558032 C 121.439583 129.03199 116.262499 126.818448 110.772915 125.922615 C 105.28854 125.026781 100.246873 125.026781 95.658331 125.922615 C 95.658331 128.834073 95.658331 133.396574 95.658331 139.615324 C 95.658331 145.771574 95.601039 152.9122 95.491664 161.026784 C 95.434373 169.089284 95.408331 177.406993 95.408331 185.974702 C 95.408331 194.537203 95.408331 202.630953 95.408331 210.245537 C 95.408331 217.802829 95.491664 224.156996 95.658331 229.308038 C 95.767706 232.83408 97.168748 235.104914 99.856248 236.110122 C 102.543748 237.120539 104.72604 237.620539 106.408332 237.620539 Z M 355.918765 63.104902 C 371.543766 62.933027 385.173975 64.698652 396.819809 68.396569 C 408.522935 72.031986 418.486477 76.766361 426.720853 82.589279 C 435.007312 88.412196 441.866687 94.599696 447.293771 101.146571 C 452.726063 107.698655 457.007313 113.943447 460.14273 119.875739 C 463.278147 125.755948 465.54898 130.516365 466.950022 134.151782 C 472.267731 148.823658 475.429189 163.630951 476.439606 178.584076 C 477.444815 193.474702 475.653148 208.479912 471.064606 223.599704 C 458.522938 263.797624 431.840645 288.714292 391.028142 298.344501 C 374.507308 302.31846 358.21564 303.578876 342.147931 302.120543 C 326.080221 300.667418 310.403137 295.990334 295.116678 288.099709 C 280.616677 280.5945 269.022926 270.854916 260.345842 258.87054 C 251.72605 246.834081 245.679174 232.948663 242.205216 217.214287 C 239.908341 207.250745 238.56459 197.084078 238.173965 186.72991 C 237.78334 176.313243 238.371882 166.209076 239.939591 156.4122 C 241.559382 146.610116 244.220841 137.823657 247.918758 130.037198 C 251.554175 121.922614 256.28855 113.943447 262.111467 106.104905 C 267.934384 98.209071 275.127093 91.016362 283.694802 84.52157 C 292.262511 78.026778 302.507303 72.844486 314.434387 68.979903 C 326.356263 65.063236 340.189597 63.104902 355.918765 63.104902 Z M 357.095848 145.156991 C 351.439598 145.156991 346.205223 146.724699 341.392722 149.860116 C 336.575014 152.995533 332.767722 157.667408 329.970847 163.886159 C 327.226055 170.042409 326.163555 177.714285 326.778138 186.896577 C 327.392721 195.797619 329.408346 202.854911 332.825013 208.058037 C 336.293764 213.209079 340.356264 216.906996 345.002097 219.146579 C 349.705223 221.386163 354.043765 222.339288 358.017723 222.000746 C 362.106265 221.719496 366.252099 220.406996 370.450016 218.052829 C 374.705224 215.646579 378.3146 211.839287 381.28335 206.630953 C 384.2521 201.427828 385.960434 194.537203 386.40835 185.974702 C 387.022934 177.29241 385.986475 169.933034 383.298975 163.886159 C 380.668766 157.839283 377.0021 153.219491 372.298974 150.026783 C 367.647932 146.781991 362.585432 145.156991 357.095848 145.156991 Z M 357.095848 145.156991 " stroke="#2b0080" stroke-width="12.90015" stroke-opacity="1" stroke-miterlimit="4"/><g fill="#8c52ff" fill-opacity="1"><g transform="translate(5.264069, 247.401781)"><g><path d="M 165.984375 -90.125 C 165.984375 -84.851562 165.46875 -78.921875 164.4375 -72.328125 C 163.40625 -65.734375 161.625 -58.910156 159.09375 -51.859375 C 156.570312 -44.804688 153.132812 -37.984375 148.78125 -31.390625 C 144.425781 -24.796875 138.921875 -18.859375 132.265625 -13.578125 C 125.617188 -8.304688 117.648438 -4.125 108.359375 -1.03125 C 99.066406 2.0625 88.175781 3.609375 75.6875 3.609375 C 61.925781 3.609375 50.484375 2.207031 41.359375 -0.59375 C 32.242188 -3.40625 25.28125 -8.019531 20.46875 -14.4375 C 15.65625 -20.863281 12.734375 -29.582031 11.703125 -40.59375 C 10.429688 -54.582031 9.820312 -72.097656 9.875 -93.140625 C 9.9375 -114.179688 10.71875 -137.660156 12.21875 -163.578125 C 17.945312 -166.898438 24.765625 -169.503906 32.671875 -171.390625 C 40.585938 -173.285156 48.957031 -174.488281 57.78125 -175 C 66.613281 -175.519531 75.332031 -175.4375 83.9375 -174.75 C 92.539062 -174.0625 100.425781 -172.914062 107.59375 -171.3125 C 114.757812 -169.707031 120.632812 -167.703125 125.21875 -165.296875 C 139.09375 -157.953125 149.351562 -148.203125 156 -136.046875 C 162.65625 -123.890625 165.984375 -108.582031 165.984375 -90.125 Z M 79.8125 -44.546875 C 84.28125 -44.660156 88.609375 -46.175781 92.796875 -49.09375 C 96.984375 -52.019531 100.453125 -56.863281 103.203125 -63.625 C 105.953125 -70.394531 107.328125 -79.570312 107.328125 -91.15625 C 107.328125 -99.644531 106.148438 -106.46875 103.796875 -111.625 C 101.453125 -116.789062 98.441406 -120.691406 94.765625 -123.328125 C 91.097656 -125.960938 87.203125 -127.625 83.078125 -128.3125 C 78.953125 -129 75.164062 -129 71.71875 -128.3125 C 71.71875 -126.132812 71.71875 -122.722656 71.71875 -118.078125 C 71.71875 -113.429688 71.6875 -108.066406 71.625 -101.984375 C 71.570312 -95.910156 71.546875 -89.660156 71.546875 -83.234375 C 71.546875 -76.816406 71.546875 -70.769531 71.546875 -65.09375 C 71.546875 -59.425781 71.601562 -54.640625 71.71875 -50.734375 C 71.832031 -48.097656 72.894531 -46.40625 74.90625 -45.65625 C 76.914062 -44.914062 78.550781 -44.546875 79.8125 -44.546875 Z M 79.8125 -44.546875 "/></g></g></g><g fill="#8c52ff" fill-opacity="1"><g transform="translate(177.092095, 247.401781)"><g><path d="M 95.109375 -175.4375 C 106.804688 -175.550781 117.039062 -174.234375 125.8125 -171.484375 C 134.582031 -168.734375 142.0625 -165.175781 148.25 -160.8125 C 154.445312 -156.457031 159.582031 -151.8125 163.65625 -146.875 C 167.726562 -141.945312 170.9375 -137.273438 173.28125 -132.859375 C 175.632812 -128.453125 177.328125 -124.875 178.359375 -122.125 C 182.378906 -111.113281 184.757812 -100.015625 185.5 -88.828125 C 186.25 -77.648438 184.898438 -66.390625 181.453125 -55.046875 C 172.054688 -24.878906 152.050781 -6.1875 121.4375 1.03125 C 109.050781 4.007812 96.835938 4.953125 84.796875 3.859375 C 72.753906 2.773438 61 -0.742188 49.53125 -6.703125 C 38.644531 -12.328125 29.960938 -19.640625 23.484375 -28.640625 C 17.003906 -37.640625 12.441406 -48.046875 9.796875 -59.859375 C 8.078125 -67.304688 7.070312 -74.925781 6.78125 -82.71875 C 6.5 -90.519531 6.957031 -98.085938 8.15625 -105.421875 C 9.363281 -112.765625 11.347656 -119.363281 14.109375 -125.21875 C 16.859375 -131.289062 20.410156 -137.28125 24.765625 -143.1875 C 29.117188 -149.09375 34.503906 -154.484375 40.921875 -159.359375 C 47.347656 -164.234375 55.035156 -168.128906 63.984375 -171.046875 C 72.929688 -173.972656 83.304688 -175.4375 95.109375 -175.4375 Z M 95.96875 -113.859375 C 91.726562 -113.859375 87.800781 -112.679688 84.1875 -110.328125 C 80.582031 -107.984375 77.742188 -104.488281 75.671875 -99.84375 C 73.609375 -95.195312 72.804688 -89.4375 73.265625 -82.5625 C 73.722656 -75.90625 75.242188 -70.628906 77.828125 -66.734375 C 80.410156 -62.835938 83.445312 -60.054688 86.9375 -58.390625 C 90.4375 -56.734375 93.675781 -56.019531 96.65625 -56.25 C 99.757812 -56.476562 102.882812 -57.476562 106.03125 -59.25 C 109.1875 -61.03125 111.878906 -63.867188 114.109375 -67.765625 C 116.347656 -71.660156 117.640625 -76.820312 117.984375 -83.25 C 118.453125 -89.78125 117.679688 -95.3125 115.671875 -99.84375 C 113.660156 -104.375 110.90625 -107.84375 107.40625 -110.25 C 103.914062 -112.65625 100.101562 -113.859375 95.96875 -113.859375 Z M 95.96875 -113.859375 "/></g></g></g></svg>