<svg xmlns="http://www.w3.org/2000/svg" xmlns:xlink="http://www.w3.org/1999/xlink" width="500" zoomAndPan="magnify" viewBox="0 0 375 374.999991" height="500" preserveAspectRatio="xMidYMid meet" version="1.0"><defs><g/></defs><path stroke-linecap="butt" transform="matrix(0.75, 0, 0, 0.75, 4.101567, 24.151756)" fill="none" stroke-linejoin="miter" d="M 225.583342 179.490379 C 225.583342 186.683087 224.869801 194.761213 223.442717 203.719547 C 222.072926 212.677881 219.677092 221.953923 216.250008 231.542465 C 212.828133 241.131008 208.145841 250.40705 202.213549 259.365384 C 196.276049 268.328926 188.796882 276.401843 179.781256 283.594552 C 170.76563 290.729969 159.92188 296.407053 147.250004 300.631012 C 134.63542 304.797678 119.828127 306.881012 102.817709 306.881012 C 84.15625 306.881012 68.630207 304.995595 56.24479 301.22997 C 43.859372 297.407053 34.385413 291.125803 27.822913 282.396635 C 21.260412 273.66226 17.291662 261.818509 15.92187 246.865383 C 14.213537 227.802882 13.385412 203.974755 13.442703 175.381003 C 13.499995 146.787251 14.552079 114.886208 16.60937 79.667455 C 24.369788 75.162247 33.61458 71.62058 44.343747 69.052871 C 55.135415 66.485163 66.520832 64.860163 78.505208 64.172663 C 90.546875 63.433079 102.390626 63.547663 114.031252 64.516413 C 125.734378 65.427871 136.463545 66.969538 146.223962 69.141413 C 155.98438 71.30808 163.973963 74.047663 170.192714 77.360164 C 189.026048 87.344539 202.953133 100.589332 211.968758 117.084124 C 221.046884 133.573709 225.583342 154.381002 225.583342 179.490379 Z M 108.468751 241.474758 C 114.572918 241.302883 120.453127 239.245591 126.104169 235.308091 C 131.812503 231.313299 136.520837 224.724757 140.22917 215.532048 C 143.994795 206.344547 145.880212 193.875796 145.880212 178.120587 C 145.880212 166.594544 144.281254 157.318502 141.083337 150.297668 C 137.890628 143.276835 133.781253 137.969542 128.760419 134.375792 C 123.791669 130.776834 118.515627 128.526834 112.921877 127.610167 C 107.328126 126.698708 102.192709 126.698708 97.510417 127.610167 C 97.510417 130.578917 97.510417 135.229959 97.510417 141.568501 C 97.510417 147.844543 97.453126 155.120585 97.338542 163.396627 C 97.281251 171.615378 97.255209 180.089337 97.255209 188.823713 C 97.255209 197.55288 97.255209 205.80288 97.255209 213.563297 C 97.255209 221.271631 97.338542 227.74559 97.510417 232.99559 C 97.625001 236.594549 99.052084 238.907049 101.791668 239.933091 C 104.531251 240.959133 106.75521 241.474758 108.468751 241.474758 Z M 472.218775 222.552881 C 470.510442 237.506007 466.14065 250.3758 459.125024 261.162259 C 452.104191 271.891426 443.369815 280.766427 432.927106 287.787261 C 422.479189 294.750803 411.182313 299.91747 399.026062 303.282053 C 386.869811 306.651845 374.713561 308.334137 362.552101 308.334137 C 352.739601 308.334137 342.890642 307.766429 333.020849 306.620595 C 323.145849 305.537262 313.583348 303.370595 304.338556 300.115386 C 295.151055 296.865386 286.703138 292.125803 279.000013 285.907052 C 271.291679 279.625802 264.78647 271.438301 259.479178 261.334134 C 254.171886 251.177883 250.520844 238.532049 248.520844 223.412256 C 246.46876 209.256006 245.46876 193.844546 245.526052 177.177878 C 245.640635 160.516419 246.380219 143.506001 247.750011 126.157042 C 249.177094 108.750791 250.973969 91.995581 253.145844 75.90183 C 254.854178 74.078913 257.968761 72.391413 262.47397 70.849746 C 267.041678 69.255996 272.406262 68.084121 278.572929 67.344538 C 284.734388 66.542454 291.125013 66.427871 297.744805 67.000788 C 304.369806 67.511205 310.588556 68.938288 316.411473 71.282038 C 322.23439 73.62058 327.166682 76.985163 331.218766 81.380997 C 335.27085 85.719539 337.786475 91.453914 338.755225 98.589332 C 339.041683 101.099748 339.213558 105.922665 339.27085 113.058083 C 339.380225 120.136208 339.437517 128.552875 339.437517 138.313293 C 339.437517 148.016418 339.5521 158.203919 339.781267 168.875795 C 340.010433 179.54767 340.380225 189.735171 340.89585 199.438297 C 341.463558 209.08413 342.291683 217.245589 343.380225 223.922673 C 344.348975 229.05809 346.4896 233.110174 349.796892 236.078924 C 353.166684 239.047674 356.963559 240.646633 361.18231 240.875799 C 365.406268 241.104966 369.291685 239.787258 372.828144 236.938299 C 376.421894 234.02684 378.848977 229.375798 380.104186 222.979965 C 381.187519 217.386214 382.161478 210.084131 383.015644 201.063297 C 383.869811 191.990379 384.526061 182.089337 384.984395 171.36017 C 385.50002 160.573711 385.697936 149.641418 385.583353 138.568501 C 385.526061 127.495583 385.182311 117.026833 384.557311 107.151832 C 383.927103 97.276831 382.927103 88.828914 381.557311 81.80808 C 384.640645 78.672664 388.864603 75.990372 394.229187 73.761205 C 399.651062 71.479955 405.703146 69.912246 412.38023 69.052871 C 419.057313 68.198705 425.791689 68.282038 432.583356 69.313288 C 439.375023 70.282038 445.708357 72.448705 451.588566 75.818497 C 457.526066 79.18308 462.489608 83.979956 466.4844 90.198706 C 470.479192 96.422665 472.932317 104.297665 473.848984 113.828916 C 474.473984 120.219541 475.0469 126.042458 475.562526 131.292459 C 476.130234 136.485167 476.531276 141.766418 476.760442 147.131001 C 476.984401 152.495585 477.015651 158.547669 476.843776 165.282044 C 476.729192 171.959128 476.302109 179.89142 475.562526 189.078921 C 474.875025 198.266421 473.760442 209.427881 472.218775 222.552881 Z M 472.218775 222.552881 " stroke="#806600" stroke-width="13.150087" stroke-opacity="1" stroke-miterlimit="4"/><g fill="#ffde59" fill-opacity="1"><g transform="translate(4.101567, 250.651741)"><g><path d="M 169.203125 -91.875 C 169.203125 -86.5 168.675781 -80.445312 167.625 -73.71875 C 166.570312 -67 164.757812 -60.046875 162.1875 -52.859375 C 159.613281 -45.671875 156.101562 -38.71875 151.65625 -32 C 147.21875 -25.28125 141.609375 -19.226562 134.828125 -13.84375 C 128.046875 -8.46875 119.921875 -4.203125 110.453125 -1.046875 C 100.992188 2.109375 89.890625 3.6875 77.140625 3.6875 C 63.117188 3.6875 51.460938 2.253906 42.171875 -0.609375 C 32.878906 -3.472656 25.773438 -8.175781 20.859375 -14.71875 C 15.953125 -21.269531 12.972656 -30.15625 11.921875 -41.375 C 10.640625 -55.632812 10.023438 -73.488281 10.078125 -94.9375 C 10.140625 -116.382812 10.929688 -140.316406 12.453125 -166.734375 C 18.296875 -170.128906 25.25 -172.789062 33.3125 -174.71875 C 41.375 -176.644531 49.90625 -177.867188 58.90625 -178.390625 C 67.90625 -178.921875 76.789062 -178.835938 85.5625 -178.140625 C 94.332031 -177.441406 102.367188 -176.269531 109.671875 -174.625 C 116.972656 -172.988281 122.960938 -170.945312 127.640625 -168.5 C 141.785156 -161.019531 152.25 -151.082031 159.03125 -138.6875 C 165.8125 -126.300781 169.203125 -110.695312 169.203125 -91.875 Z M 81.359375 -45.40625 C 85.910156 -45.53125 90.316406 -47.082031 94.578125 -50.0625 C 98.847656 -53.039062 102.382812 -57.976562 105.1875 -64.875 C 108 -71.769531 109.40625 -81.117188 109.40625 -92.921875 C 109.40625 -101.578125 108.207031 -108.535156 105.8125 -113.796875 C 103.414062 -119.054688 100.347656 -123.03125 96.609375 -125.71875 C 92.867188 -128.40625 88.894531 -130.097656 84.6875 -130.796875 C 80.476562 -131.492188 76.617188 -131.492188 73.109375 -130.796875 C 73.109375 -128.578125 73.109375 -125.097656 73.109375 -120.359375 C 73.109375 -115.628906 73.078125 -110.164062 73.015625 -103.96875 C 72.960938 -97.78125 72.9375 -91.410156 72.9375 -84.859375 C 72.9375 -78.316406 72.9375 -72.148438 72.9375 -66.359375 C 72.9375 -60.578125 72.992188 -55.695312 73.109375 -51.71875 C 73.234375 -49.03125 74.316406 -47.304688 76.359375 -46.546875 C 78.398438 -45.785156 80.066406 -45.40625 81.359375 -45.40625 Z M 81.359375 -45.40625 "/></g></g></g><g fill="#ffde59" fill-opacity="1"><g transform="translate(179.256263, 250.651741)"><g><path d="M 179.015625 -59.609375 C 177.734375 -48.390625 174.460938 -38.742188 169.203125 -30.671875 C 163.941406 -22.609375 157.394531 -15.945312 149.5625 -10.6875 C 141.726562 -5.4375 133.25 -1.554688 124.125 0.953125 C 115.007812 3.472656 105.894531 4.734375 96.78125 4.734375 C 89.414062 4.734375 82.019531 4.320312 74.59375 3.5 C 67.175781 2.6875 60.019531 1.054688 53.125 -1.390625 C 46.226562 -3.847656 39.882812 -7.414062 34.09375 -12.09375 C 28.3125 -16.769531 23.429688 -22.90625 19.453125 -30.5 C 15.484375 -38.101562 12.738281 -47.570312 11.21875 -58.90625 C 9.695312 -69.550781 8.96875 -81.125 9.03125 -93.625 C 9.09375 -106.132812 9.644531 -118.90625 10.6875 -131.9375 C 11.738281 -144.96875 13.085938 -157.503906 14.734375 -169.546875 C 16.015625 -170.953125 18.347656 -172.238281 21.734375 -173.40625 C 25.128906 -174.570312 29.132812 -175.445312 33.75 -176.03125 C 38.363281 -176.613281 43.15625 -176.703125 48.125 -176.296875 C 53.09375 -175.890625 57.769531 -174.804688 62.15625 -173.046875 C 66.539062 -171.296875 70.25 -168.785156 73.28125 -165.515625 C 76.320312 -162.242188 78.195312 -157.921875 78.90625 -152.546875 C 79.132812 -150.671875 79.273438 -147.070312 79.328125 -141.75 C 79.390625 -136.4375 79.421875 -130.125 79.421875 -122.8125 C 79.421875 -115.507812 79.507812 -107.851562 79.6875 -99.84375 C 79.863281 -91.84375 80.15625 -84.21875 80.5625 -76.96875 C 80.96875 -69.71875 81.582031 -63.582031 82.40625 -58.5625 C 83.101562 -54.707031 84.707031 -51.664062 87.21875 -49.4375 C 89.738281 -47.21875 92.578125 -46.019531 95.734375 -45.84375 C 98.890625 -45.675781 101.8125 -46.671875 104.5 -48.828125 C 107.1875 -50.992188 109 -54.472656 109.9375 -59.265625 C 110.75 -63.472656 111.476562 -68.960938 112.125 -75.734375 C 112.769531 -82.515625 113.265625 -89.9375 113.609375 -98 C 113.960938 -106.070312 114.109375 -114.253906 114.046875 -122.546875 C 113.992188 -130.847656 113.734375 -138.710938 113.265625 -146.140625 C 112.796875 -153.566406 112.035156 -159.90625 110.984375 -165.15625 C 113.328125 -167.5 116.515625 -169.515625 120.546875 -171.203125 C 124.578125 -172.898438 129.101562 -174.070312 134.125 -174.71875 C 139.15625 -175.363281 144.210938 -175.304688 149.296875 -174.546875 C 154.378906 -173.785156 159.140625 -172.144531 163.578125 -169.625 C 168.023438 -167.113281 171.738281 -163.519531 174.71875 -158.84375 C 177.695312 -154.175781 179.539062 -148.273438 180.25 -141.140625 C 180.707031 -136.347656 181.140625 -131.992188 181.546875 -128.078125 C 181.960938 -124.160156 182.257812 -120.1875 182.4375 -116.15625 C 182.613281 -112.125 182.640625 -107.59375 182.515625 -102.5625 C 182.398438 -97.539062 182.078125 -91.582031 181.546875 -84.6875 C 181.023438 -77.789062 180.179688 -69.429688 179.015625 -59.609375 Z M 179.015625 -59.609375 "/></g></g></g></svg>