<svg xmlns="http://www.w3.org/2000/svg" xmlns:xlink="http://www.w3.org/1999/xlink" width="500" zoomAndPan="magnify" viewBox="0 0 375 374.999991" height="500" preserveAspectRatio="xMidYMid meet" version="1.0"><defs><g/></defs><path stroke-linecap="butt" transform="matrix(0.75, 0, 0, 0.75, 5.405415, 17.225615)" fill="none" stroke-linejoin="miter" d="M 156.844874 149.152315 C 149.615707 147.391899 143.141748 146.803357 137.438622 147.391899 C 131.735497 147.91794 125.678205 150.272107 119.266746 154.449191 C 110.917787 159.621066 105.53237 166.475233 103.12612 175.001275 C 100.714662 183.470026 100.152162 192.292943 101.449037 201.464819 C 102.683412 212.345028 106.709454 220.725237 113.532371 226.605445 C 120.41258 232.490862 128.089663 235.339821 136.558414 235.162738 C 143.141748 235.162738 148.23029 233.813779 151.818832 231.105446 C 155.464665 228.345029 158.110499 224.813779 159.756332 220.522112 C 161.464666 216.167945 162.521957 211.490861 162.933416 206.496069 C 163.344874 201.496069 163.641749 196.673152 163.813624 192.027318 C 166.053208 188.970026 170.048 186.673151 175.813625 185.147109 C 181.636542 183.615859 188.193834 183.058568 195.485501 183.470026 C 202.777168 183.881484 209.923002 185.470026 216.923003 188.235651 C 223.917795 190.938776 229.771962 194.996068 234.475087 200.407527 C 239.240712 205.761694 241.855296 212.610653 242.329254 220.959612 C 242.678213 227.193987 242.032379 234.428363 240.386546 242.662738 C 238.798004 250.839822 235.683421 259.157531 231.037587 267.626281 C 226.391753 276.03774 219.923003 283.860657 211.626127 291.095033 C 203.33446 298.266908 192.808418 304.121075 180.048 308.647117 C 167.287583 313.115868 151.850082 315.350243 133.735497 315.350243 C 114.089663 315.350243 97.391745 312.912743 83.626119 308.032534 C 69.922993 303.147117 58.605284 296.829408 49.667783 289.063783 C 40.782366 281.240866 33.699032 272.834615 28.407365 263.834614 C 23.11049 254.834614 19.027156 246.25128 16.141739 238.074196 C 11.318822 224.256487 9.027156 209.522111 9.261531 193.881485 C 9.495906 178.178359 11.938614 163.2669 16.584448 149.152315 C 21.938615 133.391898 29.964657 120.10023 40.667783 109.282521 C 51.4282 98.459604 64.277159 89.433561 79.219869 82.199186 C 99.329245 72.376269 121.209455 67.907518 144.850081 68.792935 C 168.547999 69.673143 193.251126 77.522102 218.949044 92.34502 C 221.360503 101.459604 221.771961 109.693979 220.18342 117.042938 C 218.600086 124.334605 215.626128 130.600231 211.277169 135.834606 C 206.923002 141.01169 201.688627 145.006482 195.574043 147.829399 C 189.516751 150.652315 183.105292 152.240857 176.344875 152.595024 C 169.57925 152.886691 163.079249 151.740857 156.844874 149.152315 Z M 254.136547 239.22003 C 256.079255 229.579404 258.610505 218.787737 261.725089 206.845027 C 264.844881 194.907527 268.370923 182.647109 272.313631 170.063775 C 276.251132 157.417941 280.251132 145.214815 284.308424 133.454398 C 288.423007 121.63148 292.454258 110.808563 296.391758 100.990854 C 300.334466 91.167936 303.834467 83.287728 306.891759 77.345019 C 313.480301 75.110644 321.32926 73.053352 330.443843 71.173144 C 339.620927 69.230435 349.355303 68.141893 359.64697 67.907518 C 369.938638 67.615852 380.141763 68.938768 390.256347 71.876269 C 400.370931 74.761685 409.662599 79.907519 418.131349 87.31377 C 426.657391 94.667937 433.657392 105.016896 439.126142 118.365855 C 441.714684 124.777314 444.683434 133.011689 448.037601 143.068982 C 451.38656 153.063774 454.91781 164.178358 458.620935 176.412734 C 462.329269 188.58461 465.943852 201.141902 469.475103 214.079403 C 473.001144 227.016904 476.23552 239.631488 479.178228 251.923155 C 482.17302 264.214823 484.558437 275.417949 486.324062 285.537741 C 485.850104 289.829408 483.615728 294.121075 479.615728 298.412742 C 475.615728 302.647117 470.501144 306.266909 464.266769 309.266909 C 458.094893 312.204409 451.41781 314.147118 444.240726 315.089826 C 437.126142 316.089826 430.042808 315.527326 422.985516 313.412743 C 415.928224 311.355451 409.542807 307.266909 403.839682 301.147117 C 398.136556 295.032533 393.693848 286.537741 390.521972 275.657532 C 382.93343 275.303365 375.053221 275.214824 366.876137 275.391907 C 358.704262 275.56899 350.766761 275.56899 343.058428 275.391907 C 340.943844 280.391907 338.943844 285.860658 337.063636 291.798158 C 335.240719 297.740867 333.443844 303.8242 331.678219 310.058576 C 316.917801 315.527326 304.068842 317.501285 293.131341 315.970035 C 282.251132 314.438784 273.459465 310.235659 266.756339 303.35545 C 260.110505 296.412742 255.699047 287.417949 253.521963 276.360657 C 251.34488 265.246073 251.553213 252.865864 254.136547 239.22003 Z M 352.412595 206.496069 C 357.527179 206.496069 362.495929 206.496069 367.318846 206.496069 C 372.141763 206.496069 377.053221 206.496069 382.053222 206.496069 C 379.818847 196.673152 377.49593 187.001276 375.084471 177.470025 C 372.673013 167.886692 370.350096 158.298149 368.115721 148.714815 C 367.584471 148.829399 366.850096 148.891899 365.907387 148.891899 C 363.792804 158.360649 361.558429 167.855442 359.204262 177.381484 C 356.907387 186.850234 354.64697 196.55336 352.412595 206.496069 Z M 352.412595 206.496069 " stroke="#804d00" stroke-width="13.549988" stroke-opacity="1" stroke-miterlimit="4"/><g fill="#ffbd59" fill-opacity="1"><g transform="translate(5.405415, 251.225599)"><g><path d="M 117.609375 -122.125 C 112.191406 -123.457031 107.34375 -123.910156 103.0625 -123.484375 C 98.789062 -123.066406 94.25 -121.289062 89.4375 -118.15625 C 83.164062 -114.300781 79.125 -109.179688 77.3125 -102.796875 C 75.507812 -96.410156 75.09375 -89.785156 76.0625 -82.921875 C 77.019531 -74.734375 80.054688 -68.441406 85.171875 -64.046875 C 90.296875 -59.648438 96.050781 -57.507812 102.4375 -57.625 C 107.375 -57.625 111.195312 -58.648438 113.90625 -60.703125 C 116.613281 -62.753906 118.597656 -65.40625 119.859375 -68.65625 C 121.128906 -71.90625 121.914062 -75.394531 122.21875 -79.125 C 122.519531 -82.863281 122.734375 -86.476562 122.859375 -89.96875 C 124.535156 -92.257812 127.539062 -93.976562 131.875 -95.125 C 136.21875 -96.269531 141.128906 -96.691406 146.609375 -96.390625 C 152.085938 -96.085938 157.445312 -94.910156 162.6875 -92.859375 C 167.925781 -90.816406 172.320312 -87.773438 175.875 -83.734375 C 179.425781 -79.703125 181.382812 -74.554688 181.75 -68.296875 C 181.988281 -63.597656 181.503906 -58.175781 180.296875 -52.03125 C 179.097656 -45.882812 176.75 -39.648438 173.25 -33.328125 C 169.757812 -27.003906 164.910156 -21.132812 158.703125 -15.71875 C 152.503906 -10.300781 144.617188 -5.90625 135.046875 -2.53125 C 125.472656 0.84375 113.878906 2.53125 100.265625 2.53125 C 85.578125 2.53125 73.082031 0.695312 62.78125 -2.96875 C 52.476562 -6.644531 43.984375 -11.40625 37.296875 -17.25 C 30.617188 -23.09375 25.289062 -29.382812 21.3125 -36.125 C 17.34375 -42.875 14.273438 -49.320312 12.109375 -55.46875 C 8.492188 -65.820312 6.773438 -76.867188 6.953125 -88.609375 C 7.140625 -100.359375 8.976562 -111.53125 12.46875 -122.125 C 16.4375 -133.9375 22.457031 -143.90625 30.53125 -152.03125 C 38.601562 -160.15625 48.238281 -166.929688 59.4375 -172.359375 C 74.488281 -179.703125 90.894531 -183.039062 108.65625 -182.375 C 126.425781 -181.71875 144.945312 -175.847656 164.21875 -164.765625 C 166.03125 -157.898438 166.332031 -151.726562 165.125 -146.25 C 163.925781 -140.769531 161.695312 -136.070312 158.4375 -132.15625 C 155.1875 -128.238281 151.273438 -125.226562 146.703125 -123.125 C 142.128906 -121.019531 137.3125 -119.84375 132.25 -119.59375 C 127.1875 -119.351562 122.304688 -120.195312 117.609375 -122.125 Z M 117.609375 -122.125 "/></g></g></g><g fill="#ffbd59" fill-opacity="1"><g transform="translate(193.297008, 251.225599)"><g><path d="M 2.703125 -54.5625 C 4.148438 -61.789062 6.046875 -69.890625 8.390625 -78.859375 C 10.742188 -87.835938 13.394531 -97.050781 16.34375 -106.5 C 19.300781 -115.957031 22.3125 -125.113281 25.375 -133.96875 C 28.445312 -142.820312 31.457031 -150.921875 34.40625 -158.265625 C 37.363281 -165.609375 39.988281 -171.507812 42.28125 -175.96875 C 47.21875 -177.65625 53.117188 -179.21875 59.984375 -180.65625 C 66.847656 -182.101562 74.132812 -182.914062 81.84375 -183.09375 C 89.550781 -183.28125 97.195312 -182.289062 104.78125 -180.125 C 112.375 -177.957031 119.359375 -174.101562 125.734375 -168.5625 C 132.117188 -163.019531 137.363281 -155.25 141.46875 -145.25 C 143.394531 -140.4375 145.617188 -134.265625 148.140625 -126.734375 C 150.671875 -119.210938 153.320312 -110.875 156.09375 -101.71875 C 158.863281 -92.5625 161.570312 -83.132812 164.21875 -73.4375 C 166.875 -63.738281 169.316406 -54.28125 171.546875 -45.0625 C 173.773438 -35.851562 175.550781 -27.457031 176.875 -19.875 C 176.507812 -16.625 174.820312 -13.398438 171.8125 -10.203125 C 168.800781 -7.015625 164.976562 -4.304688 160.34375 -2.078125 C 155.707031 0.148438 150.707031 1.625 145.34375 2.34375 C 139.988281 3.070312 134.660156 2.648438 129.359375 1.078125 C 124.054688 -0.484375 119.265625 -3.550781 114.984375 -8.125 C 110.710938 -12.707031 107.375 -19.09375 104.96875 -27.28125 C 99.300781 -27.519531 93.394531 -27.578125 87.25 -27.453125 C 81.113281 -27.335938 75.15625 -27.34375 69.375 -27.46875 C 67.8125 -23.726562 66.335938 -19.628906 64.953125 -15.171875 C 63.566406 -10.710938 62.210938 -6.140625 60.890625 -1.453125 C 49.804688 2.648438 40.164062 4.128906 31.96875 2.984375 C 23.78125 1.835938 17.1875 -1.320312 12.1875 -6.5 C 7.195312 -11.675781 3.882812 -18.421875 2.25 -26.734375 C 0.625 -35.046875 0.773438 -44.320312 2.703125 -54.5625 Z M 76.421875 -79.125 C 80.273438 -79.125 84.007812 -79.125 87.625 -79.125 C 91.238281 -79.125 94.910156 -79.125 98.640625 -79.125 C 96.953125 -86.476562 95.203125 -93.738281 93.390625 -100.90625 C 91.585938 -108.070312 89.847656 -115.265625 88.171875 -122.484375 C 87.804688 -122.367188 87.265625 -122.3125 86.546875 -122.3125 C 84.972656 -115.207031 83.3125 -108.097656 81.5625 -100.984375 C 79.820312 -93.878906 78.109375 -86.59375 76.421875 -79.125 Z M 76.421875 -79.125 "/></g></g></g></svg>