<svg xmlns="http://www.w3.org/2000/svg" xmlns:xlink="http://www.w3.org/1999/xlink" width="500" zoomAndPan="magnify" viewBox="0 0 375 374.999991" height="500" preserveAspectRatio="xMidYMid meet" version="1.0"><defs><g/></defs><path stroke-linecap="butt" transform="matrix(0.75, 0, 0, 0.75, 17.493751, 17.225594)" fill="none" stroke-linejoin="miter" d="M 156.846883 149.152342 C 149.612508 147.391925 143.143757 146.803384 137.440632 147.391925 C 131.732298 147.917967 125.675006 150.272134 119.268756 154.449218 C 110.914589 159.621093 105.53438 166.47526 103.122922 175.001302 C 100.711463 183.470053 100.154171 192.29297 101.445838 201.464846 C 102.680213 212.345055 106.711463 220.725264 113.534381 226.605472 C 120.414589 232.490889 128.086465 235.339848 136.555215 235.162764 C 143.143757 235.162764 148.232299 233.813806 151.820841 231.105473 C 155.466675 228.339847 158.112508 224.813805 159.758342 220.522139 C 161.461467 216.167972 162.523967 211.490888 162.935425 206.496096 C 163.346884 201.496096 163.638551 196.673179 163.815634 192.027345 C 166.050009 188.970053 170.050009 186.673178 175.815635 185.147136 C 181.633343 183.615886 188.190635 183.058594 195.487511 183.470053 C 202.779178 183.881511 209.925012 185.470053 216.919804 188.235678 C 223.919804 190.938803 229.773972 194.996095 234.477097 200.407554 C 239.237514 205.761721 241.857306 212.61068 242.326056 220.959639 C 242.680222 227.194014 242.034389 234.428389 240.388556 242.662765 C 238.800014 250.839849 235.680222 259.157558 231.034388 267.626308 C 226.388555 276.037767 219.919804 283.860684 211.628137 291.09506 C 203.33647 298.266935 192.810427 304.121102 180.05001 308.647144 C 167.284384 313.115895 151.846883 315.35027 133.732299 315.35027 C 114.091672 315.35027 97.388546 312.91277 83.628129 308.032561 C 69.925003 303.147144 58.602085 296.829435 49.664585 289.06381 C 40.784376 281.240893 33.695834 272.834642 28.404167 263.834641 C 23.1125 254.834641 19.023958 246.251307 16.143749 238.074223 C 11.320832 224.256514 9.029165 209.522138 9.26354 193.881512 C 9.497915 178.178386 11.940624 163.266926 16.586458 149.152342 C 21.935416 133.391924 29.961458 120.100257 40.669792 109.282548 C 51.43021 98.459631 64.279169 89.433588 79.21667 82.199213 C 99.331255 72.376295 121.206256 67.907545 144.852091 68.787754 C 168.550009 69.67317 193.247927 77.522129 218.951054 92.345047 C 221.362513 101.459631 221.773971 109.694006 220.185429 117.042965 C 218.596887 124.334632 215.628137 130.600258 211.27397 135.834633 C 206.925012 141.011717 201.690636 145.006509 195.570844 147.829425 C 189.513552 150.652342 183.107302 152.240884 176.341676 152.595051 C 169.581259 152.886717 163.081259 151.740884 156.846883 149.152342 Z M 263.75314 256.334641 C 263.461474 250.865891 263.227099 243.516932 263.050015 234.282556 C 262.872932 225.04818 262.78439 214.699221 262.78439 203.230471 C 262.78439 191.76172 262.904182 179.881511 263.138557 167.589843 C 263.372932 155.298176 263.695849 143.214842 264.107307 131.334633 C 264.518765 119.454424 264.987515 108.459631 265.518766 98.345047 C 266.107307 88.225255 266.810432 79.787754 267.633349 73.022129 C 275.63335 72.261712 285.367725 71.67317 296.836476 71.261712 C 308.362518 70.850254 320.711477 70.553379 333.883353 70.376295 C 347.060438 70.199212 360.263563 70.261712 373.492731 70.553379 C 386.727107 70.787754 399.253149 71.14192 411.076067 71.61067 C 422.893776 72.084629 433.03961 72.64192 441.50836 73.287754 C 442.977111 75.350254 444.273986 78.553379 445.388569 82.902338 C 446.508361 87.256505 447.096902 92.167963 447.154194 97.636714 C 447.273986 103.105464 446.596902 108.662756 445.122944 114.30859 C 443.711486 119.897132 441.185444 125.100257 437.53961 129.923174 C 433.951068 134.746091 428.982318 138.600258 422.628151 141.480467 C 416.279192 144.360675 408.279192 145.803384 398.633358 145.803384 C 395.461482 145.803384 392.487524 145.803384 389.727107 145.803384 C 387.018774 145.803384 383.961482 145.803384 380.550023 145.803384 C 377.201065 145.803384 373.023981 145.803384 368.023981 145.803384 C 363.08648 145.803384 356.763563 145.803384 349.060438 145.803384 C 349.060438 147.740884 349.060438 149.714842 349.060438 151.714842 C 349.060438 153.714842 349.060438 155.917968 349.060438 158.329426 C 352.58648 158.329426 357.440647 158.240884 363.612522 158.063801 C 369.789606 157.886718 376.492731 157.798176 383.727107 157.798176 C 390.961482 157.798176 398.076066 158.121093 405.076066 158.772134 C 412.076067 159.417968 418.133359 160.563801 423.247943 162.209635 C 428.07086 172.798177 430.07086 182.678386 429.247943 191.850262 C 428.482318 200.964846 424.925026 208.433596 418.570859 214.256513 C 412.2219 220.022138 403.107316 223.225264 391.227107 223.871097 C 387.169815 223.990889 383.37294 224.04818 379.846898 224.04818 C 376.315648 224.04818 372.232314 224.022139 367.586481 223.959639 C 362.935439 223.902347 356.852105 223.871097 349.320854 223.871097 C 349.320854 226.402347 349.320854 228.839847 349.320854 231.194014 C 349.320854 233.490889 349.320854 235.92839 349.320854 238.516931 C 350.086479 238.516931 350.940646 238.516931 351.883355 238.516931 C 352.883355 238.516931 353.852105 238.516931 354.794813 238.516931 C 367.669814 238.516931 380.550023 238.516931 393.430232 238.516931 C 406.367733 238.516931 419.279192 238.516931 432.159401 238.516931 C 436.805235 244.92839 439.773985 252.042974 441.065652 259.865891 C 442.362527 267.626308 441.800027 275.21485 439.388569 282.626309 C 436.982318 289.975268 432.393776 296.355477 425.628151 301.766936 C 418.925026 307.121103 409.867733 310.527353 398.461483 312.001311 C 394.398982 312.470061 388.961482 312.91277 382.138565 313.324228 C 375.315648 313.735686 367.820856 313.970061 359.643772 314.027353 C 351.471896 314.147145 343.326062 314.115895 335.20627 313.938811 C 327.091686 313.761728 319.768769 313.438811 313.242727 312.970061 C 306.773977 312.501311 301.773976 311.855478 298.247934 311.027353 C 287.013559 308.147144 278.690641 302.412769 273.279183 293.829435 C 267.930224 285.240893 264.75314 272.7461 263.75314 256.334641 Z M 263.75314 256.334641 " stroke="#7a0003" stroke-width="13.549988" stroke-opacity="1" stroke-miterlimit="4"/><g fill="#f46064" fill-opacity="1"><g transform="translate(17.493751, 251.225579)"><g><path d="M 117.609375 -122.125 C 112.191406 -123.457031 107.34375 -123.910156 103.0625 -123.484375 C 98.789062 -123.066406 94.25 -121.289062 89.4375 -118.15625 C 83.164062 -114.300781 79.125 -109.179688 77.3125 -102.796875 C 75.507812 -96.410156 75.09375 -89.785156 76.0625 -82.921875 C 77.019531 -74.734375 80.054688 -68.441406 85.171875 -64.046875 C 90.296875 -59.648438 96.050781 -57.507812 102.4375 -57.625 C 107.375 -57.625 111.195312 -58.648438 113.90625 -60.703125 C 116.613281 -62.753906 118.597656 -65.40625 119.859375 -68.65625 C 121.128906 -71.90625 121.914062 -75.394531 122.21875 -79.125 C 122.519531 -82.863281 122.734375 -86.476562 122.859375 -89.96875 C 124.535156 -92.257812 127.539062 -93.976562 131.875 -95.125 C 136.21875 -96.269531 141.128906 -96.691406 146.609375 -96.390625 C 152.085938 -96.085938 157.445312 -94.910156 162.6875 -92.859375 C 167.925781 -90.816406 172.320312 -87.773438 175.875 -83.734375 C 179.425781 -79.703125 181.382812 -74.554688 181.75 -68.296875 C 181.988281 -63.597656 181.503906 -58.175781 180.296875 -52.03125 C 179.097656 -45.882812 176.75 -39.648438 173.25 -33.328125 C 169.757812 -27.003906 164.910156 -21.132812 158.703125 -15.71875 C 152.503906 -10.300781 144.617188 -5.90625 135.046875 -2.53125 C 125.472656 0.84375 113.878906 2.53125 100.265625 2.53125 C 85.578125 2.53125 73.082031 0.695312 62.78125 -2.96875 C 52.476562 -6.644531 43.984375 -11.40625 37.296875 -17.25 C 30.617188 -23.09375 25.289062 -29.382812 21.3125 -36.125 C 17.34375 -42.875 14.273438 -49.320312 12.109375 -55.46875 C 8.492188 -65.820312 6.773438 -76.867188 6.953125 -88.609375 C 7.140625 -100.359375 8.976562 -111.53125 12.46875 -122.125 C 16.4375 -133.9375 22.457031 -143.90625 30.53125 -152.03125 C 38.601562 -160.15625 48.238281 -166.929688 59.4375 -172.359375 C 74.488281 -179.703125 90.894531 -183.039062 108.65625 -182.375 C 126.425781 -181.71875 144.945312 -175.847656 164.21875 -164.765625 C 166.03125 -157.898438 166.332031 -151.726562 165.125 -146.25 C 163.925781 -140.769531 161.695312 -136.070312 158.4375 -132.15625 C 155.1875 -128.238281 151.273438 -125.226562 146.703125 -123.125 C 142.128906 -121.019531 137.3125 -119.84375 132.25 -119.59375 C 127.1875 -119.351562 122.304688 -120.195312 117.609375 -122.125 Z M 117.609375 -122.125 "/></g></g></g><g fill="#f46064" fill-opacity="1"><g transform="translate(205.385344, 251.225579)"><g><path d="M 9.9375 -41.734375 C 9.695312 -45.828125 9.515625 -51.335938 9.390625 -58.265625 C 9.273438 -65.191406 9.21875 -72.957031 9.21875 -81.5625 C 9.21875 -90.175781 9.304688 -99.085938 9.484375 -108.296875 C 9.660156 -117.515625 9.898438 -126.582031 10.203125 -135.5 C 10.503906 -144.414062 10.863281 -152.664062 11.28125 -160.25 C 11.707031 -167.84375 12.222656 -174.164062 12.828125 -179.21875 C 18.847656 -179.820312 26.164062 -180.273438 34.78125 -180.578125 C 43.394531 -180.878906 52.640625 -181.085938 62.515625 -181.203125 C 72.390625 -181.328125 82.296875 -181.296875 92.234375 -181.109375 C 102.171875 -180.929688 111.5625 -180.660156 120.40625 -180.296875 C 129.257812 -179.941406 136.878906 -179.523438 143.265625 -179.046875 C 144.347656 -177.472656 145.3125 -175.0625 146.15625 -171.8125 C 147 -168.5625 147.453125 -164.890625 147.515625 -160.796875 C 147.578125 -156.703125 147.066406 -152.546875 145.984375 -148.328125 C 144.898438 -144.109375 143 -140.191406 140.28125 -136.578125 C 137.570312 -132.960938 133.835938 -130.070312 129.078125 -127.90625 C 124.328125 -125.738281 118.335938 -124.65625 111.109375 -124.65625 C 108.703125 -124.65625 106.472656 -124.65625 104.421875 -124.65625 C 102.378906 -124.65625 100.09375 -124.65625 97.5625 -124.65625 C 95.03125 -124.65625 91.894531 -124.65625 88.15625 -124.65625 C 84.425781 -124.65625 79.671875 -124.65625 73.890625 -124.65625 C 73.890625 -123.207031 73.890625 -121.726562 73.890625 -120.21875 C 73.890625 -118.71875 73.890625 -117.066406 73.890625 -115.265625 C 76.546875 -115.265625 80.191406 -115.320312 84.828125 -115.4375 C 89.460938 -115.5625 94.488281 -115.625 99.90625 -115.625 C 105.320312 -115.625 110.648438 -115.382812 115.890625 -114.90625 C 121.128906 -114.425781 125.675781 -113.582031 129.53125 -112.375 C 133.144531 -104.425781 134.648438 -97.019531 134.046875 -90.15625 C 133.453125 -83.289062 130.773438 -77.6875 126.015625 -73.34375 C 121.253906 -69.007812 114.421875 -66.601562 105.515625 -66.125 C 102.503906 -66 99.671875 -65.9375 97.015625 -65.9375 C 94.367188 -65.9375 91.296875 -65.96875 87.796875 -66.03125 C 84.304688 -66.09375 79.734375 -66.125 74.078125 -66.125 C 74.078125 -64.195312 74.078125 -62.359375 74.078125 -60.609375 C 74.078125 -58.867188 74.078125 -57.035156 74.078125 -55.109375 C 74.679688 -55.109375 75.34375 -55.109375 76.0625 -55.109375 C 76.78125 -55.109375 77.503906 -55.109375 78.234375 -55.109375 C 87.867188 -55.109375 97.53125 -55.109375 107.21875 -55.109375 C 116.914062 -55.109375 126.582031 -55.109375 136.21875 -55.109375 C 139.71875 -50.285156 141.945312 -44.953125 142.90625 -39.109375 C 143.875 -33.273438 143.453125 -27.585938 141.640625 -22.046875 C 139.835938 -16.503906 136.40625 -11.710938 131.34375 -7.671875 C 126.28125 -3.640625 119.472656 -1.082031 110.921875 0 C 107.910156 0.363281 103.847656 0.695312 98.734375 1 C 93.617188 1.300781 87.988281 1.476562 81.84375 1.53125 C 75.695312 1.59375 69.582031 1.5625 63.5 1.4375 C 57.414062 1.320312 51.9375 1.082031 47.0625 0.71875 C 42.1875 0.363281 38.421875 -0.113281 35.765625 -0.71875 C 27.335938 -2.882812 21.101562 -7.191406 17.0625 -13.640625 C 13.03125 -20.085938 10.65625 -29.453125 9.9375 -41.734375 Z M 9.9375 -41.734375 "/></g></g></g></svg>