<svg xmlns="http://www.w3.org/2000/svg" xmlns:xlink="http://www.w3.org/1999/xlink" width="500" zoomAndPan="magnify" viewBox="0 0 375 374.999991" height="500" preserveAspectRatio="xMidYMid meet" version="1.0"><defs><g/></defs><path stroke-linecap="butt" transform="matrix(0.75, 0, 0, 0.75, 50.371868, 17.225624)" fill="none" stroke-linejoin="miter" d="M 156.847936 149.152303 C 149.61356 147.391886 143.14481 146.803344 137.441685 147.391886 C 131.733351 147.917928 125.676059 150.272095 119.2646 154.449178 C 110.915641 159.621053 105.535432 166.475221 103.123974 175.001263 C 100.712515 183.470013 100.155224 192.292931 101.44689 201.464806 C 102.681266 212.345015 106.712516 220.725224 113.535433 226.605433 C 120.415642 232.49085 128.087517 235.339808 136.556268 235.162725 C 143.14481 235.162725 148.233352 233.813767 151.816685 231.105433 C 155.462519 228.345016 158.113561 224.813766 159.759394 220.522099 C 161.462519 216.167932 162.519811 211.490849 162.93127 206.496057 C 163.347936 201.496056 163.639603 196.673139 163.816686 192.027306 C 166.051061 188.970014 170.051062 186.673139 175.811479 185.147097 C 181.634396 183.615847 188.191688 183.058555 195.483355 183.470013 C 202.78023 183.881472 209.920856 185.470014 216.920856 188.235639 C 223.920857 190.938764 229.769816 194.996056 234.478149 200.407515 C 239.238566 205.761682 241.858358 212.61064 242.327108 220.959599 C 242.681275 227.193975 242.035441 234.42835 240.3844 242.662726 C 238.801066 250.839809 235.681274 259.157518 231.035441 267.626269 C 226.389607 276.037728 219.920857 283.860645 211.629189 291.09502 C 203.337522 298.266896 192.81148 304.121063 180.045854 308.647105 C 167.285436 313.115855 151.847935 315.35023 133.733351 315.35023 C 114.092725 315.35023 97.389599 312.91273 83.629181 308.032522 C 69.926055 303.147105 58.603138 296.829396 49.665637 289.06377 C 40.785428 281.240853 33.696886 272.834603 28.405219 263.834602 C 23.113552 254.834601 19.02501 246.251268 16.144802 238.074184 C 11.321885 224.256474 9.025009 209.522098 9.264593 193.881472 C 9.498968 178.178346 11.936468 163.266887 16.582302 149.152303 C 21.936469 133.391885 29.962511 120.100218 40.665636 109.282509 C 51.431262 98.459591 64.280221 89.433549 79.217722 82.199173 C 99.332307 72.376256 121.207308 67.907506 144.847935 68.792923 C 168.551062 69.673131 193.24898 77.52209 218.952107 92.345007 C 221.363565 101.459591 221.775023 109.693967 220.186482 117.042926 C 218.59794 124.334593 215.62919 130.600218 211.275023 135.834594 C 206.926064 141.011677 201.691689 145.006469 195.571897 147.829386 C 189.514605 150.652303 183.103146 152.240845 176.342729 152.595011 C 169.577103 152.886678 163.082311 151.740845 156.847936 149.152303 Z M 349.49899 118.365842 C 350.321907 123.131468 350.941699 130.068968 351.353157 139.18876 C 351.764615 148.240844 351.99899 158.652303 352.056282 170.412721 C 352.118782 182.115847 352.056282 194.318972 351.879199 207.022098 C 351.764615 219.667932 351.441699 232.193975 350.910449 244.605434 C 350.441698 256.954393 349.884407 268.303352 349.233365 278.652311 C 348.644823 289.006479 347.853157 297.563771 346.853157 304.324188 C 342.853156 308.615855 337.764614 311.735647 331.592739 313.678355 C 325.415655 315.615855 318.832321 316.147105 311.832321 315.261689 C 304.83232 314.38148 298.040653 311.970022 291.452111 308.032522 C 284.868778 304.089813 279.04586 298.475229 273.988568 291.183562 C 268.931276 283.886687 265.373985 274.860644 263.311484 264.100227 C 262.665651 261.042935 262.077109 255.954393 261.551068 248.839809 C 261.077109 241.662726 260.639609 233.225225 260.228151 223.522099 C 259.873984 213.756474 259.608359 203.261681 259.431276 192.027306 C 259.254193 180.79293 259.196901 169.532512 259.254193 158.240845 C 259.373984 146.891886 259.577109 136.068969 259.873984 125.777301 C 260.228151 115.485634 260.754193 106.37105 261.462526 98.428341 C 262.222943 90.490841 263.165651 84.433549 264.285443 80.256465 C 268.754193 76.261673 274.222943 73.230423 280.691694 71.173131 C 287.217736 69.053339 294.097945 68.173131 301.33232 68.527298 C 308.566696 68.818964 315.509405 70.730423 322.155238 74.261673 C 328.858364 77.787715 334.650031 83.141882 339.530239 90.313757 C 344.410448 97.428341 347.733365 106.782508 349.49899 118.365842 Z M 349.49899 118.365842 " stroke="#478000" stroke-width="13.549988" stroke-opacity="1" stroke-miterlimit="4"/><g fill="#c1ff72" fill-opacity="1"><g transform="translate(50.371868, 251.225609)"><g><path d="M 117.609375 -122.125 C 112.191406 -123.457031 107.34375 -123.910156 103.0625 -123.484375 C 98.789062 -123.066406 94.25 -121.289062 89.4375 -118.15625 C 83.164062 -114.300781 79.125 -109.179688 77.3125 -102.796875 C 75.507812 -96.410156 75.09375 -89.785156 76.0625 -82.921875 C 77.019531 -74.734375 80.054688 -68.441406 85.171875 -64.046875 C 90.296875 -59.648438 96.050781 -57.507812 102.4375 -57.625 C 107.375 -57.625 111.195312 -58.648438 113.90625 -60.703125 C 116.613281 -62.753906 118.597656 -65.40625 119.859375 -68.65625 C 121.128906 -71.90625 121.914062 -75.394531 122.21875 -79.125 C 122.519531 -82.863281 122.734375 -86.476562 122.859375 -89.96875 C 124.535156 -92.257812 127.539062 -93.976562 131.875 -95.125 C 136.21875 -96.269531 141.128906 -96.691406 146.609375 -96.390625 C 152.085938 -96.085938 157.445312 -94.910156 162.6875 -92.859375 C 167.925781 -90.816406 172.320312 -87.773438 175.875 -83.734375 C 179.425781 -79.703125 181.382812 -74.554688 181.75 -68.296875 C 181.988281 -63.597656 181.503906 -58.175781 180.296875 -52.03125 C 179.097656 -45.882812 176.75 -39.648438 173.25 -33.328125 C 169.757812 -27.003906 164.910156 -21.132812 158.703125 -15.71875 C 152.503906 -10.300781 144.617188 -5.90625 135.046875 -2.53125 C 125.472656 0.84375 113.878906 2.53125 100.265625 2.53125 C 85.578125 2.53125 73.082031 0.695312 62.78125 -2.96875 C 52.476562 -6.644531 43.984375 -11.40625 37.296875 -17.25 C 30.617188 -23.09375 25.289062 -29.382812 21.3125 -36.125 C 17.34375 -42.875 14.273438 -49.320312 12.109375 -55.46875 C 8.492188 -65.820312 6.773438 -76.867188 6.953125 -88.609375 C 7.140625 -100.359375 8.976562 -111.53125 12.46875 -122.125 C 16.4375 -133.9375 22.457031 -143.90625 30.53125 -152.03125 C 38.601562 -160.15625 48.238281 -166.929688 59.4375 -172.359375 C 74.488281 -179.703125 90.894531 -183.039062 108.65625 -182.375 C 126.425781 -181.71875 144.945312 -175.847656 164.21875 -164.765625 C 166.03125 -157.898438 166.332031 -151.726562 165.125 -146.25 C 163.925781 -140.769531 161.695312 -136.070312 158.4375 -132.15625 C 155.1875 -128.238281 151.273438 -125.226562 146.703125 -123.125 C 142.128906 -121.019531 137.3125 -119.84375 132.25 -119.59375 C 127.1875 -119.351562 122.304688 -120.195312 117.609375 -122.125 Z M 117.609375 -122.125 "/></g></g></g><g fill="#c1ff72" fill-opacity="1"><g transform="translate(238.263461, 251.225609)"><g><path d="M 74.25 -145.25 C 74.851562 -141.644531 75.304688 -136.4375 75.609375 -129.625 C 75.910156 -122.820312 76.085938 -115.023438 76.140625 -106.234375 C 76.203125 -97.441406 76.171875 -88.285156 76.046875 -78.765625 C 75.929688 -69.253906 75.691406 -59.859375 75.328125 -50.578125 C 74.972656 -41.304688 74.550781 -32.785156 74.0625 -25.015625 C 73.582031 -17.253906 72.984375 -10.84375 72.265625 -5.78125 C 69.253906 -2.53125 65.429688 -0.179688 60.796875 1.265625 C 56.160156 2.710938 51.222656 3.101562 45.984375 2.4375 C 40.742188 1.78125 35.65625 -0.0195312 30.71875 -2.96875 C 25.78125 -5.925781 21.410156 -10.144531 17.609375 -15.625 C 13.816406 -21.101562 11.140625 -27.878906 9.578125 -35.953125 C 9.097656 -38.242188 8.675781 -42.066406 8.3125 -47.421875 C 7.945312 -52.785156 7.613281 -59.109375 7.3125 -66.390625 C 7.007812 -73.679688 6.796875 -81.539062 6.671875 -89.96875 C 6.554688 -98.40625 6.53125 -106.867188 6.59375 -115.359375 C 6.65625 -123.847656 6.804688 -131.945312 7.046875 -139.65625 C 7.285156 -147.363281 7.675781 -154.195312 8.21875 -160.15625 C 8.757812 -166.125 9.453125 -170.671875 10.296875 -173.796875 C 13.671875 -176.804688 17.796875 -179.09375 22.671875 -180.65625 C 27.546875 -182.226562 32.691406 -182.894531 38.109375 -182.65625 C 43.535156 -182.414062 48.75 -180.96875 53.75 -178.3125 C 58.75 -175.664062 63.082031 -171.660156 66.75 -166.296875 C 70.425781 -160.941406 72.925781 -153.925781 74.25 -145.25 Z M 74.25 -145.25 "/></g></g></g></svg>