<svg xmlns="http://www.w3.org/2000/svg" xmlns:xlink="http://www.w3.org/1999/xlink" width="500" zoomAndPan="magnify" viewBox="0 0 375 374.999991" height="500" preserveAspectRatio="xMidYMid meet" version="1.0"><defs><g/></defs><path stroke-linecap="butt" transform="matrix(0.75, 0, 0, 0.75, 3.900002, 18.825233)" fill="none" stroke-linejoin="miter" d="M 147.586465 140.76949 C 140.779173 139.108031 134.69584 138.555948 129.326048 139.108031 C 123.956256 139.608032 118.258338 141.821573 112.227088 145.748657 C 104.367713 150.618449 99.305212 157.066366 97.034379 165.0872 C 94.768754 173.05595 94.242712 181.358034 95.461462 189.993451 C 96.62292 200.227827 100.409379 208.113244 106.831254 213.649703 C 113.305213 219.180953 120.529172 221.868454 128.497922 221.701787 C 134.69584 221.701787 139.482298 220.425745 142.857298 217.884078 C 146.28959 215.279911 148.779174 211.962203 150.326049 207.920536 C 151.930216 203.826786 152.930216 199.425744 153.315632 194.722618 C 153.701049 190.019493 153.977091 185.483035 154.143758 181.108034 C 156.247924 178.233034 160.01355 176.071576 165.435425 174.634075 C 170.914592 173.196575 177.081259 172.670534 183.945843 173.05595 C 190.805218 173.446575 197.529177 174.941367 204.117719 177.540326 C 210.701053 180.087201 216.206262 183.904909 220.633345 188.993451 C 225.11772 194.02991 227.581262 200.477827 228.023971 208.337203 C 228.352096 214.201786 227.747929 221.009079 226.195846 228.753871 C 224.701054 236.44658 221.768762 244.279913 217.39897 252.248664 C 213.02397 260.160123 206.940636 267.519498 199.133344 274.32679 C 191.33126 281.076791 181.425009 286.587208 169.4198 290.847625 C 157.409383 295.05075 142.88334 297.154917 125.841672 297.154917 C 107.357296 297.154917 91.638545 294.858042 78.690628 290.264291 C 65.800002 285.670541 55.143751 279.722624 46.732292 272.42054 C 38.378125 265.055956 31.711458 257.144498 26.727082 248.675747 C 21.747915 240.212205 17.904165 232.134079 15.190623 224.44137 C 10.654165 211.436161 8.492706 197.571577 8.716665 182.852826 C 8.935415 168.076783 11.23229 154.050741 15.60729 140.76949 C 20.643749 125.936156 28.195833 113.430946 38.26875 103.248654 C 48.393751 93.066362 60.487501 84.57157 74.539586 77.764277 C 93.46667 68.524694 114.055213 64.31636 136.300006 65.149693 C 158.602091 65.977818 181.841676 73.363235 206.023969 87.311153 C 208.294803 95.889279 208.680219 103.634071 207.185428 110.550738 C 205.695844 117.415322 202.898969 123.305947 198.805219 128.233031 C 194.70626 133.102823 189.784385 136.868448 184.029176 139.524698 C 178.326051 142.180948 172.2948 143.670532 165.930217 144.003865 C 159.570841 144.279907 153.456257 143.201782 147.586465 140.76949 Z M 361.076063 62.821568 C 376.513564 62.654901 389.987523 64.399693 401.49794 68.050735 C 413.06565 71.649694 422.914608 76.326777 431.050026 82.081986 C 439.242735 87.837195 446.018777 93.951779 451.388569 100.425737 C 456.753152 106.899696 460.987528 113.071571 464.086486 118.936155 C 467.185445 124.748656 469.430237 129.451781 470.810445 133.045531 C 476.070862 147.545532 479.195862 162.186158 480.190654 176.956992 C 481.185446 191.680952 479.414612 206.509078 474.878154 221.451787 C 462.482319 261.186164 436.112526 285.811166 395.773982 295.326792 C 379.445856 299.259084 363.341688 300.503875 347.461479 299.061167 C 331.581269 297.623667 316.086476 293.003875 300.9771 285.201791 C 286.643766 277.785124 275.19064 268.154915 266.612515 256.316373 C 258.091681 244.41533 252.112514 230.691371 248.680222 215.144495 C 246.414597 205.290327 245.086472 195.24866 244.695847 185.009076 C 244.31043 174.717409 244.893763 164.727825 246.440639 155.045533 C 248.044805 145.36324 250.675014 136.670531 254.326056 128.983031 C 257.925014 120.956989 262.602098 113.071571 268.357307 105.321571 C 274.112515 97.519487 281.221891 90.410112 289.690641 83.988236 C 298.154184 77.571569 308.284393 72.451777 320.070852 68.634069 C 331.857311 64.759068 345.523978 62.821568 361.076063 62.821568 Z M 362.237521 143.920532 C 356.648979 143.920532 351.471895 145.472615 346.716687 148.571574 C 341.95627 151.670532 338.190645 156.290324 335.425019 162.43095 C 332.716686 168.519492 331.664602 176.102826 332.273978 185.175743 C 332.878144 193.977827 334.872936 200.946577 338.247936 206.092411 C 341.680228 211.186161 345.690645 214.837203 350.284395 217.050745 C 354.930229 219.264287 359.221896 220.206995 363.14898 219.873662 C 367.190646 219.59762 371.284397 218.295537 375.435439 215.97262 C 379.643772 213.592411 383.211481 209.831994 386.143773 204.686161 C 389.076065 199.535119 390.763565 192.733035 391.206273 184.264284 C 391.815648 175.686159 390.789606 168.410117 388.133356 162.43095 C 385.534398 156.456991 381.909397 151.889282 377.263564 148.73824 C 372.669814 145.524699 367.659397 143.920532 362.237521 143.920532 Z M 362.237521 143.920532 " stroke="#7b0008" stroke-width="12.750188" stroke-opacity="1" stroke-miterlimit="4"/><g fill="#f5505b" fill-opacity="1"><g transform="translate(3.900002, 239.325219)"><g><path d="M 110.671875 -114.921875 C 105.566406 -116.171875 101.003906 -116.59375 96.984375 -116.1875 C 92.960938 -115.789062 88.6875 -114.125 84.15625 -111.1875 C 78.257812 -107.550781 74.457031 -102.726562 72.75 -96.71875 C 71.050781 -90.71875 70.65625 -84.488281 71.5625 -78.03125 C 72.476562 -70.320312 75.34375 -64.398438 80.15625 -60.265625 C 84.96875 -56.128906 90.378906 -54.117188 96.390625 -54.234375 C 101.035156 -54.234375 104.632812 -55.195312 107.1875 -57.125 C 109.738281 -59.050781 111.609375 -61.539062 112.796875 -64.59375 C 113.984375 -67.65625 114.71875 -70.941406 115 -74.453125 C 115.289062 -77.972656 115.488281 -81.375 115.59375 -84.65625 C 117.1875 -86.8125 120.019531 -88.425781 124.09375 -89.5 C 128.175781 -90.582031 132.796875 -90.976562 137.953125 -90.6875 C 143.109375 -90.40625 148.148438 -89.300781 153.078125 -87.375 C 158.015625 -85.445312 162.15625 -82.582031 165.5 -78.78125 C 168.84375 -74.988281 170.679688 -70.148438 171.015625 -64.265625 C 171.242188 -59.835938 170.789062 -54.734375 169.65625 -48.953125 C 168.519531 -43.179688 166.304688 -37.316406 163.015625 -31.359375 C 159.734375 -25.410156 155.175781 -19.882812 149.34375 -14.78125 C 143.507812 -9.6875 136.085938 -5.550781 127.078125 -2.375 C 118.066406 0.789062 107.15625 2.375 94.34375 2.375 C 80.519531 2.375 68.765625 0.648438 59.078125 -2.796875 C 49.390625 -6.253906 41.398438 -10.734375 35.109375 -16.234375 C 28.816406 -21.734375 23.800781 -27.65625 20.0625 -34 C 16.320312 -40.34375 13.429688 -46.40625 11.390625 -52.1875 C 7.992188 -61.9375 6.378906 -72.332031 6.546875 -83.375 C 6.710938 -94.425781 8.441406 -104.941406 11.734375 -114.921875 C 15.472656 -126.023438 21.140625 -135.398438 28.734375 -143.046875 C 36.328125 -150.703125 45.394531 -157.082031 55.9375 -162.1875 C 70.101562 -169.09375 85.539062 -172.234375 102.25 -171.609375 C 118.96875 -170.992188 136.394531 -165.472656 154.53125 -155.046875 C 156.226562 -148.578125 156.507812 -142.765625 155.375 -137.609375 C 154.25 -132.453125 152.15625 -128.03125 149.09375 -124.34375 C 146.03125 -120.664062 142.34375 -117.832031 138.03125 -115.84375 C 133.726562 -113.863281 129.195312 -112.757812 124.4375 -112.53125 C 119.675781 -112.3125 115.085938 -113.109375 110.671875 -114.921875 Z M 110.671875 -114.921875 "/></g></g></g><g fill="#f5505b" fill-opacity="1"><g transform="translate(180.700003, 239.325219)"><g><path d="M 94.015625 -173.40625 C 105.566406 -173.507812 115.675781 -172.203125 124.34375 -169.484375 C 133.019531 -166.765625 140.414062 -163.25 146.53125 -158.9375 C 152.65625 -154.632812 157.726562 -150.046875 161.75 -145.171875 C 165.78125 -140.304688 168.957031 -135.691406 171.28125 -131.328125 C 173.601562 -126.960938 175.273438 -123.421875 176.296875 -120.703125 C 180.253906 -109.816406 182.601562 -98.847656 183.34375 -87.796875 C 184.082031 -76.753906 182.75 -65.625 179.34375 -54.40625 C 170.050781 -24.59375 150.273438 -6.117188 120.015625 1.015625 C 107.773438 3.960938 95.703125 4.894531 83.796875 3.8125 C 71.898438 2.738281 60.285156 -0.738281 48.953125 -6.625 C 38.191406 -12.175781 29.609375 -19.398438 23.203125 -28.296875 C 16.796875 -37.203125 12.289062 -47.488281 9.6875 -59.15625 C 7.988281 -66.519531 7 -74.054688 6.71875 -81.765625 C 6.4375 -89.472656 6.890625 -96.953125 8.078125 -104.203125 C 9.265625 -111.460938 11.21875 -117.984375 13.9375 -123.765625 C 16.65625 -129.765625 20.164062 -135.679688 24.46875 -141.515625 C 28.78125 -147.359375 34.109375 -152.6875 40.453125 -157.5 C 46.804688 -162.320312 54.398438 -166.175781 63.234375 -169.0625 C 72.078125 -171.957031 82.335938 -173.40625 94.015625 -173.40625 Z M 94.859375 -112.546875 C 90.660156 -112.546875 86.773438 -111.378906 83.203125 -109.046875 C 79.640625 -106.722656 76.835938 -103.265625 74.796875 -98.671875 C 72.753906 -94.085938 71.960938 -88.394531 72.421875 -81.59375 C 72.867188 -75.019531 74.367188 -69.804688 76.921875 -65.953125 C 79.472656 -62.109375 82.476562 -59.363281 85.9375 -57.71875 C 89.394531 -56.070312 92.597656 -55.363281 95.546875 -55.59375 C 98.597656 -55.820312 101.679688 -56.8125 104.796875 -58.5625 C 107.921875 -60.320312 110.585938 -63.128906 112.796875 -66.984375 C 115.003906 -70.835938 116.28125 -75.9375 116.625 -82.28125 C 117.070312 -88.738281 116.300781 -94.207031 114.3125 -98.6875 C 112.332031 -103.164062 109.613281 -106.59375 106.15625 -108.96875 C 102.707031 -111.351562 98.941406 -112.546875 94.859375 -112.546875 Z M 94.859375 -112.546875 "/></g></g></g></svg>