<svg xmlns="http://www.w3.org/2000/svg" xmlns:xlink="http://www.w3.org/1999/xlink" width="500" zoomAndPan="magnify" viewBox="0 0 375 374.999991" height="500" preserveAspectRatio="xMidYMid meet" version="1.0"><defs><g/></defs><path stroke-linecap="butt" transform="matrix(0.75, 0, 0, 0.75, 4.059372, 18.52535)" fill="none" stroke-linejoin="miter" d="M 149.321888 141.966209 C 142.436471 140.283917 136.280221 139.726625 130.847929 140.283917 C 125.415637 140.789125 119.650011 143.028709 113.545844 147.002667 C 105.597927 151.929751 100.472927 158.455793 98.176052 166.570377 C 95.884385 174.632878 95.347926 183.03392 96.582301 191.768295 C 97.759385 202.127671 101.592718 210.10163 108.087511 215.700589 C 114.639594 221.299547 121.946886 224.018298 130.009387 223.851631 C 136.280221 223.851631 141.123971 222.559964 144.53543 219.987047 C 148.009388 217.356839 150.530222 213.997464 152.09793 209.908922 C 153.717722 205.763088 154.728139 201.315171 155.118764 196.554754 C 155.509389 191.794337 155.790639 187.205795 155.957305 182.778711 C 158.087514 179.867253 161.894806 177.684961 167.379181 176.231836 C 172.926056 174.773503 179.16564 174.242253 186.108349 174.632878 C 193.051058 175.028711 199.853142 176.539128 206.519809 179.169336 C 213.181267 181.747461 218.748976 185.606837 223.228143 190.757879 C 227.764602 195.856837 230.259394 202.377671 230.70731 210.325588 C 231.040644 216.263089 230.42606 223.148506 228.858352 230.987048 C 227.347935 238.768299 224.379185 246.695382 219.95731 254.757883 C 215.530226 262.763092 209.373976 270.211009 201.478142 277.096426 C 193.582308 283.924551 183.561474 289.497468 171.410431 293.809969 C 159.264597 298.065177 144.56668 300.190178 127.321887 300.190178 C 108.618761 300.190178 92.717718 297.867261 79.618759 293.221427 C 66.571883 288.575593 55.79584 282.55476 47.285423 275.164134 C 38.827089 267.716217 32.082297 259.711008 27.04063 251.143299 C 22.004172 242.57559 18.113546 234.403715 15.368754 226.622464 C 10.780213 213.461005 8.592712 199.440171 8.816671 184.544337 C 9.040629 169.596419 11.363546 155.40371 15.79063 141.966209 C 20.88438 126.960999 28.525005 114.304749 38.717714 104.002665 C 48.962507 93.700581 61.196882 85.10683 75.415633 78.221413 C 94.566676 68.872454 115.394803 64.617245 137.900013 65.455787 C 160.467722 66.294329 183.983349 73.768288 208.446892 87.877664 C 210.743767 96.554747 211.134392 104.39329 209.623976 111.39329 C 208.113559 118.335999 205.285434 124.299541 201.144808 129.283916 C 196.998975 134.211 192.014599 138.018292 186.191682 140.705792 C 180.426057 143.393292 174.32189 144.903709 167.884389 145.242251 C 161.446889 145.518292 155.259389 144.429751 149.321888 141.966209 Z M 472.655243 219.059964 C 470.972951 233.73184 466.691701 246.356841 459.806284 256.940175 C 452.920867 267.466217 444.353158 276.169343 434.108365 283.059968 C 423.858365 289.888094 412.775031 294.955802 400.847946 298.257886 C 388.920862 301.565178 376.998987 303.216219 365.071902 303.216219 C 355.441693 303.216219 345.780235 302.653719 336.097942 301.533928 C 326.410442 300.471428 317.030233 298.341219 307.962524 295.153719 C 298.946898 291.96101 290.660439 287.315177 283.103147 281.21101 C 275.545855 275.049551 269.160438 267.0183 263.952104 257.106841 C 258.748979 247.143299 255.165645 234.737048 253.202103 219.903714 C 251.186478 206.018296 250.207312 190.898504 250.264603 174.549544 C 250.373978 158.200585 251.103145 141.518292 252.446895 124.497458 C 253.847937 107.419332 255.613562 90.987039 257.738562 75.195371 C 259.420854 73.403704 262.467729 71.752663 266.894813 70.242246 C 271.37398 68.674537 276.634397 67.528704 282.681272 66.799537 C 288.728147 66.013079 294.998981 65.903704 301.493773 66.460996 C 307.988565 66.966204 314.092732 68.367246 319.801066 70.664121 C 325.514608 72.955788 330.358359 76.263079 334.332317 80.570371 C 338.306276 84.82558 340.769818 90.455789 341.722943 97.450581 C 342.004193 99.914123 342.170859 104.648498 342.228151 111.648498 C 342.337526 118.591207 342.394818 126.846416 342.394818 136.419333 C 342.394818 145.940167 342.509401 155.93496 342.733359 166.40371 C 342.957318 176.872461 343.316693 186.867253 343.821901 196.388087 C 344.384401 205.846421 345.196901 213.856839 346.259401 220.403714 C 347.212526 225.445381 349.311485 229.41934 352.556277 232.330798 C 355.85836 235.242257 359.582319 236.809965 363.728152 237.033923 C 367.868778 237.257882 371.67607 235.971423 375.150028 233.16934 C 378.67607 230.315173 381.056278 225.752673 382.285445 219.481839 C 383.353154 213.997464 384.30107 206.830796 385.14482 197.981837 C 385.983362 189.080795 386.629196 179.367253 387.077112 168.841211 C 387.577112 158.257877 387.775029 147.533918 387.660446 136.674542 C 387.608362 125.809958 387.269821 115.539124 386.655237 105.851623 C 386.040654 96.164122 385.061487 87.877664 383.717737 80.992246 C 386.738571 77.914121 390.884404 75.278704 396.144821 73.096413 C 401.46253 70.856829 407.40003 69.320371 413.952114 68.476621 C 420.498989 67.638079 427.108365 67.721412 433.769824 68.731829 C 440.431282 69.679746 446.650033 71.809954 452.415658 75.112038 C 458.238575 78.414121 463.108367 83.117247 467.030242 89.221414 C 470.946909 95.325581 473.35316 103.04954 474.248993 112.403707 C 474.868785 118.674541 475.426076 124.382874 475.931285 129.533916 C 476.488576 134.627667 476.88441 139.809959 477.108368 145.070376 C 477.332326 150.336001 477.358368 156.268293 477.191701 162.877669 C 477.077118 169.429752 476.660451 177.211003 475.931285 186.226628 C 475.25941 195.237046 474.16566 206.184963 472.655243 219.059964 Z M 472.655243 219.059964 " stroke="#5a0073" stroke-width="12.90015" stroke-opacity="1" stroke-miterlimit="4"/><g fill="#cb6ce6" fill-opacity="1"><g transform="translate(4.059372, 241.275336)"><g><path d="M 111.96875 -116.265625 C 106.8125 -117.523438 102.195312 -117.953125 98.125 -117.546875 C 94.050781 -117.148438 89.722656 -115.460938 85.140625 -112.484375 C 79.179688 -108.816406 75.335938 -103.941406 73.609375 -97.859375 C 71.890625 -91.785156 71.488281 -85.484375 72.40625 -78.953125 C 73.320312 -71.148438 76.21875 -65.15625 81.09375 -60.96875 C 85.96875 -56.789062 91.445312 -54.757812 97.53125 -54.875 C 102.226562 -54.875 105.863281 -55.847656 108.4375 -57.796875 C 111.019531 -59.742188 112.910156 -62.265625 114.109375 -65.359375 C 115.316406 -68.453125 116.0625 -71.773438 116.34375 -75.328125 C 116.632812 -78.890625 116.835938 -82.332031 116.953125 -85.65625 C 118.566406 -87.832031 121.4375 -89.460938 125.5625 -90.546875 C 129.6875 -91.640625 134.359375 -92.039062 139.578125 -91.75 C 144.796875 -91.46875 149.898438 -90.351562 154.890625 -88.40625 C 159.878906 -86.457031 164.0625 -83.5625 167.4375 -79.71875 C 170.820312 -75.875 172.6875 -70.972656 173.03125 -65.015625 C 173.257812 -60.546875 172.800781 -55.382812 171.65625 -49.53125 C 170.507812 -43.6875 168.269531 -37.753906 164.9375 -31.734375 C 161.613281 -25.710938 157 -20.117188 151.09375 -14.953125 C 145.195312 -9.796875 137.6875 -5.613281 128.5625 -2.40625 C 119.445312 0.800781 108.410156 2.40625 95.453125 2.40625 C 81.460938 2.40625 69.566406 0.660156 59.765625 -2.828125 C 49.960938 -6.328125 41.878906 -10.859375 35.515625 -16.421875 C 29.148438 -21.984375 24.078125 -27.972656 20.296875 -34.390625 C 16.515625 -40.816406 13.59375 -46.953125 11.53125 -52.796875 C 8.082031 -62.660156 6.441406 -73.179688 6.609375 -84.359375 C 6.785156 -95.546875 8.539062 -106.179688 11.875 -116.265625 C 15.65625 -127.503906 21.382812 -136.992188 29.0625 -144.734375 C 36.75 -152.472656 45.925781 -158.925781 56.59375 -164.09375 C 70.925781 -171.082031 86.546875 -174.257812 103.453125 -173.625 C 120.367188 -173 138 -167.410156 156.34375 -156.859375 C 158.0625 -150.328125 158.347656 -144.453125 157.203125 -139.234375 C 156.054688 -134.015625 153.9375 -129.539062 150.84375 -125.8125 C 147.75 -122.09375 144.019531 -119.226562 139.65625 -117.21875 C 135.300781 -115.207031 130.71875 -114.085938 125.90625 -113.859375 C 121.09375 -113.628906 116.445312 -114.429688 111.96875 -116.265625 Z M 111.96875 -116.265625 "/></g></g></g><g fill="#cb6ce6" fill-opacity="1"><g transform="translate(182.939371, 241.275336)"><g><path d="M 175.609375 -58.484375 C 174.347656 -47.472656 171.132812 -38.007812 165.96875 -30.09375 C 160.8125 -22.1875 154.390625 -15.648438 146.703125 -10.484375 C 139.023438 -5.328125 130.710938 -1.519531 121.765625 0.9375 C 112.828125 3.40625 103.882812 4.640625 94.9375 4.640625 C 87.71875 4.640625 80.46875 4.238281 73.1875 3.4375 C 65.90625 2.632812 58.878906 1.03125 52.109375 -1.375 C 45.347656 -3.78125 39.128906 -7.273438 33.453125 -11.859375 C 27.773438 -16.453125 22.988281 -22.472656 19.09375 -29.921875 C 15.195312 -37.378906 12.503906 -46.671875 11.015625 -57.796875 C 9.515625 -68.222656 8.789062 -79.570312 8.84375 -91.84375 C 8.90625 -104.113281 9.453125 -116.640625 10.484375 -129.421875 C 11.523438 -142.210938 12.847656 -154.515625 14.453125 -166.328125 C 15.710938 -167.703125 18.003906 -168.960938 21.328125 -170.109375 C 24.648438 -171.253906 28.578125 -172.113281 33.109375 -172.6875 C 37.640625 -173.257812 42.34375 -173.34375 47.21875 -172.9375 C 52.09375 -172.539062 56.675781 -171.484375 60.96875 -169.765625 C 65.269531 -168.046875 68.910156 -165.578125 71.890625 -162.359375 C 74.878906 -159.148438 76.71875 -154.910156 77.40625 -149.640625 C 77.632812 -147.804688 77.773438 -144.28125 77.828125 -139.0625 C 77.890625 -133.84375 77.921875 -127.648438 77.921875 -120.484375 C 77.921875 -113.316406 78.003906 -105.804688 78.171875 -97.953125 C 78.347656 -90.097656 78.632812 -82.613281 79.03125 -75.5 C 79.4375 -68.394531 80.039062 -62.378906 80.84375 -57.453125 C 81.53125 -53.660156 83.101562 -50.675781 85.5625 -48.5 C 88.03125 -46.320312 90.8125 -45.144531 93.90625 -44.96875 C 97.007812 -44.800781 99.878906 -45.773438 102.515625 -47.890625 C 105.148438 -50.015625 106.925781 -53.429688 107.84375 -58.140625 C 108.644531 -62.265625 109.359375 -67.648438 109.984375 -74.296875 C 110.617188 -80.953125 111.109375 -88.234375 111.453125 -96.140625 C 111.796875 -104.054688 111.9375 -112.082031 111.875 -120.21875 C 111.820312 -128.363281 111.566406 -136.078125 111.109375 -143.359375 C 110.648438 -150.640625 109.90625 -156.863281 108.875 -162.03125 C 111.164062 -164.320312 114.289062 -166.296875 118.25 -167.953125 C 122.207031 -169.617188 126.648438 -170.765625 131.578125 -171.390625 C 136.503906 -172.023438 141.460938 -171.96875 146.453125 -171.21875 C 151.441406 -170.476562 156.113281 -168.875 160.46875 -166.40625 C 164.832031 -163.945312 168.472656 -160.421875 171.390625 -155.828125 C 174.316406 -151.242188 176.125 -145.453125 176.8125 -138.453125 C 177.269531 -133.753906 177.695312 -129.484375 178.09375 -125.640625 C 178.5 -121.804688 178.785156 -117.910156 178.953125 -113.953125 C 179.128906 -109.992188 179.160156 -105.546875 179.046875 -100.609375 C 178.929688 -95.679688 178.613281 -89.832031 178.09375 -83.0625 C 177.582031 -76.300781 176.753906 -68.109375 175.609375 -58.484375 Z M 175.609375 -58.484375 "/></g></g></g></svg>