<svg xmlns="http://www.w3.org/2000/svg" xmlns:xlink="http://www.w3.org/1999/xlink" width="500" zoomAndPan="magnify" viewBox="0 0 375 374.999991" height="500" preserveAspectRatio="xMidYMid meet" version="1.0"><defs><g/></defs><path stroke-linecap="butt" transform="matrix(0.733855, 0, 0, 0.733855, 9.325337, 30.921949)" fill="none" stroke-linejoin="miter" d="M 100.915707 154.449733 C 108.974607 154.449733 116.767361 154.449733 124.29397 154.449733 C 131.820578 154.449733 139.437676 154.449733 147.145263 154.449733 C 147.496576 145.448676 147.70417 136.096306 147.762722 126.392624 C 147.879826 116.688942 148.055482 107.783697 148.289691 99.666245 C 148.523899 91.548793 148.965702 85.315654 149.615098 80.961506 C 155.555476 76.31992 162.374136 73.174074 170.081723 71.523969 C 177.783988 69.820635 185.576742 69.586427 193.454663 70.821344 C 201.337907 71.997709 208.630307 74.584648 215.331862 78.582161 C 222.097293 82.579673 227.563931 87.93453 231.742423 94.636086 C 235.915592 101.284412 238.007499 109.194271 238.007499 118.365661 C 238.007499 123.129674 238.007499 129.836553 238.007499 138.480974 C 238.007499 147.066843 238.007499 156.946182 238.007499 168.11899 C 238.007499 179.238569 238.007499 191.14594 238.007499 203.846426 C 238.007499 216.552235 237.943624 229.460315 237.82652 242.575988 C 237.767968 255.627787 237.741353 268.243106 237.741353 280.416623 C 237.741353 284.595115 237.682801 289.210086 237.565697 294.26686 C 237.507145 299.328956 237.326166 303.235979 237.033405 306.003897 C 235.271519 307.94144 232.008569 309.767201 227.244556 311.470536 C 222.539095 313.115318 217.008582 314.291683 210.658339 314.999631 C 204.308096 315.70758 197.750259 315.824684 190.984828 315.350944 C 184.283273 314.882527 177.869155 313.440016 171.75312 311.028733 C 165.637086 308.617451 160.52176 305.120293 156.407143 300.531936 C 152.345755 295.943579 149.849306 290.061753 148.907149 282.886458 C 148.38018 279.655446 147.99693 275.7431 147.762722 271.154743 C 147.52319 266.57171 147.320919 261.749144 147.145263 256.687048 C 147.028159 251.630274 146.905732 246.956751 146.788627 242.661155 C 146.730075 238.31233 146.703461 234.841786 146.703461 232.254847 C 138.995873 232.254847 131.559755 232.254847 124.384459 232.254847 C 117.267716 232.254847 109.682555 232.254847 101.623655 232.254847 C 101.623655 243.954624 101.623655 256.069589 101.623655 268.599742 C 101.623655 281.124571 101.623655 293.649401 101.623655 306.179554 C 99.388029 308.117096 95.773767 310.028025 90.775545 311.912338 C 85.835876 313.732777 80.097769 315.026246 73.571869 315.792746 C 67.104522 316.617799 60.456196 316.676351 53.637536 315.968403 C 46.813553 315.265777 40.37282 313.354849 34.315338 310.235618 C 28.316408 307.057835 23.286249 302.384312 19.230184 296.209725 C 15.232671 290.035139 12.906556 282.034791 12.262482 272.214004 C 11.969722 267.742752 11.645024 261.099748 11.293711 252.279671 C 10.995627 243.45427 10.676252 233.255556 10.319617 221.66756 C 10.026856 210.079565 9.76071 197.847496 9.526502 184.971353 C 9.292293 172.031336 9.175189 159.298912 9.175189 146.774083 C 9.175189 134.24393 9.233741 122.570768 9.350845 111.749272 C 9.526502 100.869225 9.8512 91.814939 10.319617 84.581091 C 16.792287 79.290109 23.877093 75.521482 31.579357 73.291179 C 39.286945 71.055552 47.021147 70.2305 54.781964 70.821344 C 62.601332 71.348313 69.808565 73.174074 76.393017 76.287982 C 82.982791 79.407213 88.422815 83.638934 92.713088 88.993791 C 97.067236 94.284773 99.563685 100.608402 100.213082 107.959354 C 101.038134 115.017545 101.447999 121.953309 101.447999 128.777292 C 101.447999 135.601275 101.357509 141.392611 101.181853 146.156624 C 101.006197 150.862085 100.915707 153.62468 100.915707 154.449733 Z M 252.693434 239.222549 C 254.6363 229.577419 257.164687 218.787861 260.278595 206.848552 C 263.397826 194.909244 266.926921 182.645237 270.865882 170.061856 C 274.804842 157.419922 278.807678 145.214467 282.863742 133.450815 C 286.978359 121.633934 291.007809 110.812438 294.94677 100.986329 C 298.891053 91.165542 302.388211 83.287622 305.44889 77.347243 C 312.033341 75.111617 319.884648 73.051647 328.997486 71.172657 C 338.174199 69.229791 347.909819 68.143915 358.199022 67.909707 C 368.493549 67.611624 378.692262 68.93703 388.811132 71.875282 C 398.92468 74.760304 408.218497 79.907568 416.687262 87.317072 C 425.214579 94.668023 432.214218 105.015779 437.680857 118.365661 C 440.267796 124.779779 443.237985 133.009013 446.591424 143.069331 C 449.944863 153.065774 453.473959 164.18003 457.178711 176.412099 C 460.883463 188.585616 464.497725 201.142383 468.026821 214.0824 C 471.555916 227.017095 474.792252 239.632414 477.730503 251.923035 C 480.73263 264.218979 483.111975 275.418402 484.873861 285.537272 C 484.405444 289.827545 482.169818 294.123141 478.172305 298.413414 C 474.174793 302.650458 469.054144 306.26472 462.821006 309.266847 C 456.646419 312.205099 449.971478 314.147964 442.796182 315.090121 C 435.679439 316.085507 428.594633 315.5266 421.536442 313.413401 C 414.47825 311.353431 408.101393 307.265429 402.395223 301.149395 C 396.689053 295.03336 392.249738 286.532658 389.071956 275.65261 C 381.486795 275.301298 373.608874 275.216131 365.43287 275.391787 C 357.256866 275.567444 349.320393 275.567444 341.612805 275.391787 C 339.499606 280.390009 337.498188 285.856647 335.613875 291.797025 C 333.793436 297.737403 331.999612 303.826823 330.232403 310.059962 C 315.471947 315.5266 302.62242 317.501404 291.68382 315.968403 C 280.803772 314.440725 272.010309 310.235618 265.308754 303.353083 C 258.660427 296.417319 254.25305 287.416262 252.075976 276.360559 C 249.898902 265.246303 250.106495 252.865192 252.693434 239.222549 Z M 350.965175 206.491917 C 356.0805 206.491917 361.052107 206.491917 365.874672 206.491917 C 370.697237 206.491917 375.604969 206.491917 380.608513 206.491917 C 378.372887 196.67113 376.046771 186.999386 373.635489 177.47136 C 371.224206 167.884782 368.903413 158.298203 366.667787 148.711625 C 366.140818 148.82873 365.400932 148.887282 364.464099 148.887282 C 362.345577 158.356756 360.10995 167.858167 357.75722 177.38087 C 355.463042 186.850344 353.200801 196.554026 350.965175 206.491917 Z M 350.965175 206.491917 " stroke="#7b0008" stroke-width="13.549988" stroke-opacity="1" stroke-miterlimit="4"/><g fill="#f5505b" fill-opacity="1"><g transform="translate(9.325337, 259.884644)"><g><path d="M 74.0625 -115.609375 C 79.957031 -115.609375 85.671875 -115.609375 91.203125 -115.609375 C 96.742188 -115.609375 102.34375 -115.609375 108 -115.609375 C 108.238281 -122.203125 108.382812 -129.0625 108.4375 -136.1875 C 108.5 -143.320312 108.617188 -149.863281 108.796875 -155.8125 C 108.972656 -161.769531 109.300781 -166.335938 109.78125 -169.515625 C 114.132812 -172.941406 119.140625 -175.269531 124.796875 -176.5 C 130.453125 -177.738281 136.164062 -177.914062 141.9375 -177.03125 C 147.71875 -176.144531 153.082031 -174.226562 158.03125 -171.28125 C 162.976562 -168.34375 166.984375 -164.425781 170.046875 -159.53125 C 173.117188 -154.644531 174.65625 -148.84375 174.65625 -142.125 C 174.65625 -138.59375 174.65625 -133.671875 174.65625 -127.359375 C 174.65625 -121.054688 174.65625 -113.804688 174.65625 -105.609375 C 174.65625 -97.421875 174.65625 -88.671875 174.65625 -79.359375 C 174.65625 -70.054688 174.625 -60.601562 174.5625 -51 C 174.5 -41.394531 174.46875 -32.113281 174.46875 -23.15625 C 174.46875 -20.09375 174.4375 -16.703125 174.375 -12.984375 C 174.320312 -9.273438 174.175781 -6.421875 173.9375 -4.421875 C 172.644531 -3.003906 170.257812 -1.675781 166.78125 -0.4375 C 163.300781 0.800781 159.234375 1.679688 154.578125 2.203125 C 149.929688 2.734375 145.128906 2.820312 140.171875 2.46875 C 135.222656 2.113281 130.507812 1.054688 126.03125 -0.703125 C 121.5625 -2.472656 117.820312 -5.035156 114.8125 -8.390625 C 111.8125 -11.753906 109.957031 -16.085938 109.25 -21.390625 C 108.894531 -23.742188 108.628906 -26.597656 108.453125 -29.953125 C 108.273438 -33.316406 108.125 -36.851562 108 -40.5625 C 107.882812 -44.28125 107.796875 -47.726562 107.734375 -50.90625 C 107.679688 -54.09375 107.65625 -56.628906 107.65625 -58.515625 C 102 -58.515625 96.546875 -58.515625 91.296875 -58.515625 C 86.054688 -58.515625 80.488281 -58.515625 74.59375 -58.515625 C 74.59375 -49.910156 74.59375 -41.007812 74.59375 -31.8125 C 74.59375 -22.625 74.59375 -13.4375 74.59375 -4.25 C 72.945312 -2.832031 70.296875 -1.445312 66.640625 -0.09375 C 62.984375 1.257812 58.769531 2.234375 54 2.828125 C 49.226562 3.421875 44.335938 3.453125 39.328125 2.921875 C 34.316406 2.390625 29.601562 0.976562 25.1875 -1.3125 C 20.769531 -3.613281 17.085938 -7.035156 14.140625 -11.578125 C 11.191406 -16.117188 9.484375 -21.984375 9.015625 -29.171875 C 8.773438 -32.460938 8.535156 -37.347656 8.296875 -43.828125 C 8.066406 -50.316406 7.832031 -57.800781 7.59375 -66.28125 C 7.363281 -74.769531 7.160156 -83.757812 6.984375 -93.25 C 6.804688 -102.738281 6.71875 -112.078125 6.71875 -121.265625 C 6.71875 -130.453125 6.773438 -139.023438 6.890625 -146.984375 C 7.015625 -154.941406 7.25 -161.570312 7.59375 -166.875 C 12.3125 -170.757812 17.5 -173.523438 23.15625 -175.171875 C 28.8125 -176.828125 34.492188 -177.445312 40.203125 -177.03125 C 45.921875 -176.625 51.195312 -175.269531 56.03125 -172.96875 C 60.863281 -170.664062 64.867188 -167.570312 68.046875 -163.6875 C 71.234375 -159.800781 73.0625 -155.144531 73.53125 -149.71875 C 74.125 -144.539062 74.421875 -139.445312 74.421875 -134.4375 C 74.421875 -129.425781 74.359375 -125.179688 74.234375 -121.703125 C 74.117188 -118.222656 74.0625 -116.191406 74.0625 -115.609375 Z M 74.0625 -115.609375 "/></g></g></g><g fill="#f5505b" fill-opacity="1"><g transform="translate(192.11157, 259.884644)"><g><path d="M 2.65625 -53.390625 C 4.0625 -60.453125 5.914062 -68.375 8.21875 -77.15625 C 10.519531 -85.9375 13.113281 -94.953125 16 -104.203125 C 18.882812 -113.453125 21.828125 -122.40625 24.828125 -131.0625 C 27.835938 -139.726562 30.785156 -147.65625 33.671875 -154.84375 C 36.554688 -162.039062 39.117188 -167.816406 41.359375 -172.171875 C 46.191406 -173.828125 51.96875 -175.359375 58.6875 -176.765625 C 65.40625 -178.179688 72.535156 -178.976562 80.078125 -179.15625 C 87.617188 -179.332031 95.097656 -178.359375 102.515625 -176.234375 C 109.941406 -174.117188 116.78125 -170.347656 123.03125 -164.921875 C 129.28125 -159.503906 134.40625 -151.90625 138.40625 -142.125 C 140.289062 -137.40625 142.472656 -131.363281 144.953125 -124 C 147.429688 -116.632812 150.023438 -108.472656 152.734375 -99.515625 C 155.441406 -90.566406 158.09375 -81.347656 160.6875 -71.859375 C 163.28125 -62.367188 165.664062 -53.113281 167.84375 -44.09375 C 170.019531 -35.082031 171.757812 -26.863281 173.0625 -19.4375 C 172.707031 -16.257812 171.054688 -13.109375 168.109375 -9.984375 C 165.160156 -6.859375 161.414062 -4.207031 156.875 -2.03125 C 152.34375 0.144531 147.453125 1.585938 142.203125 2.296875 C 136.960938 3.003906 131.75 2.59375 126.5625 1.0625 C 121.382812 -0.46875 116.703125 -3.472656 112.515625 -7.953125 C 108.328125 -12.429688 105.054688 -18.675781 102.703125 -26.6875 C 97.160156 -26.925781 91.382812 -26.984375 85.375 -26.859375 C 79.363281 -26.742188 73.53125 -26.75 67.875 -26.875 C 66.34375 -23.21875 64.898438 -19.207031 63.546875 -14.84375 C 62.191406 -10.488281 60.867188 -6.015625 59.578125 -1.421875 C 48.734375 2.585938 39.300781 4.03125 31.28125 2.90625 C 23.269531 1.789062 16.816406 -1.296875 11.921875 -6.359375 C 7.035156 -11.429688 3.796875 -18.03125 2.203125 -26.15625 C 0.617188 -34.289062 0.769531 -43.367188 2.65625 -53.390625 Z M 74.78125 -77.421875 C 78.550781 -77.421875 82.203125 -77.421875 85.734375 -77.421875 C 89.265625 -77.421875 92.859375 -77.421875 96.515625 -77.421875 C 94.867188 -84.609375 93.160156 -91.707031 91.390625 -98.71875 C 89.617188 -105.738281 87.910156 -112.78125 86.265625 -119.84375 C 85.910156 -119.726562 85.378906 -119.671875 84.671875 -119.671875 C 83.140625 -112.722656 81.519531 -105.769531 79.8125 -98.8125 C 78.101562 -91.863281 76.425781 -84.734375 74.78125 -77.421875 Z M 74.78125 -77.421875 "/></g></g></g></svg>