<svg xmlns="http://www.w3.org/2000/svg" xmlns:xlink="http://www.w3.org/1999/xlink" width="500" zoomAndPan="magnify" viewBox="0 0 375 374.999991" height="500" preserveAspectRatio="xMidYMid meet" version="1.0"><defs><g/></defs><path stroke-linecap="butt" transform="matrix(0.75, 0, 0, 0.75, 21.679691, 30.921941)" fill="none" stroke-linejoin="miter" d="M 98.744794 151.838463 C 106.630211 151.838463 114.255212 151.838463 121.619796 151.838463 C 128.984379 151.838463 136.437505 151.838463 143.973964 151.838463 C 144.317714 143.036379 144.520839 133.885337 144.57813 124.390545 C 144.692714 114.895752 144.864589 106.177002 145.098964 98.239501 C 145.328131 90.296792 145.760422 84.197834 146.390631 79.937417 C 152.203131 75.390541 158.880215 72.312416 166.416674 70.703041 C 173.953132 69.036374 181.578133 68.801999 189.291675 70.010333 C 197.000009 71.161374 204.135426 73.692625 210.697926 77.609292 C 217.31251 81.52075 222.666677 86.755125 226.750011 93.317626 C 230.838553 99.817626 232.88022 107.55721 232.88022 116.536377 C 232.88022 121.197836 232.88022 127.755128 232.88022 136.21867 C 232.88022 144.619713 232.88022 154.28638 232.88022 165.218672 C 232.88022 176.093673 232.88022 187.744715 232.88022 200.177008 C 232.88022 212.604092 232.822928 225.23951 232.708345 238.067635 C 232.651053 250.843678 232.619803 263.187429 232.619803 275.098888 C 232.619803 279.182221 232.562511 283.703055 232.447928 288.650972 C 232.390636 293.598889 232.218761 297.427014 231.932303 300.130139 C 230.203136 302.031181 227.010428 303.812431 222.348969 305.484307 C 217.744802 307.093682 212.338552 308.244723 206.12501 308.932223 C 199.906259 309.624932 193.489592 309.739515 186.875008 309.281182 C 180.312508 308.81764 174.041674 307.41139 168.057299 305.052015 C 162.072923 302.69264 157.067715 299.265556 153.036464 294.781181 C 149.067714 290.291597 146.619797 284.536388 145.703131 277.515555 C 145.182297 274.348888 144.807297 270.525971 144.57813 266.036387 C 144.348964 261.546804 144.145839 256.828053 143.973964 251.880136 C 143.85938 246.932219 143.744797 242.354094 143.630214 238.156177 C 143.572922 233.89576 143.541672 230.499927 143.541672 227.968676 C 136.005213 227.968676 128.723963 227.968676 121.703129 227.968676 C 114.744795 227.968676 107.317711 227.968676 99.437503 227.968676 C 99.437503 239.421802 99.437503 251.27597 99.437503 263.531179 C 99.437503 275.791596 99.437503 288.046805 99.437503 300.302015 C 97.250002 302.203056 93.708335 304.072848 88.81771 305.91139 C 83.984376 307.697848 78.375001 308.963473 71.989584 309.713473 C 65.65625 310.515557 59.15625 310.572849 52.479166 309.885348 C 45.807291 309.19264 39.505207 307.322848 33.578123 304.275973 C 27.708331 301.166598 22.786456 296.593681 18.817706 290.552014 C 14.906247 284.505138 12.630205 276.682221 11.999997 267.072846 C 11.70833 262.697845 11.39583 256.197845 11.046872 247.562428 C 10.760413 238.932219 10.442705 228.947843 10.098955 217.614509 C 9.812497 206.275967 9.55208 194.307216 9.322913 181.703048 C 9.093747 169.046798 8.979163 156.588463 8.979163 144.328046 C 8.979163 132.072837 9.036455 120.650961 9.151038 110.062419 C 9.322913 99.416585 9.640622 90.557209 10.098955 83.479084 C 16.42708 78.296792 23.364581 74.6145 30.90104 72.427 C 38.437499 70.244708 46.005207 69.437416 53.604166 70.010333 C 61.255208 70.531166 68.302084 72.312416 74.750001 75.3645 C 81.19271 78.411375 86.515627 82.557209 90.718752 87.791584 C 94.973961 92.973876 97.421877 99.156168 98.057294 106.348877 C 98.859377 113.255127 99.265627 120.046794 99.265627 126.723878 C 99.265627 133.395754 99.177086 139.062421 99.005211 143.723879 C 98.833336 148.328046 98.744794 151.03638 98.744794 151.838463 Z M 256.661471 251.536386 C 256.375013 246.182219 256.145846 238.98951 255.968763 229.95826 C 255.796888 220.921801 255.713554 210.791592 255.713554 199.572841 C 255.713554 188.348882 255.828138 176.72909 256.057304 164.703047 C 256.286471 152.671796 256.604179 140.848879 257.005221 129.223878 C 257.411471 117.598878 257.869805 106.83846 258.38543 96.942626 C 258.963555 87.046792 259.651055 78.786375 260.458346 72.171791 C 268.286472 71.421791 277.807306 70.848874 289.031265 70.442624 C 300.307307 70.041583 312.390641 69.755124 325.281267 69.583249 C 338.171893 69.406166 351.088561 69.463458 364.036478 69.755124 C 376.984396 69.984291 389.244813 70.328041 400.807314 70.791583 C 412.375023 71.249916 422.302107 71.796791 430.588566 72.427 C 432.026066 74.442625 433.291691 77.578042 434.385441 81.838458 C 435.479191 86.093667 436.052108 90.900959 436.1094 96.249918 C 436.229191 101.604085 435.567733 107.041585 434.125024 112.567627 C 432.744816 118.031169 430.270858 123.12492 426.703149 127.84367 C 423.192732 132.56242 418.333357 136.333254 412.114606 139.150962 C 405.901064 141.968671 398.072939 143.380129 388.640646 143.380129 C 385.531271 143.380129 382.625021 143.380129 379.921896 143.380129 C 377.270854 143.380129 374.281271 143.380129 370.942729 143.380129 C 367.661478 143.380129 363.578145 143.380129 358.68752 143.380129 C 353.854186 143.380129 347.666685 143.380129 340.130227 143.380129 C 340.130227 145.281171 340.130227 147.208254 340.130227 149.166588 C 340.130227 151.119713 340.130227 153.275963 340.130227 155.635338 C 343.583352 155.635338 348.328144 155.552005 354.369811 155.38013 C 360.411478 155.208255 366.973978 155.119713 374.052104 155.119713 C 381.130229 155.119713 388.093771 155.437422 394.937522 156.06763 C 401.786481 156.703047 407.713564 157.822838 412.718773 159.437422 C 417.437523 169.791589 419.395857 179.458257 418.588565 188.437424 C 417.843773 197.359299 414.359398 204.666592 408.145856 210.364509 C 401.932314 215.999926 393.010438 219.135343 381.385438 219.770759 C 377.416687 219.885343 373.703146 219.942634 370.255229 219.942634 C 366.802103 219.942634 362.802103 219.916593 358.255228 219.859301 C 353.708353 219.796801 347.755227 219.770759 340.385435 219.770759 C 340.385435 222.244718 340.385435 224.635343 340.385435 226.932218 C 340.385435 229.17701 340.385435 231.567635 340.385435 234.098885 C 341.135435 234.098885 341.968768 234.098885 342.890643 234.098885 C 343.86981 234.098885 344.817727 234.098885 345.739602 234.098885 C 358.34377 234.098885 370.942729 234.098885 383.546896 234.098885 C 396.203147 234.098885 408.838564 234.098885 421.437524 234.098885 C 425.984399 240.369719 428.890649 247.333261 430.156274 254.989512 C 431.421899 262.583262 430.875024 270.005138 428.515649 277.255138 C 426.156274 284.447847 421.66669 290.692639 415.052107 295.989514 C 408.489606 301.22389 399.630231 304.562431 388.463563 305.999932 C 384.494813 306.458265 379.171896 306.890557 372.494812 307.296807 C 365.822937 307.697848 358.484395 307.927015 350.484394 307.984307 C 342.489602 308.09889 334.515643 308.072848 326.578142 307.900973 C 318.635434 307.72389 311.473975 307.41139 305.083349 306.947848 C 298.755224 306.489515 293.864599 305.854098 290.411473 305.052015 C 279.421889 302.229098 271.276055 296.619723 265.984388 288.21868 C 260.744805 279.817638 257.640638 267.588471 256.661471 251.536386 Z M 256.661471 251.536386 " stroke="#5a0073" stroke-width="13.258312" stroke-opacity="1" stroke-miterlimit="4"/><g fill="#cb6ce6" fill-opacity="1"><g transform="translate(21.679691, 260.421926)"><g><path d="M 74.0625 -115.609375 C 79.957031 -115.609375 85.671875 -115.609375 91.203125 -115.609375 C 96.742188 -115.609375 102.34375 -115.609375 108 -115.609375 C 108.238281 -122.203125 108.382812 -129.0625 108.4375 -136.1875 C 108.5 -143.320312 108.617188 -149.863281 108.796875 -155.8125 C 108.972656 -161.769531 109.300781 -166.335938 109.78125 -169.515625 C 114.132812 -172.941406 119.140625 -175.269531 124.796875 -176.5 C 130.453125 -177.738281 136.164062 -177.914062 141.9375 -177.03125 C 147.71875 -176.144531 153.082031 -174.226562 158.03125 -171.28125 C 162.976562 -168.34375 166.984375 -164.425781 170.046875 -159.53125 C 173.117188 -154.644531 174.65625 -148.84375 174.65625 -142.125 C 174.65625 -138.59375 174.65625 -133.671875 174.65625 -127.359375 C 174.65625 -121.054688 174.65625 -113.804688 174.65625 -105.609375 C 174.65625 -97.421875 174.65625 -88.671875 174.65625 -79.359375 C 174.65625 -70.054688 174.625 -60.601562 174.5625 -51 C 174.5 -41.394531 174.46875 -32.113281 174.46875 -23.15625 C 174.46875 -20.09375 174.4375 -16.703125 174.375 -12.984375 C 174.320312 -9.273438 174.175781 -6.421875 173.9375 -4.421875 C 172.644531 -3.003906 170.257812 -1.675781 166.78125 -0.4375 C 163.300781 0.800781 159.234375 1.679688 154.578125 2.203125 C 149.929688 2.734375 145.128906 2.820312 140.171875 2.46875 C 135.222656 2.113281 130.507812 1.054688 126.03125 -0.703125 C 121.5625 -2.472656 117.820312 -5.035156 114.8125 -8.390625 C 111.8125 -11.753906 109.957031 -16.085938 109.25 -21.390625 C 108.894531 -23.742188 108.628906 -26.597656 108.453125 -29.953125 C 108.273438 -33.316406 108.125 -36.851562 108 -40.5625 C 107.882812 -44.28125 107.796875 -47.726562 107.734375 -50.90625 C 107.679688 -54.09375 107.65625 -56.628906 107.65625 -58.515625 C 102 -58.515625 96.546875 -58.515625 91.296875 -58.515625 C 86.054688 -58.515625 80.488281 -58.515625 74.59375 -58.515625 C 74.59375 -49.910156 74.59375 -41.007812 74.59375 -31.8125 C 74.59375 -22.625 74.59375 -13.4375 74.59375 -4.25 C 72.945312 -2.832031 70.296875 -1.445312 66.640625 -0.09375 C 62.984375 1.257812 58.769531 2.234375 54 2.828125 C 49.226562 3.421875 44.335938 3.453125 39.328125 2.921875 C 34.316406 2.390625 29.601562 0.976562 25.1875 -1.3125 C 20.769531 -3.613281 17.085938 -7.035156 14.140625 -11.578125 C 11.191406 -16.117188 9.484375 -21.984375 9.015625 -29.171875 C 8.773438 -32.460938 8.535156 -37.347656 8.296875 -43.828125 C 8.066406 -50.316406 7.832031 -57.800781 7.59375 -66.28125 C 7.363281 -74.769531 7.160156 -83.757812 6.984375 -93.25 C 6.804688 -102.738281 6.71875 -112.078125 6.71875 -121.265625 C 6.71875 -130.453125 6.773438 -139.023438 6.890625 -146.984375 C 7.015625 -154.941406 7.25 -161.570312 7.59375 -166.875 C 12.3125 -170.757812 17.5 -173.523438 23.15625 -175.171875 C 28.8125 -176.828125 34.492188 -177.445312 40.203125 -177.03125 C 45.921875 -176.625 51.195312 -175.269531 56.03125 -172.96875 C 60.863281 -170.664062 64.867188 -167.570312 68.046875 -163.6875 C 71.234375 -159.800781 73.0625 -155.144531 73.53125 -149.71875 C 74.125 -144.539062 74.421875 -139.445312 74.421875 -134.4375 C 74.421875 -129.425781 74.359375 -125.179688 74.234375 -121.703125 C 74.117188 -118.222656 74.0625 -116.191406 74.0625 -115.609375 Z M 74.0625 -115.609375 "/></g></g></g><g fill="#cb6ce6" fill-opacity="1"><g transform="translate(204.465044, 260.421926)"><g><path d="M 9.71875 -40.828125 C 9.488281 -44.835938 9.3125 -50.226562 9.1875 -57 C 9.070312 -63.78125 9.015625 -71.382812 9.015625 -79.8125 C 9.015625 -88.238281 9.101562 -96.957031 9.28125 -105.96875 C 9.457031 -114.988281 9.691406 -123.859375 9.984375 -132.578125 C 10.273438 -141.296875 10.628906 -149.367188 11.046875 -156.796875 C 11.460938 -164.222656 11.960938 -170.410156 12.546875 -175.359375 C 18.441406 -175.941406 25.601562 -176.378906 34.03125 -176.671875 C 42.457031 -176.972656 51.5 -177.179688 61.15625 -177.296875 C 70.820312 -177.421875 80.515625 -177.394531 90.234375 -177.21875 C 99.960938 -177.039062 109.15625 -176.773438 117.8125 -176.421875 C 126.476562 -176.066406 133.929688 -175.65625 140.171875 -175.1875 C 141.234375 -173.644531 142.175781 -171.285156 143 -168.109375 C 143.832031 -164.929688 144.273438 -161.335938 144.328125 -157.328125 C 144.390625 -153.316406 143.890625 -149.25 142.828125 -145.125 C 141.765625 -141 139.90625 -137.164062 137.25 -133.625 C 134.601562 -130.09375 130.953125 -127.265625 126.296875 -125.140625 C 121.648438 -123.023438 115.789062 -121.96875 108.71875 -121.96875 C 106.351562 -121.96875 104.171875 -121.96875 102.171875 -121.96875 C 100.171875 -121.96875 97.929688 -121.96875 95.453125 -121.96875 C 92.984375 -121.96875 89.921875 -121.96875 86.265625 -121.96875 C 82.609375 -121.96875 77.953125 -121.96875 72.296875 -121.96875 C 72.296875 -120.550781 72.296875 -119.109375 72.296875 -117.640625 C 72.296875 -116.171875 72.296875 -114.550781 72.296875 -112.78125 C 74.890625 -112.78125 78.453125 -112.835938 82.984375 -112.953125 C 87.523438 -113.078125 92.445312 -113.140625 97.75 -113.140625 C 103.050781 -113.140625 108.265625 -112.898438 113.390625 -112.421875 C 118.523438 -111.953125 122.976562 -111.128906 126.75 -109.953125 C 130.28125 -102.171875 131.75 -94.921875 131.15625 -88.203125 C 130.570312 -81.484375 127.953125 -76.003906 123.296875 -71.765625 C 118.640625 -67.523438 111.953125 -65.171875 103.234375 -64.703125 C 100.285156 -64.578125 97.515625 -64.515625 94.921875 -64.515625 C 92.328125 -64.515625 89.320312 -64.546875 85.90625 -64.609375 C 82.488281 -64.671875 78.007812 -64.703125 72.46875 -64.703125 C 72.46875 -62.816406 72.46875 -61.019531 72.46875 -59.3125 C 72.46875 -57.601562 72.46875 -55.804688 72.46875 -53.921875 C 73.0625 -53.921875 73.710938 -53.921875 74.421875 -53.921875 C 75.128906 -53.921875 75.835938 -53.921875 76.546875 -53.921875 C 85.972656 -53.921875 95.425781 -53.921875 104.90625 -53.921875 C 114.394531 -53.921875 123.851562 -53.921875 133.28125 -53.921875 C 136.695312 -49.203125 138.875 -43.984375 139.8125 -38.265625 C 140.757812 -32.554688 140.347656 -26.988281 138.578125 -21.5625 C 136.816406 -16.144531 133.460938 -11.460938 128.515625 -7.515625 C 123.566406 -3.566406 116.90625 -1.0625 108.53125 0 C 105.59375 0.351562 101.617188 0.675781 96.609375 0.96875 C 91.597656 1.269531 86.085938 1.445312 80.078125 1.5 C 74.066406 1.5625 68.082031 1.53125 62.125 1.40625 C 56.175781 1.289062 50.816406 1.054688 46.046875 0.703125 C 41.273438 0.347656 37.59375 -0.117188 35 -0.703125 C 26.75 -2.828125 20.648438 -7.039062 16.703125 -13.34375 C 12.753906 -19.644531 10.425781 -28.804688 9.71875 -40.828125 Z M 9.71875 -40.828125 "/></g></g></g></svg>