<svg xmlns="http://www.w3.org/2000/svg" xmlns:xlink="http://www.w3.org/1999/xlink" width="500" zoomAndPan="magnify" viewBox="0 0 375 374.999991" height="500" preserveAspectRatio="xMidYMid meet" version="1.0"><defs><g/></defs><path stroke-linecap="butt" transform="matrix(0.75, 0, 0, 0.75, 74.324325, 2.967524)" fill="none" stroke-linejoin="miter" d="M 4.609233 305.262071 C 7.083192 292.970404 10.301942 279.220403 14.275901 264.00686 C 18.249859 248.793317 22.744651 233.168316 27.765485 217.131857 C 32.786319 201.022481 37.880069 185.470397 43.051944 170.480812 C 48.296736 155.418311 53.432153 141.631852 58.452987 129.116226 C 63.473821 116.6006 67.932154 106.558933 71.827988 98.991224 C 80.223822 96.142266 90.229031 93.517266 101.843615 91.121432 C 113.536324 88.647474 125.937366 87.262057 139.051951 86.959973 C 152.166535 86.590182 165.166536 88.272473 178.057161 92.022474 C 190.947787 95.694349 202.78633 102.251641 213.577997 111.69435 C 224.442581 121.058934 233.364457 134.251643 240.333207 151.262061 C 243.630082 159.428728 247.411333 169.918312 251.687375 182.736021 C 255.958208 195.475606 260.453 209.637065 265.176959 225.225607 C 269.895709 240.741234 274.505084 256.736026 278.999876 273.225611 C 283.494668 289.709987 287.619669 305.788113 291.364461 321.449572 C 295.187377 337.111031 298.223836 351.387074 300.468628 364.2777 C 299.869669 369.74645 297.025919 375.220409 291.926961 380.689159 C 286.83321 386.084993 280.312376 390.694368 272.369668 394.517285 C 264.499875 398.262077 255.994667 400.736036 246.854041 401.933952 C 237.786332 403.209994 228.755081 402.496452 219.760289 399.798536 C 210.770705 397.173535 202.635288 391.965202 195.369663 384.173535 C 188.098829 376.381867 182.442578 365.548533 178.395703 351.689157 C 168.729036 351.236032 158.687368 351.126657 148.270701 351.350616 C 137.854034 351.574574 127.734241 351.574574 117.916532 351.350616 C 115.218616 357.720408 112.67174 364.689158 110.275907 372.256867 C 107.95299 379.824576 105.666532 387.584993 103.416531 395.527702 C 84.609239 402.496452 68.234238 405.006869 54.291528 403.058952 C 40.432152 401.111036 29.229027 395.75166 20.682151 386.986035 C 12.213401 378.142284 6.593608 366.673533 3.822775 352.584991 C 1.046733 338.423532 1.312358 322.647489 4.609233 305.262071 Z M 129.8332 263.558943 C 136.354034 263.558943 142.687367 263.558943 148.827993 263.558943 C 154.973827 263.558943 161.234244 263.558943 167.604036 263.558943 C 164.755077 251.043318 161.796744 238.715192 158.723827 226.574566 C 155.65091 214.361023 152.687368 202.147481 149.843618 189.92873 C 149.166535 190.079772 148.229034 190.152689 147.031118 190.152689 C 144.333201 202.220398 141.484242 214.324565 138.48945 226.465191 C 135.567575 238.527692 132.682158 250.892276 129.8332 263.558943 Z M 129.8332 263.558943 " stroke="#803a00" stroke-width="17.266237" stroke-opacity="1" stroke-miterlimit="4"/><g fill="#ff7c10" fill-opacity="1"><g transform="translate(74.324325, 301.467505)"><g><path d="M 3.453125 -69.53125 C 5.296875 -78.738281 7.710938 -89.054688 10.703125 -100.484375 C 13.691406 -111.921875 17.066406 -123.660156 20.828125 -135.703125 C 24.585938 -147.753906 28.425781 -159.421875 32.34375 -170.703125 C 36.257812 -181.984375 40.097656 -192.304688 43.859375 -201.671875 C 47.617188 -211.035156 50.957031 -218.554688 53.875 -224.234375 C 60.164062 -226.378906 67.6875 -228.375 76.4375 -230.21875 C 85.1875 -232.0625 94.46875 -233.097656 104.28125 -233.328125 C 114.101562 -233.554688 123.847656 -232.289062 133.515625 -229.53125 C 143.191406 -226.769531 152.097656 -221.859375 160.234375 -214.796875 C 168.367188 -207.734375 175.046875 -197.832031 180.265625 -185.09375 C 182.710938 -178.957031 185.546875 -171.09375 188.765625 -161.5 C 191.992188 -151.90625 195.375 -141.273438 198.90625 -129.609375 C 202.4375 -117.941406 205.890625 -105.929688 209.265625 -93.578125 C 212.640625 -81.222656 215.75 -69.175781 218.59375 -57.4375 C 221.4375 -45.695312 223.703125 -34.992188 225.390625 -25.328125 C 224.921875 -21.179688 222.769531 -17.070312 218.9375 -13 C 215.101562 -8.9375 210.226562 -5.484375 204.3125 -2.640625 C 198.40625 0.191406 192.035156 2.066406 185.203125 2.984375 C 178.378906 3.910156 171.585938 3.375 164.828125 1.375 C 158.078125 -0.613281 151.976562 -4.523438 146.53125 -10.359375 C 141.082031 -16.191406 136.820312 -24.328125 133.75 -34.765625 C 126.539062 -35.066406 119.019531 -35.140625 111.1875 -34.984375 C 103.363281 -34.835938 95.769531 -34.84375 88.40625 -35 C 86.40625 -30.238281 84.519531 -25.015625 82.75 -19.328125 C 80.988281 -13.648438 79.265625 -7.820312 77.578125 -1.84375 C 63.460938 3.375 51.1875 5.253906 40.75 3.796875 C 30.3125 2.335938 21.90625 -1.6875 15.53125 -8.28125 C 9.164062 -14.882812 4.945312 -23.476562 2.875 -34.0625 C 0.800781 -44.65625 0.992188 -56.476562 3.453125 -69.53125 Z M 97.375 -100.828125 C 102.289062 -100.828125 107.050781 -100.828125 111.65625 -100.828125 C 116.257812 -100.828125 120.941406 -100.828125 125.703125 -100.828125 C 123.546875 -110.191406 121.316406 -119.441406 119.015625 -128.578125 C 116.710938 -137.710938 114.488281 -146.882812 112.34375 -156.09375 C 111.882812 -155.9375 111.195312 -155.859375 110.28125 -155.859375 C 108.28125 -146.804688 106.164062 -137.75 103.9375 -128.6875 C 101.71875 -119.632812 99.53125 -110.347656 97.375 -100.828125 Z M 97.375 -100.828125 "/></g></g></g></svg>