<svg xmlns="http://www.w3.org/2000/svg" xmlns:xlink="http://www.w3.org/1999/xlink" width="500" zoomAndPan="magnify" viewBox="0 0 375 374.999991" height="500" preserveAspectRatio="xMidYMid meet" version="1.0"><defs><g/></defs><path stroke-linecap="butt" transform="matrix(0.733855, 0, 0, 0.733855, 53.855857, 30.921912)" fill="none" stroke-linejoin="miter" d="M 100.916702 154.449782 C 108.975602 154.449782 116.768357 154.449782 124.294965 154.449782 C 131.821573 154.449782 139.438671 154.449782 147.140935 154.449782 C 147.497571 145.448725 147.699842 136.096356 147.758394 126.392674 C 147.880821 116.688991 148.056478 107.783747 148.290686 99.666295 C 148.524895 91.548842 148.966697 85.315704 149.61077 80.961555 C 155.551148 76.31997 162.375131 73.174124 170.077396 71.524019 C 177.784983 69.820685 185.577737 69.586476 193.455658 70.821394 C 201.338902 71.997759 208.631302 74.584698 215.332857 78.58221 C 222.098288 82.579723 227.564927 87.93458 231.743418 94.636136 C 235.916587 101.284462 238.003172 109.194321 238.003172 118.365711 C 238.003172 123.129724 238.003172 129.836602 238.003172 138.481024 C 238.003172 147.066893 238.003172 156.946232 238.003172 168.11904 C 238.003172 179.233296 238.003172 191.14599 238.003172 203.846476 C 238.003172 216.552284 237.94462 229.460364 237.827515 242.576038 C 237.768963 255.627837 237.742349 268.243156 237.742349 280.416673 C 237.742349 284.595165 237.683797 289.210136 237.561369 294.26691 C 237.502817 299.329006 237.327161 303.236029 237.0344 306.003947 C 235.272514 307.94149 232.004241 309.767251 227.240228 311.470585 C 222.540091 313.115368 217.009577 314.291733 210.659334 314.999681 C 204.309091 315.707629 197.751254 315.824734 190.985824 315.350994 C 184.284268 314.882577 177.87015 313.440066 171.754115 311.028783 C 165.638081 308.617501 160.522755 305.120342 156.408138 300.531986 C 152.346751 295.943629 149.850301 290.061803 148.908145 282.886508 C 148.375853 279.655495 147.997925 275.74315 147.758394 271.154793 C 147.524186 266.571759 147.321915 261.749194 147.140935 256.687098 C 147.023831 251.630324 146.906727 246.956801 146.789623 242.661205 C 146.731071 238.312379 146.704456 234.841836 146.704456 232.254897 C 138.996869 232.254897 131.56075 232.254897 124.385454 232.254897 C 117.268711 232.254897 109.683551 232.254897 101.624651 232.254897 C 101.624651 243.954674 101.624651 256.069639 101.624651 268.599792 C 101.624651 281.124621 101.624651 293.649451 101.624651 306.179603 C 99.389024 308.117146 95.774762 310.028074 90.771218 311.912388 C 85.831548 313.732826 80.098764 315.026296 73.572865 315.792796 C 67.100195 316.617849 60.457191 316.676401 53.633208 315.968452 C 46.814548 315.265827 40.373816 313.354899 34.316333 310.235668 C 28.317403 307.057885 23.287244 302.384362 19.231179 296.209775 C 15.233667 290.035188 12.907551 282.03484 12.263478 272.214054 C 11.965394 267.742802 11.646019 261.099798 11.289383 252.27972 C 10.996623 243.45432 10.671925 233.255606 10.320612 221.66761 C 10.027851 210.079614 9.761705 197.847545 9.527497 184.971403 C 9.293288 172.031386 9.176184 159.298962 9.176184 146.774132 C 9.176184 134.24398 9.234736 122.570817 9.351841 111.749322 C 9.527497 100.869274 9.852195 91.814988 10.320612 84.581141 C 16.787959 79.290159 23.878088 75.521532 31.580353 73.291228 C 39.282617 71.055602 47.016819 70.23055 54.782959 70.821394 C 62.602328 71.348363 69.809561 73.174124 76.394012 76.288032 C 82.983786 79.407263 88.42381 83.638984 92.714083 88.993841 C 97.068231 94.284823 99.564681 100.608451 100.214077 107.959403 C 101.033807 115.017595 101.448994 121.953359 101.448994 128.777341 C 101.448994 135.601324 101.358505 141.392661 101.182848 146.156674 C 101.007192 150.862135 100.916702 153.62473 100.916702 154.449782 Z M 348.054533 118.365711 C 348.879585 123.129724 349.497044 130.070811 349.906909 139.183649 C 350.316774 148.243258 350.556305 158.654889 350.614857 170.413218 C 350.673409 182.118318 350.614857 194.31845 350.433878 207.024258 C 350.316774 219.666192 349.997399 232.196345 349.465107 244.60407 C 348.99669 256.953244 348.437783 268.301708 347.788387 278.654787 C 347.202866 289.007865 346.409751 297.561797 345.409042 304.327227 C 341.411529 308.617501 336.322818 311.736731 330.148232 313.674274 C 323.973645 315.61714 317.383871 316.144109 310.384231 315.265827 C 303.389915 314.382222 296.59787 311.97094 290.008095 308.031979 C 283.423644 304.087696 277.60037 298.472016 272.543597 291.179616 C 267.486823 283.887216 263.92579 274.859545 261.86582 264.096602 C 261.221747 261.041246 260.630903 255.952535 260.103934 248.835791 C 259.635517 241.660496 259.193714 233.223668 258.778527 223.519986 C 258.427214 213.757752 258.161068 203.260954 257.985412 192.029594 C 257.809755 180.792911 257.751203 169.529613 257.809755 158.239701 C 257.92686 146.891237 258.134453 136.069741 258.427214 125.775215 C 258.778527 115.486011 259.310819 106.36785 260.013444 98.431377 C 260.779944 90.489581 261.722101 84.432099 262.839914 80.25893 C 267.305844 76.261417 272.777805 73.232676 279.245152 71.172706 C 285.776374 69.054184 292.653586 68.17058 299.887434 68.527215 C 307.121282 68.819976 314.062369 70.730904 320.705372 74.26 C 327.412251 77.789095 333.203587 83.138629 338.084705 90.313925 C 342.965822 97.430668 346.292647 106.783038 348.054533 118.365711 Z M 348.054533 118.365711 " stroke="#7a0003" stroke-width="13.549988" stroke-opacity="1" stroke-miterlimit="4"/><g fill="#f46064" fill-opacity="1"><g transform="translate(53.855857, 259.884607)"><g><path d="M 74.0625 -115.609375 C 79.957031 -115.609375 85.671875 -115.609375 91.203125 -115.609375 C 96.742188 -115.609375 102.34375 -115.609375 108 -115.609375 C 108.238281 -122.203125 108.382812 -129.0625 108.4375 -136.1875 C 108.5 -143.320312 108.617188 -149.863281 108.796875 -155.8125 C 108.972656 -161.769531 109.300781 -166.335938 109.78125 -169.515625 C 114.132812 -172.941406 119.140625 -175.269531 124.796875 -176.5 C 130.453125 -177.738281 136.164062 -177.914062 141.9375 -177.03125 C 147.71875 -176.144531 153.082031 -174.226562 158.03125 -171.28125 C 162.976562 -168.34375 166.984375 -164.425781 170.046875 -159.53125 C 173.117188 -154.644531 174.65625 -148.84375 174.65625 -142.125 C 174.65625 -138.59375 174.65625 -133.671875 174.65625 -127.359375 C 174.65625 -121.054688 174.65625 -113.804688 174.65625 -105.609375 C 174.65625 -97.421875 174.65625 -88.671875 174.65625 -79.359375 C 174.65625 -70.054688 174.625 -60.601562 174.5625 -51 C 174.5 -41.394531 174.46875 -32.113281 174.46875 -23.15625 C 174.46875 -20.09375 174.4375 -16.703125 174.375 -12.984375 C 174.320312 -9.273438 174.175781 -6.421875 173.9375 -4.421875 C 172.644531 -3.003906 170.257812 -1.675781 166.78125 -0.4375 C 163.300781 0.800781 159.234375 1.679688 154.578125 2.203125 C 149.929688 2.734375 145.128906 2.820312 140.171875 2.46875 C 135.222656 2.113281 130.507812 1.054688 126.03125 -0.703125 C 121.5625 -2.472656 117.820312 -5.035156 114.8125 -8.390625 C 111.8125 -11.753906 109.957031 -16.085938 109.25 -21.390625 C 108.894531 -23.742188 108.628906 -26.597656 108.453125 -29.953125 C 108.273438 -33.316406 108.125 -36.851562 108 -40.5625 C 107.882812 -44.28125 107.796875 -47.726562 107.734375 -50.90625 C 107.679688 -54.09375 107.65625 -56.628906 107.65625 -58.515625 C 102 -58.515625 96.546875 -58.515625 91.296875 -58.515625 C 86.054688 -58.515625 80.488281 -58.515625 74.59375 -58.515625 C 74.59375 -49.910156 74.59375 -41.007812 74.59375 -31.8125 C 74.59375 -22.625 74.59375 -13.4375 74.59375 -4.25 C 72.945312 -2.832031 70.296875 -1.445312 66.640625 -0.09375 C 62.984375 1.257812 58.769531 2.234375 54 2.828125 C 49.226562 3.421875 44.335938 3.453125 39.328125 2.921875 C 34.316406 2.390625 29.601562 0.976562 25.1875 -1.3125 C 20.769531 -3.613281 17.085938 -7.035156 14.140625 -11.578125 C 11.191406 -16.117188 9.484375 -21.984375 9.015625 -29.171875 C 8.773438 -32.460938 8.535156 -37.347656 8.296875 -43.828125 C 8.066406 -50.316406 7.832031 -57.800781 7.59375 -66.28125 C 7.363281 -74.769531 7.160156 -83.757812 6.984375 -93.25 C 6.804688 -102.738281 6.71875 -112.078125 6.71875 -121.265625 C 6.71875 -130.453125 6.773438 -139.023438 6.890625 -146.984375 C 7.015625 -154.941406 7.25 -161.570312 7.59375 -166.875 C 12.3125 -170.757812 17.5 -173.523438 23.15625 -175.171875 C 28.8125 -176.828125 34.492188 -177.445312 40.203125 -177.03125 C 45.921875 -176.625 51.195312 -175.269531 56.03125 -172.96875 C 60.863281 -170.664062 64.867188 -167.570312 68.046875 -163.6875 C 71.234375 -159.800781 73.0625 -155.144531 73.53125 -149.71875 C 74.125 -144.539062 74.421875 -139.445312 74.421875 -134.4375 C 74.421875 -129.425781 74.359375 -125.179688 74.234375 -121.703125 C 74.117188 -118.222656 74.0625 -116.191406 74.0625 -115.609375 Z M 74.0625 -115.609375 "/></g></g></g><g fill="#f46064" fill-opacity="1"><g transform="translate(236.64209, 259.884607)"><g><path d="M 72.65625 -142.125 C 73.238281 -138.59375 73.675781 -133.492188 73.96875 -126.828125 C 74.269531 -120.171875 74.445312 -112.539062 74.5 -103.9375 C 74.5625 -95.332031 74.535156 -86.375 74.421875 -77.0625 C 74.304688 -67.757812 74.070312 -58.570312 73.71875 -49.5 C 73.363281 -40.425781 72.945312 -32.085938 72.46875 -24.484375 C 72 -16.878906 71.410156 -10.601562 70.703125 -5.65625 C 67.765625 -2.476562 64.023438 -0.179688 59.484375 1.234375 C 54.941406 2.648438 50.109375 3.035156 44.984375 2.390625 C 39.859375 1.742188 34.878906 -0.0195312 30.046875 -2.90625 C 25.210938 -5.800781 20.941406 -9.925781 17.234375 -15.28125 C 13.523438 -20.644531 10.90625 -27.273438 9.375 -35.171875 C 8.894531 -37.410156 8.476562 -41.148438 8.125 -46.390625 C 7.769531 -51.640625 7.445312 -57.828125 7.15625 -64.953125 C 6.863281 -72.085938 6.65625 -79.78125 6.53125 -88.03125 C 6.414062 -96.28125 6.390625 -104.554688 6.453125 -112.859375 C 6.515625 -121.171875 6.660156 -129.097656 6.890625 -136.640625 C 7.128906 -144.179688 7.515625 -150.867188 8.046875 -156.703125 C 8.578125 -162.535156 9.253906 -166.984375 10.078125 -170.046875 C 13.378906 -172.992188 17.414062 -175.234375 22.1875 -176.765625 C 26.957031 -178.296875 31.992188 -178.941406 37.296875 -178.703125 C 42.597656 -178.472656 47.691406 -177.0625 52.578125 -174.46875 C 57.472656 -171.875 61.71875 -167.953125 65.3125 -162.703125 C 68.90625 -157.460938 71.351562 -150.601562 72.65625 -142.125 Z M 72.65625 -142.125 "/></g></g></g></svg>