<svg xmlns="http://www.w3.org/2000/svg" xmlns:xlink="http://www.w3.org/1999/xlink" width="500" zoomAndPan="magnify" viewBox="0 0 375 374.999991" height="500" preserveAspectRatio="xMidYMid meet" version="1.0"><defs><g/></defs><path stroke-linecap="butt" transform="matrix(0.75, 0, 0, 0.75, 10.748443, 32.821521)" fill="none" stroke-linejoin="miter" d="M 91.668748 140.883814 C 98.991666 140.883814 106.069791 140.883814 112.908333 140.883814 C 119.741667 140.883814 126.663542 140.883814 133.658335 140.883814 C 133.981251 132.711939 134.168751 124.217146 134.220835 115.404646 C 134.33021 106.586937 134.48646 98.493186 134.700001 91.123394 C 134.913543 83.748394 135.314585 78.086935 135.903126 74.13381 C 141.29896 69.915059 147.496877 67.055684 154.491669 65.560892 C 161.49167 64.008809 168.569795 63.795267 175.731254 64.920267 C 182.887504 65.987976 189.512505 68.336934 195.601047 71.972351 C 201.746881 75.60256 206.715631 80.467143 210.507298 86.555686 C 214.298965 92.592144 216.194798 99.774436 216.194798 108.112979 C 216.194798 112.435896 216.194798 118.529646 216.194798 126.378605 C 216.194798 134.180689 216.194798 143.154648 216.194798 153.30569 C 216.194798 163.399441 216.194798 174.21715 216.194798 185.758817 C 216.194798 197.295276 216.142715 209.024444 216.03334 220.935903 C 215.981257 232.795278 215.955215 244.253613 215.955215 255.310905 C 215.955215 259.10778 215.903132 263.300489 215.793757 267.894239 C 215.741673 272.487989 215.580215 276.040073 215.31459 278.55049 C 213.710423 280.316115 210.746881 281.972365 206.418756 283.51924 C 202.147922 285.014032 197.12188 286.08174 191.356255 286.722365 C 185.585421 287.36299 179.627088 287.472365 173.486462 287.045282 C 167.39792 286.618199 161.575003 285.310907 156.017711 283.118198 C 150.460419 280.930698 145.814585 277.748406 142.075002 273.581739 C 138.387502 269.415073 136.116668 264.071322 135.262501 257.555697 C 134.783335 254.618197 134.434376 251.066113 134.220835 246.899446 C 134.007293 242.732779 133.819793 238.35257 133.658335 233.75882 C 133.554168 229.16507 133.444793 224.91507 133.340626 221.014028 C 133.288543 217.060902 133.257293 213.909861 133.257293 211.560902 C 126.262501 211.560902 119.502084 211.560902 112.986458 211.560902 C 106.522916 211.560902 99.632291 211.560902 92.309374 211.560902 C 92.309374 222.191111 92.309374 233.19632 92.309374 244.576529 C 92.309374 255.95153 92.309374 267.331739 92.309374 278.711948 C 90.283332 280.472365 86.996873 282.211948 82.455206 283.920282 C 77.970831 285.576532 72.757289 286.753615 66.830205 287.446324 C 60.955205 288.191115 54.918746 288.248407 48.720829 287.607782 C 42.522912 286.967157 36.673953 285.227574 31.168745 282.399448 C 25.720827 279.514032 21.153119 275.264031 17.470827 269.654656 C 13.83541 264.045281 11.726035 256.779655 11.137493 247.862988 C 10.871868 243.800488 10.574993 237.764029 10.257285 229.748403 C 9.99166 221.737986 9.694785 212.467152 9.377076 201.946318 C 9.106243 191.420276 8.86666 180.3109 8.653118 168.607774 C 8.439576 156.857773 8.33541 145.290064 8.33541 133.915064 C 8.33541 122.534855 8.387493 111.930687 8.49166 102.102562 C 8.653118 92.217144 8.949993 83.993185 9.377076 77.420268 C 15.252077 72.612976 21.689577 69.191101 28.689578 67.165059 C 35.68437 65.133809 42.710412 64.383809 49.762496 64.920267 C 56.866663 65.399434 63.413538 67.055684 69.392705 69.889018 C 75.377081 72.717143 80.319789 76.566102 84.220831 81.425477 C 88.173957 86.232769 90.439582 91.977561 91.028123 98.654645 C 91.778123 105.066103 92.153124 111.368187 92.153124 117.566104 C 92.153124 123.764021 92.06979 129.024438 91.91354 133.352564 C 91.752082 137.623397 91.668748 140.139022 91.668748 140.883814 Z M 347.252099 60.831726 C 362.15835 60.670267 375.163559 62.357767 386.278143 65.878601 C 397.439602 69.352559 406.950019 73.868185 414.804186 79.425477 C 422.710437 84.97756 429.252104 90.883811 434.434396 97.133811 C 439.616688 103.383812 443.70523 109.336937 446.694813 115.003604 C 449.689605 120.612979 451.851064 125.149438 453.184397 128.623397 C 458.262523 142.618189 461.278148 156.748398 462.241689 171.014024 C 463.205231 185.222359 461.491689 199.540068 457.111481 213.967152 C 445.147938 252.321321 419.689603 276.092156 380.746892 285.279657 C 364.986475 289.076532 349.444807 290.274449 334.111473 288.889032 C 318.778138 287.498407 303.819804 283.040073 289.23647 275.503615 C 275.403136 268.347364 264.340635 259.050489 256.064593 247.618196 C 247.835425 236.13382 242.064592 222.883819 238.752091 207.873402 C 236.564591 198.368193 235.283341 188.670276 234.908341 178.784858 C 234.533341 168.852566 235.095841 159.206732 236.590633 149.857773 C 238.137508 140.508814 240.679175 132.123397 244.200008 124.696313 C 247.673967 116.951521 252.189592 109.336937 257.746884 101.85777 C 263.298968 94.326519 270.163552 87.461936 278.340636 81.264019 C 286.512511 75.07131 296.288554 70.128601 307.668763 66.441101 C 319.043763 62.701517 332.241681 60.831726 347.252099 60.831726 Z M 348.37189 139.123397 C 342.976057 139.123397 337.981265 140.618189 333.387514 143.607773 C 328.793764 146.602564 325.163555 151.060898 322.49168 156.99319 C 319.871888 162.868191 318.856263 170.185899 319.444805 178.946317 C 320.033347 187.441109 321.955222 194.170276 325.215639 199.139026 C 328.528139 204.055693 332.403139 207.581735 336.835431 209.717152 C 341.319807 211.852569 345.460432 212.764027 349.257307 212.44111 C 353.153141 212.175485 357.106266 210.920277 361.116683 208.675485 C 365.173975 206.37861 368.621892 202.748401 371.450017 197.779651 C 374.28335 192.810901 375.913559 186.237984 376.340642 178.066108 C 376.929184 169.784858 375.9396 162.758816 373.3771 156.99319 C 370.866683 151.222356 367.366683 146.816106 362.8771 143.769231 C 358.444808 140.670272 353.611474 139.123397 348.37189 139.123397 Z M 348.37189 139.123397 " stroke="#804d00" stroke-width="12.308513" stroke-opacity="1" stroke-miterlimit="4"/><g fill="#ffbd59" fill-opacity="1"><g transform="translate(10.748443, 245.821507)"><g><path d="M 68.765625 -107.328125 C 74.234375 -107.328125 79.535156 -107.328125 84.671875 -107.328125 C 89.816406 -107.328125 95.019531 -107.328125 100.28125 -107.328125 C 100.5 -113.453125 100.632812 -119.820312 100.6875 -126.4375 C 100.738281 -133.0625 100.847656 -139.132812 101.015625 -144.65625 C 101.179688 -150.1875 101.484375 -154.429688 101.921875 -157.390625 C 105.960938 -160.554688 110.609375 -162.710938 115.859375 -163.859375 C 121.117188 -165.015625 126.425781 -165.179688 131.78125 -164.359375 C 137.144531 -163.535156 142.125 -161.753906 146.71875 -159.015625 C 151.3125 -156.285156 155.03125 -152.648438 157.875 -148.109375 C 160.71875 -143.566406 162.140625 -138.179688 162.140625 -131.953125 C 162.140625 -128.671875 162.140625 -124.101562 162.140625 -118.25 C 162.140625 -112.394531 162.140625 -105.664062 162.140625 -98.0625 C 162.140625 -90.457031 162.140625 -82.332031 162.140625 -73.6875 C 162.140625 -65.039062 162.113281 -56.257812 162.0625 -47.34375 C 162.007812 -38.425781 161.984375 -29.8125 161.984375 -21.5 C 161.984375 -18.65625 161.953125 -15.507812 161.890625 -12.0625 C 161.835938 -8.613281 161.703125 -5.960938 161.484375 -4.109375 C 160.285156 -2.796875 158.070312 -1.5625 154.84375 -0.40625 C 151.613281 0.738281 147.835938 1.554688 143.515625 2.046875 C 139.191406 2.546875 134.734375 2.628906 130.140625 2.296875 C 125.546875 1.972656 121.171875 0.988281 117.015625 -0.65625 C 112.859375 -2.300781 109.382812 -4.679688 106.59375 -7.796875 C 103.800781 -10.910156 102.078125 -14.929688 101.421875 -19.859375 C 101.097656 -22.046875 100.851562 -24.695312 100.6875 -27.8125 C 100.519531 -30.9375 100.378906 -34.21875 100.265625 -37.65625 C 100.160156 -41.101562 100.082031 -44.304688 100.03125 -47.265625 C 99.976562 -50.222656 99.953125 -52.578125 99.953125 -54.328125 C 94.691406 -54.328125 89.628906 -54.328125 84.765625 -54.328125 C 79.898438 -54.328125 74.726562 -54.328125 69.25 -54.328125 C 69.25 -46.335938 69.25 -38.070312 69.25 -29.53125 C 69.25 -21 69.25 -12.46875 69.25 -3.9375 C 67.71875 -2.625 65.253906 -1.335938 61.859375 -0.078125 C 58.472656 1.179688 54.5625 2.082031 50.125 2.625 C 45.695312 3.175781 41.160156 3.203125 36.515625 2.703125 C 31.867188 2.210938 27.492188 0.898438 23.390625 -1.234375 C 19.285156 -3.367188 15.863281 -6.539062 13.125 -10.75 C 10.394531 -14.957031 8.8125 -20.398438 8.375 -27.078125 C 8.15625 -30.140625 7.9375 -34.679688 7.71875 -40.703125 C 7.5 -46.722656 7.28125 -53.671875 7.0625 -61.546875 C 6.84375 -69.421875 6.648438 -77.757812 6.484375 -86.5625 C 6.316406 -95.375 6.234375 -104.046875 6.234375 -112.578125 C 6.234375 -121.117188 6.285156 -129.078125 6.390625 -136.453125 C 6.503906 -143.835938 6.726562 -149.992188 7.0625 -154.921875 C 11.4375 -158.535156 16.25 -161.109375 21.5 -162.640625 C 26.75 -164.171875 32.023438 -164.742188 37.328125 -164.359375 C 42.640625 -163.972656 47.535156 -162.710938 52.015625 -160.578125 C 56.503906 -158.453125 60.222656 -155.582031 63.171875 -151.96875 C 66.128906 -148.351562 67.828125 -144.03125 68.265625 -139 C 68.816406 -134.1875 69.09375 -129.453125 69.09375 -124.796875 C 69.09375 -120.148438 69.035156 -116.210938 68.921875 -112.984375 C 68.816406 -109.765625 68.765625 -107.878906 68.765625 -107.328125 Z M 68.765625 -107.328125 "/></g></g></g><g fill="#ffbd59" fill-opacity="1"><g transform="translate(180.438197, 245.821507)"><g><path d="M 90.75 -167.390625 C 101.914062 -167.503906 111.679688 -166.25 120.046875 -163.625 C 128.421875 -161 135.5625 -157.601562 141.46875 -153.4375 C 147.375 -149.28125 152.269531 -144.847656 156.15625 -140.140625 C 160.039062 -135.441406 163.101562 -130.984375 165.34375 -126.765625 C 167.582031 -122.554688 169.195312 -119.140625 170.1875 -116.515625 C 174.019531 -106.015625 176.289062 -95.429688 177 -84.765625 C 177.707031 -74.097656 176.421875 -63.347656 173.140625 -52.515625 C 164.171875 -23.742188 145.078125 -5.910156 115.859375 0.984375 C 104.046875 3.828125 92.394531 4.726562 80.90625 3.6875 C 69.414062 2.65625 58.203125 -0.707031 47.265625 -6.40625 C 36.867188 -11.757812 28.578125 -18.726562 22.390625 -27.3125 C 16.210938 -35.90625 11.867188 -45.835938 9.359375 -57.109375 C 7.710938 -64.222656 6.753906 -71.5 6.484375 -78.9375 C 6.210938 -86.375 6.648438 -93.59375 7.796875 -100.59375 C 8.941406 -107.601562 10.828125 -113.894531 13.453125 -119.46875 C 16.078125 -125.269531 19.46875 -130.988281 23.625 -136.625 C 27.789062 -142.257812 32.9375 -147.398438 39.0625 -152.046875 C 45.1875 -156.703125 52.515625 -160.421875 61.046875 -163.203125 C 69.578125 -165.992188 79.476562 -167.390625 90.75 -167.390625 Z M 91.578125 -108.640625 C 87.523438 -108.640625 83.773438 -107.519531 80.328125 -105.28125 C 76.890625 -103.039062 74.179688 -99.703125 72.203125 -95.265625 C 70.234375 -90.835938 69.46875 -85.34375 69.90625 -78.78125 C 70.34375 -72.425781 71.789062 -67.390625 74.25 -63.671875 C 76.71875 -59.953125 79.617188 -57.300781 82.953125 -55.71875 C 86.296875 -54.132812 89.390625 -53.453125 92.234375 -53.671875 C 95.179688 -53.890625 98.160156 -54.84375 101.171875 -56.53125 C 104.179688 -58.226562 106.753906 -60.9375 108.890625 -64.65625 C 111.023438 -68.375 112.253906 -73.300781 112.578125 -79.4375 C 113.015625 -85.664062 112.273438 -90.941406 110.359375 -95.265625 C 108.453125 -99.585938 105.828125 -102.894531 102.484375 -105.1875 C 99.148438 -107.488281 95.515625 -108.640625 91.578125 -108.640625 Z M 91.578125 -108.640625 "/></g></g></g></svg>