<svg xmlns="http://www.w3.org/2000/svg" xmlns:xlink="http://www.w3.org/1999/xlink" width="500" zoomAndPan="magnify" viewBox="0 0 375 374.999991" height="500" preserveAspectRatio="xMidYMid meet" version="1.0"><defs><g/></defs><path stroke-linecap="butt" transform="matrix(0.75, 0, 0, 0.75, 5.165627, 31.721717)" fill="none" stroke-linejoin="miter" d="M 95.768754 146.485637 C 103.414588 146.485637 110.810421 146.485637 117.951047 146.485637 C 125.096881 146.485637 132.32084 146.485637 139.63334 146.485637 C 139.966673 137.949179 140.16459 129.074178 140.221882 119.865844 C 140.331257 110.65751 140.497923 102.204385 140.721882 94.501259 C 140.94584 86.798134 141.362507 80.886675 141.97709 76.756466 C 147.612507 72.345008 154.086466 69.360632 161.398966 67.798132 C 168.711467 66.17834 176.107301 65.954382 183.58126 67.126257 C 191.060427 68.246049 197.982302 70.699174 204.346886 74.496049 C 210.763553 78.287716 215.951053 83.365842 219.914595 89.730425 C 223.878137 96.037717 225.857304 103.542926 225.857304 112.25126 C 225.857304 116.772094 225.857304 123.131469 225.857304 131.334595 C 225.857304 139.485637 225.857304 148.860638 225.857304 159.464805 C 225.857304 170.011681 225.857304 181.313765 225.857304 193.365849 C 225.857304 205.423141 225.805221 217.673142 225.690637 230.115851 C 225.633346 242.506477 225.607304 254.480436 225.607304 266.03252 C 225.607304 269.990854 225.550012 274.376271 225.440637 279.173146 C 225.383346 283.97523 225.216679 287.683563 224.935429 290.308564 C 223.263554 292.147105 220.164595 293.88148 215.643762 295.496064 C 211.18022 297.058564 205.935428 298.178356 199.909386 298.845022 C 193.878135 299.516897 187.659385 299.626272 181.237509 299.183564 C 174.878134 298.735647 168.7948 297.365856 162.987508 295.079397 C 157.185424 292.792939 152.331257 289.470022 148.425007 285.115855 C 144.57084 280.761688 142.201048 275.183563 141.310423 268.37627 C 140.805215 265.303354 140.440632 261.59502 140.221882 257.240853 C 139.997923 252.886686 139.800007 248.313769 139.63334 243.511685 C 139.523965 238.709602 139.409382 234.27731 139.300007 230.199185 C 139.242715 226.068976 139.216673 222.777309 139.216673 220.324184 C 131.904173 220.324184 124.846881 220.324184 118.03438 220.324184 C 111.28438 220.324184 104.081254 220.324184 96.43542 220.324184 C 96.43542 231.428351 96.43542 242.923144 96.43542 254.81377 C 96.43542 266.699187 96.43542 278.589813 96.43542 290.47523 C 94.315629 292.31898 90.883337 294.13148 86.138545 295.917939 C 81.451045 297.647106 76.013544 298.876272 69.815627 299.600231 C 63.68021 300.381481 57.372918 300.438773 50.898959 299.766898 C 44.425 299.095022 38.310417 297.282522 32.565625 294.324189 C 26.872916 291.313772 22.102082 286.876272 18.247915 281.016896 C 14.456248 275.157521 12.247915 267.56377 11.63854 258.246061 C 11.35729 254.001269 11.049998 247.699186 10.716665 239.324185 C 10.435415 230.954393 10.128123 221.272101 9.79479 210.277308 C 9.51354 199.282516 9.26354 187.67314 9.039581 175.454389 C 8.815623 163.173139 8.706248 151.089804 8.706248 139.204387 C 8.706248 127.31897 8.76354 116.240844 8.872915 105.97001 C 9.039581 95.647092 9.346873 87.053342 9.79479 80.188758 C 15.935415 75.162716 22.659374 71.589799 29.971874 69.470007 C 37.279167 67.350216 44.617709 66.568966 51.987501 67.126257 C 59.409376 67.631466 66.24271 69.360632 72.497919 72.318966 C 78.747919 75.277299 83.909378 79.292925 87.982295 84.37105 C 92.112504 89.397092 94.482295 95.397092 95.096879 102.371051 C 95.878129 109.068968 96.268754 115.652302 96.268754 122.126261 C 96.268754 128.60022 96.18542 134.10022 96.018754 138.621054 C 95.852087 143.084596 95.768754 145.704387 95.768754 146.485637 Z M 469.758362 218.313767 C 468.086487 232.93356 463.815653 245.522102 456.951069 256.068978 C 450.086485 266.558562 441.544818 275.240854 431.336484 282.105438 C 421.122942 288.91273 410.070858 293.964814 398.18544 297.256481 C 386.294815 300.548148 374.409397 302.193981 362.52398 302.193981 C 352.925021 302.193981 343.294812 301.636689 333.638561 300.522106 C 323.987519 299.459606 314.63856 297.339814 305.596893 294.157522 C 296.612517 290.97523 288.3521 286.345022 280.815641 280.261688 C 273.28439 274.121062 266.919807 266.115854 261.732306 256.235645 C 256.539598 246.303352 252.966681 233.938768 251.013556 219.152309 C 249.008347 205.308558 248.02918 190.240849 248.086472 173.943973 C 248.195847 157.647097 248.925014 141.016887 250.263556 124.053344 C 251.659389 107.03251 253.414597 90.6523 255.534389 74.912716 C 257.211473 73.126258 260.25314 71.480424 264.65939 69.975216 C 269.122932 68.412716 274.372932 67.266882 280.398974 66.542924 C 286.425016 65.761674 292.675017 65.64709 299.148975 66.204382 C 305.622934 66.709591 311.706268 68.105424 317.398977 70.391882 C 323.091685 72.678341 327.919811 75.975216 331.883353 80.272091 C 335.846895 84.511675 338.30002 90.12105 339.247936 97.095009 C 339.529186 99.553343 339.695853 104.266885 339.753145 111.246052 C 339.86252 118.162719 339.919811 126.397094 339.919811 135.938762 C 339.919811 145.428346 340.029186 155.391888 340.253145 165.82418 C 340.477103 176.261681 340.841687 186.225223 341.341687 195.709599 C 341.898978 205.141891 342.711478 213.126267 343.76877 219.652309 C 344.716687 224.678351 346.810437 228.636684 350.05002 231.542935 C 353.341687 234.443977 357.050021 236.006477 361.18023 236.230435 C 365.310438 236.454393 369.107313 235.167935 372.565647 232.376268 C 376.081272 229.532518 378.456272 224.985643 379.685439 218.730434 C 380.742731 213.261683 381.690648 206.121058 382.529189 197.303349 C 383.367731 188.428349 384.008356 178.746056 384.456273 168.251264 C 384.956273 157.704388 385.154189 147.016887 385.039606 136.188762 C 384.982314 125.365844 384.648981 115.121052 384.034398 105.47001 C 383.419814 95.813759 382.445856 87.553342 381.107314 80.688758 C 384.117731 77.62105 388.24794 74.996049 393.49794 72.818966 C 398.800024 70.589799 404.711482 69.053341 411.242733 68.214799 C 417.773983 67.376257 424.357317 67.464799 430.997942 68.464799 C 437.638568 69.417924 443.836485 71.537716 449.581277 74.829383 C 455.388569 78.12105 460.242736 82.80855 464.148986 88.891884 C 468.055237 94.975217 470.456278 102.678343 471.346903 111.996052 C 471.961487 118.246052 472.518779 123.938761 473.023987 129.074178 C 473.581279 134.152303 473.971904 139.31897 474.195862 144.563762 C 474.41982 149.808554 474.445862 155.725221 474.279195 162.308555 C 474.16982 168.839806 473.747945 176.595014 473.023987 185.584598 C 472.352112 194.568974 471.26357 205.480433 469.758362 218.313767 Z M 469.758362 218.313767 " stroke="#006f73" stroke-width="12.858375" stroke-opacity="1" stroke-miterlimit="4"/><g fill="#5ce1e6" fill-opacity="1"><g transform="translate(5.165627, 253.721702)"><g><path d="M 71.84375 -112.125 C 77.550781 -112.125 83.09375 -112.125 88.46875 -112.125 C 93.84375 -112.125 99.269531 -112.125 104.75 -112.125 C 104.976562 -118.53125 105.117188 -125.1875 105.171875 -132.09375 C 105.234375 -139.007812 105.347656 -145.351562 105.515625 -151.125 C 105.691406 -156.90625 106.007812 -161.335938 106.46875 -164.421875 C 110.695312 -167.734375 115.550781 -169.988281 121.03125 -171.1875 C 126.519531 -172.382812 132.066406 -172.554688 137.671875 -171.703125 C 143.273438 -170.847656 148.472656 -168.988281 153.265625 -166.125 C 158.066406 -163.269531 161.953125 -159.46875 164.921875 -154.71875 C 167.898438 -149.976562 169.390625 -144.351562 169.390625 -137.84375 C 169.390625 -134.414062 169.390625 -129.644531 169.390625 -123.53125 C 169.390625 -117.414062 169.390625 -110.382812 169.390625 -102.4375 C 169.390625 -94.5 169.390625 -86.015625 169.390625 -76.984375 C 169.390625 -67.953125 169.359375 -58.773438 169.296875 -49.453125 C 169.242188 -40.140625 169.21875 -31.140625 169.21875 -22.453125 C 169.21875 -19.484375 169.1875 -16.195312 169.125 -12.59375 C 169.070312 -9 168.929688 -6.226562 168.703125 -4.28125 C 167.441406 -2.914062 165.125 -1.628906 161.75 -0.421875 C 158.382812 0.773438 154.441406 1.628906 149.921875 2.140625 C 145.410156 2.660156 140.753906 2.75 135.953125 2.40625 C 131.148438 2.0625 126.578125 1.035156 122.234375 -0.671875 C 117.898438 -2.390625 114.273438 -4.878906 111.359375 -8.140625 C 108.441406 -11.398438 106.640625 -15.601562 105.953125 -20.75 C 105.609375 -23.03125 105.347656 -25.800781 105.171875 -29.0625 C 105.003906 -32.320312 104.863281 -35.75 104.75 -39.34375 C 104.632812 -42.945312 104.546875 -46.289062 104.484375 -49.375 C 104.429688 -52.457031 104.40625 -54.914062 104.40625 -56.75 C 98.925781 -56.75 93.640625 -56.75 88.546875 -56.75 C 83.460938 -56.75 78.0625 -56.75 72.34375 -56.75 C 72.34375 -48.40625 72.34375 -39.773438 72.34375 -30.859375 C 72.34375 -21.941406 72.34375 -13.023438 72.34375 -4.109375 C 70.75 -2.742188 68.179688 -1.398438 64.640625 -0.078125 C 61.097656 1.234375 57.007812 2.171875 52.375 2.734375 C 47.75 3.304688 43.003906 3.335938 38.140625 2.828125 C 33.285156 2.316406 28.710938 0.945312 24.421875 -1.28125 C 20.140625 -3.507812 16.566406 -6.820312 13.703125 -11.21875 C 10.847656 -15.625 9.195312 -21.3125 8.75 -28.28125 C 8.519531 -31.488281 8.289062 -36.234375 8.0625 -42.515625 C 7.832031 -48.804688 7.601562 -56.066406 7.375 -64.296875 C 7.144531 -72.523438 6.941406 -81.238281 6.765625 -90.4375 C 6.597656 -99.632812 6.515625 -108.691406 6.515625 -117.609375 C 6.515625 -126.523438 6.570312 -134.835938 6.6875 -142.546875 C 6.800781 -150.265625 7.03125 -156.695312 7.375 -161.84375 C 11.945312 -165.613281 16.972656 -168.300781 22.453125 -169.90625 C 27.941406 -171.507812 33.457031 -172.109375 39 -171.703125 C 44.539062 -171.304688 49.65625 -169.992188 54.34375 -167.765625 C 59.03125 -165.535156 62.914062 -162.535156 66 -158.765625 C 69.09375 -154.992188 70.867188 -150.476562 71.328125 -145.21875 C 71.890625 -140.1875 72.171875 -135.238281 72.171875 -130.375 C 72.171875 -125.519531 72.113281 -121.40625 72 -118.03125 C 71.894531 -114.664062 71.84375 -112.695312 71.84375 -112.125 Z M 71.84375 -112.125 "/></g></g></g><g fill="#5ce1e6" fill-opacity="1"><g transform="translate(182.439778, 253.721702)"><g><path d="M 175.046875 -58.296875 C 173.785156 -47.316406 170.582031 -37.882812 165.4375 -30 C 160.300781 -22.113281 153.90625 -15.597656 146.25 -10.453125 C 138.59375 -5.316406 130.304688 -1.519531 121.390625 0.9375 C 112.472656 3.394531 103.554688 4.625 94.640625 4.625 C 87.441406 4.625 80.210938 4.222656 72.953125 3.421875 C 65.691406 2.628906 58.6875 1.035156 51.9375 -1.359375 C 45.195312 -3.765625 39 -7.253906 33.34375 -11.828125 C 27.6875 -16.398438 22.914062 -22.398438 19.03125 -29.828125 C 15.144531 -37.253906 12.457031 -46.515625 10.96875 -57.609375 C 9.488281 -68.003906 8.773438 -79.316406 8.828125 -91.546875 C 8.890625 -103.773438 9.429688 -116.257812 10.453125 -129 C 11.484375 -141.75 12.800781 -154.015625 14.40625 -165.796875 C 15.65625 -167.160156 17.9375 -168.414062 21.25 -169.5625 C 24.570312 -170.707031 28.488281 -171.5625 33 -172.125 C 37.519531 -172.695312 42.207031 -172.785156 47.0625 -172.390625 C 51.914062 -171.992188 56.484375 -170.9375 60.765625 -169.21875 C 65.054688 -167.5 68.6875 -165.039062 71.65625 -161.84375 C 74.632812 -158.644531 76.46875 -154.414062 77.15625 -149.15625 C 77.382812 -147.332031 77.523438 -143.816406 77.578125 -138.609375 C 77.640625 -133.410156 77.671875 -127.238281 77.671875 -120.09375 C 77.671875 -112.957031 77.753906 -105.472656 77.921875 -97.640625 C 78.097656 -89.804688 78.382812 -82.347656 78.78125 -75.265625 C 79.175781 -68.179688 79.773438 -62.179688 80.578125 -57.265625 C 81.265625 -53.492188 82.835938 -50.519531 85.296875 -48.34375 C 87.753906 -46.175781 90.523438 -45.003906 93.609375 -44.828125 C 96.691406 -44.660156 99.546875 -45.632812 102.171875 -47.75 C 104.804688 -49.863281 106.582031 -53.265625 107.5 -57.953125 C 108.300781 -62.066406 109.015625 -67.4375 109.640625 -74.0625 C 110.265625 -80.695312 110.75 -87.957031 111.09375 -95.84375 C 111.4375 -103.726562 111.578125 -111.726562 111.515625 -119.84375 C 111.460938 -127.957031 111.207031 -135.640625 110.75 -142.890625 C 110.289062 -150.148438 109.550781 -156.351562 108.53125 -161.5 C 110.8125 -163.789062 113.921875 -165.765625 117.859375 -167.421875 C 121.804688 -169.078125 126.238281 -170.21875 131.15625 -170.84375 C 136.070312 -171.476562 141.015625 -171.421875 145.984375 -170.671875 C 150.960938 -169.929688 155.617188 -168.332031 159.953125 -165.875 C 164.296875 -163.414062 167.925781 -159.898438 170.84375 -155.328125 C 173.757812 -150.753906 175.5625 -144.984375 176.25 -138.015625 C 176.707031 -133.328125 177.132812 -129.066406 177.53125 -125.234375 C 177.9375 -121.410156 178.222656 -117.523438 178.390625 -113.578125 C 178.566406 -109.640625 178.597656 -105.210938 178.484375 -100.296875 C 178.367188 -95.378906 178.050781 -89.546875 177.53125 -82.796875 C 177.019531 -76.054688 176.191406 -67.890625 175.046875 -58.296875 Z M 175.046875 -58.296875 "/></g></g></g></svg>