<svg xmlns="http://www.w3.org/2000/svg" xmlns:xlink="http://www.w3.org/1999/xlink" width="500" zoomAndPan="magnify" viewBox="0 0 375 374.999991" height="500" preserveAspectRatio="xMidYMid meet" version="1.0"><defs><g/></defs><path stroke-linecap="butt" transform="matrix(0.75, 0, 0, 0.75, 16.216225, 23.352155)" fill="none" stroke-linejoin="miter" d="M 160.638794 311.296106 C 152.170044 311.764856 143.55546 312.030481 134.795042 312.087772 C 126.029417 312.207564 117.946083 312.176314 110.534624 311.999231 C 103.180457 311.822147 97.242957 311.676314 92.711706 311.556522 C 88.242956 311.384647 86.008581 311.296106 86.008581 311.296106 C 79.716914 311.296106 72.836705 310.764855 65.367955 309.707564 C 57.899204 308.650272 50.633579 306.353397 43.576286 302.827355 C 36.518994 299.296105 30.373161 294.061729 25.138785 287.124229 C 19.96691 280.124228 16.49816 270.74402 14.732535 258.983602 C 13.732535 252.280477 12.821076 243.780476 11.998159 233.488809 C 11.232534 223.197141 10.643993 211.848182 10.232534 199.436723 C 9.821076 186.967972 9.701284 174.00443 9.878368 160.535679 C 10.055451 147.009636 10.586701 133.598177 11.466909 120.30651 C 12.352326 106.95755 13.732535 94.342966 15.612743 82.462757 C 20.143993 78.405465 25.701285 75.316923 32.284619 73.20234 C 38.873161 71.025256 45.841912 70.113798 53.196079 70.467965 C 60.602329 70.759631 67.659621 72.67109 74.367955 76.20234 C 81.128372 79.728382 86.920039 85.108591 91.742956 92.342966 C 96.565873 99.577342 99.623165 109.134634 100.92004 121.014843 C 101.742957 128.072135 102.300249 136.217969 102.591915 145.447136 C 102.946082 154.681512 103.180457 164.270054 103.300249 174.207555 C 103.477332 184.145055 103.508582 193.822139 103.38879 203.22839 C 103.331499 212.639849 103.154415 221.1086 102.85754 228.634642 C 108.326291 228.165892 114.972124 227.900267 122.795042 227.842975 C 130.675251 227.723183 139.144001 227.754433 148.201293 227.931517 C 157.315877 228.1086 166.519003 228.520058 175.81067 229.165892 C 185.164837 229.811725 194.076296 230.6086 202.539839 231.5461 C 207.362756 240.723184 209.539839 249.89506 209.071089 259.072144 C 208.602339 268.186728 206.102339 276.598187 201.571089 284.301312 C 197.102338 292.004438 191.279421 298.327355 184.107546 303.264855 C 176.987754 308.150272 169.170045 310.822147 160.638794 311.296106 Z M 221.617965 239.223184 C 223.560673 229.57735 226.086715 218.785683 229.206507 206.848182 C 232.321091 194.910681 235.852341 182.645055 239.789841 170.061721 C 243.73255 157.415887 247.73255 145.212761 251.789842 133.452344 C 255.904425 121.629426 259.935676 110.811717 263.873176 100.9888 C 267.815885 91.165883 271.315885 83.285674 274.373177 77.348173 C 280.95651 75.113798 288.810678 73.056507 297.925262 71.17109 C 307.102345 69.23359 316.831513 68.145048 327.12318 67.910673 C 337.414847 67.613798 347.617973 68.936715 357.737765 71.879423 C 367.852349 74.759632 377.144017 79.905465 385.612767 87.316924 C 394.138809 94.665883 401.13881 105.014842 406.60756 118.36901 C 409.196102 124.77526 412.164852 133.009635 415.519019 143.066928 C 418.867978 153.066928 422.399228 164.181513 426.102353 176.41068 C 429.805478 188.587764 433.42527 201.145057 436.951312 214.082557 C 440.482563 227.020058 443.716938 239.634642 446.654438 251.92631 C 449.654438 264.217977 452.039855 275.421103 453.800272 285.535687 C 453.331522 289.827354 451.097147 294.124229 447.097146 298.415896 C 443.097146 302.650272 437.982562 306.264855 431.748187 309.264855 C 425.571103 312.207564 418.899228 314.145064 411.722144 315.087772 C 404.60756 316.087772 397.519018 315.530481 390.461726 313.410689 C 383.404434 311.353397 377.024225 307.264855 371.3211 301.150272 C 365.617974 295.035688 361.175266 286.535687 357.998182 275.655478 C 350.414848 275.301311 342.534639 275.21277 334.357556 275.389853 C 326.18568 275.566937 318.242971 275.566937 310.539846 275.389853 C 308.425262 280.389853 306.425262 285.858604 304.539845 291.796104 C 302.716928 297.738813 300.925262 303.827355 299.159637 310.06173 C 284.399219 315.530481 271.55026 317.499231 260.612759 315.967981 C 249.73255 314.441939 240.940883 310.233605 234.232549 303.353397 C 227.586715 296.415896 223.175257 287.415896 221.003381 276.358603 C 218.826298 265.244019 219.029423 252.86381 221.617965 239.223184 Z M 319.888805 206.494015 C 325.008597 206.494015 329.977347 206.494015 334.800264 206.494015 C 339.623181 206.494015 344.53464 206.494015 349.529432 206.494015 C 347.295056 196.671098 344.97214 186.999222 342.560681 177.47318 C 340.149223 167.884638 337.826306 158.301304 335.591931 148.712762 C 335.065889 148.832553 334.331514 148.889845 333.388805 148.889845 C 331.269014 158.358595 329.034639 167.858596 326.68568 177.384638 C 324.388805 186.853389 322.128388 196.556515 319.888805 206.494015 Z M 319.888805 206.494015 " stroke="#0e0069" stroke-width="13.550025" stroke-opacity="1" stroke-miterlimit="4"/><g fill="#7668d2" fill-opacity="1"><g transform="translate(16.216225, 257.35214)"><g><path d="M 120.5 -0.546875 C 114.113281 -0.179688 107.640625 0.03125 101.078125 0.09375 C 94.515625 0.15625 88.460938 0.125 82.921875 0 C 77.378906 -0.125 72.921875 -0.242188 69.546875 -0.359375 C 66.179688 -0.484375 64.5 -0.546875 64.5 -0.546875 C 59.800781 -0.546875 54.648438 -0.9375 49.046875 -1.71875 C 43.453125 -2.5 38.003906 -4.210938 32.703125 -6.859375 C 27.398438 -9.515625 22.789062 -13.460938 18.875 -18.703125 C 14.96875 -23.941406 12.347656 -30.957031 11.015625 -39.75 C 10.296875 -44.800781 9.632812 -51.179688 9.03125 -58.890625 C 8.425781 -66.597656 7.972656 -75.117188 7.671875 -84.453125 C 7.378906 -93.796875 7.289062 -103.523438 7.40625 -113.640625 C 7.53125 -123.753906 7.921875 -133.8125 8.578125 -143.8125 C 9.242188 -153.8125 10.300781 -163.265625 11.75 -172.171875 C 15.113281 -175.179688 19.265625 -177.5 24.203125 -179.125 C 29.140625 -180.75 34.378906 -181.441406 39.921875 -181.203125 C 45.460938 -180.960938 50.757812 -179.515625 55.8125 -176.859375 C 60.875 -174.210938 65.210938 -170.179688 68.828125 -164.765625 C 72.441406 -159.347656 74.734375 -152.179688 75.703125 -143.265625 C 76.304688 -137.960938 76.726562 -131.847656 76.96875 -124.921875 C 77.207031 -118.003906 77.382812 -110.8125 77.5 -103.34375 C 77.625 -95.875 77.65625 -88.613281 77.59375 -81.5625 C 77.53125 -74.519531 77.378906 -68.171875 77.140625 -62.515625 C 81.234375 -62.867188 86.234375 -63.078125 92.140625 -63.140625 C 98.046875 -63.203125 104.398438 -63.171875 111.203125 -63.046875 C 118.003906 -62.929688 124.894531 -62.628906 131.875 -62.140625 C 138.863281 -61.660156 145.550781 -61.0625 151.9375 -60.34375 C 155.550781 -53.476562 157.175781 -46.613281 156.8125 -39.75 C 156.457031 -32.882812 154.59375 -26.5625 151.21875 -20.78125 C 147.84375 -15 143.472656 -10.269531 138.109375 -6.59375 C 132.753906 -2.914062 126.882812 -0.898438 120.5 -0.546875 Z M 120.5 -0.546875 "/></g></g></g><g fill="#7668d2" fill-opacity="1"><g transform="translate(179.718067, 257.35214)"><g><path d="M 2.703125 -54.5625 C 4.148438 -61.789062 6.046875 -69.890625 8.390625 -78.859375 C 10.742188 -87.835938 13.394531 -97.050781 16.34375 -106.5 C 19.300781 -115.957031 22.3125 -125.113281 25.375 -133.96875 C 28.445312 -142.820312 31.457031 -150.921875 34.40625 -158.265625 C 37.363281 -165.609375 39.988281 -171.507812 42.28125 -175.96875 C 47.21875 -177.65625 53.117188 -179.21875 59.984375 -180.65625 C 66.847656 -182.101562 74.132812 -182.914062 81.84375 -183.09375 C 89.550781 -183.28125 97.195312 -182.289062 104.78125 -180.125 C 112.375 -177.957031 119.359375 -174.101562 125.734375 -168.5625 C 132.117188 -163.019531 137.363281 -155.25 141.46875 -145.25 C 143.394531 -140.4375 145.617188 -134.265625 148.140625 -126.734375 C 150.671875 -119.210938 153.320312 -110.875 156.09375 -101.71875 C 158.863281 -92.5625 161.570312 -83.132812 164.21875 -73.4375 C 166.875 -63.738281 169.316406 -54.28125 171.546875 -45.0625 C 173.773438 -35.851562 175.550781 -27.457031 176.875 -19.875 C 176.507812 -16.625 174.820312 -13.398438 171.8125 -10.203125 C 168.800781 -7.015625 164.976562 -4.304688 160.34375 -2.078125 C 155.707031 0.148438 150.707031 1.625 145.34375 2.34375 C 139.988281 3.070312 134.660156 2.648438 129.359375 1.078125 C 124.054688 -0.484375 119.265625 -3.550781 114.984375 -8.125 C 110.710938 -12.707031 107.375 -19.09375 104.96875 -27.28125 C 99.300781 -27.519531 93.394531 -27.578125 87.25 -27.453125 C 81.113281 -27.335938 75.15625 -27.34375 69.375 -27.46875 C 67.8125 -23.726562 66.335938 -19.628906 64.953125 -15.171875 C 63.566406 -10.710938 62.210938 -6.140625 60.890625 -1.453125 C 49.804688 2.648438 40.164062 4.128906 31.96875 2.984375 C 23.78125 1.835938 17.1875 -1.320312 12.1875 -6.5 C 7.195312 -11.675781 3.882812 -18.421875 2.25 -26.734375 C 0.625 -35.046875 0.773438 -44.320312 2.703125 -54.5625 Z M 76.421875 -79.125 C 80.273438 -79.125 84.007812 -79.125 87.625 -79.125 C 91.238281 -79.125 94.910156 -79.125 98.640625 -79.125 C 96.953125 -86.476562 95.203125 -93.738281 93.390625 -100.90625 C 91.585938 -108.070312 89.847656 -115.265625 88.171875 -122.484375 C 87.804688 -122.367188 87.265625 -122.3125 86.546875 -122.3125 C 84.972656 -115.207031 83.3125 -108.097656 81.5625 -100.984375 C 79.820312 -93.878906 78.109375 -86.59375 76.421875 -79.125 Z M 76.421875 -79.125 "/></g></g></g></svg>