<svg xmlns="http://www.w3.org/2000/svg" xmlns:xlink="http://www.w3.org/1999/xlink" width="500" zoomAndPan="magnify" viewBox="0 0 375 374.999991" height="500" preserveAspectRatio="xMidYMid meet" version="1.0"><defs><g/></defs><path stroke-linecap="butt" transform="matrix(0.75, 0, 0, 0.75, 29.685942, 32.07656)" fill="none" stroke-linejoin="miter" d="M 160.637505 311.293773 C 152.173962 311.762523 143.55417 312.028148 134.793753 312.090648 C 126.028127 312.205232 117.944794 312.173982 110.533335 312.002107 C 103.184376 311.825023 97.241667 311.673982 92.715625 311.559398 C 88.246875 311.382315 86.0125 311.293773 86.0125 311.293773 C 79.715624 311.293773 72.835416 310.762523 65.366665 309.705231 C 57.897915 308.64794 50.637497 306.356273 43.580205 302.825023 C 36.522913 299.298981 30.377079 294.064605 25.142704 287.121897 C 19.96562 280.127104 16.49687 270.746896 14.731245 258.98127 C 13.731245 252.278144 12.819787 243.778144 11.99687 233.486476 C 11.231245 223.194809 10.642703 211.84585 10.231245 199.439599 C 9.819786 186.970848 9.705203 174.002097 9.882286 160.533347 C 10.054161 147.007304 10.585411 133.601053 11.46562 120.309386 C 12.351037 106.960426 13.731245 94.345842 15.616662 82.465633 C 20.142704 78.408341 25.699996 75.319799 32.288538 73.200008 C 38.871872 71.022924 45.840622 70.111466 53.194789 70.465632 C 60.606248 70.762507 67.66354 72.673966 74.366666 76.200008 C 81.127083 79.731258 86.923958 85.111467 91.741667 92.345842 C 96.564584 99.575009 99.627084 109.132302 100.918751 121.012511 C 101.741667 128.069803 102.298959 136.215637 102.595834 145.450012 C 102.944793 154.684388 103.184376 164.267722 103.298959 174.205223 C 103.476043 184.147931 103.507293 193.819807 103.387501 203.231266 C 103.330209 212.642725 103.153126 221.106267 102.861459 228.637518 C 108.33021 228.163559 114.976043 227.903143 122.793752 227.840643 C 130.673961 227.726059 139.142712 227.752101 148.200004 227.929184 C 157.319796 228.106268 166.522922 228.517726 175.814589 229.163559 C 185.163548 229.814601 194.075007 230.606268 202.543757 231.548976 C 207.366674 240.720852 209.53855 249.897936 209.0698 259.069811 C 208.601049 268.184395 206.101049 276.595854 201.569799 284.29898 C 197.101049 292.002105 191.278132 298.325022 184.106256 303.267731 C 176.991672 308.14794 169.168755 310.825023 160.637505 311.293773 Z M 231.236468 256.335436 C 230.939593 250.866686 230.705218 243.517727 230.528134 234.283351 C 230.351051 225.048976 230.262509 214.700017 230.262509 203.231266 C 230.262509 191.762515 230.382301 179.882306 230.616676 167.590639 C 230.851051 155.298971 231.173968 143.215637 231.585426 131.335428 C 231.996884 119.455219 232.470843 108.460427 232.996884 98.340634 C 233.585426 88.22605 234.29376 79.78855 235.116676 73.022924 C 243.116677 72.262507 252.845844 71.673966 264.314595 71.262507 C 275.840637 70.851049 288.194805 70.554174 301.366681 70.377091 C 314.538556 70.200007 327.741682 70.262507 340.976058 70.554174 C 354.205226 70.788549 366.731268 71.142716 378.554186 71.611466 C 390.377103 72.085424 400.517729 72.642716 408.986479 73.288549 C 410.460438 75.345841 411.752104 78.554175 412.871896 82.903133 C 413.98648 87.2573 414.575021 92.168759 414.632313 97.637509 C 414.752105 103.106259 414.075021 108.663552 412.606271 114.309385 C 411.194813 119.897927 408.663563 125.101053 405.017729 129.92397 C 401.429187 134.746887 396.460437 138.595845 390.111478 141.481262 C 383.757311 144.361471 375.762519 145.804179 366.116685 145.804179 C 362.939601 145.804179 359.970851 145.804179 357.205226 145.804179 C 354.502101 145.804179 351.444809 145.804179 348.03335 145.804179 C 344.679183 145.804179 340.5021 145.804179 335.507308 145.804179 C 330.564599 145.804179 324.241682 145.804179 316.538557 145.804179 C 316.538557 147.741679 316.538557 149.715638 316.538557 151.710429 C 316.538557 153.710429 316.538557 155.918763 316.538557 158.330221 C 320.069807 158.330221 324.918765 158.24168 331.095849 158.064596 C 337.267725 157.887513 343.976058 157.798971 351.205226 157.798971 C 358.439601 157.798971 365.559393 158.121888 372.554185 158.767721 C 379.554186 159.418763 385.611478 160.564597 390.726061 162.21043 C 395.548978 172.793764 397.548979 182.673973 396.726062 191.851057 C 395.960437 200.965641 392.403145 208.434391 386.054186 214.257308 C 379.700019 220.022934 370.585435 223.226059 358.705226 223.871892 C 354.647934 223.991684 350.856267 224.048976 347.325017 224.048976 C 343.798975 224.048976 339.710433 224.017726 335.064599 223.960434 C 330.418766 223.903142 324.330224 223.871892 316.804182 223.871892 C 316.804182 226.403143 316.804182 228.840643 316.804182 231.19481 C 316.804182 233.486476 316.804182 235.929185 316.804182 238.517727 C 317.569807 238.517727 318.418765 238.517727 319.361473 238.517727 C 320.361473 238.517727 321.330224 238.517727 322.272932 238.517727 C 335.153141 238.517727 348.03335 238.517727 360.913559 238.517727 C 373.85106 238.517727 386.757311 238.517727 399.63752 238.517727 C 404.283354 244.929185 407.252104 252.043769 408.548979 259.866686 C 409.840646 267.627104 409.283354 275.215646 406.871896 282.621896 C 404.460437 289.976063 399.871895 296.356272 393.111478 301.767731 C 386.403144 307.11669 377.351061 310.528148 365.939601 312.002107 C 361.88231 312.470857 356.439601 312.913565 349.621892 313.325023 C 342.798975 313.736482 335.298974 313.970857 327.127099 314.028148 C 318.950015 314.14794 310.804181 314.11669 302.689597 313.939607 C 294.575013 313.762523 287.252096 313.439607 280.726054 312.970857 C 274.252095 312.502107 269.257303 311.851065 265.726053 311.028148 C 254.491677 308.14794 246.173969 302.413564 240.76251 293.83023 C 235.408343 285.241688 232.236468 272.741687 231.236468 256.335436 Z M 231.236468 256.335436 " stroke="#7c002c" stroke-width="13.550025" stroke-opacity="1" stroke-miterlimit="4"/><g fill="#f87ca8" fill-opacity="1"><g transform="translate(29.685942, 266.076545)"><g><path d="M 120.5 -0.546875 C 114.113281 -0.179688 107.640625 0.03125 101.078125 0.09375 C 94.515625 0.15625 88.460938 0.125 82.921875 0 C 77.378906 -0.125 72.921875 -0.242188 69.546875 -0.359375 C 66.179688 -0.484375 64.5 -0.546875 64.5 -0.546875 C 59.800781 -0.546875 54.648438 -0.9375 49.046875 -1.71875 C 43.453125 -2.5 38.003906 -4.210938 32.703125 -6.859375 C 27.398438 -9.515625 22.789062 -13.460938 18.875 -18.703125 C 14.96875 -23.941406 12.347656 -30.957031 11.015625 -39.75 C 10.296875 -44.800781 9.632812 -51.179688 9.03125 -58.890625 C 8.425781 -66.597656 7.972656 -75.117188 7.671875 -84.453125 C 7.378906 -93.796875 7.289062 -103.523438 7.40625 -113.640625 C 7.53125 -123.753906 7.921875 -133.8125 8.578125 -143.8125 C 9.242188 -153.8125 10.300781 -163.265625 11.75 -172.171875 C 15.113281 -175.179688 19.265625 -177.5 24.203125 -179.125 C 29.140625 -180.75 34.378906 -181.441406 39.921875 -181.203125 C 45.460938 -180.960938 50.757812 -179.515625 55.8125 -176.859375 C 60.875 -174.210938 65.210938 -170.179688 68.828125 -164.765625 C 72.441406 -159.347656 74.734375 -152.179688 75.703125 -143.265625 C 76.304688 -137.960938 76.726562 -131.847656 76.96875 -124.921875 C 77.207031 -118.003906 77.382812 -110.8125 77.5 -103.34375 C 77.625 -95.875 77.65625 -88.613281 77.59375 -81.5625 C 77.53125 -74.519531 77.378906 -68.171875 77.140625 -62.515625 C 81.234375 -62.867188 86.234375 -63.078125 92.140625 -63.140625 C 98.046875 -63.203125 104.398438 -63.171875 111.203125 -63.046875 C 118.003906 -62.929688 124.894531 -62.628906 131.875 -62.140625 C 138.863281 -61.660156 145.550781 -61.0625 151.9375 -60.34375 C 155.550781 -53.476562 157.175781 -46.613281 156.8125 -39.75 C 156.457031 -32.882812 154.59375 -26.5625 151.21875 -20.78125 C 147.84375 -15 143.472656 -10.269531 138.109375 -6.59375 C 132.753906 -2.914062 126.882812 -0.898438 120.5 -0.546875 Z M 120.5 -0.546875 "/></g></g></g><g fill="#f87ca8" fill-opacity="1"><g transform="translate(193.187784, 266.076545)"><g><path d="M 9.9375 -41.734375 C 9.695312 -45.828125 9.515625 -51.335938 9.390625 -58.265625 C 9.273438 -65.191406 9.21875 -72.957031 9.21875 -81.5625 C 9.21875 -90.175781 9.304688 -99.085938 9.484375 -108.296875 C 9.660156 -117.515625 9.898438 -126.582031 10.203125 -135.5 C 10.503906 -144.414062 10.863281 -152.664062 11.28125 -160.25 C 11.707031 -167.84375 12.222656 -174.164062 12.828125 -179.21875 C 18.847656 -179.820312 26.164062 -180.273438 34.78125 -180.578125 C 43.394531 -180.878906 52.640625 -181.085938 62.515625 -181.203125 C 72.390625 -181.328125 82.296875 -181.296875 92.234375 -181.109375 C 102.171875 -180.929688 111.5625 -180.660156 120.40625 -180.296875 C 129.257812 -179.941406 136.878906 -179.523438 143.265625 -179.046875 C 144.347656 -177.472656 145.3125 -175.0625 146.15625 -171.8125 C 147 -168.5625 147.453125 -164.890625 147.515625 -160.796875 C 147.578125 -156.703125 147.066406 -152.546875 145.984375 -148.328125 C 144.898438 -144.109375 143 -140.191406 140.28125 -136.578125 C 137.570312 -132.960938 133.835938 -130.070312 129.078125 -127.90625 C 124.328125 -125.738281 118.335938 -124.65625 111.109375 -124.65625 C 108.703125 -124.65625 106.472656 -124.65625 104.421875 -124.65625 C 102.378906 -124.65625 100.09375 -124.65625 97.5625 -124.65625 C 95.03125 -124.65625 91.894531 -124.65625 88.15625 -124.65625 C 84.425781 -124.65625 79.671875 -124.65625 73.890625 -124.65625 C 73.890625 -123.207031 73.890625 -121.726562 73.890625 -120.21875 C 73.890625 -118.71875 73.890625 -117.066406 73.890625 -115.265625 C 76.546875 -115.265625 80.191406 -115.320312 84.828125 -115.4375 C 89.460938 -115.5625 94.488281 -115.625 99.90625 -115.625 C 105.320312 -115.625 110.648438 -115.382812 115.890625 -114.90625 C 121.128906 -114.425781 125.675781 -113.582031 129.53125 -112.375 C 133.144531 -104.425781 134.648438 -97.019531 134.046875 -90.15625 C 133.453125 -83.289062 130.773438 -77.6875 126.015625 -73.34375 C 121.253906 -69.007812 114.421875 -66.601562 105.515625 -66.125 C 102.503906 -66 99.671875 -65.9375 97.015625 -65.9375 C 94.367188 -65.9375 91.296875 -65.96875 87.796875 -66.03125 C 84.304688 -66.09375 79.734375 -66.125 74.078125 -66.125 C 74.078125 -64.195312 74.078125 -62.359375 74.078125 -60.609375 C 74.078125 -58.867188 74.078125 -57.035156 74.078125 -55.109375 C 74.679688 -55.109375 75.34375 -55.109375 76.0625 -55.109375 C 76.78125 -55.109375 77.503906 -55.109375 78.234375 -55.109375 C 87.867188 -55.109375 97.53125 -55.109375 107.21875 -55.109375 C 116.914062 -55.109375 126.582031 -55.109375 136.21875 -55.109375 C 139.71875 -50.285156 141.945312 -44.953125 142.90625 -39.109375 C 143.875 -33.273438 143.453125 -27.585938 141.640625 -22.046875 C 139.835938 -16.503906 136.40625 -11.710938 131.34375 -7.671875 C 126.28125 -3.640625 119.472656 -1.082031 110.921875 0 C 107.910156 0.363281 103.847656 0.695312 98.734375 1 C 93.617188 1.300781 87.988281 1.476562 81.84375 1.53125 C 75.695312 1.59375 69.582031 1.5625 63.5 1.4375 C 57.414062 1.320312 51.9375 1.082031 47.0625 0.71875 C 42.1875 0.363281 38.421875 -0.113281 35.765625 -0.71875 C 27.335938 -2.882812 21.101562 -7.191406 17.0625 -13.640625 C 13.03125 -20.085938 10.65625 -29.453125 9.9375 -41.734375 Z M 9.9375 -41.734375 "/></g></g></g></svg>