<svg xmlns="http://www.w3.org/2000/svg" xmlns:xlink="http://www.w3.org/1999/xlink" width="500" zoomAndPan="magnify" viewBox="0 0 375 374.999991" height="500" preserveAspectRatio="xMidYMid meet" version="1.0"><defs><g/></defs><path stroke-linecap="butt" transform="matrix(0.876704, 0, 0, 0.876704, 41.777495, 5.82164)" fill="none" stroke-linejoin="miter" d="M 160.64226 311.293881 C 152.172152 311.766175 143.555009 312.029056 134.790831 312.086979 C 126.031109 312.20728 117.944184 312.176091 110.53451 311.997867 C 103.18276 311.824098 97.243436 311.677063 92.712085 311.556762 C 88.243112 311.382993 86.010853 311.293881 86.010853 311.293881 C 79.715081 311.293881 72.835625 310.763664 65.368028 309.707685 C 57.900432 308.647251 50.637794 306.352614 43.580113 302.823773 C 36.522433 299.294933 30.373696 294.064051 25.142814 287.122217 C 19.965399 280.126915 16.494482 270.743407 14.730062 258.980607 C 13.732006 252.279375 12.818607 243.778078 11.998775 233.490082 C 11.232411 223.197632 10.644271 211.844747 10.234355 199.435883 C 9.819984 186.969096 9.704138 174.003282 9.877906 160.533984 C 10.056131 147.006763 10.586348 133.599843 11.468558 120.308769 C 12.350768 106.959772 13.732006 94.341495 15.612272 82.462848 C 20.143624 78.403791 25.699765 75.316056 32.285151 73.199643 C 38.874993 71.025307 45.843561 70.111908 53.195312 70.468356 C 60.604985 70.762426 67.662666 72.673881 74.363898 76.198266 C 81.127508 79.727106 86.919796 85.109479 91.745218 92.345383 C 96.566184 99.576833 99.62273 109.134108 100.919312 121.012755 C 101.743599 128.070435 102.30055 136.215284 102.59462 145.4473 C 102.946613 154.683772 103.18276 164.267782 103.298605 174.20824 C 103.47683 184.148697 103.508019 193.821819 103.387718 203.23206 C 103.329795 212.6423 103.15157 221.107952 102.8575 228.637927 C 108.328985 228.165633 114.972294 227.902752 122.796339 227.840374 C 130.678307 227.724528 139.143959 227.755717 148.202207 227.929486 C 157.318377 228.10771 166.519204 228.517626 175.813599 229.163689 C 185.165917 229.814207 194.072674 230.607305 202.542782 231.547438 C 207.363748 240.721532 209.54254 249.895625 209.070245 259.069719 C 208.597951 268.185889 206.098356 276.598074 201.57146 284.301818 C 197.102487 292.005561 191.279009 298.328067 184.105483 303.264878 C 176.989879 308.148223 169.165835 310.821587 160.64226 311.293881 Z M 316.980576 118.366125 C 317.804864 123.129168 318.419737 130.071003 318.834109 139.187173 C 319.244025 148.240966 319.480172 158.653718 319.538095 170.416519 C 319.596017 182.116941 319.538095 194.320847 319.35987 207.023781 C 319.244025 219.668791 318.918765 232.193501 318.393004 244.602365 C 317.920709 256.953306 317.363759 268.306191 316.71324 278.656564 C 316.1251 289.006938 315.332002 297.561702 314.333946 304.325313 C 310.332812 308.620517 305.248965 311.734986 299.073494 313.677631 C 292.898024 315.615819 286.312638 316.146037 279.31288 315.263826 C 272.313122 314.381616 265.522778 311.971133 258.932936 308.032377 C 252.34755 304.089166 246.524073 298.475102 241.466959 291.181274 C 236.409846 283.887446 232.854272 274.860388 230.795782 264.100098 C 230.145264 261.039097 229.557124 255.95525 229.031362 248.839646 C 228.559068 241.661665 228.117963 233.222746 227.708047 223.518435 C 227.351598 213.756202 227.088718 203.258793 226.910493 192.026209 C 226.736725 180.793626 226.678802 169.534308 226.736725 158.239346 C 226.852571 146.890917 227.057528 136.068249 227.351598 125.775798 C 227.708047 115.487803 228.233809 106.371632 228.94225 98.431742 C 229.704159 90.491851 230.648747 84.432226 231.762649 80.257323 C 236.231622 76.260644 241.703107 73.230832 248.172647 71.172342 C 254.70011 69.055929 261.579567 68.173719 268.815471 68.525712 C 276.046921 68.819782 282.988755 70.731237 289.632064 74.260077 C 296.337752 77.788917 302.13004 83.140101 307.013385 90.313627 C 311.892274 97.42923 315.216156 106.781548 316.980576 118.366125 Z M 316.980576 118.366125 " stroke="#804d00" stroke-width="13.550025" stroke-opacity="1" stroke-miterlimit="4"/><g fill="#ffbd59" fill-opacity="1"><g transform="translate(41.777495, 279.353433)"><g><path d="M 140.859375 -0.640625 C 133.398438 -0.210938 125.832031 0.0351562 118.15625 0.109375 C 110.488281 0.179688 103.414062 0.144531 96.9375 0 C 90.457031 -0.144531 85.242188 -0.285156 81.296875 -0.421875 C 77.359375 -0.566406 75.390625 -0.640625 75.390625 -0.640625 C 69.898438 -0.640625 63.878906 -1.09375 57.328125 -2 C 50.785156 -2.914062 44.414062 -4.921875 38.21875 -8.015625 C 32.03125 -11.117188 26.644531 -15.734375 22.0625 -21.859375 C 17.488281 -27.984375 14.425781 -36.1875 12.875 -46.46875 C 12.03125 -52.375 11.253906 -59.832031 10.546875 -68.84375 C 9.847656 -77.851562 9.320312 -87.8125 8.96875 -98.71875 C 8.625 -109.632812 8.519531 -121.003906 8.65625 -132.828125 C 8.800781 -144.660156 9.257812 -156.421875 10.03125 -168.109375 C 10.800781 -179.796875 12.035156 -190.847656 13.734375 -201.265625 C 17.671875 -204.785156 22.523438 -207.492188 28.296875 -209.390625 C 34.066406 -211.296875 40.191406 -212.109375 46.671875 -211.828125 C 53.148438 -211.546875 59.34375 -209.851562 65.25 -206.75 C 71.164062 -203.65625 76.234375 -198.9375 80.453125 -192.59375 C 84.679688 -186.257812 87.359375 -177.882812 88.484375 -167.46875 C 89.191406 -161.269531 89.6875 -154.125 89.96875 -146.03125 C 90.25 -137.9375 90.457031 -129.523438 90.59375 -120.796875 C 90.738281 -112.066406 90.773438 -103.582031 90.703125 -95.34375 C 90.628906 -87.113281 90.453125 -79.691406 90.171875 -73.078125 C 94.960938 -73.492188 100.804688 -73.738281 107.703125 -73.8125 C 114.597656 -73.882812 122.023438 -73.847656 129.984375 -73.703125 C 137.941406 -73.566406 146.003906 -73.210938 154.171875 -72.640625 C 162.335938 -72.078125 170.148438 -71.375 177.609375 -70.53125 C 181.828125 -62.507812 183.722656 -54.484375 183.296875 -46.453125 C 182.878906 -38.429688 180.695312 -31.039062 176.75 -24.28125 C 172.8125 -17.53125 167.710938 -12.003906 161.453125 -7.703125 C 155.191406 -3.410156 148.328125 -1.054688 140.859375 -0.640625 Z M 140.859375 -0.640625 "/></g></g></g><g fill="#ffbd59" fill-opacity="1"><g transform="translate(232.901234, 279.353433)"><g><path d="M 86.796875 -169.796875 C 87.503906 -165.566406 88.03125 -159.472656 88.375 -151.515625 C 88.726562 -143.566406 88.941406 -134.453125 89.015625 -124.171875 C 89.085938 -113.898438 89.050781 -103.203125 88.90625 -92.078125 C 88.769531 -80.953125 88.488281 -69.96875 88.0625 -59.125 C 87.644531 -48.289062 87.148438 -38.332031 86.578125 -29.25 C 86.015625 -20.164062 85.3125 -12.671875 84.46875 -6.765625 C 80.957031 -2.960938 76.488281 -0.21875 71.0625 1.46875 C 65.644531 3.164062 59.875 3.625 53.75 2.84375 C 47.625 2.070312 41.675781 -0.0351562 35.90625 -3.484375 C 30.132812 -6.929688 25.03125 -11.859375 20.59375 -18.265625 C 16.15625 -24.671875 13.019531 -32.59375 11.1875 -42.03125 C 10.625 -44.695312 10.128906 -49.160156 9.703125 -55.421875 C 9.285156 -61.691406 8.898438 -69.085938 8.546875 -77.609375 C 8.203125 -86.128906 7.957031 -95.316406 7.8125 -105.171875 C 7.675781 -115.023438 7.640625 -124.914062 7.703125 -134.84375 C 7.773438 -144.769531 7.953125 -154.238281 8.234375 -163.25 C 8.515625 -172.257812 8.972656 -180.25 9.609375 -187.21875 C 10.242188 -194.1875 11.050781 -199.5 12.03125 -203.15625 C 15.976562 -206.675781 20.800781 -209.351562 26.5 -211.1875 C 32.207031 -213.019531 38.226562 -213.796875 44.5625 -213.515625 C 50.894531 -213.234375 56.984375 -211.539062 62.828125 -208.4375 C 68.671875 -205.34375 73.738281 -200.660156 78.03125 -194.390625 C 82.320312 -188.128906 85.242188 -179.929688 86.796875 -169.796875 Z M 86.796875 -169.796875 "/></g></g></g></svg>