<svg xmlns="http://www.w3.org/2000/svg" xmlns:xlink="http://www.w3.org/1999/xlink" width="500" zoomAndPan="magnify" viewBox="0 0 375 374.999991" height="500" preserveAspectRatio="xMidYMid meet" version="1.0"><defs><g/></defs><path stroke-linecap="butt" transform="matrix(0.75, 0, 0, 0.75, 6.756756, 23.852108)" fill="none" stroke-linejoin="miter" d="M 159.251419 305.306585 C 150.938919 305.770126 142.485793 306.030543 133.881626 306.087835 C 125.282667 306.202418 117.345166 306.171168 110.069124 305.999293 C 102.855582 305.827418 97.027457 305.681585 92.57954 305.567001 C 88.194123 305.395126 86.001414 305.306585 86.001414 305.306585 C 79.824331 305.306585 73.069122 304.785751 65.740996 303.749293 C 58.407663 302.707626 51.277454 300.457626 44.35037 296.994084 C 37.423286 293.530542 31.392036 288.395125 26.256619 281.582625 C 21.173285 274.712833 17.772243 265.504499 16.037868 253.962831 C 15.058701 247.379498 14.162868 239.040955 13.355576 228.936788 C 12.605576 218.837829 12.027451 207.697203 11.621201 195.514911 C 11.220159 183.275327 11.100368 170.551367 11.277451 157.332617 C 11.449326 144.051366 11.970159 130.889907 12.834743 117.848239 C 13.699326 104.744071 15.058701 92.358654 16.902451 80.702403 C 21.350368 76.718028 26.803494 73.686778 33.267036 71.608653 C 39.735786 69.473236 46.574328 68.577402 53.787871 68.926361 C 61.063913 69.212819 67.990996 71.087819 74.569122 74.551361 C 81.209747 78.014903 86.897248 83.296153 91.626415 90.400321 C 96.36079 97.499279 99.365999 106.879488 100.631624 118.540947 C 101.444124 125.468031 101.990999 133.462823 102.277457 142.525324 C 102.626415 151.587825 102.855582 160.994075 102.970165 170.749284 C 103.14204 180.504493 103.17329 190.004494 103.058707 199.238869 C 103.001415 208.473245 102.82954 216.785746 102.537874 224.176371 C 107.907666 223.712829 114.4285 223.452413 122.105583 223.395121 C 129.839959 223.280538 138.152459 223.311788 147.043085 223.483663 C 155.991002 223.655538 165.027461 224.061788 174.147253 224.697204 C 183.324337 225.327413 192.06913 226.108663 200.38163 227.030538 C 205.116006 236.035747 207.251422 245.040956 206.787881 254.046165 C 206.329547 262.994082 203.876422 271.249291 199.428505 278.811791 C 195.043088 286.374292 189.329546 292.577417 182.282671 297.426376 C 175.298295 302.218043 167.621211 304.843043 159.251419 305.306585 Z M 346.303515 64.853444 C 362.407682 64.681569 376.464975 66.499277 388.470184 70.311778 C 400.532685 74.061778 410.808727 78.941986 419.293103 84.941987 C 427.839978 90.947196 434.907687 97.327404 440.506646 104.077405 C 446.110813 110.832614 450.522272 117.270114 453.756647 123.389906 C 456.991022 129.447198 459.329564 134.353448 460.772272 138.108657 C 466.256648 153.233658 469.517065 168.499284 470.553523 183.910743 C 471.59519 199.264911 469.746231 214.73887 465.011856 230.322205 C 452.084772 271.770124 424.579562 297.457626 382.496225 307.38471 C 365.464974 311.483668 348.668098 312.780543 332.100389 311.280543 C 315.537888 309.780543 299.37122 304.962835 283.616011 296.822209 C 268.662885 289.087834 256.714967 279.040958 247.76705 266.691999 C 238.876424 254.28054 232.642049 239.96283 229.063924 223.744079 C 226.69934 213.468037 225.313923 202.98887 224.907673 192.311786 C 224.501423 181.572202 225.110798 171.155534 226.725382 161.051367 C 228.402465 150.952408 231.142049 141.889907 234.949341 133.863865 C 238.704549 125.494073 243.57955 117.270114 249.584758 109.18678 C 255.589967 101.051363 263.006634 93.629487 271.839968 86.936779 C 280.668094 80.238862 291.235803 74.90032 303.52747 70.915944 C 315.824346 66.874277 330.079555 64.853444 346.303515 64.853444 Z M 347.517057 149.452408 C 341.683723 149.452408 336.287889 151.066991 331.324347 154.301366 C 326.360805 157.530533 322.433722 162.35345 319.548305 168.759701 C 316.720179 175.108659 315.621221 183.020118 316.256638 192.483661 C 316.892055 201.660745 318.97018 208.936787 322.491013 214.306579 C 326.069138 219.613871 330.256639 223.426371 335.048306 225.733663 C 339.897264 228.040955 344.371223 229.02533 348.464973 228.676371 C 352.683724 228.389913 356.954557 227.030538 361.282682 224.608663 C 365.668099 222.124288 369.392058 218.202412 372.44935 212.83262 C 375.51185 207.462828 377.272267 200.363869 377.735809 191.530536 C 378.371225 182.582618 377.298308 174.994076 374.527475 168.759701 C 371.819141 162.525325 368.037891 157.764908 363.188933 154.473241 C 358.397266 151.124283 353.173307 149.452408 347.517057 149.452408 Z M 347.517057 149.452408 " stroke="#803a00" stroke-width="13.300088" stroke-opacity="1" stroke-miterlimit="4"/><g fill="#ff7c10" fill-opacity="1"><g transform="translate(7.94035, 253.352093)"><g><path d="M 118.28125 -0.53125 C 112.007812 -0.175781 105.648438 0.0234375 99.203125 0.078125 C 92.765625 0.140625 86.828125 0.113281 81.390625 0 C 75.953125 -0.113281 71.578125 -0.226562 68.265625 -0.34375 C 64.960938 -0.46875 63.3125 -0.53125 63.3125 -0.53125 C 58.695312 -0.53125 53.640625 -0.914062 48.140625 -1.6875 C 42.648438 -2.457031 37.300781 -4.140625 32.09375 -6.734375 C 26.894531 -9.335938 22.375 -13.207031 18.53125 -18.34375 C 14.6875 -23.488281 12.113281 -30.378906 10.8125 -39.015625 C 10.101562 -43.984375 9.453125 -50.25 8.859375 -57.8125 C 8.273438 -65.375 7.832031 -73.734375 7.53125 -82.890625 C 7.238281 -92.054688 7.148438 -101.601562 7.265625 -111.53125 C 7.390625 -121.46875 7.773438 -131.34375 8.421875 -141.15625 C 9.078125 -150.96875 10.113281 -160.25 11.53125 -169 C 14.832031 -171.957031 18.90625 -174.234375 23.75 -175.828125 C 28.601562 -177.421875 33.75 -178.097656 39.1875 -177.859375 C 44.625 -177.628906 49.828125 -176.210938 54.796875 -173.609375 C 59.765625 -171.003906 64.019531 -167.039062 67.5625 -161.71875 C 71.113281 -156.40625 73.359375 -149.375 74.296875 -140.625 C 74.890625 -135.425781 75.304688 -129.425781 75.546875 -122.625 C 75.785156 -115.820312 75.960938 -108.753906 76.078125 -101.421875 C 76.191406 -94.097656 76.21875 -86.976562 76.15625 -80.0625 C 76.101562 -73.144531 75.957031 -66.910156 75.71875 -61.359375 C 79.738281 -61.710938 84.644531 -61.914062 90.4375 -61.96875 C 96.226562 -62.03125 102.460938 -62.003906 109.140625 -61.890625 C 115.828125 -61.773438 122.597656 -61.476562 129.453125 -61 C 136.304688 -60.53125 142.867188 -59.941406 149.140625 -59.234375 C 152.679688 -52.492188 154.273438 -45.753906 153.921875 -39.015625 C 153.566406 -32.273438 151.734375 -26.066406 148.421875 -20.390625 C 145.117188 -14.710938 140.835938 -10.070312 135.578125 -6.46875 C 130.316406 -2.863281 124.550781 -0.882812 118.28125 -0.53125 Z M 118.28125 -0.53125 "/></g></g></g><g fill="#ff7c10" fill-opacity="1"><g transform="translate(168.424034, 253.352093)"><g><path d="M 98.0625 -180.875 C 110.125 -181 120.675781 -179.640625 129.71875 -176.796875 C 138.757812 -173.960938 146.472656 -170.296875 152.859375 -165.796875 C 159.242188 -161.304688 164.535156 -156.519531 168.734375 -151.4375 C 172.929688 -146.351562 176.238281 -141.535156 178.65625 -136.984375 C 181.082031 -132.429688 182.828125 -128.738281 183.890625 -125.90625 C 188.023438 -114.550781 190.476562 -103.109375 191.25 -91.578125 C 192.019531 -80.054688 190.632812 -68.445312 187.09375 -56.75 C 177.394531 -25.65625 156.765625 -6.382812 125.203125 1.0625 C 112.429688 4.132812 99.835938 5.109375 87.421875 3.984375 C 75.015625 2.867188 62.898438 -0.765625 51.078125 -6.921875 C 39.835938 -12.710938 30.878906 -20.25 24.203125 -29.53125 C 17.523438 -38.8125 12.828125 -49.539062 10.109375 -61.71875 C 8.335938 -69.394531 7.300781 -77.253906 7 -85.296875 C 6.707031 -93.335938 7.179688 -101.140625 8.421875 -108.703125 C 9.660156 -116.265625 11.703125 -123.0625 14.546875 -129.09375 C 17.378906 -135.363281 21.039062 -141.539062 25.53125 -147.625 C 30.03125 -153.71875 35.585938 -159.273438 42.203125 -164.296875 C 48.828125 -169.328125 56.75 -173.347656 65.96875 -176.359375 C 75.1875 -179.367188 85.882812 -180.875 98.0625 -180.875 Z M 98.953125 -117.390625 C 94.578125 -117.390625 90.523438 -116.175781 86.796875 -113.75 C 83.078125 -111.332031 80.148438 -107.726562 78.015625 -102.9375 C 75.890625 -98.15625 75.066406 -92.21875 75.546875 -85.125 C 76.015625 -78.257812 77.578125 -72.816406 80.234375 -68.796875 C 82.898438 -64.785156 86.035156 -61.921875 89.640625 -60.203125 C 93.242188 -58.492188 96.582031 -57.753906 99.65625 -57.984375 C 102.851562 -58.222656 106.078125 -59.257812 109.328125 -61.09375 C 112.578125 -62.925781 115.351562 -65.851562 117.65625 -69.875 C 119.96875 -73.894531 121.300781 -79.210938 121.65625 -85.828125 C 122.125 -92.566406 121.320312 -98.269531 119.25 -102.9375 C 117.1875 -107.613281 114.351562 -111.191406 110.75 -113.671875 C 107.144531 -116.148438 103.210938 -117.390625 98.953125 -117.390625 Z M 98.953125 -117.390625 "/></g></g></g></svg>