<svg xmlns="http://www.w3.org/2000/svg" xmlns:xlink="http://www.w3.org/1999/xlink" width="500" zoomAndPan="magnify" viewBox="0 0 375 374.999991" height="500" preserveAspectRatio="xMidYMid meet" version="1.0"><defs><g/></defs><path stroke-linecap="butt" transform="matrix(0.75, 0, 0, 0.75, 7.012497, 23.352186)" fill="none" stroke-linejoin="miter" d="M 160.639598 311.296064 C 152.170847 311.764814 143.556263 312.030439 134.790638 312.087731 C 126.030221 312.207523 117.941678 312.176273 110.535428 311.999189 C 103.181261 311.822106 97.24376 311.676273 92.71251 311.556481 C 88.24376 311.384606 86.009385 311.296064 86.009385 311.296064 C 79.717717 311.296064 72.837509 310.764814 65.368758 309.707522 C 57.900008 308.650231 50.634382 306.353356 43.57709 302.827314 C 36.519798 299.296063 30.373964 294.061688 25.139589 287.124188 C 19.967714 280.124187 16.493755 270.743978 14.733338 258.983561 C 13.733338 252.280435 12.82188 243.780435 11.998963 233.488767 C 11.233338 223.1971 10.644796 211.848141 10.233338 199.436682 C 9.82188 186.967931 9.702088 174.004389 9.879171 160.535638 C 10.056255 147.009595 10.587505 133.598136 11.467713 120.306468 C 12.347921 106.957509 13.733338 94.342925 15.613547 82.462716 C 20.144797 78.405424 25.702089 75.316882 32.285423 73.202299 C 38.873965 71.025215 45.842715 70.113757 53.191674 70.467923 C 60.603133 70.75959 67.660425 72.671049 74.36355 76.202299 C 81.129176 79.728341 86.920843 85.108549 91.74376 92.342925 C 96.566677 99.5773 99.623969 109.134593 100.920844 121.014802 C 101.743761 128.072094 102.301052 136.217928 102.592719 145.447095 C 102.946886 154.681471 103.181261 164.270013 103.301052 174.207514 C 103.478136 184.145014 103.504177 193.822098 103.389594 203.228349 C 103.327094 212.639808 103.155219 221.108558 102.858344 228.6346 C 108.327094 228.16585 114.972928 227.900225 122.795845 227.842934 C 130.676054 227.723142 139.144805 227.754392 148.202097 227.931475 C 157.316681 228.108559 166.519806 228.520017 175.811474 229.165851 C 185.165641 229.811684 194.071892 230.608559 202.540642 231.546059 C 207.363559 240.723143 209.540643 249.895019 209.071893 259.072102 C 208.597934 268.186686 206.097934 276.598145 201.571892 284.301271 C 197.103142 292.004396 191.280225 298.327313 184.103141 303.264814 C 176.988557 308.150231 169.16564 310.822106 160.639598 311.296064 Z M 463.946909 230.134601 C 462.181284 245.54606 457.681284 258.806477 450.452117 269.921062 C 443.217741 280.978354 434.217741 290.124188 423.457323 297.358563 C 412.691698 304.530439 401.051072 309.853356 388.525029 313.322106 C 375.993779 316.790856 363.467736 318.53044 350.941694 318.53044 C 340.82711 318.53044 330.681276 317.941898 320.5094 316.764815 C 310.332316 315.645023 300.483357 313.410648 290.957315 310.061689 C 281.488564 306.707522 272.785438 301.827314 264.84273 295.415855 C 256.905229 288.947104 250.202104 280.509604 244.733353 270.098145 C 239.264603 259.629394 235.498978 246.603352 233.441686 231.020017 C 231.321894 216.431475 230.295852 200.556474 230.353144 183.384598 C 230.467727 166.207513 231.233352 148.68147 232.644811 130.806469 C 234.118769 112.868968 235.967728 95.60855 238.202103 79.025216 C 239.967728 77.139799 243.170853 75.405424 247.816687 73.816882 C 252.52502 72.171049 258.051063 70.967923 264.40523 70.202298 C 270.754188 69.379382 277.34273 69.25959 284.165648 69.848132 C 290.983356 70.379382 297.394815 71.848132 303.394815 74.25959 C 309.394816 76.671049 314.47815 80.139799 318.655233 84.671049 C 322.832317 89.1398 325.420859 95.051258 326.420859 102.400217 C 326.712525 104.988759 326.889609 109.957509 326.9469 117.306468 C 327.066692 124.603344 327.123984 133.275219 327.123984 143.332512 C 327.123984 153.332512 327.243775 163.827305 327.47815 174.827305 C 327.712525 185.822098 328.092734 196.322098 328.623984 206.316891 C 329.212526 216.254391 330.066692 224.66585 331.181276 231.546059 C 332.181276 236.842934 334.389609 241.01481 337.801068 244.072101 C 341.269818 247.134602 345.181277 248.780435 349.530235 249.01481 C 353.884402 249.249185 357.884402 247.895018 361.530236 244.957518 C 365.233361 241.957518 367.733361 237.165851 369.025028 230.577309 C 370.14482 224.811684 371.14482 217.285641 372.025028 207.993974 C 372.910445 198.645015 373.58232 188.441889 374.056278 177.384597 C 374.58232 166.270013 374.790654 155.004387 374.670862 143.598137 C 374.61357 132.186677 374.259403 121.39501 373.61357 111.223134 C 372.967737 101.04605 371.936487 92.342925 370.525028 85.108549 C 373.702112 81.874174 378.056279 79.113757 383.582321 76.816882 C 389.170863 74.467924 395.405238 72.848132 402.285447 71.967924 C 409.165656 71.082507 416.103156 71.171048 423.103157 72.22834 C 430.103157 73.22834 436.629199 75.462715 442.686491 78.936674 C 448.801075 82.405424 453.920867 87.342925 458.035451 93.754383 C 462.155243 100.165842 464.681284 108.280426 465.623993 118.103343 C 466.269826 124.691885 466.858368 130.686677 467.389618 136.098136 C 467.972951 141.452303 468.38441 146.889803 468.623993 152.421054 C 468.858368 157.947096 468.88441 164.181471 468.712535 171.118972 C 468.592743 177.99918 468.150035 186.176264 467.389618 195.645015 C 466.681285 205.113766 465.535451 216.608558 463.946909 230.134601 Z M 463.946909 230.134601 " stroke="#0e0069" stroke-width="13.550025" stroke-opacity="1" stroke-miterlimit="4"/><g fill="#004aad" fill-opacity="1"><g transform="translate(7.012497, 257.352171)"><g><path d="M 120.5 -0.546875 C 114.113281 -0.179688 107.640625 0.03125 101.078125 0.09375 C 94.515625 0.15625 88.460938 0.125 82.921875 0 C 77.378906 -0.125 72.921875 -0.242188 69.546875 -0.359375 C 66.179688 -0.484375 64.5 -0.546875 64.5 -0.546875 C 59.800781 -0.546875 54.648438 -0.9375 49.046875 -1.71875 C 43.453125 -2.5 38.003906 -4.210938 32.703125 -6.859375 C 27.398438 -9.515625 22.789062 -13.460938 18.875 -18.703125 C 14.96875 -23.941406 12.347656 -30.957031 11.015625 -39.75 C 10.296875 -44.800781 9.632812 -51.179688 9.03125 -58.890625 C 8.425781 -66.597656 7.972656 -75.117188 7.671875 -84.453125 C 7.378906 -93.796875 7.289062 -103.523438 7.40625 -113.640625 C 7.53125 -123.753906 7.921875 -133.8125 8.578125 -143.8125 C 9.242188 -153.8125 10.300781 -163.265625 11.75 -172.171875 C 15.113281 -175.179688 19.265625 -177.5 24.203125 -179.125 C 29.140625 -180.75 34.378906 -181.441406 39.921875 -181.203125 C 45.460938 -180.960938 50.757812 -179.515625 55.8125 -176.859375 C 60.875 -174.210938 65.210938 -170.179688 68.828125 -164.765625 C 72.441406 -159.347656 74.734375 -152.179688 75.703125 -143.265625 C 76.304688 -137.960938 76.726562 -131.847656 76.96875 -124.921875 C 77.207031 -118.003906 77.382812 -110.8125 77.5 -103.34375 C 77.625 -95.875 77.65625 -88.613281 77.59375 -81.5625 C 77.53125 -74.519531 77.378906 -68.171875 77.140625 -62.515625 C 81.234375 -62.867188 86.234375 -63.078125 92.140625 -63.140625 C 98.046875 -63.203125 104.398438 -63.171875 111.203125 -63.046875 C 118.003906 -62.929688 124.894531 -62.628906 131.875 -62.140625 C 138.863281 -61.660156 145.550781 -61.0625 151.9375 -60.34375 C 155.550781 -53.476562 157.175781 -46.613281 156.8125 -39.75 C 156.457031 -32.882812 154.59375 -26.5625 151.21875 -20.78125 C 147.84375 -15 143.472656 -10.269531 138.109375 -6.59375 C 132.753906 -2.914062 126.882812 -0.898438 120.5 -0.546875 Z M 120.5 -0.546875 "/></g></g></g><g fill="#004aad" fill-opacity="1"><g transform="translate(170.514339, 257.352171)"><g><path d="M 184.453125 -61.421875 C 183.128906 -49.859375 179.757812 -39.921875 174.34375 -31.609375 C 168.925781 -23.304688 162.179688 -16.441406 154.109375 -11.015625 C 146.035156 -5.597656 137.300781 -1.597656 127.90625 0.984375 C 118.507812 3.578125 109.117188 4.875 99.734375 4.875 C 92.140625 4.875 84.519531 4.453125 76.875 3.609375 C 69.226562 2.765625 61.847656 1.082031 54.734375 -1.4375 C 47.628906 -3.96875 41.097656 -7.640625 35.140625 -12.453125 C 29.179688 -17.273438 24.148438 -23.597656 20.046875 -31.421875 C 15.953125 -39.253906 13.125 -49.015625 11.5625 -60.703125 C 10 -71.660156 9.242188 -83.582031 9.296875 -96.46875 C 9.359375 -109.363281 9.929688 -122.523438 11.015625 -135.953125 C 12.097656 -149.378906 13.484375 -162.296875 15.171875 -174.703125 C 16.492188 -176.148438 18.898438 -177.472656 22.390625 -178.671875 C 25.890625 -179.878906 30.019531 -180.785156 34.78125 -181.390625 C 39.539062 -181.992188 44.476562 -182.082031 49.59375 -181.65625 C 54.707031 -181.238281 59.523438 -180.125 64.046875 -178.3125 C 68.566406 -176.507812 72.390625 -173.921875 75.515625 -170.546875 C 78.648438 -167.171875 80.578125 -162.71875 81.296875 -157.1875 C 81.535156 -155.257812 81.6875 -151.550781 81.75 -146.0625 C 81.8125 -140.582031 81.84375 -134.078125 81.84375 -126.546875 C 81.84375 -119.023438 81.929688 -111.140625 82.109375 -102.890625 C 82.296875 -94.640625 82.597656 -86.78125 83.015625 -79.3125 C 83.441406 -71.84375 84.070312 -65.519531 84.90625 -60.34375 C 85.632812 -56.363281 87.289062 -53.226562 89.875 -50.9375 C 92.46875 -48.65625 95.390625 -47.421875 98.640625 -47.234375 C 101.890625 -47.054688 104.898438 -48.082031 107.671875 -50.3125 C 110.441406 -52.539062 112.3125 -56.125 113.28125 -61.0625 C 114.125 -65.394531 114.875 -71.054688 115.53125 -78.046875 C 116.195312 -85.035156 116.707031 -92.679688 117.0625 -100.984375 C 117.425781 -109.296875 117.578125 -117.726562 117.515625 -126.28125 C 117.460938 -134.832031 117.191406 -142.929688 116.703125 -150.578125 C 116.222656 -158.234375 115.441406 -164.769531 114.359375 -170.1875 C 116.765625 -172.59375 120.046875 -174.671875 124.203125 -176.421875 C 128.359375 -178.171875 133.023438 -179.375 138.203125 -180.03125 C 143.390625 -180.695312 148.601562 -180.632812 153.84375 -179.84375 C 159.082031 -179.0625 163.988281 -177.375 168.5625 -174.78125 C 173.132812 -172.195312 176.957031 -168.492188 180.03125 -163.671875 C 183.101562 -158.859375 185 -152.78125 185.71875 -145.4375 C 186.207031 -140.5 186.660156 -136.007812 187.078125 -131.96875 C 187.503906 -127.9375 187.804688 -123.84375 187.984375 -119.6875 C 188.160156 -115.53125 188.1875 -110.863281 188.0625 -105.6875 C 187.945312 -100.507812 187.617188 -94.367188 187.078125 -87.265625 C 186.535156 -80.160156 185.660156 -71.546875 184.453125 -61.421875 Z M 184.453125 -61.421875 "/></g></g></g></svg>