<svg xmlns="http://www.w3.org/2000/svg" xmlns:xlink="http://www.w3.org/1999/xlink" width="500" zoomAndPan="magnify" viewBox="0 0 375 374.999991" height="500" preserveAspectRatio="xMidYMid meet" version="1.0"><defs><g/></defs><path stroke-linecap="butt" transform="matrix(0.680526, 0, 0, 0.680526, -24.199608, 55.925944)" fill="none" stroke-linejoin="miter" d="M 192.073957 196.171538 C 192.372439 195.350712 192.636481 194.558586 192.871823 193.78942 C 193.164566 192.968593 193.371207 192.233868 193.486008 191.585243 C 197.194077 175.530337 200.925106 159.561532 204.690576 143.684567 C 208.456045 127.750202 212.187075 111.752697 215.895144 95.697791 C 216.543769 93.459174 217.307195 91.168896 218.185422 88.815477 C 219.069388 86.462059 219.832814 84.07994 220.48144 81.669121 C 230.124715 75.435433 240.152574 71.790504 250.565015 70.728596 C 261.029117 69.672427 270.913475 71.055778 280.200867 74.878648 C 289.557141 78.638378 297.375082 84.550624 303.666171 92.609647 C 310.020401 100.60553 314.021212 110.547288 315.668605 122.423441 C 316.31149 126.894936 317.074916 132.950683 317.958883 140.596423 C 318.84285 148.242163 319.841618 156.565228 320.960927 165.559879 C 322.074495 174.560269 323.136404 183.526219 324.135172 192.469209 C 325.19134 201.349059 326.132707 209.316241 326.959274 216.376497 C 328.543526 230.020584 330.076118 243.044746 331.54557 255.454723 C 333.015021 267.80156 334.541873 280.802761 336.131866 294.446848 C 330.839544 301.151221 324.812497 306.208201 318.044984 309.617787 C 311.283211 312.969973 304.372197 314.766608 297.317682 315.001949 C 290.257426 315.237291 283.587494 314.026142 277.290665 311.379981 C 271.056976 308.73382 265.856495 304.767449 261.677742 299.475128 C 257.50473 294.182806 255.00207 287.679335 254.181244 279.976195 C 253.417818 272.743738 252.912694 266.452649 252.683092 261.097187 C 252.44775 255.690065 252.269809 250.369043 252.149268 245.134122 C 252.091867 239.899201 252.005767 234.078795 251.885226 227.667165 C 251.827825 221.255535 251.649884 213.466294 251.357141 204.287962 C 251.006999 204.173161 250.444474 204.110021 249.681048 204.110021 C 249.152964 206.64138 248.65358 209.1096 248.182897 211.520419 C 247.712213 213.931238 247.149688 216.433897 246.506803 219.022657 C 243.269418 233.016887 240.009073 247.045557 236.714287 261.097187 C 233.419501 275.097157 230.009914 289.091386 226.479787 303.091356 C 223.305542 305.031491 218.983288 306.764985 213.513025 308.297577 C 208.042762 309.824429 202.101816 310.673955 195.695925 310.851897 C 189.284295 310.972438 182.958766 310.209012 176.725077 308.561619 C 170.554528 306.856826 165.055565 303.768681 160.228187 299.297186 C 155.46969 294.768291 152.117504 288.563302 150.171629 280.682221 C 148.702177 274.919215 146.997384 267.979501 145.057249 259.863077 C 143.174514 251.746654 141.291779 243.63597 139.409044 235.519547 C 137.58945 227.403123 135.913357 220.256767 134.380765 214.080479 C 132.853913 207.90419 131.677204 203.759878 130.856377 201.641801 C 130.092951 213.873837 129.295085 225.491688 128.474259 236.489614 C 127.647692 247.48754 126.884266 258.542867 126.178241 269.655594 C 125.472215 280.710921 124.708789 292.506713 123.887963 305.031491 C 116.006881 309.204504 108.033959 312.057306 99.980675 313.589898 C 91.979053 315.11675 84.367753 315.03065 77.129556 313.325856 C 69.8971 311.615323 63.720811 308.177036 58.606431 302.999515 C 53.492051 297.770334 49.841383 290.503437 47.665906 281.210305 C 45.490429 271.859771 45.375628 260.362461 47.315763 246.718374 C 49.255898 232.431403 51.787258 217.932049 54.904102 203.231794 C 58.020947 188.525799 60.695808 174.118286 62.928685 160.003515 C 65.161563 146.657911 67.486281 133.335266 69.8971 120.041322 C 72.307919 106.695717 74.661337 93.430474 76.957355 80.25707 C 80.602284 76.726943 85.687964 73.87988 92.214395 71.698663 C 98.746566 69.523186 105.858482 68.409617 113.567362 68.346477 C 121.270502 68.289077 128.916242 69.557626 136.498842 72.140647 C 144.144581 74.672007 150.940795 78.90816 156.876001 84.843366 C 162.816948 90.784313 167.167902 98.722795 169.934604 108.664553 C 171.524596 114.134816 173.200689 120.689947 174.962883 128.335687 C 176.725077 135.981427 178.579111 143.862509 180.519246 151.978932 C 182.459382 160.032215 184.313416 167.855897 186.07561 175.444236 C 186.196151 175.736978 186.460193 176.884987 186.873476 178.882523 C 187.281019 180.880059 187.814844 183.176077 188.457729 185.764837 C 189.106354 188.353597 189.634438 190.643875 190.047721 192.647151 C 190.461004 194.644686 190.725046 195.821396 190.839847 196.171538 C 191.19573 196.171538 191.431072 196.171538 191.545873 196.171538 C 191.723814 196.171538 191.901756 196.171538 192.073957 196.171538 Z M 348.404082 239.221876 C 350.344217 229.5786 352.875577 218.787316 355.992421 206.848022 C 359.109266 194.908729 362.639393 182.647992 366.577064 170.060074 C 370.520475 157.414755 374.515546 145.211419 378.573758 133.450067 C 382.69511 121.631314 386.718882 110.81133 390.662293 100.990113 C 394.599964 91.168896 398.101391 83.287814 401.160835 77.346868 C 407.744667 75.11399 415.597048 73.053314 424.71224 71.170579 C 433.884831 69.230444 443.619948 68.145575 453.911848 67.910234 C 464.203749 67.611751 474.409549 68.937702 484.523508 71.876605 C 494.637467 74.758107 503.9306 79.906928 512.397167 87.317326 C 520.926873 94.664583 527.923988 105.019624 533.394251 118.365229 C 535.983011 124.776859 538.950615 133.013824 542.302801 143.070382 C 545.654987 153.063801 549.185115 164.182268 552.887444 176.414304 C 556.595513 188.588939 560.211741 201.142417 563.741869 214.080479 C 567.266256 227.01854 570.503642 239.635159 573.442545 251.924595 C 576.444588 264.214032 578.826707 275.418599 580.588901 285.532559 C 580.118217 289.826112 577.88534 294.119666 573.884528 298.413219 C 569.883717 302.649373 564.769337 306.265601 558.535648 309.267644 C 552.35936 312.206548 545.683687 314.146683 538.508631 315.08805 C 531.396715 316.086818 524.30776 315.530034 517.247505 313.411957 C 510.192989 311.351281 503.810059 307.264369 498.110195 301.151221 C 492.40459 295.032333 487.961795 286.537066 484.78755 275.653941 C 477.199211 275.303798 469.318129 275.211958 461.144305 275.389899 C 452.970481 275.56784 445.031999 275.56784 437.328858 275.389899 C 435.210782 280.389478 433.213246 285.859741 431.330511 291.800688 C 429.505177 297.735894 427.714283 303.826082 425.946349 310.059771 C 411.188694 315.530034 398.336733 317.498869 387.396207 315.972017 C 376.518822 314.439425 367.725073 310.237712 361.020701 303.355398 C 354.373729 296.415684 349.965374 287.415293 347.789897 276.359967 C 345.61442 265.24724 345.821062 252.865963 348.404082 239.221876 Z M 446.679392 206.492139 C 451.793772 206.492139 456.764651 206.492139 461.586288 206.492139 C 466.407926 206.492139 471.321405 206.492139 476.320984 206.492139 C 474.082366 196.670922 471.763388 186.998947 469.346829 177.470472 C 466.93601 167.884597 464.617032 158.298722 462.378415 148.712847 C 461.850331 148.833388 461.115605 148.890788 460.174237 148.890788 C 458.056161 158.356122 455.823283 167.855897 453.469865 177.384371 C 451.179587 186.849705 448.912269 196.556121 446.679392 206.492139 Z M 446.679392 206.492139 " stroke="#7e0030" stroke-width="13.550025" stroke-opacity="1" stroke-miterlimit="4"/><g fill="#fb6ea4" fill-opacity="1"><g transform="translate(1.75608, 268.250064)"><g><path d="M 104.75 -78.84375 C 104.96875 -79.394531 105.15625 -79.941406 105.3125 -80.484375 C 105.476562 -81.035156 105.617188 -81.53125 105.734375 -81.96875 C 108.242188 -92.894531 110.78125 -103.765625 113.34375 -114.578125 C 115.914062 -125.398438 118.460938 -136.273438 120.984375 -147.203125 C 121.421875 -148.734375 121.9375 -150.289062 122.53125 -151.875 C 123.132812 -153.457031 123.65625 -155.070312 124.09375 -156.71875 C 130.644531 -160.976562 137.472656 -163.460938 144.578125 -164.171875 C 151.679688 -164.878906 158.398438 -163.945312 164.734375 -161.375 C 171.078125 -158.8125 176.40625 -154.796875 180.71875 -149.328125 C 185.039062 -143.867188 187.75 -137.097656 188.84375 -129.015625 C 189.28125 -125.953125 189.796875 -121.820312 190.390625 -116.625 C 190.992188 -111.4375 191.675781 -105.78125 192.4375 -99.65625 C 193.207031 -93.539062 193.945312 -87.453125 194.65625 -81.390625 C 195.375 -75.328125 196.003906 -69.890625 196.546875 -65.078125 C 197.640625 -55.785156 198.675781 -46.929688 199.65625 -38.515625 C 200.644531 -30.109375 201.6875 -21.257812 202.78125 -11.96875 C 199.175781 -7.375 195.078125 -3.929688 190.484375 -1.640625 C 185.890625 0.648438 181.1875 1.878906 176.375 2.046875 C 171.570312 2.210938 167.039062 1.394531 162.78125 -0.40625 C 158.519531 -2.207031 154.96875 -4.910156 152.125 -8.515625 C 149.28125 -12.128906 147.585938 -16.554688 147.046875 -21.796875 C 146.492188 -26.710938 146.132812 -31 145.96875 -34.65625 C 145.8125 -38.320312 145.703125 -41.929688 145.640625 -45.484375 C 145.585938 -49.035156 145.535156 -53 145.484375 -57.375 C 145.429688 -61.75 145.296875 -67.050781 145.078125 -73.28125 C 144.859375 -73.382812 144.472656 -73.4375 143.921875 -73.4375 C 143.597656 -71.6875 143.269531 -69.992188 142.9375 -68.359375 C 142.613281 -66.722656 142.234375 -65.03125 141.796875 -63.28125 C 139.609375 -53.769531 137.394531 -44.234375 135.15625 -34.671875 C 132.914062 -25.109375 130.59375 -15.570312 128.1875 -6.0625 C 126 -4.75 123.046875 -3.570312 119.328125 -2.53125 C 115.617188 -1.5 111.578125 -0.925781 107.203125 -0.8125 C 102.835938 -0.707031 98.550781 -1.226562 94.34375 -2.375 C 90.132812 -3.519531 86.390625 -5.625 83.109375 -8.6875 C 79.828125 -11.75 77.53125 -15.957031 76.21875 -21.3125 C 75.238281 -25.25 74.09375 -29.972656 72.78125 -35.484375 C 71.46875 -41.003906 70.179688 -46.523438 68.921875 -52.046875 C 67.671875 -57.566406 66.523438 -62.429688 65.484375 -66.640625 C 64.453125 -70.847656 63.660156 -73.660156 63.109375 -75.078125 C 62.566406 -66.773438 62.019531 -58.878906 61.46875 -51.390625 C 60.925781 -43.898438 60.40625 -36.382812 59.90625 -28.84375 C 59.414062 -21.3125 58.898438 -13.28125 58.359375 -4.75 C 53.003906 -1.90625 47.59375 0.03125 42.125 1.0625 C 36.664062 2.101562 31.472656 2.050781 26.546875 0.90625 C 21.628906 -0.238281 17.421875 -2.585938 13.921875 -6.140625 C 10.429688 -9.691406 7.945312 -14.632812 6.46875 -20.96875 C 5 -27.3125 4.921875 -35.128906 6.234375 -44.421875 C 7.546875 -54.148438 9.265625 -64.015625 11.390625 -74.015625 C 13.523438 -84.015625 15.359375 -93.820312 16.890625 -103.4375 C 18.410156 -112.507812 19.988281 -121.578125 21.625 -130.640625 C 23.269531 -139.710938 24.859375 -148.734375 26.390625 -157.703125 C 28.898438 -160.097656 32.367188 -162.035156 36.796875 -163.515625 C 41.222656 -164.992188 46.054688 -165.757812 51.296875 -165.8125 C 56.546875 -165.863281 61.765625 -165.015625 66.953125 -163.265625 C 72.148438 -161.523438 76.769531 -158.628906 80.8125 -154.578125 C 84.851562 -150.535156 87.804688 -145.128906 89.671875 -138.359375 C 90.765625 -134.640625 91.910156 -130.179688 93.109375 -124.984375 C 94.304688 -119.796875 95.5625 -114.441406 96.875 -108.921875 C 98.1875 -103.410156 99.445312 -98.085938 100.65625 -92.953125 C 100.757812 -92.734375 100.945312 -91.9375 101.21875 -90.5625 C 101.5 -89.195312 101.859375 -87.640625 102.296875 -85.890625 C 102.734375 -84.148438 103.085938 -82.59375 103.359375 -81.21875 C 103.628906 -79.851562 103.820312 -79.0625 103.9375 -78.84375 C 104.144531 -78.84375 104.300781 -78.84375 104.40625 -78.84375 C 104.519531 -78.84375 104.632812 -78.84375 104.75 -78.84375 Z M 104.75 -78.84375 "/></g></g></g><g fill="#fb6ea4" fill-opacity="1"><g transform="translate(210.43857, 268.250064)"><g><path d="M 2.453125 -49.5 C 3.765625 -56.0625 5.484375 -63.410156 7.609375 -71.546875 C 9.742188 -79.691406 12.148438 -88.050781 14.828125 -96.625 C 17.515625 -105.207031 20.25 -113.515625 23.03125 -121.546875 C 25.820312 -129.578125 28.554688 -136.925781 31.234375 -143.59375 C 33.910156 -150.257812 36.285156 -155.617188 38.359375 -159.671875 C 42.835938 -161.191406 48.191406 -162.609375 54.421875 -163.921875 C 60.648438 -165.234375 67.257812 -165.972656 74.25 -166.140625 C 81.25 -166.304688 88.191406 -165.40625 95.078125 -163.4375 C 101.960938 -161.46875 108.300781 -157.96875 114.09375 -152.9375 C 119.882812 -147.914062 124.640625 -140.867188 128.359375 -131.796875 C 130.109375 -127.421875 132.128906 -121.816406 134.421875 -114.984375 C 136.710938 -108.160156 139.113281 -100.59375 141.625 -92.28125 C 144.144531 -83.976562 146.601562 -75.425781 149 -66.625 C 151.40625 -57.832031 153.617188 -49.253906 155.640625 -40.890625 C 157.671875 -32.535156 159.285156 -24.914062 160.484375 -18.03125 C 160.160156 -15.082031 158.628906 -12.160156 155.890625 -9.265625 C 153.160156 -6.367188 149.691406 -3.910156 145.484375 -1.890625 C 141.273438 0.128906 136.738281 1.46875 131.875 2.125 C 127.007812 2.78125 122.171875 2.398438 117.359375 0.984375 C 112.554688 -0.429688 108.210938 -3.21875 104.328125 -7.375 C 100.453125 -11.53125 97.421875 -17.320312 95.234375 -24.75 C 90.097656 -24.96875 84.742188 -25.019531 79.171875 -24.90625 C 73.597656 -24.800781 68.191406 -24.804688 62.953125 -24.921875 C 61.523438 -21.523438 60.179688 -17.804688 58.921875 -13.765625 C 57.671875 -9.722656 56.445312 -5.570312 55.25 -1.3125 C 45.1875 2.40625 36.441406 3.742188 29.015625 2.703125 C 21.585938 1.660156 15.601562 -1.207031 11.0625 -5.90625 C 6.53125 -10.601562 3.523438 -16.722656 2.046875 -24.265625 C 0.578125 -31.804688 0.710938 -40.21875 2.453125 -49.5 Z M 69.34375 -71.796875 C 72.84375 -71.796875 76.226562 -71.796875 79.5 -71.796875 C 82.78125 -71.796875 86.113281 -71.796875 89.5 -71.796875 C 87.96875 -78.460938 86.382812 -85.046875 84.75 -91.546875 C 83.113281 -98.054688 81.53125 -104.585938 80 -111.140625 C 79.664062 -111.035156 79.171875 -110.984375 78.515625 -110.984375 C 77.097656 -104.535156 75.597656 -98.085938 74.015625 -91.640625 C 72.429688 -85.191406 70.875 -78.578125 69.34375 -71.796875 Z M 69.34375 -71.796875 "/></g></g></g></svg>