<svg xmlns="http://www.w3.org/2000/svg" xmlns:xlink="http://www.w3.org/1999/xlink" width="500" zoomAndPan="magnify" viewBox="0 0 375 374.999991" height="500" preserveAspectRatio="xMidYMid meet" version="1.0"><defs><g/></defs><path stroke-linecap="butt" transform="matrix(0.680526, 0, 0, 0.680526, -24.199608, 55.925944)" fill="none" stroke-linejoin="miter" d="M 210.26416 196.171538 C 210.556902 195.350712 210.820944 194.558586 211.056286 193.78942 C 211.349028 192.968593 211.55567 192.233868 211.676211 191.585243 C 215.37854 175.530337 219.115309 159.561532 222.880778 143.684567 C 226.640508 127.750202 230.377277 111.752697 234.079606 95.697791 C 234.728231 93.459174 235.491657 91.168896 236.375624 88.815477 C 237.259591 86.462059 238.023017 84.07994 238.671642 81.669121 C 248.314918 75.435433 258.342776 71.790504 268.749478 70.728596 C 279.21932 69.672427 289.097937 71.055778 298.39107 74.878648 C 307.741603 78.638378 315.565284 84.550624 321.856374 92.609647 C 328.210604 100.60553 332.205675 110.547288 333.853068 122.423441 C 334.501693 126.894936 335.265119 132.950683 336.149086 140.596423 C 337.027313 148.242163 338.03182 156.565228 339.145389 165.559879 C 340.264698 174.560269 341.320866 183.526219 342.319634 192.469209 C 343.381542 201.349059 344.32291 209.316241 345.143736 216.376497 C 346.733729 230.020584 348.260581 243.044746 349.730032 255.454723 C 351.205224 267.80156 352.732076 280.802761 354.322068 294.446848 C 349.024007 301.151221 342.996959 306.208201 336.235186 309.617787 C 329.473413 312.969973 322.562399 314.766608 315.502144 315.001949 C 308.447629 315.237291 301.771956 314.026142 295.480867 311.379981 C 289.247178 308.73382 284.040957 304.767449 279.867945 299.475128 C 275.689192 294.182806 273.192273 287.679335 272.365706 279.976195 C 271.60228 272.743738 271.102896 266.452649 270.867554 261.097187 C 270.632212 255.690065 270.454271 250.369043 270.33947 245.134122 C 270.28207 239.899201 270.190229 234.078795 270.075428 227.667165 C 270.012288 221.255535 269.840086 213.466294 269.547344 204.287962 C 269.191461 204.173161 268.634677 204.110021 267.871251 204.110021 C 267.337427 206.64138 266.838043 209.1096 266.367359 211.520419 C 265.896675 213.931238 265.339891 216.433897 264.691266 219.022657 C 261.459621 233.016887 258.193535 247.045557 254.898749 261.097187 C 251.609703 275.097157 248.194377 289.091386 244.669989 303.091356 C 241.490004 305.031491 237.16775 306.764985 231.697487 308.297577 C 226.232965 309.824429 220.292018 310.673955 213.880388 310.851897 C 207.468758 310.972438 201.148968 310.209012 194.915279 308.561619 C 188.738991 306.856826 183.240028 303.768681 178.41839 299.297186 C 173.654153 294.768291 170.301966 288.563302 168.361831 280.682221 C 166.89238 274.919215 165.187586 267.979501 163.247451 259.863077 C 161.364716 251.746654 159.481982 243.63597 157.599247 235.519547 C 155.773913 227.403123 154.097819 220.256767 152.570968 214.080479 C 151.044116 207.90419 149.867406 203.759878 149.04084 201.641801 C 148.277414 213.873837 147.485288 225.491688 146.658721 236.489614 C 145.837895 247.48754 145.074469 258.542867 144.368443 269.655594 C 143.662418 280.710921 142.898992 292.506713 142.072425 305.031491 C 134.191344 309.204504 126.224161 312.057306 118.165138 313.589898 C 110.169255 315.11675 102.552216 315.03065 95.319759 313.325856 C 88.087302 311.615323 81.911014 308.177036 76.796634 302.999515 C 71.676514 297.770334 68.031585 290.503437 65.856108 281.210305 C 63.680631 271.859771 63.56009 260.362461 65.500225 246.718374 C 67.446101 232.431403 69.97172 217.932049 73.088565 203.231794 C 76.205409 188.525799 78.88027 174.118286 81.118888 160.003515 C 83.351765 146.657911 85.676483 133.335266 88.087302 120.041322 C 90.498121 106.695717 92.85154 93.430474 95.141818 80.25707 C 98.786746 76.726943 103.878166 73.87988 110.404597 71.698663 C 116.931028 69.523186 124.048684 68.409617 131.751824 68.346477 C 139.454965 68.289077 147.100705 69.557626 154.689044 72.140647 C 162.334784 74.672007 169.125257 78.90816 175.066204 84.843366 C 181.00715 90.784313 185.358104 98.722795 188.119066 108.664553 C 189.709058 114.134816 191.385152 120.689947 193.147345 128.335687 C 194.915279 135.981427 196.769314 143.862509 198.709449 151.978932 C 200.649584 160.032215 202.503619 167.855897 204.265813 175.444236 C 204.380613 175.736978 204.644655 176.884987 205.057939 178.882523 C 205.471222 180.880059 205.999306 183.176077 206.647931 185.764837 C 207.296556 188.353597 207.82464 190.643875 208.232184 192.647151 C 208.645467 194.644686 208.909509 195.821396 209.03005 196.171538 C 209.380193 196.171538 209.615534 196.171538 209.736075 196.171538 C 209.908277 196.171538 210.086218 196.171538 210.26416 196.171538 Z M 376.20886 256.33869 C 375.916117 250.868427 375.680775 243.515429 375.502834 234.279697 C 375.324893 225.049705 375.238792 214.700404 375.238792 203.231794 C 375.238792 191.763184 375.359333 179.881291 375.588935 167.591855 C 375.824277 155.302418 376.151459 143.213884 376.564742 131.33773 C 376.972286 119.455837 377.442969 108.457911 377.971053 98.343952 C 378.562278 88.224253 379.268304 79.786387 380.08913 73.024614 C 388.090753 72.261188 397.820129 71.669963 409.288739 71.26242 C 420.814749 70.849137 433.167326 70.556394 446.340729 70.378453 C 459.514132 70.200512 472.716236 70.257912 485.947039 70.556394 C 499.183583 70.791736 511.708361 71.141879 523.527114 71.612563 C 535.351606 72.083246 545.494266 72.640031 553.960832 73.288656 C 555.436024 75.349332 556.727534 78.552277 557.846843 82.903231 C 558.960411 87.254185 559.551636 92.167664 559.609036 97.637926 C 559.723837 103.108189 559.052252 108.664553 557.582801 114.307017 C 556.170749 119.897821 553.63939 125.098302 549.994461 129.925679 C 546.406933 134.747317 541.436054 138.598887 535.087564 141.48039 C 528.733335 144.361893 520.737452 145.802644 511.088436 145.802644 C 507.914191 145.802644 504.946588 145.802644 502.179886 145.802644 C 499.476325 145.802644 496.416881 145.802644 493.007295 145.802644 C 489.655108 145.802644 485.476356 145.802644 480.482517 145.802644 C 475.540338 145.802644 469.214808 145.802644 461.511668 145.802644 C 461.511668 147.742779 461.511668 149.711614 461.511668 151.71489 C 461.511668 153.712426 461.511668 155.916603 461.511668 158.327422 C 465.041796 158.327422 469.892134 158.241321 476.068422 158.06338 C 482.24471 157.885438 488.949083 157.799338 496.181539 157.799338 C 503.413996 157.799338 510.531652 158.12078 517.528767 158.769405 C 524.525882 159.41803 530.587369 160.566039 535.701749 162.207692 C 540.523387 172.798075 542.526663 182.676693 541.700096 191.849285 C 540.93667 200.964476 537.377842 208.438015 531.029353 214.25842 C 524.675123 220.021425 515.559931 223.22437 503.678038 223.872995 C 499.619826 223.987796 495.831397 224.050937 492.301269 224.050937 C 488.771141 224.050937 484.684229 224.022237 480.040533 223.959096 C 475.391097 223.901696 469.306649 223.872995 461.77571 223.872995 C 461.77571 226.404355 461.77571 228.843874 461.77571 231.197293 C 461.77571 233.487571 461.77571 235.92709 461.77571 238.51585 C 462.544876 238.51585 463.394403 238.51585 464.33577 238.51585 C 465.334538 238.51585 466.304605 238.51585 467.245973 238.51585 C 480.126634 238.51585 493.007295 238.51585 505.887956 238.51585 C 518.826017 238.51585 531.735378 238.51585 544.610299 238.51585 C 549.259735 244.92748 552.227339 252.045136 553.524589 259.863077 C 554.816099 267.629358 554.259315 275.211958 551.848496 282.622356 C 549.431937 289.975353 544.845641 296.358283 538.083868 301.765406 C 531.379495 307.120868 522.321704 310.530454 510.916235 311.999906 C 506.858023 312.47059 501.416461 312.912573 494.591547 313.325856 C 487.772374 313.733399 480.275875 313.968741 472.102051 314.026142 C 463.922487 314.146683 455.777363 314.117982 447.660939 313.940041 C 439.550256 313.7621 432.225958 313.440657 425.699527 312.969973 C 419.230497 312.49929 414.230917 311.850665 410.70079 311.029838 C 399.467522 308.148336 391.144457 302.414031 385.737334 293.826924 C 380.387612 285.239816 377.207627 272.743738 376.20886 256.33869 Z M 376.20886 256.33869 " stroke="#806600" stroke-width="13.550025" stroke-opacity="1" stroke-miterlimit="4"/><g fill="#ffde59" fill-opacity="1"><g transform="translate(14.133147, 268.250064)"><g><path d="M 104.75 -78.84375 C 104.96875 -79.394531 105.15625 -79.941406 105.3125 -80.484375 C 105.476562 -81.035156 105.617188 -81.53125 105.734375 -81.96875 C 108.242188 -92.894531 110.78125 -103.765625 113.34375 -114.578125 C 115.914062 -125.398438 118.460938 -136.273438 120.984375 -147.203125 C 121.421875 -148.734375 121.9375 -150.289062 122.53125 -151.875 C 123.132812 -153.457031 123.65625 -155.070312 124.09375 -156.71875 C 130.644531 -160.976562 137.472656 -163.460938 144.578125 -164.171875 C 151.679688 -164.878906 158.398438 -163.945312 164.734375 -161.375 C 171.078125 -158.8125 176.40625 -154.796875 180.71875 -149.328125 C 185.039062 -143.867188 187.75 -137.097656 188.84375 -129.015625 C 189.28125 -125.953125 189.796875 -121.820312 190.390625 -116.625 C 190.992188 -111.4375 191.675781 -105.78125 192.4375 -99.65625 C 193.207031 -93.539062 193.945312 -87.453125 194.65625 -81.390625 C 195.375 -75.328125 196.003906 -69.890625 196.546875 -65.078125 C 197.640625 -55.785156 198.675781 -46.929688 199.65625 -38.515625 C 200.644531 -30.109375 201.6875 -21.257812 202.78125 -11.96875 C 199.175781 -7.375 195.078125 -3.929688 190.484375 -1.640625 C 185.890625 0.648438 181.1875 1.878906 176.375 2.046875 C 171.570312 2.210938 167.039062 1.394531 162.78125 -0.40625 C 158.519531 -2.207031 154.96875 -4.910156 152.125 -8.515625 C 149.28125 -12.128906 147.585938 -16.554688 147.046875 -21.796875 C 146.492188 -26.710938 146.132812 -31 145.96875 -34.65625 C 145.8125 -38.320312 145.703125 -41.929688 145.640625 -45.484375 C 145.585938 -49.035156 145.535156 -53 145.484375 -57.375 C 145.429688 -61.75 145.296875 -67.050781 145.078125 -73.28125 C 144.859375 -73.382812 144.472656 -73.4375 143.921875 -73.4375 C 143.597656 -71.6875 143.269531 -69.992188 142.9375 -68.359375 C 142.613281 -66.722656 142.234375 -65.03125 141.796875 -63.28125 C 139.609375 -53.769531 137.394531 -44.234375 135.15625 -34.671875 C 132.914062 -25.109375 130.59375 -15.570312 128.1875 -6.0625 C 126 -4.75 123.046875 -3.570312 119.328125 -2.53125 C 115.617188 -1.5 111.578125 -0.925781 107.203125 -0.8125 C 102.835938 -0.707031 98.550781 -1.226562 94.34375 -2.375 C 90.132812 -3.519531 86.390625 -5.625 83.109375 -8.6875 C 79.828125 -11.75 77.53125 -15.957031 76.21875 -21.3125 C 75.238281 -25.25 74.09375 -29.972656 72.78125 -35.484375 C 71.46875 -41.003906 70.179688 -46.523438 68.921875 -52.046875 C 67.671875 -57.566406 66.523438 -62.429688 65.484375 -66.640625 C 64.453125 -70.847656 63.660156 -73.660156 63.109375 -75.078125 C 62.566406 -66.773438 62.019531 -58.878906 61.46875 -51.390625 C 60.925781 -43.898438 60.40625 -36.382812 59.90625 -28.84375 C 59.414062 -21.3125 58.898438 -13.28125 58.359375 -4.75 C 53.003906 -1.90625 47.59375 0.03125 42.125 1.0625 C 36.664062 2.101562 31.472656 2.050781 26.546875 0.90625 C 21.628906 -0.238281 17.421875 -2.585938 13.921875 -6.140625 C 10.429688 -9.691406 7.945312 -14.632812 6.46875 -20.96875 C 5 -27.3125 4.921875 -35.128906 6.234375 -44.421875 C 7.546875 -54.148438 9.265625 -64.015625 11.390625 -74.015625 C 13.523438 -84.015625 15.359375 -93.820312 16.890625 -103.4375 C 18.410156 -112.507812 19.988281 -121.578125 21.625 -130.640625 C 23.269531 -139.710938 24.859375 -148.734375 26.390625 -157.703125 C 28.898438 -160.097656 32.367188 -162.035156 36.796875 -163.515625 C 41.222656 -164.992188 46.054688 -165.757812 51.296875 -165.8125 C 56.546875 -165.863281 61.765625 -165.015625 66.953125 -163.265625 C 72.148438 -161.523438 76.769531 -158.628906 80.8125 -154.578125 C 84.851562 -150.535156 87.804688 -145.128906 89.671875 -138.359375 C 90.765625 -134.640625 91.910156 -130.179688 93.109375 -124.984375 C 94.304688 -119.796875 95.5625 -114.441406 96.875 -108.921875 C 98.1875 -103.410156 99.445312 -98.085938 100.65625 -92.953125 C 100.757812 -92.734375 100.945312 -91.9375 101.21875 -90.5625 C 101.5 -89.195312 101.859375 -87.640625 102.296875 -85.890625 C 102.734375 -84.148438 103.085938 -82.59375 103.359375 -81.21875 C 103.628906 -79.851562 103.820312 -79.0625 103.9375 -78.84375 C 104.144531 -78.84375 104.300781 -78.84375 104.40625 -78.84375 C 104.519531 -78.84375 104.632812 -78.84375 104.75 -78.84375 Z M 104.75 -78.84375 "/></g></g></g><g fill="#ffde59" fill-opacity="1"><g transform="translate(222.815637, 268.250064)"><g><path d="M 9.015625 -37.859375 C 8.796875 -41.578125 8.628906 -46.578125 8.515625 -52.859375 C 8.410156 -59.148438 8.359375 -66.203125 8.359375 -74.015625 C 8.359375 -81.828125 8.441406 -89.910156 8.609375 -98.265625 C 8.773438 -106.628906 8.992188 -114.851562 9.265625 -122.9375 C 9.535156 -131.03125 9.859375 -138.519531 10.234375 -145.40625 C 10.617188 -152.289062 11.085938 -158.023438 11.640625 -162.609375 C 17.097656 -163.160156 23.734375 -163.570312 31.546875 -163.84375 C 39.367188 -164.113281 47.757812 -164.300781 56.71875 -164.40625 C 65.675781 -164.519531 74.660156 -164.492188 83.671875 -164.328125 C 92.691406 -164.171875 101.21875 -163.925781 109.25 -163.59375 C 117.289062 -163.269531 124.207031 -162.890625 130 -162.453125 C 130.976562 -161.035156 131.847656 -158.847656 132.609375 -155.890625 C 133.378906 -152.941406 133.789062 -149.609375 133.84375 -145.890625 C 133.894531 -142.179688 133.429688 -138.410156 132.453125 -134.578125 C 131.472656 -130.753906 129.75 -127.203125 127.28125 -123.921875 C 124.820312 -120.648438 121.4375 -118.03125 117.125 -116.0625 C 112.8125 -114.09375 107.375 -113.109375 100.8125 -113.109375 C 98.625 -113.109375 96.601562 -113.109375 94.75 -113.109375 C 92.894531 -113.109375 90.816406 -113.109375 88.515625 -113.109375 C 86.222656 -113.109375 83.382812 -113.109375 80 -113.109375 C 76.613281 -113.109375 72.296875 -113.109375 67.046875 -113.109375 C 67.046875 -111.796875 67.046875 -110.457031 67.046875 -109.09375 C 67.046875 -107.726562 67.046875 -106.222656 67.046875 -104.578125 C 69.453125 -104.578125 72.757812 -104.628906 76.96875 -104.734375 C 81.175781 -104.847656 85.738281 -104.90625 90.65625 -104.90625 C 95.570312 -104.90625 100.40625 -104.6875 105.15625 -104.25 C 109.914062 -103.820312 114.039062 -103.0625 117.53125 -101.96875 C 120.8125 -94.75 122.175781 -88.023438 121.625 -81.796875 C 121.082031 -75.566406 118.648438 -70.484375 114.328125 -66.546875 C 110.015625 -62.617188 103.816406 -60.4375 95.734375 -60 C 93.003906 -59.882812 90.4375 -59.828125 88.03125 -59.828125 C 85.625 -59.828125 82.835938 -59.851562 79.671875 -59.90625 C 76.503906 -59.96875 72.347656 -60 67.203125 -60 C 67.203125 -58.25 67.203125 -56.582031 67.203125 -55 C 67.203125 -53.414062 67.203125 -51.75 67.203125 -50 C 67.753906 -50 68.359375 -50 69.015625 -50 C 69.671875 -50 70.328125 -50 70.984375 -50 C 79.722656 -50 88.488281 -50 97.28125 -50 C 106.082031 -50 114.851562 -50 123.59375 -50 C 126.769531 -45.625 128.796875 -40.785156 129.671875 -35.484375 C 130.546875 -30.191406 130.160156 -25.03125 128.515625 -20 C 126.878906 -14.96875 123.765625 -10.617188 119.171875 -6.953125 C 114.585938 -3.296875 108.414062 -0.976562 100.65625 0 C 97.914062 0.320312 94.222656 0.617188 89.578125 0.890625 C 84.941406 1.171875 79.835938 1.335938 74.265625 1.390625 C 68.691406 1.441406 63.144531 1.410156 57.625 1.296875 C 52.101562 1.191406 47.128906 0.972656 42.703125 0.640625 C 38.273438 0.316406 34.859375 -0.113281 32.453125 -0.65625 C 24.804688 -2.625 19.148438 -6.53125 15.484375 -12.375 C 11.828125 -18.21875 9.671875 -26.710938 9.015625 -37.859375 Z M 9.015625 -37.859375 "/></g></g></g></svg>