<svg xmlns="http://www.w3.org/2000/svg" xmlns:xlink="http://www.w3.org/1999/xlink" width="500" zoomAndPan="magnify" viewBox="0 0 375 374.999991" height="500" preserveAspectRatio="xMidYMid meet" version="1.0"><defs><g/></defs><path stroke-linecap="butt" transform="matrix(0.75, 0, 0, 0.75, 90.540541, 2.967539)" fill="none" stroke-linejoin="miter" d="M 16.893863 327.069345 C 16.518863 320.100594 16.21678 310.730802 15.992821 298.965176 C 15.768863 287.19955 15.65428 274.01205 15.65428 259.397465 C 15.65428 244.788089 15.805321 229.647463 16.107405 213.986004 C 16.40428 198.324545 16.815738 182.923502 17.34178 167.782876 C 17.867822 152.647458 18.46678 138.631832 19.138655 125.741206 C 19.888655 112.855789 20.789697 102.10058 21.836572 93.480788 C 32.029281 92.506829 44.435532 91.756829 59.044908 91.235996 C 73.732409 90.709954 89.471993 90.334954 106.258452 90.110996 C 123.044912 89.887037 139.86783 89.959954 156.732414 90.334954 C 173.59179 90.637037 189.555333 91.084954 204.617834 91.683913 C 219.680335 92.282871 232.607419 92.996413 243.399086 93.819329 C 245.274087 96.44433 246.91992 100.527663 248.341795 106.074538 C 249.768878 111.616206 250.518879 117.876623 250.591795 124.845373 C 250.742837 131.814123 249.878253 138.897457 248.008462 146.090166 C 246.206378 153.209958 242.987628 159.840167 238.341794 165.986001 C 233.768877 172.131834 227.435544 177.038085 219.341793 180.70996 C 211.248043 184.381835 201.055334 186.220377 188.768874 186.220377 C 184.721999 186.220377 180.935541 186.220377 177.414707 186.220377 C 173.96679 186.220377 170.070957 186.220377 165.721998 186.220377 C 161.451164 186.220377 156.128247 186.220377 149.758455 186.220377 C 143.466788 186.220377 135.409496 186.220377 125.591787 186.220377 C 125.591787 188.694336 125.591787 191.204752 125.591787 193.751628 C 125.591787 196.298503 125.591787 199.111003 125.591787 202.18392 C 130.091787 202.18392 136.274079 202.069336 144.138663 201.845378 C 152.008455 201.62142 160.550123 201.506836 169.768873 201.506836 C 178.987624 201.506836 188.055333 201.918295 196.972 202.74642 C 205.888667 203.569337 213.607418 205.02767 220.128252 207.126628 C 226.274085 220.616213 228.82096 233.209963 227.774085 244.897464 C 226.800127 256.512048 222.263668 266.032882 214.169918 273.449549 C 206.076167 280.7933 194.461583 284.876634 179.326166 285.704759 C 174.15429 285.850592 169.320957 285.928717 164.826165 285.928717 C 160.326164 285.928717 155.117831 285.892259 149.201164 285.814134 C 143.279288 285.741217 135.524079 285.704759 125.930329 285.704759 C 125.930329 288.923509 125.930329 292.032884 125.930329 295.032884 C 125.930329 297.954759 125.930329 301.064135 125.930329 304.36101 C 126.904287 304.36101 127.992829 304.36101 129.190746 304.36101 C 130.461579 304.36101 131.701162 304.36101 132.899079 304.36101 C 149.310539 304.36101 165.721998 304.36101 182.133457 304.36101 C 198.623042 304.36101 215.07096 304.36101 231.482419 304.36101 C 237.404294 312.532885 241.185545 321.600594 242.836586 331.564137 C 244.48242 341.459971 243.774086 351.126638 240.70117 360.569347 C 237.628253 369.933931 231.784502 378.06414 223.16471 384.959973 C 214.623043 391.777682 203.081375 396.126641 188.539708 398.001641 C 183.373041 398.600599 176.440749 399.163099 167.74804 399.683933 C 159.055331 400.209974 149.498039 400.512058 139.081371 400.584974 C 128.664704 400.736016 118.284495 400.699558 107.945952 400.475599 C 97.602202 400.246433 88.274076 399.834974 79.956367 399.236016 C 71.711575 398.637058 65.341783 397.814141 60.846991 396.762058 C 46.529282 393.090182 35.925114 385.78289 29.034489 374.845389 C 22.211572 363.90268 18.164697 347.975596 16.893863 327.069345 Z M 16.893863 327.069345 " stroke="#800000" stroke-width="17.266237" stroke-opacity="1" stroke-miterlimit="4"/><g fill="#ff3131" fill-opacity="1"><g transform="translate(90.563978, 301.467519)"><g><path d="M 12.65625 -53.1875 C 12.351562 -58.40625 12.125 -65.425781 11.96875 -74.25 C 11.8125 -83.070312 11.734375 -92.96875 11.734375 -103.9375 C 11.734375 -114.914062 11.847656 -126.273438 12.078125 -138.015625 C 12.316406 -149.753906 12.625 -161.300781 13 -172.65625 C 13.382812 -184.019531 13.84375 -194.535156 14.375 -204.203125 C 14.914062 -213.867188 15.570312 -221.925781 16.34375 -228.375 C 24.019531 -229.144531 33.34375 -229.71875 44.3125 -230.09375 C 55.289062 -230.476562 67.070312 -230.75 79.65625 -230.90625 C 92.238281 -231.0625 104.859375 -231.023438 117.515625 -230.796875 C 130.179688 -230.566406 142.15625 -230.21875 153.4375 -229.75 C 164.71875 -229.289062 174.425781 -228.753906 182.5625 -228.140625 C 183.945312 -226.148438 185.175781 -223.082031 186.25 -218.9375 C 187.320312 -214.789062 187.894531 -210.109375 187.96875 -204.890625 C 188.050781 -199.671875 187.398438 -194.375 186.015625 -189 C 184.628906 -183.632812 182.207031 -178.648438 178.75 -174.046875 C 175.300781 -169.441406 170.546875 -165.753906 164.484375 -162.984375 C 158.421875 -160.222656 150.785156 -158.84375 141.578125 -158.84375 C 138.515625 -158.84375 135.675781 -158.84375 133.0625 -158.84375 C 130.457031 -158.84375 127.539062 -158.84375 124.3125 -158.84375 C 121.09375 -158.84375 117.101562 -158.84375 112.34375 -158.84375 C 107.582031 -158.84375 101.519531 -158.84375 94.15625 -158.84375 C 94.15625 -157.007812 94.15625 -155.128906 94.15625 -153.203125 C 94.15625 -151.285156 94.15625 -149.175781 94.15625 -146.875 C 97.53125 -146.875 102.171875 -146.953125 108.078125 -147.109375 C 113.992188 -147.265625 120.40625 -147.34375 127.3125 -147.34375 C 134.21875 -147.34375 141.007812 -147.035156 147.6875 -146.421875 C 154.363281 -145.804688 160.15625 -144.734375 165.0625 -143.203125 C 169.664062 -133.066406 171.582031 -123.625 170.8125 -114.875 C 170.050781 -106.125 166.640625 -98.988281 160.578125 -93.46875 C 154.515625 -87.945312 145.804688 -84.878906 134.453125 -84.265625 C 130.609375 -84.109375 127 -84.03125 123.625 -84.03125 C 120.25 -84.03125 116.332031 -84.066406 111.875 -84.140625 C 107.425781 -84.222656 101.597656 -84.265625 94.390625 -84.265625 C 94.390625 -81.804688 94.390625 -79.460938 94.390625 -77.234375 C 94.390625 -75.015625 94.390625 -72.675781 94.390625 -70.21875 C 95.160156 -70.21875 96.003906 -70.21875 96.921875 -70.21875 C 97.835938 -70.21875 98.757812 -70.21875 99.6875 -70.21875 C 111.96875 -70.21875 124.285156 -70.21875 136.640625 -70.21875 C 148.992188 -70.21875 161.304688 -70.21875 173.578125 -70.21875 C 178.035156 -64.082031 180.875 -57.289062 182.09375 -49.84375 C 183.320312 -42.394531 182.785156 -35.140625 180.484375 -28.078125 C 178.179688 -21.023438 173.804688 -14.925781 167.359375 -9.78125 C 160.921875 -4.644531 152.253906 -1.382812 141.359375 0 C 137.515625 0.457031 132.332031 0.878906 125.8125 1.265625 C 119.289062 1.648438 112.113281 1.878906 104.28125 1.953125 C 96.457031 2.035156 88.671875 2 80.921875 1.84375 C 73.171875 1.6875 66.1875 1.378906 59.96875 0.921875 C 53.75 0.460938 48.953125 -0.148438 45.578125 -0.921875 C 34.835938 -3.679688 26.894531 -9.164062 21.75 -17.375 C 16.613281 -25.59375 13.582031 -37.53125 12.65625 -53.1875 Z M 12.65625 -53.1875 "/></g></g></g></svg>