<svg xmlns="http://www.w3.org/2000/svg" xmlns:xlink="http://www.w3.org/1999/xlink" width="500" zoomAndPan="magnify" viewBox="0 0 375 374.999991" height="500" preserveAspectRatio="xMidYMid meet" version="1.0"><defs><g/></defs><path stroke-linecap="butt" transform="matrix(0.680526, 0, 0, 0.680526, -24.199608, 55.925915)" fill="none" stroke-linejoin="miter" d="M 254.106623 196.171581 C 254.399365 195.350754 254.669147 194.558628 254.898749 193.789462 C 255.197232 192.968636 255.403873 192.23391 255.518674 191.585285 C 259.226743 175.530379 262.957772 159.561574 266.723242 143.68461 C 270.488711 127.750245 274.219741 111.752739 277.92781 95.697834 C 278.570695 93.459216 279.339861 91.168938 280.218088 88.81552 C 281.102054 86.462101 281.86548 84.079983 282.514106 81.669164 C 292.157381 75.435475 302.18524 71.790546 312.591941 70.728638 C 323.061783 69.67247 332.940401 71.055821 342.233533 74.87869 C 351.584067 78.63842 359.407748 84.550666 365.698837 92.609689 C 372.053067 100.605572 376.048138 110.54733 377.695531 122.423483 C 378.344156 126.894978 379.107582 132.950725 379.991549 140.596465 C 380.875516 148.242205 381.874284 156.56527 382.987853 165.559921 C 384.107161 174.560311 385.16907 183.526262 386.167838 192.469252 C 387.224006 201.349101 388.165373 209.316284 388.9862 216.376539 C 390.576192 230.020626 392.103044 243.044788 393.578236 255.454765 C 395.047687 267.801602 396.574539 280.802804 398.164532 294.446891 C 392.87221 301.151263 386.839423 306.208243 380.07765 309.61783 C 373.315877 312.970016 366.404863 314.76665 359.350348 315.001992 C 352.290092 315.237334 345.61442 314.026184 339.323331 311.380023 C 333.089642 308.733863 327.883421 304.767492 323.710408 299.47517 C 319.531656 294.182849 317.034736 287.679378 316.21391 279.976237 C 315.444744 272.743781 314.94536 266.452691 314.710018 261.097229 C 314.474676 255.690107 314.302475 250.369085 314.181934 245.134164 C 314.124533 239.899243 314.032692 234.078838 313.917892 227.667208 C 313.860491 221.255577 313.68255 213.466336 313.389807 204.288004 C 313.033925 204.173203 312.47714 204.110063 311.713714 204.110063 C 311.18563 206.641423 310.680506 209.109642 310.209823 211.520461 C 309.744879 213.93128 309.182354 216.433939 308.533729 219.0227 C 305.302084 233.016929 302.035998 247.045599 298.746953 261.097229 C 295.452167 275.097199 292.04258 289.091429 288.512453 303.091398 C 285.338208 305.031534 281.015954 306.765027 275.545691 308.297619 C 270.075428 309.824471 264.134482 310.673998 257.722851 310.851939 C 251.316961 310.97248 244.991432 310.209054 238.757743 308.561661 C 232.581454 306.856868 227.082491 303.768724 222.260853 299.297229 C 217.496616 294.768333 214.14443 288.563345 212.204295 280.682263 C 210.734843 274.919258 209.03005 267.979543 207.089915 259.86312 C 205.20718 251.746696 203.324445 243.630273 201.44171 235.519589 C 199.622116 227.403165 197.946023 220.256809 196.413431 214.080521 C 194.886579 207.904233 193.70987 203.75992 192.889043 201.641844 C 192.119877 213.873879 191.327751 225.49173 190.506925 236.489657 C 189.680358 247.487583 188.916932 258.542909 188.210907 269.655636 C 187.504881 280.710963 186.741455 292.506755 185.914889 305.031534 C 178.033807 309.204546 170.066625 312.057349 162.013341 313.589941 C 154.011719 315.116793 146.394679 315.030692 139.162222 313.325899 C 131.929766 311.615365 125.753477 308.177078 120.639097 302.999558 C 115.518977 297.770377 111.874049 290.50348 109.698572 281.210347 C 107.523095 271.859814 107.408294 260.362504 109.348429 246.718417 C 111.288564 232.431445 113.814184 217.932091 116.931028 203.231836 C 120.047873 188.525841 122.722734 174.118328 124.961351 160.003557 C 127.194229 146.652213 129.518947 133.335308 131.929766 120.041364 C 134.340585 106.69576 136.694003 93.430516 138.984281 80.257113 C 142.63495 76.726985 147.72063 73.879923 154.247061 71.698706 C 160.773492 69.523229 167.891148 68.40966 175.594288 68.346519 C 183.297428 68.289119 190.943168 69.557669 198.531508 72.140689 C 206.177247 74.672049 212.967721 78.908202 218.908667 84.843409 C 224.849614 90.784355 229.200568 98.722837 231.96727 108.664595 C 233.551522 114.134858 235.227615 120.689989 236.995549 128.335729 C 238.757743 135.981469 240.611777 143.862551 242.551912 151.978975 C 244.492048 160.032258 246.346082 167.855939 248.108276 175.444278 C 248.228817 175.737021 248.492859 176.88503 248.900402 178.882565 C 249.313685 180.880101 249.84177 183.176119 250.490395 185.764879 C 251.13902 188.35364 251.667104 190.643917 252.080387 192.647193 C 252.48793 194.644729 252.757712 195.821438 252.872513 196.171581 C 253.222656 196.171581 253.457998 196.171581 253.578539 196.171581 C 253.75648 196.171581 253.928682 196.171581 254.106623 196.171581 Z M 505.796115 118.365271 C 506.622681 123.129509 507.236866 130.069223 507.650149 139.184414 C 508.063433 148.242205 508.298774 158.654647 508.356175 170.415999 C 508.413575 182.119951 508.356175 194.323286 508.178233 207.026006 C 508.063433 219.665585 507.73625 232.196103 507.208166 244.60608 C 506.737482 256.952917 506.180698 268.306726 505.532073 278.656027 C 504.946588 289.005328 504.154462 297.563735 503.149954 304.325508 C 499.154883 308.619062 494.063463 311.735906 487.892915 313.676041 C 481.716626 315.616177 475.127055 316.144261 468.12994 315.266034 C 461.132825 314.382067 454.336612 311.971248 447.75278 308.027837 C 441.163208 304.090166 435.342803 298.476402 430.285823 291.180805 C 425.228844 283.890948 421.670016 274.861857 419.60934 264.099273 C 418.966455 261.039829 418.37523 255.954149 417.847146 248.836493 C 417.376462 241.661437 416.934479 233.223571 416.526935 223.517155 C 416.171053 213.759079 415.907011 203.260536 415.729069 192.027268 C 415.556868 180.794 415.493727 169.532032 415.551128 158.241364 C 415.671669 146.887555 415.87831 136.06757 416.171053 125.775669 C 416.526935 115.483769 417.05502 106.368577 417.761045 98.430095 C 418.524471 90.491613 419.465838 84.435865 420.585147 80.257113 C 425.050902 76.262041 430.521165 73.231298 436.990196 71.170621 C 443.516627 69.052545 450.398941 68.174318 457.631397 68.524461 C 464.863854 68.817203 471.803569 70.728638 478.450541 74.258766 C 485.154913 77.788893 490.946618 83.138615 495.831397 90.313671 C 500.710435 97.431327 504.033921 106.78186 505.796115 118.365271 Z M 505.796115 118.365271 " stroke="#005180" stroke-width="13.550025" stroke-opacity="1" stroke-miterlimit="4"/><g fill="#38b6ff" fill-opacity="1"><g transform="translate(43.96996, 268.250035)"><g><path d="M 104.75 -78.84375 C 104.96875 -79.394531 105.15625 -79.941406 105.3125 -80.484375 C 105.476562 -81.035156 105.617188 -81.53125 105.734375 -81.96875 C 108.242188 -92.894531 110.78125 -103.765625 113.34375 -114.578125 C 115.914062 -125.398438 118.460938 -136.273438 120.984375 -147.203125 C 121.421875 -148.734375 121.9375 -150.289062 122.53125 -151.875 C 123.132812 -153.457031 123.65625 -155.070312 124.09375 -156.71875 C 130.644531 -160.976562 137.472656 -163.460938 144.578125 -164.171875 C 151.679688 -164.878906 158.398438 -163.945312 164.734375 -161.375 C 171.078125 -158.8125 176.40625 -154.796875 180.71875 -149.328125 C 185.039062 -143.867188 187.75 -137.097656 188.84375 -129.015625 C 189.28125 -125.953125 189.796875 -121.820312 190.390625 -116.625 C 190.992188 -111.4375 191.675781 -105.78125 192.4375 -99.65625 C 193.207031 -93.539062 193.945312 -87.453125 194.65625 -81.390625 C 195.375 -75.328125 196.003906 -69.890625 196.546875 -65.078125 C 197.640625 -55.785156 198.675781 -46.929688 199.65625 -38.515625 C 200.644531 -30.109375 201.6875 -21.257812 202.78125 -11.96875 C 199.175781 -7.375 195.078125 -3.929688 190.484375 -1.640625 C 185.890625 0.648438 181.1875 1.878906 176.375 2.046875 C 171.570312 2.210938 167.039062 1.394531 162.78125 -0.40625 C 158.519531 -2.207031 154.96875 -4.910156 152.125 -8.515625 C 149.28125 -12.128906 147.585938 -16.554688 147.046875 -21.796875 C 146.492188 -26.710938 146.132812 -31 145.96875 -34.65625 C 145.8125 -38.320312 145.703125 -41.929688 145.640625 -45.484375 C 145.585938 -49.035156 145.535156 -53 145.484375 -57.375 C 145.429688 -61.75 145.296875 -67.050781 145.078125 -73.28125 C 144.859375 -73.382812 144.472656 -73.4375 143.921875 -73.4375 C 143.597656 -71.6875 143.269531 -69.992188 142.9375 -68.359375 C 142.613281 -66.722656 142.234375 -65.03125 141.796875 -63.28125 C 139.609375 -53.769531 137.394531 -44.234375 135.15625 -34.671875 C 132.914062 -25.109375 130.59375 -15.570312 128.1875 -6.0625 C 126 -4.75 123.046875 -3.570312 119.328125 -2.53125 C 115.617188 -1.5 111.578125 -0.925781 107.203125 -0.8125 C 102.835938 -0.707031 98.550781 -1.226562 94.34375 -2.375 C 90.132812 -3.519531 86.390625 -5.625 83.109375 -8.6875 C 79.828125 -11.75 77.53125 -15.957031 76.21875 -21.3125 C 75.238281 -25.25 74.09375 -29.972656 72.78125 -35.484375 C 71.46875 -41.003906 70.179688 -46.523438 68.921875 -52.046875 C 67.671875 -57.566406 66.523438 -62.429688 65.484375 -66.640625 C 64.453125 -70.847656 63.660156 -73.660156 63.109375 -75.078125 C 62.566406 -66.773438 62.019531 -58.878906 61.46875 -51.390625 C 60.925781 -43.898438 60.40625 -36.382812 59.90625 -28.84375 C 59.414062 -21.3125 58.898438 -13.28125 58.359375 -4.75 C 53.003906 -1.90625 47.59375 0.03125 42.125 1.0625 C 36.664062 2.101562 31.472656 2.050781 26.546875 0.90625 C 21.628906 -0.238281 17.421875 -2.585938 13.921875 -6.140625 C 10.429688 -9.691406 7.945312 -14.632812 6.46875 -20.96875 C 5 -27.3125 4.921875 -35.128906 6.234375 -44.421875 C 7.546875 -54.148438 9.265625 -64.015625 11.390625 -74.015625 C 13.523438 -84.015625 15.359375 -93.820312 16.890625 -103.4375 C 18.410156 -112.507812 19.988281 -121.578125 21.625 -130.640625 C 23.269531 -139.710938 24.859375 -148.734375 26.390625 -157.703125 C 28.898438 -160.097656 32.367188 -162.035156 36.796875 -163.515625 C 41.222656 -164.992188 46.054688 -165.757812 51.296875 -165.8125 C 56.546875 -165.863281 61.765625 -165.015625 66.953125 -163.265625 C 72.148438 -161.523438 76.769531 -158.628906 80.8125 -154.578125 C 84.851562 -150.535156 87.804688 -145.128906 89.671875 -138.359375 C 90.765625 -134.640625 91.910156 -130.179688 93.109375 -124.984375 C 94.304688 -119.796875 95.5625 -114.441406 96.875 -108.921875 C 98.1875 -103.410156 99.445312 -98.085938 100.65625 -92.953125 C 100.757812 -92.734375 100.945312 -91.9375 101.21875 -90.5625 C 101.5 -89.195312 101.859375 -87.640625 102.296875 -85.890625 C 102.734375 -84.148438 103.085938 -82.59375 103.359375 -81.21875 C 103.628906 -79.851562 103.820312 -79.0625 103.9375 -78.84375 C 104.144531 -78.84375 104.300781 -78.84375 104.40625 -78.84375 C 104.519531 -78.84375 104.632812 -78.84375 104.75 -78.84375 Z M 104.75 -78.84375 "/></g></g></g><g fill="#38b6ff" fill-opacity="1"><g transform="translate(252.65245, 268.250035)"><g><path d="M 67.375 -131.796875 C 67.914062 -128.515625 68.320312 -123.785156 68.59375 -117.609375 C 68.875 -111.441406 69.039062 -104.367188 69.09375 -96.390625 C 69.144531 -88.410156 69.113281 -80.101562 69 -71.46875 C 68.894531 -62.832031 68.675781 -54.304688 68.34375 -45.890625 C 68.019531 -37.484375 67.640625 -29.753906 67.203125 -22.703125 C 66.765625 -15.648438 66.222656 -9.832031 65.578125 -5.25 C 62.835938 -2.289062 59.363281 -0.160156 55.15625 1.140625 C 50.945312 2.453125 46.46875 2.804688 41.71875 2.203125 C 36.96875 1.609375 32.347656 -0.0234375 27.859375 -2.703125 C 23.378906 -5.378906 19.414062 -9.203125 15.96875 -14.171875 C 12.53125 -19.148438 10.101562 -25.300781 8.6875 -32.625 C 8.25 -34.695312 7.863281 -38.164062 7.53125 -43.03125 C 7.207031 -47.894531 6.910156 -53.628906 6.640625 -60.234375 C 6.367188 -66.847656 6.175781 -73.976562 6.0625 -81.625 C 5.957031 -89.28125 5.929688 -96.957031 5.984375 -104.65625 C 6.035156 -112.363281 6.171875 -119.710938 6.390625 -126.703125 C 6.609375 -133.703125 6.960938 -139.90625 7.453125 -145.3125 C 7.953125 -150.726562 8.582031 -154.859375 9.34375 -157.703125 C 12.40625 -160.429688 16.148438 -162.503906 20.578125 -163.921875 C 25.003906 -165.347656 29.675781 -165.953125 34.59375 -165.734375 C 39.507812 -165.515625 44.234375 -164.203125 48.765625 -161.796875 C 53.304688 -159.390625 57.242188 -155.753906 60.578125 -150.890625 C 63.910156 -146.023438 66.175781 -139.660156 67.375 -131.796875 Z M 67.375 -131.796875 "/></g></g></g></svg>