<svg xmlns="http://www.w3.org/2000/svg" xmlns:xlink="http://www.w3.org/1999/xlink" width="500" zoomAndPan="magnify" viewBox="0 0 375 374.999991" height="500" preserveAspectRatio="xMidYMid meet" version="1.0"><defs><g/></defs><path stroke-linecap="butt" transform="matrix(0.75, 0, 0, 0.75, -24.199608, 57.625544)" fill="none" stroke-linejoin="miter" d="M 168.833864 166.165952 C 169.083864 165.473244 169.307822 164.801369 169.505739 164.155535 C 169.755739 163.457618 169.927614 162.837827 170.026572 162.290952 C 173.156781 148.728451 176.313031 135.244075 179.490114 121.832616 C 182.667198 108.369073 185.823448 94.858656 188.953657 81.296155 C 189.500532 79.410738 190.146365 77.473238 190.891157 75.483654 C 191.635948 73.499279 192.281782 71.488862 192.828657 69.452404 C 200.974491 64.186779 209.443241 61.103445 218.234909 60.21282 C 227.078659 59.316987 235.42241 60.483653 243.271369 63.71282 C 251.172411 66.889904 257.776578 71.884696 263.094286 78.68678 C 268.45887 85.447197 271.83387 93.837822 273.224495 103.874281 C 273.771371 107.650323 274.417204 112.764907 275.161996 119.223241 C 275.906787 125.681574 276.755746 132.712825 277.698454 140.311784 C 278.641162 147.910742 279.536996 155.48366 280.380746 163.035743 C 281.271371 170.535744 282.068246 177.270119 282.766163 183.228453 C 284.104705 194.754496 285.396371 205.754496 286.635955 216.238872 C 287.880746 226.671164 289.172413 237.645123 290.510955 249.171166 C 286.042205 254.832624 280.948454 259.108666 275.240121 261.988875 C 269.526579 264.822208 263.688037 266.332625 257.729703 266.53575 C 251.766161 266.733667 246.130744 265.712833 240.813035 263.478458 C 235.54741 261.244083 231.151576 257.889916 227.625534 253.421166 C 224.099492 248.947207 221.984909 243.457624 221.2922 236.952415 C 220.646367 230.84304 220.224492 225.525331 220.026575 221.004497 C 219.828659 216.436789 219.677617 211.941997 219.578659 207.520121 C 219.526575 203.098246 219.453659 198.181579 219.3547 192.764912 C 219.302617 187.353453 219.156784 180.77012 218.906784 173.020119 C 218.609909 172.921161 218.13595 172.874286 217.490117 172.874286 C 217.0422 175.009703 216.620325 177.093036 216.224492 179.129494 C 215.828658 181.165953 215.3547 183.280536 214.807825 185.462828 C 212.078658 197.285746 209.318241 209.134705 206.536991 221.004497 C 203.755741 232.827415 200.875532 244.650332 197.896366 256.47325 C 195.214074 258.113875 191.563032 259.577416 186.94324 260.869083 C 182.323448 262.16075 177.302614 262.884708 171.891155 263.030542 C 166.474488 263.1295 161.135946 262.483667 155.870321 261.093042 C 150.656779 259.655541 146.010945 257.046166 141.938029 253.270124 C 137.911987 249.447207 135.083861 244.202415 133.443236 237.546165 C 132.198445 232.681581 130.760944 226.816998 129.120319 219.96283 C 127.531778 213.108663 125.943236 206.254496 124.349486 199.400329 C 122.813027 192.540954 121.396361 186.509703 120.104694 181.290953 C 118.813027 176.077411 117.818235 172.572202 117.125527 170.785744 C 116.479694 181.119078 115.807818 190.92637 115.109902 200.218038 C 114.417193 209.504496 113.77136 218.848247 113.17761 228.233664 C 112.578652 237.572207 111.932818 247.530541 111.24011 258.113875 C 104.583859 261.639917 97.849484 264.051375 91.0474 265.343042 C 84.286983 266.634709 77.854691 266.556584 71.745316 265.119083 C 65.63594 263.676375 60.422398 260.770125 56.099481 256.400333 C 51.776564 251.978458 48.698439 245.843041 46.859897 237.994082 C 45.021355 230.098248 44.922397 220.384706 46.563022 208.863871 C 48.198439 196.790954 50.339064 184.546161 52.969273 172.129494 C 55.60469 159.707618 57.865106 147.535742 59.750523 135.613867 C 61.63594 124.337824 63.599482 113.087823 65.63594 101.863864 C 67.672399 90.587822 69.661982 79.384696 71.599482 68.259696 C 74.677607 65.27532 78.974483 62.86907 84.490108 61.030528 C 90.000525 59.191987 96.010942 58.249278 102.521359 58.197195 C 109.026568 58.15032 115.484902 59.218028 121.891152 61.40032 C 128.349486 63.540945 134.08907 67.113862 139.104695 72.134696 C 144.12032 77.150321 147.797404 83.853447 150.130737 92.24928 C 151.474487 96.869072 152.891154 102.410739 154.380738 108.869073 C 155.870321 115.322199 157.432821 121.978449 159.073446 128.837825 C 160.714071 135.639908 162.276572 142.249284 163.766155 148.655534 C 163.870322 148.905534 164.089072 149.874284 164.43803 151.561784 C 164.786988 153.249284 165.234905 155.186785 165.78178 157.374285 C 166.328655 159.561785 166.771363 161.499285 167.120322 163.186785 C 167.46928 164.874285 167.693239 165.869077 167.792197 166.165952 C 168.089072 166.165952 168.286989 166.165952 168.385947 166.165952 C 168.536989 166.165952 168.68803 166.165952 168.833864 166.165952 Z M 410.339088 56.483653 C 424.198464 56.33782 436.292215 57.90032 446.625549 61.18157 C 457.005758 64.405529 465.849508 68.603446 473.151592 73.770113 C 480.505759 78.93678 486.589093 84.426363 491.406801 90.238864 C 496.22451 96.051364 500.026594 101.587823 502.807844 106.853448 C 505.589094 112.072198 507.599511 116.290949 508.844303 119.520116 C 513.563053 132.535741 516.370345 145.676367 517.26097 158.936785 C 518.156803 172.150327 516.568261 185.462828 512.495345 198.874287 C 501.365135 234.540956 477.698467 256.650333 441.484923 265.192 C 426.828672 268.718042 412.375546 269.837834 398.120337 268.546167 C 383.859919 267.2545 369.953668 263.103458 356.391168 256.103458 C 343.526583 249.447207 333.245333 240.801374 325.542207 230.171164 C 317.896373 219.49408 312.53179 207.171163 309.448456 193.212829 C 307.411998 184.374286 306.219289 175.353453 305.870331 166.165952 C 305.526581 156.926368 306.047414 147.962826 307.438039 139.264909 C 308.880748 130.5722 311.240123 122.775324 314.516165 115.869074 C 317.745332 108.665948 321.943249 101.587823 327.109916 94.634697 C 332.276583 87.629488 338.656791 81.24928 346.25575 75.483654 C 353.859917 69.723237 362.94846 65.129487 373.531794 61.702403 C 384.109919 58.223237 396.380754 56.483653 410.339088 56.483653 Z M 411.380755 129.280533 C 406.365129 129.280533 401.719296 130.671158 397.448462 133.457616 C 393.177628 136.238867 389.79742 140.3847 387.313045 145.900326 C 384.880753 151.363868 383.938044 158.165951 384.484919 166.316994 C 385.031794 174.212827 386.818253 180.473245 389.849503 185.093037 C 392.927628 189.660745 396.526587 192.941995 400.651587 194.926371 C 404.823462 196.915954 408.672421 197.759704 412.203671 197.462829 C 415.828672 197.212829 419.505755 196.046162 423.229714 193.95762 C 427.005756 191.822204 430.208881 188.447203 432.839089 183.827411 C 435.474506 179.207619 436.990131 173.098244 437.385965 165.494077 C 437.93284 157.79616 437.010965 151.264909 434.630756 145.900326 C 432.292214 140.535742 429.042214 136.436783 424.870339 133.60345 C 420.745338 130.723241 416.250547 129.280533 411.380755 129.280533 Z M 411.380755 129.280533 " stroke="#436100" stroke-width="11.445075" stroke-opacity="1" stroke-miterlimit="4"/><g fill="#91c123" fill-opacity="1"><g transform="translate(4.909765, 255.625531)"><g><path d="M 97.515625 -73.40625 C 97.710938 -73.914062 97.890625 -74.421875 98.046875 -74.921875 C 98.203125 -75.429688 98.328125 -75.890625 98.421875 -76.296875 C 100.765625 -86.472656 103.128906 -96.597656 105.515625 -106.671875 C 107.910156 -116.742188 110.28125 -126.863281 112.625 -137.03125 C 113.03125 -138.457031 113.507812 -139.90625 114.0625 -141.375 C 114.625 -142.851562 115.109375 -144.359375 115.515625 -145.890625 C 121.617188 -149.859375 127.976562 -152.171875 134.59375 -152.828125 C 141.207031 -153.492188 147.460938 -152.628906 153.359375 -150.234375 C 159.265625 -147.847656 164.226562 -144.109375 168.25 -139.015625 C 172.269531 -133.929688 174.785156 -127.625 175.796875 -120.09375 C 176.203125 -117.25 176.6875 -113.410156 177.25 -108.578125 C 177.8125 -103.742188 178.445312 -98.476562 179.15625 -92.78125 C 179.863281 -87.082031 180.546875 -81.410156 181.203125 -75.765625 C 181.867188 -70.117188 182.457031 -65.054688 182.96875 -60.578125 C 183.988281 -51.929688 184.957031 -43.691406 185.875 -35.859375 C 186.789062 -28.023438 187.753906 -19.785156 188.765625 -11.140625 C 185.410156 -6.867188 181.597656 -3.664062 177.328125 -1.53125 C 173.054688 0.601562 168.679688 1.75 164.203125 1.90625 C 159.722656 2.0625 155.5 1.300781 151.53125 -0.375 C 147.5625 -2.0625 144.253906 -4.582031 141.609375 -7.9375 C 138.972656 -11.289062 137.398438 -15.410156 136.890625 -20.296875 C 136.378906 -24.867188 136.046875 -28.859375 135.890625 -32.265625 C 135.742188 -35.679688 135.644531 -39.039062 135.59375 -42.34375 C 135.539062 -45.65625 135.488281 -49.34375 135.4375 -53.40625 C 135.382812 -57.476562 135.253906 -62.414062 135.046875 -68.21875 C 134.847656 -68.3125 134.492188 -68.359375 133.984375 -68.359375 C 133.679688 -66.734375 133.375 -65.15625 133.0625 -63.625 C 132.757812 -62.101562 132.40625 -60.53125 132 -58.90625 C 129.96875 -50.050781 127.90625 -41.171875 125.8125 -32.265625 C 123.726562 -23.367188 121.570312 -14.492188 119.34375 -5.640625 C 117.300781 -4.421875 114.550781 -3.328125 111.09375 -2.359375 C 107.632812 -1.398438 103.867188 -0.867188 99.796875 -0.765625 C 95.734375 -0.660156 91.742188 -1.140625 87.828125 -2.203125 C 83.910156 -3.273438 80.425781 -5.234375 77.375 -8.078125 C 74.320312 -10.929688 72.179688 -14.851562 70.953125 -19.84375 C 70.046875 -23.5 68.976562 -27.894531 67.75 -33.03125 C 66.53125 -38.175781 65.335938 -43.316406 64.171875 -48.453125 C 63.003906 -53.585938 61.9375 -58.113281 60.96875 -62.03125 C 60 -65.945312 59.257812 -68.566406 58.75 -69.890625 C 58.238281 -62.160156 57.726562 -54.8125 57.21875 -47.84375 C 56.71875 -40.875 56.238281 -33.878906 55.78125 -26.859375 C 55.320312 -19.835938 54.835938 -12.359375 54.328125 -4.421875 C 49.335938 -1.773438 44.300781 0.0234375 39.21875 0.984375 C 34.132812 1.953125 29.300781 1.898438 24.71875 0.828125 C 20.144531 -0.234375 16.226562 -2.414062 12.96875 -5.71875 C 9.71875 -9.03125 7.40625 -13.632812 6.03125 -19.53125 C 4.65625 -25.4375 4.578125 -32.710938 5.796875 -41.359375 C 7.015625 -50.410156 8.613281 -59.585938 10.59375 -68.890625 C 12.582031 -78.203125 14.289062 -87.335938 15.71875 -96.296875 C 17.144531 -104.734375 18.617188 -113.175781 20.140625 -121.625 C 21.671875 -130.070312 23.144531 -138.46875 24.5625 -146.8125 C 26.90625 -149.039062 30.132812 -150.84375 34.25 -152.21875 C 38.375 -153.59375 42.878906 -154.304688 47.765625 -154.359375 C 52.648438 -154.410156 57.507812 -153.617188 62.34375 -151.984375 C 67.175781 -150.359375 71.472656 -147.664062 75.234375 -143.90625 C 78.992188 -140.144531 81.738281 -135.109375 83.46875 -128.796875 C 84.488281 -125.335938 85.554688 -121.191406 86.671875 -116.359375 C 87.796875 -111.523438 88.96875 -106.539062 90.1875 -101.40625 C 91.40625 -96.269531 92.578125 -91.3125 93.703125 -86.53125 C 93.796875 -86.320312 93.96875 -85.582031 94.21875 -84.3125 C 94.476562 -83.039062 94.8125 -81.585938 95.21875 -79.953125 C 95.625 -78.328125 95.953125 -76.878906 96.203125 -75.609375 C 96.460938 -74.335938 96.644531 -73.601562 96.75 -73.40625 C 96.957031 -73.40625 97.109375 -73.40625 97.203125 -73.40625 C 97.304688 -73.40625 97.410156 -73.40625 97.515625 -73.40625 Z M 97.515625 -73.40625 "/></g></g></g><g fill="#91c123" fill-opacity="1"><g transform="translate(199.169615, 255.625531)"><g><path d="M 84.390625 -155.65625 C 94.765625 -155.757812 103.84375 -154.585938 111.625 -152.140625 C 119.40625 -149.703125 126.039062 -146.550781 131.53125 -142.6875 C 137.03125 -138.820312 141.585938 -134.703125 145.203125 -130.328125 C 148.816406 -125.953125 151.664062 -121.804688 153.75 -117.890625 C 155.832031 -113.972656 157.332031 -110.789062 158.25 -108.34375 C 161.8125 -98.582031 163.921875 -88.738281 164.578125 -78.8125 C 165.242188 -68.894531 164.050781 -58.898438 161 -48.828125 C 152.65625 -22.078125 134.898438 -5.492188 107.734375 0.921875 C 96.742188 3.566406 85.90625 4.40625 75.21875 3.4375 C 64.539062 2.46875 54.117188 -0.660156 43.953125 -5.953125 C 34.285156 -10.929688 26.578125 -17.414062 20.828125 -25.40625 C 15.078125 -33.394531 11.035156 -42.628906 8.703125 -53.109375 C 7.171875 -59.722656 6.273438 -66.488281 6.015625 -73.40625 C 5.765625 -80.320312 6.171875 -87.035156 7.234375 -93.546875 C 8.304688 -100.054688 10.066406 -105.90625 12.515625 -111.09375 C 14.953125 -116.488281 18.101562 -121.804688 21.96875 -127.046875 C 25.84375 -132.285156 30.625 -137.066406 36.3125 -141.390625 C 42.007812 -145.710938 48.828125 -149.171875 56.765625 -151.765625 C 64.703125 -154.359375 73.910156 -155.65625 84.390625 -155.65625 Z M 85.15625 -101.03125 C 81.382812 -101.03125 77.894531 -99.984375 74.6875 -97.890625 C 71.488281 -95.804688 68.972656 -92.703125 67.140625 -88.578125 C 65.316406 -84.460938 64.609375 -79.351562 65.015625 -73.25 C 65.421875 -67.351562 66.765625 -62.671875 69.046875 -59.203125 C 71.335938 -55.742188 74.035156 -53.273438 77.140625 -51.796875 C 80.242188 -50.328125 83.117188 -49.695312 85.765625 -49.90625 C 88.515625 -50.101562 91.285156 -50.988281 94.078125 -52.5625 C 96.878906 -54.144531 99.269531 -56.664062 101.25 -60.125 C 103.238281 -63.582031 104.382812 -68.160156 104.6875 -73.859375 C 105.09375 -79.660156 104.40625 -84.566406 102.625 -88.578125 C 100.84375 -92.597656 98.398438 -95.675781 95.296875 -97.8125 C 92.191406 -99.957031 88.8125 -101.03125 85.15625 -101.03125 Z M 85.15625 -101.03125 "/></g></g></g></svg>