<svg xmlns="http://www.w3.org/2000/svg" xmlns:xlink="http://www.w3.org/1999/xlink" width="500" zoomAndPan="magnify" viewBox="0 0 375 374.999991" height="500" preserveAspectRatio="xMidYMid meet" version="1.0"><defs><g/></defs><path stroke-linecap="butt" transform="matrix(0.75, 0, 0, 0.75, -24.199608, 61.950934)" fill="none" stroke-linejoin="miter" d="M 167.71928 171.747724 C 167.979697 171.028974 168.208864 170.336265 168.417197 169.66439 C 168.672405 168.94564 168.849489 168.305015 168.953655 167.737307 C 172.193239 153.706056 175.458864 139.747722 178.750531 125.867512 C 182.036989 111.93522 185.302615 97.950844 188.542198 83.914385 C 189.104698 81.96126 189.776573 79.956051 190.547407 77.898759 C 191.31824 75.846676 191.984907 73.763342 192.552615 71.653967 C 200.984907 66.20605 209.745325 63.01855 218.849492 62.091467 C 228.000534 61.169592 236.635951 62.372717 244.755744 65.716467 C 252.932827 69.008134 259.77137 74.174801 265.27137 81.216468 C 270.823454 88.206052 274.318246 96.898761 275.755746 107.27897 C 276.323454 111.190428 276.990121 116.482095 277.760954 123.169596 C 278.531787 129.851888 279.406788 137.122722 280.385954 144.992514 C 281.359913 152.857098 282.286996 160.69564 283.161996 168.50814 C 284.083871 176.273766 284.906788 183.237308 285.630746 189.409183 C 287.016163 201.336267 288.354705 212.721685 289.635955 223.570644 C 290.922413 234.36752 292.260955 245.726895 293.646372 257.653979 C 289.021372 263.513355 283.750538 267.93523 277.839079 270.919605 C 271.92762 273.846689 265.885953 275.414397 259.719286 275.622731 C 253.547411 275.825856 247.714077 274.773772 242.214077 272.461272 C 236.76616 270.148772 232.214076 266.674813 228.563034 262.049813 C 224.911992 257.424813 222.7297 251.742521 222.01095 245.008145 C 221.339075 238.685228 220.901575 233.185228 220.69845 228.502936 C 220.490117 223.773769 220.339075 219.122727 220.234909 214.54981 C 220.182825 209.971685 220.1047 204.883143 220.005742 199.278976 C 219.953659 193.674809 219.797409 186.862308 219.5422 178.841474 C 219.234909 178.742516 218.745325 178.690433 218.078659 178.690433 C 217.615117 180.898766 217.177617 183.060225 216.766158 185.164391 C 216.3547 187.273767 215.865117 189.461267 215.302617 191.721683 C 212.474491 203.956059 209.620325 216.216477 206.740116 228.502936 C 203.859908 240.74252 200.880741 252.976896 197.797407 265.211272 C 195.021365 266.909188 191.240115 268.424814 186.458865 269.763355 C 181.677614 271.096689 176.484906 271.84148 170.880739 271.99773 C 165.276572 272.101897 159.75053 271.430022 154.302613 269.992522 C 148.906779 268.502939 144.099487 265.805022 139.880737 261.893563 C 135.719278 257.935229 132.786986 252.513354 131.089069 245.622729 C 129.807819 240.58627 128.313028 234.518561 126.620319 227.424811 C 124.974486 220.33106 123.328652 213.23731 121.682819 206.143559 C 120.089069 199.049809 118.625527 192.799809 117.286985 187.403975 C 115.953652 182.002933 114.922402 178.383141 114.203652 176.528974 C 113.536985 187.221683 112.839068 197.377934 112.120318 206.992518 C 111.401568 216.601893 110.734901 226.268561 110.11511 235.987311 C 109.500526 245.64877 108.828651 255.956063 108.109901 266.909188 C 101.224484 270.56023 94.255734 273.049814 87.214067 274.388356 C 80.219274 275.726897 73.563024 275.648772 67.240107 274.159189 C 60.91719 272.664397 55.521356 269.659189 51.047398 265.133147 C 46.573439 260.56023 43.385939 254.211271 41.484897 246.08627 C 39.583855 237.914395 39.479688 227.862311 41.177605 215.935227 C 42.870314 203.440434 45.083855 190.768558 47.807814 177.919599 C 50.531773 165.065432 52.870314 152.471681 54.823439 140.133138 C 56.776565 128.461263 58.807815 116.815429 60.91719 105.200844 C 63.026565 93.528969 65.083857 81.935218 67.089065 70.419592 C 70.271357 67.336259 74.719274 64.841467 80.427608 62.940425 C 86.135942 61.039383 92.354692 60.060217 99.089067 60.008133 C 105.823443 59.961258 112.505735 61.065425 119.141152 63.325842 C 125.823444 65.539384 131.760945 69.2373 136.953653 74.430009 C 142.146362 79.622718 145.948445 86.565427 148.365112 95.252927 C 149.750529 100.034177 151.219279 105.763345 152.760946 112.445637 C 154.302613 119.133137 155.922404 126.018554 157.620321 133.112305 C 159.31303 140.15918 160.932821 146.997722 162.474488 153.627931 C 162.578655 153.883139 162.81303 154.888348 163.172405 156.63314 C 163.53178 158.38314 163.995322 160.388348 164.557822 162.648765 C 165.12553 164.909182 165.589072 166.91439 165.948447 168.66439 C 166.307822 170.41439 166.536988 171.440432 166.641155 171.747724 C 166.948447 171.747724 167.15678 171.747724 167.255739 171.747724 C 167.411989 171.747724 167.568239 171.747724 167.71928 171.747724 Z M 516.208886 201.440434 C 514.66722 214.909185 510.734928 226.497727 504.412011 236.216478 C 498.089094 245.883145 490.22451 253.877938 480.813051 260.200855 C 471.4068 266.471688 461.229716 271.12273 450.27659 274.159189 C 439.328673 277.190439 428.375547 278.706064 417.42763 278.706064 C 408.583879 278.706064 399.719295 278.190439 390.823462 277.164397 C 381.927628 276.185231 373.318252 274.232106 364.990127 271.305022 C 356.714084 268.37273 349.104709 264.107105 342.162 258.502938 C 335.2245 252.846687 329.365124 245.471687 324.583874 236.372728 C 319.802624 227.221686 316.510957 215.83106 314.708873 202.211268 C 312.859915 189.461267 311.958873 175.581057 312.010956 160.565431 C 312.115123 145.555014 312.78179 130.237304 314.016165 114.607095 C 315.302623 98.930011 316.922415 83.83626 318.87554 69.341467 C 320.417207 67.695634 323.21929 66.180009 327.281791 64.789383 C 331.391166 63.351883 336.2245 62.2998 341.776583 61.627925 C 347.328667 60.909175 353.089084 60.805008 359.052626 61.320633 C 365.016168 61.784175 370.620335 63.070633 375.865127 65.1748 C 381.104711 67.284175 385.552628 70.320634 389.20367 74.278967 C 392.854712 78.185218 395.115128 83.351885 395.990129 89.778968 C 396.245337 92.039385 396.401587 96.383136 396.45367 102.810219 C 396.552629 109.18522 396.604712 116.768554 396.604712 125.555012 C 396.604712 134.294596 396.708879 143.47168 396.917212 153.086264 C 397.120337 162.700848 397.45367 171.877932 397.917212 180.617516 C 398.432837 189.305017 399.177629 196.659184 400.151587 202.669601 C 401.026587 207.29981 402.953671 210.950851 405.938046 213.622727 C 408.969296 216.294602 412.391171 217.73731 416.193255 217.940435 C 419.995338 218.14356 423.495339 216.961268 426.682839 214.39356 C 429.922422 211.773768 432.104714 207.58106 433.234923 201.825851 C 434.214089 196.784184 435.089089 190.206058 435.859923 182.081058 C 436.630756 173.909182 437.219298 164.987307 437.630756 155.325848 C 438.094298 145.607097 438.271381 135.763346 438.172423 125.789387 C 438.12034 115.815428 437.813048 106.383136 437.24534 97.487302 C 436.677631 88.596677 435.781798 80.987301 434.547423 74.664384 C 437.323465 71.836259 441.125548 69.419592 445.958882 67.414384 C 450.844299 65.357092 456.292216 63.945633 462.307841 63.169592 C 468.323467 62.398758 474.391175 62.476883 480.505759 63.403967 C 486.625551 64.278967 492.328677 66.232092 497.625552 69.263342 C 502.974511 72.299801 507.443261 76.617509 511.042219 82.221676 C 514.641178 87.820635 516.85472 94.919594 517.677637 103.502928 C 518.240137 109.258136 518.755762 114.502928 519.219303 119.232095 C 519.72972 123.914387 520.094303 128.669596 520.297428 133.497721 C 520.505762 138.331055 520.526595 143.78418 520.375553 149.846681 C 520.271387 155.862306 519.88597 163.00814 519.219303 171.284182 C 518.599512 179.565433 517.599512 189.612308 516.208886 201.440434 Z M 516.208886 201.440434 " stroke="#804d00" stroke-width="11.844975" stroke-opacity="1" stroke-miterlimit="4"/><g fill="#ffbd59" fill-opacity="1"><g transform="translate(0.667578, 266.700921)"><g><path d="M 100.921875 -75.96875 C 101.128906 -76.488281 101.3125 -77.007812 101.46875 -77.53125 C 101.625 -78.0625 101.753906 -78.539062 101.859375 -78.96875 C 104.285156 -89.488281 106.734375 -99.960938 109.203125 -110.390625 C 111.679688 -120.816406 114.128906 -131.289062 116.546875 -141.8125 C 116.972656 -143.289062 117.472656 -144.789062 118.046875 -146.3125 C 118.628906 -147.84375 119.128906 -149.398438 119.546875 -150.984375 C 125.867188 -155.085938 132.453125 -157.476562 139.296875 -158.15625 C 146.140625 -158.84375 152.613281 -157.945312 158.71875 -155.46875 C 164.820312 -153 169.953125 -149.128906 174.109375 -143.859375 C 178.273438 -138.597656 180.882812 -132.070312 181.9375 -124.28125 C 182.351562 -121.332031 182.847656 -117.359375 183.421875 -112.359375 C 184.003906 -107.359375 184.664062 -101.910156 185.40625 -96.015625 C 186.144531 -90.117188 186.851562 -84.25 187.53125 -78.40625 C 188.21875 -72.5625 188.828125 -67.328125 189.359375 -62.703125 C 190.410156 -53.742188 191.410156 -45.210938 192.359375 -37.109375 C 193.304688 -29.003906 194.304688 -20.476562 195.359375 -11.53125 C 191.878906 -7.101562 187.925781 -3.785156 183.5 -1.578125 C 179.082031 0.628906 174.554688 1.8125 169.921875 1.96875 C 165.296875 2.132812 160.925781 1.347656 156.8125 -0.390625 C 152.707031 -2.128906 149.285156 -4.734375 146.546875 -8.203125 C 143.816406 -11.679688 142.1875 -15.945312 141.65625 -21 C 141.132812 -25.738281 140.789062 -29.867188 140.625 -33.390625 C 140.46875 -36.921875 140.363281 -40.394531 140.3125 -43.8125 C 140.257812 -47.238281 140.207031 -51.054688 140.15625 -55.265625 C 140.101562 -59.484375 139.972656 -64.59375 139.765625 -70.59375 C 139.554688 -70.695312 139.1875 -70.75 138.65625 -70.75 C 138.34375 -69.0625 138.023438 -67.425781 137.703125 -65.84375 C 137.390625 -64.269531 137.023438 -62.640625 136.609375 -60.953125 C 134.503906 -51.796875 132.367188 -42.609375 130.203125 -33.390625 C 128.046875 -24.179688 125.8125 -15 123.5 -5.84375 C 121.394531 -4.582031 118.550781 -3.453125 114.96875 -2.453125 C 111.382812 -1.453125 107.488281 -0.894531 103.28125 -0.78125 C 99.070312 -0.675781 94.941406 -1.175781 90.890625 -2.28125 C 86.835938 -3.394531 83.226562 -5.425781 80.0625 -8.375 C 76.90625 -11.320312 74.695312 -15.375 73.4375 -20.53125 C 72.488281 -24.320312 71.378906 -28.875 70.109375 -34.1875 C 68.847656 -39.507812 67.613281 -44.828125 66.40625 -50.140625 C 65.195312 -55.453125 64.09375 -60.132812 63.09375 -64.1875 C 62.09375 -68.25 61.328125 -70.960938 60.796875 -72.328125 C 60.273438 -64.328125 59.75 -56.71875 59.21875 -49.5 C 58.695312 -42.289062 58.195312 -35.050781 57.71875 -27.78125 C 57.25 -20.519531 56.75 -12.785156 56.21875 -4.578125 C 51.0625 -1.835938 45.847656 0.03125 40.578125 1.03125 C 35.316406 2.03125 30.316406 1.972656 25.578125 0.859375 C 20.847656 -0.242188 16.796875 -2.503906 13.421875 -5.921875 C 10.054688 -9.347656 7.660156 -14.113281 6.234375 -20.21875 C 4.816406 -26.320312 4.738281 -33.847656 6 -42.796875 C 7.257812 -52.171875 8.914062 -61.671875 10.96875 -71.296875 C 13.03125 -80.929688 14.796875 -90.382812 16.265625 -99.65625 C 17.742188 -108.394531 19.269531 -117.128906 20.84375 -125.859375 C 22.425781 -134.597656 23.953125 -143.285156 25.421875 -151.921875 C 27.847656 -154.242188 31.191406 -156.113281 35.453125 -157.53125 C 39.710938 -158.957031 44.367188 -159.695312 49.421875 -159.75 C 54.484375 -159.800781 59.515625 -158.984375 64.515625 -157.296875 C 69.515625 -155.609375 73.960938 -152.816406 77.859375 -148.921875 C 81.753906 -145.023438 84.597656 -139.816406 86.390625 -133.296875 C 87.441406 -129.710938 88.546875 -125.421875 89.703125 -120.421875 C 90.859375 -115.421875 92.066406 -110.257812 93.328125 -104.9375 C 94.597656 -99.625 95.8125 -94.492188 96.96875 -89.546875 C 97.070312 -89.335938 97.253906 -88.570312 97.515625 -87.25 C 97.785156 -85.9375 98.128906 -84.4375 98.546875 -82.75 C 98.960938 -81.070312 99.300781 -79.570312 99.5625 -78.25 C 99.832031 -76.9375 100.019531 -76.175781 100.125 -75.96875 C 100.332031 -75.96875 100.488281 -75.96875 100.59375 -75.96875 C 100.695312 -75.96875 100.804688 -75.96875 100.921875 -75.96875 Z M 100.921875 -75.96875 "/></g></g></g><g fill="#ffbd59" fill-opacity="1"><g transform="translate(201.712497, 266.700921)"><g><path d="M 161.25 -53.6875 C 160.082031 -43.582031 157.128906 -34.894531 152.390625 -27.625 C 147.660156 -20.363281 141.765625 -14.363281 134.703125 -9.625 C 127.648438 -4.894531 120.019531 -1.398438 111.8125 0.859375 C 103.601562 3.128906 95.390625 4.265625 87.171875 4.265625 C 80.535156 4.265625 73.875 3.894531 67.1875 3.15625 C 60.507812 2.414062 54.0625 0.941406 47.84375 -1.265625 C 41.632812 -3.472656 35.925781 -6.679688 30.71875 -10.890625 C 25.507812 -15.109375 21.113281 -20.640625 17.53125 -27.484375 C 13.945312 -34.328125 11.472656 -42.851562 10.109375 -53.0625 C 8.734375 -62.644531 8.070312 -73.066406 8.125 -84.328125 C 8.1875 -95.597656 8.691406 -107.101562 9.640625 -118.84375 C 10.585938 -130.582031 11.796875 -141.875 13.265625 -152.71875 C 14.421875 -153.976562 16.523438 -155.132812 19.578125 -156.1875 C 22.628906 -157.238281 26.234375 -158.023438 30.390625 -158.546875 C 34.554688 -159.078125 38.875 -159.160156 43.34375 -158.796875 C 47.820312 -158.429688 52.035156 -157.457031 55.984375 -155.875 C 59.929688 -154.289062 63.273438 -152.023438 66.015625 -149.078125 C 68.753906 -146.128906 70.4375 -142.234375 71.0625 -137.390625 C 71.28125 -135.710938 71.414062 -132.476562 71.46875 -127.6875 C 71.519531 -122.894531 71.546875 -117.207031 71.546875 -110.625 C 71.546875 -104.039062 71.625 -97.144531 71.78125 -89.9375 C 71.9375 -82.726562 72.195312 -75.859375 72.5625 -69.328125 C 72.9375 -62.796875 73.488281 -57.269531 74.21875 -52.75 C 74.851562 -49.269531 76.300781 -46.53125 78.5625 -44.53125 C 80.832031 -42.53125 83.390625 -41.453125 86.234375 -41.296875 C 89.078125 -41.140625 91.707031 -42.035156 94.125 -43.984375 C 96.539062 -45.929688 98.171875 -49.0625 99.015625 -53.375 C 99.753906 -57.164062 100.410156 -62.113281 100.984375 -68.21875 C 101.566406 -74.332031 102.015625 -81.019531 102.328125 -88.28125 C 102.648438 -95.539062 102.785156 -102.910156 102.734375 -110.390625 C 102.679688 -117.867188 102.441406 -124.945312 102.015625 -131.625 C 101.597656 -138.3125 100.914062 -144.023438 99.96875 -148.765625 C 102.070312 -150.867188 104.9375 -152.679688 108.5625 -154.203125 C 112.195312 -155.734375 116.28125 -156.789062 120.8125 -157.375 C 125.34375 -157.957031 129.894531 -157.90625 134.46875 -157.21875 C 139.050781 -156.53125 143.34375 -155.054688 147.34375 -152.796875 C 151.34375 -150.535156 154.6875 -147.296875 157.375 -143.078125 C 160.0625 -138.867188 161.71875 -133.550781 162.34375 -127.125 C 162.769531 -122.8125 163.164062 -118.890625 163.53125 -115.359375 C 163.90625 -111.835938 164.171875 -108.257812 164.328125 -104.625 C 164.484375 -100.988281 164.507812 -96.90625 164.40625 -92.375 C 164.300781 -87.851562 164.007812 -82.488281 163.53125 -76.28125 C 163.0625 -70.070312 162.300781 -62.539062 161.25 -53.6875 Z M 161.25 -53.6875 "/></g></g></g></svg>