<svg xmlns="http://www.w3.org/2000/svg" xmlns:xlink="http://www.w3.org/1999/xlink" width="500" zoomAndPan="magnify" viewBox="0 0 375 374.999991" height="500" preserveAspectRatio="xMidYMid meet" version="1.0"><defs><g/></defs><path stroke-linecap="butt" transform="matrix(0.713796, 0, 0, 0.713796, -10.018085, 40.326667)" fill="none" stroke-linejoin="miter" d="M 184.164008 176.588664 C 184.164008 165.709335 184.164008 155.535958 184.164008 146.068533 C 184.164008 136.540911 184.164008 127.013289 184.164008 117.485667 C 184.164008 107.958045 184.164008 97.63691 184.164008 86.522263 C 190.10167 79.462739 196.838317 74.466347 204.363004 71.527614 C 211.953361 68.523212 219.686003 67.379459 227.566403 68.085412 C 235.446803 68.791364 242.681447 70.996782 249.264864 74.701664 C 255.853754 78.406546 261.178496 83.402939 265.233619 89.696313 C 269.348938 95.92949 271.406598 103.136773 271.406598 111.312687 C 271.406598 116.133959 271.439433 123.012892 271.499631 131.954956 C 271.614553 140.831351 271.702113 150.977365 271.762311 162.387527 C 271.822508 173.797689 271.877233 185.853606 271.937431 198.555278 C 272.057826 211.25695 272.057826 223.843699 271.937431 236.310054 C 271.877233 248.721683 271.674751 260.421887 271.319038 271.421612 C 271.028996 282.415864 270.585723 292.003683 270.000166 300.179598 C 264.823181 305.356583 257.998974 309.324145 249.533017 312.087757 C 241.121785 314.911567 231.977238 316.027957 222.093903 315.4424 C 212.276239 314.911567 202.573497 312.295712 192.985677 307.589363 C 183.458055 302.828288 174.992098 295.385688 167.576861 285.272509 C 164.227691 280.626356 160.725291 275.361812 157.080606 269.478874 C 153.496119 263.60141 150.053917 257.745835 146.759472 251.923095 C 143.465027 246.045631 140.526295 240.753723 137.937802 236.047374 C 135.34931 231.280826 133.351848 227.844096 131.939943 225.726239 C 131.589703 224.960089 131.119068 224.254137 130.528038 223.608382 C 129.997205 222.962627 129.499208 222.316872 129.028573 221.665644 C 128.853453 221.665644 128.590773 221.725842 128.23506 221.846237 C 127.939545 221.900962 127.649503 221.933797 127.353988 221.933797 C 127.529108 229.168441 127.764425 235.784694 128.05994 241.782553 C 128.41018 247.780413 128.733058 253.718075 129.028573 259.601012 C 129.384285 265.478477 129.586768 271.744489 129.646965 278.388104 C 129.707163 285.037191 129.674328 292.709636 129.559405 301.416383 C 121.679006 307.82468 113.623486 312.060395 105.387374 314.118055 C 97.211459 316.235912 89.391257 316.673712 81.921295 315.4424 C 74.451333 314.265812 67.747521 311.85244 61.809859 308.207755 C 55.866724 304.502873 51.133012 300.03184 47.608722 294.800131 C 44.078959 289.562948 42.223782 284.063086 42.048662 278.300544 C 41.753147 268.302287 41.490467 257.335398 41.25515 245.399876 C 41.019832 233.458881 40.811877 221.019889 40.636757 208.0829 C 40.461637 195.145911 40.374077 182.411404 40.374077 169.884852 C 40.374077 157.3583 40.40144 145.510338 40.461637 134.335494 C 40.57656 123.160649 40.784515 113.282787 41.08003 104.696435 C 41.43027 96.110083 41.840707 89.493831 42.311342 84.847678 C 48.079357 80.020934 55.166244 76.168294 63.572003 73.289759 C 72.043433 70.405752 80.892465 69.086879 90.124572 69.322197 C 99.362152 69.557514 108.183821 71.938052 116.589581 76.463809 C 125.06101 80.934841 132.17526 87.994366 137.937802 97.63691 C 142.11332 104.696435 145.851037 111.104732 149.140009 116.867274 C 152.434454 122.629817 155.641339 128.304799 158.755191 133.892221 C 161.934714 139.419446 165.196323 145.214823 168.550966 151.27288 C 171.900136 157.27074 175.752775 164.12231 180.103413 171.827589 C 180.574048 172.768859 181.077518 173.677294 181.60835 174.558367 C 182.193908 175.444912 182.72474 176.293149 183.195375 177.119496 C 183.370495 176.944376 183.545615 176.856816 183.720735 176.856816 C 183.901328 176.856816 184.043613 176.763784 184.164008 176.588664 Z M 290.67527 239.221423 C 292.612535 229.578879 295.146302 218.787109 298.260154 206.846115 C 301.379479 194.910593 304.903769 182.646721 308.843969 170.059972 C 312.784169 157.418497 316.784566 145.214823 320.845161 133.454421 C 324.960481 121.633822 328.98824 110.809217 332.92844 100.991553 C 336.86864 91.168416 340.37104 83.288016 343.424695 77.344881 C 350.013584 75.112101 357.866621 73.054442 366.978334 71.171902 C 376.155716 69.229164 385.88582 68.145609 396.179592 67.910292 C 406.473364 67.614777 416.674104 68.939122 426.792756 71.877854 C 436.905935 74.761861 446.19824 79.906011 454.664197 87.315776 C 463.195824 94.665343 470.189678 105.019312 475.662178 118.366739 C 478.250671 124.775037 481.216765 133.011149 484.571408 143.069603 C 487.92605 153.06786 491.45034 164.182507 495.155222 176.413544 C 498.860105 188.584383 502.477427 201.14377 506.007189 214.08076 C 509.536952 227.017749 512.771199 239.631861 515.709931 251.923095 C 518.708861 264.21433 521.094871 275.422009 522.857016 285.535189 C 522.386381 289.831101 520.153601 294.121541 516.153204 298.417453 C 512.152806 302.647695 507.036019 306.265018 500.802842 309.263947 C 494.629862 312.208152 487.953413 314.145417 480.778965 315.086687 C 473.664716 316.088155 466.577829 315.52996 459.518304 313.412102 C 452.458779 311.354442 446.077845 307.266485 440.3755 301.14823 C 434.673155 295.035448 430.229485 286.536656 427.055436 275.657327 C 419.470551 275.301614 411.590151 275.214054 403.414237 275.389174 C 395.238322 275.569767 387.297725 275.569767 379.597918 275.389174 C 377.480061 280.391039 375.477126 285.858066 373.594586 291.801201 C 371.772243 297.738863 369.977263 303.824283 368.215118 310.05746 C 353.455787 315.52996 340.606357 317.50006 329.66683 315.96776 C 318.787501 314.440932 309.993194 310.238052 303.289382 303.353648 C 296.645767 296.414518 292.234932 287.417729 290.056877 276.363279 C 287.878822 265.24316 288.086777 252.864365 290.67527 239.221423 Z M 388.944947 206.495875 C 394.061735 206.495875 399.030764 206.495875 403.852037 206.495875 C 408.678781 206.495875 413.587614 206.495875 418.584006 206.495875 C 416.351226 196.672738 414.030886 186.997358 411.617514 177.469736 C 409.204141 167.887389 406.883802 158.29957 404.651022 148.71175 C 404.120189 148.832145 403.381402 148.892343 402.445604 148.892343 C 400.327747 158.359767 398.089494 167.854554 395.73632 177.382176 C 393.443342 186.849601 391.1832 196.557815 388.944947 206.495875 Z M 388.944947 206.495875 " stroke="#7b0008" stroke-width="13.549988" stroke-opacity="1" stroke-miterlimit="4"/><g fill="#f5505b" fill-opacity="1"><g transform="translate(9.354792, 263.031109)"><g><path d="M 112.109375 -96.640625 C 112.109375 -104.429688 112.109375 -111.707031 112.109375 -118.46875 C 112.109375 -125.226562 112.109375 -132.019531 112.109375 -138.84375 C 112.109375 -145.664062 112.109375 -153.03125 112.109375 -160.9375 C 116.347656 -165.988281 121.160156 -169.570312 126.546875 -171.6875 C 131.941406 -173.8125 137.445312 -174.613281 143.0625 -174.09375 C 148.675781 -173.582031 153.832031 -172.003906 158.53125 -169.359375 C 163.226562 -166.722656 167.039062 -163.171875 169.96875 -158.703125 C 172.894531 -154.234375 174.359375 -149.078125 174.359375 -143.234375 C 174.359375 -139.796875 174.382812 -134.894531 174.4375 -128.53125 C 174.5 -122.164062 174.554688 -114.914062 174.609375 -106.78125 C 174.671875 -98.644531 174.726562 -90.046875 174.78125 -80.984375 C 174.84375 -71.929688 174.84375 -62.960938 174.78125 -54.078125 C 174.726562 -45.191406 174.585938 -36.820312 174.359375 -28.96875 C 174.128906 -21.113281 173.785156 -14.265625 173.328125 -8.421875 C 169.660156 -4.753906 164.816406 -1.921875 158.796875 0.078125 C 152.773438 2.085938 146.238281 2.890625 139.1875 2.484375 C 132.132812 2.085938 125.195312 0.203125 118.375 -3.171875 C 111.5625 -6.554688 105.519531 -11.863281 100.25 -19.09375 C 97.84375 -22.414062 95.347656 -26.164062 92.765625 -30.34375 C 90.179688 -34.53125 87.710938 -38.710938 85.359375 -42.890625 C 83.015625 -47.078125 80.925781 -50.863281 79.09375 -54.25 C 77.257812 -57.632812 75.828125 -60.070312 74.796875 -61.5625 C 74.566406 -62.132812 74.25 -62.648438 73.84375 -63.109375 C 73.445312 -63.566406 73.078125 -64.023438 72.734375 -64.484375 C 72.617188 -64.484375 72.445312 -64.453125 72.21875 -64.390625 C 71.988281 -64.335938 71.757812 -64.3125 71.53125 -64.3125 C 71.644531 -59.15625 71.816406 -54.425781 72.046875 -50.125 C 72.273438 -45.820312 72.503906 -41.578125 72.734375 -37.390625 C 72.960938 -33.210938 73.101562 -28.742188 73.15625 -23.984375 C 73.21875 -19.222656 73.191406 -13.75 73.078125 -7.5625 C 67.460938 -2.976562 61.726562 0.0546875 55.875 1.546875 C 50.03125 3.035156 44.441406 3.347656 39.109375 2.484375 C 33.785156 1.628906 29 -0.113281 24.75 -2.75 C 20.507812 -5.382812 17.128906 -8.5625 14.609375 -12.28125 C 12.085938 -16.007812 10.769531 -19.941406 10.65625 -24.078125 C 10.425781 -31.179688 10.222656 -39.003906 10.046875 -47.546875 C 9.878906 -56.085938 9.738281 -64.96875 9.625 -74.1875 C 9.507812 -83.414062 9.453125 -92.5 9.453125 -101.4375 C 9.453125 -110.382812 9.476562 -118.84375 9.53125 -126.8125 C 9.59375 -134.78125 9.738281 -141.828125 9.96875 -147.953125 C 10.195312 -154.085938 10.484375 -158.816406 10.828125 -162.140625 C 14.953125 -165.585938 20.023438 -168.34375 26.046875 -170.40625 C 32.066406 -172.46875 38.367188 -173.410156 44.953125 -173.234375 C 51.546875 -173.066406 57.851562 -171.375 63.875 -168.15625 C 69.894531 -164.945312 74.96875 -159.90625 79.09375 -153.03125 C 82.070312 -147.988281 84.734375 -143.40625 87.078125 -139.28125 C 89.429688 -135.15625 91.726562 -131.113281 93.96875 -127.15625 C 96.207031 -123.195312 98.53125 -119.066406 100.9375 -114.765625 C 103.34375 -110.472656 106.09375 -105.578125 109.1875 -100.078125 C 109.53125 -99.390625 109.898438 -98.726562 110.296875 -98.09375 C 110.703125 -97.46875 111.078125 -96.867188 111.421875 -96.296875 C 111.535156 -96.410156 111.648438 -96.46875 111.765625 -96.46875 C 111.878906 -96.46875 111.992188 -96.523438 112.109375 -96.640625 Z M 112.109375 -96.640625 "/></g></g><g transform="translate(194.882367, 263.031109)"><g><path d="M 2.578125 -51.921875 C 3.953125 -58.804688 5.753906 -66.515625 7.984375 -75.046875 C 10.222656 -83.585938 12.75 -92.359375 15.5625 -101.359375 C 18.375 -110.359375 21.238281 -119.070312 24.15625 -127.5 C 27.082031 -135.925781 29.945312 -143.632812 32.75 -150.625 C 35.5625 -157.613281 38.054688 -163.234375 40.234375 -167.484375 C 44.929688 -169.085938 50.546875 -170.578125 57.078125 -171.953125 C 63.617188 -173.328125 70.554688 -174.097656 77.890625 -174.265625 C 85.222656 -174.441406 92.5 -173.5 99.71875 -171.4375 C 106.945312 -169.375 113.597656 -165.703125 119.671875 -160.421875 C 125.742188 -155.148438 130.734375 -147.757812 134.640625 -138.25 C 136.472656 -133.664062 138.59375 -127.789062 141 -120.625 C 143.40625 -113.457031 145.925781 -105.515625 148.5625 -96.796875 C 151.195312 -88.085938 153.773438 -79.117188 156.296875 -69.890625 C 158.816406 -60.671875 161.140625 -51.675781 163.265625 -42.90625 C 165.390625 -34.132812 167.082031 -26.140625 168.34375 -18.921875 C 168 -15.816406 166.390625 -12.742188 163.515625 -9.703125 C 160.648438 -6.671875 157.007812 -4.09375 152.59375 -1.96875 C 148.1875 0.144531 143.429688 1.546875 138.328125 2.234375 C 133.234375 2.921875 128.160156 2.519531 123.109375 1.03125 C 118.066406 -0.457031 113.507812 -3.378906 109.4375 -7.734375 C 105.375 -12.085938 102.195312 -18.164062 99.90625 -25.96875 C 94.507812 -26.195312 88.890625 -26.253906 83.046875 -26.140625 C 77.203125 -26.023438 71.53125 -26.023438 66.03125 -26.140625 C 64.539062 -22.585938 63.132812 -18.6875 61.8125 -14.4375 C 60.5 -10.195312 59.210938 -5.84375 57.953125 -1.375 C 47.398438 2.519531 38.226562 3.921875 30.4375 2.828125 C 22.644531 1.742188 16.367188 -1.257812 11.609375 -6.1875 C 6.847656 -11.113281 3.691406 -17.53125 2.140625 -25.4375 C 0.597656 -33.351562 0.742188 -42.179688 2.578125 -51.921875 Z M 72.734375 -75.3125 C 76.398438 -75.3125 79.953125 -75.3125 83.390625 -75.3125 C 86.828125 -75.3125 90.328125 -75.3125 93.890625 -75.3125 C 92.273438 -82.300781 90.609375 -89.207031 88.890625 -96.03125 C 87.171875 -102.851562 85.507812 -109.703125 83.90625 -116.578125 C 83.5625 -116.460938 83.046875 -116.40625 82.359375 -116.40625 C 80.867188 -109.644531 79.289062 -102.878906 77.625 -96.109375 C 75.96875 -89.347656 74.335938 -82.414062 72.734375 -75.3125 Z M 72.734375 -75.3125 "/></g></g></g></svg>