<svg xmlns="http://www.w3.org/2000/svg" xmlns:xlink="http://www.w3.org/1999/xlink" width="500" zoomAndPan="magnify" viewBox="0 0 375 374.999991" height="500" preserveAspectRatio="xMidYMid meet" version="1.0"><defs><g/></defs><path stroke-linecap="butt" transform="matrix(0.713796, 0, 0, 0.713796, -10.018085, 40.326677)" fill="none" stroke-linejoin="miter" d="M 202.349124 176.588651 C 202.349124 165.709321 202.349124 155.535944 202.349124 146.06852 C 202.349124 136.540897 202.349124 127.013275 202.349124 117.485653 C 202.349124 107.958031 202.349124 97.636897 202.349124 86.52225 C 208.292259 79.462725 215.023434 74.466333 222.553593 71.527601 C 230.138478 68.523198 237.87112 67.379446 245.751519 68.085398 C 253.631919 68.791351 260.866564 70.996768 267.455453 74.701651 C 274.038871 78.406533 279.363613 83.402925 283.418735 89.6963 C 287.539527 95.929477 289.597187 103.136759 289.597187 111.312674 C 289.597187 116.133946 289.62455 123.012878 289.684747 131.954943 C 289.79967 140.831337 289.892702 150.977352 289.947427 162.387514 C 290.007625 173.797676 290.067822 185.853593 290.12802 198.555264 C 290.242942 211.256936 290.242942 223.843686 290.12802 236.31004 C 290.067822 248.721669 289.859867 260.421874 289.509627 271.421598 C 289.214112 282.41585 288.77084 292.00367 288.185282 300.179584 C 283.008298 305.356569 276.189563 309.324131 267.718133 312.087744 C 259.306901 314.911554 250.162354 316.027944 240.284492 315.442386 C 230.461355 314.911554 220.758613 312.295699 211.170794 307.589349 C 201.643172 302.828274 193.177215 295.385675 185.76745 285.272495 C 182.412808 280.626343 178.91588 275.361798 175.271195 269.478861 C 171.681236 263.601396 168.239033 257.745822 164.950061 251.923082 C 161.655616 246.045617 158.716884 240.75371 156.128391 236.04736 C 153.539899 231.280813 151.536964 227.844083 150.130532 225.726226 C 149.774819 224.960076 149.304184 224.254123 148.718627 223.608368 C 148.187794 222.962613 147.689797 222.316858 147.219162 221.665631 C 147.038569 221.665631 146.775889 221.725828 146.420177 221.846223 C 146.130134 221.900948 145.834619 221.933783 145.539104 221.933783 C 145.719697 229.168428 145.955014 235.78468 146.245057 241.78254 C 146.600769 247.7804 146.923647 253.718062 147.219162 259.600999 C 147.569402 265.478464 147.777357 271.744476 147.832082 278.388091 C 147.892279 285.037178 147.864917 292.709622 147.744522 301.416369 C 139.864122 307.824667 131.808603 312.060381 123.572491 314.118041 C 115.402048 316.235899 107.576374 316.673699 100.111884 315.442386 C 92.641922 314.265799 85.93811 311.852426 79.994975 308.207742 C 74.057313 304.502859 69.323601 300.031827 65.793838 294.800117 C 62.264076 289.562935 60.414371 284.063073 60.239251 278.300531 C 59.943736 268.302274 59.675584 257.335384 59.440266 245.399862 C 59.204949 233.458868 59.002466 221.019876 58.827346 208.082886 C 58.646754 195.145897 58.559194 182.41139 58.559194 169.884838 C 58.559194 157.358286 58.592029 145.510325 58.646754 134.33548 C 58.767149 123.160636 58.969631 113.282774 59.265146 104.696422 C 59.620859 96.110069 60.031296 89.493817 60.501931 84.847665 C 66.264473 80.02092 73.35136 76.173753 81.762593 73.289746 C 90.22855 70.405738 99.083054 69.086866 108.315161 69.322183 C 117.547268 69.557501 126.368938 71.938038 134.78017 76.463795 C 143.246127 80.934828 150.365849 87.994352 156.128391 97.636897 C 160.303909 104.696422 164.036154 111.104719 167.330598 116.867261 C 170.625043 122.629803 173.826456 128.304785 176.94578 133.892208 C 180.11983 139.419432 183.386913 145.21481 186.736082 151.272867 C 190.090725 157.270726 193.943365 164.122296 198.294002 171.827576 C 198.764637 172.768846 199.262634 173.677281 199.793467 174.558353 C 200.379024 175.444898 200.909857 176.293136 201.380492 177.119483 C 201.555612 176.944363 201.736204 176.856803 201.911324 176.856803 C 202.086444 176.856803 202.234202 176.763771 202.349124 176.588651 Z M 318.475568 256.333917 C 318.185526 250.866889 317.950208 243.517322 317.769616 234.279743 C 317.594496 225.047636 317.506936 214.699139 317.506936 203.228779 C 317.506936 191.763892 317.621858 179.883095 317.857176 167.591861 C 318.092493 155.300627 318.420843 143.217347 318.831281 131.33655 C 319.241718 119.455753 319.712353 108.456029 320.243186 98.342849 C 320.828743 88.22967 321.534696 79.785603 322.361043 73.027066 C 330.356365 72.260916 340.091942 71.669886 351.556829 71.259448 C 363.087386 70.849011 375.433346 70.553496 388.605652 70.378376 C 401.783432 70.203256 414.983101 70.257981 428.215606 70.553496 C 441.44811 70.788813 453.974662 71.144526 465.795261 71.615161 C 477.615861 72.085796 487.761875 72.643991 496.233305 73.289746 C 497.699935 75.347406 498.996917 78.55429 500.113307 82.904928 C 501.229697 87.255565 501.815254 92.16987 501.875452 97.636897 C 501.995847 103.103924 501.317257 108.663984 499.845154 114.311604 C 498.438722 119.899026 495.904955 125.103373 492.26027 129.924645 C 488.675783 134.745918 483.706753 138.598557 477.353181 141.477092 C 470.999608 144.3611 463.004286 145.800367 453.356269 145.800367 C 450.182219 145.800367 447.210652 145.800367 444.44704 145.800367 C 441.743625 145.800367 438.684497 145.800367 435.27513 145.800367 C 431.920488 145.800367 427.744971 145.800367 422.748578 145.800367 C 417.806911 145.800367 411.486174 145.800367 403.780894 145.800367 C 403.780894 147.743104 403.780894 149.713204 403.780894 151.710667 C 403.780894 153.713602 403.780894 155.919019 403.780894 158.326919 C 407.310657 158.326919 412.159291 158.239359 418.337743 158.064239 C 424.510723 157.889119 431.214535 157.801559 438.44918 157.801559 C 445.683825 157.801559 452.798074 158.124436 459.797401 158.770191 C 466.796729 159.415946 472.854786 160.565171 477.971573 162.212394 C 482.792845 172.796208 484.790308 182.67407 483.969433 191.851452 C 483.203283 200.968637 479.646158 208.433126 473.292586 214.255866 C 466.944486 220.018408 457.827302 223.225293 445.946505 223.871048 C 441.891382 223.991443 438.09894 224.051641 434.569178 224.051641 C 431.039415 224.051641 426.951458 224.018806 422.305306 223.958608 C 417.659154 223.903883 411.573734 223.871048 404.043574 223.871048 C 404.043574 226.399343 404.043574 228.840078 404.043574 231.193253 C 404.043574 233.48623 404.043574 235.926965 404.043574 238.515457 C 404.809724 238.515457 405.663434 238.515457 406.604704 238.515457 C 407.606172 238.515457 408.574804 238.515457 409.516074 238.515457 C 422.392866 238.515457 435.27513 238.515457 448.151922 238.515457 C 461.094384 238.515457 473.998538 238.515457 486.880803 238.515457 C 491.526955 244.929227 494.498522 252.043477 495.790032 259.863679 C 497.081542 267.629156 496.523347 275.214041 494.115447 282.623805 C 491.702075 289.973372 487.11612 296.354307 480.35211 301.766609 C 473.648298 307.118714 464.591311 310.528081 453.181149 312.000184 C 449.126027 312.470819 443.686362 312.914091 436.862155 313.324529 C 430.037948 313.734966 422.540623 313.970284 414.364709 314.030481 C 406.194267 314.145404 398.045714 314.118041 389.929997 313.942921 C 381.81428 313.762329 374.492076 313.439451 367.963383 312.968816 C 361.494889 312.498181 356.498497 311.852426 352.968734 311.031551 C 341.739165 308.147544 333.415493 302.412364 328.00319 293.826012 C 322.651086 285.23966 319.477036 272.745943 318.475568 256.333917 Z M 318.475568 256.333917 " stroke="#005180" stroke-width="13.549988" stroke-opacity="1" stroke-miterlimit="4"/><g fill="#38b6ff" fill-opacity="1"><g transform="translate(22.336962, 263.031119)"><g><path d="M 112.109375 -96.640625 C 112.109375 -104.429688 112.109375 -111.707031 112.109375 -118.46875 C 112.109375 -125.226562 112.109375 -132.019531 112.109375 -138.84375 C 112.109375 -145.664062 112.109375 -153.03125 112.109375 -160.9375 C 116.347656 -165.988281 121.160156 -169.570312 126.546875 -171.6875 C 131.941406 -173.8125 137.445312 -174.613281 143.0625 -174.09375 C 148.675781 -173.582031 153.832031 -172.003906 158.53125 -169.359375 C 163.226562 -166.722656 167.039062 -163.171875 169.96875 -158.703125 C 172.894531 -154.234375 174.359375 -149.078125 174.359375 -143.234375 C 174.359375 -139.796875 174.382812 -134.894531 174.4375 -128.53125 C 174.5 -122.164062 174.554688 -114.914062 174.609375 -106.78125 C 174.671875 -98.644531 174.726562 -90.046875 174.78125 -80.984375 C 174.84375 -71.929688 174.84375 -62.960938 174.78125 -54.078125 C 174.726562 -45.191406 174.585938 -36.820312 174.359375 -28.96875 C 174.128906 -21.113281 173.785156 -14.265625 173.328125 -8.421875 C 169.660156 -4.753906 164.816406 -1.921875 158.796875 0.078125 C 152.773438 2.085938 146.238281 2.890625 139.1875 2.484375 C 132.132812 2.085938 125.195312 0.203125 118.375 -3.171875 C 111.5625 -6.554688 105.519531 -11.863281 100.25 -19.09375 C 97.84375 -22.414062 95.347656 -26.164062 92.765625 -30.34375 C 90.179688 -34.53125 87.710938 -38.710938 85.359375 -42.890625 C 83.015625 -47.078125 80.925781 -50.863281 79.09375 -54.25 C 77.257812 -57.632812 75.828125 -60.070312 74.796875 -61.5625 C 74.566406 -62.132812 74.25 -62.648438 73.84375 -63.109375 C 73.445312 -63.566406 73.078125 -64.023438 72.734375 -64.484375 C 72.617188 -64.484375 72.445312 -64.453125 72.21875 -64.390625 C 71.988281 -64.335938 71.757812 -64.3125 71.53125 -64.3125 C 71.644531 -59.15625 71.816406 -54.425781 72.046875 -50.125 C 72.273438 -45.820312 72.503906 -41.578125 72.734375 -37.390625 C 72.960938 -33.210938 73.101562 -28.742188 73.15625 -23.984375 C 73.21875 -19.222656 73.191406 -13.75 73.078125 -7.5625 C 67.460938 -2.976562 61.726562 0.0546875 55.875 1.546875 C 50.03125 3.035156 44.441406 3.347656 39.109375 2.484375 C 33.785156 1.628906 29 -0.113281 24.75 -2.75 C 20.507812 -5.382812 17.128906 -8.5625 14.609375 -12.28125 C 12.085938 -16.007812 10.769531 -19.941406 10.65625 -24.078125 C 10.425781 -31.179688 10.222656 -39.003906 10.046875 -47.546875 C 9.878906 -56.085938 9.738281 -64.96875 9.625 -74.1875 C 9.507812 -83.414062 9.453125 -92.5 9.453125 -101.4375 C 9.453125 -110.382812 9.476562 -118.84375 9.53125 -126.8125 C 9.59375 -134.78125 9.738281 -141.828125 9.96875 -147.953125 C 10.195312 -154.085938 10.484375 -158.816406 10.828125 -162.140625 C 14.953125 -165.585938 20.023438 -168.34375 26.046875 -170.40625 C 32.066406 -172.46875 38.367188 -173.410156 44.953125 -173.234375 C 51.546875 -173.066406 57.851562 -171.375 63.875 -168.15625 C 69.894531 -164.945312 74.96875 -159.90625 79.09375 -153.03125 C 82.070312 -147.988281 84.734375 -143.40625 87.078125 -139.28125 C 89.429688 -135.15625 91.726562 -131.113281 93.96875 -127.15625 C 96.207031 -123.195312 98.53125 -119.066406 100.9375 -114.765625 C 103.34375 -110.472656 106.09375 -105.578125 109.1875 -100.078125 C 109.53125 -99.390625 109.898438 -98.726562 110.296875 -98.09375 C 110.703125 -97.46875 111.078125 -96.867188 111.421875 -96.296875 C 111.535156 -96.410156 111.648438 -96.46875 111.765625 -96.46875 C 111.878906 -96.46875 111.992188 -96.523438 112.109375 -96.640625 Z M 112.109375 -96.640625 "/></g></g><g transform="translate(207.864537, 263.031119)"><g><path d="M 9.453125 -39.71875 C 9.222656 -43.613281 9.050781 -48.859375 8.9375 -55.453125 C 8.820312 -62.046875 8.765625 -69.4375 8.765625 -77.625 C 8.765625 -85.820312 8.847656 -94.304688 9.015625 -103.078125 C 9.191406 -111.847656 9.421875 -120.472656 9.703125 -128.953125 C 9.992188 -137.441406 10.335938 -145.296875 10.734375 -152.515625 C 11.140625 -159.734375 11.628906 -165.753906 12.203125 -170.578125 C 17.941406 -171.148438 24.90625 -171.578125 33.09375 -171.859375 C 41.289062 -172.148438 50.085938 -172.351562 59.484375 -172.46875 C 68.890625 -172.582031 78.320312 -172.550781 87.78125 -172.375 C 97.238281 -172.207031 106.175781 -171.953125 114.59375 -171.609375 C 123.019531 -171.265625 130.273438 -170.863281 136.359375 -170.40625 C 137.390625 -168.914062 138.304688 -166.617188 139.109375 -163.515625 C 139.910156 -160.421875 140.335938 -156.925781 140.390625 -153.03125 C 140.453125 -149.132812 139.96875 -145.179688 138.9375 -141.171875 C 137.90625 -137.160156 136.097656 -133.429688 133.515625 -129.984375 C 130.941406 -126.546875 127.390625 -123.796875 122.859375 -121.734375 C 118.328125 -119.671875 112.625 -118.640625 105.75 -118.640625 C 103.457031 -118.640625 101.335938 -118.640625 99.390625 -118.640625 C 97.441406 -118.640625 95.257812 -118.640625 92.84375 -118.640625 C 90.4375 -118.640625 87.457031 -118.640625 83.90625 -118.640625 C 80.351562 -118.640625 75.828125 -118.640625 70.328125 -118.640625 C 70.328125 -117.265625 70.328125 -115.859375 70.328125 -114.421875 C 70.328125 -112.992188 70.328125 -111.421875 70.328125 -109.703125 C 72.847656 -109.703125 76.3125 -109.757812 80.71875 -109.875 C 85.132812 -109.988281 89.921875 -110.046875 95.078125 -110.046875 C 100.242188 -110.046875 105.316406 -109.816406 110.296875 -109.359375 C 115.285156 -108.898438 119.613281 -108.097656 123.28125 -106.953125 C 126.71875 -99.390625 128.148438 -92.335938 127.578125 -85.796875 C 127.003906 -79.265625 124.453125 -73.9375 119.921875 -69.8125 C 115.398438 -65.6875 108.898438 -63.394531 100.421875 -62.9375 C 97.554688 -62.820312 94.859375 -62.765625 92.328125 -62.765625 C 89.804688 -62.765625 86.882812 -62.789062 83.5625 -62.84375 C 80.238281 -62.90625 75.882812 -62.9375 70.5 -62.9375 C 70.5 -61.101562 70.5 -59.351562 70.5 -57.6875 C 70.5 -56.019531 70.5 -54.269531 70.5 -52.4375 C 71.070312 -52.4375 71.703125 -52.4375 72.390625 -52.4375 C 73.078125 -52.4375 73.765625 -52.4375 74.453125 -52.4375 C 83.617188 -52.4375 92.816406 -52.4375 102.046875 -52.4375 C 111.273438 -52.4375 120.476562 -52.4375 129.65625 -52.4375 C 132.976562 -47.851562 135.097656 -42.78125 136.015625 -37.21875 C 136.929688 -31.664062 136.53125 -26.25 134.8125 -20.96875 C 133.09375 -15.695312 129.820312 -11.140625 125 -7.296875 C 120.1875 -3.460938 113.710938 -1.03125 105.578125 0 C 102.710938 0.34375 98.84375 0.65625 93.96875 0.9375 C 89.09375 1.226562 83.734375 1.398438 77.890625 1.453125 C 72.046875 1.515625 66.226562 1.488281 60.4375 1.375 C 54.644531 1.257812 49.425781 1.03125 44.78125 0.6875 C 40.144531 0.34375 36.566406 -0.113281 34.046875 -0.6875 C 26.023438 -2.75 20.09375 -6.847656 16.25 -12.984375 C 12.40625 -19.117188 10.140625 -28.03125 9.453125 -39.71875 Z M 9.453125 -39.71875 "/></g></g></g></svg>