<svg xmlns="http://www.w3.org/2000/svg" xmlns:xlink="http://www.w3.org/1999/xlink" width="500" zoomAndPan="magnify" viewBox="0 0 375 374.999991" height="500" preserveAspectRatio="xMidYMid meet" version="1.0"><defs><g/></defs><path stroke-linecap="butt" transform="matrix(0.713796, 0, 0, 0.713796, -10.018085, 40.326677)" fill="none" stroke-linejoin="miter" d="M 246.194792 176.588651 C 246.194792 165.709321 246.194792 155.535944 246.194792 146.06852 C 246.194792 136.540897 246.194792 127.013275 246.194792 117.485653 C 246.194792 107.958031 246.194792 97.636897 246.194792 86.52225 C 252.132454 79.462725 258.869101 74.466333 266.393788 71.527601 C 273.984146 68.523198 281.716788 67.379446 289.597187 68.085398 C 297.477587 68.791351 304.712232 70.996768 311.295649 74.701651 C 317.884538 78.406533 323.209281 83.402925 327.264403 89.6963 C 331.379723 95.929477 333.442855 103.136759 333.442855 111.312674 C 333.442855 116.133946 333.470218 123.012878 333.530415 131.954943 C 333.645338 140.831337 333.732898 150.977352 333.793095 162.387514 C 333.853293 173.797676 333.908018 185.853593 333.968215 198.555264 C 334.08861 211.256936 334.08861 223.843686 333.968215 236.31004 C 333.908018 248.721669 333.705535 260.421874 333.349823 271.421598 C 333.05978 282.41585 332.616508 292.00367 332.03095 300.179584 C 326.853966 305.356569 320.029758 309.324131 311.563801 312.087744 C 303.152569 314.911554 294.008022 316.027944 284.13016 315.442386 C 274.307023 314.911554 264.604281 312.295699 255.016462 307.589349 C 245.48884 302.828274 237.022882 295.385675 229.613118 285.272495 C 226.258475 280.626343 222.761548 275.361798 219.111391 269.478861 C 215.526903 263.601396 212.084701 257.745822 208.790256 251.923082 C 205.495811 246.045617 202.557079 240.75371 199.968587 236.04736 C 197.380094 231.280813 195.382632 227.844083 193.970727 225.726226 C 193.620487 224.960076 193.149852 224.254123 192.558822 223.608368 C 192.033462 222.962613 191.529992 222.316858 191.059357 221.665631 C 190.884237 221.665631 190.621557 221.725828 190.265845 221.846223 C 189.97033 221.900948 189.680287 221.933783 189.384772 221.933783 C 189.559892 229.168428 189.79521 235.78468 190.090725 241.78254 C 190.440965 247.7804 190.763842 253.718062 191.059357 259.600999 C 191.41507 265.478464 191.617552 271.744476 191.67775 278.388091 C 191.737947 285.037178 191.705112 292.709622 191.59019 301.416369 C 183.70979 307.824667 175.65427 312.060381 167.418158 314.118041 C 159.242244 316.235899 151.422042 316.673699 143.95208 315.442386 C 136.482117 314.265799 129.778305 311.852426 123.840643 308.207742 C 117.902981 304.502859 113.163796 300.031827 109.639506 294.800117 C 106.109744 289.562935 104.254566 284.063073 104.079446 278.300531 C 103.783931 268.302274 103.521251 257.335384 103.285934 245.399862 C 103.050617 233.458868 102.842662 221.019876 102.667542 208.082886 C 102.492422 195.145897 102.404862 182.41139 102.404862 169.884838 C 102.404862 157.358286 102.432224 145.510325 102.492422 134.33548 C 102.607344 123.160636 102.815299 113.282774 103.110814 104.696422 C 103.461054 96.110069 103.876964 89.493817 104.347599 84.847665 C 110.110141 80.02092 117.197028 76.173753 125.602788 73.289746 C 134.074217 70.405738 142.92325 69.086866 152.155357 69.322183 C 161.392936 69.557501 170.214606 71.938038 178.620365 76.463795 C 187.091795 80.934828 194.206045 87.994352 199.968587 97.636897 C 204.144104 104.696422 207.881821 111.104719 211.176266 116.867261 C 214.465239 122.629803 217.672123 128.304785 220.791448 133.892208 C 223.965498 139.419432 227.227108 145.21481 230.58175 151.272867 C 233.93092 157.270726 237.78356 164.122296 242.13967 171.827576 C 242.610305 172.768846 243.108302 173.677281 243.639135 174.558353 C 244.224692 175.444898 244.755525 176.293136 245.22616 177.119483 C 245.40128 176.944363 245.5764 176.856803 245.751519 176.856803 C 245.932112 176.856803 246.079869 176.763771 246.194792 176.588651 Z M 448.064362 118.366726 C 448.890709 123.133273 449.509102 130.072403 449.919539 139.184115 C 450.329977 148.241102 450.565294 158.649796 450.625492 170.415671 C 450.685689 182.115875 450.625492 194.31955 450.450372 207.021222 C 450.329977 219.668168 450.007099 232.19472 449.476267 244.600877 C 449.005632 256.952309 448.447437 268.302274 447.801682 278.656243 C 447.216125 289.00474 446.41714 297.56373 445.421145 304.327739 C 441.420747 308.618179 436.331323 311.737504 430.158343 313.674769 C 423.985363 315.617506 417.396474 316.148339 410.397146 315.261794 C 403.397819 314.380721 396.606447 311.972821 390.02303 308.032622 C 383.43414 304.092422 377.611401 298.472165 372.554811 291.182795 C 367.498221 283.887953 363.935624 274.863801 361.877964 264.099394 C 361.232209 261.040266 360.646651 255.956314 360.115819 248.836592 C 359.645184 241.662145 359.201911 233.22355 358.791474 223.520808 C 358.441234 213.757869 358.173081 203.261614 357.997961 192.026572 C 357.822841 180.797003 357.762644 169.534598 357.822841 158.239359 C 357.937764 146.889394 358.145719 136.070263 358.441234 125.776491 C 358.791474 115.488191 359.322306 106.371006 360.028259 98.430409 C 360.794409 90.489812 361.730206 84.431755 362.852069 80.256238 C 367.317629 76.261313 372.790128 73.229548 379.258623 71.171888 C 385.787315 69.054031 392.666247 68.172958 399.900892 68.523198 C 407.135537 68.818713 414.074666 70.728616 420.718281 74.258378 C 427.422093 77.78814 433.21747 83.140245 438.09894 90.314692 C 442.98041 97.428942 446.302217 106.781444 448.064362 118.366726 Z M 448.064362 118.366726 " stroke="#806600" stroke-width="13.549988" stroke-opacity="1" stroke-miterlimit="4"/><g fill="#ffde59" fill-opacity="1"><g transform="translate(53.632468, 263.031119)"><g><path d="M 112.109375 -96.640625 C 112.109375 -104.429688 112.109375 -111.707031 112.109375 -118.46875 C 112.109375 -125.226562 112.109375 -132.019531 112.109375 -138.84375 C 112.109375 -145.664062 112.109375 -153.03125 112.109375 -160.9375 C 116.347656 -165.988281 121.160156 -169.570312 126.546875 -171.6875 C 131.941406 -173.8125 137.445312 -174.613281 143.0625 -174.09375 C 148.675781 -173.582031 153.832031 -172.003906 158.53125 -169.359375 C 163.226562 -166.722656 167.039062 -163.171875 169.96875 -158.703125 C 172.894531 -154.234375 174.359375 -149.078125 174.359375 -143.234375 C 174.359375 -139.796875 174.382812 -134.894531 174.4375 -128.53125 C 174.5 -122.164062 174.554688 -114.914062 174.609375 -106.78125 C 174.671875 -98.644531 174.726562 -90.046875 174.78125 -80.984375 C 174.84375 -71.929688 174.84375 -62.960938 174.78125 -54.078125 C 174.726562 -45.191406 174.585938 -36.820312 174.359375 -28.96875 C 174.128906 -21.113281 173.785156 -14.265625 173.328125 -8.421875 C 169.660156 -4.753906 164.816406 -1.921875 158.796875 0.078125 C 152.773438 2.085938 146.238281 2.890625 139.1875 2.484375 C 132.132812 2.085938 125.195312 0.203125 118.375 -3.171875 C 111.5625 -6.554688 105.519531 -11.863281 100.25 -19.09375 C 97.84375 -22.414062 95.347656 -26.164062 92.765625 -30.34375 C 90.179688 -34.53125 87.710938 -38.710938 85.359375 -42.890625 C 83.015625 -47.078125 80.925781 -50.863281 79.09375 -54.25 C 77.257812 -57.632812 75.828125 -60.070312 74.796875 -61.5625 C 74.566406 -62.132812 74.25 -62.648438 73.84375 -63.109375 C 73.445312 -63.566406 73.078125 -64.023438 72.734375 -64.484375 C 72.617188 -64.484375 72.445312 -64.453125 72.21875 -64.390625 C 71.988281 -64.335938 71.757812 -64.3125 71.53125 -64.3125 C 71.644531 -59.15625 71.816406 -54.425781 72.046875 -50.125 C 72.273438 -45.820312 72.503906 -41.578125 72.734375 -37.390625 C 72.960938 -33.210938 73.101562 -28.742188 73.15625 -23.984375 C 73.21875 -19.222656 73.191406 -13.75 73.078125 -7.5625 C 67.460938 -2.976562 61.726562 0.0546875 55.875 1.546875 C 50.03125 3.035156 44.441406 3.347656 39.109375 2.484375 C 33.785156 1.628906 29 -0.113281 24.75 -2.75 C 20.507812 -5.382812 17.128906 -8.5625 14.609375 -12.28125 C 12.085938 -16.007812 10.769531 -19.941406 10.65625 -24.078125 C 10.425781 -31.179688 10.222656 -39.003906 10.046875 -47.546875 C 9.878906 -56.085938 9.738281 -64.96875 9.625 -74.1875 C 9.507812 -83.414062 9.453125 -92.5 9.453125 -101.4375 C 9.453125 -110.382812 9.476562 -118.84375 9.53125 -126.8125 C 9.59375 -134.78125 9.738281 -141.828125 9.96875 -147.953125 C 10.195312 -154.085938 10.484375 -158.816406 10.828125 -162.140625 C 14.953125 -165.585938 20.023438 -168.34375 26.046875 -170.40625 C 32.066406 -172.46875 38.367188 -173.410156 44.953125 -173.234375 C 51.546875 -173.066406 57.851562 -171.375 63.875 -168.15625 C 69.894531 -164.945312 74.96875 -159.90625 79.09375 -153.03125 C 82.070312 -147.988281 84.734375 -143.40625 87.078125 -139.28125 C 89.429688 -135.15625 91.726562 -131.113281 93.96875 -127.15625 C 96.207031 -123.195312 98.53125 -119.066406 100.9375 -114.765625 C 103.34375 -110.472656 106.09375 -105.578125 109.1875 -100.078125 C 109.53125 -99.390625 109.898438 -98.726562 110.296875 -98.09375 C 110.703125 -97.46875 111.078125 -96.867188 111.421875 -96.296875 C 111.535156 -96.410156 111.648438 -96.46875 111.765625 -96.46875 C 111.878906 -96.46875 111.992188 -96.523438 112.109375 -96.640625 Z M 112.109375 -96.640625 "/></g></g><g transform="translate(239.160043, 263.031119)"><g><path d="M 70.671875 -138.25 C 71.242188 -134.8125 71.671875 -129.851562 71.953125 -123.375 C 72.242188 -116.894531 72.414062 -109.46875 72.46875 -101.09375 C 72.53125 -92.726562 72.503906 -84.019531 72.390625 -74.96875 C 72.273438 -65.914062 72.046875 -56.972656 71.703125 -48.140625 C 71.359375 -39.316406 70.957031 -31.207031 70.5 -23.8125 C 70.039062 -16.414062 69.46875 -10.3125 68.78125 -5.5 C 65.914062 -2.40625 62.273438 -0.171875 57.859375 1.203125 C 53.441406 2.578125 48.738281 2.945312 43.75 2.3125 C 38.769531 1.6875 33.929688 -0.0234375 29.234375 -2.828125 C 24.535156 -5.640625 20.378906 -9.65625 16.765625 -14.875 C 13.148438 -20.09375 10.597656 -26.539062 9.109375 -34.21875 C 8.648438 -36.394531 8.25 -40.03125 7.90625 -45.125 C 7.5625 -50.226562 7.242188 -56.25 6.953125 -63.1875 C 6.671875 -70.125 6.472656 -77.601562 6.359375 -85.625 C 6.242188 -93.65625 6.210938 -101.707031 6.265625 -109.78125 C 6.328125 -117.863281 6.472656 -125.570312 6.703125 -132.90625 C 6.929688 -140.25 7.300781 -146.753906 7.8125 -152.421875 C 8.332031 -158.097656 8.992188 -162.425781 9.796875 -165.40625 C 13.003906 -168.28125 16.929688 -170.460938 21.578125 -171.953125 C 26.222656 -173.441406 31.125 -174.070312 36.28125 -173.84375 C 41.4375 -173.613281 46.394531 -172.238281 51.15625 -169.71875 C 55.914062 -167.195312 60.039062 -163.382812 63.53125 -158.28125 C 67.03125 -153.175781 69.410156 -146.5 70.671875 -138.25 Z M 70.671875 -138.25 "/></g></g></g></svg>