<svg xmlns="http://www.w3.org/2000/svg" xmlns:xlink="http://www.w3.org/1999/xlink" width="500" zoomAndPan="magnify" viewBox="0 0 375 374.999991" height="500" preserveAspectRatio="xMidYMid meet" version="1.0"><defs><g/></defs><path stroke-linecap="butt" transform="matrix(0.671362, 0, 0, 0.671362, 3.448214, 49.226013)" fill="none" stroke-linejoin="miter" d="M 168.868809 176.589142 C 168.868809 165.708741 168.868809 155.538184 168.868809 146.065836 C 168.868809 136.541121 168.868809 127.010588 168.868809 117.485874 C 168.868809 107.955341 168.868809 97.639324 168.868809 86.520369 C 174.809391 79.462655 181.541275 74.464653 189.07028 71.526363 C 196.657468 68.52407 204.390117 67.377846 212.268225 68.081872 C 220.152152 68.791716 227.384419 70.996889 233.970843 74.703207 C 240.557267 78.403707 245.8811 83.407528 249.936522 89.697214 C 254.055946 95.928716 256.10984 103.137709 256.10984 111.312555 C 256.10984 116.130187 256.138932 123.01335 256.202935 131.950407 C 256.319303 140.835097 256.406578 150.976562 256.464762 162.386437 C 256.522946 173.796312 256.58113 185.852028 256.639314 198.553587 C 256.761501 211.260964 256.761501 223.846155 256.639314 236.30916 C 256.58113 248.719799 256.377486 260.420593 256.022564 271.42318 C 255.731645 282.419949 255.289446 292.002848 254.701788 300.177694 C 249.523416 305.356067 242.704256 309.324213 234.232671 312.087951 C 225.825088 314.909873 216.67857 316.027005 206.798933 315.439347 C 196.97748 314.909873 187.272396 312.291595 177.689497 307.590331 C 168.158964 302.825064 159.693198 295.383336 152.280561 285.270963 C 148.929165 280.622065 145.432309 275.362235 141.784174 269.479836 C 138.200042 263.597438 134.755552 257.74995 131.46234 251.925735 C 128.169128 246.043336 125.230837 240.748596 122.641651 236.047332 C 120.052465 231.282065 118.056755 227.843393 116.642885 225.725497 C 116.287963 224.963287 115.822491 224.253443 115.234833 223.607601 C 114.705359 222.961759 114.204977 222.315917 113.733687 221.670075 C 113.553316 221.670075 113.291489 221.728259 112.936566 221.844627 C 112.645647 221.902811 112.348908 221.931903 112.057989 221.931903 C 112.23254 229.164169 112.465276 235.779686 112.762015 241.778452 C 113.116937 247.777219 113.436948 253.717801 113.733687 259.600199 C 114.08279 265.482598 114.292253 271.743192 114.350437 278.387801 C 114.408621 285.038227 114.379529 292.712692 114.263161 301.417013 C 106.379234 307.823067 98.326574 312.058859 90.093543 314.118571 C 81.918697 316.236468 74.092954 316.672847 66.627952 315.439347 C 59.157131 314.264031 52.454339 311.855215 46.513756 308.207081 C 40.573174 304.500762 35.836999 300.032234 32.311051 294.795678 C 28.779285 289.56494 26.929035 284.066555 26.754483 278.300525 C 26.457745 268.30452 26.195917 257.336843 25.957362 245.397494 C 25.724627 233.458146 25.515164 221.018415 25.340613 208.08412 C 25.166061 195.144007 25.078785 182.413356 25.078785 169.886349 C 25.078785 157.359342 25.107877 145.50727 25.166061 134.335949 C 25.282429 123.15881 25.486072 113.279173 25.782811 104.691221 C 26.131914 96.109086 26.545021 89.49357 27.016311 84.844671 C 32.782341 80.021221 39.869148 76.169443 48.27673 73.289337 C 56.742496 70.409231 65.598095 69.082636 74.83189 69.32119 C 84.059866 69.553926 92.886373 71.939469 101.293956 76.466181 C 109.765541 80.934709 116.881439 87.992424 122.641651 97.639324 C 126.81926 104.691221 130.55467 111.103093 133.847882 116.869124 C 137.141094 122.629336 140.341212 128.308091 143.459873 133.893751 C 146.636717 139.421227 149.900837 145.21635 153.252233 151.2733 C 156.603629 157.272067 160.455408 164.120319 164.807568 171.823875 C 165.278858 172.766455 165.77924 173.679944 166.308714 174.558521 C 166.896372 175.442918 167.425846 176.298222 167.897136 177.118616 C 168.071688 176.944064 168.252059 176.856788 168.42661 176.856788 C 168.601162 176.856788 168.746622 176.763694 168.868809 176.589142 Z M 404.967687 66.318898 C 421.375564 66.144346 435.694637 67.994596 447.924906 71.875466 C 460.219177 75.698153 470.686472 80.672881 479.332608 86.788016 C 488.036929 92.90315 495.240103 99.402299 500.942132 106.279643 C 506.649978 113.162805 511.147598 119.720138 514.440811 125.95164 C 517.734023 132.130777 520.113747 137.128779 521.585801 140.951465 C 527.171461 156.358578 530.493766 171.911151 531.552714 187.615002 C 532.611662 203.26067 530.73232 219.022705 525.908869 234.901108 C 512.73602 277.125209 484.714625 303.296354 441.838863 313.408727 C 424.488406 317.586335 407.376503 318.91293 390.497336 317.382692 C 373.618169 315.852453 357.152108 310.941727 341.099153 302.650513 C 325.866592 294.766586 313.694507 284.537845 304.57708 271.952654 C 295.517837 259.303461 289.169967 244.722561 285.521833 228.198315 C 283.113017 217.725202 281.699146 207.054264 281.28604 196.173863 C 280.878753 185.235278 281.495503 174.616705 283.142109 164.329781 C 284.846899 154.037038 287.639729 144.803244 291.520599 136.628397 C 295.343285 128.098628 300.312196 119.720138 306.42733 111.487107 C 312.542464 103.195893 320.100561 95.637796 329.10162 88.812818 C 338.09686 81.993657 348.860893 76.553457 361.3879 72.498035 C 373.914907 68.37861 388.437624 66.318898 404.967687 66.318898 Z M 406.201187 152.5068 C 400.260605 152.5068 394.76222 154.153406 389.706034 157.446618 C 384.644029 160.739831 380.646791 165.650557 377.708501 172.178797 C 374.822577 178.648854 373.705445 186.707333 374.357105 196.348415 C 375.002947 205.698578 377.120843 213.111214 380.704975 218.580507 C 384.35311 223.991615 388.617994 227.872485 393.499628 230.223117 C 398.439447 232.579568 402.995251 233.574514 407.172859 233.22541 C 411.466836 232.928672 415.818996 231.549712 420.22934 229.076893 C 424.697868 226.545891 428.491463 222.548653 431.604305 217.07936 C 434.722965 211.610068 436.515031 204.377802 436.986321 195.376743 C 437.632163 186.265135 436.544123 178.532486 433.722201 172.178797 C 430.958463 165.825109 427.106684 160.972566 422.166866 157.62117 C 417.285232 154.21159 411.961399 152.5068 406.201187 152.5068 Z M 406.201187 152.5068 " stroke="#802f00" stroke-width="13.549988" stroke-opacity="1" stroke-miterlimit="4"/><g fill="#ff7828" fill-opacity="1"><g transform="translate(11.399657, 258.690953)"><g><path d="M 105.4375 -90.890625 C 105.4375 -98.222656 105.4375 -105.066406 105.4375 -111.421875 C 105.4375 -117.785156 105.4375 -124.171875 105.4375 -130.578125 C 105.4375 -136.992188 105.4375 -143.925781 105.4375 -151.375 C 109.425781 -156.113281 113.953125 -159.476562 119.015625 -161.46875 C 124.085938 -163.46875 129.265625 -164.222656 134.546875 -163.734375 C 139.828125 -163.253906 144.675781 -161.773438 149.09375 -159.296875 C 153.519531 -156.816406 157.109375 -153.472656 159.859375 -149.265625 C 162.609375 -145.054688 163.984375 -140.207031 163.984375 -134.71875 C 163.984375 -131.476562 164.007812 -126.863281 164.0625 -120.875 C 164.113281 -114.894531 164.164062 -108.078125 164.21875 -100.421875 C 164.28125 -92.773438 164.335938 -84.691406 164.390625 -76.171875 C 164.441406 -67.648438 164.441406 -59.210938 164.390625 -50.859375 C 164.335938 -42.503906 164.203125 -34.632812 163.984375 -27.25 C 163.765625 -19.863281 163.441406 -13.421875 163.015625 -7.921875 C 159.566406 -4.472656 155.007812 -1.804688 149.34375 0.078125 C 143.6875 1.960938 137.539062 2.71875 130.90625 2.34375 C 124.28125 1.96875 117.757812 0.191406 111.34375 -2.984375 C 104.925781 -6.171875 99.238281 -11.160156 94.28125 -17.953125 C 92.019531 -21.078125 89.675781 -24.609375 87.25 -28.546875 C 84.820312 -32.484375 82.503906 -36.414062 80.296875 -40.34375 C 78.085938 -44.28125 76.117188 -47.835938 74.390625 -51.015625 C 72.660156 -54.203125 71.3125 -56.492188 70.34375 -57.890625 C 70.132812 -58.429688 69.835938 -58.914062 69.453125 -59.34375 C 69.078125 -59.78125 68.726562 -60.210938 68.40625 -60.640625 C 68.300781 -60.640625 68.140625 -60.613281 67.921875 -60.5625 C 67.703125 -60.507812 67.488281 -60.484375 67.28125 -60.484375 C 67.382812 -55.628906 67.539062 -51.179688 67.75 -47.140625 C 67.96875 -43.097656 68.1875 -39.109375 68.40625 -35.171875 C 68.625 -31.234375 68.757812 -27.023438 68.8125 -22.546875 C 68.863281 -18.078125 68.835938 -12.929688 68.734375 -7.109375 C 63.453125 -2.796875 58.0625 0.0546875 52.5625 1.453125 C 47.0625 2.859375 41.800781 3.15625 36.78125 2.34375 C 31.769531 1.53125 27.269531 -0.113281 23.28125 -2.59375 C 19.289062 -5.070312 16.109375 -8.0625 13.734375 -11.5625 C 11.367188 -15.0625 10.132812 -18.753906 10.03125 -22.640625 C 9.8125 -29.328125 9.617188 -36.6875 9.453125 -44.71875 C 9.296875 -52.75 9.160156 -61.101562 9.046875 -69.78125 C 8.941406 -78.457031 8.890625 -87 8.890625 -95.40625 C 8.890625 -103.820312 8.914062 -111.773438 8.96875 -119.265625 C 9.03125 -126.753906 9.164062 -133.382812 9.375 -139.15625 C 9.59375 -144.925781 9.863281 -149.375 10.1875 -152.5 C 14.070312 -155.738281 18.84375 -158.328125 24.5 -160.265625 C 30.15625 -162.203125 36.082031 -163.085938 42.28125 -162.921875 C 48.488281 -162.765625 54.421875 -161.175781 60.078125 -158.15625 C 65.734375 -155.144531 70.503906 -150.40625 74.390625 -143.9375 C 77.191406 -139.1875 79.695312 -134.867188 81.90625 -130.984375 C 84.113281 -127.109375 86.269531 -123.3125 88.375 -119.59375 C 90.476562 -115.875 92.660156 -111.992188 94.921875 -107.953125 C 97.191406 -103.910156 99.78125 -99.300781 102.6875 -94.125 C 103.007812 -93.476562 103.359375 -92.859375 103.734375 -92.265625 C 104.117188 -91.671875 104.472656 -91.101562 104.796875 -90.5625 C 104.898438 -90.664062 105.003906 -90.71875 105.109375 -90.71875 C 105.222656 -90.71875 105.332031 -90.773438 105.4375 -90.890625 Z M 105.4375 -90.890625 "/></g></g><g transform="translate(185.897848, 258.690953)"><g><path d="M 89.4375 -164.953125 C 100.425781 -165.054688 110.046875 -163.816406 118.296875 -161.234375 C 126.546875 -158.648438 133.582031 -155.304688 139.40625 -151.203125 C 145.226562 -147.109375 150.050781 -142.742188 153.875 -138.109375 C 157.695312 -133.472656 160.710938 -129.078125 162.921875 -124.921875 C 165.140625 -120.773438 166.734375 -117.410156 167.703125 -114.828125 C 171.472656 -104.472656 173.707031 -94.039062 174.40625 -83.53125 C 175.113281 -73.019531 173.847656 -62.425781 170.609375 -51.75 C 161.773438 -23.394531 142.960938 -5.820312 114.171875 0.96875 C 102.523438 3.769531 91.039062 4.660156 79.71875 3.640625 C 68.40625 2.617188 57.359375 -0.695312 46.578125 -6.3125 C 36.335938 -11.59375 28.171875 -18.460938 22.078125 -26.921875 C 15.984375 -35.390625 11.695312 -45.175781 9.21875 -56.28125 C 7.601562 -63.289062 6.660156 -70.457031 6.390625 -77.78125 C 6.117188 -85.113281 6.546875 -92.226562 7.671875 -99.125 C 8.804688 -106.03125 10.671875 -112.234375 13.265625 -117.734375 C 15.847656 -123.441406 19.1875 -129.070312 23.28125 -134.625 C 27.382812 -140.175781 32.453125 -145.242188 38.484375 -149.828125 C 44.523438 -154.410156 51.75 -158.078125 60.15625 -160.828125 C 68.570312 -163.578125 78.332031 -164.953125 89.4375 -164.953125 Z M 90.234375 -107.0625 C 86.242188 -107.0625 82.550781 -105.953125 79.15625 -103.734375 C 75.757812 -101.523438 73.09375 -98.238281 71.15625 -93.875 C 69.21875 -89.507812 68.460938 -84.09375 68.890625 -77.625 C 69.328125 -71.375 70.753906 -66.414062 73.171875 -62.75 C 75.597656 -59.082031 78.457031 -56.46875 81.75 -54.90625 C 85.039062 -53.34375 88.085938 -52.664062 90.890625 -52.875 C 93.796875 -53.09375 96.726562 -54.035156 99.6875 -55.703125 C 102.65625 -57.378906 105.191406 -60.050781 107.296875 -63.71875 C 109.398438 -67.382812 110.613281 -72.234375 110.9375 -78.265625 C 111.375 -84.410156 110.644531 -89.613281 108.75 -93.875 C 106.863281 -98.132812 104.273438 -101.394531 100.984375 -103.65625 C 97.703125 -105.925781 94.117188 -107.0625 90.234375 -107.0625 Z M 90.234375 -107.0625 "/></g></g></g></svg>