<svg xmlns="http://www.w3.org/2000/svg" xmlns:xlink="http://www.w3.org/1999/xlink" width="500" zoomAndPan="magnify" viewBox="0 0 375 374.999991" height="500" preserveAspectRatio="xMidYMid meet" version="1.0"><defs><g/></defs><path stroke-linecap="butt" transform="matrix(0.680085, 0, 0, 0.680085, -0.689802, 41.544842)" fill="none" stroke-linejoin="miter" d="M 172.115251 176.589246 C 172.115251 165.710559 172.115251 155.53261 172.115251 146.066888 C 172.115251 136.537985 172.115251 127.014826 172.115251 117.485923 C 172.115251 107.957019 172.115251 97.635477 172.115251 86.521295 C 178.054302 79.46221 184.791736 74.465136 192.316066 71.524329 C 199.903578 68.526085 207.640427 67.377332 215.52087 68.083815 C 223.401313 68.790298 230.632711 70.995903 237.220807 74.70063 C 243.808904 78.405357 249.127629 83.402431 253.188469 89.697596 C 257.301004 95.929579 259.363015 103.138002 259.363015 111.311377 C 259.363015 116.130394 259.391733 123.011423 259.449171 131.954462 C 259.56979 140.83432 259.655947 150.977806 259.713384 162.38492 C 259.770822 173.797777 259.834003 185.853936 259.891441 198.553397 C 260.006316 211.258601 260.006316 223.843186 259.891441 236.312896 C 259.834003 248.719425 259.627228 260.425215 259.271114 271.418777 C 258.978182 282.418084 258.535913 292.004425 257.950049 300.1778 C 252.774918 305.352931 245.951327 309.321871 237.48502 312.090365 C 229.076151 314.910553 219.93208 316.030587 210.047063 315.438979 C 200.230972 314.910553 190.524012 312.291397 180.937671 307.587255 C 171.408768 302.825675 162.942461 295.387501 155.533006 285.272734 C 152.178649 280.62603 148.680697 275.358999 145.033407 269.477385 C 141.449299 263.601516 138.008785 257.748621 134.711865 251.924445 C 131.420688 246.042831 128.479882 240.752825 125.889444 236.048683 C 123.304751 231.28136 121.305921 227.840846 119.892956 225.727141 C 119.542586 224.96322 119.071597 224.256737 118.47999 223.607692 C 117.951564 222.958647 117.451856 222.315345 116.980868 221.6663 C 116.808555 221.6663 116.538598 221.723738 116.188228 221.844357 C 115.895296 221.901795 115.602364 221.930513 115.303689 221.930513 C 115.481745 229.167655 115.71724 235.78447 116.010172 241.780959 C 116.366285 247.777448 116.687936 253.716499 116.980868 259.598113 C 117.336981 265.479726 117.543756 271.746172 117.601194 278.391706 C 117.658632 285.03724 117.629913 292.710908 117.509294 301.412709 C 109.628851 307.822749 101.576095 312.061646 93.339538 314.117913 C 85.166163 316.231618 77.343157 316.673888 69.876265 315.438979 C 62.409373 314.261507 55.700658 311.854871 49.761606 308.207581 C 43.822555 304.502854 39.089694 300.034206 35.55728 294.795894 C 32.030609 289.563325 30.181118 284.066544 30.003061 278.299806 C 29.710129 268.305658 29.445916 257.33507 29.210422 245.39953 C 28.974927 233.458246 28.768152 221.022999 28.590095 208.0823 C 28.412038 195.141602 28.325882 182.413422 28.325882 169.886275 C 28.325882 157.359127 28.354601 145.509743 28.412038 134.33238 C 28.532657 123.160761 28.739433 113.281488 29.032365 104.694562 C 29.382734 96.107636 29.796285 89.490821 30.267274 84.844116 C 36.028269 80.025099 43.116072 76.171034 51.524942 73.287664 C 59.996993 70.410039 68.848132 69.08323 78.078359 69.318724 C 87.31433 69.554218 96.136751 71.93788 104.54562 76.463965 C 113.011927 80.932613 120.12845 87.991698 125.889444 97.635477 C 130.06516 104.694562 133.80435 111.104602 137.095526 116.865596 C 140.386703 122.632334 143.591723 128.307173 146.710586 133.895854 C 149.886887 139.421354 153.149345 145.216811 156.503702 151.270738 C 159.852316 157.272971 163.706382 164.119536 168.060154 171.827667 C 168.531143 172.769644 169.03085 173.677158 169.559276 174.561698 C 170.14514 175.440494 170.673566 176.296314 171.144555 177.117673 C 171.322612 176.939616 171.500668 176.853459 171.678725 176.853459 C 171.851038 176.853459 172.000376 176.767303 172.115251 176.589246 Z M 520.956968 230.138351 C 519.187889 245.543124 514.690522 258.805473 507.459124 269.919655 C 500.221982 280.976399 491.227249 290.120471 480.463437 297.357612 C 469.699624 304.531573 458.057016 309.856041 445.529869 313.325274 C 433.002721 316.794507 420.475574 318.529124 407.948426 318.529124 C 397.833659 318.529124 387.690173 317.937516 377.517968 316.765788 C 367.34002 315.645754 357.489466 313.41143 347.966306 310.057073 C 338.494841 306.708459 329.793039 301.82626 321.855159 295.41622 C 313.911534 288.948743 307.208562 280.505411 301.7405 270.097712 C 296.272437 259.626831 292.504529 246.60572 290.448261 231.017147 C 288.328813 216.433732 287.300679 200.552227 287.358117 183.384118 C 287.478736 166.210266 288.242656 148.686044 289.655622 130.80571 C 291.126025 112.867937 292.975517 95.607928 295.209841 79.025684 C 296.97892 77.14173 300.18394 75.407113 304.824901 73.816091 C 309.534787 72.173374 315.060287 70.967184 321.412889 70.203264 C 327.765491 69.376162 334.347844 69.261286 341.171434 69.84715 C 347.995025 70.375576 354.405065 71.84598 360.401554 74.25836 C 366.403786 76.670741 371.487017 80.139974 375.662733 84.671803 C 379.838449 89.140451 382.428886 95.050783 383.428301 102.4028 C 383.721233 104.987494 383.899289 109.955849 383.956727 117.307866 C 384.071602 124.602445 384.134783 133.275528 384.134783 143.332857 C 384.134783 153.332749 384.249659 163.826604 384.485153 174.825911 C 384.720647 185.825218 385.105479 196.319073 385.633906 206.318965 C 386.21977 216.255675 387.07559 224.664545 388.18988 231.545573 C 389.189295 236.841323 391.3949 241.017039 394.806696 244.072721 C 398.275929 247.134146 402.187431 248.776863 406.541204 249.012357 C 410.889233 249.247851 414.892636 247.898067 418.534182 244.95726 C 422.244653 241.959016 424.74319 237.162973 426.035536 230.574877 C 427.149826 224.813882 428.154985 217.283809 429.033781 207.996144 C 429.91832 198.645297 430.590341 188.43863 431.061329 177.381886 C 431.595499 166.267704 431.796531 155.004184 431.681656 143.59707 C 431.624218 132.189956 431.268105 121.397425 430.624803 111.219477 C 429.975758 101.047272 428.947624 92.345471 427.534659 85.108329 C 430.71096 81.87459 435.064732 79.11184 440.590232 76.820079 C 446.178914 74.465136 452.410897 72.845395 459.291926 71.966599 C 466.172954 71.082059 473.11142 71.17396 480.113067 72.230812 C 487.108971 73.230227 493.63963 75.464551 499.693556 78.933784 C 505.810664 82.403017 510.928357 87.342653 515.046635 93.752693 C 519.15917 100.162733 521.692169 108.27867 522.628403 118.100505 C 523.277448 124.688602 523.863312 130.690834 524.397482 136.101459 C 524.983346 141.448903 525.396897 146.888247 525.632391 152.419491 C 525.867885 157.944991 525.896604 164.182718 525.718547 171.121184 C 525.603672 178.002212 525.161402 186.175587 524.397482 195.641309 C 523.690999 205.112775 522.542246 216.611789 520.956968 230.138351 Z M 520.956968 230.138351 " stroke="#806400" stroke-width="13.549988" stroke-opacity="1" stroke-miterlimit="4"/><g fill="#ffce1f" fill-opacity="1"><g transform="translate(9.575238, 253.731513)"><g><path d="M 106.8125 -92.0625 C 106.8125 -99.488281 106.8125 -106.425781 106.8125 -112.875 C 106.8125 -119.320312 106.8125 -125.789062 106.8125 -132.28125 C 106.8125 -138.78125 106.8125 -145.800781 106.8125 -153.34375 C 110.851562 -158.144531 115.4375 -161.554688 120.5625 -163.578125 C 125.695312 -165.597656 130.941406 -166.363281 136.296875 -165.875 C 141.648438 -165.382812 146.566406 -163.878906 151.046875 -161.359375 C 155.523438 -158.847656 159.15625 -155.460938 161.9375 -151.203125 C 164.71875 -146.941406 166.109375 -142.03125 166.109375 -136.46875 C 166.109375 -133.1875 166.132812 -128.515625 166.1875 -122.453125 C 166.25 -116.390625 166.304688 -109.484375 166.359375 -101.734375 C 166.410156 -93.984375 166.460938 -85.789062 166.515625 -77.15625 C 166.578125 -68.53125 166.578125 -59.984375 166.515625 -51.515625 C 166.460938 -43.054688 166.328125 -35.082031 166.109375 -27.59375 C 165.890625 -20.113281 165.566406 -13.59375 165.140625 -8.03125 C 161.640625 -4.53125 157.019531 -1.828125 151.28125 0.078125 C 145.550781 1.992188 139.328125 2.757812 132.609375 2.375 C 125.898438 1.988281 119.296875 0.1875 112.796875 -3.03125 C 106.296875 -6.25 100.535156 -11.300781 95.515625 -18.1875 C 93.210938 -21.351562 90.832031 -24.925781 88.375 -28.90625 C 85.925781 -32.894531 83.582031 -36.882812 81.34375 -40.875 C 79.101562 -44.863281 77.109375 -48.46875 75.359375 -51.6875 C 73.609375 -54.90625 72.242188 -57.226562 71.265625 -58.65625 C 71.046875 -59.195312 70.742188 -59.6875 70.359375 -60.125 C 69.972656 -60.5625 69.617188 -61 69.296875 -61.4375 C 69.191406 -61.4375 69.03125 -61.40625 68.8125 -61.34375 C 68.59375 -61.289062 68.375 -61.265625 68.15625 -61.265625 C 68.257812 -56.347656 68.421875 -51.84375 68.640625 -47.75 C 68.859375 -43.65625 69.078125 -39.613281 69.296875 -35.625 C 69.515625 -31.644531 69.648438 -27.382812 69.703125 -22.84375 C 69.753906 -18.3125 69.726562 -13.097656 69.625 -7.203125 C 64.269531 -2.835938 58.804688 0.0507812 53.234375 1.46875 C 47.671875 2.894531 42.347656 3.195312 37.265625 2.375 C 32.191406 1.550781 27.632812 -0.113281 23.59375 -2.625 C 19.550781 -5.132812 16.328125 -8.160156 13.921875 -11.703125 C 11.523438 -15.253906 10.269531 -19 10.15625 -22.9375 C 9.9375 -29.707031 9.742188 -37.160156 9.578125 -45.296875 C 9.421875 -53.429688 9.285156 -61.894531 9.171875 -70.6875 C 9.066406 -79.476562 9.015625 -88.132812 9.015625 -96.65625 C 9.015625 -105.175781 9.039062 -113.226562 9.09375 -120.8125 C 9.144531 -128.40625 9.28125 -135.125 9.5 -140.96875 C 9.71875 -146.8125 9.992188 -151.316406 10.328125 -154.484375 C 14.253906 -157.765625 19.082031 -160.382812 24.8125 -162.34375 C 30.550781 -164.3125 36.5625 -165.210938 42.84375 -165.046875 C 49.125 -164.890625 55.128906 -163.28125 60.859375 -160.21875 C 66.585938 -157.15625 71.421875 -152.347656 75.359375 -145.796875 C 78.203125 -140.992188 80.738281 -136.625 82.96875 -132.6875 C 85.207031 -128.757812 87.390625 -124.910156 89.515625 -121.140625 C 91.648438 -117.378906 93.863281 -113.445312 96.15625 -109.34375 C 98.457031 -105.25 101.082031 -100.582031 104.03125 -95.34375 C 104.351562 -94.6875 104.707031 -94.054688 105.09375 -93.453125 C 105.476562 -92.859375 105.832031 -92.285156 106.15625 -91.734375 C 106.269531 -91.847656 106.378906 -91.90625 106.484375 -91.90625 C 106.597656 -91.90625 106.707031 -91.957031 106.8125 -92.0625 Z M 106.8125 -92.0625 "/></g></g><g transform="translate(186.340811, 253.731513)"><g><path d="M 167.265625 -55.703125 C 166.066406 -45.210938 163.007812 -36.195312 158.09375 -28.65625 C 153.175781 -21.125 147.054688 -14.898438 139.734375 -9.984375 C 132.421875 -5.078125 124.503906 -1.453125 115.984375 0.890625 C 107.460938 3.242188 98.945312 4.421875 90.4375 4.421875 C 83.550781 4.421875 76.640625 4.035156 69.703125 3.265625 C 62.765625 2.503906 56.070312 0.976562 49.625 -1.3125 C 43.1875 -3.601562 37.265625 -6.929688 31.859375 -11.296875 C 26.453125 -15.671875 21.890625 -21.40625 18.171875 -28.5 C 14.460938 -35.601562 11.898438 -44.453125 10.484375 -55.046875 C 9.066406 -64.984375 8.382812 -75.796875 8.4375 -87.484375 C 8.488281 -99.171875 9.003906 -111.101562 9.984375 -123.28125 C 10.972656 -135.457031 12.234375 -147.171875 13.765625 -158.421875 C 14.960938 -159.722656 17.144531 -160.921875 20.3125 -162.015625 C 23.476562 -163.109375 27.21875 -163.925781 31.53125 -164.46875 C 35.84375 -165.019531 40.320312 -165.101562 44.96875 -164.71875 C 49.613281 -164.34375 53.984375 -163.332031 58.078125 -161.6875 C 62.171875 -160.050781 65.632812 -157.703125 68.46875 -154.640625 C 71.3125 -151.585938 73.0625 -147.550781 73.71875 -142.53125 C 73.9375 -140.78125 74.070312 -137.421875 74.125 -132.453125 C 74.1875 -127.484375 74.21875 -121.582031 74.21875 -114.75 C 74.21875 -107.925781 74.296875 -100.773438 74.453125 -93.296875 C 74.617188 -85.816406 74.890625 -78.691406 75.265625 -71.921875 C 75.648438 -65.148438 76.226562 -59.414062 77 -54.71875 C 77.65625 -51.113281 79.15625 -48.269531 81.5 -46.1875 C 83.851562 -44.113281 86.503906 -42.992188 89.453125 -42.828125 C 92.398438 -42.671875 95.128906 -43.601562 97.640625 -45.625 C 100.148438 -47.644531 101.84375 -50.894531 102.71875 -55.375 C 103.476562 -59.300781 104.160156 -64.429688 104.765625 -70.765625 C 105.367188 -77.097656 105.832031 -84.03125 106.15625 -91.5625 C 106.488281 -99.101562 106.625 -106.75 106.5625 -114.5 C 106.507812 -122.257812 106.265625 -129.609375 105.828125 -136.546875 C 105.390625 -143.484375 104.679688 -149.410156 103.703125 -154.328125 C 105.878906 -156.503906 108.851562 -158.382812 112.625 -159.96875 C 116.394531 -161.550781 120.628906 -162.644531 125.328125 -163.25 C 130.023438 -163.851562 134.75 -163.796875 139.5 -163.078125 C 144.25 -162.367188 148.695312 -160.835938 152.84375 -158.484375 C 157 -156.140625 160.46875 -152.785156 163.25 -148.421875 C 166.03125 -144.054688 167.75 -138.539062 168.40625 -131.875 C 168.84375 -127.394531 169.253906 -123.328125 169.640625 -119.671875 C 170.023438 -116.015625 170.296875 -112.300781 170.453125 -108.53125 C 170.617188 -104.757812 170.644531 -100.523438 170.53125 -95.828125 C 170.425781 -91.140625 170.128906 -85.570312 169.640625 -79.125 C 169.148438 -72.675781 168.359375 -64.867188 167.265625 -55.703125 Z M 167.265625 -55.703125 "/></g></g></g></svg>