<svg xmlns="http://www.w3.org/2000/svg" xmlns:xlink="http://www.w3.org/1999/xlink" width="500" zoomAndPan="magnify" viewBox="0 0 375 374.999991" height="500" preserveAspectRatio="xMidYMid meet" version="1.0"><defs><g/></defs><path stroke-linecap="butt" transform="matrix(0.892775, 0, 0, 0.892775, -26.21975, 84.589895)" fill="none" stroke-linejoin="miter" d="M 120.779686 96.254386 C 120.779686 90.330093 120.779686 84.790836 120.779686 79.632238 C 120.779686 74.443013 120.779686 69.253787 120.779686 64.068937 C 120.779686 58.879712 120.779686 53.257322 120.779686 47.206142 C 124.013107 43.360165 127.684068 40.638666 131.783819 39.037269 C 135.914197 37.405244 140.123333 36.779562 144.415601 37.164597 C 148.707869 37.549633 152.650106 38.748492 156.233559 40.765552 C 159.821388 42.786987 162.722278 45.508487 164.931856 48.934426 C 167.172061 52.329737 168.292164 56.254471 168.292164 60.704254 C 168.292164 63.329494 168.309665 67.079213 168.340293 71.944659 C 168.405924 76.783852 168.454054 82.305608 168.484681 88.518677 C 168.519685 94.736122 168.550312 101.299223 168.58094 108.216732 C 168.646571 115.134241 168.646571 121.990494 168.58094 128.781116 C 168.550312 135.536735 168.436552 141.911694 168.244034 147.901618 C 168.08652 153.891542 167.845873 159.111395 167.526469 163.561177 C 164.70871 166.378936 160.98962 168.544759 156.377947 170.049897 C 151.801278 171.585663 146.817696 172.193843 141.440329 171.874439 C 136.089213 171.585663 130.803729 170.159282 125.583876 167.599672 C 120.39465 165.00506 115.782978 160.953439 111.748858 155.444809 C 109.924316 152.911452 108.016641 150.045564 106.030209 146.842771 C 104.078781 143.639977 102.206109 140.454685 100.412195 137.28252 C 98.61828 134.079726 97.016884 131.196337 95.608005 128.636728 C 94.199126 126.042115 93.109651 124.169443 92.33958 123.014338 C 92.147062 122.598675 91.893289 122.213639 91.56951 121.863607 C 91.280733 121.5092 91.009458 121.159168 90.755685 120.80476 C 90.659426 120.80476 90.515038 120.835388 90.32252 120.901019 C 90.160631 120.931647 90.003116 120.949148 89.841226 120.949148 C 89.937485 124.887009 90.064372 128.492339 90.226262 131.756389 C 90.418779 135.024813 90.593795 138.258234 90.755685 141.461028 C 90.948203 144.663821 91.057588 148.076634 91.092591 151.69509 C 91.123219 155.313547 91.105717 159.49643 91.044461 164.234989 C 86.752193 167.726559 82.363666 170.032395 77.87888 171.152498 C 73.429098 172.307604 69.167457 172.548251 65.098334 171.874439 C 61.033587 171.231255 57.380127 169.918635 54.146706 167.932203 C 50.913285 165.915143 48.331798 163.48242 46.410997 160.629659 C 44.490196 157.781273 43.479479 154.788499 43.38322 151.646961 C 43.225705 146.203962 43.081317 140.23154 42.954431 133.729694 C 42.823169 127.227849 42.713784 120.454728 42.617525 113.405957 C 42.521266 106.361562 42.473136 99.426552 42.473136 92.605302 C 42.473136 85.784052 42.486263 79.330335 42.521266 73.244153 C 42.582522 67.15797 42.696282 61.776227 42.858172 57.103299 C 43.046314 52.425995 43.273835 48.820665 43.527608 46.291683 C 46.669146 43.666443 50.528249 41.566251 55.104919 39.999857 C 59.720967 38.429088 64.538283 37.707147 69.565619 37.838409 C 74.59733 37.965296 79.40152 39.260414 83.978189 41.72814 C 88.594237 44.160863 92.466467 48.006841 95.608005 53.257322 C 97.878838 57.103299 99.913399 60.590493 101.707313 63.732031 C 103.501228 66.869194 105.247013 69.962602 106.944668 73.003506 C 108.672952 76.013782 110.449364 79.168446 112.278282 82.467498 C 114.102824 85.735922 116.198641 89.463764 118.570108 93.659773 C 118.828257 94.171695 119.099532 94.670491 119.388308 95.151785 C 119.707713 95.633079 119.996489 96.096871 120.250262 96.543162 C 120.346521 96.446904 120.44278 96.398774 120.539039 96.398774 C 120.635298 96.398774 120.71843 96.350645 120.779686 96.254386 Z M 262.223269 81.312392 C 258.285409 80.354179 254.763211 80.034775 251.656676 80.354179 C 248.550142 80.642956 245.25109 81.924948 241.75952 84.195781 C 237.209103 87.013539 234.28196 90.745756 232.964964 95.392432 C 231.652344 100.004104 231.350441 104.808295 232.054881 109.805002 C 232.728692 115.729295 234.920768 120.292838 238.635483 123.495632 C 242.385202 126.698425 246.56371 128.251692 251.175382 128.155434 C 254.763211 128.155434 257.53284 127.420366 259.484269 125.945856 C 261.470701 124.440718 262.914583 122.519917 263.81154 120.179078 C 264.739125 117.811986 265.316678 115.265503 265.539823 112.539628 C 265.762969 109.818129 265.924859 107.192888 266.021117 104.663906 C 267.237479 102.996879 269.416429 101.749889 272.553591 100.914188 C 275.725757 100.082862 279.296084 99.776584 283.268948 100.004104 C 287.237436 100.22725 291.131543 101.093579 294.942517 102.598717 C 298.753491 104.068852 301.938783 106.278429 304.502768 109.227449 C 307.097381 112.141466 308.519386 115.873683 308.777535 120.419725 C 308.970052 123.815036 308.615645 127.752897 307.718688 132.237683 C 306.856734 136.691841 305.159078 141.224756 302.625721 145.836429 C 300.096739 150.413098 296.574542 154.674738 292.059128 158.612599 C 287.543714 162.519832 281.807564 165.709499 274.859427 168.17285 C 267.911291 170.609948 259.50177 171.82631 249.639617 171.82631 C 238.941761 171.82631 229.845303 170.496188 222.350241 167.835944 C 214.885808 165.180076 208.720868 161.736635 203.855422 157.509998 C 199.016229 153.248358 195.157125 148.667313 192.273736 143.771239 C 189.394722 138.87079 187.167643 134.193487 185.596874 129.739329 C 182.971634 122.213639 181.720269 114.189154 181.851531 105.670249 C 181.978418 97.120715 183.308539 88.999971 185.837521 81.312392 C 188.751538 72.732231 193.122564 65.490942 198.954973 59.601653 C 204.813635 53.707988 211.814276 48.790037 219.948146 44.852177 C 230.899775 39.501061 242.813991 37.068338 255.690796 37.549633 C 268.598229 38.026551 282.048211 42.305693 296.045118 50.373932 C 297.357738 55.340012 297.585259 59.824798 296.71893 63.82829 C 295.852601 67.796779 294.238078 71.209591 291.86661 74.057977 C 289.495143 76.880111 286.646757 79.054685 283.317077 80.594826 C 280.018025 82.130592 276.526455 82.996921 272.842367 83.189439 C 269.15828 83.346953 265.618581 82.725646 262.223269 81.312392 Z M 315.200623 130.365011 C 316.255095 125.11453 317.633346 119.233991 319.331002 112.732146 C 321.028657 106.2303 322.949458 99.553438 325.09778 92.70156 C 327.241726 85.814679 329.420676 79.168446 331.630253 72.762859 C 333.870459 66.326644 336.06691 60.432979 338.210856 55.081864 C 340.359178 49.735124 342.262477 45.442856 343.929505 42.209434 C 347.517334 40.993073 351.792101 39.868595 356.758181 38.844751 C 361.750513 37.79028 367.053499 37.195225 372.658387 37.068338 C 378.263276 36.906449 383.820035 37.62839 389.328665 39.229786 C 394.837294 40.800555 399.899633 43.600812 404.511306 47.634932 C 409.153606 51.638423 412.96458 57.278315 415.944228 64.545856 C 417.353107 68.037426 418.972005 72.522212 420.796548 78.000214 C 422.62109 83.443212 424.541891 89.498767 426.563326 96.158127 C 428.580386 102.791235 430.549316 109.625611 432.470117 116.674382 C 434.390918 123.718777 436.154205 130.588157 437.755601 137.28252 C 439.387626 143.976883 440.68712 150.080567 441.645333 155.589197 C 441.391559 157.925661 440.175198 160.262125 437.996248 162.602965 C 435.817299 164.908801 433.030168 166.877731 429.634857 168.509756 C 426.274549 170.111153 422.638591 171.17 418.731358 171.681921 C 414.854753 172.224471 410.99565 171.922568 407.154048 170.767463 C 403.30807 169.64736 399.834002 167.420281 396.727467 164.090601 C 393.620933 160.760921 391.201336 156.131747 389.473053 150.207454 C 385.342674 150.014936 381.050406 149.966807 376.596248 150.063066 C 372.146465 150.159325 367.823569 150.159325 363.62756 150.063066 C 362.472454 152.784565 361.382979 155.764213 360.359135 158.997634 C 359.365919 162.231056 358.390205 165.547609 357.427617 168.94292 C 349.390005 171.922568 342.39374 172.994542 336.434444 172.163216 C 330.510151 171.327514 325.719087 169.039179 322.070002 165.293836 C 318.451546 161.51349 316.049451 156.613041 314.863717 150.592489 C 313.677984 144.536934 313.791744 137.794442 315.200623 130.365011 Z M 368.720527 112.539628 C 371.503281 112.539628 374.211655 112.539628 376.836895 112.539628 C 379.462136 112.539628 382.139881 112.539628 384.86138 112.539628 C 383.645019 107.192888 382.380528 101.924905 381.063532 96.73568 C 379.750912 91.515827 378.486421 86.295974 377.27006 81.07612 C 376.981283 81.137376 376.583122 81.172379 376.0712 81.172379 C 374.916094 86.326601 373.699733 91.498325 372.41774 96.687551 C 371.170751 101.846148 369.936888 107.127257 368.720527 112.539628 Z M 368.720527 112.539628 " stroke="#005180" stroke-width="7.379363" stroke-opacity="1" stroke-miterlimit="4"/><g fill="#38b6ff" fill-opacity="1"><g transform="translate(5.26453, 236.361703)"><g><path d="M 76.359375 -65.828125 C 76.359375 -71.128906 76.359375 -76.082031 76.359375 -80.6875 C 76.359375 -85.300781 76.359375 -89.929688 76.359375 -94.578125 C 76.359375 -99.222656 76.359375 -104.238281 76.359375 -109.625 C 79.253906 -113.0625 82.535156 -115.5 86.203125 -116.9375 C 89.867188 -118.382812 93.613281 -118.929688 97.4375 -118.578125 C 101.269531 -118.234375 104.785156 -117.160156 107.984375 -115.359375 C 111.191406 -113.566406 113.789062 -111.144531 115.78125 -108.09375 C 117.769531 -105.050781 118.765625 -101.539062 118.765625 -97.5625 C 118.765625 -95.21875 118.78125 -91.878906 118.8125 -87.546875 C 118.851562 -83.210938 118.894531 -78.273438 118.9375 -72.734375 C 118.976562 -67.191406 119.015625 -61.332031 119.046875 -55.15625 C 119.085938 -48.988281 119.085938 -42.878906 119.046875 -36.828125 C 119.015625 -30.785156 118.921875 -25.085938 118.765625 -19.734375 C 118.609375 -14.390625 118.375 -9.722656 118.0625 -5.734375 C 115.5625 -3.234375 112.257812 -1.300781 108.15625 0.0625 C 104.0625 1.425781 99.613281 1.96875 94.8125 1.6875 C 90.007812 1.414062 85.285156 0.128906 80.640625 -2.171875 C 75.992188 -4.472656 71.875 -8.082031 68.28125 -13 C 66.644531 -15.257812 64.945312 -17.816406 63.1875 -20.671875 C 61.425781 -23.523438 59.742188 -26.375 58.140625 -29.21875 C 56.546875 -32.070312 55.125 -34.648438 53.875 -36.953125 C 52.625 -39.253906 51.648438 -40.914062 50.953125 -41.9375 C 50.796875 -42.320312 50.578125 -42.671875 50.296875 -42.984375 C 50.023438 -43.296875 49.773438 -43.609375 49.546875 -43.921875 C 49.460938 -43.921875 49.34375 -43.898438 49.1875 -43.859375 C 49.03125 -43.828125 48.875 -43.8125 48.71875 -43.8125 C 48.800781 -40.289062 48.921875 -37.066406 49.078125 -34.140625 C 49.234375 -31.210938 49.390625 -28.320312 49.546875 -25.46875 C 49.703125 -22.625 49.796875 -19.582031 49.828125 -16.34375 C 49.867188 -13.101562 49.851562 -9.375 49.78125 -5.15625 C 45.945312 -2.03125 42.039062 0.0351562 38.0625 1.046875 C 34.082031 2.066406 30.273438 2.28125 26.640625 1.6875 C 23.015625 1.101562 19.753906 -0.0820312 16.859375 -1.875 C 13.972656 -3.664062 11.671875 -5.832031 9.953125 -8.375 C 8.234375 -10.914062 7.335938 -13.585938 7.265625 -16.390625 C 7.109375 -21.234375 6.96875 -26.5625 6.84375 -32.375 C 6.726562 -38.195312 6.628906 -44.25 6.546875 -50.53125 C 6.472656 -56.820312 6.4375 -63.007812 6.4375 -69.09375 C 6.4375 -75.1875 6.457031 -80.945312 6.5 -86.375 C 6.539062 -91.800781 6.640625 -96.601562 6.796875 -100.78125 C 6.953125 -104.957031 7.144531 -108.179688 7.375 -110.453125 C 10.1875 -112.796875 13.640625 -114.664062 17.734375 -116.0625 C 21.835938 -117.46875 26.132812 -118.113281 30.625 -118 C 35.113281 -117.882812 39.40625 -116.734375 43.5 -114.546875 C 47.601562 -112.359375 51.0625 -108.921875 53.875 -104.234375 C 55.90625 -100.804688 57.71875 -97.6875 59.3125 -94.875 C 60.914062 -92.0625 62.476562 -89.304688 64 -86.609375 C 65.53125 -83.921875 67.113281 -81.109375 68.75 -78.171875 C 70.394531 -75.242188 72.269531 -71.910156 74.375 -68.171875 C 74.601562 -67.703125 74.851562 -67.25 75.125 -66.8125 C 75.40625 -66.382812 75.660156 -65.976562 75.890625 -65.59375 C 75.972656 -65.664062 76.050781 -65.703125 76.125 -65.703125 C 76.207031 -65.703125 76.285156 -65.742188 76.359375 -65.828125 Z M 76.359375 -65.828125 "/></g></g></g><g fill="#38b6ff" fill-opacity="1"><g transform="translate(131.628123, 236.361703)"><g><path d="M 76.25 -79.171875 C 72.738281 -80.035156 69.59375 -80.328125 66.8125 -80.046875 C 64.039062 -79.773438 61.097656 -78.625 57.984375 -76.59375 C 53.921875 -74.101562 51.300781 -70.785156 50.125 -66.640625 C 48.957031 -62.503906 48.6875 -58.210938 49.3125 -53.765625 C 49.9375 -48.453125 51.90625 -44.367188 55.21875 -41.515625 C 58.539062 -38.671875 62.269531 -37.285156 66.40625 -37.359375 C 69.613281 -37.359375 72.09375 -38.019531 73.84375 -39.34375 C 75.601562 -40.675781 76.890625 -42.394531 77.703125 -44.5 C 78.523438 -46.613281 79.035156 -48.878906 79.234375 -51.296875 C 79.429688 -53.722656 79.566406 -56.066406 79.640625 -58.328125 C 80.734375 -59.804688 82.6875 -60.914062 85.5 -61.65625 C 88.3125 -62.40625 91.492188 -62.679688 95.046875 -62.484375 C 98.597656 -62.285156 102.070312 -61.523438 105.46875 -60.203125 C 108.863281 -58.878906 111.710938 -56.90625 114.015625 -54.28125 C 116.316406 -51.664062 117.585938 -48.328125 117.828125 -44.265625 C 117.984375 -41.222656 117.671875 -37.710938 116.890625 -33.734375 C 116.109375 -29.753906 114.582031 -25.710938 112.3125 -21.609375 C 110.050781 -17.503906 106.910156 -13.695312 102.890625 -10.1875 C 98.867188 -6.675781 93.753906 -3.828125 87.546875 -1.640625 C 81.335938 0.546875 73.820312 1.640625 65 1.640625 C 55.476562 1.640625 47.378906 0.453125 40.703125 -1.921875 C 34.023438 -4.304688 28.519531 -7.390625 24.1875 -11.171875 C 19.851562 -14.960938 16.394531 -19.046875 13.8125 -23.421875 C 11.238281 -27.796875 9.25 -31.972656 7.84375 -35.953125 C 5.5 -42.671875 4.382812 -49.835938 4.5 -57.453125 C 4.625 -65.066406 5.816406 -72.304688 8.078125 -79.171875 C 10.660156 -86.828125 14.566406 -93.289062 19.796875 -98.5625 C 25.023438 -103.832031 31.269531 -108.222656 38.53125 -111.734375 C 48.289062 -116.492188 58.929688 -118.660156 70.453125 -118.234375 C 81.972656 -117.804688 93.976562 -114 106.46875 -106.8125 C 107.632812 -102.363281 107.828125 -98.363281 107.046875 -94.8125 C 106.265625 -91.257812 104.820312 -88.210938 102.71875 -85.671875 C 100.613281 -83.140625 98.078125 -81.1875 95.109375 -79.8125 C 92.140625 -78.445312 89.015625 -77.6875 85.734375 -77.53125 C 82.453125 -77.375 79.289062 -77.921875 76.25 -79.171875 Z M 76.25 -79.171875 "/></g></g></g><g fill="#38b6ff" fill-opacity="1"><g transform="translate(253.424362, 236.361703)"><g><path d="M 1.75 -35.375 C 2.6875 -40.0625 3.914062 -45.3125 5.4375 -51.125 C 6.96875 -56.9375 8.6875 -62.90625 10.59375 -69.03125 C 12.507812 -75.164062 14.460938 -81.101562 16.453125 -86.84375 C 18.441406 -92.582031 20.394531 -97.832031 22.3125 -102.59375 C 24.226562 -107.363281 25.925781 -111.191406 27.40625 -114.078125 C 30.601562 -115.171875 34.425781 -116.1875 38.875 -117.125 C 43.332031 -118.0625 48.054688 -118.585938 53.046875 -118.703125 C 58.046875 -118.816406 63.003906 -118.171875 67.921875 -116.765625 C 72.847656 -115.367188 77.378906 -112.875 81.515625 -109.28125 C 85.660156 -105.6875 89.054688 -100.648438 91.703125 -94.171875 C 92.953125 -91.046875 94.394531 -87.039062 96.03125 -82.15625 C 97.675781 -77.28125 99.394531 -71.875 101.1875 -65.9375 C 102.988281 -60.007812 104.75 -53.898438 106.46875 -47.609375 C 108.1875 -41.328125 109.765625 -35.195312 111.203125 -29.21875 C 112.648438 -23.25 113.804688 -17.804688 114.671875 -12.890625 C 114.429688 -10.773438 113.332031 -8.679688 111.375 -6.609375 C 109.425781 -4.546875 106.945312 -2.789062 103.9375 -1.34375 C 100.9375 0.09375 97.695312 1.046875 94.21875 1.515625 C 90.75 1.984375 87.296875 1.710938 83.859375 0.703125 C 80.421875 -0.304688 77.316406 -2.296875 74.546875 -5.265625 C 71.773438 -8.234375 69.609375 -12.375 68.046875 -17.6875 C 64.378906 -17.84375 60.550781 -17.878906 56.5625 -17.796875 C 52.582031 -17.722656 48.71875 -17.722656 44.96875 -17.796875 C 43.957031 -15.378906 43.003906 -12.722656 42.109375 -9.828125 C 41.210938 -6.941406 40.332031 -3.976562 39.46875 -0.9375 C 32.289062 1.71875 26.046875 2.671875 20.734375 1.921875 C 15.421875 1.179688 11.144531 -0.863281 7.90625 -4.21875 C 4.664062 -7.570312 2.519531 -11.941406 1.46875 -17.328125 C 0.414062 -22.722656 0.507812 -28.738281 1.75 -35.375 Z M 49.546875 -51.296875 C 52.046875 -51.296875 54.460938 -51.296875 56.796875 -51.296875 C 59.140625 -51.296875 61.523438 -51.296875 63.953125 -51.296875 C 62.859375 -56.066406 61.722656 -60.773438 60.546875 -65.421875 C 59.378906 -70.066406 58.25 -74.726562 57.15625 -79.40625 C 56.925781 -79.332031 56.578125 -79.296875 56.109375 -79.296875 C 55.085938 -74.691406 54.007812 -70.082031 52.875 -65.46875 C 51.75 -60.863281 50.640625 -56.140625 49.546875 -51.296875 Z M 49.546875 -51.296875 "/></g></g></g></svg>