<svg xmlns="http://www.w3.org/2000/svg" xmlns:xlink="http://www.w3.org/1999/xlink" width="500" zoomAndPan="magnify" viewBox="0 0 375 374.999991" height="500" preserveAspectRatio="xMidYMid meet" version="1.0"><defs><g/></defs><path stroke-linecap="butt" transform="matrix(0.892775, 0, 0, 0.892775, -26.21975, 84.589857)" fill="none" stroke-linejoin="miter" d="M 130.685593 96.254429 C 130.685593 90.330136 130.685593 84.790879 130.685593 79.632281 C 130.685593 74.443056 130.685593 69.25383 130.685593 64.06898 C 130.685593 58.879755 130.685593 53.257365 130.685593 47.206185 C 133.92339 43.360208 137.589976 40.638709 141.689726 39.037312 C 145.820105 37.405287 150.033616 36.779605 154.321509 37.16464 C 158.613777 37.549676 162.556013 38.748535 166.139467 40.765595 C 169.727295 42.782655 172.628186 45.50853 174.837763 48.934469 C 177.077969 52.32978 178.198071 56.254514 178.198071 60.704297 C 178.198071 63.329537 178.215573 67.079256 178.246201 71.944702 C 178.311832 76.783895 178.359961 82.305651 178.390589 88.51872 C 178.425592 94.736165 178.45622 101.299266 178.486848 108.216775 C 178.552479 115.134284 178.552479 121.990537 178.486848 128.781159 C 178.45622 135.536778 178.34246 141.911737 178.149942 147.901661 C 177.992427 153.891585 177.75178 159.111438 177.432376 163.56122 C 174.614618 166.378979 170.899903 168.544802 166.283855 170.04994 C 161.707185 171.585706 156.723604 172.193886 151.346236 171.874482 C 145.995121 171.585706 140.709637 170.159325 135.489783 167.599715 C 130.300558 165.005103 125.688886 160.953482 121.654766 155.444852 C 119.830224 152.911495 117.922549 150.045607 115.936117 146.842814 C 113.984688 143.64002 112.112017 140.454728 110.318102 137.282563 C 108.524188 134.079769 106.922791 131.19638 105.513912 128.636771 C 104.105033 126.042158 103.015558 124.169486 102.245488 123.014381 C 102.05297 122.598718 101.799197 122.213682 101.475417 121.86365 C 101.191016 121.509243 100.915366 121.159211 100.661593 120.804803 C 100.565334 120.804803 100.420946 120.835431 100.228428 120.901062 C 100.066538 120.93169 99.909024 120.949191 99.747134 120.949191 C 99.843393 124.887052 99.970279 128.492383 100.132169 131.756432 C 100.324687 135.024856 100.499703 138.258277 100.661593 141.461071 C 100.85411 144.663864 100.963495 148.076677 100.998498 151.695133 C 101.029126 155.31359 101.011625 159.496473 100.950369 164.235032 C 96.658101 167.726602 92.269574 170.032438 87.784788 171.152541 C 83.335005 172.307647 79.073365 172.548294 75.004242 171.874482 C 70.939495 171.231298 67.286035 169.918678 64.052614 167.932246 C 60.819192 165.915186 58.237706 163.482463 56.316905 160.629702 C 54.396104 157.781316 53.385386 154.788542 53.289127 151.647004 C 53.131613 146.204005 52.987225 140.231583 52.860338 133.729737 C 52.729076 127.227892 52.619691 120.454771 52.523432 113.406 C 52.427173 106.361605 52.379044 99.426595 52.379044 92.605345 C 52.379044 85.784095 52.39217 79.330378 52.427173 73.244196 C 52.488429 67.158013 52.602189 61.77627 52.764079 57.103342 C 52.956597 52.426038 53.179742 48.820708 53.433516 46.291726 C 56.575053 43.666486 60.434157 41.566294 65.015202 39.9999 C 69.626874 38.429131 74.444191 37.70719 79.475902 37.838452 C 84.503237 37.965339 89.307427 39.260457 93.888472 41.728183 C 98.500145 44.160906 102.372374 48.006884 105.513912 53.257365 C 107.784745 57.103342 109.819307 60.590536 111.613221 63.732074 C 113.407135 66.869237 115.15292 69.962645 116.850576 73.003549 C 118.578859 76.013825 120.359647 79.168489 122.184189 82.467541 C 124.008732 85.735965 126.104549 89.463807 128.476016 93.659816 C 128.734165 94.171738 129.005439 94.670534 129.294216 95.151828 C 129.61362 95.633122 129.902397 96.096915 130.15617 96.543205 C 130.252429 96.446947 130.348687 96.398817 130.444946 96.398817 C 130.541205 96.398817 130.624338 96.350688 130.685593 96.254429 Z M 272.129177 81.312435 C 268.191316 80.354222 264.669119 80.034818 261.562584 80.354222 C 258.456049 80.642999 255.156997 81.924991 251.665427 84.195824 C 247.11501 87.013582 244.187867 90.745799 242.875247 95.392475 C 241.558251 100.004147 241.256349 104.808338 241.960788 109.805045 C 242.6346 115.729338 244.826676 120.292881 248.541391 123.495675 C 252.29111 126.698468 256.469617 128.251735 261.08129 128.155477 C 264.669119 128.155477 267.438747 127.420409 269.390176 125.945899 C 271.376608 124.440761 272.82049 122.51996 273.717448 120.179121 C 274.645033 117.812029 275.222585 115.265546 275.445731 112.539671 C 275.668876 109.818172 275.830766 107.192931 275.927025 104.663949 C 277.143386 102.996922 279.322336 101.749932 282.459498 100.914231 C 285.631664 100.082905 289.201991 99.776627 293.174855 100.004147 C 297.143344 100.227293 301.037451 101.093622 304.848425 102.59876 C 308.659399 104.068895 311.844691 106.278472 314.408676 109.227493 C 317.003288 112.141509 318.425294 115.873726 318.683442 120.419768 C 318.87596 123.815079 318.521552 127.75294 317.624595 132.237726 C 316.762641 136.691884 315.064986 141.224799 312.536004 145.836472 C 310.002647 150.413141 306.480449 154.674781 301.965036 158.612642 C 297.449622 162.519875 291.717847 165.709542 284.765335 168.172893 C 277.817198 170.609991 269.407678 171.826353 259.545524 171.826353 C 248.847669 171.826353 239.751211 170.496231 232.256149 167.835987 C 224.791715 165.180119 218.626775 161.736678 213.76133 157.510041 C 208.922136 153.248401 205.063033 148.667356 202.179643 143.766907 C 199.30063 138.870833 197.073551 134.19353 195.502782 129.739372 C 192.877541 122.213682 191.626177 114.189197 191.757439 105.670292 C 191.884325 97.120758 193.214447 89.000014 195.743429 81.312435 C 198.657446 72.732274 203.028471 65.490985 208.860881 59.597321 C 214.719542 53.708031 221.720184 48.79008 229.854054 44.85222 C 240.805682 39.501104 252.719899 37.068381 265.596704 37.549676 C 278.504136 38.026594 291.954118 42.305736 305.951026 50.373975 C 307.263646 55.340055 307.491167 59.824841 306.624837 63.828333 C 305.758508 67.796822 304.143985 71.209634 301.772518 74.05802 C 299.401051 76.880154 296.552665 79.054728 293.222985 80.594869 C 289.923932 82.130635 286.432362 82.996964 282.748275 83.189482 C 279.064187 83.346996 275.524488 82.725689 272.129177 81.312435 Z M 330.343886 139.684658 C 330.181996 136.70501 330.055109 132.701518 329.95885 127.674183 C 329.862591 122.646847 329.814462 117.011331 329.814462 110.763258 C 329.814462 104.519561 329.880093 98.048343 330.00698 91.35398 C 330.133866 84.659617 330.308882 78.079014 330.536403 71.612171 C 330.759549 65.140953 331.013322 59.15103 331.302098 53.6424 C 331.625878 48.13377 332.006538 43.539599 332.457204 39.855512 C 336.810728 39.439849 342.113714 39.116069 348.357411 38.892924 C 354.636111 38.669778 361.361102 38.507888 368.53676 38.41163 C 375.712417 38.315371 382.901201 38.350374 390.107486 38.507888 C 397.313771 38.63915 404.135021 38.827293 410.571236 39.085441 C 417.011826 39.34359 422.533582 39.645493 427.145254 39.9999 C 427.945953 41.120003 428.654768 42.865788 429.262948 45.232879 C 429.871129 47.604347 430.190533 50.277717 430.221161 53.257365 C 430.286792 56.237013 429.919258 59.26479 429.11856 62.336321 C 428.348489 65.3816 426.970238 68.21686 424.983806 70.842101 C 423.032377 73.467341 420.324004 75.567534 416.867438 77.133927 C 413.406496 78.704696 409.052972 79.487893 403.798115 79.487893 C 402.069832 79.487893 400.450934 79.487893 398.945796 79.487893 C 397.471286 79.487893 395.808633 79.487893 393.949088 79.487893 C 392.124546 79.487893 389.849337 79.487893 387.127838 79.487893 C 384.436966 79.487893 380.993526 79.487893 376.797517 79.487893 C 376.797517 80.54674 376.797517 81.618713 376.797517 82.708188 C 376.797517 83.797663 376.797517 84.996523 376.797517 86.309143 C 378.722693 86.309143 381.365435 86.261013 384.725743 86.164755 C 388.090426 86.068496 391.73951 86.024742 395.681747 86.024742 C 399.619607 86.024742 403.496213 86.199758 407.307187 86.54979 C 411.118161 86.904197 414.417213 87.52988 417.204343 88.426837 C 419.829584 94.18924 420.919059 99.570983 420.468393 104.567691 C 420.052729 109.529395 418.114427 113.598518 414.65786 116.770684 C 411.196918 119.907846 406.230838 121.653631 399.763996 122.008038 C 397.554418 122.069294 395.489229 122.104297 393.564053 122.104297 C 391.643252 122.104297 389.416173 122.086796 386.887191 122.056168 C 384.358209 122.021165 381.041655 122.008038 376.941905 122.008038 C 376.941905 123.381914 376.941905 124.712036 376.941905 125.994029 C 376.941905 127.241018 376.941905 128.57114 376.941905 129.980019 C 377.357568 129.980019 377.825736 129.980019 378.337658 129.980019 C 378.880207 129.980019 379.409631 129.980019 379.921553 129.980019 C 386.93532 129.980019 393.949088 129.980019 400.962855 129.980019 C 408.011626 129.980019 415.03852 129.980019 422.056663 129.980019 C 424.585645 133.471589 426.204543 137.348194 426.908983 141.605459 C 427.613422 145.836472 427.307144 149.96685 425.994524 154.00097 C 424.681904 158.004461 422.18355 161.47853 418.499462 164.42755 C 414.850378 167.341567 409.914926 169.201112 403.701856 170.001811 C 401.492279 170.255584 398.530133 170.496231 394.815417 170.719376 C 391.100702 170.946897 387.014078 171.073784 382.564295 171.104412 C 378.114512 171.170043 373.677856 171.152541 369.258701 171.056282 C 364.835171 170.960023 360.84918 170.785007 357.296355 170.526859 C 353.769782 170.273085 351.048282 169.918678 349.127481 169.472387 C 343.010671 167.901618 338.477756 164.777582 335.533111 160.104654 C 332.614719 155.42735 330.886435 148.619226 330.343886 139.684658 Z M 330.343886 139.684658 " stroke="#806400" stroke-width="7.379363" stroke-opacity="1" stroke-miterlimit="4"/><g fill="#ffce1f" fill-opacity="1"><g transform="translate(14.108586, 236.361665)"><g><path d="M 76.359375 -65.828125 C 76.359375 -71.128906 76.359375 -76.082031 76.359375 -80.6875 C 76.359375 -85.300781 76.359375 -89.929688 76.359375 -94.578125 C 76.359375 -99.222656 76.359375 -104.238281 76.359375 -109.625 C 79.253906 -113.0625 82.535156 -115.5 86.203125 -116.9375 C 89.867188 -118.382812 93.613281 -118.929688 97.4375 -118.578125 C 101.269531 -118.234375 104.785156 -117.160156 107.984375 -115.359375 C 111.191406 -113.566406 113.789062 -111.144531 115.78125 -108.09375 C 117.769531 -105.050781 118.765625 -101.539062 118.765625 -97.5625 C 118.765625 -95.21875 118.78125 -91.878906 118.8125 -87.546875 C 118.851562 -83.210938 118.894531 -78.273438 118.9375 -72.734375 C 118.976562 -67.191406 119.015625 -61.332031 119.046875 -55.15625 C 119.085938 -48.988281 119.085938 -42.878906 119.046875 -36.828125 C 119.015625 -30.785156 118.921875 -25.085938 118.765625 -19.734375 C 118.609375 -14.390625 118.375 -9.722656 118.0625 -5.734375 C 115.5625 -3.234375 112.257812 -1.300781 108.15625 0.0625 C 104.0625 1.425781 99.613281 1.96875 94.8125 1.6875 C 90.007812 1.414062 85.285156 0.128906 80.640625 -2.171875 C 75.992188 -4.472656 71.875 -8.082031 68.28125 -13 C 66.644531 -15.257812 64.945312 -17.816406 63.1875 -20.671875 C 61.425781 -23.523438 59.742188 -26.375 58.140625 -29.21875 C 56.546875 -32.070312 55.125 -34.648438 53.875 -36.953125 C 52.625 -39.253906 51.648438 -40.914062 50.953125 -41.9375 C 50.796875 -42.320312 50.578125 -42.671875 50.296875 -42.984375 C 50.023438 -43.296875 49.773438 -43.609375 49.546875 -43.921875 C 49.460938 -43.921875 49.34375 -43.898438 49.1875 -43.859375 C 49.03125 -43.828125 48.875 -43.8125 48.71875 -43.8125 C 48.800781 -40.289062 48.921875 -37.066406 49.078125 -34.140625 C 49.234375 -31.210938 49.390625 -28.320312 49.546875 -25.46875 C 49.703125 -22.625 49.796875 -19.582031 49.828125 -16.34375 C 49.867188 -13.101562 49.851562 -9.375 49.78125 -5.15625 C 45.945312 -2.03125 42.039062 0.0351562 38.0625 1.046875 C 34.082031 2.066406 30.273438 2.28125 26.640625 1.6875 C 23.015625 1.101562 19.753906 -0.0820312 16.859375 -1.875 C 13.972656 -3.664062 11.671875 -5.832031 9.953125 -8.375 C 8.234375 -10.914062 7.335938 -13.585938 7.265625 -16.390625 C 7.109375 -21.234375 6.96875 -26.5625 6.84375 -32.375 C 6.726562 -38.195312 6.628906 -44.25 6.546875 -50.53125 C 6.472656 -56.820312 6.4375 -63.007812 6.4375 -69.09375 C 6.4375 -75.1875 6.457031 -80.945312 6.5 -86.375 C 6.539062 -91.800781 6.640625 -96.601562 6.796875 -100.78125 C 6.953125 -104.957031 7.144531 -108.179688 7.375 -110.453125 C 10.1875 -112.796875 13.640625 -114.664062 17.734375 -116.0625 C 21.835938 -117.46875 26.132812 -118.113281 30.625 -118 C 35.113281 -117.882812 39.40625 -116.734375 43.5 -114.546875 C 47.601562 -112.359375 51.0625 -108.921875 53.875 -104.234375 C 55.90625 -100.804688 57.71875 -97.6875 59.3125 -94.875 C 60.914062 -92.0625 62.476562 -89.304688 64 -86.609375 C 65.53125 -83.921875 67.113281 -81.109375 68.75 -78.171875 C 70.394531 -75.242188 72.269531 -71.910156 74.375 -68.171875 C 74.601562 -67.703125 74.851562 -67.25 75.125 -66.8125 C 75.40625 -66.382812 75.660156 -65.976562 75.890625 -65.59375 C 75.972656 -65.664062 76.050781 -65.703125 76.125 -65.703125 C 76.207031 -65.703125 76.285156 -65.742188 76.359375 -65.828125 Z M 76.359375 -65.828125 "/></g></g></g><g fill="#ffce1f" fill-opacity="1"><g transform="translate(140.472179, 236.361665)"><g><path d="M 76.25 -79.171875 C 72.738281 -80.035156 69.59375 -80.328125 66.8125 -80.046875 C 64.039062 -79.773438 61.097656 -78.625 57.984375 -76.59375 C 53.921875 -74.101562 51.300781 -70.785156 50.125 -66.640625 C 48.957031 -62.503906 48.6875 -58.210938 49.3125 -53.765625 C 49.9375 -48.453125 51.90625 -44.367188 55.21875 -41.515625 C 58.539062 -38.671875 62.269531 -37.285156 66.40625 -37.359375 C 69.613281 -37.359375 72.09375 -38.019531 73.84375 -39.34375 C 75.601562 -40.675781 76.890625 -42.394531 77.703125 -44.5 C 78.523438 -46.613281 79.035156 -48.878906 79.234375 -51.296875 C 79.429688 -53.722656 79.566406 -56.066406 79.640625 -58.328125 C 80.734375 -59.804688 82.6875 -60.914062 85.5 -61.65625 C 88.3125 -62.40625 91.492188 -62.679688 95.046875 -62.484375 C 98.597656 -62.285156 102.070312 -61.523438 105.46875 -60.203125 C 108.863281 -58.878906 111.710938 -56.90625 114.015625 -54.28125 C 116.316406 -51.664062 117.585938 -48.328125 117.828125 -44.265625 C 117.984375 -41.222656 117.671875 -37.710938 116.890625 -33.734375 C 116.109375 -29.753906 114.582031 -25.710938 112.3125 -21.609375 C 110.050781 -17.503906 106.910156 -13.695312 102.890625 -10.1875 C 98.867188 -6.675781 93.753906 -3.828125 87.546875 -1.640625 C 81.335938 0.546875 73.820312 1.640625 65 1.640625 C 55.476562 1.640625 47.378906 0.453125 40.703125 -1.921875 C 34.023438 -4.304688 28.519531 -7.390625 24.1875 -11.171875 C 19.851562 -14.960938 16.394531 -19.046875 13.8125 -23.421875 C 11.238281 -27.796875 9.25 -31.972656 7.84375 -35.953125 C 5.5 -42.671875 4.382812 -49.835938 4.5 -57.453125 C 4.625 -65.066406 5.816406 -72.304688 8.078125 -79.171875 C 10.660156 -86.828125 14.566406 -93.289062 19.796875 -98.5625 C 25.023438 -103.832031 31.269531 -108.222656 38.53125 -111.734375 C 48.289062 -116.492188 58.929688 -118.660156 70.453125 -118.234375 C 81.972656 -117.804688 93.976562 -114 106.46875 -106.8125 C 107.632812 -102.363281 107.828125 -98.363281 107.046875 -94.8125 C 106.265625 -91.257812 104.820312 -88.210938 102.71875 -85.671875 C 100.613281 -83.140625 98.078125 -81.1875 95.109375 -79.8125 C 92.140625 -78.445312 89.015625 -77.6875 85.734375 -77.53125 C 82.453125 -77.375 79.289062 -77.921875 76.25 -79.171875 Z M 76.25 -79.171875 "/></g></g></g><g fill="#ffce1f" fill-opacity="1"><g transform="translate(262.268418, 236.361665)"><g><path d="M 6.4375 -27.0625 C 6.28125 -29.707031 6.160156 -33.273438 6.078125 -37.765625 C 6.003906 -42.253906 5.96875 -47.289062 5.96875 -52.875 C 5.96875 -58.457031 6.023438 -64.234375 6.140625 -70.203125 C 6.265625 -76.179688 6.421875 -82.0625 6.609375 -87.84375 C 6.804688 -93.625 7.039062 -98.972656 7.3125 -103.890625 C 7.59375 -108.804688 7.925781 -112.90625 8.3125 -116.1875 C 12.21875 -116.582031 16.960938 -116.875 22.546875 -117.0625 C 28.128906 -117.257812 34.117188 -117.394531 40.515625 -117.46875 C 46.921875 -117.550781 53.34375 -117.53125 59.78125 -117.40625 C 66.226562 -117.289062 72.320312 -117.117188 78.0625 -116.890625 C 83.800781 -116.660156 88.738281 -116.390625 92.875 -116.078125 C 93.582031 -115.054688 94.207031 -113.488281 94.75 -111.375 C 95.300781 -109.269531 95.59375 -106.890625 95.625 -104.234375 C 95.664062 -101.585938 95.332031 -98.894531 94.625 -96.15625 C 93.925781 -93.425781 92.695312 -90.890625 90.9375 -88.546875 C 89.1875 -86.203125 86.769531 -84.328125 83.6875 -82.921875 C 80.601562 -81.515625 76.71875 -80.8125 72.03125 -80.8125 C 70.46875 -80.8125 69.019531 -80.8125 67.6875 -80.8125 C 66.363281 -80.8125 64.878906 -80.8125 63.234375 -80.8125 C 61.597656 -80.8125 59.570312 -80.8125 57.15625 -80.8125 C 54.738281 -80.8125 51.65625 -80.8125 47.90625 -80.8125 C 47.90625 -79.875 47.90625 -78.914062 47.90625 -77.9375 C 47.90625 -76.96875 47.90625 -75.894531 47.90625 -74.71875 C 49.625 -74.71875 51.984375 -74.753906 54.984375 -74.828125 C 57.992188 -74.910156 61.253906 -74.953125 64.765625 -74.953125 C 68.285156 -74.953125 71.742188 -74.796875 75.140625 -74.484375 C 78.535156 -74.171875 81.484375 -73.628906 83.984375 -72.859375 C 86.328125 -67.703125 87.300781 -62.894531 86.90625 -58.4375 C 86.519531 -53.988281 84.78125 -50.359375 81.6875 -47.546875 C 78.601562 -44.742188 74.175781 -43.1875 68.40625 -42.875 C 66.445312 -42.789062 64.609375 -42.75 62.890625 -42.75 C 61.171875 -42.75 59.179688 -42.769531 56.921875 -42.8125 C 54.660156 -42.851562 51.691406 -42.875 48.015625 -42.875 C 48.015625 -41.625 48.015625 -40.429688 48.015625 -39.296875 C 48.015625 -38.160156 48.015625 -36.96875 48.015625 -35.71875 C 48.410156 -35.71875 48.84375 -35.71875 49.3125 -35.71875 C 49.78125 -35.71875 50.25 -35.71875 50.71875 -35.71875 C 56.957031 -35.71875 63.21875 -35.71875 69.5 -35.71875 C 75.789062 -35.71875 82.0625 -35.71875 88.3125 -35.71875 C 90.570312 -32.59375 92.015625 -29.132812 92.640625 -25.34375 C 93.265625 -21.5625 92.988281 -17.875 91.8125 -14.28125 C 90.644531 -10.695312 88.421875 -7.59375 85.140625 -4.96875 C 81.867188 -2.351562 77.460938 -0.695312 71.921875 0 C 69.960938 0.226562 67.320312 0.441406 64 0.640625 C 60.6875 0.835938 57.035156 0.953125 53.046875 0.984375 C 49.066406 1.023438 45.101562 1.003906 41.15625 0.921875 C 37.21875 0.847656 33.664062 0.691406 30.5 0.453125 C 27.34375 0.222656 24.90625 -0.0820312 23.1875 -0.46875 C 17.71875 -1.875 13.675781 -4.664062 11.0625 -8.84375 C 8.445312 -13.019531 6.90625 -19.09375 6.4375 -27.0625 Z M 6.4375 -27.0625 "/></g></g></g></svg>