<svg xmlns="http://www.w3.org/2000/svg" xmlns:xlink="http://www.w3.org/1999/xlink" width="500" zoomAndPan="magnify" viewBox="0 0 375 374.999991" height="500" preserveAspectRatio="xMidYMid meet" version="1.0"><defs><g/></defs><path stroke-linecap="butt" transform="matrix(0.75, 0, 0, 0.75, 133.445929, 2.967539)" fill="none" stroke-linejoin="miter" d="M 126.124187 151.262041 C 127.171062 157.32975 127.95752 166.173501 128.483562 177.788085 C 129.009604 189.329752 129.306479 202.595378 129.384604 217.584962 C 129.45752 232.496422 129.384604 248.043298 129.160645 264.230799 C 129.009604 280.345383 128.598145 296.308926 127.921062 312.121427 C 127.322104 327.855803 126.608562 342.319346 125.785645 355.506847 C 125.035645 368.699556 124.025228 379.600598 122.749187 388.22039 C 117.655436 393.689141 111.171061 397.663099 103.306477 400.137058 C 95.436685 402.611016 87.040851 403.282891 78.124184 402.157891 C 69.207516 401.032891 60.551266 397.959974 52.16064 392.939141 C 43.764806 387.918307 36.348139 380.762057 29.900222 371.470389 C 23.457513 362.178722 18.921055 350.673513 16.301263 336.95997 C 15.473138 333.064137 14.723138 326.58497 14.051263 317.517261 C 13.452305 308.371427 12.889804 297.616218 12.363763 285.251634 C 11.915846 272.814133 11.577304 259.433924 11.353346 245.121423 C 11.129388 230.808922 11.051263 216.459962 11.129388 202.069336 C 11.280429 187.605794 11.540846 173.819335 11.915846 160.70475 C 12.363763 147.590166 13.040846 135.975582 13.93668 125.85579 C 14.910638 115.741206 16.113763 108.022455 17.535638 102.699538 C 23.233555 97.605788 30.202306 93.746413 38.441889 91.121412 C 46.764807 88.423496 55.530432 87.298496 64.749183 87.751621 C 73.967933 88.126621 82.806476 90.558912 91.275226 95.053704 C 99.822102 99.553705 107.202311 106.371413 113.421061 115.512039 C 119.639811 124.579748 123.874187 136.496415 126.124187 151.262041 Z M 126.124187 151.262041 " stroke="#7e0030" stroke-width="17.266237" stroke-opacity="1" stroke-miterlimit="4"/><g fill="#fb6ea4" fill-opacity="1"><g transform="translate(133.445929, 301.467519)"><g><path d="M 94.625 -185.09375 C 95.382812 -180.488281 95.957031 -173.847656 96.34375 -165.171875 C 96.726562 -156.503906 96.957031 -146.566406 97.03125 -135.359375 C 97.113281 -124.160156 97.078125 -112.5 96.921875 -100.375 C 96.765625 -88.25 96.457031 -76.273438 96 -64.453125 C 95.539062 -52.640625 95.003906 -41.78125 94.390625 -31.875 C 93.773438 -21.976562 93.007812 -13.804688 92.09375 -7.359375 C 88.25 -3.222656 83.375 -0.234375 77.46875 1.609375 C 71.5625 3.453125 65.269531 3.953125 58.59375 3.109375 C 51.914062 2.265625 45.429688 -0.0351562 39.140625 -3.796875 C 32.847656 -7.554688 27.28125 -12.925781 22.4375 -19.90625 C 17.601562 -26.894531 14.191406 -35.53125 12.203125 -45.8125 C 11.585938 -48.726562 11.050781 -53.597656 10.59375 -60.421875 C 10.132812 -67.253906 9.710938 -75.3125 9.328125 -84.59375 C 8.941406 -93.882812 8.671875 -103.898438 8.515625 -114.640625 C 8.359375 -125.390625 8.316406 -136.171875 8.390625 -146.984375 C 8.472656 -157.804688 8.664062 -168.128906 8.96875 -177.953125 C 9.28125 -187.773438 9.78125 -196.484375 10.46875 -204.078125 C 11.164062 -211.679688 12.050781 -217.476562 13.125 -221.46875 C 17.414062 -225.300781 22.671875 -228.21875 28.890625 -230.21875 C 35.109375 -232.21875 41.671875 -233.0625 48.578125 -232.75 C 55.484375 -232.445312 62.117188 -230.601562 68.484375 -227.21875 C 74.859375 -223.84375 80.382812 -218.738281 85.0625 -211.90625 C 89.75 -205.082031 92.9375 -196.144531 94.625 -185.09375 Z M 94.625 -185.09375 "/></g></g></g></svg>