<svg xmlns="http://www.w3.org/2000/svg" xmlns:xlink="http://www.w3.org/1999/xlink" width="500" zoomAndPan="magnify" viewBox="0 0 375 374.999991" height="500" preserveAspectRatio="xMidYMid meet" version="1.0"><defs><g/></defs><path stroke-linecap="butt" transform="matrix(0.892775, 0, 0, 0.892775, -26.21975, 84.589857)" fill="none" stroke-linejoin="miter" d="M 154.562156 96.254429 C 154.562156 90.330136 154.562156 84.790879 154.562156 79.632281 C 154.562156 74.443056 154.562156 69.25383 154.562156 64.06898 C 154.562156 58.879755 154.562156 53.257365 154.562156 47.206185 C 157.795577 43.360208 161.462163 40.638709 165.561914 39.037312 C 169.696667 37.405287 173.905803 36.779605 178.198071 37.16464 C 182.49034 37.549676 186.4282 38.748535 190.016029 40.765595 C 193.603858 42.782655 196.500373 45.50853 198.714326 48.934469 C 200.954531 52.32978 202.074634 56.254514 202.074634 60.704297 C 202.074634 63.329537 202.092135 67.079256 202.122763 71.944702 C 202.188394 76.783895 202.236524 82.305651 202.267151 88.51872 C 202.297779 94.736165 202.332782 101.299266 202.36341 108.216775 C 202.429041 115.134284 202.429041 121.990537 202.36341 128.781159 C 202.332782 135.536778 202.219022 141.911737 202.026504 147.901661 C 201.86899 153.891585 201.628343 159.111438 201.304563 163.56122 C 198.486805 166.378979 194.77209 168.544802 190.160417 170.04994 C 185.579373 171.585706 180.600166 172.193886 175.218423 171.874482 C 169.871683 171.585706 164.586199 170.159325 159.366346 167.599715 C 154.177121 165.005103 149.565448 160.953482 145.531328 155.444852 C 143.702411 152.911495 141.799112 150.045607 139.81268 146.842814 C 137.856875 143.64002 135.984204 140.454728 134.190289 137.282563 C 132.396375 134.079769 130.794978 131.19638 129.386099 128.636771 C 127.97722 126.042158 126.887745 124.169486 126.12205 123.014381 C 125.929533 122.598718 125.671384 122.213682 125.35198 121.86365 C 125.063203 121.509243 124.791928 121.159211 124.53378 120.804803 C 124.437521 120.804803 124.293133 120.835431 124.10499 120.901062 C 123.943101 120.93169 123.781211 120.949191 123.623696 120.949191 C 123.719955 124.887052 123.846842 128.492383 124.008732 131.756432 C 124.201249 135.024856 124.376265 138.258277 124.53378 141.461071 C 124.726297 144.663864 124.840058 148.076677 124.870686 151.695133 C 124.905689 155.31359 124.888187 159.496473 124.822556 164.235032 C 120.530288 167.726602 116.146136 170.032438 111.66135 171.152541 C 107.207192 172.307647 102.949927 172.548294 98.880804 171.874482 C 94.811682 171.231298 91.162597 169.918678 87.929176 167.932246 C 84.691379 165.915186 82.114268 163.482463 80.193467 160.629702 C 78.272666 157.781316 77.261949 154.788542 77.16569 151.647004 C 77.0038 146.204005 76.863787 140.231583 76.732525 133.729737 C 76.605639 127.227892 76.491878 120.454771 76.395619 113.406 C 76.299361 106.361605 76.251231 99.426595 76.251231 92.605345 C 76.251231 85.784095 76.268733 79.330378 76.299361 73.244196 C 76.364992 67.158013 76.478752 61.77627 76.636266 57.103342 C 76.828784 52.426038 77.05193 48.820708 77.310078 46.291726 C 80.447241 43.666486 84.306344 41.566294 88.887389 39.9999 C 93.499061 38.429131 98.320753 37.70719 103.348089 37.838452 C 108.375424 37.965339 113.179614 39.260457 117.760659 41.728183 C 122.372332 44.160906 126.248937 48.006884 129.386099 53.257365 C 131.661308 57.103342 133.695869 60.590536 135.489783 63.732074 C 137.283698 66.869237 139.029483 69.962645 140.727138 73.003549 C 142.455422 76.013825 144.231834 79.168489 146.056377 82.467541 C 147.885294 85.735965 149.981111 89.463807 152.352578 93.659816 C 152.606352 94.171738 152.882002 94.670534 153.166403 95.151828 C 153.490183 95.633122 153.778959 96.096915 154.032732 96.543205 C 154.128991 96.446947 154.22525 96.398817 154.321509 96.398817 C 154.417768 96.398817 154.496525 96.350688 154.562156 96.254429 Z M 296.00574 81.312435 C 292.067879 80.354222 288.541306 80.034818 285.434771 80.354222 C 282.328236 80.642999 279.029184 81.924991 275.54199 84.195824 C 270.991573 87.013582 268.060054 90.745799 266.747434 95.392475 C 265.434814 100.004147 265.132911 104.808338 265.837351 109.805045 C 266.506787 115.729338 268.703238 120.292881 272.417953 123.495675 C 276.163297 126.698468 280.34618 128.251735 284.957852 128.155477 C 288.541306 128.155477 291.31531 127.420409 293.266739 125.945899 C 295.253171 124.440761 296.692677 122.51996 297.589635 120.179121 C 298.521595 117.812029 299.094773 115.265546 299.322293 112.539671 C 299.545439 109.818172 299.702953 107.192931 299.799212 104.663949 C 301.019949 102.996922 303.194523 101.749932 306.336061 100.914231 C 309.503851 100.082905 313.078554 99.776627 317.047042 100.004147 C 321.019906 100.227293 324.909638 101.093622 328.720612 102.59876 C 332.531586 104.068895 335.721253 106.278472 338.280863 109.227493 C 340.875475 112.141509 342.301856 115.873726 342.560005 120.419768 C 342.752522 123.815079 342.398115 127.75294 341.501158 132.237726 C 340.634828 136.691884 338.937173 141.224799 336.408191 145.836472 C 333.879209 150.413141 330.357012 154.674781 325.841598 158.612642 C 321.321809 162.519875 315.590034 165.709542 308.641897 168.172893 C 301.689385 170.609991 293.28424 171.826353 283.417711 171.826353 C 272.719856 171.826353 263.623398 170.496231 256.132711 167.835987 C 248.668278 165.180119 242.503338 161.736678 237.633517 157.510041 C 232.798699 153.248401 228.939595 148.667356 226.056206 143.766907 C 223.172817 138.870833 220.950113 134.19353 219.379344 129.739372 C 216.754104 122.213682 215.502739 114.189197 215.629626 105.670292 C 215.760888 97.120758 217.086634 89.000014 219.619991 81.312435 C 222.534008 72.732274 226.905034 65.490985 232.733068 59.597321 C 238.596105 53.708031 245.592371 48.79008 253.730616 44.85222 C 264.682245 39.501104 276.596461 37.068381 289.473266 37.549676 C 302.380699 38.026594 315.830681 42.305736 329.827588 50.373975 C 331.140208 55.340055 331.363354 59.824841 330.5014 63.828333 C 329.635071 67.796822 328.016172 71.209634 325.64908 74.05802 C 323.277613 76.880154 320.429227 79.054728 317.095172 80.594869 C 313.796119 82.130635 310.30455 82.996964 306.624837 83.189482 C 302.94075 83.346996 299.401051 82.725689 296.00574 81.312435 Z M 400.914726 64.545899 C 401.361017 67.140512 401.697923 70.920858 401.925444 75.886938 C 402.148589 80.818015 402.275476 86.488534 402.306104 92.894121 C 402.341107 99.264705 402.306104 105.910939 402.209845 112.828447 C 402.148589 119.715328 401.969198 126.536578 401.684797 133.296573 C 401.426648 140.021564 401.124745 146.204005 400.770338 151.839522 C 400.450934 157.475038 400.017769 162.139215 399.475219 165.818927 C 397.29627 168.159767 394.526641 169.857422 391.161958 170.911894 C 387.797274 171.970741 384.213821 172.259517 380.398471 171.778223 C 376.587497 171.296929 372.890284 169.984309 369.302455 167.835987 C 365.714626 165.692041 362.546836 162.633635 359.790333 158.660771 C 357.038206 154.692283 355.099904 149.774332 353.975426 143.911295 C 353.625394 142.248643 353.305989 139.479014 353.017213 135.602409 C 352.759064 131.695176 352.518417 127.09663 352.295272 121.815521 C 352.102754 116.499409 351.958366 110.78076 351.862107 104.663949 C 351.765848 98.547139 351.73522 92.412827 351.765848 86.261013 C 351.831479 80.082947 351.94524 74.189282 352.102754 68.584394 C 352.295272 62.979505 352.584048 58.013425 352.969083 53.690529 C 353.384746 49.367633 353.896668 46.068581 354.504849 43.793373 C 356.941947 41.614423 359.91722 39.964897 363.443793 38.844794 C 366.996619 37.694064 370.741962 37.21277 374.684198 37.405287 C 378.622059 37.562802 382.402405 38.604147 386.020862 40.524948 C 389.674321 42.450125 392.828985 45.364141 395.484854 49.271374 C 398.145097 53.14798 399.952138 58.236571 400.914726 64.545899 Z M 400.914726 64.545899 " stroke="#436100" stroke-width="7.379363" stroke-opacity="1" stroke-miterlimit="4"/><g fill="#91c123" fill-opacity="1"><g transform="translate(35.423597, 236.361665)"><g><path d="M 76.359375 -65.828125 C 76.359375 -71.128906 76.359375 -76.082031 76.359375 -80.6875 C 76.359375 -85.300781 76.359375 -89.929688 76.359375 -94.578125 C 76.359375 -99.222656 76.359375 -104.238281 76.359375 -109.625 C 79.253906 -113.0625 82.535156 -115.5 86.203125 -116.9375 C 89.867188 -118.382812 93.613281 -118.929688 97.4375 -118.578125 C 101.269531 -118.234375 104.785156 -117.160156 107.984375 -115.359375 C 111.191406 -113.566406 113.789062 -111.144531 115.78125 -108.09375 C 117.769531 -105.050781 118.765625 -101.539062 118.765625 -97.5625 C 118.765625 -95.21875 118.78125 -91.878906 118.8125 -87.546875 C 118.851562 -83.210938 118.894531 -78.273438 118.9375 -72.734375 C 118.976562 -67.191406 119.015625 -61.332031 119.046875 -55.15625 C 119.085938 -48.988281 119.085938 -42.878906 119.046875 -36.828125 C 119.015625 -30.785156 118.921875 -25.085938 118.765625 -19.734375 C 118.609375 -14.390625 118.375 -9.722656 118.0625 -5.734375 C 115.5625 -3.234375 112.257812 -1.300781 108.15625 0.0625 C 104.0625 1.425781 99.613281 1.96875 94.8125 1.6875 C 90.007812 1.414062 85.285156 0.128906 80.640625 -2.171875 C 75.992188 -4.472656 71.875 -8.082031 68.28125 -13 C 66.644531 -15.257812 64.945312 -17.816406 63.1875 -20.671875 C 61.425781 -23.523438 59.742188 -26.375 58.140625 -29.21875 C 56.546875 -32.070312 55.125 -34.648438 53.875 -36.953125 C 52.625 -39.253906 51.648438 -40.914062 50.953125 -41.9375 C 50.796875 -42.320312 50.578125 -42.671875 50.296875 -42.984375 C 50.023438 -43.296875 49.773438 -43.609375 49.546875 -43.921875 C 49.460938 -43.921875 49.34375 -43.898438 49.1875 -43.859375 C 49.03125 -43.828125 48.875 -43.8125 48.71875 -43.8125 C 48.800781 -40.289062 48.921875 -37.066406 49.078125 -34.140625 C 49.234375 -31.210938 49.390625 -28.320312 49.546875 -25.46875 C 49.703125 -22.625 49.796875 -19.582031 49.828125 -16.34375 C 49.867188 -13.101562 49.851562 -9.375 49.78125 -5.15625 C 45.945312 -2.03125 42.039062 0.0351562 38.0625 1.046875 C 34.082031 2.066406 30.273438 2.28125 26.640625 1.6875 C 23.015625 1.101562 19.753906 -0.0820312 16.859375 -1.875 C 13.972656 -3.664062 11.671875 -5.832031 9.953125 -8.375 C 8.234375 -10.914062 7.335938 -13.585938 7.265625 -16.390625 C 7.109375 -21.234375 6.96875 -26.5625 6.84375 -32.375 C 6.726562 -38.195312 6.628906 -44.25 6.546875 -50.53125 C 6.472656 -56.820312 6.4375 -63.007812 6.4375 -69.09375 C 6.4375 -75.1875 6.457031 -80.945312 6.5 -86.375 C 6.539062 -91.800781 6.640625 -96.601562 6.796875 -100.78125 C 6.953125 -104.957031 7.144531 -108.179688 7.375 -110.453125 C 10.1875 -112.796875 13.640625 -114.664062 17.734375 -116.0625 C 21.835938 -117.46875 26.132812 -118.113281 30.625 -118 C 35.113281 -117.882812 39.40625 -116.734375 43.5 -114.546875 C 47.601562 -112.359375 51.0625 -108.921875 53.875 -104.234375 C 55.90625 -100.804688 57.71875 -97.6875 59.3125 -94.875 C 60.914062 -92.0625 62.476562 -89.304688 64 -86.609375 C 65.53125 -83.921875 67.113281 -81.109375 68.75 -78.171875 C 70.394531 -75.242188 72.269531 -71.910156 74.375 -68.171875 C 74.601562 -67.703125 74.851562 -67.25 75.125 -66.8125 C 75.40625 -66.382812 75.660156 -65.976562 75.890625 -65.59375 C 75.972656 -65.664062 76.050781 -65.703125 76.125 -65.703125 C 76.207031 -65.703125 76.285156 -65.742188 76.359375 -65.828125 Z M 76.359375 -65.828125 "/></g></g></g><g fill="#91c123" fill-opacity="1"><g transform="translate(161.78719, 236.361665)"><g><path d="M 76.25 -79.171875 C 72.738281 -80.035156 69.59375 -80.328125 66.8125 -80.046875 C 64.039062 -79.773438 61.097656 -78.625 57.984375 -76.59375 C 53.921875 -74.101562 51.300781 -70.785156 50.125 -66.640625 C 48.957031 -62.503906 48.6875 -58.210938 49.3125 -53.765625 C 49.9375 -48.453125 51.90625 -44.367188 55.21875 -41.515625 C 58.539062 -38.671875 62.269531 -37.285156 66.40625 -37.359375 C 69.613281 -37.359375 72.09375 -38.019531 73.84375 -39.34375 C 75.601562 -40.675781 76.890625 -42.394531 77.703125 -44.5 C 78.523438 -46.613281 79.035156 -48.878906 79.234375 -51.296875 C 79.429688 -53.722656 79.566406 -56.066406 79.640625 -58.328125 C 80.734375 -59.804688 82.6875 -60.914062 85.5 -61.65625 C 88.3125 -62.40625 91.492188 -62.679688 95.046875 -62.484375 C 98.597656 -62.285156 102.070312 -61.523438 105.46875 -60.203125 C 108.863281 -58.878906 111.710938 -56.90625 114.015625 -54.28125 C 116.316406 -51.664062 117.585938 -48.328125 117.828125 -44.265625 C 117.984375 -41.222656 117.671875 -37.710938 116.890625 -33.734375 C 116.109375 -29.753906 114.582031 -25.710938 112.3125 -21.609375 C 110.050781 -17.503906 106.910156 -13.695312 102.890625 -10.1875 C 98.867188 -6.675781 93.753906 -3.828125 87.546875 -1.640625 C 81.335938 0.546875 73.820312 1.640625 65 1.640625 C 55.476562 1.640625 47.378906 0.453125 40.703125 -1.921875 C 34.023438 -4.304688 28.519531 -7.390625 24.1875 -11.171875 C 19.851562 -14.960938 16.394531 -19.046875 13.8125 -23.421875 C 11.238281 -27.796875 9.25 -31.972656 7.84375 -35.953125 C 5.5 -42.671875 4.382812 -49.835938 4.5 -57.453125 C 4.625 -65.066406 5.816406 -72.304688 8.078125 -79.171875 C 10.660156 -86.828125 14.566406 -93.289062 19.796875 -98.5625 C 25.023438 -103.832031 31.269531 -108.222656 38.53125 -111.734375 C 48.289062 -116.492188 58.929688 -118.660156 70.453125 -118.234375 C 81.972656 -117.804688 93.976562 -114 106.46875 -106.8125 C 107.632812 -102.363281 107.828125 -98.363281 107.046875 -94.8125 C 106.265625 -91.257812 104.820312 -88.210938 102.71875 -85.671875 C 100.613281 -83.140625 98.078125 -81.1875 95.109375 -79.8125 C 92.140625 -78.445312 89.015625 -77.6875 85.734375 -77.53125 C 82.453125 -77.375 79.289062 -77.921875 76.25 -79.171875 Z M 76.25 -79.171875 "/></g></g></g><g fill="#91c123" fill-opacity="1"><g transform="translate(283.583429, 236.361665)"><g><path d="M 48.140625 -94.171875 C 48.523438 -91.828125 48.816406 -88.445312 49.015625 -84.03125 C 49.210938 -79.625 49.328125 -74.566406 49.359375 -68.859375 C 49.398438 -63.160156 49.378906 -57.226562 49.296875 -51.0625 C 49.222656 -44.894531 49.066406 -38.804688 48.828125 -32.796875 C 48.597656 -26.785156 48.328125 -21.257812 48.015625 -16.21875 C 47.703125 -11.1875 47.3125 -7.03125 46.84375 -3.75 C 44.894531 -1.632812 42.414062 -0.113281 39.40625 0.8125 C 36.40625 1.75 33.207031 2.003906 29.8125 1.578125 C 26.414062 1.148438 23.113281 -0.015625 19.90625 -1.921875 C 16.707031 -3.835938 13.878906 -6.570312 11.421875 -10.125 C 8.960938 -13.675781 7.222656 -18.070312 6.203125 -23.3125 C 5.890625 -24.789062 5.613281 -27.265625 5.375 -30.734375 C 5.144531 -34.210938 4.929688 -38.3125 4.734375 -43.03125 C 4.546875 -47.757812 4.410156 -52.859375 4.328125 -58.328125 C 4.253906 -63.796875 4.234375 -69.28125 4.265625 -74.78125 C 4.304688 -80.289062 4.40625 -85.539062 4.5625 -90.53125 C 4.71875 -95.53125 4.972656 -99.960938 5.328125 -103.828125 C 5.679688 -107.691406 6.128906 -110.640625 6.671875 -112.671875 C 8.859375 -114.628906 11.53125 -116.113281 14.6875 -117.125 C 17.851562 -118.132812 21.191406 -118.5625 24.703125 -118.40625 C 28.222656 -118.25 31.601562 -117.3125 34.84375 -115.59375 C 38.082031 -113.882812 40.890625 -111.289062 43.265625 -107.8125 C 45.648438 -104.332031 47.273438 -99.785156 48.140625 -94.171875 Z M 48.140625 -94.171875 "/></g></g></g></svg>