<svg xmlns="http://www.w3.org/2000/svg" xmlns:xlink="http://www.w3.org/1999/xlink" width="500" zoomAndPan="magnify" viewBox="0 0 375 374.999991" height="500" preserveAspectRatio="xMidYMid meet" version="1.0"><defs><g/></defs><path stroke-linecap="butt" transform="matrix(0.892775, 0, 0, 0.892775, -26.21975, 84.589917)" fill="none" stroke-linejoin="miter" d="M 112.453298 96.254362 C 112.453298 90.330069 112.453298 84.790811 112.453298 79.632214 C 112.453298 74.442988 112.453298 69.253763 112.453298 64.068913 C 112.453298 58.879688 112.453298 53.257297 112.453298 47.206118 C 115.686719 43.360141 119.353305 40.638641 123.453056 39.037245 C 127.583434 37.40522 131.796945 36.779538 136.089213 37.164573 C 140.381482 37.549608 144.319342 38.748468 147.907171 40.765528 C 151.495 42.786963 154.391515 45.508463 156.601093 48.934401 C 158.845673 52.329712 159.965776 56.254447 159.965776 60.70423 C 159.965776 63.32947 159.983277 67.079189 160.013905 71.944635 C 160.079536 76.783828 160.127666 82.305584 160.158294 88.518653 C 160.188921 94.736098 160.223925 101.299199 160.254552 108.216708 C 160.320183 115.134216 160.320183 121.99047 160.254552 128.781092 C 160.223925 135.536711 160.110164 141.91167 159.917646 147.901594 C 159.755757 153.891517 159.519485 159.111371 159.195705 163.561153 C 156.377947 166.378911 152.663232 168.544735 148.051559 170.049873 C 143.470515 171.585638 138.491308 172.193819 133.109565 171.874415 C 127.762826 171.585638 122.477341 170.159258 117.257488 167.599648 C 112.068263 165.005036 107.45659 160.953414 103.422471 155.444785 C 101.593553 152.911428 99.690254 150.04554 97.703822 146.842747 C 95.748017 143.639953 93.875346 140.454661 92.081431 137.282496 C 90.287517 134.079702 88.68612 131.196313 87.277241 128.636704 C 85.868362 126.042091 84.778887 124.169419 84.013192 123.014313 C 83.820675 122.59865 83.562526 122.213615 83.243122 121.863583 C 82.954345 121.509176 82.68307 121.159143 82.424922 120.804736 C 82.328663 120.804736 82.184275 120.835364 81.991757 120.900995 C 81.834243 120.931623 81.672353 120.949124 81.514838 120.949124 C 81.611097 124.886985 81.737984 128.492315 81.895498 131.76074 C 82.088016 135.024789 82.267407 138.25821 82.424922 141.461003 C 82.617439 144.663797 82.7312 148.07661 82.761828 151.695066 C 82.792455 155.313523 82.779329 159.496406 82.713698 164.234965 C 78.42143 167.726535 74.032903 170.032371 69.552492 171.152474 C 65.098334 172.30758 60.841069 172.548227 56.771947 171.874415 C 52.702824 171.231231 49.053739 169.918611 45.815943 167.932179 C 42.582522 165.915119 40.00541 163.482396 38.084609 160.629635 C 36.159433 157.781249 35.153091 154.788474 35.056832 151.646937 C 34.894942 146.203938 34.750554 140.231516 34.623667 133.72967 C 34.496781 127.227824 34.38302 120.454704 34.286761 113.405933 C 34.190503 106.361538 34.142373 99.426527 34.142373 92.605277 C 34.142373 85.784027 34.159875 79.330311 34.190503 73.244129 C 34.256134 67.157946 34.369894 61.776203 34.527409 57.103275 C 34.719926 52.425971 34.943072 48.820641 35.20122 46.291659 C 38.338383 43.666419 42.197486 41.566226 46.778531 39.999833 C 51.390203 38.429064 56.211895 37.707123 61.239231 37.838385 C 66.266566 37.965271 71.070757 39.26039 75.651801 41.728116 C 80.263474 44.160839 84.140079 48.006816 87.277241 53.257297 C 89.55245 57.103275 91.587011 60.590469 93.380926 63.732007 C 95.17484 66.86917 96.920625 69.962578 98.61828 73.003482 C 100.346564 76.013757 102.122976 79.168421 103.947519 82.467474 C 105.776436 85.735898 107.872253 89.46374 110.24372 93.659749 C 110.497494 94.171671 110.768769 94.670467 111.057545 95.151761 C 111.381325 95.633055 111.665726 96.096847 111.923874 96.543138 C 112.020133 96.446879 112.116392 96.39875 112.212651 96.39875 C 112.30891 96.39875 112.387667 96.350621 112.453298 96.254362 Z M 253.896882 81.312368 C 249.959021 80.354155 246.432448 80.034751 243.325913 80.354155 C 240.219379 80.642931 236.920326 81.924924 233.428756 84.195757 C 228.882715 87.013515 225.951196 90.745732 224.638576 95.392408 C 223.325956 100.00408 223.019678 104.80827 223.724117 109.804978 C 224.397929 115.729271 226.59438 120.292814 230.309096 123.495608 C 234.054439 126.698401 238.232947 128.251668 242.844619 128.155409 C 246.432448 128.155409 249.202077 127.420342 251.157881 125.945832 C 253.144313 124.440694 254.58382 122.519893 255.480777 120.179054 C 256.408362 117.811962 256.985915 115.265478 257.20906 112.539604 C 257.436581 109.818104 257.594095 107.192864 257.690354 104.663882 C 258.906716 102.996854 261.085665 101.749865 264.227203 100.914164 C 267.394993 100.082837 270.96532 99.776559 274.938184 100.00408 C 278.911048 100.227226 282.80078 101.093555 286.611754 102.598693 C 290.422728 104.068828 293.612395 106.278405 296.172005 109.227425 C 298.766617 112.141442 300.192998 115.873659 300.451147 120.419701 C 300.639289 123.815012 300.289257 127.757248 299.3923 132.237658 C 298.52597 136.691817 296.828315 141.224732 294.299333 145.836404 C 291.770352 150.413074 288.248154 154.674714 283.728365 158.612575 C 279.212951 162.519808 273.481176 165.709475 266.533039 168.172826 C 259.580527 170.609924 251.175382 171.826285 241.308853 171.826285 C 230.610998 171.826285 221.51454 170.496164 214.019478 167.83592 C 206.55942 165.180052 200.39448 161.736611 195.524659 157.509974 C 190.689841 153.248333 186.830737 148.667289 183.947348 143.771215 C 181.063959 138.870766 178.83688 134.193463 177.270486 129.739305 C 174.645246 122.213615 173.393881 114.18913 173.520768 105.670224 C 173.65203 97.120691 174.977776 88.999947 177.511133 81.312368 C 180.42515 72.732207 184.796176 65.490918 190.62421 59.601629 C 196.487247 53.707964 203.483513 48.790013 211.617383 44.852152 C 222.573387 39.501037 234.487603 37.068314 247.364408 37.549608 C 260.271841 38.026527 273.721823 42.305669 287.71873 50.373908 C 289.031351 55.339988 289.254496 59.824774 288.392542 63.828266 C 287.526213 67.796755 285.907314 71.209567 283.540222 74.062329 C 281.168755 76.880087 278.315994 79.054661 274.986314 80.594802 C 271.687262 82.130568 268.195692 82.996897 264.511604 83.189415 C 260.831892 83.346929 257.292193 82.725622 253.896882 81.312368 Z M 377.445076 36.201985 C 386.379644 36.105726 394.180984 37.116444 400.840344 39.229762 C 407.534708 41.312453 413.235855 44.016451 417.943786 47.350506 C 422.686721 50.680186 426.60708 54.219886 429.713615 57.965229 C 432.820149 61.714947 435.270374 65.285274 437.064288 68.680585 C 438.858202 72.040893 440.157696 74.766768 440.958395 76.845084 C 443.999298 85.237102 445.810714 93.707878 446.383892 102.261787 C 446.961445 110.780693 445.937601 119.365229 443.31236 128.011021 C 436.136703 151.008128 420.875305 165.258809 397.528166 170.767438 C 388.0773 173.042647 378.757696 173.764588 369.564979 172.928886 C 360.376637 172.09756 351.407065 169.42419 342.665014 164.908777 C 334.369254 160.616508 327.736147 155.042248 322.774442 148.19037 C 317.843365 141.303489 314.382423 133.362136 312.395991 124.361937 C 311.083371 118.66079 310.3133 112.845882 310.090155 106.921589 C 309.867009 100.962293 310.203915 95.182389 311.100873 89.5775 C 312.028458 83.972612 313.551097 78.945276 315.664416 74.491118 C 317.747106 69.848818 320.451104 65.285274 323.780784 60.800489 C 327.11484 56.285075 331.227717 52.167823 336.128165 48.453107 C 341.028614 44.738392 346.891652 41.776246 353.712902 39.566668 C 360.534151 37.322087 368.444876 36.201985 377.445076 36.201985 Z M 378.118888 83.141285 C 374.881091 83.141285 371.888317 84.038243 369.13619 85.832157 C 366.379687 87.626071 364.200737 90.299441 362.599341 93.852267 C 361.032947 97.374464 360.420391 101.762991 360.774799 107.017848 C 361.129206 112.110814 362.279936 116.144934 364.235741 119.124582 C 366.217797 122.069227 368.541135 124.182545 371.201379 125.464538 C 373.89225 126.74653 376.373103 127.28908 378.648311 127.096562 C 380.984775 126.939048 383.356242 126.186479 385.758337 124.838856 C 388.19106 123.46498 390.25625 121.28603 391.953905 118.306382 C 393.651561 115.326734 394.627275 111.388873 394.885424 106.488424 C 395.235456 101.522344 394.644777 97.313209 393.109011 93.852267 C 391.603873 90.3957 389.503681 87.752958 386.812809 85.928416 C 384.156941 84.06887 381.25605 83.141285 378.118888 83.141285 Z M 378.118888 83.141285 " stroke="#80004e" stroke-width="7.379363" stroke-opacity="1" stroke-miterlimit="4"/><g fill="#ff66c4" fill-opacity="1"><g transform="translate(-2.170614, 236.361725)"><g><path d="M 76.359375 -65.828125 C 76.359375 -71.128906 76.359375 -76.082031 76.359375 -80.6875 C 76.359375 -85.300781 76.359375 -89.929688 76.359375 -94.578125 C 76.359375 -99.222656 76.359375 -104.238281 76.359375 -109.625 C 79.253906 -113.0625 82.535156 -115.5 86.203125 -116.9375 C 89.867188 -118.382812 93.613281 -118.929688 97.4375 -118.578125 C 101.269531 -118.234375 104.785156 -117.160156 107.984375 -115.359375 C 111.191406 -113.566406 113.789062 -111.144531 115.78125 -108.09375 C 117.769531 -105.050781 118.765625 -101.539062 118.765625 -97.5625 C 118.765625 -95.21875 118.78125 -91.878906 118.8125 -87.546875 C 118.851562 -83.210938 118.894531 -78.273438 118.9375 -72.734375 C 118.976562 -67.191406 119.015625 -61.332031 119.046875 -55.15625 C 119.085938 -48.988281 119.085938 -42.878906 119.046875 -36.828125 C 119.015625 -30.785156 118.921875 -25.085938 118.765625 -19.734375 C 118.609375 -14.390625 118.375 -9.722656 118.0625 -5.734375 C 115.5625 -3.234375 112.257812 -1.300781 108.15625 0.0625 C 104.0625 1.425781 99.613281 1.96875 94.8125 1.6875 C 90.007812 1.414062 85.285156 0.128906 80.640625 -2.171875 C 75.992188 -4.472656 71.875 -8.082031 68.28125 -13 C 66.644531 -15.257812 64.945312 -17.816406 63.1875 -20.671875 C 61.425781 -23.523438 59.742188 -26.375 58.140625 -29.21875 C 56.546875 -32.070312 55.125 -34.648438 53.875 -36.953125 C 52.625 -39.253906 51.648438 -40.914062 50.953125 -41.9375 C 50.796875 -42.320312 50.578125 -42.671875 50.296875 -42.984375 C 50.023438 -43.296875 49.773438 -43.609375 49.546875 -43.921875 C 49.460938 -43.921875 49.34375 -43.898438 49.1875 -43.859375 C 49.03125 -43.828125 48.875 -43.8125 48.71875 -43.8125 C 48.800781 -40.289062 48.921875 -37.066406 49.078125 -34.140625 C 49.234375 -31.210938 49.390625 -28.320312 49.546875 -25.46875 C 49.703125 -22.625 49.796875 -19.582031 49.828125 -16.34375 C 49.867188 -13.101562 49.851562 -9.375 49.78125 -5.15625 C 45.945312 -2.03125 42.039062 0.0351562 38.0625 1.046875 C 34.082031 2.066406 30.273438 2.28125 26.640625 1.6875 C 23.015625 1.101562 19.753906 -0.0820312 16.859375 -1.875 C 13.972656 -3.664062 11.671875 -5.832031 9.953125 -8.375 C 8.234375 -10.914062 7.335938 -13.585938 7.265625 -16.390625 C 7.109375 -21.234375 6.96875 -26.5625 6.84375 -32.375 C 6.726562 -38.195312 6.628906 -44.25 6.546875 -50.53125 C 6.472656 -56.820312 6.4375 -63.007812 6.4375 -69.09375 C 6.4375 -75.1875 6.457031 -80.945312 6.5 -86.375 C 6.539062 -91.800781 6.640625 -96.601562 6.796875 -100.78125 C 6.953125 -104.957031 7.144531 -108.179688 7.375 -110.453125 C 10.1875 -112.796875 13.640625 -114.664062 17.734375 -116.0625 C 21.835938 -117.46875 26.132812 -118.113281 30.625 -118 C 35.113281 -117.882812 39.40625 -116.734375 43.5 -114.546875 C 47.601562 -112.359375 51.0625 -108.921875 53.875 -104.234375 C 55.90625 -100.804688 57.71875 -97.6875 59.3125 -94.875 C 60.914062 -92.0625 62.476562 -89.304688 64 -86.609375 C 65.53125 -83.921875 67.113281 -81.109375 68.75 -78.171875 C 70.394531 -75.242188 72.269531 -71.910156 74.375 -68.171875 C 74.601562 -67.703125 74.851562 -67.25 75.125 -66.8125 C 75.40625 -66.382812 75.660156 -65.976562 75.890625 -65.59375 C 75.972656 -65.664062 76.050781 -65.703125 76.125 -65.703125 C 76.207031 -65.703125 76.285156 -65.742188 76.359375 -65.828125 Z M 76.359375 -65.828125 "/></g></g></g><g fill="#ff66c4" fill-opacity="1"><g transform="translate(124.192979, 236.361725)"><g><path d="M 76.25 -79.171875 C 72.738281 -80.035156 69.59375 -80.328125 66.8125 -80.046875 C 64.039062 -79.773438 61.097656 -78.625 57.984375 -76.59375 C 53.921875 -74.101562 51.300781 -70.785156 50.125 -66.640625 C 48.957031 -62.503906 48.6875 -58.210938 49.3125 -53.765625 C 49.9375 -48.453125 51.90625 -44.367188 55.21875 -41.515625 C 58.539062 -38.671875 62.269531 -37.285156 66.40625 -37.359375 C 69.613281 -37.359375 72.09375 -38.019531 73.84375 -39.34375 C 75.601562 -40.675781 76.890625 -42.394531 77.703125 -44.5 C 78.523438 -46.613281 79.035156 -48.878906 79.234375 -51.296875 C 79.429688 -53.722656 79.566406 -56.066406 79.640625 -58.328125 C 80.734375 -59.804688 82.6875 -60.914062 85.5 -61.65625 C 88.3125 -62.40625 91.492188 -62.679688 95.046875 -62.484375 C 98.597656 -62.285156 102.070312 -61.523438 105.46875 -60.203125 C 108.863281 -58.878906 111.710938 -56.90625 114.015625 -54.28125 C 116.316406 -51.664062 117.585938 -48.328125 117.828125 -44.265625 C 117.984375 -41.222656 117.671875 -37.710938 116.890625 -33.734375 C 116.109375 -29.753906 114.582031 -25.710938 112.3125 -21.609375 C 110.050781 -17.503906 106.910156 -13.695312 102.890625 -10.1875 C 98.867188 -6.675781 93.753906 -3.828125 87.546875 -1.640625 C 81.335938 0.546875 73.820312 1.640625 65 1.640625 C 55.476562 1.640625 47.378906 0.453125 40.703125 -1.921875 C 34.023438 -4.304688 28.519531 -7.390625 24.1875 -11.171875 C 19.851562 -14.960938 16.394531 -19.046875 13.8125 -23.421875 C 11.238281 -27.796875 9.25 -31.972656 7.84375 -35.953125 C 5.5 -42.671875 4.382812 -49.835938 4.5 -57.453125 C 4.625 -65.066406 5.816406 -72.304688 8.078125 -79.171875 C 10.660156 -86.828125 14.566406 -93.289062 19.796875 -98.5625 C 25.023438 -103.832031 31.269531 -108.222656 38.53125 -111.734375 C 48.289062 -116.492188 58.929688 -118.660156 70.453125 -118.234375 C 81.972656 -117.804688 93.976562 -114 106.46875 -106.8125 C 107.632812 -102.363281 107.828125 -98.363281 107.046875 -94.8125 C 106.265625 -91.257812 104.820312 -88.210938 102.71875 -85.671875 C 100.613281 -83.140625 98.078125 -81.1875 95.109375 -79.8125 C 92.140625 -78.445312 89.015625 -77.6875 85.734375 -77.53125 C 82.453125 -77.375 79.289062 -77.921875 76.25 -79.171875 Z M 76.25 -79.171875 "/></g></g></g><g fill="#ff66c4" fill-opacity="1"><g transform="translate(245.989217, 236.361725)"><g><path d="M 64.765625 -119.46875 C 72.734375 -119.539062 79.703125 -118.640625 85.671875 -116.765625 C 91.648438 -114.898438 96.742188 -112.484375 100.953125 -109.515625 C 105.171875 -106.546875 108.664062 -103.378906 111.4375 -100.015625 C 114.21875 -96.660156 116.40625 -93.476562 118 -90.46875 C 119.601562 -87.46875 120.753906 -85.03125 121.453125 -83.15625 C 124.191406 -75.664062 125.8125 -68.113281 126.3125 -60.5 C 126.820312 -52.882812 125.90625 -45.210938 123.5625 -37.484375 C 117.164062 -16.941406 103.539062 -4.210938 82.6875 0.703125 C 74.257812 2.734375 65.941406 3.375 57.734375 2.625 C 49.535156 1.882812 41.535156 -0.507812 33.734375 -4.5625 C 26.316406 -8.394531 20.398438 -13.375 15.984375 -19.5 C 11.578125 -25.632812 8.472656 -32.722656 6.671875 -40.765625 C 5.503906 -45.835938 4.820312 -51.023438 4.625 -56.328125 C 4.425781 -61.640625 4.738281 -66.796875 5.5625 -71.796875 C 6.382812 -76.796875 7.734375 -81.285156 9.609375 -85.265625 C 11.484375 -89.398438 13.898438 -93.476562 16.859375 -97.5 C 19.828125 -101.519531 23.5 -105.191406 27.875 -108.515625 C 32.25 -111.835938 37.476562 -114.492188 43.5625 -116.484375 C 49.65625 -118.472656 56.722656 -119.46875 64.765625 -119.46875 Z M 65.359375 -77.53125 C 62.460938 -77.53125 59.785156 -76.726562 57.328125 -75.125 C 54.867188 -73.53125 52.9375 -71.148438 51.53125 -67.984375 C 50.125 -64.828125 49.578125 -60.90625 49.890625 -56.21875 C 50.203125 -51.6875 51.238281 -48.09375 53 -45.4375 C 54.757812 -42.789062 56.828125 -40.898438 59.203125 -39.765625 C 61.585938 -38.628906 63.796875 -38.140625 65.828125 -38.296875 C 67.929688 -38.453125 70.054688 -39.132812 72.203125 -40.34375 C 74.347656 -41.5625 76.179688 -43.492188 77.703125 -46.140625 C 79.234375 -48.796875 80.113281 -52.3125 80.34375 -56.6875 C 80.65625 -61.132812 80.128906 -64.898438 78.765625 -67.984375 C 77.398438 -71.078125 75.523438 -73.441406 73.140625 -75.078125 C 70.765625 -76.710938 68.171875 -77.53125 65.359375 -77.53125 Z M 65.359375 -77.53125 "/></g></g></g></svg>