<svg xmlns="http://www.w3.org/2000/svg" xmlns:xlink="http://www.w3.org/1999/xlink" width="500" zoomAndPan="magnify" viewBox="0 0 375 374.999991" height="500" preserveAspectRatio="xMidYMid meet" version="1.0"><defs><g/></defs><path stroke-linecap="butt" transform="matrix(0.892775, 0, 0, 0.892775, -26.21975, 84.589917)" fill="none" stroke-linejoin="miter" d="M 114.216584 96.254362 C 114.216584 90.330069 114.216584 84.790811 114.216584 79.632214 C 114.216584 74.442988 114.216584 69.253763 114.216584 64.068913 C 114.216584 58.879688 114.216584 53.257297 114.216584 47.206118 C 117.454381 43.360141 121.120967 40.638641 125.220718 39.037245 C 129.351096 37.40522 133.564607 36.779538 137.8525 37.164573 C 142.144768 37.549608 146.087004 38.748468 149.674833 40.765528 C 153.258286 42.786963 156.159177 45.508463 158.368755 48.934401 C 160.60896 52.329712 161.733438 56.254447 161.733438 60.70423 C 161.733438 63.32947 161.746564 67.079189 161.781567 71.944635 C 161.842823 76.783828 161.890952 82.305584 161.92158 88.518653 C 161.956583 94.736098 161.987211 101.299199 162.017839 108.216708 C 162.08347 115.134216 162.08347 121.99047 162.017839 128.781092 C 161.987211 135.536711 161.873451 141.91167 161.685308 147.901594 C 161.523419 153.891517 161.282772 159.111371 160.963367 163.561153 C 158.145609 166.378911 154.430894 168.544735 149.814846 170.049873 C 145.238177 171.585638 140.254595 172.193819 134.877227 171.874415 C 129.526112 171.585638 124.240628 170.159258 119.020775 167.599648 C 113.831549 165.005036 109.219877 160.953414 105.185757 155.444785 C 103.361215 152.911428 101.45354 150.04554 99.467108 146.842747 C 97.515679 143.639953 95.643008 140.454661 93.849093 137.282496 C 92.055179 134.079702 90.453782 131.196313 89.044903 128.636704 C 87.636024 126.042091 86.546549 124.169419 85.776479 123.014313 C 85.583961 122.59865 85.330188 122.213615 85.006408 121.863583 C 84.722007 121.509176 84.446357 121.159143 84.192584 120.804736 C 84.096325 120.804736 83.951937 120.835364 83.759419 120.900995 C 83.597529 120.931623 83.440015 120.949124 83.278125 120.949124 C 83.374384 124.886985 83.50127 128.492315 83.66316 131.76074 C 83.855678 135.024789 84.030694 138.25821 84.192584 141.461003 C 84.385101 144.663797 84.494486 148.07661 84.52949 151.695066 C 84.560117 155.313523 84.542616 159.496406 84.48136 164.234965 C 80.189092 167.726535 75.800565 170.032371 71.315779 171.152474 C 66.865996 172.30758 62.604356 172.548227 58.535233 171.874415 C 54.470486 171.231231 50.817026 169.918611 47.583605 167.932179 C 44.350183 165.915119 41.768697 163.482396 39.847896 160.629635 C 37.927095 157.781249 36.916377 154.788474 36.820119 151.646937 C 36.662604 146.203938 36.518216 140.231516 36.391329 133.72967 C 36.260067 127.227824 36.150682 120.454704 36.054423 113.405933 C 35.958165 106.361538 35.910035 99.426527 35.910035 92.605277 C 35.910035 85.784027 35.927537 79.330311 35.958165 73.244129 C 36.01942 67.157946 36.133181 61.776203 36.29507 57.103275 C 36.487588 52.425971 36.710734 48.820641 36.964507 46.291659 C 40.106045 43.666419 43.965148 41.566226 48.546193 39.999833 C 53.157865 38.429064 57.975182 37.707123 63.006893 37.838385 C 68.034228 37.965271 72.838418 39.26039 77.419463 41.728116 C 82.031136 44.160839 85.903365 48.006816 89.044903 53.257297 C 91.315736 57.103275 93.350298 60.590469 95.144212 63.732007 C 96.938126 66.86917 98.683911 69.962578 100.381567 73.003482 C 102.10985 76.013757 103.890638 79.168421 105.715181 82.467474 C 107.539723 85.735898 109.639915 89.46374 112.007007 93.659749 C 112.265156 94.171671 112.536431 94.670467 112.825207 95.151761 C 113.144611 95.633055 113.433388 96.096847 113.691536 96.543138 C 113.78342 96.446879 113.879679 96.39875 113.975937 96.39875 C 114.072196 96.39875 114.155329 96.350621 114.216584 96.254362 Z M 255.660168 81.312368 C 251.722307 80.354155 248.20011 80.034751 245.093575 80.354155 C 241.98704 80.642931 238.687988 81.924924 235.196418 84.195757 C 230.646001 87.013515 227.718858 90.745732 226.406238 95.392408 C 225.089242 100.00408 224.78734 104.80827 225.491779 109.804978 C 226.165591 115.729271 228.357667 120.292814 232.072382 123.495608 C 235.822101 126.698401 240.000608 128.251668 244.612281 128.155409 C 248.20011 128.155409 250.969738 127.420342 252.925543 125.945832 C 254.907599 124.440694 256.351482 122.519893 257.248439 120.179054 C 258.176024 117.811962 258.753577 115.265478 258.976722 112.539604 C 259.199867 109.818104 259.361757 107.192864 259.458016 104.663882 C 260.674378 102.996854 262.853327 101.749865 265.99049 100.914164 C 269.162655 100.082837 272.732982 99.776559 276.705846 100.00408 C 280.674335 100.227226 284.568442 101.093555 288.379416 102.598693 C 292.19039 104.068828 295.375682 106.278405 297.939667 109.227425 C 300.534279 112.141442 301.956285 115.873659 302.214433 120.419701 C 302.406951 123.815012 302.052544 127.757248 301.155586 132.237658 C 300.293632 136.691817 298.595977 141.224732 296.066995 145.836404 C 293.533638 150.413074 290.01144 154.674714 285.496027 158.612575 C 280.980613 162.519808 275.248838 165.709475 268.296326 168.172826 C 261.348189 170.609924 252.938669 171.826285 243.076515 171.826285 C 232.37866 171.826285 223.282202 170.496164 215.78714 167.83592 C 208.322706 165.180052 202.157766 161.736611 197.292321 157.509974 C 192.453127 153.248333 188.594024 148.667289 185.71501 143.771215 C 182.831621 138.870766 180.604542 134.193463 179.033773 129.739305 C 176.408532 122.213615 175.161543 114.18913 175.28843 105.670224 C 175.415316 97.120691 176.745438 88.999947 179.27442 81.312368 C 182.188437 72.732207 186.559462 65.490918 192.391872 59.601629 C 198.250533 53.707964 205.251175 48.790013 213.385045 44.852152 C 224.336673 39.501037 236.25089 37.068314 249.127695 37.549608 C 262.035127 38.026527 275.489485 42.305669 289.482017 50.373908 C 290.794637 55.339988 291.022158 59.824774 290.155829 63.828266 C 289.289499 67.796755 287.674976 71.209567 285.303509 74.062329 C 282.932042 76.880087 280.083656 79.054661 276.753976 80.594802 C 273.454924 82.130568 269.963354 82.996897 266.279266 83.189415 C 262.595179 83.346929 259.055479 82.725622 255.660168 81.312368 Z M 440.608363 125.416408 C 439.645775 133.808427 437.19555 141.032214 433.257689 147.083394 C 429.319828 153.103945 424.41938 158.087527 418.556342 162.025388 C 412.697681 165.93262 406.353349 168.829136 399.532099 170.719309 C 392.710849 172.609482 385.8896 173.554569 379.06835 173.554569 C 373.55972 173.554569 368.033589 173.235165 362.494331 172.596356 C 356.950698 171.9838 351.586457 170.767438 346.397231 168.942896 C 341.243009 167.118354 336.500075 164.45811 332.177178 160.966541 C 327.854282 157.444343 324.200823 152.850172 321.22555 147.179652 C 318.245902 141.478505 316.193839 134.38598 315.073737 125.897703 C 313.923006 117.95635 313.362955 109.306183 313.393583 99.955951 C 313.459214 90.601344 313.874877 81.058595 314.640572 71.323328 C 315.44127 61.553057 316.451988 52.154696 317.668349 43.119494 C 318.630937 42.09565 320.376722 41.150563 322.905704 40.288609 C 325.469689 39.391652 328.479965 38.735342 331.936531 38.315303 C 335.397474 37.869013 338.985302 37.803382 342.700018 38.122786 C 346.414733 38.411562 349.906303 39.212261 353.170352 40.524881 C 356.438776 41.841877 359.208405 43.727674 361.483613 46.1954 C 363.758822 48.628123 365.167701 51.848418 365.710251 55.85191 C 365.872141 57.260789 365.968399 59.969162 365.999027 63.972654 C 366.064658 67.941143 366.095286 72.666576 366.095286 78.144578 C 366.095286 83.587576 366.160917 89.306225 366.287804 95.296149 C 366.41469 101.286073 366.624709 107.000346 366.913486 112.44772 C 367.23289 117.860091 367.696683 122.436761 368.304863 126.186479 C 368.851789 129.069868 370.050648 131.340701 371.910194 133.007729 C 373.800367 134.674757 375.926812 135.571714 378.298279 135.698601 C 380.669746 135.825487 382.844321 135.09042 384.830752 133.489023 C 386.847812 131.852623 388.212937 129.244884 388.917377 125.657056 C 389.525558 122.519893 390.068107 118.420143 390.549401 113.357804 C 391.030696 108.264837 391.398229 102.708078 391.652002 96.687526 C 391.940779 90.636347 392.054539 84.502035 391.988908 78.288966 C 391.958281 72.075897 391.765763 66.195358 391.415731 60.6561 C 391.061323 55.116843 390.501272 50.373908 389.731201 46.436047 C 391.46386 44.672761 393.830952 43.167623 396.841228 41.920634 C 399.886507 40.638641 403.281818 39.759186 407.027161 39.277892 C 410.772504 38.796598 414.552851 38.844727 418.363825 39.42228 C 422.174799 39.96483 425.732 41.185566 429.031052 43.071364 C 432.360732 44.961537 435.147862 47.652409 437.388068 51.143979 C 439.632648 54.635549 441.0109 59.054704 441.522821 64.405819 C 441.872854 67.989272 442.192258 71.257697 442.481034 74.202341 C 442.800439 77.120734 443.027959 80.08288 443.154846 83.093156 C 443.281733 86.103432 443.299234 89.498743 443.202975 93.279089 C 443.137344 97.024432 442.896697 101.474215 442.481034 106.632813 C 442.095999 111.787035 441.474692 118.052609 440.608363 125.416408 Z M 440.608363 125.416408 " stroke="#0e0069" stroke-width="7.379363" stroke-opacity="1" stroke-miterlimit="4"/><g fill="#7668d2" fill-opacity="1"><g transform="translate(-0.594308, 236.361725)"><g><path d="M 76.359375 -65.828125 C 76.359375 -71.128906 76.359375 -76.082031 76.359375 -80.6875 C 76.359375 -85.300781 76.359375 -89.929688 76.359375 -94.578125 C 76.359375 -99.222656 76.359375 -104.238281 76.359375 -109.625 C 79.253906 -113.0625 82.535156 -115.5 86.203125 -116.9375 C 89.867188 -118.382812 93.613281 -118.929688 97.4375 -118.578125 C 101.269531 -118.234375 104.785156 -117.160156 107.984375 -115.359375 C 111.191406 -113.566406 113.789062 -111.144531 115.78125 -108.09375 C 117.769531 -105.050781 118.765625 -101.539062 118.765625 -97.5625 C 118.765625 -95.21875 118.78125 -91.878906 118.8125 -87.546875 C 118.851562 -83.210938 118.894531 -78.273438 118.9375 -72.734375 C 118.976562 -67.191406 119.015625 -61.332031 119.046875 -55.15625 C 119.085938 -48.988281 119.085938 -42.878906 119.046875 -36.828125 C 119.015625 -30.785156 118.921875 -25.085938 118.765625 -19.734375 C 118.609375 -14.390625 118.375 -9.722656 118.0625 -5.734375 C 115.5625 -3.234375 112.257812 -1.300781 108.15625 0.0625 C 104.0625 1.425781 99.613281 1.96875 94.8125 1.6875 C 90.007812 1.414062 85.285156 0.128906 80.640625 -2.171875 C 75.992188 -4.472656 71.875 -8.082031 68.28125 -13 C 66.644531 -15.257812 64.945312 -17.816406 63.1875 -20.671875 C 61.425781 -23.523438 59.742188 -26.375 58.140625 -29.21875 C 56.546875 -32.070312 55.125 -34.648438 53.875 -36.953125 C 52.625 -39.253906 51.648438 -40.914062 50.953125 -41.9375 C 50.796875 -42.320312 50.578125 -42.671875 50.296875 -42.984375 C 50.023438 -43.296875 49.773438 -43.609375 49.546875 -43.921875 C 49.460938 -43.921875 49.34375 -43.898438 49.1875 -43.859375 C 49.03125 -43.828125 48.875 -43.8125 48.71875 -43.8125 C 48.800781 -40.289062 48.921875 -37.066406 49.078125 -34.140625 C 49.234375 -31.210938 49.390625 -28.320312 49.546875 -25.46875 C 49.703125 -22.625 49.796875 -19.582031 49.828125 -16.34375 C 49.867188 -13.101562 49.851562 -9.375 49.78125 -5.15625 C 45.945312 -2.03125 42.039062 0.0351562 38.0625 1.046875 C 34.082031 2.066406 30.273438 2.28125 26.640625 1.6875 C 23.015625 1.101562 19.753906 -0.0820312 16.859375 -1.875 C 13.972656 -3.664062 11.671875 -5.832031 9.953125 -8.375 C 8.234375 -10.914062 7.335938 -13.585938 7.265625 -16.390625 C 7.109375 -21.234375 6.96875 -26.5625 6.84375 -32.375 C 6.726562 -38.195312 6.628906 -44.25 6.546875 -50.53125 C 6.472656 -56.820312 6.4375 -63.007812 6.4375 -69.09375 C 6.4375 -75.1875 6.457031 -80.945312 6.5 -86.375 C 6.539062 -91.800781 6.640625 -96.601562 6.796875 -100.78125 C 6.953125 -104.957031 7.144531 -108.179688 7.375 -110.453125 C 10.1875 -112.796875 13.640625 -114.664062 17.734375 -116.0625 C 21.835938 -117.46875 26.132812 -118.113281 30.625 -118 C 35.113281 -117.882812 39.40625 -116.734375 43.5 -114.546875 C 47.601562 -112.359375 51.0625 -108.921875 53.875 -104.234375 C 55.90625 -100.804688 57.71875 -97.6875 59.3125 -94.875 C 60.914062 -92.0625 62.476562 -89.304688 64 -86.609375 C 65.53125 -83.921875 67.113281 -81.109375 68.75 -78.171875 C 70.394531 -75.242188 72.269531 -71.910156 74.375 -68.171875 C 74.601562 -67.703125 74.851562 -67.25 75.125 -66.8125 C 75.40625 -66.382812 75.660156 -65.976562 75.890625 -65.59375 C 75.972656 -65.664062 76.050781 -65.703125 76.125 -65.703125 C 76.207031 -65.703125 76.285156 -65.742188 76.359375 -65.828125 Z M 76.359375 -65.828125 "/></g></g></g><g fill="#7668d2" fill-opacity="1"><g transform="translate(125.769285, 236.361725)"><g><path d="M 76.25 -79.171875 C 72.738281 -80.035156 69.59375 -80.328125 66.8125 -80.046875 C 64.039062 -79.773438 61.097656 -78.625 57.984375 -76.59375 C 53.921875 -74.101562 51.300781 -70.785156 50.125 -66.640625 C 48.957031 -62.503906 48.6875 -58.210938 49.3125 -53.765625 C 49.9375 -48.453125 51.90625 -44.367188 55.21875 -41.515625 C 58.539062 -38.671875 62.269531 -37.285156 66.40625 -37.359375 C 69.613281 -37.359375 72.09375 -38.019531 73.84375 -39.34375 C 75.601562 -40.675781 76.890625 -42.394531 77.703125 -44.5 C 78.523438 -46.613281 79.035156 -48.878906 79.234375 -51.296875 C 79.429688 -53.722656 79.566406 -56.066406 79.640625 -58.328125 C 80.734375 -59.804688 82.6875 -60.914062 85.5 -61.65625 C 88.3125 -62.40625 91.492188 -62.679688 95.046875 -62.484375 C 98.597656 -62.285156 102.070312 -61.523438 105.46875 -60.203125 C 108.863281 -58.878906 111.710938 -56.90625 114.015625 -54.28125 C 116.316406 -51.664062 117.585938 -48.328125 117.828125 -44.265625 C 117.984375 -41.222656 117.671875 -37.710938 116.890625 -33.734375 C 116.109375 -29.753906 114.582031 -25.710938 112.3125 -21.609375 C 110.050781 -17.503906 106.910156 -13.695312 102.890625 -10.1875 C 98.867188 -6.675781 93.753906 -3.828125 87.546875 -1.640625 C 81.335938 0.546875 73.820312 1.640625 65 1.640625 C 55.476562 1.640625 47.378906 0.453125 40.703125 -1.921875 C 34.023438 -4.304688 28.519531 -7.390625 24.1875 -11.171875 C 19.851562 -14.960938 16.394531 -19.046875 13.8125 -23.421875 C 11.238281 -27.796875 9.25 -31.972656 7.84375 -35.953125 C 5.5 -42.671875 4.382812 -49.835938 4.5 -57.453125 C 4.625 -65.066406 5.816406 -72.304688 8.078125 -79.171875 C 10.660156 -86.828125 14.566406 -93.289062 19.796875 -98.5625 C 25.023438 -103.832031 31.269531 -108.222656 38.53125 -111.734375 C 48.289062 -116.492188 58.929688 -118.660156 70.453125 -118.234375 C 81.972656 -117.804688 93.976562 -114 106.46875 -106.8125 C 107.632812 -102.363281 107.828125 -98.363281 107.046875 -94.8125 C 106.265625 -91.257812 104.820312 -88.210938 102.71875 -85.671875 C 100.613281 -83.140625 98.078125 -81.1875 95.109375 -79.8125 C 92.140625 -78.445312 89.015625 -77.6875 85.734375 -77.53125 C 82.453125 -77.375 79.289062 -77.921875 76.25 -79.171875 Z M 76.25 -79.171875 "/></g></g></g><g fill="#7668d2" fill-opacity="1"><g transform="translate(247.565524, 236.361725)"><g><path d="M 119.578125 -39.828125 C 118.722656 -32.328125 116.535156 -25.882812 113.015625 -20.5 C 109.503906 -15.113281 105.132812 -10.660156 99.90625 -7.140625 C 94.675781 -3.628906 89.015625 -1.035156 82.921875 0.640625 C 76.828125 2.316406 70.738281 3.15625 64.65625 3.15625 C 59.738281 3.15625 54.800781 2.878906 49.84375 2.328125 C 44.882812 1.785156 40.097656 0.695312 35.484375 -0.9375 C 30.878906 -2.570312 26.644531 -4.953125 22.78125 -8.078125 C 18.914062 -11.203125 15.65625 -15.300781 13 -20.375 C 10.34375 -25.457031 8.507812 -31.785156 7.5 -39.359375 C 6.476562 -46.460938 5.988281 -54.191406 6.03125 -62.546875 C 6.070312 -70.898438 6.441406 -79.429688 7.140625 -88.140625 C 7.847656 -96.847656 8.75 -105.222656 9.84375 -113.265625 C 10.695312 -114.203125 12.253906 -115.0625 14.515625 -115.84375 C 16.785156 -116.625 19.460938 -117.207031 22.546875 -117.59375 C 25.628906 -117.976562 28.828125 -118.035156 32.140625 -117.765625 C 35.460938 -117.492188 38.585938 -116.769531 41.515625 -115.59375 C 44.441406 -114.425781 46.921875 -112.75 48.953125 -110.5625 C 50.984375 -108.375 52.234375 -105.488281 52.703125 -101.90625 C 52.859375 -100.65625 52.957031 -98.25 53 -94.6875 C 53.039062 -91.132812 53.0625 -86.914062 53.0625 -82.03125 C 53.0625 -77.15625 53.117188 -72.039062 53.234375 -66.6875 C 53.347656 -61.34375 53.539062 -56.25 53.8125 -51.40625 C 54.09375 -46.570312 54.503906 -42.476562 55.046875 -39.125 C 55.515625 -36.539062 56.585938 -34.503906 58.265625 -33.015625 C 59.941406 -31.535156 61.832031 -30.738281 63.9375 -30.625 C 66.050781 -30.507812 68.003906 -31.171875 69.796875 -32.609375 C 71.597656 -34.054688 72.8125 -36.382812 73.4375 -39.59375 C 73.976562 -42.40625 74.460938 -46.070312 74.890625 -50.59375 C 75.328125 -55.125 75.660156 -60.082031 75.890625 -65.46875 C 76.128906 -70.851562 76.226562 -76.316406 76.1875 -81.859375 C 76.144531 -87.410156 75.96875 -92.664062 75.65625 -97.625 C 75.34375 -102.582031 74.835938 -106.816406 74.140625 -110.328125 C 75.703125 -111.890625 77.828125 -113.238281 80.515625 -114.375 C 83.210938 -115.507812 86.238281 -116.289062 89.59375 -116.71875 C 92.957031 -117.144531 96.335938 -117.101562 99.734375 -116.59375 C 103.128906 -116.09375 106.3125 -115 109.28125 -113.3125 C 112.25 -111.632812 114.726562 -109.234375 116.71875 -106.109375 C 118.707031 -102.992188 119.9375 -99.050781 120.40625 -94.28125 C 120.71875 -91.082031 121.007812 -88.175781 121.28125 -85.5625 C 121.550781 -82.945312 121.742188 -80.289062 121.859375 -77.59375 C 121.984375 -74.894531 122.003906 -71.867188 121.921875 -68.515625 C 121.847656 -65.160156 121.632812 -61.175781 121.28125 -56.5625 C 120.925781 -51.957031 120.359375 -46.378906 119.578125 -39.828125 Z M 119.578125 -39.828125 "/></g></g></g></svg>