<svg xmlns="http://www.w3.org/2000/svg" xmlns:xlink="http://www.w3.org/1999/xlink" width="500" zoomAndPan="magnify" viewBox="0 0 375 374.999991" height="500" preserveAspectRatio="xMidYMid meet" version="1.0"><defs><g/></defs><path stroke-linecap="butt" transform="matrix(0.75, 0, 0, 0.75, -32.167947, 37.38623)" fill="none" stroke-linejoin="miter" d="M 238.531237 226.693374 C 229.416653 233.459 220.151028 238.162125 210.744777 240.807959 C 201.333318 243.459001 192.572901 244.781917 184.453109 244.781917 C 176.401025 244.781917 169.755191 244.281917 164.520816 243.281917 C 159.28644 242.219417 156.197899 241.370459 155.25519 240.719417 C 155.078107 240.719417 154.989565 240.719417 154.989565 240.719417 C 154.989565 240.719417 154.901023 240.719417 154.729148 240.719417 C 154.729148 240.719417 154.401023 240.870459 153.75519 241.162125 C 153.75519 241.162125 153.729148 241.219417 153.666648 241.339209 C 153.609357 241.3965 153.578107 241.516292 153.578107 241.693375 C 153.578107 242.630875 153.578107 245.130876 153.578107 249.188168 C 153.578107 253.188168 153.489565 258.130876 153.31769 264.011085 C 153.140607 269.834002 152.874982 276.094419 152.520815 282.802753 C 152.229148 289.448587 151.75519 296.063171 151.109357 302.651713 C 147.109356 306.94338 141.963523 310.120463 135.671856 312.177755 C 129.43748 314.292339 122.703105 315.026714 115.468729 314.38088 C 108.239562 313.735047 101.239562 311.589213 94.473936 307.94338 C 87.770811 304.235046 81.80206 298.854837 76.567685 291.797545 C 71.33331 284.682962 67.687476 275.682961 65.630184 264.802752 C 64.984351 261.27671 64.421851 255.188168 63.953101 246.542334 C 63.484351 237.839208 63.098934 227.724624 62.807267 216.198582 C 62.572892 204.61004 62.484351 192.406914 62.541642 179.589205 C 62.661434 166.708995 62.921851 154.240245 63.333309 142.182952 C 63.749976 130.130868 64.333309 119.365242 65.098934 109.896492 C 65.921851 100.427741 66.984351 93.287116 68.276018 88.464199 C 71.80206 85.110032 77.30206 81.964198 84.770811 79.02149 C 92.239561 76.02149 101.031228 73.526698 111.151021 71.526698 C 121.265605 69.464197 132.057272 68.052739 143.526023 67.292322 C 154.989565 66.469406 166.520816 66.557947 178.10415 67.552739 C 189.687484 68.495447 200.718735 70.406906 211.182277 73.287114 C 221.713528 76.172531 231.005195 80.344406 239.062487 85.818365 C 246.765613 90.932949 253.177072 97.870449 258.291655 106.636075 C 263.468739 115.396492 267.140614 125.162118 269.317698 135.922535 C 271.494781 146.682953 271.937489 157.682953 270.640614 168.917329 C 269.348948 180.146496 266.083322 190.79233 260.848947 200.849623 C 255.614572 210.844415 248.177071 219.464207 238.531237 226.693374 Z M 190.630192 158.328787 C 190.630192 154.917328 189.098942 151.771495 186.041651 148.891286 C 182.984359 146.005869 179.046858 144.182952 174.223941 143.422536 C 169.401024 142.599619 164.343732 143.771494 159.046857 146.948578 C 159.046857 151.948578 159.046857 156.386078 159.046857 160.271495 C 159.046857 164.094412 159.135399 168.089204 159.312482 172.266288 C 159.312482 172.735038 159.635399 173.354829 160.28644 174.120454 C 160.932274 174.823579 161.489566 175.177746 161.958316 175.177746 C 165.020816 175.177746 168.015608 175.177746 170.958316 175.177746 C 173.958316 175.177746 176.984358 174.854829 180.046858 174.208996 C 187.104151 173.089204 190.630192 167.797537 190.630192 158.328787 Z M 287.999991 240.016292 C 289.880199 230.370458 292.291657 219.578791 295.229158 207.64129 C 298.229158 195.646497 301.583325 183.29233 305.28645 170.589204 C 308.994784 157.886078 312.8177 145.568369 316.755201 133.630868 C 320.697909 121.688159 324.546868 110.80795 328.312493 100.990241 C 332.078118 91.167324 335.489577 83.287115 338.546869 77.349615 C 345.130203 75.110031 352.98437 73.052739 362.098954 71.172531 C 371.270829 69.229822 381.005205 68.141281 391.296872 67.906906 C 401.58854 67.615239 411.791665 68.938156 421.906249 71.875656 C 432.026042 74.761073 441.317709 79.906906 449.786459 87.313157 C 458.312502 94.667324 465.312502 105.016283 470.781253 118.365242 C 473.369794 124.776701 476.364586 133.011077 479.776045 143.068369 C 483.250003 153.063161 486.864587 164.208995 490.630212 176.500663 C 494.453129 188.79233 498.156254 201.438164 501.744796 214.432957 C 505.333338 227.432958 508.593755 240.136084 511.536464 252.542334 C 514.536464 264.891294 516.947922 276.125669 518.770839 286.240253 C 518.239589 290.59442 515.973964 294.886087 511.979172 299.120463 C 507.979172 303.354838 502.89063 306.969421 496.713546 309.969422 C 490.541671 312.91213 483.864587 314.854839 476.692711 315.792339 C 469.515627 316.792339 462.401044 316.235047 455.343752 314.115255 C 448.286459 312.057963 441.906251 308.000671 436.197917 301.943379 C 430.494792 295.828796 426.057291 287.297545 422.880208 276.360044 C 415.291666 276.005878 407.411457 275.922544 399.239581 276.094419 C 391.062497 276.271503 383.124997 276.271503 375.421871 276.094419 C 373.302079 281.09442 371.302079 286.56317 369.421871 292.505879 C 367.598954 298.443379 365.802079 304.531921 364.041662 310.766297 C 349.276036 316.235047 336.515619 318.203797 325.755201 316.677755 C 314.989576 315.146505 306.34895 310.94338 299.8177 304.063171 C 293.348949 297.120462 289.114574 288.120462 287.114574 277.068378 C 285.114574 266.011085 285.411449 253.662126 287.999991 240.016292 Z M 384.062497 206.495456 C 389.182289 206.495456 394.151039 206.495456 398.973956 206.495456 C 403.796873 206.495456 408.708332 206.495456 413.703124 206.495456 C 411.468749 196.672539 409.145832 187.000663 406.734373 177.469413 C 404.322915 167.886079 401.999998 158.297537 399.765623 148.714203 C 399.239581 148.828786 398.499998 148.891286 397.562498 148.891286 C 395.442706 158.360037 393.208331 167.854829 390.859372 177.380871 C 388.562497 186.849622 386.296872 196.557956 384.062497 206.495456 Z M 384.062497 206.495456 " stroke="#806400" stroke-width="13.550025" stroke-opacity="1" stroke-miterlimit="4"/><g fill="#ffce1f" fill-opacity="1"><g transform="translate(4.218769, 271.386215)"><g><path d="M 142.546875 -63.953125 C 135.679688 -58.898438 128.722656 -55.378906 121.671875 -53.390625 C 114.628906 -51.398438 108.066406 -50.40625 101.984375 -50.40625 C 95.898438 -50.40625 90.898438 -50.796875 86.984375 -51.578125 C 83.078125 -52.359375 80.757812 -52.992188 80.03125 -53.484375 C 79.914062 -53.484375 79.859375 -53.484375 79.859375 -53.484375 C 79.859375 -53.484375 79.796875 -53.484375 79.671875 -53.484375 C 79.671875 -53.484375 79.429688 -53.359375 78.953125 -53.109375 C 78.953125 -53.109375 78.921875 -53.078125 78.859375 -53.015625 C 78.796875 -52.960938 78.765625 -52.875 78.765625 -52.75 C 78.765625 -52.03125 78.765625 -50.164062 78.765625 -47.15625 C 78.765625 -44.144531 78.703125 -40.441406 78.578125 -36.046875 C 78.460938 -31.648438 78.285156 -26.953125 78.046875 -21.953125 C 77.804688 -16.953125 77.445312 -11.984375 76.96875 -7.046875 C 73.957031 -3.796875 70.101562 -1.390625 65.40625 0.171875 C 60.707031 1.742188 55.644531 2.285156 50.21875 1.796875 C 44.800781 1.316406 39.5625 -0.304688 34.5 -3.078125 C 29.445312 -5.847656 24.960938 -9.878906 21.046875 -15.171875 C 17.128906 -20.472656 14.390625 -27.21875 12.828125 -35.40625 C 12.347656 -38.0625 11.925781 -42.640625 11.5625 -49.140625 C 11.195312 -55.640625 10.925781 -63.222656 10.75 -71.890625 C 10.570312 -80.566406 10.507812 -89.722656 10.5625 -99.359375 C 10.625 -108.992188 10.804688 -118.328125 11.109375 -127.359375 C 11.410156 -136.398438 11.863281 -144.472656 12.46875 -151.578125 C 13.070312 -158.679688 13.851562 -164.039062 14.8125 -167.65625 C 17.46875 -170.1875 21.59375 -172.566406 27.1875 -174.796875 C 32.789062 -177.023438 39.382812 -178.890625 46.96875 -180.390625 C 54.5625 -181.898438 62.660156 -182.953125 71.265625 -183.546875 C 79.878906 -184.148438 88.519531 -184.09375 97.1875 -183.375 C 105.863281 -182.65625 114.144531 -181.207031 122.03125 -179.03125 C 129.925781 -176.863281 136.882812 -173.734375 142.90625 -169.640625 C 148.6875 -165.785156 153.503906 -160.578125 157.359375 -154.015625 C 161.210938 -147.453125 163.953125 -140.132812 165.578125 -132.0625 C 167.203125 -124 167.53125 -115.75 166.5625 -107.3125 C 165.601562 -98.882812 163.164062 -90.90625 159.25 -83.375 C 155.34375 -75.851562 149.773438 -69.378906 142.546875 -63.953125 Z M 106.59375 -115.265625 C 106.59375 -117.796875 105.445312 -120.144531 103.15625 -122.3125 C 100.875 -124.476562 97.925781 -125.863281 94.3125 -126.46875 C 90.695312 -127.070312 86.898438 -126.164062 82.921875 -123.75 C 82.921875 -120.019531 82.921875 -116.707031 82.921875 -113.8125 C 82.921875 -110.925781 82.984375 -107.914062 83.109375 -104.78125 C 83.109375 -104.425781 83.347656 -103.976562 83.828125 -103.4375 C 84.304688 -102.894531 84.726562 -102.625 85.09375 -102.625 C 87.382812 -102.625 89.644531 -102.625 91.875 -102.625 C 94.101562 -102.625 96.359375 -102.863281 98.640625 -103.34375 C 103.941406 -104.1875 106.59375 -108.160156 106.59375 -115.265625 Z M 106.59375 -115.265625 "/></g></g></g><g fill="#ffce1f" fill-opacity="1"><g transform="translate(179.463832, 271.386215)"><g><path d="M 4.34375 -54.015625 C 5.78125 -61.242188 7.613281 -69.34375 9.84375 -78.3125 C 12.070312 -87.289062 14.570312 -96.535156 17.34375 -106.046875 C 20.113281 -115.566406 22.972656 -124.8125 25.921875 -133.78125 C 28.878906 -142.757812 31.769531 -150.921875 34.59375 -158.265625 C 37.425781 -165.609375 39.988281 -171.507812 42.28125 -175.96875 C 47.21875 -177.65625 53.117188 -179.21875 59.984375 -180.65625 C 66.847656 -182.101562 74.132812 -182.914062 81.84375 -183.09375 C 89.550781 -183.28125 97.195312 -182.289062 104.78125 -180.125 C 112.375 -177.957031 119.359375 -174.101562 125.734375 -168.5625 C 132.117188 -163.019531 137.363281 -155.25 141.46875 -145.25 C 143.394531 -140.4375 145.648438 -134.265625 148.234375 -126.734375 C 150.828125 -119.210938 153.535156 -110.84375 156.359375 -101.625 C 159.191406 -92.40625 161.960938 -82.914062 164.671875 -73.15625 C 167.390625 -63.40625 169.859375 -53.894531 172.078125 -44.625 C 174.304688 -35.351562 176.085938 -26.921875 177.421875 -19.328125 C 177.054688 -16.078125 175.367188 -12.851562 172.359375 -9.65625 C 169.347656 -6.46875 165.519531 -3.757812 160.875 -1.53125 C 156.238281 0.695312 151.238281 2.171875 145.875 2.890625 C 140.519531 3.609375 135.191406 3.1875 129.890625 1.625 C 124.597656 0.0625 119.8125 -3.003906 115.53125 -7.578125 C 111.257812 -12.160156 107.921875 -18.546875 105.515625 -26.734375 C 99.847656 -26.972656 93.941406 -27.03125 87.796875 -26.90625 C 81.660156 -26.789062 75.703125 -26.796875 69.921875 -26.921875 C 68.347656 -23.179688 66.867188 -19.082031 65.484375 -14.625 C 64.097656 -10.175781 62.742188 -5.601562 61.421875 -0.90625 C 50.347656 3.1875 40.773438 4.660156 32.703125 3.515625 C 24.628906 2.378906 18.15625 -0.773438 13.28125 -5.953125 C 8.40625 -11.140625 5.210938 -17.882812 3.703125 -26.1875 C 2.203125 -34.5 2.414062 -43.773438 4.34375 -54.015625 Z M 76.421875 -79.125 C 80.273438 -79.125 84.007812 -79.125 87.625 -79.125 C 91.238281 -79.125 94.910156 -79.125 98.640625 -79.125 C 96.953125 -86.476562 95.203125 -93.738281 93.390625 -100.90625 C 91.585938 -108.070312 89.847656 -115.265625 88.171875 -122.484375 C 87.804688 -122.367188 87.265625 -122.3125 86.546875 -122.3125 C 84.972656 -115.207031 83.3125 -108.097656 81.5625 -100.984375 C 79.820312 -93.878906 78.109375 -86.59375 76.421875 -79.125 Z M 76.421875 -79.125 "/></g></g></g></svg>