<svg xmlns="http://www.w3.org/2000/svg" xmlns:xlink="http://www.w3.org/1999/xlink" width="500" zoomAndPan="magnify" viewBox="0 0 375 374.999991" height="500" preserveAspectRatio="xMidYMid meet" version="1.0"><defs><g/></defs><path stroke-linecap="butt" transform="matrix(0.75, 0, 0, 0.75, -32.167947, 37.386238)" fill="none" stroke-linejoin="miter" d="M 256.718738 226.693365 C 247.604155 233.45899 238.338529 238.162115 228.932278 240.807949 C 219.520819 243.458991 210.760402 244.781907 202.64061 244.781907 C 194.588526 244.781907 187.942692 244.281907 182.708317 243.281907 C 177.473942 242.219407 174.3854 241.370449 173.442691 240.724615 C 173.265608 240.724615 173.177066 240.724615 173.177066 240.724615 C 173.177066 240.724615 173.088525 240.724615 172.91665 240.724615 C 172.91665 240.724615 172.588525 240.870449 171.942691 241.162115 C 171.942691 241.162115 171.91665 241.219407 171.85415 241.339199 C 171.796858 241.39649 171.765608 241.516282 171.765608 241.693365 C 171.765608 242.630866 171.765608 245.130866 171.765608 249.188158 C 171.765608 253.188158 171.677066 258.130867 171.505191 264.011075 C 171.328108 269.833992 171.062483 276.094409 170.708316 282.802743 C 170.416649 289.448577 169.942691 296.063161 169.296858 302.651703 C 165.296857 306.94337 160.151024 310.120453 153.859357 312.177745 C 147.624981 314.292329 140.890606 315.026704 133.65623 314.38087 C 126.427063 313.735037 119.427063 311.589203 112.661437 307.94337 C 105.958312 304.235036 99.989562 298.854828 94.755186 291.797535 C 89.520811 284.682952 85.874977 275.682951 83.817685 264.802742 C 83.171852 261.2767 82.609352 255.188158 82.140602 246.542324 C 81.671852 237.839199 81.286435 227.724615 80.994769 216.198572 C 80.760394 204.61003 80.671852 192.406904 80.729144 179.589195 C 80.848935 166.708986 81.109352 154.240235 81.52081 142.182942 C 81.937477 130.130858 82.52081 119.365232 83.286435 109.896482 C 84.109352 100.427731 85.171852 93.287106 86.463519 88.464189 C 89.989561 85.110022 95.489561 81.964188 102.958312 79.02148 C 110.427062 76.02148 119.218729 73.526688 129.338522 71.526688 C 139.453106 69.464188 150.244773 68.052729 161.713524 67.292312 C 173.177066 66.469396 184.708317 66.557937 196.291651 67.552729 C 207.874985 68.495437 218.906236 70.406896 229.369778 73.287104 C 239.901029 76.172521 249.192696 80.344397 257.249989 85.818355 C 264.953114 90.932939 271.364573 97.870439 276.479156 106.636065 C 281.65624 115.396482 285.328115 125.162108 287.505199 135.922525 C 289.682282 146.682943 290.124991 157.682943 288.828116 168.917319 C 287.536449 180.146486 284.270824 190.79232 279.036448 200.849613 C 273.802073 210.844405 266.364572 219.464197 256.718738 226.693365 Z M 208.817694 158.328777 C 208.817694 154.917318 207.286444 151.771485 204.229152 148.891276 C 201.17186 146.005859 197.23436 144.182942 192.411443 143.422526 C 187.588526 142.599609 182.531234 143.771484 177.234358 146.948568 C 177.234358 151.948568 177.234358 156.386068 177.234358 160.271485 C 177.234358 164.094402 177.3229 168.089194 177.499983 172.266278 C 177.499983 172.735028 177.8229 173.354819 178.473942 174.120444 C 179.119775 174.823569 179.677067 175.177736 180.145817 175.177736 C 183.208317 175.177736 186.203109 175.177736 189.145817 175.177736 C 192.145818 175.177736 195.171859 174.854819 198.23436 174.208986 C 205.291652 173.089194 208.817694 167.797527 208.817694 158.328777 Z M 313.593742 256.333991 C 313.302076 250.865241 313.067701 243.516282 312.890617 234.281907 C 312.713534 225.047531 312.624992 214.698572 312.624992 203.229821 C 312.624992 191.761071 312.744784 179.880861 312.979159 167.589194 C 313.213534 155.302735 313.536451 143.214192 313.947909 131.333983 C 314.359367 119.453774 314.828117 108.458982 315.359367 98.344398 C 315.947909 88.224605 316.656242 79.787105 317.479159 73.026688 C 325.473951 72.261063 335.208327 71.672521 346.677078 71.261063 C 358.20312 70.849604 370.552079 70.552729 383.729163 70.375646 C 396.901039 70.203771 410.104165 70.261063 423.333333 70.552729 C 436.567709 70.792313 449.093751 71.141271 460.916669 71.615229 C 472.734378 72.083979 482.880212 72.641271 491.348962 73.287104 C 492.817712 75.349605 494.114587 78.55273 495.229171 82.906897 C 496.348963 87.255855 496.937504 92.167314 496.994796 97.636064 C 497.114588 103.104815 496.437504 108.662107 494.968754 114.30794 C 493.557296 119.896482 491.026046 125.099608 487.380212 129.922525 C 483.79167 134.745442 478.82292 138.599609 472.468753 141.479817 C 466.119794 144.360026 458.119793 145.802734 448.479168 145.802734 C 445.302084 145.802734 442.333334 145.802734 439.567709 145.802734 C 436.859375 145.802734 433.802083 145.802734 430.390625 145.802734 C 427.041666 145.802734 422.864583 145.802734 417.864582 145.802734 C 412.927082 145.802734 406.604165 145.802734 398.901039 145.802734 C 398.901039 147.745443 398.901039 149.714193 398.901039 151.714193 C 398.901039 153.714193 398.901039 155.917318 398.901039 158.328777 C 402.427081 158.328777 407.281248 158.240235 413.453124 158.063152 C 419.630208 157.886068 426.333333 157.797527 433.567708 157.797527 C 440.802084 157.797527 447.916668 158.125652 454.916668 158.771485 C 461.916669 159.417318 467.973961 160.563152 473.088544 162.208985 C 477.911461 172.797528 479.911461 182.677737 479.088545 191.849612 C 478.32292 200.964196 474.765628 208.432947 468.411461 214.255864 C 462.062502 220.021489 452.947918 223.224614 441.067709 223.870448 C 437.010417 223.990239 433.213542 224.047531 429.6875 224.047531 C 426.15625 224.047531 422.072916 224.021489 417.427082 223.958989 C 412.781249 223.901698 406.692707 223.870448 399.166665 223.870448 C 399.166665 226.401698 399.166665 228.844406 399.166665 231.193365 C 399.166665 233.49024 399.166665 235.92774 399.166665 238.516282 C 399.927081 238.516282 400.781248 238.516282 401.723956 238.516282 C 402.723956 238.516282 403.692706 238.516282 404.635415 238.516282 C 417.515624 238.516282 430.390625 238.516282 443.270834 238.516282 C 456.208335 238.516282 469.119794 238.516282 482.000003 238.516282 C 486.645837 244.927741 489.614587 252.042325 490.906254 259.865242 C 492.203129 267.625659 491.645837 275.214201 489.234379 282.62566 C 486.82292 289.974619 482.234378 296.354827 475.468753 301.766286 C 468.765627 307.120453 459.708335 310.531912 448.302084 312.000662 C 444.244792 312.469412 438.802084 312.91212 431.979167 313.323579 C 425.15625 313.735037 417.661457 313.969412 409.484374 314.026704 C 401.312498 314.146495 393.166664 314.115245 385.05208 313.938162 C 376.932288 313.766287 369.614579 313.44337 363.083329 312.969412 C 356.614578 312.500662 351.614578 311.854828 348.088536 311.031912 C 336.85416 308.146495 328.531243 302.412119 323.124993 293.828786 C 317.770826 285.240243 314.593742 272.745451 313.593742 256.333991 Z M 313.593742 256.333991 " stroke="#0e0069" stroke-width="13.550025" stroke-opacity="1" stroke-miterlimit="4"/><g fill="#7668d2" fill-opacity="1"><g transform="translate(17.859393, 271.386222)"><g><path d="M 142.546875 -63.953125 C 135.679688 -58.898438 128.722656 -55.378906 121.671875 -53.390625 C 114.628906 -51.398438 108.066406 -50.40625 101.984375 -50.40625 C 95.898438 -50.40625 90.898438 -50.796875 86.984375 -51.578125 C 83.078125 -52.359375 80.757812 -52.992188 80.03125 -53.484375 C 79.914062 -53.484375 79.859375 -53.484375 79.859375 -53.484375 C 79.859375 -53.484375 79.796875 -53.484375 79.671875 -53.484375 C 79.671875 -53.484375 79.429688 -53.359375 78.953125 -53.109375 C 78.953125 -53.109375 78.921875 -53.078125 78.859375 -53.015625 C 78.796875 -52.960938 78.765625 -52.875 78.765625 -52.75 C 78.765625 -52.03125 78.765625 -50.164062 78.765625 -47.15625 C 78.765625 -44.144531 78.703125 -40.441406 78.578125 -36.046875 C 78.460938 -31.648438 78.285156 -26.953125 78.046875 -21.953125 C 77.804688 -16.953125 77.445312 -11.984375 76.96875 -7.046875 C 73.957031 -3.796875 70.101562 -1.390625 65.40625 0.171875 C 60.707031 1.742188 55.644531 2.285156 50.21875 1.796875 C 44.800781 1.316406 39.5625 -0.304688 34.5 -3.078125 C 29.445312 -5.847656 24.960938 -9.878906 21.046875 -15.171875 C 17.128906 -20.472656 14.390625 -27.21875 12.828125 -35.40625 C 12.347656 -38.0625 11.925781 -42.640625 11.5625 -49.140625 C 11.195312 -55.640625 10.925781 -63.222656 10.75 -71.890625 C 10.570312 -80.566406 10.507812 -89.722656 10.5625 -99.359375 C 10.625 -108.992188 10.804688 -118.328125 11.109375 -127.359375 C 11.410156 -136.398438 11.863281 -144.472656 12.46875 -151.578125 C 13.070312 -158.679688 13.851562 -164.039062 14.8125 -167.65625 C 17.46875 -170.1875 21.59375 -172.566406 27.1875 -174.796875 C 32.789062 -177.023438 39.382812 -178.890625 46.96875 -180.390625 C 54.5625 -181.898438 62.660156 -182.953125 71.265625 -183.546875 C 79.878906 -184.148438 88.519531 -184.09375 97.1875 -183.375 C 105.863281 -182.65625 114.144531 -181.207031 122.03125 -179.03125 C 129.925781 -176.863281 136.882812 -173.734375 142.90625 -169.640625 C 148.6875 -165.785156 153.503906 -160.578125 157.359375 -154.015625 C 161.210938 -147.453125 163.953125 -140.132812 165.578125 -132.0625 C 167.203125 -124 167.53125 -115.75 166.5625 -107.3125 C 165.601562 -98.882812 163.164062 -90.90625 159.25 -83.375 C 155.34375 -75.851562 149.773438 -69.378906 142.546875 -63.953125 Z M 106.59375 -115.265625 C 106.59375 -117.796875 105.445312 -120.144531 103.15625 -122.3125 C 100.875 -124.476562 97.925781 -125.863281 94.3125 -126.46875 C 90.695312 -127.070312 86.898438 -126.164062 82.921875 -123.75 C 82.921875 -120.019531 82.921875 -116.707031 82.921875 -113.8125 C 82.921875 -110.925781 82.984375 -107.914062 83.109375 -104.78125 C 83.109375 -104.425781 83.347656 -103.976562 83.828125 -103.4375 C 84.304688 -102.894531 84.726562 -102.625 85.09375 -102.625 C 87.382812 -102.625 89.644531 -102.625 91.875 -102.625 C 94.101562 -102.625 96.359375 -102.863281 98.640625 -103.34375 C 103.941406 -104.1875 106.59375 -108.160156 106.59375 -115.265625 Z M 106.59375 -115.265625 "/></g></g></g><g fill="#7668d2" fill-opacity="1"><g transform="translate(193.104456, 271.386222)"><g><path d="M 9.9375 -41.734375 C 9.695312 -45.828125 9.515625 -51.335938 9.390625 -58.265625 C 9.273438 -65.191406 9.21875 -72.957031 9.21875 -81.5625 C 9.21875 -90.175781 9.304688 -99.085938 9.484375 -108.296875 C 9.660156 -117.515625 9.898438 -126.582031 10.203125 -135.5 C 10.503906 -144.414062 10.863281 -152.664062 11.28125 -160.25 C 11.707031 -167.84375 12.222656 -174.164062 12.828125 -179.21875 C 18.847656 -179.820312 26.164062 -180.273438 34.78125 -180.578125 C 43.394531 -180.878906 52.640625 -181.085938 62.515625 -181.203125 C 72.390625 -181.328125 82.296875 -181.296875 92.234375 -181.109375 C 102.171875 -180.929688 111.5625 -180.660156 120.40625 -180.296875 C 129.257812 -179.941406 136.878906 -179.523438 143.265625 -179.046875 C 144.347656 -177.472656 145.3125 -175.0625 146.15625 -171.8125 C 147 -168.5625 147.453125 -164.890625 147.515625 -160.796875 C 147.578125 -156.703125 147.066406 -152.546875 145.984375 -148.328125 C 144.898438 -144.109375 143 -140.191406 140.28125 -136.578125 C 137.570312 -132.960938 133.835938 -130.070312 129.078125 -127.90625 C 124.328125 -125.738281 118.335938 -124.65625 111.109375 -124.65625 C 108.703125 -124.65625 106.472656 -124.65625 104.421875 -124.65625 C 102.378906 -124.65625 100.09375 -124.65625 97.5625 -124.65625 C 95.03125 -124.65625 91.894531 -124.65625 88.15625 -124.65625 C 84.425781 -124.65625 79.671875 -124.65625 73.890625 -124.65625 C 73.890625 -123.207031 73.890625 -121.726562 73.890625 -120.21875 C 73.890625 -118.71875 73.890625 -117.066406 73.890625 -115.265625 C 76.546875 -115.265625 80.191406 -115.320312 84.828125 -115.4375 C 89.460938 -115.5625 94.488281 -115.625 99.90625 -115.625 C 105.320312 -115.625 110.648438 -115.382812 115.890625 -114.90625 C 121.128906 -114.425781 125.675781 -113.582031 129.53125 -112.375 C 133.144531 -104.425781 134.648438 -97.019531 134.046875 -90.15625 C 133.453125 -83.289062 130.773438 -77.6875 126.015625 -73.34375 C 121.253906 -69.007812 114.421875 -66.601562 105.515625 -66.125 C 102.503906 -66 99.671875 -65.9375 97.015625 -65.9375 C 94.367188 -65.9375 91.296875 -65.96875 87.796875 -66.03125 C 84.304688 -66.09375 79.734375 -66.125 74.078125 -66.125 C 74.078125 -64.195312 74.078125 -62.359375 74.078125 -60.609375 C 74.078125 -58.867188 74.078125 -57.035156 74.078125 -55.109375 C 74.679688 -55.109375 75.34375 -55.109375 76.0625 -55.109375 C 76.78125 -55.109375 77.503906 -55.109375 78.234375 -55.109375 C 87.867188 -55.109375 97.53125 -55.109375 107.21875 -55.109375 C 116.914062 -55.109375 126.582031 -55.109375 136.21875 -55.109375 C 139.71875 -50.285156 141.945312 -44.953125 142.90625 -39.109375 C 143.875 -33.273438 143.453125 -27.585938 141.640625 -22.046875 C 139.835938 -16.503906 136.40625 -11.710938 131.34375 -7.671875 C 126.28125 -3.640625 119.472656 -1.082031 110.921875 0 C 107.910156 0.363281 103.847656 0.695312 98.734375 1 C 93.617188 1.300781 87.988281 1.476562 81.84375 1.53125 C 75.695312 1.59375 69.582031 1.5625 63.5 1.4375 C 57.414062 1.320312 51.9375 1.082031 47.0625 0.71875 C 42.1875 0.363281 38.421875 -0.113281 35.765625 -0.71875 C 27.335938 -2.882812 21.101562 -7.191406 17.0625 -13.640625 C 13.03125 -20.085938 10.65625 -29.453125 9.9375 -41.734375 Z M 9.9375 -41.734375 "/></g></g></g></svg>