<svg xmlns="http://www.w3.org/2000/svg" xmlns:xlink="http://www.w3.org/1999/xlink" width="500" zoomAndPan="magnify" viewBox="0 0 375 374.999991" height="500" preserveAspectRatio="xMidYMid meet" version="1.0"><defs><g/></defs><path stroke-linecap="butt" transform="matrix(0.75, 0, 0, 0.75, -32.167947, 37.386209)" fill="none" stroke-linejoin="miter" d="M 300.562491 226.693404 C 291.447907 233.459029 282.182282 238.162154 272.776031 240.807988 C 263.364572 243.45903 254.604155 244.781946 246.484363 244.781946 C 238.432279 244.781946 231.786445 244.281946 226.55207 243.281946 C 221.317694 242.219446 218.229153 241.370488 217.286444 240.719446 C 217.109361 240.719446 217.020819 240.719446 217.020819 240.719446 C 217.020819 240.719446 216.932278 240.719446 216.760403 240.719446 C 216.760403 240.719446 216.432278 240.870488 215.786444 241.162154 C 215.786444 241.162154 215.760402 241.219446 215.697902 241.339238 C 215.640611 241.39653 215.609361 241.516321 215.609361 241.693405 C 215.609361 242.630905 215.609361 245.130905 215.609361 249.188197 C 215.609361 253.188197 215.520819 258.130906 215.348944 264.011114 C 215.171861 269.834031 214.906236 276.094448 214.552069 282.802782 C 214.260402 289.448616 213.786444 296.0632 213.140611 302.651742 C 209.14061 306.943409 203.994777 310.120492 197.70311 312.177784 C 191.468734 314.292368 184.734359 315.026743 177.499983 314.380909 C 170.270816 313.735076 163.270816 311.589242 156.50519 307.943409 C 149.802065 304.235075 143.833314 298.854867 138.598939 291.797574 C 133.364564 284.682991 129.71873 275.68299 127.661438 264.802781 C 127.015605 261.276739 126.453105 255.188197 125.984355 246.542363 C 125.515605 237.839238 125.130188 227.724654 124.838521 216.198611 C 124.604146 204.610069 124.515605 192.406943 124.572896 179.589234 C 124.692688 166.709025 124.953105 154.240274 125.364563 142.182981 C 125.78123 130.130897 126.364563 119.365271 127.130188 109.896521 C 127.953105 100.42777 129.015605 93.287145 130.307272 88.464228 C 133.833314 85.110061 139.333314 81.964227 146.802065 79.021519 C 154.270815 76.021519 163.062482 73.526727 173.182275 71.526727 C 183.296859 69.464227 194.088526 68.052768 205.557277 67.292351 C 217.020819 66.469435 228.55207 66.557976 240.135404 67.552768 C 251.718738 68.495476 262.749989 70.406935 273.213531 73.287143 C 283.744782 76.17256 293.036449 80.344436 301.093741 85.818394 C 308.796867 90.932978 315.208326 97.870478 320.322909 106.636104 C 325.499993 115.396521 329.171868 125.162147 331.348952 135.922564 C 333.526035 146.682982 333.968744 157.682982 332.671868 168.91215 C 331.380202 180.146525 328.114577 190.79236 322.880201 200.849652 C 317.645826 210.844444 310.208325 219.464236 300.562491 226.693404 Z M 252.661447 158.328816 C 252.661447 154.917357 251.130196 151.771524 248.072905 148.891315 C 245.015613 146.005898 241.078112 144.182981 236.255195 143.422565 C 231.432278 142.599648 226.374986 143.771523 221.078111 146.948607 C 221.078111 151.948607 221.078111 156.386107 221.078111 160.271524 C 221.078111 164.094441 221.166653 168.089233 221.343736 172.266317 C 221.343736 172.735067 221.666653 173.354858 222.317695 174.120483 C 222.963528 174.823608 223.52082 175.177775 223.98957 175.177775 C 227.05207 175.177775 230.046862 175.177775 232.98957 175.177775 C 235.98957 175.177775 239.015612 174.854858 242.078113 174.209025 C 249.135405 173.089233 252.661447 167.797566 252.661447 158.328816 Z M 443.182292 118.365271 C 444.010417 123.130897 444.625001 130.068397 445.036459 139.188189 C 445.447918 148.245482 445.682293 158.651732 445.744793 170.41215 C 445.802084 182.115276 445.744793 194.318401 445.567709 207.021527 C 445.447918 219.667361 445.125001 232.193404 444.593751 244.604863 C 444.125001 256.953822 443.567709 268.302781 442.921876 278.656949 C 442.333334 289.005908 441.536459 297.5632 440.536459 304.323617 C 436.536459 308.620492 431.453125 311.735076 425.276041 313.677784 C 419.104166 315.615284 412.515624 316.146534 405.515623 315.266326 C 398.515623 314.380909 391.723956 311.969451 385.140622 308.031951 C 378.55208 304.089242 372.729163 298.474658 367.671871 291.182991 C 362.614579 283.891324 359.057287 274.860073 356.999995 264.099656 C 356.348953 261.042364 355.76562 255.953822 355.23437 248.839238 C 354.76562 241.662155 354.322912 233.224654 353.911453 223.521528 C 353.557287 213.755903 353.291661 203.26111 353.114578 192.026735 C 352.942703 180.792359 352.880203 169.531941 352.942703 158.240274 C 353.057286 146.891315 353.26562 136.068398 353.557287 125.77673 C 353.911453 115.485063 354.437495 106.370479 355.145828 98.432978 C 355.911453 90.49027 356.848953 84.432978 357.968745 80.255894 C 362.437495 76.261102 367.906246 73.229852 374.374996 71.17256 C 380.906247 69.052768 387.786455 68.17256 395.020831 68.526726 C 402.255206 68.818393 409.192707 70.729852 415.838541 74.261102 C 422.541666 77.787144 428.333333 83.141311 433.21875 90.313186 C 438.098959 97.432978 441.421876 106.781937 443.182292 118.365271 Z M 443.182292 118.365271 " stroke="#7a0003" stroke-width="13.550025" stroke-opacity="1" stroke-miterlimit="4"/><g fill="#f46064" fill-opacity="1"><g transform="translate(50.742203, 271.386193)"><g><path d="M 142.546875 -63.953125 C 135.679688 -58.898438 128.722656 -55.378906 121.671875 -53.390625 C 114.628906 -51.398438 108.066406 -50.40625 101.984375 -50.40625 C 95.898438 -50.40625 90.898438 -50.796875 86.984375 -51.578125 C 83.078125 -52.359375 80.757812 -52.992188 80.03125 -53.484375 C 79.914062 -53.484375 79.859375 -53.484375 79.859375 -53.484375 C 79.859375 -53.484375 79.796875 -53.484375 79.671875 -53.484375 C 79.671875 -53.484375 79.429688 -53.359375 78.953125 -53.109375 C 78.953125 -53.109375 78.921875 -53.078125 78.859375 -53.015625 C 78.796875 -52.960938 78.765625 -52.875 78.765625 -52.75 C 78.765625 -52.03125 78.765625 -50.164062 78.765625 -47.15625 C 78.765625 -44.144531 78.703125 -40.441406 78.578125 -36.046875 C 78.460938 -31.648438 78.285156 -26.953125 78.046875 -21.953125 C 77.804688 -16.953125 77.445312 -11.984375 76.96875 -7.046875 C 73.957031 -3.796875 70.101562 -1.390625 65.40625 0.171875 C 60.707031 1.742188 55.644531 2.285156 50.21875 1.796875 C 44.800781 1.316406 39.5625 -0.304688 34.5 -3.078125 C 29.445312 -5.847656 24.960938 -9.878906 21.046875 -15.171875 C 17.128906 -20.472656 14.390625 -27.21875 12.828125 -35.40625 C 12.347656 -38.0625 11.925781 -42.640625 11.5625 -49.140625 C 11.195312 -55.640625 10.925781 -63.222656 10.75 -71.890625 C 10.570312 -80.566406 10.507812 -89.722656 10.5625 -99.359375 C 10.625 -108.992188 10.804688 -118.328125 11.109375 -127.359375 C 11.410156 -136.398438 11.863281 -144.472656 12.46875 -151.578125 C 13.070312 -158.679688 13.851562 -164.039062 14.8125 -167.65625 C 17.46875 -170.1875 21.59375 -172.566406 27.1875 -174.796875 C 32.789062 -177.023438 39.382812 -178.890625 46.96875 -180.390625 C 54.5625 -181.898438 62.660156 -182.953125 71.265625 -183.546875 C 79.878906 -184.148438 88.519531 -184.09375 97.1875 -183.375 C 105.863281 -182.65625 114.144531 -181.207031 122.03125 -179.03125 C 129.925781 -176.863281 136.882812 -173.734375 142.90625 -169.640625 C 148.6875 -165.785156 153.503906 -160.578125 157.359375 -154.015625 C 161.210938 -147.453125 163.953125 -140.132812 165.578125 -132.0625 C 167.203125 -124 167.53125 -115.75 166.5625 -107.3125 C 165.601562 -98.882812 163.164062 -90.90625 159.25 -83.375 C 155.34375 -75.851562 149.773438 -69.378906 142.546875 -63.953125 Z M 106.59375 -115.265625 C 106.59375 -117.796875 105.445312 -120.144531 103.15625 -122.3125 C 100.875 -124.476562 97.925781 -125.863281 94.3125 -126.46875 C 90.695312 -127.070312 86.898438 -126.164062 82.921875 -123.75 C 82.921875 -120.019531 82.921875 -116.707031 82.921875 -113.8125 C 82.921875 -110.925781 82.984375 -107.914062 83.109375 -104.78125 C 83.109375 -104.425781 83.347656 -103.976562 83.828125 -103.4375 C 84.304688 -102.894531 84.726562 -102.625 85.09375 -102.625 C 87.382812 -102.625 89.644531 -102.625 91.875 -102.625 C 94.101562 -102.625 96.359375 -102.863281 98.640625 -103.34375 C 103.941406 -104.1875 106.59375 -108.160156 106.59375 -115.265625 Z M 106.59375 -115.265625 "/></g></g></g><g fill="#f46064" fill-opacity="1"><g transform="translate(225.987267, 271.386193)"><g><path d="M 74.25 -145.25 C 74.851562 -141.644531 75.304688 -136.4375 75.609375 -129.625 C 75.910156 -122.820312 76.085938 -115.023438 76.140625 -106.234375 C 76.203125 -97.441406 76.171875 -88.285156 76.046875 -78.765625 C 75.929688 -69.253906 75.691406 -59.859375 75.328125 -50.578125 C 74.972656 -41.304688 74.550781 -32.785156 74.0625 -25.015625 C 73.582031 -17.253906 72.984375 -10.84375 72.265625 -5.78125 C 69.253906 -2.53125 65.429688 -0.179688 60.796875 1.265625 C 56.160156 2.710938 51.222656 3.101562 45.984375 2.4375 C 40.742188 1.78125 35.65625 -0.0195312 30.71875 -2.96875 C 25.78125 -5.925781 21.410156 -10.144531 17.609375 -15.625 C 13.816406 -21.101562 11.140625 -27.878906 9.578125 -35.953125 C 9.097656 -38.242188 8.675781 -42.066406 8.3125 -47.421875 C 7.945312 -52.785156 7.613281 -59.109375 7.3125 -66.390625 C 7.007812 -73.679688 6.796875 -81.539062 6.671875 -89.96875 C 6.554688 -98.40625 6.53125 -106.867188 6.59375 -115.359375 C 6.65625 -123.847656 6.804688 -131.945312 7.046875 -139.65625 C 7.285156 -147.363281 7.675781 -154.195312 8.21875 -160.15625 C 8.757812 -166.125 9.453125 -170.671875 10.296875 -173.796875 C 13.671875 -176.804688 17.796875 -179.09375 22.671875 -180.65625 C 27.546875 -182.226562 32.691406 -182.894531 38.109375 -182.65625 C 43.535156 -182.414062 48.75 -180.96875 53.75 -178.3125 C 58.75 -175.664062 63.082031 -171.660156 66.75 -166.296875 C 70.425781 -160.941406 72.925781 -153.925781 74.25 -145.25 Z M 74.25 -145.25 "/></g></g></g></svg>