<svg xmlns="http://www.w3.org/2000/svg" xmlns:xlink="http://www.w3.org/1999/xlink" width="500" zoomAndPan="magnify" viewBox="0 0 375 374.999991" height="500" preserveAspectRatio="xMidYMid meet" version="1.0"><defs><g/></defs><path stroke-linecap="butt" transform="matrix(0.75, 0, 0, 0.75, -32.167947, 38.785896)" fill="none" stroke-linejoin="miter" d="M 226.421861 214.103195 C 217.776028 220.514653 208.994777 224.978195 200.067693 227.488612 C 191.145818 229.999029 182.833317 231.249029 175.140608 231.249029 C 167.499983 231.249029 161.192691 230.775071 156.229149 229.827154 C 151.265607 228.827154 148.338523 228.014654 147.447898 227.405279 C 147.281231 227.405279 147.197898 227.405279 147.197898 227.405279 C 147.197898 227.405279 147.114565 227.405279 146.94269 227.405279 C 146.94269 227.405279 146.640606 227.540695 146.026023 227.821945 C 146.026023 227.821945 145.994773 227.879237 145.94269 227.988612 C 145.885398 228.045904 145.859356 228.155279 145.859356 228.321946 C 145.859356 229.217779 145.859356 231.587571 145.859356 235.436529 C 145.859356 239.228196 145.776023 243.910488 145.604148 249.488614 C 145.437481 255.009447 145.187481 260.952156 144.854148 267.306323 C 144.572898 273.613615 144.130189 279.884449 143.515606 286.134449 C 139.723939 290.202158 134.84373 293.217783 128.87498 295.1657 C 122.963521 297.176117 116.578104 297.874033 109.718729 297.25945 C 102.854145 296.644867 96.218728 294.608408 89.807269 291.150075 C 83.447894 287.639658 77.786435 282.535491 72.822893 275.842782 C 67.859351 269.092782 64.401018 260.561531 62.447892 250.243822 C 61.833309 246.894863 61.307267 241.12403 60.859351 232.926112 C 60.411434 224.670904 60.052059 215.077153 59.770809 204.144861 C 59.546851 193.160485 59.463517 181.587567 59.520809 169.426108 C 59.630184 157.212566 59.885392 145.389648 60.276017 133.957356 C 60.661434 122.519855 61.223934 112.31673 61.947892 103.337562 C 62.729142 94.358395 63.729142 87.582353 64.958309 83.004228 C 68.307268 79.827144 73.52081 76.842769 80.604144 74.05631 C 87.687477 71.21256 96.02602 68.83756 105.614562 66.941727 C 115.208313 64.99381 125.442688 63.655268 136.317689 62.926101 C 147.197898 62.144851 158.124982 62.233393 169.114566 63.18131 C 180.10415 64.071935 190.557276 65.884435 200.489568 68.61881 C 210.468735 71.347977 219.281236 75.311519 226.921862 80.499019 C 234.229154 85.347978 240.307279 91.931312 245.161446 100.238604 C 250.067696 108.551104 253.55728 117.806313 255.61978 128.014647 C 257.68228 138.222981 258.098947 148.650065 256.874988 159.306316 C 255.645822 169.957358 252.552072 180.051109 247.58853 189.587568 C 242.624988 199.071944 235.567695 207.238611 226.421861 214.103195 Z M 180.994775 149.264649 C 180.994775 146.030273 179.546858 143.045898 176.645817 140.311523 C 173.744775 137.582356 170.005191 135.853189 165.432274 135.124023 C 160.859357 134.347981 156.062482 135.462564 151.046857 138.472981 C 151.046857 143.212565 151.046857 147.426107 151.046857 151.10319 C 151.046857 154.728191 151.13019 158.525066 151.296857 162.4834 C 151.296857 162.931316 151.604148 163.51465 152.213523 164.238608 C 152.828107 164.910483 153.359357 165.243816 153.807273 165.243816 C 156.703107 165.243816 159.552065 165.243816 162.338524 165.243816 C 165.182274 165.243816 168.057274 164.936525 170.953108 164.321941 C 177.645817 163.26465 180.994775 158.243816 180.994775 149.264649 Z M 394.140623 62.009435 C 409.697915 61.842768 423.281249 63.597976 434.880209 67.280268 C 446.536459 70.905269 456.463543 75.61881 464.66146 81.415686 C 472.916669 87.21777 479.750003 93.379228 485.161462 99.90527 C 490.567712 106.431313 494.838546 112.650063 497.958338 118.561522 C 501.083338 124.415689 503.343755 129.160481 504.73438 132.785481 C 510.036463 147.394857 513.187505 162.150066 514.187505 177.040692 C 515.192714 191.874026 513.411464 206.821944 508.833338 221.879237 C 496.343754 261.926114 469.765627 286.743824 429.109375 296.337575 C 412.656249 300.295909 396.427081 301.551117 380.416663 300.1032 C 364.411454 298.655283 348.79687 293.993825 333.567702 286.134449 C 319.124993 278.66049 307.578117 268.952157 298.932283 257.019864 C 290.343741 245.025072 284.322907 231.196946 280.864573 215.52507 C 278.578115 205.597986 277.239573 195.472985 276.848948 185.155276 C 276.458323 174.780275 277.041656 164.712566 278.604157 154.952149 C 280.223948 145.191732 282.869782 136.436523 286.552074 128.686522 C 290.177074 120.59798 294.890616 112.650063 300.6927 104.842771 C 306.489575 96.978187 313.656242 89.81152 322.192701 83.342769 C 330.723952 76.868811 340.932286 71.71256 352.812495 67.863602 C 364.687496 63.957351 378.463538 62.009435 394.140623 62.009435 Z M 395.307289 143.743815 C 389.677081 143.743815 384.463539 145.306315 379.666663 148.426107 C 374.869788 151.551107 371.078121 156.207357 368.286454 162.400066 C 365.552079 168.535483 364.494787 176.176109 365.109371 185.321943 C 365.723954 194.191735 367.729162 201.217777 371.130204 206.405277 C 374.588538 211.535486 378.635413 215.217778 383.260413 217.446945 C 387.947914 219.676112 392.270831 220.624028 396.229164 220.290695 C 400.302081 220.014653 404.427082 218.702153 408.609373 216.358403 C 412.848957 213.96257 416.447916 210.170903 419.401041 204.983402 C 422.359374 199.795902 424.062499 192.936527 424.505208 184.400068 C 425.119791 175.759442 424.088541 168.4209 421.411458 162.400066 C 418.791666 156.374024 415.135416 151.775065 410.453124 148.597982 C 405.822915 145.358398 400.77604 143.743815 395.307289 143.743815 Z M 395.307289 143.743815 " stroke="#803a00" stroke-width="12.8502" stroke-opacity="1" stroke-miterlimit="4"/><g fill="#ff7c10" fill-opacity="1"><g transform="translate(2.496113, 260.035881)"><g><path d="M 135.1875 -60.65625 C 128.675781 -55.851562 122.078125 -52.507812 115.390625 -50.625 C 108.710938 -48.738281 102.488281 -47.796875 96.71875 -47.796875 C 90.945312 -47.796875 86.203125 -48.164062 82.484375 -48.90625 C 78.773438 -49.65625 76.582031 -50.257812 75.90625 -50.71875 C 75.789062 -50.71875 75.734375 -50.71875 75.734375 -50.71875 C 75.734375 -50.71875 75.675781 -50.71875 75.5625 -50.71875 C 75.5625 -50.71875 75.332031 -50.601562 74.875 -50.375 C 74.875 -50.375 74.84375 -50.34375 74.78125 -50.28125 C 74.726562 -50.226562 74.703125 -50.144531 74.703125 -50.03125 C 74.703125 -49.34375 74.703125 -47.570312 74.703125 -44.71875 C 74.703125 -41.863281 74.644531 -38.347656 74.53125 -34.171875 C 74.414062 -30.003906 74.242188 -25.550781 74.015625 -20.8125 C 73.785156 -16.070312 73.441406 -11.363281 72.984375 -6.6875 C 70.128906 -3.601562 66.472656 -1.316406 62.015625 0.171875 C 57.566406 1.660156 52.769531 2.175781 47.625 1.71875 C 42.488281 1.257812 37.519531 -0.28125 32.71875 -2.90625 C 27.925781 -5.539062 23.671875 -9.367188 19.953125 -14.390625 C 16.242188 -19.421875 13.648438 -25.816406 12.171875 -33.578125 C 11.710938 -36.085938 11.3125 -40.425781 10.96875 -46.59375 C 10.625 -52.769531 10.363281 -59.96875 10.1875 -68.1875 C 10.019531 -76.414062 9.960938 -85.097656 10.015625 -94.234375 C 10.078125 -103.367188 10.25 -112.21875 10.53125 -120.78125 C 10.820312 -129.351562 11.25 -137.007812 11.8125 -143.75 C 12.382812 -150.488281 13.128906 -155.570312 14.046875 -159 C 16.554688 -161.394531 20.46875 -163.648438 25.78125 -165.765625 C 31.09375 -167.878906 37.347656 -169.648438 44.546875 -171.078125 C 51.742188 -172.503906 59.425781 -173.503906 67.59375 -174.078125 C 75.757812 -174.648438 83.953125 -174.59375 92.171875 -173.90625 C 100.398438 -173.21875 108.253906 -171.84375 115.734375 -169.78125 C 123.210938 -167.726562 129.8125 -164.757812 135.53125 -160.875 C 141.007812 -157.226562 145.578125 -152.289062 149.234375 -146.0625 C 152.890625 -139.832031 155.488281 -132.890625 157.03125 -125.234375 C 158.570312 -117.585938 158.882812 -109.765625 157.96875 -101.765625 C 157.050781 -93.773438 154.738281 -86.207031 151.03125 -79.0625 C 147.320312 -71.925781 142.039062 -65.789062 135.1875 -60.65625 Z M 101.09375 -109.3125 C 101.09375 -111.707031 100.003906 -113.929688 97.828125 -115.984375 C 95.660156 -118.046875 92.863281 -119.363281 89.4375 -119.9375 C 86.007812 -120.507812 82.410156 -119.648438 78.640625 -117.359375 C 78.640625 -113.816406 78.640625 -110.675781 78.640625 -107.9375 C 78.640625 -105.195312 78.695312 -102.34375 78.8125 -99.375 C 78.8125 -99.03125 79.039062 -98.597656 79.5 -98.078125 C 79.957031 -97.566406 80.359375 -97.3125 80.703125 -97.3125 C 82.867188 -97.3125 85.007812 -97.3125 87.125 -97.3125 C 89.238281 -97.3125 91.378906 -97.539062 93.546875 -98 C 98.578125 -98.800781 101.09375 -102.570312 101.09375 -109.3125 Z M 101.09375 -109.3125 "/></g></g></g><g fill="#ff7c10" fill-opacity="1"><g transform="translate(168.691084, 260.035881)"><g><path d="M 94.75 -174.765625 C 106.394531 -174.878906 116.585938 -173.5625 125.328125 -170.8125 C 134.066406 -168.070312 141.519531 -164.53125 147.6875 -160.1875 C 153.851562 -155.851562 158.960938 -151.226562 163.015625 -146.3125 C 167.078125 -141.40625 170.273438 -136.753906 172.609375 -132.359375 C 174.953125 -127.960938 176.640625 -124.390625 177.671875 -121.640625 C 181.671875 -110.679688 184.039062 -99.628906 184.78125 -88.484375 C 185.519531 -77.347656 184.175781 -66.128906 180.75 -54.828125 C 171.382812 -24.785156 151.457031 -6.164062 120.96875 1.03125 C 108.625 4 96.457031 4.941406 84.46875 3.859375 C 72.476562 2.773438 60.769531 -0.738281 49.34375 -6.6875 C 38.488281 -12.28125 29.832031 -19.5625 23.375 -28.53125 C 16.925781 -37.5 12.390625 -47.863281 9.765625 -59.625 C 8.054688 -67.050781 7.054688 -74.644531 6.765625 -82.40625 C 6.484375 -90.175781 6.941406 -97.71875 8.140625 -105.03125 C 9.335938 -112.34375 11.304688 -118.910156 14.046875 -124.734375 C 16.785156 -130.785156 20.328125 -136.75 24.671875 -142.625 C 29.015625 -148.507812 34.382812 -153.878906 40.78125 -158.734375 C 47.175781 -163.585938 54.828125 -167.472656 63.734375 -170.390625 C 72.640625 -173.304688 82.976562 -174.765625 94.75 -174.765625 Z M 95.609375 -113.421875 C 91.378906 -113.421875 87.460938 -112.25 83.859375 -109.90625 C 80.265625 -107.5625 77.4375 -104.078125 75.375 -99.453125 C 73.320312 -94.828125 72.523438 -89.085938 72.984375 -82.234375 C 73.441406 -75.609375 74.957031 -70.351562 77.53125 -66.46875 C 80.101562 -62.59375 83.128906 -59.828125 86.609375 -58.171875 C 90.085938 -56.515625 93.316406 -55.800781 96.296875 -56.03125 C 99.378906 -56.257812 102.488281 -57.257812 105.625 -59.03125 C 108.769531 -60.800781 111.453125 -63.625 113.671875 -67.5 C 115.898438 -71.382812 117.1875 -76.523438 117.53125 -82.921875 C 117.988281 -89.429688 117.21875 -94.941406 115.21875 -99.453125 C 113.21875 -103.972656 110.472656 -107.429688 106.984375 -109.828125 C 103.503906 -112.222656 99.710938 -113.421875 95.609375 -113.421875 Z M 95.609375 -113.421875 "/></g></g></g></svg>