<svg xmlns="http://www.w3.org/2000/svg" xmlns:xlink="http://www.w3.org/1999/xlink" width="500" zoomAndPan="magnify" viewBox="0 0 375 374.999991" height="500" preserveAspectRatio="xMidYMid meet" version="1.0"><defs><g/></defs><path stroke-linecap="butt" transform="matrix(0.75, 0, 0, 0.75, -32.167947, 37.386326)" fill="none" stroke-linejoin="miter" d="M 226.484361 226.693247 C 217.369778 233.458873 208.104152 238.161998 198.697901 240.807832 C 189.286442 243.458873 180.526025 244.78179 172.406233 244.78179 C 164.354149 244.78179 157.708315 244.28179 152.47394 243.28179 C 147.239565 242.21929 144.151023 241.370332 143.208314 240.724498 C 143.031231 240.724498 142.942689 240.724498 142.942689 240.724498 C 142.942689 240.724498 142.854148 240.724498 142.682273 240.724498 C 142.682273 240.724498 142.354148 240.870332 141.708314 241.161998 C 141.708314 241.161998 141.682273 241.21929 141.619773 241.339082 C 141.562481 241.396373 141.531231 241.516165 141.531231 241.693248 C 141.531231 242.630748 141.531231 245.130749 141.531231 249.193249 C 141.531231 253.188041 141.442689 258.130749 141.270814 264.010958 C 141.093731 269.833875 140.828106 276.094292 140.473939 282.802626 C 140.182272 289.44846 139.708314 296.063044 139.062481 302.651586 C 135.06248 306.943253 129.916647 310.120336 123.62498 312.177628 C 117.390604 314.292211 110.656229 315.026587 103.421853 314.380753 C 96.192686 313.73492 89.192686 311.589086 82.42706 307.943253 C 75.723935 304.234919 69.755185 298.85471 64.520809 291.797418 C 59.286434 284.682835 55.6406 275.682834 53.583308 264.802625 C 52.937475 261.276583 52.374975 255.188041 51.906225 246.542207 C 51.437475 237.839081 51.052058 227.724497 50.760392 216.198455 C 50.526017 204.615121 50.437475 192.411995 50.494767 179.589078 C 50.614558 166.708868 50.874975 154.240118 51.286433 142.188034 C 51.7031 130.130741 52.286433 119.365115 53.052058 109.896365 C 53.874975 100.432822 54.937475 93.286989 56.229142 88.464072 C 59.755184 85.109905 65.255184 81.964071 72.723935 79.021363 C 80.192685 76.026571 88.984352 73.526571 99.104145 71.526571 C 109.218729 69.46407 120.010396 68.052612 131.479147 67.292195 C 142.942689 66.469279 154.47394 66.55782 166.057274 67.55782 C 177.640608 68.49532 188.671859 70.406779 199.135401 73.286987 C 209.666652 76.172404 218.958319 80.344279 227.015612 85.818238 C 234.718737 90.932822 241.130196 97.870322 246.244779 106.635948 C 251.421863 115.396365 255.093738 125.161991 257.270822 135.922408 C 259.447905 146.682825 259.890614 157.682826 258.593739 168.917202 C 257.302072 180.146369 254.036447 190.792203 248.802071 200.849496 C 243.567696 210.844288 236.130195 219.46408 226.484361 226.693247 Z M 178.583317 158.32866 C 178.583317 154.917201 177.052067 151.771367 173.994775 148.891159 C 170.937483 146.005742 166.999983 144.182825 162.177066 143.422409 C 157.354149 142.599492 152.296857 143.771367 146.999981 146.94845 C 146.999981 151.948451 146.999981 156.385951 146.999981 160.271368 C 146.999981 164.094285 147.088523 168.089077 147.265606 172.26616 C 147.265606 172.734911 147.588523 173.354702 148.239565 174.120327 C 148.885398 174.823452 149.44269 175.177619 149.91144 175.177619 C 152.97394 175.177619 155.968732 175.177619 158.91144 175.177619 C 161.911441 175.177619 164.937482 174.854702 167.999983 174.208869 C 175.057275 173.089077 178.583317 167.79741 178.583317 158.32866 Z M 516.072922 230.135956 C 514.307297 245.542207 509.812505 258.807833 502.57813 269.922417 C 495.343754 280.979709 486.343754 290.120335 475.583336 297.35471 C 464.81771 304.531794 453.177085 309.854711 440.651042 313.323461 C 428.125 316.792212 415.593749 318.526587 403.067706 318.526587 C 392.953122 318.526587 382.807288 317.938045 372.635413 316.76617 C 362.458329 315.646378 352.60937 313.412003 343.083327 310.057836 C 333.614577 306.708878 324.911451 301.823461 316.968742 295.41721 C 309.031242 288.94846 302.328116 280.505751 296.859366 270.0995 C 291.390616 259.63075 287.624991 246.604707 285.567699 231.016164 C 283.447907 216.43283 282.421865 200.552621 282.479157 183.380745 C 282.598949 166.208868 283.359365 148.682826 284.770824 130.807824 C 286.244782 112.870323 288.093741 95.609905 290.328116 79.021363 C 292.093741 77.141154 295.302074 75.406779 299.947908 73.818237 C 304.651033 72.172404 310.177075 70.96407 316.531242 70.203654 C 322.880201 69.380737 329.468743 69.260945 336.29166 69.849487 C 343.114577 70.380737 349.520828 71.849487 355.520828 74.260946 C 361.520829 76.672404 366.609371 80.141154 370.781246 84.667196 C 374.95833 89.141155 377.546871 95.047405 378.546871 102.401573 C 378.838538 104.990114 379.015622 109.958865 379.072913 117.307824 C 379.192705 124.599491 379.249997 133.276575 379.249997 143.333867 C 379.249997 153.328659 379.369788 163.82866 379.604163 174.823452 C 379.838538 185.823453 380.223955 196.318245 380.749997 206.318246 C 381.338538 216.255747 382.192705 224.667206 383.307288 231.547414 C 384.307289 236.839081 386.515622 241.016165 389.927081 244.073457 C 393.395831 247.130749 397.307289 248.776582 401.656248 249.016166 C 406.010415 249.250541 410.010415 247.896374 413.656249 244.958874 C 417.359374 241.958873 419.859374 237.161998 421.151041 230.578664 C 422.270833 224.813039 423.270833 217.286997 424.151041 207.995329 C 425.036458 198.641162 425.713541 188.438037 426.182291 177.385952 C 426.713541 166.26616 426.916666 155.005743 426.796875 143.599492 C 426.739583 132.188033 426.385416 121.396365 425.739583 111.22449 C 425.09375 101.047406 424.062499 92.34428 422.651041 85.109905 C 425.828125 81.87553 430.182292 79.109904 435.708334 76.818238 C 441.296876 74.464071 447.531251 72.849487 454.41146 71.964071 C 461.291669 71.083862 468.229169 71.172404 475.229169 72.229696 C 482.22917 73.229696 488.755212 75.464071 494.812504 78.932821 C 500.927088 82.40678 506.04688 87.34428 510.161463 93.755739 C 514.281255 100.167197 516.807297 108.281781 517.750006 118.104699 C 518.395839 124.688032 518.984381 130.688033 519.515631 136.099491 C 520.104172 141.44845 520.515631 146.891159 520.750006 152.417201 C 520.984381 157.948451 521.015631 164.182827 520.838547 171.120327 C 520.718756 178.000536 520.276047 186.17762 519.515631 195.64637 C 518.807297 205.109913 517.661464 216.609913 516.072922 230.135956 Z M 516.072922 230.135956 " stroke="#0e0069" stroke-width="13.550025" stroke-opacity="1" stroke-miterlimit="4"/><g fill="#7668d2" fill-opacity="1"><g transform="translate(-4.816387, 271.38631)"><g><path d="M 142.546875 -63.953125 C 135.679688 -58.898438 128.722656 -55.378906 121.671875 -53.390625 C 114.628906 -51.398438 108.066406 -50.40625 101.984375 -50.40625 C 95.898438 -50.40625 90.898438 -50.796875 86.984375 -51.578125 C 83.078125 -52.359375 80.757812 -52.992188 80.03125 -53.484375 C 79.914062 -53.484375 79.859375 -53.484375 79.859375 -53.484375 C 79.859375 -53.484375 79.796875 -53.484375 79.671875 -53.484375 C 79.671875 -53.484375 79.429688 -53.359375 78.953125 -53.109375 C 78.953125 -53.109375 78.921875 -53.078125 78.859375 -53.015625 C 78.796875 -52.960938 78.765625 -52.875 78.765625 -52.75 C 78.765625 -52.03125 78.765625 -50.164062 78.765625 -47.15625 C 78.765625 -44.144531 78.703125 -40.441406 78.578125 -36.046875 C 78.460938 -31.648438 78.285156 -26.953125 78.046875 -21.953125 C 77.804688 -16.953125 77.445312 -11.984375 76.96875 -7.046875 C 73.957031 -3.796875 70.101562 -1.390625 65.40625 0.171875 C 60.707031 1.742188 55.644531 2.285156 50.21875 1.796875 C 44.800781 1.316406 39.5625 -0.304688 34.5 -3.078125 C 29.445312 -5.847656 24.960938 -9.878906 21.046875 -15.171875 C 17.128906 -20.472656 14.390625 -27.21875 12.828125 -35.40625 C 12.347656 -38.0625 11.925781 -42.640625 11.5625 -49.140625 C 11.195312 -55.640625 10.925781 -63.222656 10.75 -71.890625 C 10.570312 -80.566406 10.507812 -89.722656 10.5625 -99.359375 C 10.625 -108.992188 10.804688 -118.328125 11.109375 -127.359375 C 11.410156 -136.398438 11.863281 -144.472656 12.46875 -151.578125 C 13.070312 -158.679688 13.851562 -164.039062 14.8125 -167.65625 C 17.46875 -170.1875 21.59375 -172.566406 27.1875 -174.796875 C 32.789062 -177.023438 39.382812 -178.890625 46.96875 -180.390625 C 54.5625 -181.898438 62.660156 -182.953125 71.265625 -183.546875 C 79.878906 -184.148438 88.519531 -184.09375 97.1875 -183.375 C 105.863281 -182.65625 114.144531 -181.207031 122.03125 -179.03125 C 129.925781 -176.863281 136.882812 -173.734375 142.90625 -169.640625 C 148.6875 -165.785156 153.503906 -160.578125 157.359375 -154.015625 C 161.210938 -147.453125 163.953125 -140.132812 165.578125 -132.0625 C 167.203125 -124 167.53125 -115.75 166.5625 -107.3125 C 165.601562 -98.882812 163.164062 -90.90625 159.25 -83.375 C 155.34375 -75.851562 149.773438 -69.378906 142.546875 -63.953125 Z M 106.59375 -115.265625 C 106.59375 -117.796875 105.445312 -120.144531 103.15625 -122.3125 C 100.875 -124.476562 97.925781 -125.863281 94.3125 -126.46875 C 90.695312 -127.070312 86.898438 -126.164062 82.921875 -123.75 C 82.921875 -120.019531 82.921875 -116.707031 82.921875 -113.8125 C 82.921875 -110.925781 82.984375 -107.914062 83.109375 -104.78125 C 83.109375 -104.425781 83.347656 -103.976562 83.828125 -103.4375 C 84.304688 -102.894531 84.726562 -102.625 85.09375 -102.625 C 87.382812 -102.625 89.644531 -102.625 91.875 -102.625 C 94.101562 -102.625 96.359375 -102.863281 98.640625 -103.34375 C 103.941406 -104.1875 106.59375 -108.160156 106.59375 -115.265625 Z M 106.59375 -115.265625 "/></g></g></g><g fill="#7668d2" fill-opacity="1"><g transform="translate(170.428677, 271.38631)"><g><path d="M 184.453125 -61.421875 C 183.128906 -49.859375 179.757812 -39.921875 174.34375 -31.609375 C 168.925781 -23.304688 162.179688 -16.441406 154.109375 -11.015625 C 146.035156 -5.597656 137.300781 -1.597656 127.90625 0.984375 C 118.507812 3.578125 109.117188 4.875 99.734375 4.875 C 92.140625 4.875 84.519531 4.453125 76.875 3.609375 C 69.226562 2.765625 61.847656 1.082031 54.734375 -1.4375 C 47.628906 -3.96875 41.097656 -7.640625 35.140625 -12.453125 C 29.179688 -17.273438 24.148438 -23.597656 20.046875 -31.421875 C 15.953125 -39.253906 13.125 -49.015625 11.5625 -60.703125 C 10 -71.660156 9.242188 -83.582031 9.296875 -96.46875 C 9.359375 -109.363281 9.929688 -122.523438 11.015625 -135.953125 C 12.097656 -149.378906 13.484375 -162.296875 15.171875 -174.703125 C 16.492188 -176.148438 18.898438 -177.472656 22.390625 -178.671875 C 25.890625 -179.878906 30.019531 -180.785156 34.78125 -181.390625 C 39.539062 -181.992188 44.476562 -182.082031 49.59375 -181.65625 C 54.707031 -181.238281 59.523438 -180.125 64.046875 -178.3125 C 68.566406 -176.507812 72.390625 -173.921875 75.515625 -170.546875 C 78.648438 -167.171875 80.578125 -162.71875 81.296875 -157.1875 C 81.535156 -155.257812 81.6875 -151.550781 81.75 -146.0625 C 81.8125 -140.582031 81.84375 -134.078125 81.84375 -126.546875 C 81.84375 -119.023438 81.929688 -111.140625 82.109375 -102.890625 C 82.296875 -94.640625 82.597656 -86.78125 83.015625 -79.3125 C 83.441406 -71.84375 84.070312 -65.519531 84.90625 -60.34375 C 85.632812 -56.363281 87.289062 -53.226562 89.875 -50.9375 C 92.46875 -48.65625 95.390625 -47.421875 98.640625 -47.234375 C 101.890625 -47.054688 104.898438 -48.082031 107.671875 -50.3125 C 110.441406 -52.539062 112.3125 -56.125 113.28125 -61.0625 C 114.125 -65.394531 114.875 -71.054688 115.53125 -78.046875 C 116.195312 -85.035156 116.707031 -92.679688 117.0625 -100.984375 C 117.425781 -109.296875 117.578125 -117.726562 117.515625 -126.28125 C 117.460938 -134.832031 117.191406 -142.929688 116.703125 -150.578125 C 116.222656 -158.234375 115.441406 -164.769531 114.359375 -170.1875 C 116.765625 -172.59375 120.046875 -174.671875 124.203125 -176.421875 C 128.359375 -178.171875 133.023438 -179.375 138.203125 -180.03125 C 143.390625 -180.695312 148.601562 -180.632812 153.84375 -179.84375 C 159.082031 -179.0625 163.988281 -177.375 168.5625 -174.78125 C 173.132812 -172.195312 176.957031 -168.492188 180.03125 -163.671875 C 183.101562 -158.859375 185 -152.78125 185.71875 -145.4375 C 186.207031 -140.5 186.660156 -136.007812 187.078125 -131.96875 C 187.503906 -127.9375 187.804688 -123.84375 187.984375 -119.6875 C 188.160156 -115.53125 188.1875 -110.863281 188.0625 -105.6875 C 187.945312 -100.507812 187.617188 -94.367188 187.078125 -87.265625 C 186.535156 -80.160156 185.660156 -71.546875 184.453125 -61.421875 Z M 184.453125 -61.421875 "/></g></g></g></svg>