<svg xmlns="http://www.w3.org/2000/svg" xmlns:xlink="http://www.w3.org/1999/xlink" width="500" zoomAndPan="magnify" viewBox="0 0 375 374.999991" height="500" preserveAspectRatio="xMidYMid meet" version="1.0"><defs><g/></defs><path stroke-linecap="butt" transform="matrix(0.75, 0, 0, 0.75, -32.167947, 37.38623)" fill="none" stroke-linejoin="miter" d="M 233.42707 222.375666 C 236.312487 224.958999 239.749987 228.959 243.749988 234.370458 C 247.749988 239.724625 251.83853 245.573584 256.010405 251.927751 C 260.187489 258.27671 263.953114 264.334002 267.302073 270.099627 C 270.713531 275.860044 273.067698 280.59442 274.359365 284.302753 C 272.770823 292.651712 269.479156 299.563171 264.479156 305.031921 C 259.484364 310.500672 253.453113 314.292339 246.395821 316.41213 C 239.338529 318.589214 231.869779 319.026714 223.98957 317.735047 C 216.109361 316.500672 208.406235 313.323588 200.874985 308.209005 C 193.348943 303.031921 186.765609 295.797546 181.119775 286.505878 C 179.177067 283.271503 176.968733 279.771503 174.499983 276.005878 C 172.031233 272.245461 169.151024 267.74546 165.854149 262.511085 C 162.562482 257.27671 158.416649 250.807959 153.416648 243.104834 C 152.770815 242.162125 152.124982 241.219417 151.479148 240.281917 C 150.828107 239.281917 150.182273 238.370459 149.53644 237.547542 C 148.890606 237.901708 148.328106 238.073584 147.859356 238.073584 C 147.859356 240.136084 147.828106 242.42775 147.770815 244.953792 C 147.713523 247.427751 147.593731 249.953793 147.416648 252.542334 C 146.947898 262.30796 146.333315 271.479836 145.56769 280.068378 C 144.859356 288.651712 144.093731 295.917337 143.270814 301.854838 C 139.276022 306.209005 134.18748 309.354838 128.010397 311.292338 C 121.838521 313.235047 115.249979 313.766297 108.249979 312.88088 C 101.255187 312.000672 94.458311 309.589213 87.874977 305.646505 C 81.286435 301.709004 75.494768 296.120462 70.494768 288.886087 C 65.557268 281.651711 62.057267 272.568377 59.999976 261.630877 C 59.348934 258.099626 58.73435 252.099626 58.145809 243.630876 C 57.614559 235.104833 57.145809 225.110041 56.73435 213.64129 C 56.322892 202.115248 56.057267 190.057955 55.937475 177.469413 C 55.880184 164.886079 55.968725 152.651703 56.2031 140.771494 C 56.437475 128.833993 56.968725 118.193367 57.791642 108.8392 C 58.614559 99.432949 59.645809 92.313157 60.880184 87.49024 C 64.468726 84.141282 69.994768 80.995448 77.463518 78.05274 C 84.932269 75.052739 93.666644 72.552739 103.666645 70.552739 C 113.718729 68.495447 124.484355 67.083989 135.953106 66.318364 C 147.416648 65.495447 158.97394 65.526697 170.619774 66.406906 C 182.265609 67.292322 193.348943 69.172531 203.874985 72.052739 C 214.406236 74.938156 223.697903 79.110031 231.755195 84.578782 C 239.458321 89.755865 246.307279 96.401699 252.30728 104.516283 C 258.30728 112.573575 262.979156 121.542326 266.333322 131.422535 C 269.744781 141.302744 271.244781 151.479828 270.833323 161.94337 C 270.421864 172.354829 267.656239 182.500663 262.541656 192.380872 C 257.421864 202.261081 249.395821 211.229832 238.458321 219.287124 C 237.338529 220.224624 235.661445 221.255874 233.42707 222.375666 Z M 183.3229 160.708995 C 183.3229 156.886078 181.942692 153.563161 179.177067 150.740244 C 176.468733 147.917328 172.734358 146.182952 167.973941 145.537119 C 163.270816 144.891286 157.859357 146.005869 151.739565 148.891286 C 151.739565 153.891286 151.682273 157.828787 151.56769 160.708995 C 151.50519 163.594412 151.56769 167.120454 151.739565 171.297537 C 151.739565 171.766287 152.093732 172.386079 152.802065 173.146496 C 153.562482 173.854829 154.182273 174.208996 154.651023 174.208996 C 157.708315 174.208996 160.708316 174.208996 163.651024 174.208996 C 166.651024 174.208996 169.588524 173.886079 172.473941 173.235038 C 179.708317 172.120454 183.3229 167.943371 183.3229 160.708995 Z M 291.249991 240.016292 C 293.135408 230.370458 295.546866 219.578791 298.484366 207.64129 C 301.484366 195.646497 304.838533 183.29233 308.541659 170.589204 C 312.244784 157.886078 316.067701 145.568369 320.010409 133.630868 C 323.94791 121.688159 327.802076 110.80795 331.567702 100.990241 C 335.328119 91.167324 338.739577 83.287115 341.796869 77.349615 C 348.385411 75.110031 356.239578 73.052739 365.354162 71.172531 C 374.526038 69.229822 384.260414 68.141281 394.552081 67.906906 C 404.843748 67.615239 415.046874 68.938156 425.161458 71.875656 C 435.276042 74.761073 444.567709 79.906906 453.03646 87.313157 C 461.56771 94.667324 468.562502 105.016283 474.036461 118.365242 C 476.619795 124.776701 479.619795 133.011077 483.031253 143.068369 C 486.500004 153.063161 490.119795 164.208995 493.880212 176.500663 C 497.703129 188.79233 501.411463 201.438164 505.000005 214.432957 C 508.583338 227.432958 511.848964 240.136084 514.791672 252.542334 C 517.786464 264.891294 520.197922 276.125669 522.020839 286.240253 C 521.494798 290.59442 519.229172 294.886087 515.229172 299.120463 C 511.229172 303.354838 506.145838 306.969421 499.968754 309.969422 C 493.796879 312.91213 487.119795 314.854839 479.942711 315.792339 C 472.770836 316.792339 465.651044 316.235047 458.59896 314.115255 C 451.541668 312.057963 445.156251 308.000671 439.453125 301.943379 C 433.75 295.828796 429.307291 287.297545 426.135416 276.360044 C 418.546874 276.005878 410.666665 275.922544 402.489581 276.094419 C 394.317706 276.271503 386.374997 276.271503 378.671871 276.094419 C 376.557288 281.09442 374.557288 286.56317 372.677079 292.505879 C 370.848954 298.443379 369.057288 304.531921 367.291662 310.766297 C 352.531245 316.235047 339.770827 318.203797 329.01041 316.677755 C 318.244784 315.146505 309.59895 310.94338 303.072908 304.063171 C 296.604158 297.120462 292.369782 288.120462 290.369782 277.068378 C 288.369782 266.011085 288.666657 253.662126 291.249991 240.016292 Z M 387.317705 206.495456 C 392.432289 206.495456 397.406248 206.495456 402.229165 206.495456 C 407.046873 206.495456 411.958332 206.495456 416.958332 206.495456 C 414.723957 196.672539 412.40104 187.000663 409.989582 177.469413 C 407.578123 167.886079 405.255207 158.297537 403.020831 148.714203 C 402.489581 148.828786 401.755206 148.891286 400.817706 148.891286 C 398.697914 158.360037 396.463539 167.854829 394.109373 177.380871 C 391.817706 186.849622 389.552081 196.557956 387.317705 206.495456 Z M 387.317705 206.495456 " stroke="#00387b" stroke-width="13.550025" stroke-opacity="1" stroke-miterlimit="4"/><g fill="#4b99f5" fill-opacity="1"><g transform="translate(1.781269, 271.386215)"><g><path d="M 141.09375 -67.203125 C 143.269531 -65.273438 145.863281 -62.296875 148.875 -58.265625 C 151.882812 -54.234375 154.953125 -49.835938 158.078125 -45.078125 C 161.210938 -40.316406 164.046875 -35.769531 166.578125 -31.4375 C 169.109375 -27.101562 170.851562 -23.550781 171.8125 -20.78125 C 170.601562 -14.507812 168.132812 -9.328125 164.40625 -5.234375 C 160.675781 -1.140625 156.160156 1.71875 150.859375 3.34375 C 145.554688 4.96875 139.953125 5.296875 134.046875 4.328125 C 128.148438 3.367188 122.367188 0.960938 116.703125 -2.890625 C 111.046875 -6.742188 106.109375 -12.164062 101.890625 -19.15625 C 100.453125 -21.5625 98.796875 -24.175781 96.921875 -27 C 95.054688 -29.832031 92.890625 -33.207031 90.421875 -37.125 C 87.953125 -41.039062 84.851562 -45.890625 81.125 -51.671875 C 80.632812 -52.390625 80.148438 -53.109375 79.671875 -53.828125 C 79.191406 -54.554688 78.710938 -55.222656 78.234375 -55.828125 C 77.742188 -55.585938 77.320312 -55.46875 76.96875 -55.46875 C 76.96875 -53.894531 76.9375 -52.175781 76.875 -50.3125 C 76.8125 -48.445312 76.722656 -46.550781 76.609375 -44.625 C 76.242188 -37.28125 75.789062 -30.382812 75.25 -23.9375 C 74.707031 -17.488281 74.132812 -12.039062 73.53125 -7.59375 C 70.519531 -4.332031 66.695312 -1.976562 62.0625 -0.53125 C 57.425781 0.90625 52.488281 1.289062 47.25 0.625 C 42.007812 -0.03125 36.921875 -1.832031 31.984375 -4.78125 C 27.046875 -7.738281 22.707031 -11.925781 18.96875 -17.34375 C 15.238281 -22.757812 12.585938 -29.566406 11.015625 -37.765625 C 10.535156 -40.410156 10.082031 -44.925781 9.65625 -51.3125 C 9.238281 -57.695312 8.878906 -65.191406 8.578125 -73.796875 C 8.273438 -82.410156 8.09375 -91.441406 8.03125 -100.890625 C 7.976562 -110.347656 8.039062 -119.535156 8.21875 -128.453125 C 8.394531 -137.367188 8.785156 -145.347656 9.390625 -152.390625 C 9.992188 -159.441406 10.78125 -164.769531 11.75 -168.375 C 14.394531 -170.90625 18.515625 -173.285156 24.109375 -175.515625 C 29.710938 -177.742188 36.28125 -179.609375 43.8125 -181.109375 C 51.34375 -182.617188 59.410156 -183.675781 68.015625 -184.28125 C 76.628906 -184.882812 85.300781 -184.851562 94.03125 -184.1875 C 102.769531 -183.53125 111.082031 -182.113281 118.96875 -179.9375 C 126.851562 -177.769531 133.8125 -174.640625 139.84375 -170.546875 C 145.625 -166.691406 150.769531 -161.722656 155.28125 -155.640625 C 159.800781 -149.554688 163.320312 -142.8125 165.84375 -135.40625 C 168.375 -128 169.488281 -120.378906 169.1875 -112.546875 C 168.894531 -104.722656 166.820312 -97.109375 162.96875 -89.703125 C 159.113281 -82.296875 153.085938 -75.582031 144.890625 -69.5625 C 144.046875 -68.832031 142.78125 -68.046875 141.09375 -67.203125 Z M 103.515625 -113.453125 C 103.515625 -116.347656 102.488281 -118.847656 100.4375 -120.953125 C 98.394531 -123.066406 95.597656 -124.363281 92.046875 -124.84375 C 88.492188 -125.320312 84.429688 -124.476562 79.859375 -122.3125 C 79.859375 -118.570312 79.828125 -115.617188 79.765625 -113.453125 C 79.703125 -111.285156 79.734375 -108.640625 79.859375 -105.515625 C 79.859375 -105.148438 80.128906 -104.695312 80.671875 -104.15625 C 81.210938 -103.613281 81.660156 -103.34375 82.015625 -103.34375 C 84.304688 -103.34375 86.566406 -103.34375 88.796875 -103.34375 C 91.023438 -103.34375 93.222656 -103.582031 95.390625 -104.0625 C 100.804688 -104.90625 103.515625 -108.035156 103.515625 -113.453125 Z M 103.515625 -113.453125 "/></g></g></g><g fill="#4b99f5" fill-opacity="1"><g transform="translate(181.904317, 271.386215)"><g><path d="M 4.34375 -54.015625 C 5.78125 -61.242188 7.613281 -69.34375 9.84375 -78.3125 C 12.070312 -87.289062 14.570312 -96.535156 17.34375 -106.046875 C 20.113281 -115.566406 22.972656 -124.8125 25.921875 -133.78125 C 28.878906 -142.757812 31.769531 -150.921875 34.59375 -158.265625 C 37.425781 -165.609375 39.988281 -171.507812 42.28125 -175.96875 C 47.21875 -177.65625 53.117188 -179.21875 59.984375 -180.65625 C 66.847656 -182.101562 74.132812 -182.914062 81.84375 -183.09375 C 89.550781 -183.28125 97.195312 -182.289062 104.78125 -180.125 C 112.375 -177.957031 119.359375 -174.101562 125.734375 -168.5625 C 132.117188 -163.019531 137.363281 -155.25 141.46875 -145.25 C 143.394531 -140.4375 145.648438 -134.265625 148.234375 -126.734375 C 150.828125 -119.210938 153.535156 -110.84375 156.359375 -101.625 C 159.191406 -92.40625 161.960938 -82.914062 164.671875 -73.15625 C 167.390625 -63.40625 169.859375 -53.894531 172.078125 -44.625 C 174.304688 -35.351562 176.085938 -26.921875 177.421875 -19.328125 C 177.054688 -16.078125 175.367188 -12.851562 172.359375 -9.65625 C 169.347656 -6.46875 165.519531 -3.757812 160.875 -1.53125 C 156.238281 0.695312 151.238281 2.171875 145.875 2.890625 C 140.519531 3.609375 135.191406 3.1875 129.890625 1.625 C 124.597656 0.0625 119.8125 -3.003906 115.53125 -7.578125 C 111.257812 -12.160156 107.921875 -18.546875 105.515625 -26.734375 C 99.847656 -26.972656 93.941406 -27.03125 87.796875 -26.90625 C 81.660156 -26.789062 75.703125 -26.796875 69.921875 -26.921875 C 68.347656 -23.179688 66.867188 -19.082031 65.484375 -14.625 C 64.097656 -10.175781 62.742188 -5.601562 61.421875 -0.90625 C 50.347656 3.1875 40.773438 4.660156 32.703125 3.515625 C 24.628906 2.378906 18.15625 -0.773438 13.28125 -5.953125 C 8.40625 -11.140625 5.210938 -17.882812 3.703125 -26.1875 C 2.203125 -34.5 2.414062 -43.773438 4.34375 -54.015625 Z M 76.421875 -79.125 C 80.273438 -79.125 84.007812 -79.125 87.625 -79.125 C 91.238281 -79.125 94.910156 -79.125 98.640625 -79.125 C 96.953125 -86.476562 95.203125 -93.738281 93.390625 -100.90625 C 91.585938 -108.070312 89.847656 -115.265625 88.171875 -122.484375 C 87.804688 -122.367188 87.265625 -122.3125 86.546875 -122.3125 C 84.972656 -115.207031 83.3125 -108.097656 81.5625 -100.984375 C 79.820312 -93.878906 78.109375 -86.59375 76.421875 -79.125 Z M 76.421875 -79.125 "/></g></g></g></svg>