<svg xmlns="http://www.w3.org/2000/svg" xmlns:xlink="http://www.w3.org/1999/xlink" width="500" zoomAndPan="magnify" viewBox="0 0 375 374.999991" height="500" preserveAspectRatio="xMidYMid meet" version="1.0"><defs><g/></defs><path stroke-linecap="butt" transform="matrix(0.75, 0, 0, 0.75, -32.167947, 37.386238)" fill="none" stroke-linejoin="miter" d="M 251.614571 222.375656 C 254.499988 224.958989 257.937489 228.95899 261.937489 234.370448 C 265.937489 239.724615 270.026031 245.573574 274.197906 251.927741 C 278.37499 258.2767 282.140615 264.333992 285.489574 270.099617 C 288.901032 275.860034 291.255199 280.59441 292.546866 284.302743 C 290.958324 292.651702 287.666657 299.563161 282.666657 305.031911 C 277.671865 310.500662 271.640614 314.292329 264.583322 316.41212 C 257.52603 318.589204 250.05728 319.026704 242.177071 317.735037 C 234.296862 316.500662 226.593737 313.323579 219.062486 308.208995 C 211.536444 303.031911 204.95311 295.797536 199.307276 286.505868 C 197.364568 283.271493 195.156234 279.771493 192.687484 276.005868 C 190.218734 272.245451 187.338526 267.745451 184.04165 262.511075 C 180.749983 257.2767 176.60415 250.807949 171.60415 243.104824 C 170.958316 242.162116 170.312483 241.219407 169.666649 240.281907 C 169.015608 239.281907 168.369774 238.370449 167.723941 237.547532 C 167.078108 237.901699 166.515608 238.073574 166.046858 238.073574 C 166.046858 240.136074 166.015608 242.427741 165.958316 244.953782 C 165.901024 247.427741 165.781233 249.953783 165.604149 252.542325 C 165.135399 262.30795 164.520816 271.479826 163.755191 280.068368 C 163.046857 288.651702 162.281232 295.917327 161.458316 301.854828 C 157.463524 306.208995 152.374982 309.354828 146.197898 311.292328 C 140.026022 313.235037 133.43748 313.766287 126.43748 312.88087 C 119.442688 312.000662 112.645812 309.589203 106.062479 305.646495 C 99.473936 301.708994 93.682269 296.120452 88.682269 288.886077 C 83.744769 281.651701 80.244769 272.568368 78.187477 261.630867 C 77.536435 258.099617 76.921852 252.099616 76.33331 243.630866 C 75.80206 235.104823 75.33331 225.110031 74.921852 213.64128 C 74.510393 202.115238 74.244768 190.057945 74.124976 177.469403 C 74.067685 164.886069 74.156226 152.651693 74.390602 140.771484 C 74.624977 128.833983 75.156227 118.193357 75.979143 108.83919 C 76.80206 99.432939 77.83331 92.313147 79.067685 87.49023 C 82.656227 84.141272 88.182269 80.995438 95.65102 78.05273 C 103.11977 75.05273 111.854146 72.552729 121.854146 70.552729 C 131.90623 68.495437 142.671856 67.083979 154.140607 66.318354 C 165.604149 65.495437 177.161442 65.526687 188.807276 66.406896 C 200.45311 67.292312 211.536444 69.172521 222.062486 72.052729 C 232.593737 74.938146 241.885404 79.110021 249.942696 84.578772 C 257.645822 89.755856 264.494781 96.401689 270.494781 104.516273 C 276.494781 112.573565 281.166657 121.542316 284.520824 131.422525 C 287.932282 141.302734 289.432282 151.479818 289.020824 161.94336 C 288.609366 172.354819 285.84374 182.500653 280.729157 192.380862 C 275.609365 202.261071 267.583323 211.229822 256.645822 219.287114 C 255.52603 220.224614 253.848947 221.255864 251.614571 222.375656 Z M 201.510402 160.708985 C 201.510402 156.886068 200.130193 153.563151 197.364568 150.740235 C 194.656234 147.917318 190.921859 146.182943 186.161442 145.537109 C 181.458317 144.891276 176.046858 146.005859 169.927066 148.891276 C 169.927066 153.891276 169.869774 157.828777 169.755191 160.708985 C 169.692691 163.594402 169.755191 167.120444 169.927066 171.297528 C 169.927066 171.766278 170.281233 172.386069 170.989566 173.146486 C 171.749983 173.854819 172.369775 174.208986 172.838525 174.208986 C 175.895817 174.208986 178.895817 174.208986 181.838525 174.208986 C 184.838525 174.208986 187.776026 173.886069 190.661442 173.235028 C 197.895818 172.120444 201.510402 167.943361 201.510402 160.708985 Z M 316.848951 256.333991 C 316.557284 250.865241 316.317701 243.516282 316.145826 234.281907 C 315.968742 225.047531 315.880201 214.698572 315.880201 203.229821 C 315.880201 191.761071 315.994784 179.880861 316.234367 167.589194 C 316.468742 155.302735 316.791659 143.214192 317.203117 131.333983 C 317.614576 119.453774 318.083326 108.458982 318.614576 98.344398 C 319.203118 88.224605 319.906243 79.787105 320.729159 73.026688 C 328.72916 72.261063 338.463536 71.672521 349.932286 71.261063 C 361.458329 70.849604 373.807288 70.552729 386.979164 70.375646 C 400.156248 70.203771 413.359374 70.261063 426.588541 70.552729 C 439.822917 70.792313 452.34896 71.141271 464.166669 71.615229 C 475.989586 72.083979 486.13542 72.641271 494.604171 73.287104 C 496.072921 75.349605 497.369796 78.55273 498.484379 82.906897 C 499.604171 87.255855 500.192713 92.167314 500.250004 97.636064 C 500.364588 103.104815 499.692713 108.662107 498.218754 114.30794 C 496.807296 119.896482 494.281254 125.099608 490.635421 129.922525 C 487.046879 134.745442 482.078128 138.599609 475.723961 141.479817 C 469.375002 144.360026 461.375002 145.802734 451.729168 145.802734 C 448.557293 145.802734 445.583334 145.802734 442.822917 145.802734 C 440.114584 145.802734 437.057292 145.802734 433.645833 145.802734 C 430.296875 145.802734 426.119791 145.802734 421.119791 145.802734 C 416.182291 145.802734 409.859374 145.802734 402.156248 145.802734 C 402.156248 147.745443 402.156248 149.714193 402.156248 151.714193 C 402.156248 153.714193 402.156248 155.917318 402.156248 158.328777 C 405.68229 158.328777 410.536457 158.240235 416.708332 158.063152 C 422.885416 157.886068 429.588541 157.797527 436.822917 157.797527 C 444.057292 157.797527 451.171876 158.125652 458.171877 158.771485 C 465.166669 159.417318 471.223961 160.563152 476.343753 162.208985 C 481.16667 172.797528 483.16667 182.677737 482.343753 191.849612 C 481.578128 200.964196 478.020836 208.432947 471.666669 214.255864 C 465.317711 220.021489 456.197918 223.224614 444.322917 223.870448 C 440.260417 223.990239 436.46875 224.047531 432.942708 224.047531 C 429.411458 224.047531 425.322916 224.021489 420.677083 223.958989 C 416.031249 223.901698 409.947915 223.870448 402.416665 223.870448 C 402.416665 226.401698 402.416665 228.844406 402.416665 231.193365 C 402.416665 233.49024 402.416665 235.92774 402.416665 238.516282 C 403.18229 238.516282 404.036456 238.516282 404.979165 238.516282 C 405.973957 238.516282 406.947915 238.516282 407.885415 238.516282 C 420.765624 238.516282 433.645833 238.516282 446.526043 238.516282 C 459.463543 238.516282 472.375003 238.516282 485.250003 238.516282 C 489.901045 244.927741 492.869796 252.042325 494.161462 259.865242 C 495.458337 267.625659 494.895837 275.214201 492.484379 282.62566 C 490.07292 289.974619 485.489587 296.354827 478.723961 301.766286 C 472.020836 307.120453 462.963544 310.531912 451.552085 312.000662 C 447.494793 312.469412 442.057292 312.91212 435.234375 313.323579 C 428.411458 313.735037 420.916666 313.969412 412.739582 314.026704 C 404.562498 314.146495 396.421873 314.115245 388.30208 313.938162 C 380.187497 313.766287 372.864579 313.44337 366.338537 312.969412 C 359.869787 312.500662 354.869787 311.854828 351.343745 311.031912 C 340.109369 308.146495 331.786452 302.412119 326.374993 293.828786 C 321.026034 285.240243 317.848951 272.745451 316.848951 256.333991 Z M 316.848951 256.333991 " stroke="#803a00" stroke-width="13.550025" stroke-opacity="1" stroke-miterlimit="4"/><g fill="#ff7c10" fill-opacity="1"><g transform="translate(15.421893, 271.386222)"><g><path d="M 141.09375 -67.203125 C 143.269531 -65.273438 145.863281 -62.296875 148.875 -58.265625 C 151.882812 -54.234375 154.953125 -49.835938 158.078125 -45.078125 C 161.210938 -40.316406 164.046875 -35.769531 166.578125 -31.4375 C 169.109375 -27.101562 170.851562 -23.550781 171.8125 -20.78125 C 170.601562 -14.507812 168.132812 -9.328125 164.40625 -5.234375 C 160.675781 -1.140625 156.160156 1.71875 150.859375 3.34375 C 145.554688 4.96875 139.953125 5.296875 134.046875 4.328125 C 128.148438 3.367188 122.367188 0.960938 116.703125 -2.890625 C 111.046875 -6.742188 106.109375 -12.164062 101.890625 -19.15625 C 100.453125 -21.5625 98.796875 -24.175781 96.921875 -27 C 95.054688 -29.832031 92.890625 -33.207031 90.421875 -37.125 C 87.953125 -41.039062 84.851562 -45.890625 81.125 -51.671875 C 80.632812 -52.390625 80.148438 -53.109375 79.671875 -53.828125 C 79.191406 -54.554688 78.710938 -55.222656 78.234375 -55.828125 C 77.742188 -55.585938 77.320312 -55.46875 76.96875 -55.46875 C 76.96875 -53.894531 76.9375 -52.175781 76.875 -50.3125 C 76.8125 -48.445312 76.722656 -46.550781 76.609375 -44.625 C 76.242188 -37.28125 75.789062 -30.382812 75.25 -23.9375 C 74.707031 -17.488281 74.132812 -12.039062 73.53125 -7.59375 C 70.519531 -4.332031 66.695312 -1.976562 62.0625 -0.53125 C 57.425781 0.90625 52.488281 1.289062 47.25 0.625 C 42.007812 -0.03125 36.921875 -1.832031 31.984375 -4.78125 C 27.046875 -7.738281 22.707031 -11.925781 18.96875 -17.34375 C 15.238281 -22.757812 12.585938 -29.566406 11.015625 -37.765625 C 10.535156 -40.410156 10.082031 -44.925781 9.65625 -51.3125 C 9.238281 -57.695312 8.878906 -65.191406 8.578125 -73.796875 C 8.273438 -82.410156 8.09375 -91.441406 8.03125 -100.890625 C 7.976562 -110.347656 8.039062 -119.535156 8.21875 -128.453125 C 8.394531 -137.367188 8.785156 -145.347656 9.390625 -152.390625 C 9.992188 -159.441406 10.78125 -164.769531 11.75 -168.375 C 14.394531 -170.90625 18.515625 -173.285156 24.109375 -175.515625 C 29.710938 -177.742188 36.28125 -179.609375 43.8125 -181.109375 C 51.34375 -182.617188 59.410156 -183.675781 68.015625 -184.28125 C 76.628906 -184.882812 85.300781 -184.851562 94.03125 -184.1875 C 102.769531 -183.53125 111.082031 -182.113281 118.96875 -179.9375 C 126.851562 -177.769531 133.8125 -174.640625 139.84375 -170.546875 C 145.625 -166.691406 150.769531 -161.722656 155.28125 -155.640625 C 159.800781 -149.554688 163.320312 -142.8125 165.84375 -135.40625 C 168.375 -128 169.488281 -120.378906 169.1875 -112.546875 C 168.894531 -104.722656 166.820312 -97.109375 162.96875 -89.703125 C 159.113281 -82.296875 153.085938 -75.582031 144.890625 -69.5625 C 144.046875 -68.832031 142.78125 -68.046875 141.09375 -67.203125 Z M 103.515625 -113.453125 C 103.515625 -116.347656 102.488281 -118.847656 100.4375 -120.953125 C 98.394531 -123.066406 95.597656 -124.363281 92.046875 -124.84375 C 88.492188 -125.320312 84.429688 -124.476562 79.859375 -122.3125 C 79.859375 -118.570312 79.828125 -115.617188 79.765625 -113.453125 C 79.703125 -111.285156 79.734375 -108.640625 79.859375 -105.515625 C 79.859375 -105.148438 80.128906 -104.695312 80.671875 -104.15625 C 81.210938 -103.613281 81.660156 -103.34375 82.015625 -103.34375 C 84.304688 -103.34375 86.566406 -103.34375 88.796875 -103.34375 C 91.023438 -103.34375 93.222656 -103.582031 95.390625 -104.0625 C 100.804688 -104.90625 103.515625 -108.035156 103.515625 -113.453125 Z M 103.515625 -113.453125 "/></g></g></g><g fill="#ff7c10" fill-opacity="1"><g transform="translate(195.544941, 271.386222)"><g><path d="M 9.9375 -41.734375 C 9.695312 -45.828125 9.515625 -51.335938 9.390625 -58.265625 C 9.273438 -65.191406 9.21875 -72.957031 9.21875 -81.5625 C 9.21875 -90.175781 9.304688 -99.085938 9.484375 -108.296875 C 9.660156 -117.515625 9.898438 -126.582031 10.203125 -135.5 C 10.503906 -144.414062 10.863281 -152.664062 11.28125 -160.25 C 11.707031 -167.84375 12.222656 -174.164062 12.828125 -179.21875 C 18.847656 -179.820312 26.164062 -180.273438 34.78125 -180.578125 C 43.394531 -180.878906 52.640625 -181.085938 62.515625 -181.203125 C 72.390625 -181.328125 82.296875 -181.296875 92.234375 -181.109375 C 102.171875 -180.929688 111.5625 -180.660156 120.40625 -180.296875 C 129.257812 -179.941406 136.878906 -179.523438 143.265625 -179.046875 C 144.347656 -177.472656 145.3125 -175.0625 146.15625 -171.8125 C 147 -168.5625 147.453125 -164.890625 147.515625 -160.796875 C 147.578125 -156.703125 147.066406 -152.546875 145.984375 -148.328125 C 144.898438 -144.109375 143 -140.191406 140.28125 -136.578125 C 137.570312 -132.960938 133.835938 -130.070312 129.078125 -127.90625 C 124.328125 -125.738281 118.335938 -124.65625 111.109375 -124.65625 C 108.703125 -124.65625 106.472656 -124.65625 104.421875 -124.65625 C 102.378906 -124.65625 100.09375 -124.65625 97.5625 -124.65625 C 95.03125 -124.65625 91.894531 -124.65625 88.15625 -124.65625 C 84.425781 -124.65625 79.671875 -124.65625 73.890625 -124.65625 C 73.890625 -123.207031 73.890625 -121.726562 73.890625 -120.21875 C 73.890625 -118.71875 73.890625 -117.066406 73.890625 -115.265625 C 76.546875 -115.265625 80.191406 -115.320312 84.828125 -115.4375 C 89.460938 -115.5625 94.488281 -115.625 99.90625 -115.625 C 105.320312 -115.625 110.648438 -115.382812 115.890625 -114.90625 C 121.128906 -114.425781 125.675781 -113.582031 129.53125 -112.375 C 133.144531 -104.425781 134.648438 -97.019531 134.046875 -90.15625 C 133.453125 -83.289062 130.773438 -77.6875 126.015625 -73.34375 C 121.253906 -69.007812 114.421875 -66.601562 105.515625 -66.125 C 102.503906 -66 99.671875 -65.9375 97.015625 -65.9375 C 94.367188 -65.9375 91.296875 -65.96875 87.796875 -66.03125 C 84.304688 -66.09375 79.734375 -66.125 74.078125 -66.125 C 74.078125 -64.195312 74.078125 -62.359375 74.078125 -60.609375 C 74.078125 -58.867188 74.078125 -57.035156 74.078125 -55.109375 C 74.679688 -55.109375 75.34375 -55.109375 76.0625 -55.109375 C 76.78125 -55.109375 77.503906 -55.109375 78.234375 -55.109375 C 87.867188 -55.109375 97.53125 -55.109375 107.21875 -55.109375 C 116.914062 -55.109375 126.582031 -55.109375 136.21875 -55.109375 C 139.71875 -50.285156 141.945312 -44.953125 142.90625 -39.109375 C 143.875 -33.273438 143.453125 -27.585938 141.640625 -22.046875 C 139.835938 -16.503906 136.40625 -11.710938 131.34375 -7.671875 C 126.28125 -3.640625 119.472656 -1.082031 110.921875 0 C 107.910156 0.363281 103.847656 0.695312 98.734375 1 C 93.617188 1.300781 87.988281 1.476562 81.84375 1.53125 C 75.695312 1.59375 69.582031 1.5625 63.5 1.4375 C 57.414062 1.320312 51.9375 1.082031 47.0625 0.71875 C 42.1875 0.363281 38.421875 -0.113281 35.765625 -0.71875 C 27.335938 -2.882812 21.101562 -7.191406 17.0625 -13.640625 C 13.03125 -20.085938 10.65625 -29.453125 9.9375 -41.734375 Z M 9.9375 -41.734375 "/></g></g></g></svg>