<svg xmlns="http://www.w3.org/2000/svg" xmlns:xlink="http://www.w3.org/1999/xlink" width="500" zoomAndPan="magnify" viewBox="0 0 375 374.999991" height="500" preserveAspectRatio="xMidYMid meet" version="1.0"><defs><g/></defs><path stroke-linecap="butt" transform="matrix(0.75, 0, 0, 0.75, 58.108112, 2.967539)" fill="none" stroke-linejoin="miter" d="M 170.345445 84.93912 C 191.256905 84.715162 209.501698 87.074537 225.090241 92.022454 C 240.7517 96.892246 254.095451 103.22558 265.111077 111.017247 C 276.199619 118.814123 285.381911 127.090165 292.647537 135.860999 C 299.918371 144.626624 305.652746 152.986 309.850663 160.928709 C 314.043371 168.798501 317.07983 175.168293 318.95483 180.038085 C 326.074622 199.673503 330.308998 219.491213 331.657956 239.501631 C 333.006914 259.433924 330.605873 279.522467 324.460039 299.751635 C 307.673579 353.55893 271.965244 386.90789 217.335032 399.798516 C 195.225655 405.121433 173.418362 406.803725 151.913152 404.855808 C 130.402734 402.907891 109.423566 396.652683 88.965232 386.084974 C 69.553772 376.043306 54.043354 363.001639 42.423562 346.965179 C 30.887103 330.855803 22.793352 312.26726 18.147519 291.209967 C 15.074602 277.871425 13.272518 264.272466 12.751685 250.407881 C 12.225643 236.465172 13.012102 222.939129 15.11106 209.824545 C 17.282935 196.709961 20.845436 184.944335 25.788144 174.527668 C 30.657936 163.663084 36.99127 152.986 44.788145 142.491208 C 52.579813 131.928707 62.210022 122.298498 73.673564 113.605789 C 85.142315 104.91308 98.855857 97.980788 114.8194 92.808913 C 130.777734 87.564121 149.288152 84.93912 170.345445 84.93912 Z M 171.92357 194.762044 C 164.350653 194.762044 157.345444 196.861003 150.902736 201.05892 C 144.454819 205.256837 139.361068 211.512045 135.611068 219.829754 C 131.939193 228.074546 130.517318 238.340172 131.340234 250.63184 C 132.16836 262.548507 134.866276 271.991216 139.433985 278.959966 C 144.079819 285.850592 149.512111 290.798509 155.736069 293.798509 C 162.027736 296.793301 167.835029 298.069343 173.157946 297.616218 C 178.626696 297.241218 184.173571 295.480801 189.793363 292.334967 C 195.49128 289.111009 200.324614 284.017258 204.293364 277.048508 C 208.267323 270.079758 210.553781 260.861007 211.15274 249.392256 C 211.975656 237.777672 210.59024 227.923505 206.991281 219.829754 C 203.470448 211.736004 198.564197 205.553712 192.267322 201.282878 C 186.048571 196.939128 179.267321 194.762044 171.92357 194.762044 Z M 171.92357 194.762044 " stroke="#2b0080" stroke-width="17.266237" stroke-opacity="1" stroke-miterlimit="4"/><g fill="#8c52ff" fill-opacity="1"><g transform="translate(58.565143, 301.467519)"><g><path d="M 127.3125 -234.828125 C 142.96875 -234.972656 156.664062 -233.203125 168.40625 -229.515625 C 180.144531 -225.835938 190.15625 -221.082031 198.4375 -215.25 C 206.726562 -209.414062 213.597656 -203.195312 219.046875 -196.59375 C 224.492188 -190 228.789062 -183.75 231.9375 -177.84375 C 235.09375 -171.9375 237.359375 -167.140625 238.734375 -163.453125 C 244.109375 -148.722656 247.289062 -133.875 248.28125 -118.90625 C 249.28125 -103.945312 247.476562 -88.867188 242.875 -73.671875 C 230.289062 -33.304688 203.507812 -8.289062 162.53125 1.375 C 145.957031 5.363281 129.613281 6.628906 113.5 5.171875 C 97.382812 3.722656 81.648438 -0.992188 66.296875 -8.984375 C 51.722656 -16.503906 40.097656 -26.285156 31.421875 -38.328125 C 22.753906 -50.378906 16.65625 -64.304688 13.125 -80.109375 C 10.820312 -90.085938 9.476562 -100.296875 9.09375 -110.734375 C 8.707031 -121.171875 9.320312 -131.300781 10.9375 -141.125 C 12.550781 -150.945312 15.195312 -159.769531 18.875 -167.59375 C 22.5625 -175.726562 27.320312 -183.75 33.15625 -191.65625 C 38.988281 -199.5625 46.203125 -206.773438 54.796875 -213.296875 C 63.390625 -219.816406 73.671875 -225.035156 85.640625 -228.953125 C 97.609375 -232.867188 111.5 -234.828125 127.3125 -234.828125 Z M 128.46875 -152.40625 C 122.78125 -152.40625 117.519531 -150.832031 112.6875 -147.6875 C 107.851562 -144.539062 104.054688 -139.859375 101.296875 -133.640625 C 98.535156 -127.421875 97.460938 -119.707031 98.078125 -110.5 C 98.691406 -101.601562 100.722656 -94.546875 104.171875 -89.328125 C 107.628906 -84.109375 111.695312 -80.382812 116.375 -78.15625 C 121.050781 -75.9375 125.390625 -74.976562 129.390625 -75.28125 C 133.523438 -75.582031 137.703125 -76.921875 141.921875 -79.296875 C 146.148438 -81.679688 149.757812 -85.484375 152.75 -90.703125 C 155.738281 -95.921875 157.46875 -102.828125 157.9375 -111.421875 C 158.539062 -120.171875 157.5 -127.578125 154.8125 -133.640625 C 152.132812 -139.703125 148.453125 -144.34375 143.765625 -147.5625 C 139.085938 -150.789062 133.988281 -152.40625 128.46875 -152.40625 Z M 128.46875 -152.40625 "/></g></g></g></svg>