<svg xmlns="http://www.w3.org/2000/svg" xmlns:xlink="http://www.w3.org/1999/xlink" width="500" zoomAndPan="magnify" viewBox="0 0 375 374.999991" height="500" preserveAspectRatio="xMidYMid meet" version="1.0"><defs><g/></defs><path stroke-linecap="butt" transform="matrix(0.75, 0, 0, 0.75, -32.167947, 37.386209)" fill="none" stroke-linejoin="miter" d="M 295.458324 222.375695 C 298.343741 224.959028 301.781241 228.959029 305.781242 234.370487 C 309.781242 239.724654 313.869784 245.573613 318.041659 251.92778 C 322.218743 258.276739 325.984368 264.334031 329.333327 270.099656 C 332.744785 275.860073 335.098952 280.594449 336.390619 284.302782 C 334.802077 292.651741 331.51041 299.5632 326.51041 305.03195 C 321.515618 310.500701 315.484367 314.292368 308.427075 316.412159 C 301.369783 318.589243 293.901033 319.026743 286.020824 317.735076 C 278.140615 316.500701 270.437489 313.323618 262.906239 308.209034 C 255.380197 303.03195 248.796863 295.797575 243.151029 286.505907 C 241.208321 283.271532 238.999987 279.771532 236.531237 276.005907 C 234.062487 272.24549 231.182278 267.74549 227.885403 262.511114 C 224.593736 257.276739 220.447903 250.807988 215.447902 243.104863 C 214.802069 242.162155 214.156236 241.219446 213.510402 240.281946 C 212.859361 239.281946 212.213527 238.370488 211.567694 237.547571 C 210.92186 237.896529 210.35936 238.073613 209.89061 238.073613 C 209.89061 240.136113 209.85936 242.42778 209.802069 244.953821 C 209.744777 247.42778 209.624985 249.953822 209.447902 252.542364 C 208.979152 262.302781 208.364569 271.479865 207.598944 280.068407 C 206.89061 288.651741 206.124985 295.917366 205.302068 301.854867 C 201.307277 306.209034 196.218735 309.354867 190.041651 311.292367 C 183.869775 313.235076 177.281233 313.766326 170.281233 312.880909 C 163.286441 312.000701 156.489565 309.589242 149.906231 305.646534 C 143.317689 301.709033 137.526022 296.120491 132.526022 288.886116 C 127.588522 281.65174 124.088521 272.568407 122.03123 261.630906 C 121.380188 258.099656 120.765605 252.099655 120.177063 243.630905 C 119.645813 235.104862 119.177063 225.11007 118.765604 213.641319 C 118.354146 202.115277 118.088521 190.057984 117.968729 177.469442 C 117.911438 164.886108 117.999979 152.651732 118.234354 140.771523 C 118.468729 128.834022 118.999979 118.193396 119.822896 108.839229 C 120.645813 99.432979 121.677063 92.313186 122.911438 87.490269 C 126.49998 84.141311 132.026022 80.995477 139.494772 78.052769 C 146.963523 75.052769 155.697899 72.552768 165.697899 70.552768 C 175.749983 68.495476 186.515609 67.084018 197.98436 66.318393 C 209.447902 65.495476 221.005194 65.526726 232.651029 66.406935 C 244.296863 67.292351 255.380197 69.17256 265.906239 72.052768 C 276.43749 74.938185 285.729157 79.110061 293.786449 84.578811 C 301.489575 89.755895 308.338534 96.401728 314.338534 104.516312 C 320.338534 112.573604 325.01041 121.542355 328.364577 131.422564 C 331.776035 141.302773 333.276035 151.479857 332.864577 161.943399 C 332.453118 172.354858 329.687493 182.500692 324.57291 192.380901 C 319.453118 202.26111 311.427075 211.229861 300.489575 219.287153 C 299.369783 220.224653 297.6927 221.255903 295.458324 222.375695 Z M 245.354154 160.709024 C 245.354154 156.886107 243.973946 153.56319 241.208321 150.740274 C 238.499987 147.917357 234.765612 146.182982 230.005195 145.537148 C 225.30207 144.891315 219.890611 146.005898 213.770819 148.891315 C 213.770819 153.891315 213.713527 157.828816 213.598944 160.709024 C 213.536444 163.594441 213.598944 167.120483 213.770819 171.297567 C 213.770819 171.766317 214.124986 172.386108 214.833319 173.146525 C 215.593736 173.854858 216.213527 174.209025 216.682278 174.209025 C 219.739569 174.209025 222.73957 174.209025 225.682278 174.209025 C 228.682278 174.209025 231.619778 173.886108 234.505195 173.235067 C 241.739571 172.120483 245.354154 167.9434 245.354154 160.709024 Z M 446.437501 118.365271 C 447.260418 123.130897 447.880209 130.068397 448.291668 139.188189 C 448.703126 148.245482 448.937501 158.651732 448.994793 170.41215 C 449.057293 182.115276 448.994793 194.318401 448.822918 207.021527 C 448.703126 219.667361 448.380209 232.193404 447.848959 244.604863 C 447.380209 256.953822 446.822918 268.302781 446.171876 278.656949 C 445.583334 289.005908 444.791667 297.5632 443.791667 304.323617 C 439.791667 308.620492 434.708334 311.735076 428.53125 313.677784 C 422.354166 315.615284 415.770832 316.146534 408.770832 315.266326 C 401.770831 314.380909 394.979164 311.969451 388.390622 308.031951 C 381.807288 304.089242 375.984371 298.474658 370.927079 291.182991 C 365.869787 283.891324 362.312495 274.860073 360.249995 264.099656 C 359.604162 261.042364 359.01562 255.953822 358.489578 248.839238 C 358.01562 241.662155 357.57812 233.224654 357.166662 223.521528 C 356.812495 213.755903 356.54687 203.26111 356.369787 192.026735 C 356.192703 180.792359 356.135412 169.531941 356.192703 158.240274 C 356.312495 146.891315 356.51562 136.068398 356.812495 125.77673 C 357.166662 115.485063 357.692703 106.370479 358.401037 98.432978 C 359.166662 90.49027 360.104162 84.432978 361.223954 80.255894 C 365.692704 76.261102 371.161454 73.229852 377.630205 71.17256 C 384.156247 69.052768 391.041664 68.17256 398.270831 68.526726 C 405.505207 68.818393 412.447915 70.729852 419.093749 74.261102 C 425.796875 77.787144 431.588542 83.141311 436.46875 90.313186 C 441.348959 97.432978 444.671876 106.781937 446.437501 118.365271 Z M 446.437501 118.365271 " stroke="#7c002c" stroke-width="13.550025" stroke-opacity="1" stroke-miterlimit="4"/><g fill="#f87ca8" fill-opacity="1"><g transform="translate(48.304703, 271.386193)"><g><path d="M 141.09375 -67.203125 C 143.269531 -65.273438 145.863281 -62.296875 148.875 -58.265625 C 151.882812 -54.234375 154.953125 -49.835938 158.078125 -45.078125 C 161.210938 -40.316406 164.046875 -35.769531 166.578125 -31.4375 C 169.109375 -27.101562 170.851562 -23.550781 171.8125 -20.78125 C 170.601562 -14.507812 168.132812 -9.328125 164.40625 -5.234375 C 160.675781 -1.140625 156.160156 1.71875 150.859375 3.34375 C 145.554688 4.96875 139.953125 5.296875 134.046875 4.328125 C 128.148438 3.367188 122.367188 0.960938 116.703125 -2.890625 C 111.046875 -6.742188 106.109375 -12.164062 101.890625 -19.15625 C 100.453125 -21.5625 98.796875 -24.175781 96.921875 -27 C 95.054688 -29.832031 92.890625 -33.207031 90.421875 -37.125 C 87.953125 -41.039062 84.851562 -45.890625 81.125 -51.671875 C 80.632812 -52.390625 80.148438 -53.109375 79.671875 -53.828125 C 79.191406 -54.554688 78.710938 -55.222656 78.234375 -55.828125 C 77.742188 -55.585938 77.320312 -55.46875 76.96875 -55.46875 C 76.96875 -53.894531 76.9375 -52.175781 76.875 -50.3125 C 76.8125 -48.445312 76.722656 -46.550781 76.609375 -44.625 C 76.242188 -37.28125 75.789062 -30.382812 75.25 -23.9375 C 74.707031 -17.488281 74.132812 -12.039062 73.53125 -7.59375 C 70.519531 -4.332031 66.695312 -1.976562 62.0625 -0.53125 C 57.425781 0.90625 52.488281 1.289062 47.25 0.625 C 42.007812 -0.03125 36.921875 -1.832031 31.984375 -4.78125 C 27.046875 -7.738281 22.707031 -11.925781 18.96875 -17.34375 C 15.238281 -22.757812 12.585938 -29.566406 11.015625 -37.765625 C 10.535156 -40.410156 10.082031 -44.925781 9.65625 -51.3125 C 9.238281 -57.695312 8.878906 -65.191406 8.578125 -73.796875 C 8.273438 -82.410156 8.09375 -91.441406 8.03125 -100.890625 C 7.976562 -110.347656 8.039062 -119.535156 8.21875 -128.453125 C 8.394531 -137.367188 8.785156 -145.347656 9.390625 -152.390625 C 9.992188 -159.441406 10.78125 -164.769531 11.75 -168.375 C 14.394531 -170.90625 18.515625 -173.285156 24.109375 -175.515625 C 29.710938 -177.742188 36.28125 -179.609375 43.8125 -181.109375 C 51.34375 -182.617188 59.410156 -183.675781 68.015625 -184.28125 C 76.628906 -184.882812 85.300781 -184.851562 94.03125 -184.1875 C 102.769531 -183.53125 111.082031 -182.113281 118.96875 -179.9375 C 126.851562 -177.769531 133.8125 -174.640625 139.84375 -170.546875 C 145.625 -166.691406 150.769531 -161.722656 155.28125 -155.640625 C 159.800781 -149.554688 163.320312 -142.8125 165.84375 -135.40625 C 168.375 -128 169.488281 -120.378906 169.1875 -112.546875 C 168.894531 -104.722656 166.820312 -97.109375 162.96875 -89.703125 C 159.113281 -82.296875 153.085938 -75.582031 144.890625 -69.5625 C 144.046875 -68.832031 142.78125 -68.046875 141.09375 -67.203125 Z M 103.515625 -113.453125 C 103.515625 -116.347656 102.488281 -118.847656 100.4375 -120.953125 C 98.394531 -123.066406 95.597656 -124.363281 92.046875 -124.84375 C 88.492188 -125.320312 84.429688 -124.476562 79.859375 -122.3125 C 79.859375 -118.570312 79.828125 -115.617188 79.765625 -113.453125 C 79.703125 -111.285156 79.734375 -108.640625 79.859375 -105.515625 C 79.859375 -105.148438 80.128906 -104.695312 80.671875 -104.15625 C 81.210938 -103.613281 81.660156 -103.34375 82.015625 -103.34375 C 84.304688 -103.34375 86.566406 -103.34375 88.796875 -103.34375 C 91.023438 -103.34375 93.222656 -103.582031 95.390625 -104.0625 C 100.804688 -104.90625 103.515625 -108.035156 103.515625 -113.453125 Z M 103.515625 -113.453125 "/></g></g></g><g fill="#f87ca8" fill-opacity="1"><g transform="translate(228.427752, 271.386193)"><g><path d="M 74.25 -145.25 C 74.851562 -141.644531 75.304688 -136.4375 75.609375 -129.625 C 75.910156 -122.820312 76.085938 -115.023438 76.140625 -106.234375 C 76.203125 -97.441406 76.171875 -88.285156 76.046875 -78.765625 C 75.929688 -69.253906 75.691406 -59.859375 75.328125 -50.578125 C 74.972656 -41.304688 74.550781 -32.785156 74.0625 -25.015625 C 73.582031 -17.253906 72.984375 -10.84375 72.265625 -5.78125 C 69.253906 -2.53125 65.429688 -0.179688 60.796875 1.265625 C 56.160156 2.710938 51.222656 3.101562 45.984375 2.4375 C 40.742188 1.78125 35.65625 -0.0195312 30.71875 -2.96875 C 25.78125 -5.925781 21.410156 -10.144531 17.609375 -15.625 C 13.816406 -21.101562 11.140625 -27.878906 9.578125 -35.953125 C 9.097656 -38.242188 8.675781 -42.066406 8.3125 -47.421875 C 7.945312 -52.785156 7.613281 -59.109375 7.3125 -66.390625 C 7.007812 -73.679688 6.796875 -81.539062 6.671875 -89.96875 C 6.554688 -98.40625 6.53125 -106.867188 6.59375 -115.359375 C 6.65625 -123.847656 6.804688 -131.945312 7.046875 -139.65625 C 7.285156 -147.363281 7.675781 -154.195312 8.21875 -160.15625 C 8.757812 -166.125 9.453125 -170.671875 10.296875 -173.796875 C 13.671875 -176.804688 17.796875 -179.09375 22.671875 -180.65625 C 27.546875 -182.226562 32.691406 -182.894531 38.109375 -182.65625 C 43.535156 -182.414062 48.75 -180.96875 53.75 -178.3125 C 58.75 -175.664062 63.082031 -171.660156 66.75 -166.296875 C 70.425781 -160.941406 72.925781 -153.925781 74.25 -145.25 Z M 74.25 -145.25 "/></g></g></g></svg>