<svg xmlns="http://www.w3.org/2000/svg" xmlns:xlink="http://www.w3.org/1999/xlink" width="500" zoomAndPan="magnify" viewBox="0 0 375 374.999991" height="500" preserveAspectRatio="xMidYMid meet" version="1.0"><defs><g/></defs><path stroke-linecap="butt" transform="matrix(0.75, 0, 0, 0.75, -17.695094, 44.900505)" fill="none" stroke-linejoin="miter" d="M 222.317432 207.992049 C 225.015349 210.419132 228.239308 214.169132 231.989308 219.236841 C 235.739308 224.252466 239.567433 229.74205 243.4841 235.695175 C 247.395559 241.648301 250.926809 247.325385 254.067434 252.726427 C 257.265351 258.127469 259.468476 262.564969 260.682018 266.038927 C 259.192435 273.867053 256.103893 280.341012 251.421601 285.466012 C 246.734101 290.596221 241.083058 294.148304 234.468475 296.132679 C 227.853891 298.174346 220.853891 298.585805 213.468473 297.372263 C 206.083056 296.216013 198.864306 293.242054 191.807014 288.445179 C 184.749721 283.59622 178.577846 276.81497 173.286179 268.106636 C 171.468471 265.075386 169.400762 261.794135 167.083054 258.262885 C 164.770553 254.736843 162.067428 250.518093 158.978886 245.617051 C 155.895553 240.710801 152.010136 234.643092 147.322636 227.424342 C 146.718469 226.544133 146.109094 225.658716 145.504927 224.778508 C 144.895552 223.841008 144.291385 222.986841 143.68201 222.216008 C 143.077844 222.544133 142.55701 222.7108 142.114302 222.7108 C 142.114302 224.643091 142.08826 226.788925 142.030969 229.158717 C 141.973677 231.476425 141.864302 233.846217 141.697635 236.2733 C 141.260135 245.424343 140.68201 254.023302 139.96326 262.070177 C 139.301802 270.117053 138.58826 276.924345 137.812218 282.492053 C 134.067426 286.570179 129.296593 289.518096 123.510134 291.341012 C 117.723675 293.158721 111.546592 293.653513 104.9893 292.825387 C 98.426799 292.002471 92.062215 289.742054 85.89034 286.049345 C 79.713256 282.351428 74.286173 277.117053 69.598672 270.335803 C 64.968464 263.554552 61.692422 255.038927 59.76013 244.788926 C 59.155963 241.481634 58.577838 235.856634 58.025755 227.919133 C 57.530963 219.929549 57.088255 210.554549 56.702838 199.809756 C 56.317421 189.002464 56.067421 177.705588 55.958046 165.908712 C 55.900755 154.111837 55.984088 142.648294 56.208046 131.512877 C 56.426796 120.320168 56.921588 110.346209 57.692421 101.580583 C 58.463255 92.762874 59.432005 86.090999 60.588255 81.570165 C 63.952839 78.42954 69.129922 75.481623 76.129923 72.726415 C 83.135131 69.913915 91.317424 67.570164 100.687216 65.695164 C 110.1143 63.768081 120.202842 62.445164 130.952843 61.726414 C 141.697635 60.955581 152.530969 60.981622 163.447637 61.809747 C 174.359096 62.637872 184.749721 64.403497 194.619514 67.101414 C 204.484098 69.80454 213.192432 73.715998 220.744515 78.840998 C 227.968474 83.695165 234.39035 89.924333 240.010142 97.5285 C 245.635142 105.080583 250.015351 113.486834 253.155976 122.747251 C 256.353893 132.007669 257.760143 141.544128 257.374726 151.356628 C 256.98931 161.111837 254.395559 170.622254 249.603892 179.882672 C 244.807017 189.143089 237.280975 197.54934 227.030974 205.101423 C 225.984099 205.981632 224.411182 206.945174 222.317432 207.992049 Z M 175.353888 150.200378 C 175.353888 146.617045 174.057012 143.502461 171.468471 140.856628 C 168.932012 138.210794 165.432012 136.585794 160.963262 135.976419 C 156.557011 135.372252 151.484094 136.419127 145.749719 139.117044 C 145.749719 143.804544 145.697636 147.497253 145.588261 150.200378 C 145.530969 152.898295 145.588261 156.205587 145.749719 160.122254 C 145.749719 160.559754 146.083052 161.137879 146.744511 161.856629 C 147.458052 162.518087 148.041386 162.851421 148.478886 162.851421 C 151.348678 162.851421 154.155969 162.851421 156.916386 162.851421 C 159.723678 162.851421 162.478887 162.544129 165.182012 161.939962 C 171.963262 160.893087 175.353888 156.97642 175.353888 150.200378 Z M 395.905985 61.726414 C 411.286195 61.559747 424.708071 63.299331 436.171613 66.934748 C 447.692447 70.518081 457.504948 75.17954 465.609115 80.908707 C 473.765365 86.643082 480.520574 92.731624 485.864325 99.18475 C 491.213283 105.632667 495.432034 111.778501 498.515367 117.622251 C 501.603909 123.40871 503.838284 128.09621 505.213284 131.679544 C 510.452868 146.117045 513.567451 160.700379 514.557035 175.41913 C 515.551827 190.080589 513.786201 204.851423 509.265368 219.736841 C 496.916409 259.314969 470.650782 283.841012 430.468488 293.325388 C 414.20807 297.236846 398.166402 298.47643 382.348693 297.044138 C 366.525775 295.611846 351.093482 291.007679 336.046606 283.236845 C 321.770564 275.851428 310.359105 266.257677 301.812229 254.460802 C 293.322645 242.611843 287.36952 228.939967 283.952853 213.450382 C 281.692436 203.637882 280.369519 193.632673 279.984103 183.434755 C 279.598686 173.184755 280.176811 163.236837 281.723686 153.591003 C 283.322645 143.939961 285.937228 135.288919 289.577853 127.62746 C 293.161187 119.632668 297.817437 111.778501 303.551813 104.05975 C 309.28098 96.288916 316.364313 89.205582 324.801814 82.809749 C 333.234106 76.419123 343.322649 71.320165 355.062233 67.512873 C 366.801817 63.658706 380.416401 61.726414 395.905985 61.726414 Z M 397.067444 142.507669 C 391.499735 142.507669 386.343485 144.054544 381.603901 147.137878 C 376.864317 150.22642 373.114317 154.830587 370.359109 160.945171 C 367.655983 167.012879 366.609108 174.564963 367.218483 183.601422 C 367.82265 192.367048 369.807025 199.309756 373.171609 204.439965 C 376.588276 209.507674 380.583068 213.148299 385.155985 215.351424 C 389.786193 217.559758 394.062235 218.497258 397.973694 218.163924 C 401.999736 217.887883 406.077861 216.591007 410.213278 214.278507 C 414.400778 211.908716 417.95807 208.158715 420.879945 203.033715 C 423.796612 197.908715 425.478904 191.127464 425.921612 182.695172 C 426.525779 174.148296 425.510154 166.898296 422.86432 160.945171 C 420.27057 154.992045 416.661195 150.44517 412.030986 147.304545 C 407.452861 144.106628 402.468486 142.507669 397.067444 142.507669 Z M 397.067444 142.507669 " stroke="#00387b" stroke-width="12.700237" stroke-opacity="1" stroke-miterlimit="4"/><g fill="#5ce1e6" fill-opacity="1"><g transform="translate(16.769747, 263.900491)"><g><path d="M 132.25 -62.984375 C 134.28125 -61.179688 136.707031 -58.390625 139.53125 -54.609375 C 142.351562 -50.828125 145.226562 -46.707031 148.15625 -42.25 C 151.09375 -37.789062 153.75 -33.53125 156.125 -29.46875 C 158.5 -25.40625 160.132812 -22.070312 161.03125 -19.46875 C 159.90625 -13.601562 157.59375 -8.75 154.09375 -4.90625 C 150.59375 -1.070312 146.359375 1.601562 141.390625 3.125 C 136.421875 4.65625 131.171875 4.96875 125.640625 4.0625 C 120.109375 3.15625 114.691406 0.898438 109.390625 -2.703125 C 104.085938 -6.316406 99.457031 -11.398438 95.5 -17.953125 C 94.144531 -20.210938 92.59375 -22.664062 90.84375 -25.3125 C 89.09375 -27.96875 87.0625 -31.128906 84.75 -34.796875 C 82.4375 -38.460938 79.53125 -43.003906 76.03125 -48.421875 C 75.582031 -49.097656 75.128906 -49.773438 74.671875 -50.453125 C 74.222656 -51.140625 73.773438 -51.765625 73.328125 -52.328125 C 72.867188 -52.097656 72.472656 -51.984375 72.140625 -51.984375 C 72.140625 -50.515625 72.109375 -48.90625 72.046875 -47.15625 C 71.992188 -45.40625 71.910156 -43.628906 71.796875 -41.828125 C 71.460938 -34.941406 71.039062 -28.476562 70.53125 -22.4375 C 70.019531 -16.394531 69.484375 -11.285156 68.921875 -7.109375 C 66.097656 -4.066406 62.507812 -1.863281 58.15625 -0.5 C 53.8125 0.851562 49.1875 1.21875 44.28125 0.59375 C 39.375 -0.03125 34.601562 -1.722656 29.96875 -4.484375 C 25.34375 -7.253906 21.28125 -11.175781 17.78125 -16.25 C 14.28125 -21.332031 11.796875 -27.710938 10.328125 -35.390625 C 9.878906 -37.867188 9.457031 -42.097656 9.0625 -48.078125 C 8.664062 -54.066406 8.328125 -61.097656 8.046875 -69.171875 C 7.765625 -77.242188 7.59375 -85.707031 7.53125 -94.5625 C 7.476562 -103.425781 7.535156 -112.035156 7.703125 -120.390625 C 7.867188 -128.742188 8.234375 -136.222656 8.796875 -142.828125 C 9.367188 -149.429688 10.101562 -154.425781 11 -157.8125 C 13.488281 -160.1875 17.359375 -162.414062 22.609375 -164.5 C 27.859375 -166.59375 34.007812 -168.34375 41.0625 -169.75 C 48.113281 -171.164062 55.675781 -172.15625 63.75 -172.71875 C 71.820312 -173.28125 79.953125 -173.25 88.140625 -172.625 C 96.328125 -172.007812 104.113281 -170.6875 111.5 -168.65625 C 118.894531 -166.625 125.414062 -163.6875 131.0625 -159.84375 C 136.476562 -156.238281 141.300781 -151.582031 145.53125 -145.875 C 149.769531 -140.175781 153.070312 -133.851562 155.4375 -126.90625 C 157.8125 -119.96875 158.859375 -112.828125 158.578125 -105.484375 C 158.296875 -98.148438 156.347656 -91.007812 152.734375 -84.0625 C 149.117188 -77.125 143.476562 -70.832031 135.8125 -65.1875 C 135.019531 -64.507812 133.832031 -63.773438 132.25 -62.984375 Z M 97.03125 -106.34375 C 97.03125 -109.050781 96.066406 -111.390625 94.140625 -113.359375 C 92.222656 -115.335938 89.597656 -116.550781 86.265625 -117 C 82.941406 -117.457031 79.132812 -116.671875 74.84375 -114.640625 C 74.84375 -111.140625 74.8125 -108.375 74.75 -106.34375 C 74.695312 -104.3125 74.726562 -101.828125 74.84375 -98.890625 C 74.84375 -98.546875 75.097656 -98.117188 75.609375 -97.609375 C 76.117188 -97.109375 76.539062 -96.859375 76.875 -96.859375 C 79.019531 -96.859375 81.132812 -96.859375 83.21875 -96.859375 C 85.3125 -96.859375 87.375 -97.082031 89.40625 -97.53125 C 94.488281 -98.320312 97.03125 -101.257812 97.03125 -106.34375 Z M 97.03125 -106.34375 "/></g></g></g><g fill="#5ce1e6" fill-opacity="1"><g transform="translate(185.596791, 263.900491)"><g><path d="M 93.640625 -172.71875 C 105.148438 -172.832031 115.222656 -171.535156 123.859375 -168.828125 C 132.503906 -166.117188 139.875 -162.617188 145.96875 -158.328125 C 152.0625 -154.035156 157.109375 -149.460938 161.109375 -144.609375 C 165.117188 -139.753906 168.28125 -135.15625 170.59375 -130.8125 C 172.914062 -126.46875 174.582031 -122.941406 175.59375 -120.234375 C 179.550781 -109.390625 181.894531 -98.460938 182.625 -87.453125 C 183.351562 -76.453125 182.023438 -65.363281 178.640625 -54.1875 C 169.390625 -24.5 149.691406 -6.097656 119.546875 1.015625 C 107.359375 3.953125 95.335938 4.882812 83.484375 3.8125 C 71.628906 2.738281 60.054688 -0.734375 48.765625 -6.609375 C 38.046875 -12.140625 29.492188 -19.332031 23.109375 -28.1875 C 16.734375 -37.050781 12.25 -47.296875 9.65625 -58.921875 C 7.957031 -66.265625 6.96875 -73.773438 6.6875 -81.453125 C 6.40625 -89.128906 6.859375 -96.578125 8.046875 -103.796875 C 9.234375 -111.023438 11.179688 -117.519531 13.890625 -123.28125 C 16.597656 -129.257812 20.09375 -135.15625 24.375 -140.96875 C 28.664062 -146.78125 33.972656 -152.082031 40.296875 -156.875 C 46.617188 -161.675781 54.179688 -165.515625 62.984375 -168.390625 C 71.796875 -171.273438 82.015625 -172.71875 93.640625 -172.71875 Z M 94.484375 -112.09375 C 90.304688 -112.09375 86.4375 -110.9375 82.875 -108.625 C 79.320312 -106.3125 76.53125 -102.867188 74.5 -98.296875 C 72.46875 -93.722656 71.679688 -88.050781 72.140625 -81.28125 C 72.585938 -74.726562 74.082031 -69.53125 76.625 -65.6875 C 79.164062 -61.851562 82.15625 -59.117188 85.59375 -57.484375 C 89.039062 -55.847656 92.234375 -55.144531 95.171875 -55.375 C 98.210938 -55.59375 101.285156 -56.578125 104.390625 -58.328125 C 107.492188 -60.078125 110.144531 -62.867188 112.34375 -66.703125 C 114.550781 -70.546875 115.820312 -75.628906 116.15625 -81.953125 C 116.613281 -88.390625 115.851562 -93.835938 113.875 -98.296875 C 111.894531 -102.753906 109.179688 -106.164062 105.734375 -108.53125 C 102.296875 -110.90625 98.546875 -112.09375 94.484375 -112.09375 Z M 94.484375 -112.09375 "/></g></g></g></svg>