<svg xmlns="http://www.w3.org/2000/svg" xmlns:xlink="http://www.w3.org/1999/xlink" width="500" zoomAndPan="magnify" viewBox="0 0 375 374.999991" height="500" preserveAspectRatio="xMidYMid meet" version="1.0"><defs><g/></defs><path stroke-linecap="butt" transform="matrix(0.75, 0, 0, 0.75, -26.21975, 40.050232)" fill="none" stroke-linejoin="miter" d="M 224.43364 211.672621 C 227.178432 214.136163 230.454474 217.943455 234.261766 223.094497 C 238.069058 228.188248 241.959683 233.761165 245.933641 239.80804 C 249.912808 245.854915 253.496142 251.620541 256.683642 257.104916 C 259.933642 262.5945 262.173226 267.099708 263.402393 270.630959 C 261.891976 278.578876 258.756559 285.157001 253.996142 290.365335 C 249.240933 295.573669 243.50135 299.183044 236.782599 301.198669 C 230.063849 303.271586 222.949265 303.688252 215.449264 302.459086 C 207.944056 301.282002 200.610722 298.261169 193.444055 293.386168 C 186.277387 288.459085 180.006554 281.573668 174.631553 272.729917 C 172.782595 269.646584 170.683636 266.318458 168.334678 262.735125 C 165.980511 259.151791 163.240928 254.865333 160.105511 249.886166 C 156.970094 244.90179 153.022177 238.740332 148.26176 231.406998 C 147.647177 230.511164 147.027385 229.615331 146.412802 228.719498 C 145.798218 227.766372 145.183635 226.901789 144.563843 226.115331 C 143.94926 226.453872 143.41801 226.620539 142.970093 226.620539 C 142.970093 228.578873 142.944051 230.766373 142.88676 233.172623 C 142.829468 235.521581 142.720093 237.93304 142.548218 240.396582 C 142.100301 249.688249 141.516968 258.422625 140.787801 266.599708 C 140.115926 274.771584 139.386759 281.688251 138.605509 287.339293 C 134.798217 291.485127 129.954467 294.479919 124.074258 296.328877 C 118.19405 298.177835 111.923216 298.677835 105.261757 297.839294 C 98.600298 297.000752 92.131548 294.703877 85.860714 290.953877 C 79.58988 287.203876 74.074255 281.880959 69.313838 274.995542 C 64.610713 268.110125 61.282588 259.459083 59.324254 249.042416 C 58.704462 245.68304 58.115921 239.974707 57.558629 231.912206 C 57.053421 223.792414 56.605504 214.276788 56.214879 203.354913 C 55.824254 192.380953 55.569046 180.906994 55.459671 168.922619 C 55.402379 156.943451 55.485712 145.297617 55.709671 133.985116 C 55.933629 122.620532 56.438837 112.485115 57.220087 103.584073 C 58.006546 94.625739 58.985712 87.849697 60.162796 83.261155 C 63.579463 80.068446 68.83988 77.073654 75.949255 74.271571 C 83.063839 71.417404 91.37634 69.037195 100.891965 67.136154 C 110.470091 65.172612 120.714883 63.828862 131.631551 63.104903 C 142.548218 62.318445 153.553427 62.349695 164.636761 63.188237 C 175.725303 64.026778 186.277387 65.818445 196.298221 68.563237 C 206.324264 71.308029 215.168014 75.281987 222.83989 80.490321 C 230.173224 85.417405 236.699266 91.740322 242.407599 99.469489 C 248.121142 107.141365 252.569058 115.677823 255.761767 125.084074 C 259.006559 134.490325 260.438851 144.177825 260.043017 154.141368 C 259.652392 164.052827 257.022184 173.709077 252.152392 183.115328 C 247.277391 192.521579 239.636766 201.063246 229.220099 208.729913 C 228.157599 209.625746 226.563848 210.610121 224.43364 211.672621 Z M 176.730512 152.964284 C 176.730512 149.328867 175.418012 146.1622 172.782595 143.4747 C 170.209678 140.7872 166.652386 139.136158 162.121136 138.521575 C 157.641969 137.906992 152.490927 138.969492 146.66801 141.714284 C 146.66801 146.469492 146.610718 150.224701 146.496135 152.964284 C 146.444052 155.709076 146.496135 159.068451 146.66801 163.04241 C 146.66801 163.490327 147.001343 164.078868 147.673218 164.808035 C 148.402385 165.47991 148.990927 165.818452 149.438843 165.818452 C 152.350302 165.818452 155.204469 165.818452 158.001344 165.818452 C 160.860719 165.818452 163.657594 165.505952 166.402386 164.891368 C 173.287803 163.828868 176.730512 159.85491 176.730512 152.964284 Z M 508.089909 219.063247 C 506.412825 233.729915 502.126367 246.354915 495.240949 256.938249 C 488.355532 267.464292 479.787823 276.172626 469.543031 283.058043 C 459.298239 289.891377 448.209696 294.953877 436.282612 298.261169 C 424.360736 301.563252 412.433652 303.214294 400.506568 303.214294 C 390.876359 303.214294 381.220109 302.657002 371.532608 301.537211 C 361.845107 300.469502 352.470107 298.344502 343.397189 295.151794 C 334.381564 291.959085 326.095105 287.313251 318.537813 281.209084 C 310.980521 275.052834 304.595104 267.016375 299.391978 257.104916 C 294.183645 247.141374 290.600311 234.740331 288.641978 219.901789 C 286.626352 206.016371 285.641977 190.901787 285.699269 174.552827 C 285.813852 158.203868 286.537811 141.516367 287.881561 124.495532 C 289.282603 107.417406 291.048228 90.985114 293.173228 75.198654 C 294.85552 73.406987 297.907603 71.755946 302.329478 70.24032 C 306.808645 68.672612 312.069062 67.526779 318.115938 66.797612 C 324.162813 66.016362 330.433647 65.901779 336.928439 66.464279 C 343.423231 66.964279 349.527398 68.36532 355.24094 70.662196 C 360.949274 72.959071 365.793024 76.261154 369.766983 80.573654 C 373.74615 84.828863 376.209692 90.453863 377.157608 97.453864 C 377.438858 99.917406 377.605525 104.646573 377.662817 111.646573 C 377.7774 118.589282 377.829483 126.849699 377.829483 136.422616 C 377.829483 145.938242 377.944067 155.933034 378.168025 166.401785 C 378.391983 176.875744 378.756567 186.870536 379.256567 196.386162 C 379.819067 205.849704 380.631567 213.854913 381.694067 220.406997 C 382.647192 225.443456 384.746151 229.422623 387.990942 232.334081 C 391.298234 235.24554 395.022193 236.813248 399.162818 237.037206 C 403.308652 237.261165 407.115944 235.969498 410.584694 233.172623 C 414.110736 230.318456 416.490944 225.750747 417.725319 219.479914 C 418.787819 213.995538 419.740944 206.828871 420.579486 197.979912 C 421.418028 189.07887 422.063861 179.365328 422.511778 168.839285 C 423.016986 158.255951 423.209695 147.537201 423.10032 136.672617 C 423.043028 125.813241 422.704486 115.537198 422.089903 105.849698 C 421.47532 96.167406 420.496153 87.880947 419.152403 80.990321 C 422.173236 77.912196 426.31907 75.281987 431.579487 73.099696 C 436.902404 70.860112 442.834696 69.318445 449.38678 68.479904 C 455.938864 67.636154 462.543031 67.724695 469.204489 68.729904 C 475.871156 69.683029 482.084699 71.808029 487.850324 75.115321 C 493.673241 78.417404 498.543033 83.12053 502.464908 89.224697 C 506.381575 95.323655 508.793034 103.052823 509.688867 112.401782 C 510.30345 118.672615 510.860742 124.386157 511.36595 129.537199 C 511.928451 134.63095 512.319076 139.808033 512.543034 145.073659 C 512.766992 150.334076 512.793034 156.271576 512.626367 162.875743 C 512.511784 169.427827 512.095117 177.209078 511.36595 186.224703 C 510.694075 195.240329 509.600325 206.183038 508.089909 219.063247 Z M 508.089909 219.063247 " stroke="#004b59" stroke-width="12.900188" stroke-opacity="1" stroke-miterlimit="4"/><g fill="#0097b2" fill-opacity="1"><g transform="translate(7.752904, 262.800217)"><g><path d="M 134.328125 -63.984375 C 136.390625 -62.148438 138.851562 -59.3125 141.71875 -55.46875 C 144.59375 -51.625 147.519531 -47.4375 150.5 -42.90625 C 153.476562 -38.382812 156.171875 -34.054688 158.578125 -29.921875 C 160.992188 -25.796875 162.660156 -22.414062 163.578125 -19.78125 C 162.429688 -13.820312 160.078125 -8.890625 156.515625 -4.984375 C 152.960938 -1.085938 148.660156 1.628906 143.609375 3.171875 C 138.566406 4.722656 133.238281 5.039062 127.625 4.125 C 122.007812 3.207031 116.503906 0.914062 111.109375 -2.75 C 105.722656 -6.414062 101.023438 -11.578125 97.015625 -18.234375 C 95.628906 -20.523438 94.046875 -23.015625 92.265625 -25.703125 C 90.492188 -28.398438 88.429688 -31.613281 86.078125 -35.34375 C 83.734375 -39.070312 80.785156 -43.6875 77.234375 -49.1875 C 76.773438 -49.875 76.3125 -50.5625 75.84375 -51.25 C 75.382812 -51.9375 74.925781 -52.566406 74.46875 -53.140625 C 74.007812 -52.910156 73.609375 -52.796875 73.265625 -52.796875 C 73.265625 -51.304688 73.234375 -49.671875 73.171875 -47.890625 C 73.117188 -46.117188 73.035156 -44.316406 72.921875 -42.484375 C 72.578125 -35.484375 72.144531 -28.914062 71.625 -22.78125 C 71.113281 -16.65625 70.570312 -11.46875 70 -7.21875 C 67.132812 -4.125 63.492188 -1.890625 59.078125 -0.515625 C 54.660156 0.859375 49.957031 1.226562 44.96875 0.59375 C 39.988281 -0.03125 35.144531 -1.742188 30.4375 -4.546875 C 25.738281 -7.359375 21.613281 -11.34375 18.0625 -16.5 C 14.507812 -21.664062 11.984375 -28.148438 10.484375 -35.953125 C 10.023438 -38.472656 9.59375 -42.769531 9.1875 -48.84375 C 8.789062 -54.925781 8.445312 -62.066406 8.15625 -70.265625 C 7.875 -78.460938 7.703125 -87.0625 7.640625 -96.0625 C 7.585938 -105.0625 7.644531 -113.800781 7.8125 -122.28125 C 7.988281 -130.769531 8.363281 -138.367188 8.9375 -145.078125 C 9.507812 -151.785156 10.257812 -156.859375 11.1875 -160.296875 C 13.707031 -162.710938 17.628906 -164.976562 22.953125 -167.09375 C 28.285156 -169.21875 34.535156 -170.992188 41.703125 -172.421875 C 48.867188 -173.859375 56.550781 -174.863281 64.75 -175.4375 C 72.957031 -176.007812 81.21875 -175.976562 89.53125 -175.34375 C 97.84375 -174.71875 105.753906 -173.375 113.265625 -171.3125 C 120.773438 -169.25 127.394531 -166.269531 133.125 -162.375 C 138.632812 -158.695312 143.535156 -153.960938 147.828125 -148.171875 C 152.128906 -142.378906 155.484375 -135.957031 157.890625 -128.90625 C 160.304688 -121.863281 161.367188 -114.613281 161.078125 -107.15625 C 160.785156 -99.695312 158.804688 -92.441406 155.140625 -85.390625 C 151.472656 -78.335938 145.738281 -71.945312 137.9375 -66.21875 C 137.132812 -65.53125 135.929688 -64.785156 134.328125 -63.984375 Z M 98.5625 -108.015625 C 98.5625 -110.765625 97.582031 -113.140625 95.625 -115.140625 C 93.675781 -117.148438 91.007812 -118.382812 87.625 -118.84375 C 84.25 -119.3125 80.382812 -118.507812 76.03125 -116.4375 C 76.03125 -112.882812 76 -110.078125 75.9375 -108.015625 C 75.882812 -105.953125 75.914062 -103.429688 76.03125 -100.453125 C 76.03125 -100.109375 76.285156 -99.675781 76.796875 -99.15625 C 77.316406 -98.644531 77.75 -98.390625 78.09375 -98.390625 C 80.269531 -98.390625 82.414062 -98.390625 84.53125 -98.390625 C 86.65625 -98.390625 88.75 -98.617188 90.8125 -99.078125 C 95.976562 -99.878906 98.5625 -102.859375 98.5625 -108.015625 Z M 98.5625 -108.015625 "/></g></g></g><g fill="#0097b2" fill-opacity="1"><g transform="translate(179.236958, 262.800217)"><g><path d="M 175.609375 -58.484375 C 174.347656 -47.472656 171.132812 -38.007812 165.96875 -30.09375 C 160.8125 -22.1875 154.390625 -15.648438 146.703125 -10.484375 C 139.023438 -5.328125 130.710938 -1.519531 121.765625 0.9375 C 112.828125 3.40625 103.882812 4.640625 94.9375 4.640625 C 87.71875 4.640625 80.46875 4.238281 73.1875 3.4375 C 65.90625 2.632812 58.878906 1.03125 52.109375 -1.375 C 45.347656 -3.78125 39.128906 -7.273438 33.453125 -11.859375 C 27.773438 -16.453125 22.988281 -22.472656 19.09375 -29.921875 C 15.195312 -37.378906 12.503906 -46.671875 11.015625 -57.796875 C 9.515625 -68.222656 8.789062 -79.570312 8.84375 -91.84375 C 8.90625 -104.113281 9.453125 -116.640625 10.484375 -129.421875 C 11.523438 -142.210938 12.847656 -154.515625 14.453125 -166.328125 C 15.710938 -167.703125 18.003906 -168.960938 21.328125 -170.109375 C 24.648438 -171.253906 28.578125 -172.113281 33.109375 -172.6875 C 37.640625 -173.257812 42.34375 -173.34375 47.21875 -172.9375 C 52.09375 -172.539062 56.675781 -171.484375 60.96875 -169.765625 C 65.269531 -168.046875 68.910156 -165.578125 71.890625 -162.359375 C 74.878906 -159.148438 76.71875 -154.910156 77.40625 -149.640625 C 77.632812 -147.804688 77.773438 -144.28125 77.828125 -139.0625 C 77.890625 -133.84375 77.921875 -127.648438 77.921875 -120.484375 C 77.921875 -113.316406 78.003906 -105.804688 78.171875 -97.953125 C 78.347656 -90.097656 78.632812 -82.613281 79.03125 -75.5 C 79.4375 -68.394531 80.039062 -62.378906 80.84375 -57.453125 C 81.53125 -53.660156 83.101562 -50.675781 85.5625 -48.5 C 88.03125 -46.320312 90.8125 -45.144531 93.90625 -44.96875 C 97.007812 -44.800781 99.878906 -45.773438 102.515625 -47.890625 C 105.148438 -50.015625 106.925781 -53.429688 107.84375 -58.140625 C 108.644531 -62.265625 109.359375 -67.648438 109.984375 -74.296875 C 110.617188 -80.953125 111.109375 -88.234375 111.453125 -96.140625 C 111.796875 -104.054688 111.9375 -112.082031 111.875 -120.21875 C 111.820312 -128.363281 111.566406 -136.078125 111.109375 -143.359375 C 110.648438 -150.640625 109.90625 -156.863281 108.875 -162.03125 C 111.164062 -164.320312 114.289062 -166.296875 118.25 -167.953125 C 122.207031 -169.617188 126.648438 -170.765625 131.578125 -171.390625 C 136.503906 -172.023438 141.460938 -171.96875 146.453125 -171.21875 C 151.441406 -170.476562 156.113281 -168.875 160.46875 -166.40625 C 164.832031 -163.945312 168.472656 -160.421875 171.390625 -155.828125 C 174.316406 -151.242188 176.125 -145.453125 176.8125 -138.453125 C 177.269531 -133.753906 177.695312 -129.484375 178.09375 -125.640625 C 178.5 -121.804688 178.785156 -117.910156 178.953125 -113.953125 C 179.128906 -109.992188 179.160156 -105.546875 179.046875 -100.609375 C 178.929688 -95.679688 178.613281 -89.832031 178.09375 -83.0625 C 177.582031 -76.300781 176.753906 -68.109375 175.609375 -58.484375 Z M 175.609375 -58.484375 "/></g></g></g></svg>