<svg xmlns="http://www.w3.org/2000/svg" xmlns:xlink="http://www.w3.org/1999/xlink" width="500" zoomAndPan="magnify" viewBox="0 0 375 374.999991" height="500" preserveAspectRatio="xMidYMid meet" version="1.0"><defs><g/></defs><path stroke-linecap="butt" transform="matrix(0.75, 0, 0, 0.75, -32.167947, 37.38623)" fill="none" stroke-linejoin="miter" d="M 227.703112 176.412121 C 239.937487 183.938163 248.96353 192.703789 254.786447 202.70379 C 260.666655 212.64129 263.843739 222.990249 264.312489 233.750667 C 264.843739 244.459001 263.255197 254.80796 259.552072 264.802752 C 255.843738 274.745461 250.49478 283.537128 243.494779 291.182962 C 236.494779 298.828796 228.526028 304.47463 219.588528 308.120463 C 213.119777 310.703797 205.239568 312.88088 195.947901 314.646505 C 186.656234 316.41213 176.536442 317.500672 165.598941 317.91213 C 154.66144 318.323589 143.458314 317.761089 131.989564 316.235047 C 120.520813 314.703797 109.437479 311.94338 98.734353 307.94338 C 88.088519 303.886088 78.411435 298.328796 69.70831 291.271504 C 65.062476 285.328795 62.302059 278.917336 61.416642 272.037127 C 60.536434 265.099627 61.213517 258.485043 63.447892 252.188168 C 65.682268 245.839209 69.151018 240.459 73.854143 236.047542 C 78.619768 231.578791 84.296852 228.844416 90.880186 227.844416 C 97.468728 226.781916 104.703103 228.167333 112.583312 231.99025 C 129.635397 240.339209 143.781231 245.042334 155.015607 246.104834 C 166.244774 247.162126 172.833316 243.985042 174.776025 236.573583 C 175.713525 233.401708 176.067692 230.901708 175.833317 229.078791 C 175.598941 227.193374 174.276025 225.781916 171.864566 224.844416 C 169.453108 223.844416 165.187482 223.198583 159.072899 222.901708 C 149.307273 222.078791 139.604147 220.110041 129.963522 216.990249 C 120.317688 213.875665 111.317687 209.432957 102.968728 203.67254 C 94.614561 197.849623 87.588519 190.672539 81.885394 182.146497 C 76.17706 173.620454 72.354143 163.740245 70.416643 152.50587 C 69.77081 148.505869 69.70831 143.594411 70.23956 137.776702 C 70.828101 131.891285 72.296851 125.662118 74.651018 119.073576 C 77.005185 112.485034 80.531227 105.990242 85.234352 99.578783 C 89.999978 93.110032 96.291645 87.229824 104.114562 81.932948 C 111.994771 76.641281 121.729146 72.464198 133.31248 69.406906 C 141.312481 67.172531 149.807273 65.792322 158.807274 65.261072 C 167.807274 64.67253 176.744775 64.792322 185.624984 65.615239 C 194.562484 66.380864 202.885402 67.906906 210.588527 70.203781 C 218.354153 72.438156 224.791653 75.229823 229.911445 78.58399 C 238.260404 84.229823 244.286446 90.224615 247.99478 96.578783 C 251.697905 102.87045 253.489572 109.136075 253.374988 115.37045 C 253.317697 121.542326 251.843738 127.307951 248.96353 132.65691 C 246.083321 138.011077 242.286446 142.599619 237.583321 146.417327 C 232.937487 150.182953 227.822903 152.714203 222.234361 154.00587 C 218.708319 149.656911 213.999986 146.068369 208.119777 143.245452 C 202.239568 140.422535 195.916651 138.448577 189.156234 137.333994 C 182.4479 136.214202 176.124983 135.953785 170.187483 136.537119 C 164.249982 137.068369 159.338524 138.537119 155.453107 140.948577 C 151.63019 143.360036 149.635398 146.656911 149.458315 150.828786 C 149.458315 153.417328 150.572898 155.563161 152.807273 157.271495 C 155.041648 158.917328 159.218732 160.151703 165.333316 160.97462 C 183.036442 163.208995 196.770818 165.651704 206.531235 168.297537 C 216.354152 170.943371 223.411445 173.646496 227.703112 176.412121 Z M 284.630199 240.016292 C 286.510407 230.370458 288.921866 219.578791 291.859366 207.64129 C 294.859366 195.646497 298.213533 183.29233 301.916658 170.589204 C 305.624992 157.886078 309.447909 145.568369 313.385409 133.630868 C 317.328117 121.688159 321.177076 110.80795 324.942701 100.990241 C 328.708327 91.167324 332.119785 83.287115 335.177077 77.349615 C 341.760411 75.110031 349.614578 73.052739 358.729162 71.172531 C 367.901037 69.229822 377.635413 68.141281 387.92708 67.906906 C 398.218748 67.615239 408.421873 68.938156 418.536457 71.875656 C 428.65625 74.761073 437.947917 79.906906 446.416668 87.313157 C 454.94271 94.667324 461.94271 105.016283 467.411461 118.365242 C 470.000002 124.776701 472.994794 133.011077 476.406253 143.068369 C 479.880211 153.063161 483.494795 164.208995 487.26042 176.500663 C 491.083337 188.79233 494.786462 201.438164 498.375004 214.432957 C 501.963546 227.432958 505.223963 240.136084 508.166672 252.542334 C 511.166672 264.891294 513.57813 276.125669 515.401047 286.240253 C 514.869797 290.59442 512.604172 294.886087 508.60938 299.120463 C 504.60938 303.354838 499.520838 306.969421 493.343754 309.969422 C 487.171879 312.91213 480.494795 314.854839 473.322919 315.792339 C 466.145836 316.792339 459.031252 316.235047 451.97396 314.115255 C 444.916668 312.057963 438.536459 308.000671 432.828125 301.943379 C 427.125 295.828796 422.687499 287.297545 419.510416 276.360044 C 411.921874 276.005878 404.041665 275.922544 395.869789 276.094419 C 387.692705 276.271503 379.755205 276.271503 372.046871 276.094419 C 369.932288 281.09442 367.932287 286.56317 366.052079 292.505879 C 364.229162 298.443379 362.432287 304.531921 360.67187 310.766297 C 345.906244 316.235047 333.145827 318.203797 322.385409 316.677755 C 311.619784 315.146505 302.979158 310.94338 296.447908 304.063171 C 289.979157 297.120462 285.744782 288.120462 283.744782 277.068378 C 281.744782 266.011085 282.041657 253.662126 284.630199 240.016292 Z M 380.692705 206.495456 C 385.812497 206.495456 390.781247 206.495456 395.604164 206.495456 C 400.427081 206.495456 405.33854 206.495456 410.333332 206.495456 C 408.098957 196.672539 405.77604 187.000663 403.364581 177.469413 C 400.953123 167.886079 398.630206 158.297537 396.395831 148.714203 C 395.869789 148.828786 395.130206 148.891286 394.192706 148.891286 C 392.072914 158.360037 389.838539 167.854829 387.48958 177.380871 C 385.192705 186.849622 382.92708 196.557956 380.692705 206.495456 Z M 380.692705 206.495456 " stroke="#7e0030" stroke-width="13.550025" stroke-opacity="1" stroke-miterlimit="4"/><g fill="#fb6ea4" fill-opacity="1"><g transform="translate(6.750019, 271.386215)"><g><path d="M 131.890625 -101.71875 C 141.046875 -96.050781 147.820312 -89.484375 152.21875 -82.015625 C 156.613281 -74.554688 158.988281 -66.789062 159.34375 -58.71875 C 159.707031 -50.644531 158.503906 -42.875 155.734375 -35.40625 C 152.960938 -27.9375 148.957031 -21.34375 143.71875 -15.625 C 138.476562 -9.90625 132.488281 -5.660156 125.75 -2.890625 C 120.925781 -0.960938 115.019531 0.660156 108.03125 1.984375 C 101.050781 3.304688 93.460938 4.117188 85.265625 4.421875 C 77.078125 4.722656 68.675781 4.300781 60.0625 3.15625 C 51.457031 2.019531 43.148438 -0.0507812 35.140625 -3.0625 C 27.128906 -6.082031 19.875 -10.238281 13.375 -15.53125 C 9.875 -19.988281 7.789062 -24.804688 7.125 -29.984375 C 6.46875 -35.171875 6.984375 -40.140625 8.671875 -44.890625 C 10.359375 -49.648438 12.976562 -53.6875 16.53125 -57 C 20.082031 -60.3125 24.328125 -62.359375 29.265625 -63.140625 C 34.203125 -63.921875 39.625 -62.867188 45.53125 -59.984375 C 58.289062 -53.722656 68.882812 -50.195312 77.3125 -49.40625 C 85.75 -48.625 90.691406 -51.003906 92.140625 -56.546875 C 92.859375 -58.953125 93.128906 -60.847656 92.953125 -62.234375 C 92.773438 -63.617188 91.78125 -64.671875 89.96875 -65.390625 C 88.164062 -66.117188 84.972656 -66.601562 80.390625 -66.84375 C 73.046875 -67.445312 65.757812 -68.921875 58.53125 -71.265625 C 51.3125 -73.617188 44.566406 -76.960938 38.296875 -81.296875 C 32.035156 -85.628906 26.765625 -90.988281 22.484375 -97.375 C 18.210938 -103.757812 15.351562 -111.164062 13.90625 -119.59375 C 13.425781 -122.613281 13.394531 -126.320312 13.8125 -130.71875 C 14.238281 -135.113281 15.320312 -139.78125 17.0625 -144.71875 C 18.8125 -149.65625 21.460938 -154.53125 25.015625 -159.34375 C 28.578125 -164.164062 33.304688 -168.5625 39.203125 -172.53125 C 45.109375 -176.507812 52.394531 -179.644531 61.0625 -181.9375 C 67.082031 -183.613281 73.460938 -184.660156 80.203125 -185.078125 C 86.953125 -185.503906 93.671875 -185.414062 100.359375 -184.8125 C 107.046875 -184.21875 113.28125 -183.078125 119.0625 -181.390625 C 124.84375 -179.703125 129.660156 -177.59375 133.515625 -175.0625 C 139.773438 -170.851562 144.289062 -166.367188 147.0625 -161.609375 C 149.832031 -156.847656 151.1875 -152.148438 151.125 -147.515625 C 151.0625 -142.878906 149.945312 -138.539062 147.78125 -134.5 C 145.613281 -130.46875 142.78125 -127.035156 139.28125 -124.203125 C 135.789062 -121.378906 131.941406 -119.484375 127.734375 -118.515625 C 125.078125 -121.765625 121.550781 -124.441406 117.15625 -126.546875 C 112.757812 -128.660156 108.03125 -130.140625 102.96875 -130.984375 C 97.914062 -131.828125 93.160156 -132.035156 88.703125 -131.609375 C 84.242188 -131.191406 80.566406 -130.078125 77.671875 -128.265625 C 74.785156 -126.460938 73.285156 -123.992188 73.171875 -120.859375 C 73.171875 -118.929688 74.015625 -117.335938 75.703125 -116.078125 C 77.390625 -114.816406 80.519531 -113.882812 85.09375 -113.28125 C 98.34375 -111.59375 108.640625 -109.753906 115.984375 -107.765625 C 123.335938 -105.773438 128.640625 -103.757812 131.890625 -101.71875 Z M 131.890625 -101.71875 "/></g></g><g transform="translate(176.936433, 271.386215)"><g><path d="M 4.34375 -54.015625 C 5.78125 -61.242188 7.613281 -69.34375 9.84375 -78.3125 C 12.070312 -87.289062 14.570312 -96.535156 17.34375 -106.046875 C 20.113281 -115.566406 22.972656 -124.8125 25.921875 -133.78125 C 28.878906 -142.757812 31.769531 -150.921875 34.59375 -158.265625 C 37.425781 -165.609375 39.988281 -171.507812 42.28125 -175.96875 C 47.21875 -177.65625 53.117188 -179.21875 59.984375 -180.65625 C 66.847656 -182.101562 74.132812 -182.914062 81.84375 -183.09375 C 89.550781 -183.28125 97.195312 -182.289062 104.78125 -180.125 C 112.375 -177.957031 119.359375 -174.101562 125.734375 -168.5625 C 132.117188 -163.019531 137.363281 -155.25 141.46875 -145.25 C 143.394531 -140.4375 145.648438 -134.265625 148.234375 -126.734375 C 150.828125 -119.210938 153.535156 -110.84375 156.359375 -101.625 C 159.191406 -92.40625 161.960938 -82.914062 164.671875 -73.15625 C 167.390625 -63.40625 169.859375 -53.894531 172.078125 -44.625 C 174.304688 -35.351562 176.085938 -26.921875 177.421875 -19.328125 C 177.054688 -16.078125 175.367188 -12.851562 172.359375 -9.65625 C 169.347656 -6.46875 165.519531 -3.757812 160.875 -1.53125 C 156.238281 0.695312 151.238281 2.171875 145.875 2.890625 C 140.519531 3.609375 135.191406 3.1875 129.890625 1.625 C 124.597656 0.0625 119.8125 -3.003906 115.53125 -7.578125 C 111.257812 -12.160156 107.921875 -18.546875 105.515625 -26.734375 C 99.847656 -26.972656 93.941406 -27.03125 87.796875 -26.90625 C 81.660156 -26.789062 75.703125 -26.796875 69.921875 -26.921875 C 68.347656 -23.179688 66.867188 -19.082031 65.484375 -14.625 C 64.097656 -10.175781 62.742188 -5.601562 61.421875 -0.90625 C 50.347656 3.1875 40.773438 4.660156 32.703125 3.515625 C 24.628906 2.378906 18.15625 -0.773438 13.28125 -5.953125 C 8.40625 -11.140625 5.210938 -17.882812 3.703125 -26.1875 C 2.203125 -34.5 2.414062 -43.773438 4.34375 -54.015625 Z M 76.421875 -79.125 C 80.273438 -79.125 84.007812 -79.125 87.625 -79.125 C 91.238281 -79.125 94.910156 -79.125 98.640625 -79.125 C 96.953125 -86.476562 95.203125 -93.738281 93.390625 -100.90625 C 91.585938 -108.070312 89.847656 -115.265625 88.171875 -122.484375 C 87.804688 -122.367188 87.265625 -122.3125 86.546875 -122.3125 C 84.972656 -115.207031 83.3125 -108.097656 81.5625 -100.984375 C 79.820312 -93.878906 78.109375 -86.59375 76.421875 -79.125 Z M 76.421875 -79.125 "/></g></g></g></svg>