<svg xmlns="http://www.w3.org/2000/svg" xmlns:xlink="http://www.w3.org/1999/xlink" width="500" zoomAndPan="magnify" viewBox="0 0 375 374.999991" height="500" preserveAspectRatio="xMidYMid meet" version="1.0"><defs><g/></defs><path stroke-linecap="butt" transform="matrix(0.75, 0, 0, 0.75, -32.167947, 37.386238)" fill="none" stroke-linejoin="miter" d="M 245.890613 176.412111 C 258.124989 183.938153 267.151031 192.703779 272.973948 202.70378 C 278.854157 212.64128 282.03124 222.990239 282.49999 233.750657 C 283.03124 244.458991 281.442698 254.80795 277.739573 264.802742 C 274.03124 274.745451 268.682281 283.537118 261.68228 291.182952 C 254.68228 298.828786 246.713529 304.47462 237.776029 308.120453 C 231.307278 310.703787 223.42707 312.88087 214.135402 314.646495 C 204.843735 316.41212 194.723943 317.500662 183.786442 317.91212 C 172.848941 318.323579 161.645816 317.761079 150.177065 316.235037 C 138.708314 314.703787 127.62498 311.94337 116.921854 307.94337 C 106.27602 303.886078 96.598936 298.328786 87.895811 291.271494 C 83.249977 285.328785 80.48956 278.917326 79.604144 272.037117 C 78.723935 265.099617 79.401019 258.485033 81.635394 252.188158 C 83.869769 245.839199 87.338519 240.45899 92.041644 236.047532 C 96.80727 231.578781 102.484353 228.844406 109.067687 227.844406 C 115.656229 226.781906 122.890605 228.167323 130.770814 231.99024 C 147.822898 240.339199 161.968732 245.042324 173.203108 246.104824 C 184.432275 247.162116 191.020818 243.985032 192.963526 236.573573 C 193.901026 233.401698 194.255193 230.901698 194.020818 229.078781 C 193.786443 227.193365 192.463526 225.781906 190.052067 224.844406 C 187.640609 223.844406 183.374984 223.198573 177.2604 222.901698 C 167.494774 222.078781 157.791649 220.110031 148.151023 216.990239 C 138.505189 213.875655 129.505188 209.432947 121.15623 203.67253 C 112.802062 197.849613 105.77602 190.672529 100.072895 182.146487 C 94.364561 173.620444 90.541644 163.740235 88.604144 152.50586 C 87.958311 148.505859 87.895811 143.594401 88.427061 137.776692 C 89.015602 131.891275 90.484353 125.662108 92.838519 119.073566 C 95.192686 112.485024 98.718728 105.990232 103.421853 99.578773 C 108.187479 93.110022 114.479146 87.229814 122.302063 81.932938 C 130.182272 76.641271 139.916647 72.464188 151.499982 69.406896 C 159.499982 67.172521 167.994774 65.792312 176.994775 65.261062 C 185.994776 64.672521 194.932276 64.792312 203.812485 65.615229 C 212.749986 66.380854 221.072903 67.906896 228.776028 70.203771 C 236.541654 72.438146 242.979154 75.229813 248.098946 78.58398 C 256.447905 84.229813 262.473947 90.224606 266.182281 96.578773 C 269.885406 102.87044 271.677073 109.136065 271.562489 115.370441 C 271.505198 121.542316 270.031239 127.307941 267.151031 132.6569 C 264.270822 138.011067 260.473947 142.599609 255.770822 146.417318 C 251.124988 150.182943 246.010404 152.714193 240.421862 154.00586 C 236.895821 149.656901 232.187487 146.068359 226.307278 143.245442 C 220.427069 140.422526 214.104152 138.448567 207.343735 137.333984 C 200.635401 136.214192 194.312484 135.953775 188.374984 136.542317 C 182.437484 137.068359 177.526025 138.537109 173.640608 140.948567 C 169.817691 143.360026 167.822899 146.656901 167.645816 150.828776 C 167.645816 153.417318 168.760399 155.563152 170.994775 157.271485 C 173.22915 158.917318 177.406233 160.151693 183.520817 160.97461 C 201.223943 163.208985 214.958319 165.651694 224.718736 168.297527 C 234.541654 170.943361 241.598946 173.646486 245.890613 176.412111 Z M 310.22395 256.333991 C 309.932284 250.865241 309.697909 243.516282 309.520825 234.281907 C 309.343742 225.047531 309.2552 214.698572 309.2552 203.229821 C 309.2552 191.761071 309.374992 179.880861 309.609367 167.589194 C 309.843742 155.302735 310.166659 143.214192 310.578117 131.333983 C 310.989575 119.453774 311.458325 108.458982 311.989575 98.344398 C 312.578117 88.224605 313.281242 79.787105 314.109367 73.026688 C 322.104159 72.261063 331.838535 71.672521 343.307286 71.261063 C 354.833328 70.849604 367.182287 70.552729 380.359372 70.375646 C 393.531247 70.203771 406.734373 70.261063 419.963541 70.552729 C 433.197917 70.792313 445.723959 71.141271 457.546877 71.615229 C 469.364586 72.083979 479.51042 72.641271 487.97917 73.287104 C 489.44792 75.349605 490.744796 78.55273 491.859379 82.906897 C 492.979171 87.255855 493.567712 92.167314 493.625004 97.636064 C 493.744796 103.104815 493.067712 108.662107 491.598962 114.30794 C 490.187504 119.896482 487.656254 125.099608 484.01042 129.922525 C 480.421878 134.745442 475.453128 138.599609 469.098961 141.479817 C 462.750002 144.360026 454.750001 145.802734 445.109376 145.802734 C 441.932292 145.802734 438.963542 145.802734 436.197917 145.802734 C 433.489583 145.802734 430.432292 145.802734 427.020833 145.802734 C 423.671874 145.802734 419.494791 145.802734 414.494791 145.802734 C 409.55729 145.802734 403.234373 145.802734 395.531248 145.802734 C 395.531248 147.745443 395.531248 149.714193 395.531248 151.714193 C 395.531248 153.714193 395.531248 155.917318 395.531248 158.328777 C 399.057289 158.328777 403.911456 158.240235 410.083332 158.063152 C 416.260416 157.886068 422.963541 157.797527 430.197917 157.797527 C 437.432292 157.797527 444.546876 158.125652 451.546876 158.771485 C 458.546877 159.417318 464.604169 160.563152 469.718752 162.208985 C 474.541669 172.797528 476.54167 182.677737 475.718753 191.849612 C 474.953128 200.964196 471.395836 208.432947 465.041669 214.255864 C 458.69271 220.021489 449.578126 223.224614 437.697917 223.870448 C 433.640625 223.990239 429.84375 224.047531 426.317708 224.047531 C 422.786458 224.047531 418.703124 224.021489 414.05729 223.958989 C 409.411457 223.901698 403.322915 223.870448 395.796873 223.870448 C 395.796873 226.401698 395.796873 228.844406 395.796873 231.193365 C 395.796873 233.49024 395.796873 235.92774 395.796873 238.516282 C 396.557289 238.516282 397.411456 238.516282 398.354164 238.516282 C 399.354165 238.516282 400.322915 238.516282 401.265623 238.516282 C 414.145832 238.516282 427.020833 238.516282 439.901042 238.516282 C 452.838543 238.516282 465.750002 238.516282 478.630211 238.516282 C 483.276045 244.927741 486.244795 252.042325 487.536462 259.865242 C 488.833337 267.625659 488.276045 275.214201 485.864587 282.62566 C 483.453128 289.974619 478.864586 296.354827 472.098961 301.766286 C 465.395836 307.120453 456.338543 310.531912 444.932293 312.000662 C 440.875001 312.469412 435.432292 312.91212 428.609375 313.323579 C 421.786458 313.735037 414.291665 313.969412 406.114582 314.026704 C 397.942706 314.146495 389.796872 314.115245 381.682288 313.938162 C 373.562496 313.766287 366.244787 313.44337 359.713537 312.969412 C 353.244786 312.500662 348.244786 311.854828 344.718744 311.031912 C 333.484369 308.146495 325.161451 302.412119 319.755201 293.828786 C 314.401034 285.240243 311.22395 272.745451 310.22395 256.333991 Z M 310.22395 256.333991 " stroke="#802f00" stroke-width="13.550025" stroke-opacity="1" stroke-miterlimit="4"/><g fill="#ff7828" fill-opacity="1"><g transform="translate(20.390643, 271.386222)"><g><path d="M 131.890625 -101.71875 C 141.046875 -96.050781 147.820312 -89.484375 152.21875 -82.015625 C 156.613281 -74.554688 158.988281 -66.789062 159.34375 -58.71875 C 159.707031 -50.644531 158.503906 -42.875 155.734375 -35.40625 C 152.960938 -27.9375 148.957031 -21.34375 143.71875 -15.625 C 138.476562 -9.90625 132.488281 -5.660156 125.75 -2.890625 C 120.925781 -0.960938 115.019531 0.660156 108.03125 1.984375 C 101.050781 3.304688 93.460938 4.117188 85.265625 4.421875 C 77.078125 4.722656 68.675781 4.300781 60.0625 3.15625 C 51.457031 2.019531 43.148438 -0.0507812 35.140625 -3.0625 C 27.128906 -6.082031 19.875 -10.238281 13.375 -15.53125 C 9.875 -19.988281 7.789062 -24.804688 7.125 -29.984375 C 6.46875 -35.171875 6.984375 -40.140625 8.671875 -44.890625 C 10.359375 -49.648438 12.976562 -53.6875 16.53125 -57 C 20.082031 -60.3125 24.328125 -62.359375 29.265625 -63.140625 C 34.203125 -63.921875 39.625 -62.867188 45.53125 -59.984375 C 58.289062 -53.722656 68.882812 -50.195312 77.3125 -49.40625 C 85.75 -48.625 90.691406 -51.003906 92.140625 -56.546875 C 92.859375 -58.953125 93.128906 -60.847656 92.953125 -62.234375 C 92.773438 -63.617188 91.78125 -64.671875 89.96875 -65.390625 C 88.164062 -66.117188 84.972656 -66.601562 80.390625 -66.84375 C 73.046875 -67.445312 65.757812 -68.921875 58.53125 -71.265625 C 51.3125 -73.617188 44.566406 -76.960938 38.296875 -81.296875 C 32.035156 -85.628906 26.765625 -90.988281 22.484375 -97.375 C 18.210938 -103.757812 15.351562 -111.164062 13.90625 -119.59375 C 13.425781 -122.613281 13.394531 -126.320312 13.8125 -130.71875 C 14.238281 -135.113281 15.320312 -139.78125 17.0625 -144.71875 C 18.8125 -149.65625 21.460938 -154.53125 25.015625 -159.34375 C 28.578125 -164.164062 33.304688 -168.5625 39.203125 -172.53125 C 45.109375 -176.507812 52.394531 -179.644531 61.0625 -181.9375 C 67.082031 -183.613281 73.460938 -184.660156 80.203125 -185.078125 C 86.953125 -185.503906 93.671875 -185.414062 100.359375 -184.8125 C 107.046875 -184.21875 113.28125 -183.078125 119.0625 -181.390625 C 124.84375 -179.703125 129.660156 -177.59375 133.515625 -175.0625 C 139.773438 -170.851562 144.289062 -166.367188 147.0625 -161.609375 C 149.832031 -156.847656 151.1875 -152.148438 151.125 -147.515625 C 151.0625 -142.878906 149.945312 -138.539062 147.78125 -134.5 C 145.613281 -130.46875 142.78125 -127.035156 139.28125 -124.203125 C 135.789062 -121.378906 131.941406 -119.484375 127.734375 -118.515625 C 125.078125 -121.765625 121.550781 -124.441406 117.15625 -126.546875 C 112.757812 -128.660156 108.03125 -130.140625 102.96875 -130.984375 C 97.914062 -131.828125 93.160156 -132.035156 88.703125 -131.609375 C 84.242188 -131.191406 80.566406 -130.078125 77.671875 -128.265625 C 74.785156 -126.460938 73.285156 -123.992188 73.171875 -120.859375 C 73.171875 -118.929688 74.015625 -117.335938 75.703125 -116.078125 C 77.390625 -114.816406 80.519531 -113.882812 85.09375 -113.28125 C 98.34375 -111.59375 108.640625 -109.753906 115.984375 -107.765625 C 123.335938 -105.773438 128.640625 -103.757812 131.890625 -101.71875 Z M 131.890625 -101.71875 "/></g></g><g transform="translate(190.577057, 271.386222)"><g><path d="M 9.9375 -41.734375 C 9.695312 -45.828125 9.515625 -51.335938 9.390625 -58.265625 C 9.273438 -65.191406 9.21875 -72.957031 9.21875 -81.5625 C 9.21875 -90.175781 9.304688 -99.085938 9.484375 -108.296875 C 9.660156 -117.515625 9.898438 -126.582031 10.203125 -135.5 C 10.503906 -144.414062 10.863281 -152.664062 11.28125 -160.25 C 11.707031 -167.84375 12.222656 -174.164062 12.828125 -179.21875 C 18.847656 -179.820312 26.164062 -180.273438 34.78125 -180.578125 C 43.394531 -180.878906 52.640625 -181.085938 62.515625 -181.203125 C 72.390625 -181.328125 82.296875 -181.296875 92.234375 -181.109375 C 102.171875 -180.929688 111.5625 -180.660156 120.40625 -180.296875 C 129.257812 -179.941406 136.878906 -179.523438 143.265625 -179.046875 C 144.347656 -177.472656 145.3125 -175.0625 146.15625 -171.8125 C 147 -168.5625 147.453125 -164.890625 147.515625 -160.796875 C 147.578125 -156.703125 147.066406 -152.546875 145.984375 -148.328125 C 144.898438 -144.109375 143 -140.191406 140.28125 -136.578125 C 137.570312 -132.960938 133.835938 -130.070312 129.078125 -127.90625 C 124.328125 -125.738281 118.335938 -124.65625 111.109375 -124.65625 C 108.703125 -124.65625 106.472656 -124.65625 104.421875 -124.65625 C 102.378906 -124.65625 100.09375 -124.65625 97.5625 -124.65625 C 95.03125 -124.65625 91.894531 -124.65625 88.15625 -124.65625 C 84.425781 -124.65625 79.671875 -124.65625 73.890625 -124.65625 C 73.890625 -123.207031 73.890625 -121.726562 73.890625 -120.21875 C 73.890625 -118.71875 73.890625 -117.066406 73.890625 -115.265625 C 76.546875 -115.265625 80.191406 -115.320312 84.828125 -115.4375 C 89.460938 -115.5625 94.488281 -115.625 99.90625 -115.625 C 105.320312 -115.625 110.648438 -115.382812 115.890625 -114.90625 C 121.128906 -114.425781 125.675781 -113.582031 129.53125 -112.375 C 133.144531 -104.425781 134.648438 -97.019531 134.046875 -90.15625 C 133.453125 -83.289062 130.773438 -77.6875 126.015625 -73.34375 C 121.253906 -69.007812 114.421875 -66.601562 105.515625 -66.125 C 102.503906 -66 99.671875 -65.9375 97.015625 -65.9375 C 94.367188 -65.9375 91.296875 -65.96875 87.796875 -66.03125 C 84.304688 -66.09375 79.734375 -66.125 74.078125 -66.125 C 74.078125 -64.195312 74.078125 -62.359375 74.078125 -60.609375 C 74.078125 -58.867188 74.078125 -57.035156 74.078125 -55.109375 C 74.679688 -55.109375 75.34375 -55.109375 76.0625 -55.109375 C 76.78125 -55.109375 77.503906 -55.109375 78.234375 -55.109375 C 87.867188 -55.109375 97.53125 -55.109375 107.21875 -55.109375 C 116.914062 -55.109375 126.582031 -55.109375 136.21875 -55.109375 C 139.71875 -50.285156 141.945312 -44.953125 142.90625 -39.109375 C 143.875 -33.273438 143.453125 -27.585938 141.640625 -22.046875 C 139.835938 -16.503906 136.40625 -11.710938 131.34375 -7.671875 C 126.28125 -3.640625 119.472656 -1.082031 110.921875 0 C 107.910156 0.363281 103.847656 0.695312 98.734375 1 C 93.617188 1.300781 87.988281 1.476562 81.84375 1.53125 C 75.695312 1.59375 69.582031 1.5625 63.5 1.4375 C 57.414062 1.320312 51.9375 1.082031 47.0625 0.71875 C 42.1875 0.363281 38.421875 -0.113281 35.765625 -0.71875 C 27.335938 -2.882812 21.101562 -7.191406 17.0625 -13.640625 C 13.03125 -20.085938 10.65625 -29.453125 9.9375 -41.734375 Z M 9.9375 -41.734375 "/></g></g></g></svg>