<svg xmlns="http://www.w3.org/2000/svg" xmlns:xlink="http://www.w3.org/1999/xlink" width="500" zoomAndPan="magnify" viewBox="0 0 375 374.999991" height="500" preserveAspectRatio="xMidYMid meet" version="1.0"><defs><g/></defs><path stroke-linecap="butt" transform="matrix(0.75, 0, 0, 0.75, -32.167947, 38.985818)" fill="none" stroke-linejoin="miter" d="M 289.447907 166.414754 C 300.958325 173.498088 309.453117 181.748088 314.932284 191.154339 C 320.468743 200.503298 323.453118 210.242882 323.901035 220.373091 C 324.395826 230.446008 322.901034 240.185592 319.416659 249.591843 C 315.932284 258.940802 310.895825 267.216844 304.307283 274.409553 C 297.72395 281.602261 290.223949 286.914762 281.81249 290.347054 C 275.723948 292.784554 268.312489 294.831429 259.567697 296.487679 C 250.822905 298.149138 241.307279 299.175179 231.010403 299.560596 C 220.718736 299.951221 210.177069 299.425179 199.385401 297.982471 C 188.593734 296.544971 178.16665 293.946012 168.093733 290.180387 C 158.078107 286.362678 148.97394 281.133511 140.781231 274.492886 C 136.411439 268.904344 133.81248 262.873094 132.979147 256.399135 C 132.151022 249.867884 132.786439 243.643926 134.890605 237.72205 C 136.994772 231.742883 140.255189 226.680383 144.682273 222.529341 C 149.166648 218.326216 154.50519 215.753299 160.703107 214.81059 C 166.901024 213.815799 173.708316 215.112674 181.124984 218.711632 C 197.17186 226.571008 210.48436 230.998091 221.052069 231.992883 C 231.619778 232.987675 237.817696 230.0033 239.645821 223.029341 C 240.531237 220.039757 240.864571 217.685591 240.640612 215.972049 C 240.421862 214.201215 239.177071 212.87309 236.906237 211.987674 C 234.635404 211.044965 230.624987 210.440798 224.869778 210.159548 C 215.682277 209.388715 206.552069 207.534548 197.479151 204.602256 C 188.401026 201.669965 179.937483 197.487673 172.078108 192.065797 C 164.218732 186.58663 157.604149 179.83663 152.239565 171.810588 C 146.869773 163.789754 143.276023 154.492878 141.447898 143.919961 C 140.838523 140.159544 140.781231 135.539752 141.281231 130.060585 C 141.833314 124.524126 143.218731 118.659542 145.432273 112.461625 C 147.645815 106.263708 150.963523 100.149125 155.390607 94.117874 C 159.874982 88.029332 165.796858 82.498082 173.156233 77.513706 C 180.5729 72.534539 189.729151 68.607456 200.630193 65.727247 C 208.156235 63.62308 216.156236 62.326205 224.619778 61.826205 C 233.088529 61.274122 241.499987 61.383497 249.854155 62.159539 C 258.265614 62.878289 266.098947 64.315789 273.348948 66.477247 C 280.651032 68.576206 286.713532 71.206414 291.526032 74.362665 C 299.385408 79.675165 305.057283 85.31579 308.541659 91.294957 C 312.026034 97.216833 313.718742 103.107458 313.604159 108.97725 C 313.552076 114.784542 312.166659 120.211626 309.453117 125.242876 C 306.744783 130.279335 303.171867 134.597043 298.744783 138.196002 C 294.374991 141.737669 289.562491 144.117877 284.302074 145.331419 C 280.984365 141.237669 276.557281 137.862669 271.020823 135.206419 C 265.489572 132.550168 259.541655 130.696002 253.177072 129.643918 C 246.86978 128.591835 240.916654 128.341835 235.328112 128.899126 C 229.73957 129.393918 225.119778 130.779335 221.468736 133.050168 C 217.869778 135.315794 215.989569 138.414752 215.822902 142.347044 C 215.822902 144.779336 216.874986 146.800169 218.979153 148.404336 C 221.078111 149.951211 225.010403 151.117878 230.765612 151.888711 C 247.421863 153.992878 260.343739 156.289753 269.526031 158.779337 C 278.770823 161.26892 285.411449 163.815795 289.447907 166.414754 Z M 430.671875 111.800167 C 431.442708 116.279334 432.026042 122.810584 432.411458 131.38871 C 432.802083 139.909544 433.020833 149.706419 433.078125 160.774129 C 433.135417 171.784546 433.078125 183.268922 432.911458 195.222047 C 432.802083 207.117882 432.494792 218.904341 432 230.581425 C 431.557292 242.201217 431.03125 252.88351 430.421875 262.623094 C 429.869792 272.362678 429.119791 280.414761 428.182291 286.779345 C 424.416666 290.815804 419.630208 293.753304 413.817707 295.576221 C 408.010415 297.404346 401.812498 297.899138 395.223956 297.071012 C 388.640622 296.242887 382.249997 293.972054 376.05208 290.26372 C 369.854163 286.555387 364.374996 281.274136 359.614579 274.409553 C 354.854162 267.550177 351.510411 259.055385 349.572911 248.925176 C 348.963536 246.050176 348.411453 241.263717 347.911453 234.5658 C 347.468744 227.8158 347.052078 219.873091 346.666661 210.742882 C 346.333328 201.555381 346.083328 191.680381 345.921869 181.107463 C 345.755203 170.539754 345.697911 159.940795 345.755203 149.315794 C 345.864578 138.63871 346.057286 128.456418 346.333328 118.768917 C 346.666661 109.086625 347.166661 100.5085 347.828119 93.039749 C 348.54687 85.56579 349.432286 79.867873 350.48437 75.94079 C 354.692703 72.175164 359.838537 69.326206 365.921871 67.388706 C 372.067704 65.393914 378.541663 64.565789 385.348955 64.899122 C 392.156247 65.175164 398.682289 66.972039 404.937498 70.294956 C 411.24479 73.612664 416.697916 78.649123 421.291666 85.399124 C 425.885416 92.097041 429.010416 100.893916 430.671875 111.800167 Z M 430.671875 111.800167 " stroke="#10105b" stroke-width="12.750225" stroke-opacity="1" stroke-miterlimit="4"/><g fill="#6a6ab5" fill-opacity="1"><g transform="translate(60.843765, 259.485803)"><g><path d="M 124.09375 -95.703125 C 132.707031 -90.378906 139.082031 -84.203125 143.21875 -77.171875 C 147.363281 -70.148438 149.601562 -62.84375 149.9375 -55.25 C 150.28125 -47.65625 149.144531 -40.34375 146.53125 -33.3125 C 143.925781 -26.289062 140.160156 -20.085938 135.234375 -14.703125 C 130.304688 -9.316406 124.664062 -5.320312 118.3125 -2.71875 C 113.78125 -0.90625 108.226562 0.617188 101.65625 1.859375 C 95.082031 3.109375 87.941406 3.875 80.234375 4.15625 C 72.535156 4.445312 64.632812 4.050781 56.53125 2.96875 C 48.425781 1.894531 40.601562 -0.0546875 33.0625 -2.890625 C 25.53125 -5.722656 18.703125 -9.632812 12.578125 -14.625 C 9.296875 -18.8125 7.34375 -23.34375 6.71875 -28.21875 C 6.09375 -33.09375 6.570312 -37.765625 8.15625 -42.234375 C 9.75 -46.710938 12.210938 -50.507812 15.546875 -53.625 C 18.890625 -56.75 22.882812 -58.675781 27.53125 -59.40625 C 32.1875 -60.144531 37.289062 -59.15625 42.84375 -56.4375 C 54.851562 -50.539062 64.820312 -47.222656 72.75 -46.484375 C 80.6875 -45.753906 85.335938 -47.992188 86.703125 -53.203125 C 87.378906 -55.472656 87.628906 -57.257812 87.453125 -58.5625 C 87.285156 -59.863281 86.351562 -60.851562 84.65625 -61.53125 C 82.957031 -62.21875 79.957031 -62.675781 75.65625 -62.90625 C 68.738281 -63.46875 61.878906 -64.851562 55.078125 -67.0625 C 48.273438 -69.269531 41.925781 -72.414062 36.03125 -76.5 C 30.144531 -80.582031 25.1875 -85.625 21.15625 -91.625 C 17.132812 -97.632812 14.445312 -104.609375 13.09375 -112.546875 C 12.632812 -115.378906 12.601562 -118.863281 13 -123 C 13.394531 -127.132812 14.414062 -131.523438 16.0625 -136.171875 C 17.707031 -140.816406 20.203125 -145.40625 23.546875 -149.9375 C 26.890625 -154.46875 31.335938 -158.601562 36.890625 -162.34375 C 42.441406 -166.082031 49.296875 -169.03125 57.453125 -171.1875 C 63.117188 -172.769531 69.125 -173.757812 75.46875 -174.15625 C 81.820312 -174.5625 88.144531 -174.476562 94.4375 -173.90625 C 100.726562 -173.34375 106.59375 -172.265625 112.03125 -170.671875 C 117.46875 -169.085938 122 -167.109375 125.625 -164.734375 C 131.519531 -160.765625 135.769531 -156.539062 138.375 -152.0625 C 140.988281 -147.582031 142.265625 -143.160156 142.203125 -138.796875 C 142.148438 -134.441406 141.101562 -130.363281 139.0625 -126.5625 C 137.019531 -122.769531 134.351562 -119.539062 131.0625 -116.875 C 127.78125 -114.207031 124.15625 -112.421875 120.1875 -111.515625 C 117.695312 -114.578125 114.382812 -117.097656 110.25 -119.078125 C 106.113281 -121.066406 101.664062 -122.457031 96.90625 -123.25 C 92.144531 -124.039062 87.664062 -124.238281 83.46875 -123.84375 C 79.28125 -123.445312 75.820312 -122.398438 73.09375 -120.703125 C 70.375 -119.003906 68.957031 -116.679688 68.84375 -113.734375 C 68.84375 -111.921875 69.632812 -110.414062 71.21875 -109.21875 C 72.8125 -108.03125 75.757812 -107.15625 80.0625 -106.59375 C 92.53125 -105 102.222656 -103.265625 109.140625 -101.390625 C 116.054688 -99.523438 121.039062 -97.628906 124.09375 -95.703125 Z M 124.09375 -95.703125 "/></g></g><g transform="translate(220.983755, 259.485803)"><g><path d="M 69.875 -136.6875 C 70.4375 -133.28125 70.859375 -128.375 71.140625 -121.96875 C 71.421875 -115.570312 71.585938 -108.234375 71.640625 -99.953125 C 71.703125 -91.679688 71.675781 -83.066406 71.5625 -74.109375 C 71.457031 -65.160156 71.234375 -56.320312 70.890625 -47.59375 C 70.546875 -38.875 70.144531 -30.859375 69.6875 -23.546875 C 69.238281 -16.234375 68.675781 -10.195312 68 -5.4375 C 65.164062 -2.375 61.566406 -0.164062 57.203125 1.1875 C 52.835938 2.550781 48.191406 2.921875 43.265625 2.296875 C 38.335938 1.671875 33.550781 -0.0234375 28.90625 -2.796875 C 24.257812 -5.578125 20.148438 -9.546875 16.578125 -14.703125 C 13.003906 -19.859375 10.484375 -26.234375 9.015625 -33.828125 C 8.554688 -35.984375 8.15625 -39.582031 7.8125 -44.625 C 7.476562 -49.664062 7.164062 -55.613281 6.875 -62.46875 C 6.59375 -69.332031 6.394531 -76.726562 6.28125 -84.65625 C 6.175781 -92.59375 6.148438 -100.554688 6.203125 -108.546875 C 6.265625 -116.535156 6.40625 -124.15625 6.625 -131.40625 C 6.851562 -138.664062 7.222656 -145.097656 7.734375 -150.703125 C 8.242188 -156.316406 8.894531 -160.597656 9.6875 -163.546875 C 12.863281 -166.378906 16.742188 -168.53125 21.328125 -170 C 25.921875 -171.46875 30.765625 -172.085938 35.859375 -171.859375 C 40.960938 -171.640625 45.863281 -170.28125 50.5625 -167.78125 C 55.269531 -165.289062 59.351562 -161.523438 62.8125 -156.484375 C 66.269531 -151.441406 68.625 -144.84375 69.875 -136.6875 Z M 69.875 -136.6875 "/></g></g></g></svg>