<svg xmlns="http://www.w3.org/2000/svg" xmlns:xlink="http://www.w3.org/1999/xlink" width="500" zoomAndPan="magnify" viewBox="0 0 375 374.999991" height="500" preserveAspectRatio="xMidYMid meet" version="1.0"><defs><g/></defs><path stroke-linecap="butt" transform="matrix(0.75, 0, 0, 0.75, -32.167947, 39.385662)" fill="none" stroke-linejoin="miter" d="M 217.765611 163.418087 C 229.093737 170.386837 237.453112 178.50663 242.848946 187.767047 C 248.291655 196.970173 251.234363 206.558715 251.671863 216.527465 C 252.161447 226.438924 250.692696 236.027467 247.260405 245.287884 C 243.828113 254.49101 238.869779 262.636843 232.390612 269.714969 C 225.906236 276.798303 218.526028 282.02747 210.244777 285.40247 C 204.255193 287.803512 196.95311 289.819137 188.348942 291.449345 C 179.744775 293.084762 170.374983 294.095179 160.239565 294.475387 C 150.109356 294.855596 139.734356 294.339971 129.109355 292.923304 C 118.489563 291.506637 108.223937 288.944137 98.30727 285.241012 C 88.447894 281.480595 79.48956 276.334761 71.42706 269.798302 C 67.124976 264.298302 64.562476 258.360802 63.744767 251.985801 C 62.927059 245.558717 63.557267 239.433717 65.624976 233.600383 C 67.697893 227.720175 70.911435 222.735799 75.265602 218.652466 C 79.67706 214.51184 84.937477 211.975382 91.036436 211.053507 C 97.135395 210.069132 103.83852 211.350382 111.135396 214.892049 C 126.932272 222.626424 140.031231 226.985799 150.437482 227.964966 C 160.838524 228.944133 166.942691 226.006633 168.739566 219.142049 C 169.609358 216.19934 169.937483 213.88684 169.718733 212.194132 C 169.499983 210.454548 168.276024 209.147257 166.041649 208.272257 C 163.807274 207.350382 159.859357 206.746215 154.197898 206.475381 C 145.151023 205.714965 136.166647 203.88684 127.234355 201.001423 C 118.296854 198.116006 109.963521 194.001422 102.229145 188.66288 C 94.494769 183.272255 87.984352 176.626421 82.703102 168.725379 C 77.416643 160.829545 73.880185 151.678503 72.078101 141.272252 C 71.479143 137.569127 71.42706 133.022252 71.916643 127.631626 C 72.463518 122.183709 73.822893 116.407667 75.999977 110.308708 C 78.182268 104.204541 81.447894 98.188916 85.807269 92.251416 C 90.218728 86.256624 96.046853 80.813915 103.291645 75.907665 C 110.593729 71.006623 119.604146 67.142039 130.338522 64.308705 C 137.744772 62.235789 145.614565 60.954539 153.947898 60.464955 C 162.286441 59.923289 170.562483 60.032664 178.786442 60.79308 C 187.067692 61.501414 194.776026 62.91808 201.911443 65.043081 C 209.104152 67.110789 215.067694 69.699331 219.807278 72.803498 C 227.541653 78.032665 233.124987 83.589957 236.557279 89.470165 C 239.989571 95.303499 241.651029 101.100375 241.541654 106.876417 C 241.484362 112.595167 240.124987 117.933709 237.453112 122.892043 C 234.786445 127.845168 231.27082 132.095168 226.916653 135.636835 C 222.609361 139.12121 217.869778 141.464961 212.697902 142.662877 C 209.427069 138.631627 205.072902 135.30871 199.624985 132.694127 C 194.177068 130.079543 188.322901 128.256626 182.057275 127.220168 C 175.848942 126.18371 169.989566 125.938918 164.489566 126.485793 C 158.989565 126.975376 154.44269 128.33996 150.843732 130.569126 C 147.307273 132.803502 145.453106 135.855585 145.291648 139.720169 C 145.291648 142.121211 146.322898 144.105586 148.395815 145.688919 C 150.463523 147.209753 154.333315 148.355586 159.994774 149.116003 C 176.390608 151.188919 189.109359 153.449336 198.151026 155.902461 C 207.249985 158.350378 213.786444 160.855587 217.765611 163.418087 Z M 388.473955 61.44933 C 403.666665 61.282664 416.932291 63.001414 428.260416 66.595164 C 439.645834 70.136831 449.343751 74.735789 457.34896 80.402457 C 465.411461 86.069124 472.083336 92.084749 477.369795 98.459749 C 482.651045 104.83475 486.817712 110.907667 489.869795 116.678501 C 492.921879 122.402459 495.125004 127.032668 496.489588 130.569126 C 501.661463 144.839961 504.739588 159.25142 505.718755 173.793088 C 506.70313 188.282672 504.958338 202.881631 500.489588 217.589966 C 488.29167 256.699343 462.333335 280.938928 422.624999 290.30872 C 406.55729 294.173304 390.703122 295.402471 375.072913 293.985804 C 359.437495 292.569137 344.187494 288.017053 329.317702 280.33997 C 315.208326 273.037886 303.932283 263.563927 295.489574 251.907676 C 287.098949 240.194134 281.21874 226.683716 277.838532 211.376423 C 275.609365 201.683714 274.302073 191.798297 273.916656 181.720172 C 273.536448 171.589963 274.109365 161.756629 275.635406 152.225378 C 277.213531 142.688919 279.802073 134.136835 283.395824 126.569126 C 286.93749 118.668084 291.541657 110.907667 297.203116 103.282666 C 302.869783 95.600374 309.869784 88.600374 318.203118 82.282665 C 326.536451 75.964956 336.505202 70.923289 348.109369 67.168081 C 359.708329 63.35558 373.166663 61.44933 388.473955 61.44933 Z M 389.614581 141.272252 C 384.11458 141.272252 379.02083 142.798294 374.338538 145.850377 C 369.651038 148.902461 365.947912 153.449336 363.223954 159.496212 C 360.557287 165.485795 359.520829 172.949338 360.119787 181.88163 C 360.718745 190.543089 362.677079 197.407673 365.999996 202.475381 C 369.380204 207.485798 373.328121 211.079548 377.848955 213.256632 C 382.42708 215.438924 386.64583 216.360799 390.515622 216.037882 C 394.489581 215.76184 398.520831 214.485799 402.609373 212.194132 C 406.74479 209.85559 410.260415 206.147256 413.145832 201.084756 C 416.036457 196.017047 417.692707 189.31913 418.130207 180.985796 C 418.729166 172.543088 417.723957 165.37642 415.109374 159.496212 C 412.546874 153.610795 408.979165 149.116003 404.406248 146.011836 C 399.885415 142.855586 394.953123 141.272252 389.614581 141.272252 Z M 389.614581 141.272252 " stroke="#7e0030" stroke-width="12.550275" stroke-opacity="1" stroke-miterlimit="4"/><g fill="#ff5757" fill-opacity="1"><g transform="translate(9.023456, 256.135647)"><g><path d="M 122.15625 -94.203125 C 130.632812 -88.960938 136.910156 -82.882812 140.984375 -75.96875 C 145.054688 -69.050781 147.257812 -61.851562 147.59375 -54.375 C 147.925781 -46.90625 146.804688 -39.710938 144.234375 -32.796875 C 141.671875 -25.878906 137.960938 -19.769531 133.109375 -14.46875 C 128.253906 -9.175781 122.707031 -5.242188 116.46875 -2.671875 C 112 -0.890625 106.53125 0.613281 100.0625 1.84375 C 93.59375 3.070312 86.566406 3.820312 78.984375 4.09375 C 71.398438 4.375 63.617188 3.984375 55.640625 2.921875 C 47.660156 1.867188 39.960938 -0.0507812 32.546875 -2.84375 C 25.128906 -5.632812 18.40625 -9.484375 12.375 -14.390625 C 9.144531 -18.515625 7.222656 -22.972656 6.609375 -27.765625 C 5.992188 -32.566406 6.46875 -37.171875 8.03125 -41.578125 C 9.59375 -45.984375 12.019531 -49.71875 15.3125 -52.78125 C 18.601562 -55.851562 22.535156 -57.753906 27.109375 -58.484375 C 31.679688 -59.210938 36.703125 -58.234375 42.171875 -55.546875 C 53.992188 -49.753906 63.804688 -46.492188 71.609375 -45.765625 C 79.421875 -45.035156 84 -47.238281 85.34375 -52.375 C 86.007812 -54.601562 86.257812 -56.359375 86.09375 -57.640625 C 85.925781 -58.929688 85.003906 -59.910156 83.328125 -60.578125 C 81.660156 -61.242188 78.707031 -61.6875 74.46875 -61.90625 C 67.65625 -62.46875 60.898438 -63.835938 54.203125 -66.015625 C 47.515625 -68.191406 41.269531 -71.285156 35.46875 -75.296875 C 29.664062 -79.316406 24.785156 -84.28125 20.828125 -90.1875 C 16.867188 -96.101562 14.222656 -102.96875 12.890625 -110.78125 C 12.441406 -113.5625 12.410156 -116.988281 12.796875 -121.0625 C 13.191406 -125.132812 14.195312 -129.457031 15.8125 -134.03125 C 17.425781 -138.601562 19.878906 -143.117188 23.171875 -147.578125 C 26.460938 -152.046875 30.84375 -156.117188 36.3125 -159.796875 C 41.78125 -163.484375 48.53125 -166.382812 56.5625 -168.5 C 62.132812 -170.0625 68.046875 -171.035156 74.296875 -171.421875 C 80.546875 -171.816406 86.765625 -171.734375 92.953125 -171.171875 C 99.140625 -170.617188 104.910156 -169.5625 110.265625 -168 C 115.628906 -166.4375 120.09375 -164.484375 123.65625 -162.140625 C 129.457031 -158.242188 133.640625 -154.085938 136.203125 -149.671875 C 138.773438 -145.265625 140.03125 -140.914062 139.96875 -136.625 C 139.914062 -132.332031 138.882812 -128.316406 136.875 -124.578125 C 134.863281 -120.835938 132.238281 -117.65625 129 -115.03125 C 125.769531 -112.414062 122.207031 -110.660156 118.3125 -109.765625 C 115.851562 -112.773438 112.585938 -115.253906 108.515625 -117.203125 C 104.441406 -119.160156 100.0625 -120.53125 95.375 -121.3125 C 90.695312 -122.09375 86.289062 -122.285156 82.15625 -121.890625 C 78.03125 -121.503906 74.628906 -120.472656 71.953125 -118.796875 C 69.273438 -117.128906 67.878906 -114.847656 67.765625 -111.953125 C 67.765625 -110.160156 68.546875 -108.675781 70.109375 -107.5 C 71.671875 -106.332031 74.570312 -105.472656 78.8125 -104.921875 C 91.082031 -103.359375 100.617188 -101.65625 107.421875 -99.8125 C 114.234375 -97.96875 119.144531 -96.097656 122.15625 -94.203125 Z M 122.15625 -94.203125 "/></g></g><g transform="translate(166.65302, 256.135647)"><g><path d="M 92.53125 -170.6875 C 103.914062 -170.789062 113.875 -169.503906 122.40625 -166.828125 C 130.9375 -164.148438 138.210938 -160.691406 144.234375 -156.453125 C 150.265625 -152.210938 155.257812 -147.691406 159.21875 -142.890625 C 163.175781 -138.097656 166.296875 -133.554688 168.578125 -129.265625 C 170.867188 -124.972656 172.519531 -121.488281 173.53125 -118.8125 C 177.425781 -108.101562 179.738281 -97.304688 180.46875 -86.421875 C 181.195312 -75.546875 179.882812 -64.585938 176.53125 -53.546875 C 167.382812 -24.203125 147.921875 -6.019531 118.140625 1 C 106.085938 3.90625 94.203125 4.828125 82.484375 3.765625 C 70.773438 2.703125 59.34375 -0.726562 48.1875 -6.53125 C 37.59375 -11.988281 29.144531 -19.097656 22.84375 -27.859375 C 16.539062 -36.617188 12.101562 -46.742188 9.53125 -58.234375 C 7.863281 -65.484375 6.890625 -72.898438 6.609375 -80.484375 C 6.328125 -88.066406 6.769531 -95.425781 7.9375 -102.5625 C 9.113281 -109.707031 11.039062 -116.125 13.71875 -121.8125 C 16.394531 -127.726562 19.851562 -133.554688 24.09375 -139.296875 C 28.332031 -145.046875 33.578125 -150.289062 39.828125 -155.03125 C 46.078125 -159.769531 53.550781 -163.5625 62.25 -166.40625 C 70.945312 -169.257812 81.039062 -170.6875 92.53125 -170.6875 Z M 93.375 -110.78125 C 89.25 -110.78125 85.425781 -109.632812 81.90625 -107.34375 C 78.394531 -105.050781 75.632812 -101.644531 73.625 -97.125 C 71.613281 -92.613281 70.832031 -87.007812 71.28125 -80.3125 C 71.726562 -73.84375 73.207031 -68.710938 75.71875 -64.921875 C 78.226562 -61.128906 81.179688 -58.425781 84.578125 -56.8125 C 87.984375 -55.195312 91.140625 -54.5 94.046875 -54.71875 C 97.054688 -54.9375 100.09375 -55.910156 103.15625 -57.640625 C 106.226562 -59.367188 108.847656 -62.128906 111.015625 -65.921875 C 113.191406 -69.722656 114.453125 -74.742188 114.796875 -80.984375 C 115.234375 -87.347656 114.476562 -92.734375 112.53125 -97.140625 C 110.582031 -101.546875 107.90625 -104.921875 104.5 -107.265625 C 101.09375 -109.609375 97.382812 -110.78125 93.375 -110.78125 Z M 93.375 -110.78125 "/></g></g></g></svg>