<svg xmlns="http://www.w3.org/2000/svg" xmlns:xlink="http://www.w3.org/1999/xlink" width="500" zoomAndPan="magnify" viewBox="0 0 375 374.999991" height="500" preserveAspectRatio="xMidYMid meet" version="1.0"><defs><g/></defs><path stroke-linecap="butt" transform="matrix(0.75, 0, 0, 0.75, -32.167947, 38.086169)" fill="none" stroke-linejoin="miter" d="M 217.447903 171.916369 C 229.36457 179.249703 238.156237 187.786161 243.828113 197.525745 C 249.55728 207.208038 252.65103 217.291372 253.109363 227.775747 C 253.624988 238.202831 252.078113 248.286165 248.468738 258.025749 C 244.859363 267.708042 239.645821 276.270542 232.828112 283.718459 C 226.010403 291.166377 218.249986 296.666377 209.541652 300.21846 C 203.239568 302.739294 195.562484 304.859086 186.510401 306.577836 C 177.458317 308.296586 167.604149 309.359086 156.947899 309.760128 C 146.291648 310.161169 135.374981 309.614294 124.203105 308.124711 C 113.031229 306.635128 102.234353 303.942419 91.807269 300.046585 C 81.437477 296.09346 72.010393 290.682002 63.531226 283.807001 C 59.005184 278.020542 56.312475 271.77575 55.4531 265.072625 C 54.593725 258.312208 55.255184 251.864291 57.432267 245.734082 C 59.609351 239.546582 62.989559 234.306998 67.572893 230.010123 C 72.213518 225.655956 77.73956 222.989289 84.156227 222.01533 C 90.572894 220.98408 97.61977 222.333039 105.296854 226.056997 C 121.911438 234.192414 135.692689 238.775748 146.635398 239.806998 C 157.578107 240.838248 163.994774 237.744498 165.885399 230.525748 C 166.802066 227.431997 167.145816 224.994497 166.916649 223.218455 C 166.687483 221.385122 165.395816 220.010122 163.046857 219.093455 C 160.697899 218.119497 156.546857 217.489288 150.588523 217.20283 C 141.078106 216.400747 131.62498 214.48408 122.229146 211.447621 C 112.833312 208.411163 104.067687 204.083038 95.93227 198.468454 C 87.796852 192.796578 80.947894 185.806995 75.390602 177.499702 C 69.83331 169.19241 66.109351 159.56741 64.218726 148.624701 C 63.588517 144.728867 63.531226 139.947617 64.046851 134.275741 C 64.619768 128.546574 66.052059 122.473657 68.343726 116.05699 C 70.635393 109.640323 74.072893 103.306989 78.656227 97.062197 C 83.296852 90.760113 89.427061 85.030946 97.046853 79.874696 C 104.723937 74.718446 114.208312 70.650737 125.494772 67.67157 C 133.286439 65.494487 141.562481 64.150737 150.328106 63.635112 C 159.093732 63.062195 167.802066 63.176778 176.453108 63.978862 C 185.161442 64.723653 193.270818 66.213237 200.776026 68.447612 C 208.338527 70.624695 214.609361 73.343446 219.593736 76.609071 C 227.729153 82.109071 233.604154 87.952822 237.213529 94.140322 C 240.822904 100.270531 242.567696 106.374698 242.453113 112.447615 C 242.395821 118.46324 240.963529 124.077824 238.156237 129.291366 C 235.348945 134.504908 231.656237 138.973658 227.072903 142.697617 C 222.546861 146.364284 217.562486 148.827826 212.119777 150.088242 C 208.682277 145.848659 204.098943 142.353867 198.369776 139.603867 C 192.640609 136.853866 186.479151 134.931991 179.890608 133.84345 C 173.359358 132.754908 167.203108 132.499699 161.416649 133.072616 C 155.63019 133.588241 150.843732 135.020533 147.062481 137.369491 C 143.338523 139.71845 141.390606 142.926783 141.218731 146.994492 C 141.218731 149.515326 142.307273 151.603867 144.484356 153.265326 C 146.66144 154.869493 150.729148 156.072618 156.687482 156.874701 C 173.932275 159.051785 187.312484 161.431993 196.822901 164.010118 C 206.39061 166.588243 213.265611 169.22366 217.447903 171.916369 Z M 506.822922 224.249706 C 505.104171 239.260123 500.718755 252.181999 493.671879 263.010125 C 486.625004 273.780959 477.859378 282.687209 467.375002 289.734085 C 456.890627 296.723669 445.546876 301.911169 433.34375 305.291377 C 421.140624 308.671586 408.937498 310.359086 396.734373 310.359086 C 386.880205 310.359086 376.999996 309.786169 367.088537 308.640336 C 357.177078 307.551794 347.578119 305.374711 338.296869 302.109086 C 329.07291 298.84346 320.593743 294.088252 312.859367 287.84346 C 305.124992 281.541376 298.593741 273.322625 293.265616 263.182 C 287.937491 252.984082 284.270824 240.291373 282.265615 225.109081 C 280.203115 210.900746 279.203115 195.431995 279.260407 178.702828 C 279.37499 161.97366 280.119782 144.900742 281.494782 127.484074 C 282.927074 110.010115 284.729157 93.197614 286.90624 77.041363 C 288.624991 75.208029 291.749991 73.515321 296.276033 71.968446 C 300.859366 70.364279 306.244783 69.192404 312.432284 68.447612 C 318.619784 67.645529 325.036451 67.530945 331.682285 68.103862 C 338.328119 68.619487 344.572911 70.051779 350.416661 72.400737 C 356.260412 74.749696 361.213537 78.129904 365.281246 82.541363 C 369.348954 86.89553 371.869788 92.650739 372.843746 99.812197 C 373.130204 102.333031 373.302079 107.176781 373.359371 114.33824 C 373.473954 121.442407 373.531246 129.890324 373.531246 139.6872 C 373.531246 149.426784 373.645829 159.655951 373.874996 170.369494 C 374.104163 181.083036 374.479163 191.306995 374.994788 201.046579 C 375.567705 210.728871 376.39583 218.92158 377.484371 225.624706 C 378.45833 230.780956 380.609372 234.848665 383.932289 237.827831 C 387.312497 240.806998 391.119789 242.411165 395.359373 242.640332 C 399.598956 242.869498 403.49479 241.55179 407.046873 238.687206 C 410.656249 235.765331 413.093749 231.098664 414.354165 224.681997 C 415.442707 219.067413 416.416666 211.73408 417.276041 202.681996 C 418.135416 193.57262 418.791666 183.629911 419.249999 172.859077 C 419.765624 162.030951 419.968749 151.062201 419.854166 139.947617 C 419.796874 128.833033 419.453124 118.317407 418.822916 108.405948 C 418.192707 98.494489 417.187499 90.015322 415.812499 82.968446 C 418.906249 79.817404 423.145833 77.124696 428.53125 74.890321 C 433.973958 72.598654 440.046876 71.025737 446.750001 70.166362 C 453.453126 69.306987 460.213544 69.39032 467.031252 70.42157 C 473.848961 71.395529 480.208336 73.572612 486.109379 76.952821 C 492.067712 80.333029 497.052088 85.14553 501.062505 91.390322 C 505.072921 97.635114 507.536463 105.541364 508.45313 115.109073 C 509.083338 121.52574 509.656255 127.369491 510.17188 132.640324 C 510.744797 137.853866 511.145839 143.15595 511.375005 148.541367 C 511.604172 153.926784 511.635422 159.999701 511.463547 166.760118 C 511.348964 173.463244 510.916672 181.426786 510.17188 190.650745 C 509.48438 199.874704 508.369797 211.072621 506.822922 224.249706 Z M 506.822922 224.249706 " stroke="#002557" stroke-width="13.200112" stroke-opacity="1" stroke-miterlimit="4"/><g fill="#004aad" fill-opacity="1"><g transform="translate(2.460957, 266.086154)"><g><path d="M 128.484375 -99.09375 C 137.398438 -93.570312 144 -87.171875 148.28125 -79.890625 C 152.5625 -72.617188 154.878906 -65.050781 155.234375 -57.1875 C 155.585938 -49.332031 154.414062 -41.765625 151.71875 -34.484375 C 149.019531 -27.210938 145.117188 -20.789062 140.015625 -15.21875 C 134.910156 -9.644531 129.070312 -5.507812 122.5 -2.8125 C 117.800781 -0.9375 112.050781 0.644531 105.25 1.9375 C 98.445312 3.226562 91.054688 4.019531 83.078125 4.3125 C 75.097656 4.601562 66.910156 4.191406 58.515625 3.078125 C 50.128906 1.960938 42.035156 -0.0546875 34.234375 -2.984375 C 26.429688 -5.921875 19.363281 -9.972656 13.03125 -15.140625 C 9.625 -19.472656 7.597656 -24.160156 6.953125 -29.203125 C 6.304688 -34.253906 6.800781 -39.097656 8.4375 -43.734375 C 10.082031 -48.367188 12.632812 -52.300781 16.09375 -55.53125 C 19.5625 -58.757812 23.703125 -60.753906 28.515625 -61.515625 C 33.328125 -62.273438 38.609375 -61.25 44.359375 -58.4375 C 56.796875 -52.332031 67.117188 -48.894531 75.328125 -48.125 C 83.535156 -47.363281 88.347656 -49.6875 89.765625 -55.09375 C 90.460938 -57.4375 90.722656 -59.28125 90.546875 -60.625 C 90.367188 -61.976562 89.398438 -63.003906 87.640625 -63.703125 C 85.890625 -64.410156 82.78125 -64.882812 78.3125 -65.125 C 71.15625 -65.707031 64.054688 -67.140625 57.015625 -69.421875 C 49.984375 -71.710938 43.414062 -74.96875 37.3125 -79.1875 C 31.207031 -83.414062 26.070312 -88.640625 21.90625 -94.859375 C 17.738281 -101.078125 14.953125 -108.296875 13.546875 -116.515625 C 13.078125 -119.441406 13.046875 -123.046875 13.453125 -127.328125 C 13.867188 -131.617188 14.925781 -136.164062 16.625 -140.96875 C 18.332031 -145.78125 20.914062 -150.53125 24.375 -155.21875 C 27.832031 -159.914062 32.4375 -164.203125 38.1875 -168.078125 C 43.9375 -171.953125 51.035156 -175.003906 59.484375 -177.234375 C 65.347656 -178.878906 71.566406 -179.90625 78.140625 -180.3125 C 84.710938 -180.71875 91.253906 -180.628906 97.765625 -180.046875 C 104.273438 -179.460938 110.347656 -178.347656 115.984375 -176.703125 C 121.617188 -175.054688 126.3125 -173.003906 130.0625 -170.546875 C 136.164062 -166.441406 140.566406 -162.070312 143.265625 -157.4375 C 145.960938 -152.800781 147.28125 -148.222656 147.21875 -143.703125 C 147.164062 -139.179688 146.082031 -134.957031 143.96875 -131.03125 C 141.851562 -127.101562 139.09375 -123.757812 135.6875 -121 C 132.289062 -118.238281 128.539062 -116.390625 124.4375 -115.453125 C 121.851562 -118.617188 118.421875 -121.226562 114.140625 -123.28125 C 109.859375 -125.34375 105.25 -126.78125 100.3125 -127.59375 C 95.382812 -128.414062 90.75 -128.617188 86.40625 -128.203125 C 82.070312 -127.796875 78.492188 -126.710938 75.671875 -124.953125 C 72.859375 -123.191406 71.394531 -120.789062 71.28125 -117.75 C 71.28125 -115.863281 72.097656 -114.304688 73.734375 -113.078125 C 75.378906 -111.847656 78.429688 -110.941406 82.890625 -110.359375 C 95.796875 -108.710938 105.828125 -106.921875 112.984375 -104.984375 C 120.148438 -103.046875 125.316406 -101.082031 128.484375 -99.09375 Z M 128.484375 -99.09375 "/></g></g><g transform="translate(168.252946, 266.086154)"><g><path d="M 179.703125 -59.84375 C 178.410156 -48.570312 175.125 -38.890625 169.84375 -30.796875 C 164.5625 -22.703125 157.988281 -16.015625 150.125 -10.734375 C 142.269531 -5.453125 133.765625 -1.550781 124.609375 0.96875 C 115.453125 3.488281 106.300781 4.75 97.15625 4.75 C 89.757812 4.75 82.335938 4.335938 74.890625 3.515625 C 67.441406 2.691406 60.253906 1.050781 53.328125 -1.40625 C 46.398438 -3.875 40.03125 -7.453125 34.21875 -12.140625 C 28.414062 -16.835938 23.519531 -23 19.53125 -30.625 C 15.539062 -38.25 12.785156 -47.753906 11.265625 -59.140625 C 9.734375 -69.816406 9 -81.429688 9.0625 -93.984375 C 9.125 -106.535156 9.679688 -119.351562 10.734375 -132.4375 C 11.785156 -145.519531 13.132812 -158.101562 14.78125 -170.1875 C 16.070312 -171.59375 18.414062 -172.882812 21.8125 -174.0625 C 25.21875 -175.238281 29.238281 -176.117188 33.875 -176.703125 C 38.507812 -177.285156 43.320312 -177.375 48.3125 -176.96875 C 53.300781 -176.5625 57.992188 -175.476562 62.390625 -173.71875 C 66.785156 -171.957031 70.507812 -169.429688 73.5625 -166.140625 C 76.613281 -162.859375 78.492188 -158.519531 79.203125 -153.125 C 79.429688 -151.238281 79.578125 -147.625 79.640625 -142.28125 C 79.703125 -136.945312 79.734375 -130.613281 79.734375 -123.28125 C 79.734375 -115.945312 79.816406 -108.257812 79.984375 -100.21875 C 80.160156 -92.1875 80.453125 -84.535156 80.859375 -77.265625 C 81.273438 -69.992188 81.894531 -63.832031 82.71875 -58.78125 C 83.425781 -54.90625 85.039062 -51.851562 87.5625 -49.625 C 90.082031 -47.394531 92.925781 -46.191406 96.09375 -46.015625 C 99.257812 -45.847656 102.191406 -46.847656 104.890625 -49.015625 C 107.585938 -51.179688 109.410156 -54.671875 110.359375 -59.484375 C 111.171875 -63.710938 111.898438 -69.226562 112.546875 -76.03125 C 113.191406 -82.832031 113.691406 -90.28125 114.046875 -98.375 C 114.398438 -106.476562 114.546875 -114.691406 114.484375 -123.015625 C 114.429688 -131.347656 114.164062 -139.238281 113.6875 -146.6875 C 113.21875 -154.144531 112.457031 -160.515625 111.40625 -165.796875 C 113.75 -168.140625 116.945312 -170.160156 121 -171.859375 C 125.050781 -173.566406 129.597656 -174.742188 134.640625 -175.390625 C 139.679688 -176.035156 144.753906 -175.972656 149.859375 -175.203125 C 154.960938 -174.441406 159.742188 -172.800781 164.203125 -170.28125 C 168.660156 -167.757812 172.382812 -164.148438 175.375 -159.453125 C 178.375 -154.765625 180.222656 -148.84375 180.921875 -141.6875 C 181.390625 -136.875 181.828125 -132.5 182.234375 -128.5625 C 182.648438 -124.632812 182.945312 -120.644531 183.125 -116.59375 C 183.300781 -112.550781 183.332031 -108.003906 183.21875 -102.953125 C 183.101562 -97.910156 182.78125 -91.925781 182.25 -85 C 181.71875 -78.082031 180.867188 -69.695312 179.703125 -59.84375 Z M 179.703125 -59.84375 "/></g></g></g></svg>