<svg xmlns="http://www.w3.org/2000/svg" xmlns:xlink="http://www.w3.org/1999/xlink" width="500" zoomAndPan="magnify" viewBox="0 0 375 374.999991" height="500" preserveAspectRatio="xMidYMid meet" version="1.0"><defs><g/></defs><path stroke-linecap="butt" transform="matrix(0.75, 0, 0, 0.75, -32.167947, 37.38623)" fill="none" stroke-linejoin="miter" d="M 263.520822 71.615239 C 266.109364 74.964198 268.229156 79.787115 269.874989 86.078782 C 271.578114 92.313157 272.34374 99.104824 272.166656 106.458992 C 271.989573 113.750659 270.463531 120.776701 267.578114 127.542326 C 264.697906 134.245452 260.083322 139.922535 253.729155 144.568369 C 247.380196 149.214203 238.822904 151.860036 228.057278 152.50587 C 223.885403 152.682953 220.385403 152.891286 217.562486 153.125661 C 214.796861 153.360036 213.093736 153.47462 212.442694 153.47462 C 212.739569 162.47462 212.916652 172.354829 212.973944 183.115247 C 213.093736 193.880872 213.062486 204.964206 212.885402 216.375665 C 212.770819 227.781916 212.442694 238.8965 211.916652 249.719418 C 211.447902 260.542335 210.885402 270.656919 210.239569 280.068378 C 209.593735 289.474629 208.79686 297.474629 207.85936 304.063171 C 203.85936 308.531921 198.770818 311.735047 192.598943 313.677755 C 186.421859 315.615255 179.833317 316.146505 172.838525 315.266297 C 165.838524 314.38088 159.046857 311.91213 152.458315 307.854838 C 145.869773 303.735046 140.052064 297.974629 134.989564 290.56317 C 129.932272 283.151711 126.37498 273.834003 124.317688 262.599627 C 123.671855 259.24546 123.083313 253.83921 122.552063 246.365251 C 122.083313 238.8965 121.640605 230.167333 121.229146 220.167332 C 120.87498 210.11004 120.614563 199.349623 120.43748 187.880872 C 120.260396 176.354829 120.260396 164.797537 120.43748 153.214203 C 112.380187 153.860036 104.08852 154.151703 95.55727 154.094411 C 87.088519 154.03712 78.916643 153.182953 71.036435 151.537119 C 67.979143 147.537119 65.713518 142.360036 64.244768 136.011077 C 62.833309 129.65691 62.447892 122.953784 63.098934 115.896492 C 63.744767 108.8392 65.593726 102.104825 68.656226 95.698574 C 71.713518 89.287115 76.213518 83.964198 82.151019 79.729823 C 88.088519 75.438156 95.61977 72.964198 104.734354 72.318364 C 109.911437 72.026698 116.703104 71.787114 125.109355 71.615239 C 133.520814 71.438156 142.901023 71.349614 153.25519 71.349614 C 163.661441 71.349614 174.307275 71.349614 185.187484 71.349614 C 196.124985 71.349614 206.682277 71.406906 216.854153 71.526698 C 227.088528 71.583989 236.291654 71.615239 244.468738 71.615239 C 252.640613 71.615239 258.99478 71.615239 263.520822 71.615239 Z M 289.567699 240.016292 C 291.447907 230.370458 293.859366 219.578791 296.802074 207.64129 C 299.802075 195.646497 303.151033 183.29233 306.859367 170.589204 C 310.562492 157.886078 314.385409 145.568369 318.322909 133.630868 C 322.265618 121.688159 326.119785 110.80795 329.880202 100.990241 C 333.645827 91.167324 337.057285 83.287115 340.114577 77.349615 C 346.703119 75.110031 354.552078 73.052739 363.666662 71.172531 C 372.843746 69.229822 382.572913 68.141281 392.864581 67.906906 C 403.161456 67.615239 413.364582 68.938156 423.479166 71.875656 C 433.59375 74.761073 442.885417 79.906906 451.354168 87.313157 C 459.88021 94.667324 466.880211 105.016283 472.348961 118.365242 C 474.937503 124.776701 477.937503 133.011077 481.348962 143.068369 C 484.817712 153.063161 488.432295 164.208995 492.197921 176.500663 C 496.020838 188.79233 499.723963 201.438164 503.312505 214.432957 C 506.901047 227.432958 510.166672 240.136084 513.104172 252.542334 C 516.104172 264.891294 518.515631 276.125669 520.338547 286.240253 C 519.807297 290.59442 517.546881 294.886087 513.54688 299.120463 C 509.54688 303.354838 504.458338 306.969421 498.286463 309.969422 C 492.109379 312.91213 485.432295 314.854839 478.26042 315.792339 C 471.083336 316.792339 463.968752 316.235047 456.91146 314.115255 C 449.854168 312.057963 443.473959 308.000671 437.770834 301.943379 C 432.0625 295.828796 427.625 287.297545 424.447916 276.360044 C 416.859374 276.005878 408.979165 275.922544 400.80729 276.094419 C 392.630206 276.271503 384.692705 276.271503 376.98958 276.094419 C 374.869788 281.09442 372.869788 286.56317 370.989579 292.505879 C 369.166663 298.443379 367.374996 304.531921 365.609371 310.766297 C 350.848953 316.235047 338.083327 318.203797 327.32291 316.677755 C 316.562492 315.146505 307.916659 310.94338 301.385408 304.063171 C 294.916658 297.120462 290.682282 288.120462 288.682282 277.068378 C 286.68749 266.011085 286.979157 253.662126 289.567699 240.016292 Z M 385.635414 206.495456 C 390.749997 206.495456 395.718748 206.495456 400.541665 206.495456 C 405.364582 206.495456 410.27604 206.495456 415.276041 206.495456 C 413.036457 196.672539 410.71354 187.000663 408.30729 177.469413 C 405.895832 167.886079 403.572915 158.297537 401.333331 148.714203 C 400.80729 148.828786 400.072915 148.891286 399.130206 148.891286 C 397.015623 158.360037 394.776039 167.854829 392.427081 177.380871 C 390.130206 186.849622 387.869789 196.557956 385.635414 206.495456 Z M 385.635414 206.495456 " stroke="#00387b" stroke-width="13.550025" stroke-opacity="1" stroke-miterlimit="4"/><g fill="#4b99f5" fill-opacity="1"><g transform="translate(3.046894, 271.386215)"><g><path d="M 162.421875 -180.3125 C 164.347656 -177.78125 165.941406 -174.164062 167.203125 -169.46875 C 168.472656 -164.769531 169.046875 -159.679688 168.921875 -154.203125 C 168.804688 -148.722656 167.660156 -143.453125 165.484375 -138.390625 C 163.316406 -133.328125 159.851562 -129.050781 155.09375 -125.5625 C 150.34375 -122.070312 143.929688 -120.082031 135.859375 -119.59375 C 132.722656 -119.476562 130.101562 -119.328125 128 -119.140625 C 125.894531 -118.960938 124.601562 -118.875 124.125 -118.875 C 124.363281 -112.132812 124.507812 -104.726562 124.5625 -96.65625 C 124.625 -88.582031 124.59375 -80.269531 124.46875 -71.71875 C 124.351562 -63.164062 124.113281 -54.820312 123.75 -46.6875 C 123.394531 -38.5625 122.972656 -30.976562 122.484375 -23.9375 C 122.003906 -16.894531 121.40625 -10.90625 120.6875 -5.96875 C 117.675781 -2.59375 113.847656 -0.179688 109.203125 1.265625 C 104.566406 2.710938 99.628906 3.101562 94.390625 2.4375 C 89.160156 1.78125 84.070312 -0.0820312 79.125 -3.15625 C 74.1875 -6.226562 69.820312 -10.535156 66.03125 -16.078125 C 62.238281 -21.617188 59.5625 -28.601562 58 -37.03125 C 57.507812 -39.5625 57.082031 -43.625 56.71875 -49.21875 C 56.363281 -54.820312 56.035156 -61.390625 55.734375 -68.921875 C 55.429688 -76.453125 55.21875 -84.519531 55.09375 -93.125 C 54.976562 -101.738281 54.984375 -110.382812 55.109375 -119.0625 C 49.078125 -118.582031 42.867188 -118.367188 36.484375 -118.421875 C 30.109375 -118.484375 23.96875 -119.117188 18.0625 -120.328125 C 15.78125 -123.335938 14.09375 -127.21875 13 -131.96875 C 11.914062 -136.726562 11.613281 -141.757812 12.09375 -147.0625 C 12.582031 -152.363281 13.96875 -157.421875 16.25 -162.234375 C 18.539062 -167.054688 21.914062 -171.0625 26.375 -174.25 C 30.832031 -177.445312 36.492188 -179.285156 43.359375 -179.765625 C 47.210938 -180.003906 52.300781 -180.179688 58.625 -180.296875 C 64.945312 -180.421875 71.992188 -180.484375 79.765625 -180.484375 C 87.535156 -180.484375 95.515625 -180.484375 103.703125 -180.484375 C 111.890625 -180.484375 119.804688 -180.453125 127.453125 -180.390625 C 135.109375 -180.335938 142.003906 -180.3125 148.140625 -180.3125 C 154.285156 -180.3125 159.046875 -180.3125 162.421875 -180.3125 Z M 162.421875 -180.3125 "/></g></g></g><g fill="#4b99f5" fill-opacity="1"><g transform="translate(180.640627, 271.386215)"><g><path d="M 4.34375 -54.015625 C 5.78125 -61.242188 7.613281 -69.34375 9.84375 -78.3125 C 12.070312 -87.289062 14.570312 -96.535156 17.34375 -106.046875 C 20.113281 -115.566406 22.972656 -124.8125 25.921875 -133.78125 C 28.878906 -142.757812 31.769531 -150.921875 34.59375 -158.265625 C 37.425781 -165.609375 39.988281 -171.507812 42.28125 -175.96875 C 47.21875 -177.65625 53.117188 -179.21875 59.984375 -180.65625 C 66.847656 -182.101562 74.132812 -182.914062 81.84375 -183.09375 C 89.550781 -183.28125 97.195312 -182.289062 104.78125 -180.125 C 112.375 -177.957031 119.359375 -174.101562 125.734375 -168.5625 C 132.117188 -163.019531 137.363281 -155.25 141.46875 -145.25 C 143.394531 -140.4375 145.648438 -134.265625 148.234375 -126.734375 C 150.828125 -119.210938 153.535156 -110.84375 156.359375 -101.625 C 159.191406 -92.40625 161.960938 -82.914062 164.671875 -73.15625 C 167.390625 -63.40625 169.859375 -53.894531 172.078125 -44.625 C 174.304688 -35.351562 176.085938 -26.921875 177.421875 -19.328125 C 177.054688 -16.078125 175.367188 -12.851562 172.359375 -9.65625 C 169.347656 -6.46875 165.519531 -3.757812 160.875 -1.53125 C 156.238281 0.695312 151.238281 2.171875 145.875 2.890625 C 140.519531 3.609375 135.191406 3.1875 129.890625 1.625 C 124.597656 0.0625 119.8125 -3.003906 115.53125 -7.578125 C 111.257812 -12.160156 107.921875 -18.546875 105.515625 -26.734375 C 99.847656 -26.972656 93.941406 -27.03125 87.796875 -26.90625 C 81.660156 -26.789062 75.703125 -26.796875 69.921875 -26.921875 C 68.347656 -23.179688 66.867188 -19.082031 65.484375 -14.625 C 64.097656 -10.175781 62.742188 -5.601562 61.421875 -0.90625 C 50.347656 3.1875 40.773438 4.660156 32.703125 3.515625 C 24.628906 2.378906 18.15625 -0.773438 13.28125 -5.953125 C 8.40625 -11.140625 5.210938 -17.882812 3.703125 -26.1875 C 2.203125 -34.5 2.414062 -43.773438 4.34375 -54.015625 Z M 76.421875 -79.125 C 80.273438 -79.125 84.007812 -79.125 87.625 -79.125 C 91.238281 -79.125 94.910156 -79.125 98.640625 -79.125 C 96.953125 -86.476562 95.203125 -93.738281 93.390625 -100.90625 C 91.585938 -108.070312 89.847656 -115.265625 88.171875 -122.484375 C 87.804688 -122.367188 87.265625 -122.3125 86.546875 -122.3125 C 84.972656 -115.207031 83.3125 -108.097656 81.5625 -100.984375 C 79.820312 -93.878906 78.109375 -86.59375 76.421875 -79.125 Z M 76.421875 -79.125 "/></g></g></g></svg>