<svg xmlns="http://www.w3.org/2000/svg" xmlns:xlink="http://www.w3.org/1999/xlink" width="500" zoomAndPan="magnify" viewBox="0 0 375 374.999991" height="500" preserveAspectRatio="xMidYMid meet" version="1.0"><defs><g/></defs><path stroke-linecap="butt" transform="matrix(0.75, 0, 0, 0.75, -32.167947, 37.386238)" fill="none" stroke-linejoin="miter" d="M 281.708323 71.615229 C 284.296865 74.964188 286.416657 79.787105 288.062491 86.078772 C 289.765616 92.313147 290.531241 99.104814 290.354157 106.458982 C 290.177074 113.750649 288.651032 120.776691 285.765615 127.542316 C 282.885407 134.245442 278.270823 139.922525 271.916656 144.568359 C 265.567697 149.214193 257.010405 151.860026 246.244779 152.50586 C 242.072904 152.682943 238.572904 152.891276 235.749987 153.125651 C 232.984362 153.360026 231.281237 153.47461 230.630195 153.47461 C 230.92707 162.47461 231.104153 172.354819 231.161445 183.115237 C 231.281237 193.880862 231.249987 204.964196 231.072903 216.375655 C 230.95832 227.781906 230.630195 238.89649 230.104153 249.719408 C 229.635403 260.542325 229.072903 270.656909 228.42707 280.068368 C 227.781237 289.474619 226.984362 297.474619 226.046861 304.063161 C 222.046861 308.531912 216.958319 311.735037 210.786444 313.677745 C 204.60936 315.615245 198.020818 316.146495 191.026026 315.266287 C 184.026025 314.38087 177.234358 311.91212 170.645816 307.854828 C 164.057274 303.735036 158.239565 297.974619 153.177065 290.56316 C 148.119773 283.151702 144.562481 273.833993 142.505189 262.599617 C 141.859356 259.24545 141.270814 253.8392 140.739564 246.365241 C 140.270814 238.89649 139.828106 230.167323 139.416647 220.167322 C 139.062481 210.11003 138.802064 199.349613 138.624981 187.880862 C 138.447897 176.35482 138.447897 164.797527 138.624981 153.214193 C 130.567689 153.860026 122.276021 154.151693 113.744771 154.094401 C 105.27602 154.03711 97.104145 153.182943 89.223936 151.53711 C 86.166644 147.537109 83.901019 142.360026 82.432269 136.011067 C 81.02081 129.6569 80.635394 122.953774 81.286435 115.896482 C 81.932269 108.83919 83.781227 102.104815 86.843727 95.698564 C 89.901019 89.287105 94.401019 83.964188 100.33852 79.729813 C 106.27602 75.438146 113.807271 72.964188 122.921855 72.318354 C 128.098938 72.026688 134.890605 71.787104 143.296856 71.615229 C 151.708315 71.438146 161.088524 71.349604 171.442691 71.349604 C 181.848942 71.349604 192.494776 71.349604 203.374985 71.349604 C 214.312486 71.349604 224.869778 71.406896 235.041654 71.526688 C 245.276029 71.583979 254.479155 71.615229 262.656239 71.615229 C 270.828114 71.615229 277.182281 71.615229 281.708323 71.615229 Z M 315.166659 256.333991 C 314.869784 250.865241 314.635409 243.516282 314.458326 234.281907 C 314.281242 225.047531 314.192701 214.698572 314.192701 203.229821 C 314.192701 191.761071 314.312492 179.880861 314.546867 167.589194 C 314.781242 155.302735 315.104159 143.214192 315.515617 131.333983 C 315.927076 119.453774 316.401034 108.458982 316.927076 98.344398 C 317.515617 88.224605 318.223951 79.787105 319.046868 73.026688 C 327.04166 72.261063 336.776035 71.672521 348.244786 71.261063 C 359.770829 70.849604 372.119788 70.552729 385.296872 70.375646 C 398.468748 70.203771 411.671874 70.261063 424.90625 70.552729 C 438.135417 70.792313 450.66146 71.141271 462.484377 71.615229 C 474.307294 72.083979 484.44792 72.641271 492.916671 73.287104 C 494.390629 75.349605 495.682296 78.55273 496.802088 82.906897 C 497.916671 87.255855 498.505213 92.167314 498.562504 97.636064 C 498.682296 103.104815 498.005213 108.662107 496.536463 114.30794 C 495.125004 119.896482 492.593754 125.099608 488.94792 129.922525 C 485.359378 134.745442 480.390628 138.599609 474.041669 141.479817 C 467.687502 144.360026 459.69271 145.802734 450.046876 145.802734 C 446.869793 145.802734 443.901042 145.802734 441.135417 145.802734 C 438.432292 145.802734 435.375 145.802734 431.963542 145.802734 C 428.609375 145.802734 424.432291 145.802734 419.437499 145.802734 C 414.494791 145.802734 408.171873 145.802734 400.468748 145.802734 C 400.468748 147.745443 400.468748 149.714193 400.468748 151.714193 C 400.468748 153.714193 400.468748 155.917318 400.468748 158.328777 C 403.999998 158.328777 408.848957 158.240235 415.026041 158.063152 C 421.197916 157.886068 427.90625 157.797527 435.135417 157.797527 C 442.369792 157.797527 449.489584 158.125652 456.484377 158.771485 C 463.484377 159.417318 469.541669 160.563152 474.656253 162.208985 C 479.47917 172.797528 481.47917 182.677737 480.656253 191.849612 C 479.890628 200.964196 476.333336 208.432947 469.984377 214.255864 C 463.63021 220.021489 454.515626 223.224614 442.635417 223.870448 C 438.578125 223.990239 434.786459 224.047531 431.255208 224.047531 C 427.729166 224.047531 423.640624 224.021489 418.994791 223.958989 C 414.348957 223.901698 408.260415 223.870448 400.734373 223.870448 C 400.734373 226.401698 400.734373 228.844406 400.734373 231.193365 C 400.734373 233.49024 400.734373 235.92774 400.734373 238.516282 C 401.499998 238.516282 402.348956 238.516282 403.291665 238.516282 C 404.291665 238.516282 405.260415 238.516282 406.203123 238.516282 C 419.083332 238.516282 431.963542 238.516282 444.838543 238.516282 C 457.781252 238.516282 470.687503 238.516282 483.567712 238.516282 C 488.213545 244.927741 491.182296 252.042325 492.479171 259.865242 C 493.770837 267.625659 493.213546 275.214201 490.802087 282.62566 C 488.390629 289.974619 483.802087 296.354827 477.04167 301.766286 C 470.333336 307.120453 461.276044 310.531912 449.869793 312.000662 C 445.812501 312.469412 440.369792 312.91212 433.552083 313.323579 C 426.729166 313.735037 419.229166 313.969412 411.052082 314.026704 C 402.880206 314.146495 394.734373 314.115245 386.619789 313.938162 C 378.505205 313.766287 371.182288 313.44337 364.651037 312.969412 C 358.182287 312.500662 353.187495 311.854828 349.656245 311.031912 C 338.421869 308.146495 330.10416 302.412119 324.692701 293.828786 C 319.338534 285.240243 316.166659 272.745451 315.166659 256.333991 Z M 315.166659 256.333991 " stroke="#806400" stroke-width="13.550025" stroke-opacity="1" stroke-miterlimit="4"/><g fill="#ffce1f" fill-opacity="1"><g transform="translate(16.687518, 271.386222)"><g><path d="M 162.421875 -180.3125 C 164.347656 -177.78125 165.941406 -174.164062 167.203125 -169.46875 C 168.472656 -164.769531 169.046875 -159.679688 168.921875 -154.203125 C 168.804688 -148.722656 167.660156 -143.453125 165.484375 -138.390625 C 163.316406 -133.328125 159.851562 -129.050781 155.09375 -125.5625 C 150.34375 -122.070312 143.929688 -120.082031 135.859375 -119.59375 C 132.722656 -119.476562 130.101562 -119.328125 128 -119.140625 C 125.894531 -118.960938 124.601562 -118.875 124.125 -118.875 C 124.363281 -112.132812 124.507812 -104.726562 124.5625 -96.65625 C 124.625 -88.582031 124.59375 -80.269531 124.46875 -71.71875 C 124.351562 -63.164062 124.113281 -54.820312 123.75 -46.6875 C 123.394531 -38.5625 122.972656 -30.976562 122.484375 -23.9375 C 122.003906 -16.894531 121.40625 -10.90625 120.6875 -5.96875 C 117.675781 -2.59375 113.847656 -0.179688 109.203125 1.265625 C 104.566406 2.710938 99.628906 3.101562 94.390625 2.4375 C 89.160156 1.78125 84.070312 -0.0820312 79.125 -3.15625 C 74.1875 -6.226562 69.820312 -10.535156 66.03125 -16.078125 C 62.238281 -21.617188 59.5625 -28.601562 58 -37.03125 C 57.507812 -39.5625 57.082031 -43.625 56.71875 -49.21875 C 56.363281 -54.820312 56.035156 -61.390625 55.734375 -68.921875 C 55.429688 -76.453125 55.21875 -84.519531 55.09375 -93.125 C 54.976562 -101.738281 54.984375 -110.382812 55.109375 -119.0625 C 49.078125 -118.582031 42.867188 -118.367188 36.484375 -118.421875 C 30.109375 -118.484375 23.96875 -119.117188 18.0625 -120.328125 C 15.78125 -123.335938 14.09375 -127.21875 13 -131.96875 C 11.914062 -136.726562 11.613281 -141.757812 12.09375 -147.0625 C 12.582031 -152.363281 13.96875 -157.421875 16.25 -162.234375 C 18.539062 -167.054688 21.914062 -171.0625 26.375 -174.25 C 30.832031 -177.445312 36.492188 -179.285156 43.359375 -179.765625 C 47.210938 -180.003906 52.300781 -180.179688 58.625 -180.296875 C 64.945312 -180.421875 71.992188 -180.484375 79.765625 -180.484375 C 87.535156 -180.484375 95.515625 -180.484375 103.703125 -180.484375 C 111.890625 -180.484375 119.804688 -180.453125 127.453125 -180.390625 C 135.109375 -180.335938 142.003906 -180.3125 148.140625 -180.3125 C 154.285156 -180.3125 159.046875 -180.3125 162.421875 -180.3125 Z M 162.421875 -180.3125 "/></g></g></g><g fill="#ffce1f" fill-opacity="1"><g transform="translate(194.281251, 271.386222)"><g><path d="M 9.9375 -41.734375 C 9.695312 -45.828125 9.515625 -51.335938 9.390625 -58.265625 C 9.273438 -65.191406 9.21875 -72.957031 9.21875 -81.5625 C 9.21875 -90.175781 9.304688 -99.085938 9.484375 -108.296875 C 9.660156 -117.515625 9.898438 -126.582031 10.203125 -135.5 C 10.503906 -144.414062 10.863281 -152.664062 11.28125 -160.25 C 11.707031 -167.84375 12.222656 -174.164062 12.828125 -179.21875 C 18.847656 -179.820312 26.164062 -180.273438 34.78125 -180.578125 C 43.394531 -180.878906 52.640625 -181.085938 62.515625 -181.203125 C 72.390625 -181.328125 82.296875 -181.296875 92.234375 -181.109375 C 102.171875 -180.929688 111.5625 -180.660156 120.40625 -180.296875 C 129.257812 -179.941406 136.878906 -179.523438 143.265625 -179.046875 C 144.347656 -177.472656 145.3125 -175.0625 146.15625 -171.8125 C 147 -168.5625 147.453125 -164.890625 147.515625 -160.796875 C 147.578125 -156.703125 147.066406 -152.546875 145.984375 -148.328125 C 144.898438 -144.109375 143 -140.191406 140.28125 -136.578125 C 137.570312 -132.960938 133.835938 -130.070312 129.078125 -127.90625 C 124.328125 -125.738281 118.335938 -124.65625 111.109375 -124.65625 C 108.703125 -124.65625 106.472656 -124.65625 104.421875 -124.65625 C 102.378906 -124.65625 100.09375 -124.65625 97.5625 -124.65625 C 95.03125 -124.65625 91.894531 -124.65625 88.15625 -124.65625 C 84.425781 -124.65625 79.671875 -124.65625 73.890625 -124.65625 C 73.890625 -123.207031 73.890625 -121.726562 73.890625 -120.21875 C 73.890625 -118.71875 73.890625 -117.066406 73.890625 -115.265625 C 76.546875 -115.265625 80.191406 -115.320312 84.828125 -115.4375 C 89.460938 -115.5625 94.488281 -115.625 99.90625 -115.625 C 105.320312 -115.625 110.648438 -115.382812 115.890625 -114.90625 C 121.128906 -114.425781 125.675781 -113.582031 129.53125 -112.375 C 133.144531 -104.425781 134.648438 -97.019531 134.046875 -90.15625 C 133.453125 -83.289062 130.773438 -77.6875 126.015625 -73.34375 C 121.253906 -69.007812 114.421875 -66.601562 105.515625 -66.125 C 102.503906 -66 99.671875 -65.9375 97.015625 -65.9375 C 94.367188 -65.9375 91.296875 -65.96875 87.796875 -66.03125 C 84.304688 -66.09375 79.734375 -66.125 74.078125 -66.125 C 74.078125 -64.195312 74.078125 -62.359375 74.078125 -60.609375 C 74.078125 -58.867188 74.078125 -57.035156 74.078125 -55.109375 C 74.679688 -55.109375 75.34375 -55.109375 76.0625 -55.109375 C 76.78125 -55.109375 77.503906 -55.109375 78.234375 -55.109375 C 87.867188 -55.109375 97.53125 -55.109375 107.21875 -55.109375 C 116.914062 -55.109375 126.582031 -55.109375 136.21875 -55.109375 C 139.71875 -50.285156 141.945312 -44.953125 142.90625 -39.109375 C 143.875 -33.273438 143.453125 -27.585938 141.640625 -22.046875 C 139.835938 -16.503906 136.40625 -11.710938 131.34375 -7.671875 C 126.28125 -3.640625 119.472656 -1.082031 110.921875 0 C 107.910156 0.363281 103.847656 0.695312 98.734375 1 C 93.617188 1.300781 87.988281 1.476562 81.84375 1.53125 C 75.695312 1.59375 69.582031 1.5625 63.5 1.4375 C 57.414062 1.320312 51.9375 1.082031 47.0625 0.71875 C 42.1875 0.363281 38.421875 -0.113281 35.765625 -0.71875 C 27.335938 -2.882812 21.101562 -7.191406 17.0625 -13.640625 C 13.03125 -20.085938 10.65625 -29.453125 9.9375 -41.734375 Z M 9.9375 -41.734375 "/></g></g></g></svg>