<svg xmlns="http://www.w3.org/2000/svg" xmlns:xlink="http://www.w3.org/1999/xlink" width="500" zoomAndPan="magnify" viewBox="0 0 375 374.999991" height="500" preserveAspectRatio="xMidYMid meet" version="1.0"><defs><g/></defs><path stroke-linecap="butt" transform="matrix(0.75, 0, 0, 0.75, 60.810814, 2.967539)" fill="none" stroke-linejoin="miter" d="M 314.554352 293.683926 C 312.304352 313.319344 306.575185 330.215178 297.356434 344.381846 C 288.137683 358.470388 276.674141 370.121431 262.960598 379.340181 C 249.241848 388.480807 234.408513 395.267266 218.444971 399.683933 C 202.481428 404.105808 186.517885 406.31935 170.559551 406.31935 C 157.668925 406.31935 144.741841 405.56935 131.778298 404.06935 C 118.809547 402.647475 106.257463 399.798516 94.116837 395.527682 C 82.054337 391.256849 70.960586 385.03289 60.846002 376.866223 C 50.731418 368.621431 42.184542 357.87143 35.215792 344.605804 C 28.247041 331.267262 23.450166 314.668302 20.830374 294.808926 C 18.132457 276.220383 16.819957 255.991215 16.892874 234.105797 C 17.043916 212.225587 18.017874 189.892252 19.814749 167.111001 C 21.689749 144.251624 24.049124 122.256831 26.898083 101.126621 C 29.148083 98.72558 33.231417 96.517246 39.153292 94.496413 C 45.148084 92.397454 52.189751 90.860996 60.283502 89.887037 C 68.377252 88.834954 76.773086 88.683912 85.465795 89.433912 C 94.158504 90.110996 102.325171 91.985996 109.971005 95.053704 C 117.611631 98.126621 124.096006 102.548497 129.413715 108.31933 C 134.736632 114.017247 138.033507 121.548498 139.309549 130.913082 C 139.684549 134.209957 139.908507 140.543291 139.981424 149.913083 C 140.132465 159.20475 140.205382 170.256834 140.205382 183.074544 C 140.205382 195.814128 140.356424 209.189129 140.658507 223.204754 C 140.955382 237.215172 141.444965 250.595381 142.116841 263.334965 C 142.866841 275.996425 143.955382 286.715175 145.377257 295.480801 C 146.653299 302.225593 149.460591 307.54851 153.80955 311.444344 C 158.231425 315.340177 163.2158 317.439136 168.757467 317.741219 C 174.304343 318.038094 179.398093 316.314136 184.049135 312.569344 C 188.767885 308.746427 191.955385 302.637051 193.601219 294.246426 C 195.023094 286.902675 196.299136 277.308925 197.424136 265.470382 C 198.549136 253.553715 199.408511 240.553714 200.007469 226.465171 C 200.684553 212.298504 200.944969 197.949545 200.793928 183.407877 C 200.721011 168.871418 200.273094 155.121417 199.444969 142.157874 C 198.622053 129.189123 197.309552 118.100581 195.512677 108.88183 C 199.559553 104.762038 205.106428 101.235996 212.148095 98.314121 C 219.267887 95.319329 227.210596 93.256829 235.98143 92.131829 C 244.747056 91.006829 253.590806 91.121412 262.507473 92.470371 C 271.424141 93.746413 279.747058 96.590163 287.465808 101.012038 C 295.257476 105.433913 301.778309 111.730789 307.023101 119.897456 C 312.267893 128.069332 315.491852 138.407874 316.689769 150.9235 C 317.512685 159.319334 318.262685 166.959959 318.939769 173.855793 C 319.689769 180.673502 320.210602 187.605794 320.512686 194.652669 C 320.809561 201.694336 320.851227 209.637045 320.622061 218.480796 C 320.476227 227.25163 319.913727 237.668297 318.939769 249.730798 C 318.038727 261.798507 316.575185 276.44955 314.554352 293.683926 Z M 314.554352 293.683926 " stroke="#7b0008" stroke-width="17.266237" stroke-opacity="1" stroke-miterlimit="4"/><g fill="#f63845" fill-opacity="1"><g transform="translate(61.678002, 301.467519)"><g><path d="M 235.046875 -78.28125 C 233.359375 -63.539062 229.0625 -50.875 222.15625 -40.28125 C 215.25 -29.695312 206.65625 -20.953125 196.375 -14.046875 C 186.09375 -7.140625 174.960938 -2.035156 162.984375 1.265625 C 151.015625 4.566406 139.046875 6.21875 127.078125 6.21875 C 117.410156 6.21875 107.703125 5.679688 97.953125 4.609375 C 88.210938 3.535156 78.8125 1.390625 69.75 -1.828125 C 60.695312 -5.054688 52.367188 -9.738281 44.765625 -15.875 C 37.171875 -22.019531 30.765625 -30.078125 25.546875 -40.046875 C 20.335938 -50.023438 16.734375 -62.460938 14.734375 -77.359375 C 12.734375 -91.316406 11.769531 -106.503906 11.84375 -122.921875 C 11.925781 -139.347656 12.65625 -156.117188 14.03125 -173.234375 C 15.414062 -190.347656 17.1875 -206.8125 19.34375 -222.625 C 21.03125 -224.46875 24.097656 -226.15625 28.546875 -227.6875 C 32.992188 -229.21875 38.25 -230.367188 44.3125 -231.140625 C 50.375 -231.910156 56.664062 -232.023438 63.1875 -231.484375 C 69.71875 -230.941406 75.859375 -229.519531 81.609375 -227.21875 C 87.367188 -224.914062 92.242188 -221.613281 96.234375 -217.3125 C 100.222656 -213.019531 102.675781 -207.347656 103.59375 -200.296875 C 103.90625 -197.835938 104.097656 -193.113281 104.171875 -186.125 C 104.242188 -179.144531 104.28125 -170.859375 104.28125 -161.265625 C 104.28125 -151.671875 104.394531 -141.617188 104.625 -131.109375 C 104.863281 -120.597656 105.25 -110.582031 105.78125 -101.0625 C 106.320312 -91.550781 107.128906 -83.492188 108.203125 -76.890625 C 109.117188 -71.828125 111.226562 -67.835938 114.53125 -64.921875 C 117.832031 -62.003906 121.554688 -60.429688 125.703125 -60.203125 C 129.847656 -59.972656 133.679688 -61.273438 137.203125 -64.109375 C 140.734375 -66.953125 143.113281 -71.519531 144.34375 -77.8125 C 145.414062 -83.34375 146.375 -90.554688 147.21875 -99.453125 C 148.0625 -108.359375 148.710938 -118.101562 149.171875 -128.6875 C 149.640625 -139.28125 149.832031 -150.023438 149.75 -160.921875 C 149.675781 -171.816406 149.332031 -182.132812 148.71875 -191.875 C 148.101562 -201.625 147.109375 -209.953125 145.734375 -216.859375 C 148.796875 -219.929688 152.972656 -222.578125 158.265625 -224.796875 C 163.566406 -227.023438 169.515625 -228.5625 176.109375 -229.40625 C 182.710938 -230.25 189.351562 -230.171875 196.03125 -229.171875 C 202.707031 -228.179688 208.960938 -226.035156 214.796875 -222.734375 C 220.628906 -219.429688 225.5 -214.710938 229.40625 -208.578125 C 233.320312 -202.441406 235.742188 -194.691406 236.671875 -185.328125 C 237.273438 -179.035156 237.847656 -173.316406 238.390625 -168.171875 C 238.929688 -163.035156 239.316406 -157.816406 239.546875 -152.515625 C 239.773438 -147.222656 239.8125 -141.273438 239.65625 -134.671875 C 239.5 -128.078125 239.078125 -120.25 238.390625 -111.1875 C 237.703125 -102.132812 236.585938 -91.164062 235.046875 -78.28125 Z M 235.046875 -78.28125 "/></g></g></g></svg>