<svg xmlns="http://www.w3.org/2000/svg" xmlns:xlink="http://www.w3.org/1999/xlink" width="500" zoomAndPan="magnify" viewBox="0 0 375 374.999991" height="500" preserveAspectRatio="xMidYMid meet" version="1.0"><defs><g/></defs><path stroke-linecap="butt" transform="matrix(0.75, 0, 0, 0.75, -32.167947, 37.386209)" fill="none" stroke-linejoin="miter" d="M 325.552076 71.615268 C 328.140618 74.964227 330.26041 79.787144 331.906243 86.078811 C 333.609369 92.313186 334.374994 99.104854 334.19791 106.459021 C 334.020827 113.750688 332.494785 120.77673 329.609368 127.542355 C 326.72916 134.245481 322.114576 139.922565 315.760409 144.568398 C 309.41145 149.214232 300.854158 151.860065 290.088532 152.505899 C 285.916657 152.682982 282.416657 152.891315 279.59374 153.12569 C 276.828115 153.360065 275.12499 153.474649 274.473948 153.474649 C 274.770823 162.474649 274.947906 172.354858 275.005198 183.115276 C 275.12499 193.880901 275.09374 204.964235 274.916656 216.375695 C 274.802073 227.781945 274.473948 238.896529 273.947906 249.719447 C 273.479156 260.542364 272.916656 270.656948 272.270823 280.068407 C 271.624989 289.474658 270.828114 297.474658 269.890614 304.0632 C 265.890614 308.531951 260.802072 311.735076 254.630197 313.677784 C 248.453113 315.615284 241.864571 316.146534 234.869779 315.266326 C 227.869778 314.380909 221.078111 311.912159 214.489569 307.854867 C 207.901027 303.735075 202.083318 297.974658 197.020818 290.563199 C 191.963526 283.151741 188.406234 273.834032 186.348942 262.599656 C 185.703109 259.245489 185.114567 253.839239 184.583317 246.36528 C 184.114567 238.896529 183.671859 230.167362 183.2604 220.167361 C 182.906234 210.110069 182.645817 199.349652 182.468734 187.880901 C 182.29165 176.354859 182.29165 164.797566 182.468734 153.214232 C 174.411441 153.860065 166.119774 154.151732 157.588524 154.09444 C 149.119773 154.037149 140.947898 153.182982 133.067689 151.537149 C 130.010397 147.537148 127.744772 142.360065 126.276022 136.011106 C 124.864563 129.656939 124.479146 122.953813 125.130188 115.896521 C 125.776022 108.839229 127.62498 102.104854 130.68748 95.698603 C 133.744772 89.287145 138.244772 83.964228 144.182273 79.729852 C 150.119773 75.438185 157.651024 72.964227 166.765608 72.318393 C 171.942691 72.026727 178.734358 71.787143 187.140609 71.615268 C 195.552068 71.438185 204.932277 71.349643 215.286444 71.349643 C 225.692695 71.349643 236.338529 71.349643 247.218738 71.349643 C 258.156239 71.349643 268.713531 71.406935 278.885407 71.526727 C 289.119782 71.584018 298.322908 71.615268 306.499992 71.615268 C 314.671867 71.615268 321.026034 71.615268 325.552076 71.615268 Z M 444.755209 118.365271 C 445.578126 123.130897 446.192709 130.068397 446.604168 139.188189 C 447.015626 148.245482 447.255209 158.651732 447.312501 170.41215 C 447.369793 182.115276 447.312501 194.318401 447.135418 207.021527 C 447.015626 219.667361 446.692709 232.193404 446.166668 244.604863 C 445.692709 256.953822 445.135418 268.302781 444.489584 278.656949 C 443.901042 289.005908 443.109376 297.5632 442.109376 304.323617 C 438.109375 308.620492 433.020833 311.735076 426.84375 313.677784 C 420.671874 315.615284 414.083332 316.146534 407.083332 315.266326 C 400.08854 314.380909 393.296872 311.969451 386.70833 308.031951 C 380.119788 304.089242 374.296871 298.474658 369.239579 291.182991 C 364.182287 283.891324 360.624995 274.860073 358.567704 264.099656 C 357.92187 261.042364 357.333328 255.953822 356.802078 248.839238 C 356.333328 241.662155 355.89062 233.224654 355.479162 223.521528 C 355.124995 213.755903 354.864578 203.26111 354.687495 192.026735 C 354.510412 180.792359 354.45312 169.531941 354.510412 158.240274 C 354.624995 146.891315 354.833328 136.068398 355.124995 125.77673 C 355.479162 115.485063 356.010412 106.370479 356.713537 98.432978 C 357.479162 90.49027 358.42187 84.432978 359.536454 80.255894 C 364.005204 76.261102 369.473954 73.229852 375.947913 71.17256 C 382.473955 69.052768 389.354164 68.17256 396.588539 68.526726 C 403.822915 68.818393 410.760415 70.729852 417.406249 74.261102 C 424.109374 77.787144 429.90625 83.141311 434.786459 90.313186 C 439.666667 97.432978 442.989584 106.781937 444.755209 118.365271 Z M 444.755209 118.365271 " stroke="#80004e" stroke-width="13.550025" stroke-opacity="1" stroke-miterlimit="4"/><g fill="#ff66c4" fill-opacity="1"><g transform="translate(49.570328, 271.386193)"><g><path d="M 162.421875 -180.3125 C 164.347656 -177.78125 165.941406 -174.164062 167.203125 -169.46875 C 168.472656 -164.769531 169.046875 -159.679688 168.921875 -154.203125 C 168.804688 -148.722656 167.660156 -143.453125 165.484375 -138.390625 C 163.316406 -133.328125 159.851562 -129.050781 155.09375 -125.5625 C 150.34375 -122.070312 143.929688 -120.082031 135.859375 -119.59375 C 132.722656 -119.476562 130.101562 -119.328125 128 -119.140625 C 125.894531 -118.960938 124.601562 -118.875 124.125 -118.875 C 124.363281 -112.132812 124.507812 -104.726562 124.5625 -96.65625 C 124.625 -88.582031 124.59375 -80.269531 124.46875 -71.71875 C 124.351562 -63.164062 124.113281 -54.820312 123.75 -46.6875 C 123.394531 -38.5625 122.972656 -30.976562 122.484375 -23.9375 C 122.003906 -16.894531 121.40625 -10.90625 120.6875 -5.96875 C 117.675781 -2.59375 113.847656 -0.179688 109.203125 1.265625 C 104.566406 2.710938 99.628906 3.101562 94.390625 2.4375 C 89.160156 1.78125 84.070312 -0.0820312 79.125 -3.15625 C 74.1875 -6.226562 69.820312 -10.535156 66.03125 -16.078125 C 62.238281 -21.617188 59.5625 -28.601562 58 -37.03125 C 57.507812 -39.5625 57.082031 -43.625 56.71875 -49.21875 C 56.363281 -54.820312 56.035156 -61.390625 55.734375 -68.921875 C 55.429688 -76.453125 55.21875 -84.519531 55.09375 -93.125 C 54.976562 -101.738281 54.984375 -110.382812 55.109375 -119.0625 C 49.078125 -118.582031 42.867188 -118.367188 36.484375 -118.421875 C 30.109375 -118.484375 23.96875 -119.117188 18.0625 -120.328125 C 15.78125 -123.335938 14.09375 -127.21875 13 -131.96875 C 11.914062 -136.726562 11.613281 -141.757812 12.09375 -147.0625 C 12.582031 -152.363281 13.96875 -157.421875 16.25 -162.234375 C 18.539062 -167.054688 21.914062 -171.0625 26.375 -174.25 C 30.832031 -177.445312 36.492188 -179.285156 43.359375 -179.765625 C 47.210938 -180.003906 52.300781 -180.179688 58.625 -180.296875 C 64.945312 -180.421875 71.992188 -180.484375 79.765625 -180.484375 C 87.535156 -180.484375 95.515625 -180.484375 103.703125 -180.484375 C 111.890625 -180.484375 119.804688 -180.453125 127.453125 -180.390625 C 135.109375 -180.335938 142.003906 -180.3125 148.140625 -180.3125 C 154.285156 -180.3125 159.046875 -180.3125 162.421875 -180.3125 Z M 162.421875 -180.3125 "/></g></g></g><g fill="#ff66c4" fill-opacity="1"><g transform="translate(227.164062, 271.386193)"><g><path d="M 74.25 -145.25 C 74.851562 -141.644531 75.304688 -136.4375 75.609375 -129.625 C 75.910156 -122.820312 76.085938 -115.023438 76.140625 -106.234375 C 76.203125 -97.441406 76.171875 -88.285156 76.046875 -78.765625 C 75.929688 -69.253906 75.691406 -59.859375 75.328125 -50.578125 C 74.972656 -41.304688 74.550781 -32.785156 74.0625 -25.015625 C 73.582031 -17.253906 72.984375 -10.84375 72.265625 -5.78125 C 69.253906 -2.53125 65.429688 -0.179688 60.796875 1.265625 C 56.160156 2.710938 51.222656 3.101562 45.984375 2.4375 C 40.742188 1.78125 35.65625 -0.0195312 30.71875 -2.96875 C 25.78125 -5.925781 21.410156 -10.144531 17.609375 -15.625 C 13.816406 -21.101562 11.140625 -27.878906 9.578125 -35.953125 C 9.097656 -38.242188 8.675781 -42.066406 8.3125 -47.421875 C 7.945312 -52.785156 7.613281 -59.109375 7.3125 -66.390625 C 7.007812 -73.679688 6.796875 -81.539062 6.671875 -89.96875 C 6.554688 -98.40625 6.53125 -106.867188 6.59375 -115.359375 C 6.65625 -123.847656 6.804688 -131.945312 7.046875 -139.65625 C 7.285156 -147.363281 7.675781 -154.195312 8.21875 -160.15625 C 8.757812 -166.125 9.453125 -170.671875 10.296875 -173.796875 C 13.671875 -176.804688 17.796875 -179.09375 22.671875 -180.65625 C 27.546875 -182.226562 32.691406 -182.894531 38.109375 -182.65625 C 43.535156 -182.414062 48.75 -180.96875 53.75 -178.3125 C 58.75 -175.664062 63.082031 -171.660156 66.75 -166.296875 C 70.425781 -160.941406 72.925781 -153.925781 74.25 -145.25 Z M 74.25 -145.25 "/></g></g></g></svg>