<svg xmlns="http://www.w3.org/2000/svg" xmlns:xlink="http://www.w3.org/1999/xlink" width="500" zoomAndPan="magnify" viewBox="0 0 375 374.999991" height="500" preserveAspectRatio="xMidYMid meet" version="1.0"><defs><g/></defs><path stroke-linecap="butt" transform="matrix(0.75, 0, 0, 0.75, -32.167947, 37.986091)" fill="none" stroke-linejoin="miter" d="M 249.041655 70.935216 C 251.567696 74.211258 253.640613 78.930008 255.249988 85.08105 C 256.916655 91.180009 257.666655 97.820635 257.49478 105.008135 C 257.322905 112.138344 255.822905 119.013344 253.005197 125.627928 C 250.187488 132.180012 245.677071 137.732096 239.463529 142.273763 C 233.255195 146.81543 224.885403 149.403971 214.359361 150.039388 C 210.281235 150.211263 206.85936 150.40918 204.098943 150.643555 C 201.395818 150.872721 199.723943 150.987305 199.093735 150.987305 C 199.380193 159.78418 199.552068 169.445639 199.60936 179.971682 C 199.723943 190.492516 199.697901 201.336266 199.526026 212.492517 C 199.411443 223.648768 199.093735 234.51856 198.57811 245.096686 C 198.114568 255.68002 197.567693 265.570646 196.937485 274.773771 C 196.302068 283.976897 195.526026 291.794606 194.609359 298.237314 C 190.697901 302.607106 185.723942 305.742523 179.682275 307.638357 C 173.645816 309.53419 167.203108 310.055024 160.359357 309.19044 C 153.520815 308.331065 146.874981 305.914398 140.437481 301.945648 C 133.994772 297.919606 128.302063 292.284189 123.354146 285.039397 C 118.411438 277.794605 114.932271 268.674813 112.916646 257.695645 C 112.286437 254.414395 111.708312 249.122728 111.192687 241.820644 C 110.734354 234.51856 110.302062 225.976893 109.895812 216.200851 C 109.552062 206.367517 109.296854 195.841474 109.11977 184.627932 C 108.947895 173.357098 108.947895 162.055014 109.11977 150.726888 C 101.24477 151.362305 93.135394 151.648763 84.796852 151.591471 C 76.515602 151.53418 68.520809 150.700846 60.817684 149.091471 C 57.822892 145.180013 55.60935 140.117512 54.17185 133.909179 C 52.791642 127.695637 52.416642 121.138344 53.052058 114.237302 C 53.682267 107.33626 55.494767 100.752926 58.48435 94.487301 C 61.479142 88.216467 65.874976 83.013342 71.682268 78.872717 C 77.494768 74.6748 84.854144 72.258133 93.765603 71.627925 C 98.828103 71.336258 105.468729 71.107091 113.692687 70.935216 C 121.916646 70.763341 131.088522 70.6748 141.213523 70.6748 C 151.390607 70.6748 161.802066 70.6748 172.437483 70.6748 C 183.1354 70.6748 193.458318 70.732091 203.406235 70.846675 C 213.411444 70.909175 222.411445 70.935216 230.406237 70.935216 C 238.401029 70.935216 244.609363 70.935216 249.041655 70.935216 Z M 399.072914 65.758133 C 415.114582 65.586258 429.119791 67.398758 441.078126 71.195633 C 453.09896 74.930008 463.333335 79.789383 471.791669 85.773759 C 480.302086 91.752926 487.343754 98.107093 492.921879 104.83626 C 498.500004 111.565427 502.901046 117.976886 506.119797 124.070636 C 509.343755 130.112303 511.67188 134.99772 513.10938 138.737304 C 518.572922 153.805013 521.822923 169.013348 522.859381 184.372724 C 523.890631 199.6696 522.052089 215.081059 517.338547 230.607102 C 504.45313 271.898771 477.052086 297.487314 435.130209 307.37794 C 418.161457 311.461274 401.427081 312.758149 384.921872 311.263357 C 368.416662 309.768565 352.317703 304.966482 336.614577 296.857106 C 321.723951 289.148772 309.8177 279.143563 300.906241 266.836271 C 292.046866 254.471687 285.838532 240.211269 282.270823 224.04981 C 279.911448 213.815434 278.53124 203.377933 278.130198 192.737308 C 277.729157 182.03939 278.333323 171.659181 279.942698 161.59668 C 281.609365 151.53418 284.34374 142.502929 288.135407 134.513345 C 291.874991 126.169595 296.734366 117.976886 302.713533 109.924802 C 308.697909 101.815427 316.088534 94.430009 324.88541 87.758134 C 333.682285 81.086259 344.208328 75.76855 356.458328 71.7998 C 368.708329 67.773758 382.911455 65.758133 399.072914 65.758133 Z M 400.27604 150.039388 C 394.468748 150.039388 389.093747 151.648763 384.14583 154.867513 C 379.203122 158.091472 375.291663 162.893556 372.416663 169.273764 C 369.598954 175.60189 368.505204 183.47689 369.135413 192.909183 C 369.770829 202.055016 371.838538 209.299809 375.348955 214.648767 C 378.911455 219.940434 383.08333 223.732101 387.854164 226.034185 C 392.687497 228.336268 397.145831 229.315435 401.229165 228.966477 C 405.427082 228.680018 409.68229 227.33106 413.99479 224.914393 C 418.364582 222.440434 422.072916 218.528976 425.119791 213.180017 C 428.171875 207.831059 429.921875 200.758141 430.385417 191.961266 C 431.015625 183.049807 429.953125 175.487306 427.192708 169.273764 C 424.489583 163.065431 420.723958 158.320639 415.890624 155.039388 C 411.11979 151.706055 405.911457 150.039388 400.27604 150.039388 Z M 400.27604 150.039388 " stroke="#800000" stroke-width="13.2501" stroke-opacity="1" stroke-miterlimit="4"/><g fill="#ff3131" fill-opacity="1"><g transform="translate(-4.218731, 267.486076)"><g><path d="M 158.828125 -176.3125 C 160.710938 -173.84375 162.269531 -170.3125 163.5 -165.71875 C 164.738281 -161.125 165.296875 -156.144531 165.171875 -150.78125 C 165.054688 -145.425781 163.9375 -140.273438 161.8125 -135.328125 C 159.695312 -130.378906 156.3125 -126.195312 151.65625 -122.78125 C 147.007812 -119.363281 140.742188 -117.421875 132.859375 -116.953125 C 129.796875 -116.835938 127.234375 -116.691406 125.171875 -116.515625 C 123.109375 -116.335938 121.84375 -116.25 121.375 -116.25 C 121.601562 -109.65625 121.75 -102.410156 121.8125 -94.515625 C 121.875 -86.628906 121.84375 -78.503906 121.71875 -70.140625 C 121.601562 -61.773438 121.367188 -53.617188 121.015625 -45.671875 C 120.660156 -37.722656 120.25 -30.300781 119.78125 -23.40625 C 119.3125 -16.519531 118.722656 -10.660156 118.015625 -5.828125 C 115.066406 -2.535156 111.328125 -0.179688 106.796875 1.234375 C 102.265625 2.648438 97.4375 3.03125 92.3125 2.375 C 87.1875 1.726562 82.207031 -0.09375 77.375 -3.09375 C 72.550781 -6.09375 68.28125 -10.300781 64.5625 -15.71875 C 60.851562 -21.132812 58.234375 -27.96875 56.703125 -36.21875 C 56.234375 -38.6875 55.820312 -42.660156 55.46875 -48.140625 C 55.113281 -53.617188 54.789062 -60.035156 54.5 -67.390625 C 54.207031 -74.753906 54 -82.644531 53.875 -91.0625 C 53.757812 -99.488281 53.765625 -107.941406 53.890625 -116.421875 C 47.992188 -115.953125 41.925781 -115.742188 35.6875 -115.796875 C 29.445312 -115.859375 23.441406 -116.476562 17.671875 -117.65625 C 15.429688 -120.601562 13.78125 -124.398438 12.71875 -129.046875 C 11.65625 -133.703125 11.359375 -138.617188 11.828125 -143.796875 C 12.304688 -148.984375 13.660156 -153.929688 15.890625 -158.640625 C 18.128906 -163.359375 21.425781 -167.273438 25.78125 -170.390625 C 30.144531 -173.515625 35.6875 -175.3125 42.40625 -175.78125 C 46.164062 -176.019531 51.140625 -176.195312 57.328125 -176.3125 C 63.515625 -176.425781 70.40625 -176.484375 78 -176.484375 C 85.59375 -176.484375 93.394531 -176.484375 101.40625 -176.484375 C 109.414062 -176.484375 117.160156 -176.453125 124.640625 -176.390625 C 132.117188 -176.335938 138.859375 -176.3125 144.859375 -176.3125 C 150.867188 -176.3125 155.523438 -176.3125 158.828125 -176.3125 Z M 158.828125 -176.3125 "/></g></g></g><g fill="#ff3131" fill-opacity="1"><g transform="translate(169.442993, 267.486076)"><g><path d="M 97.703125 -180.203125 C 109.710938 -180.316406 120.222656 -178.957031 129.234375 -176.125 C 138.242188 -173.300781 145.925781 -169.648438 152.28125 -165.171875 C 158.644531 -160.703125 163.914062 -155.9375 168.09375 -150.875 C 172.28125 -145.8125 175.578125 -141.007812 177.984375 -136.46875 C 180.398438 -131.9375 182.140625 -128.257812 183.203125 -125.4375 C 187.328125 -114.125 189.769531 -102.722656 190.53125 -91.234375 C 191.300781 -79.753906 189.921875 -68.1875 186.390625 -56.53125 C 176.722656 -25.550781 156.171875 -6.351562 124.734375 1.0625 C 112.003906 4.125 99.457031 5.09375 87.09375 3.96875 C 74.726562 2.851562 62.65625 -0.765625 50.875 -6.890625 C 39.6875 -12.660156 30.765625 -20.164062 24.109375 -29.40625 C 17.460938 -38.65625 12.78125 -49.347656 10.0625 -61.484375 C 8.300781 -69.140625 7.269531 -76.96875 6.96875 -84.96875 C 6.675781 -92.976562 7.148438 -100.753906 8.390625 -108.296875 C 9.628906 -115.835938 11.660156 -122.609375 14.484375 -128.609375 C 17.316406 -134.859375 20.96875 -141.015625 25.4375 -147.078125 C 29.914062 -153.140625 35.453125 -158.671875 42.046875 -163.671875 C 48.640625 -168.679688 56.53125 -172.6875 65.71875 -175.6875 C 74.90625 -178.695312 85.566406 -180.203125 97.703125 -180.203125 Z M 98.578125 -116.953125 C 94.222656 -116.953125 90.1875 -115.742188 86.46875 -113.328125 C 82.757812 -110.910156 79.84375 -107.316406 77.71875 -102.546875 C 75.601562 -97.785156 74.785156 -91.867188 75.265625 -84.796875 C 75.734375 -77.960938 77.289062 -72.546875 79.9375 -68.546875 C 82.59375 -64.546875 85.710938 -61.691406 89.296875 -59.984375 C 92.890625 -58.273438 96.21875 -57.535156 99.28125 -57.765625 C 102.46875 -58.003906 105.675781 -59.035156 108.90625 -60.859375 C 112.144531 -62.679688 114.910156 -65.59375 117.203125 -69.59375 C 119.503906 -73.601562 120.832031 -78.90625 121.1875 -85.5 C 121.664062 -92.21875 120.875 -97.898438 118.8125 -102.546875 C 116.75 -107.203125 113.921875 -110.765625 110.328125 -113.234375 C 106.734375 -115.710938 102.816406 -116.953125 98.578125 -116.953125 Z M 98.578125 -116.953125 "/></g></g></g></svg>