<svg xmlns="http://www.w3.org/2000/svg" xmlns:xlink="http://www.w3.org/1999/xlink" width="500" zoomAndPan="magnify" viewBox="0 0 375 374.999991" height="500" preserveAspectRatio="xMidYMid meet" version="1.0"><defs><g/></defs><path stroke-linecap="butt" transform="matrix(0.75, 0, 0, 0.75, -32.167947, 38.386052)" fill="none" stroke-linejoin="miter" d="M 252.703113 69.48006 C 255.197905 72.709227 257.234364 77.35506 258.822905 83.417561 C 260.46353 89.417561 261.197905 95.959228 261.031239 103.042562 C 260.859364 110.063396 259.385405 116.83423 256.614572 123.344647 C 253.83853 129.80298 249.390613 135.271731 243.276029 139.745689 C 237.156237 144.219648 228.916653 146.766523 218.552069 147.391523 C 214.526027 147.55819 211.156235 147.761315 208.437485 147.985273 C 205.776027 148.21444 204.135402 148.323815 203.510402 148.323815 C 203.79686 156.990482 203.963527 166.506108 204.020818 176.870692 C 204.135402 187.235276 204.104152 197.91236 203.937485 208.901944 C 203.822902 219.891528 203.510402 230.594654 202.999985 241.016529 C 202.54686 251.438405 202.010402 261.183197 201.385402 270.245698 C 200.76561 279.308199 199.999985 287.011324 199.093735 293.355075 C 195.244776 297.657158 190.343734 300.7457 184.395817 302.615492 C 178.4479 304.485284 172.10415 304.9957 165.364566 304.141534 C 158.624982 303.292575 152.083315 300.917575 145.739565 297.006116 C 139.395814 293.042575 133.786439 287.490491 128.916647 280.355074 C 124.046855 273.219657 120.619771 264.240489 118.635396 253.42278 C 118.010396 250.193613 117.447896 244.980071 116.937479 237.787363 C 116.484354 230.594654 116.057271 222.183195 115.661438 212.558194 C 115.322896 202.870694 115.067688 192.50611 114.895813 181.459234 C 114.729146 170.360275 114.729146 159.230066 114.895813 148.068607 C 107.135395 148.693607 99.15102 148.974857 90.937478 148.917565 C 82.781227 148.865482 74.911435 148.042565 67.317684 146.454023 C 64.374976 142.605065 62.192684 137.620689 60.776017 131.500897 C 59.416642 125.386314 59.052059 118.92798 59.671851 112.131104 C 60.296851 105.334229 62.078101 98.849853 65.026018 92.677978 C 67.968726 86.500894 72.30206 81.375894 78.026018 77.297769 C 83.744769 73.162352 90.994769 70.782143 99.77602 70.162352 C 104.760395 69.875893 111.302062 69.651935 119.401021 69.48006 C 127.49998 69.313393 136.536439 69.224852 146.50519 69.224852 C 156.526024 69.224852 166.781233 69.224852 177.2604 69.224852 C 187.791651 69.224852 197.963526 69.282143 207.760402 69.396727 C 217.614569 69.454018 226.479153 69.48006 234.354154 69.48006 C 242.223946 69.48006 248.343738 69.48006 252.703113 69.48006 Z M 509.052088 222.157153 C 507.354172 236.995696 503.020838 249.76653 496.052088 260.474864 C 489.088545 271.120698 480.421878 279.92799 470.057294 286.896741 C 459.687502 293.8082 448.473959 298.9332 436.411459 302.27695 C 424.343749 305.615492 412.281249 307.287367 400.218748 307.287367 C 390.473956 307.287367 380.703122 306.719659 370.906246 305.58945 C 361.10937 304.511325 351.619786 302.360283 342.442702 299.131117 C 333.32291 295.90195 324.942701 291.198824 317.296867 285.026949 C 309.651034 278.797782 303.1927 270.667573 297.921866 260.641531 C 292.656241 250.563405 289.031241 238.016529 287.046865 223.006112 C 285.010407 208.959236 284.020824 193.667568 284.078115 177.1259 C 284.18749 160.589441 284.927074 143.709231 286.286449 126.49048 C 287.703116 109.214437 289.484366 92.589436 291.635407 76.620685 C 293.338533 74.808185 296.421866 73.13631 300.895825 71.60506 C 305.427075 70.021727 310.7552 68.860268 316.869784 68.120685 C 322.989576 67.329018 329.333327 67.214435 335.901035 67.782143 C 342.473952 68.29256 348.645828 69.709227 354.42187 72.032143 C 360.20312 74.35506 365.098954 77.693602 369.119788 82.058186 C 373.140621 86.360269 375.635413 92.052978 376.598955 99.131103 C 376.880205 101.625895 377.05208 106.412354 377.109371 113.490479 C 377.218746 120.516522 377.276038 128.870689 377.276038 138.552981 C 377.276038 148.18319 377.390621 158.292566 377.619788 168.886316 C 377.843746 179.480067 378.213538 189.589443 378.723955 199.214443 C 379.286455 208.787361 380.109372 216.88632 381.187497 223.516528 C 382.151038 228.615487 384.27083 232.636321 387.557289 235.579029 C 390.901039 238.526946 394.666664 240.110279 398.859373 240.339446 C 403.046873 240.563404 406.90104 239.261321 410.411457 236.427987 C 413.979165 233.542571 416.390624 228.922779 417.635416 222.579028 C 418.708332 217.032153 419.671874 209.782152 420.520833 200.829027 C 421.374999 191.823818 422.026041 181.995692 422.479166 171.349858 C 422.984374 160.646733 423.187499 149.797773 423.072916 138.808189 C 423.015624 127.823814 422.677083 117.42798 422.052083 107.631104 C 421.427083 97.82902 420.437499 89.448811 419.078124 82.480061 C 422.135416 79.365477 426.328125 76.704019 431.651042 74.495685 C 437.03125 72.23006 443.036459 70.672768 449.666668 69.82381 C 456.291668 68.969643 462.97396 69.058185 469.713544 70.07381 C 476.453128 71.037352 482.744795 73.193602 488.578129 76.532144 C 494.468754 79.875894 499.395838 84.631103 503.35938 90.808186 C 507.322922 96.980062 509.760422 104.797771 510.666672 114.256104 C 511.291672 120.599855 511.854172 126.375897 512.364589 131.589439 C 512.932297 136.740481 513.32813 141.980065 513.557297 147.30819 C 513.781255 152.631107 513.812505 158.636316 513.64063 165.318608 C 513.526047 171.943608 513.104172 179.818609 512.364589 188.938401 C 511.687505 198.058193 510.583338 209.131111 509.052088 222.157153 Z M 509.052088 222.157153 " stroke="#806600" stroke-width="13.05015" stroke-opacity="1" stroke-miterlimit="4"/><g fill="#ffde59" fill-opacity="1"><g transform="translate(0.9258, 264.136037)"><g><path d="M 156.421875 -173.65625 C 158.273438 -171.21875 159.8125 -167.734375 161.03125 -163.203125 C 162.25 -158.679688 162.800781 -153.78125 162.6875 -148.5 C 162.570312 -143.226562 161.46875 -138.15625 159.375 -133.28125 C 157.289062 -128.40625 153.957031 -124.285156 149.375 -120.921875 C 144.789062 -117.566406 138.613281 -115.65625 130.84375 -115.1875 C 127.832031 -115.070312 125.3125 -114.925781 123.28125 -114.75 C 121.25 -114.570312 120 -114.484375 119.53125 -114.484375 C 119.769531 -107.992188 119.914062 -100.863281 119.96875 -93.09375 C 120.03125 -85.320312 120.003906 -77.316406 119.890625 -69.078125 C 119.773438 -60.835938 119.539062 -52.800781 119.1875 -44.96875 C 118.84375 -37.144531 118.4375 -29.835938 117.96875 -23.046875 C 117.507812 -16.265625 116.929688 -10.492188 116.234375 -5.734375 C 113.328125 -2.492188 109.640625 -0.175781 105.171875 1.21875 C 100.710938 2.613281 95.957031 2.988281 90.90625 2.34375 C 85.863281 1.707031 80.960938 -0.0859375 76.203125 -3.046875 C 71.453125 -6.003906 67.25 -10.148438 63.59375 -15.484375 C 59.9375 -20.816406 57.359375 -27.546875 55.859375 -35.671875 C 55.390625 -38.109375 54.976562 -42.019531 54.625 -47.40625 C 54.28125 -52.800781 53.960938 -59.125 53.671875 -66.375 C 53.390625 -73.625 53.1875 -81.394531 53.0625 -89.6875 C 52.945312 -97.988281 52.945312 -106.316406 53.0625 -114.671875 C 47.269531 -114.203125 41.296875 -113.992188 35.140625 -114.046875 C 28.992188 -114.109375 23.082031 -114.722656 17.40625 -115.890625 C 15.195312 -118.785156 13.570312 -122.523438 12.53125 -127.109375 C 11.488281 -131.691406 11.195312 -136.535156 11.65625 -141.640625 C 12.125 -146.742188 13.457031 -151.613281 15.65625 -156.25 C 17.863281 -160.894531 21.113281 -164.753906 25.40625 -167.828125 C 29.695312 -170.898438 35.148438 -172.664062 41.765625 -173.125 C 45.472656 -173.363281 50.367188 -173.539062 56.453125 -173.65625 C 62.546875 -173.769531 69.332031 -173.828125 76.8125 -173.828125 C 84.300781 -173.828125 91.988281 -173.828125 99.875 -173.828125 C 107.757812 -173.828125 115.382812 -173.796875 122.75 -173.734375 C 130.125 -173.679688 136.765625 -173.65625 142.671875 -173.65625 C 148.585938 -173.65625 153.171875 -173.65625 156.421875 -173.65625 Z M 156.421875 -173.65625 "/></g></g></g><g fill="#ffde59" fill-opacity="1"><g transform="translate(171.967834, 264.136037)"><g><path d="M 177.65625 -59.15625 C 176.375 -48.019531 173.125 -38.445312 167.90625 -30.4375 C 162.6875 -22.4375 156.191406 -15.828125 148.421875 -10.609375 C 140.648438 -5.390625 132.238281 -1.535156 123.1875 0.953125 C 114.144531 3.453125 105.097656 4.703125 96.046875 4.703125 C 88.742188 4.703125 81.40625 4.296875 74.03125 3.484375 C 66.664062 2.671875 59.5625 1.046875 52.71875 -1.390625 C 45.875 -3.828125 39.582031 -7.363281 33.84375 -12 C 28.101562 -16.644531 23.257812 -22.738281 19.3125 -30.28125 C 15.363281 -37.820312 12.640625 -47.21875 11.140625 -58.46875 C 9.628906 -69.019531 8.898438 -80.5 8.953125 -92.90625 C 9.015625 -105.320312 9.566406 -118 10.609375 -130.9375 C 11.660156 -143.875 12.992188 -156.316406 14.609375 -168.265625 C 15.890625 -169.648438 18.210938 -170.921875 21.578125 -172.078125 C 24.941406 -173.242188 28.914062 -174.113281 33.5 -174.6875 C 38.082031 -175.269531 42.835938 -175.359375 47.765625 -174.953125 C 52.691406 -174.546875 57.328125 -173.472656 61.671875 -171.734375 C 66.023438 -169.992188 69.707031 -167.5 72.71875 -164.25 C 75.738281 -161.007812 77.597656 -156.71875 78.296875 -151.375 C 78.523438 -149.519531 78.671875 -145.953125 78.734375 -140.671875 C 78.796875 -135.398438 78.828125 -129.140625 78.828125 -121.890625 C 78.828125 -114.640625 78.910156 -107.039062 79.078125 -99.09375 C 79.253906 -91.144531 79.546875 -83.570312 79.953125 -76.375 C 80.359375 -69.1875 80.96875 -63.097656 81.78125 -58.109375 C 82.476562 -54.285156 84.070312 -51.269531 86.5625 -49.0625 C 89.0625 -46.863281 91.875 -45.675781 95 -45.5 C 98.132812 -45.320312 101.035156 -46.304688 103.703125 -48.453125 C 106.367188 -50.597656 108.164062 -54.050781 109.09375 -58.8125 C 109.90625 -62.988281 110.628906 -68.441406 111.265625 -75.171875 C 111.910156 -81.898438 112.40625 -89.265625 112.75 -97.265625 C 113.101562 -105.265625 113.25 -113.382812 113.1875 -121.625 C 113.125 -129.863281 112.859375 -137.664062 112.390625 -145.03125 C 111.929688 -152.394531 111.179688 -158.6875 110.140625 -163.90625 C 112.460938 -166.226562 115.625 -168.226562 119.625 -169.90625 C 123.625 -171.59375 128.117188 -172.753906 133.109375 -173.390625 C 138.097656 -174.023438 143.113281 -173.96875 148.15625 -173.21875 C 153.207031 -172.46875 157.9375 -170.84375 162.34375 -168.34375 C 166.75 -165.851562 170.429688 -162.285156 173.390625 -157.640625 C 176.347656 -153.003906 178.175781 -147.144531 178.875 -140.0625 C 179.332031 -135.3125 179.765625 -130.992188 180.171875 -127.109375 C 180.578125 -123.222656 180.867188 -119.273438 181.046875 -115.265625 C 181.222656 -111.265625 181.25 -106.769531 181.125 -101.78125 C 181.007812 -96.800781 180.691406 -90.890625 180.171875 -84.046875 C 179.648438 -77.203125 178.8125 -68.90625 177.65625 -59.15625 Z M 177.65625 -59.15625 "/></g></g></g></svg>