<svg xmlns="http://www.w3.org/2000/svg" xmlns:xlink="http://www.w3.org/1999/xlink" width="500" zoomAndPan="magnify" viewBox="0 0 375 374.999991" height="500" preserveAspectRatio="xMidYMid meet" version="1.0"><defs><g/></defs><path stroke-linecap="butt" transform="matrix(0.602618, 0, 0, 0.602618, -16.083971, 54.954239)" fill="none" stroke-linejoin="miter" d="M 311.683668 78.140277 C 319.565943 74.257479 327.707503 71.612768 336.121313 70.199663 C 344.58698 68.734701 352.611862 68.643951 360.202441 69.933895 C 367.844877 71.230322 374.579814 73.998193 380.400771 78.231027 C 386.286548 82.46386 390.661989 88.284817 393.546538 95.693896 C 396.489427 103.044636 397.312658 112.106659 396.016231 122.867001 C 395.193 129.627867 393.838234 138.009266 391.958416 148.004717 C 390.136936 157.948311 387.99135 168.708653 385.521656 180.292226 C 383.051963 191.823943 380.342431 203.640873 377.406025 215.755982 C 374.521475 227.87109 371.578586 239.694502 368.58384 251.219737 C 365.640952 262.686632 362.788813 273.155278 360.027423 282.625676 C 357.317891 292.089591 354.848198 299.945938 352.611862 306.175269 C 347.147423 308.00323 340.678254 309.973799 333.204353 312.086975 C 325.736935 314.264972 317.737981 316.028112 309.213975 317.382878 C 300.741826 318.789501 292.159481 319.236769 283.453975 318.705234 C 274.806808 318.232038 266.574498 316.352219 258.750562 313.059295 C 250.991448 309.766371 244.081493 304.444539 238.020698 297.093799 C 232.024724 289.68472 227.351105 279.715198 223.999842 267.185233 C 222.055202 259.951171 220.557829 253.216234 219.494759 246.986903 C 218.49651 240.692751 217.61494 233.899475 216.850048 226.607074 C 216.143495 219.314673 215.235997 210.524899 214.114587 200.231271 C 213.466374 200.231271 212.941321 200.231271 212.526465 200.231271 C 212.176429 200.231271 211.735644 200.231271 211.204109 200.231271 C 209.440969 214.699394 207.444472 231.047336 205.208135 249.281579 C 202.971799 267.509339 200.651195 285.685243 198.239841 303.796325 C 192.76892 305.559466 186.3905 307.504106 179.0981 309.617282 C 171.805699 311.6786 163.981763 313.383402 155.632775 314.731685 C 147.277304 316.144791 138.837565 316.676326 130.313559 316.319808 C 121.783071 316.028112 113.492422 314.4724 105.435129 311.64619 C 97.436176 308.826461 90.143775 304.2047 83.557927 297.800351 C 76.972079 291.389521 71.442818 282.709943 66.970146 271.774583 C 64.383774 265.480431 62.12151 257.27405 60.183352 247.161921 C 58.238711 237.04331 56.475571 225.725504 54.887448 213.202021 C 53.299325 200.672056 51.769542 187.558699 50.298097 173.855467 C 48.891474 160.093897 47.536708 146.449005 46.240281 132.920791 C 44.950337 119.340721 43.569642 106.51906 42.098198 94.46229 C 43.569642 89.522904 46.622727 85.082642 51.270417 81.141505 C 55.918107 77.200368 61.414957 74.082461 67.767448 71.787786 C 74.11994 69.434771 80.731716 68.170755 87.615743 67.995737 C 94.558108 67.82072 101.143956 68.909718 107.373287 71.262733 C 113.667439 73.550926 118.930932 77.433724 123.163765 82.904645 C 127.46142 88.375567 130.07372 95.609628 131.020112 104.60683 C 134.073197 132.246649 135.719659 156.593545 135.959498 177.647516 C 136.192855 198.643148 137.106836 215.96341 138.694958 229.608302 C 139.044994 229.608302 139.395029 229.608302 139.751546 229.608302 C 140.159921 229.608302 140.633117 229.608302 141.164652 229.608302 C 143.394506 220.312922 145.630842 211.024024 147.867178 201.728644 C 150.103514 192.381406 152.365779 182.88508 154.660454 173.239665 C 156.715291 164.884194 159.068306 155.744385 161.719498 145.800792 C 164.364209 135.86368 166.982991 126.069176 169.569363 116.42376 C 172.155734 106.784827 174.476338 98.286749 176.537657 90.929527 C 178.650832 83.520448 180.096348 78.289366 180.86124 75.229799 C 184.562539 73.933372 189.151889 72.643427 194.622811 71.347001 C 200.087249 70.057056 205.914688 69.259753 212.085679 68.968057 C 218.263153 68.61154 224.233199 69.143075 229.995816 70.55618 C 235.816772 71.904464 240.995997 74.523246 245.520527 78.406044 C 250.109877 82.230504 253.51948 87.818103 255.755816 95.168843 C 261.868469 114.634691 267.870925 135.922019 273.75022 159.037309 C 279.629516 182.146117 285.923668 206.142977 292.626194 231.021407 C 293.09939 230.898247 293.831871 230.839907 294.836602 230.839907 C 296.126547 223.430828 297.448902 214.524376 298.803668 204.114069 C 300.158434 193.645422 301.480789 182.528563 302.770734 170.769972 C 304.067161 158.946559 305.298766 147.213897 306.478515 135.571984 C 307.71012 123.923589 308.77319 113.130836 309.65476 103.193725 C 310.53633 93.198274 311.210472 84.842804 311.683668 78.140277 Z M 407.839644 240.018609 C 409.719463 230.373194 412.130816 219.580441 415.073705 207.64035 C 418.068451 195.64192 421.419714 183.293455 425.127495 170.588472 C 428.835276 157.889971 432.653253 145.567435 436.59439 133.627344 C 440.535528 121.687253 444.385915 110.810232 448.152035 100.989799 C 451.918155 91.169366 455.327757 83.287091 458.387325 77.349457 C 464.973173 75.11312 472.823037 73.051802 481.936917 71.171983 C 491.115619 69.233825 500.845302 68.144826 511.138931 67.904987 C 521.426078 67.613291 531.635439 68.935647 541.747568 71.878536 C 551.866179 74.756603 561.155077 79.903417 569.627226 87.312497 C 578.151232 94.669719 585.151937 105.015204 590.616376 118.3684 C 593.209229 124.779231 596.203975 133.011541 599.62006 143.065331 C 603.088002 153.067264 606.705032 164.210052 610.46467 176.500178 C 614.289129 188.790304 617.99691 201.436948 621.58153 214.433626 C 625.172632 227.430305 628.433146 240.135287 631.376034 252.542092 C 634.377262 264.890557 636.788616 276.124095 638.610096 286.242707 C 638.078561 290.592218 635.816296 294.883391 631.816819 299.122707 C 627.817343 303.35554 622.728868 306.972571 616.557876 309.973799 C 610.380402 312.910206 603.703804 314.854846 596.528082 315.794755 C 589.35236 316.793004 582.241459 316.23554 575.182415 314.115883 C 568.123371 312.061046 561.744951 308.00323 556.040673 301.942435 C 550.336395 295.829783 545.896133 287.299294 542.719888 276.363934 C 535.129309 276.007417 527.253516 275.923149 519.079545 276.098167 C 510.899092 276.273184 502.96496 276.273184 495.257703 276.098167 C 493.144527 281.095892 491.141548 286.566813 489.261729 292.504448 C 487.433767 298.442083 485.644698 304.528806 483.881558 310.764619 C 469.115256 316.23554 456.358417 318.206109 445.591592 316.676326 C 434.83125 315.146542 426.184083 310.939637 419.656574 304.062093 C 413.187404 297.119727 408.954571 288.122525 406.958074 277.064005 C 404.955094 266.011966 405.24679 253.657019 407.839644 240.018609 Z M 503.904869 206.493012 C 509.019273 206.493012 513.99107 206.493012 518.813778 206.493012 C 523.636485 206.493012 528.543461 206.493012 533.541186 206.493012 C 531.311332 196.672579 528.984246 187.001235 526.572892 177.472498 C 524.161538 167.885422 521.840934 158.298346 519.604598 148.71127 C 519.079545 148.827948 518.340582 148.892769 517.400672 148.892769 C 515.281015 158.356685 513.051161 167.853011 510.698146 177.381748 C 508.40347 186.852146 506.141206 196.555901 503.904869 206.493012 Z M 503.904869 206.493012 " stroke="#436100" stroke-width="13.550025" stroke-opacity="1" stroke-miterlimit="4"/><g fill="#91c123" fill-opacity="1"><g transform="translate(4.659267, 242.971025)"><g><path d="M 167.09375 -140.953125 C 171.832031 -143.273438 176.738281 -144.867188 181.8125 -145.734375 C 186.894531 -146.609375 191.734375 -146.660156 196.328125 -145.890625 C 200.929688 -145.117188 205 -143.445312 208.53125 -140.875 C 212.0625 -138.3125 214.695312 -134.804688 216.4375 -130.359375 C 218.1875 -125.910156 218.671875 -120.441406 217.890625 -113.953125 C 217.410156 -109.890625 216.613281 -104.859375 215.5 -98.859375 C 214.382812 -92.859375 213.078125 -86.375 211.578125 -79.40625 C 210.078125 -72.4375 208.457031 -65.296875 206.71875 -57.984375 C 204.976562 -50.679688 203.210938 -43.570312 201.421875 -36.65625 C 199.628906 -29.738281 197.910156 -23.421875 196.265625 -17.703125 C 194.617188 -11.992188 193.117188 -7.253906 191.765625 -3.484375 C 188.472656 -2.421875 184.578125 -1.238281 180.078125 0.0625 C 175.578125 1.375 170.757812 2.441406 165.625 3.265625 C 160.5 4.085938 155.320312 4.351562 150.09375 4.0625 C 144.875 3.769531 139.914062 2.628906 135.21875 0.640625 C 130.53125 -1.335938 126.367188 -4.550781 122.734375 -9 C 119.109375 -13.445312 116.28125 -19.445312 114.25 -27 C 113.082031 -31.351562 112.179688 -35.414062 111.546875 -39.1875 C 110.921875 -42.96875 110.390625 -47.054688 109.953125 -51.453125 C 109.523438 -55.859375 108.972656 -61.160156 108.296875 -67.359375 C 107.910156 -67.359375 107.59375 -67.359375 107.34375 -67.359375 C 107.101562 -67.359375 106.835938 -67.359375 106.546875 -67.359375 C 105.484375 -58.648438 104.273438 -48.800781 102.921875 -37.8125 C 101.566406 -26.832031 100.164062 -15.875 98.71875 -4.9375 C 95.425781 -3.875 91.578125 -2.710938 87.171875 -1.453125 C 82.765625 -0.191406 78.046875 0.847656 73.015625 1.671875 C 67.984375 2.492188 62.898438 2.804688 57.765625 2.609375 C 52.640625 2.421875 47.65625 1.476562 42.8125 -0.21875 C 37.976562 -1.914062 33.578125 -4.695312 29.609375 -8.5625 C 25.640625 -12.4375 22.300781 -17.664062 19.59375 -24.25 C 18.050781 -28.019531 16.695312 -32.953125 15.53125 -39.046875 C 14.375 -45.148438 13.3125 -51.972656 12.34375 -59.515625 C 11.375 -67.066406 10.453125 -74.976562 9.578125 -83.25 C 8.710938 -91.53125 7.890625 -99.757812 7.109375 -107.9375 C 6.335938 -116.113281 5.515625 -123.828125 4.640625 -131.078125 C 5.515625 -134.078125 7.351562 -136.765625 10.15625 -139.140625 C 12.96875 -141.515625 16.285156 -143.398438 20.109375 -144.796875 C 23.929688 -146.203125 27.921875 -146.953125 32.078125 -147.046875 C 36.242188 -147.148438 40.210938 -146.5 43.984375 -145.09375 C 47.753906 -143.6875 50.921875 -141.335938 53.484375 -138.046875 C 56.054688 -134.765625 57.632812 -130.410156 58.21875 -124.984375 C 60.050781 -108.335938 61.039062 -93.675781 61.1875 -81 C 61.332031 -68.320312 61.890625 -57.867188 62.859375 -49.640625 C 63.046875 -49.640625 63.257812 -49.640625 63.5 -49.640625 C 63.75 -49.640625 64.019531 -49.640625 64.3125 -49.640625 C 65.664062 -55.253906 67.019531 -60.867188 68.375 -66.484375 C 69.726562 -72.097656 71.082031 -77.804688 72.4375 -83.609375 C 73.695312 -88.648438 75.125 -94.171875 76.71875 -100.171875 C 78.3125 -106.171875 79.882812 -112.070312 81.4375 -117.875 C 82.988281 -123.675781 84.390625 -128.800781 85.640625 -133.25 C 86.898438 -137.707031 87.773438 -140.859375 88.265625 -142.703125 C 90.484375 -143.472656 93.238281 -144.242188 96.53125 -145.015625 C 99.820312 -145.796875 103.332031 -146.28125 107.0625 -146.46875 C 110.789062 -146.664062 114.394531 -146.351562 117.875 -145.53125 C 121.351562 -144.707031 124.472656 -143.132812 127.234375 -140.8125 C 129.992188 -138.488281 132.050781 -135.101562 133.40625 -130.65625 C 137.082031 -118.9375 140.6875 -106.109375 144.21875 -92.171875 C 147.75 -78.242188 151.550781 -63.78125 155.625 -48.78125 C 155.90625 -48.875 156.335938 -48.921875 156.921875 -48.921875 C 157.703125 -53.367188 158.5 -58.738281 159.3125 -65.03125 C 160.132812 -71.320312 160.929688 -78.023438 161.703125 -85.140625 C 162.484375 -92.253906 163.234375 -99.316406 163.953125 -106.328125 C 164.679688 -113.347656 165.3125 -119.859375 165.84375 -125.859375 C 166.382812 -131.859375 166.800781 -136.890625 167.09375 -140.953125 Z M 167.09375 -140.953125 "/></g></g></g><g fill="#91c123" fill-opacity="1"><g transform="translate(226.177456, 242.971025)"><g><path d="M 3.484375 -43.40625 C 4.640625 -49.207031 6.113281 -55.710938 7.90625 -62.921875 C 9.695312 -70.140625 11.707031 -77.570312 13.9375 -85.21875 C 16.164062 -92.863281 18.460938 -100.289062 20.828125 -107.5 C 23.203125 -114.707031 25.523438 -121.257812 27.796875 -127.15625 C 30.066406 -133.0625 32.125 -137.804688 33.96875 -141.390625 C 37.9375 -142.742188 42.675781 -144 48.1875 -145.15625 C 53.707031 -146.320312 59.5625 -146.976562 65.75 -147.125 C 71.945312 -147.269531 78.09375 -146.472656 84.1875 -144.734375 C 90.289062 -142.992188 95.90625 -139.894531 101.03125 -135.4375 C 106.164062 -130.988281 110.378906 -124.75 113.671875 -116.71875 C 115.210938 -112.84375 117.023438 -107.878906 119.109375 -101.828125 C 121.191406 -95.785156 123.367188 -89.0625 125.640625 -81.65625 C 127.910156 -74.25 130.132812 -66.625 132.3125 -58.78125 C 134.488281 -50.945312 136.472656 -43.300781 138.265625 -35.84375 C 140.054688 -28.394531 141.484375 -21.625 142.546875 -15.53125 C 142.265625 -12.914062 140.910156 -10.328125 138.484375 -7.765625 C 136.066406 -5.203125 132.992188 -3.023438 129.265625 -1.234375 C 125.546875 0.554688 121.53125 1.738281 117.21875 2.3125 C 112.914062 2.894531 108.632812 2.554688 104.375 1.296875 C 100.113281 0.046875 96.265625 -2.414062 92.828125 -6.09375 C 89.398438 -9.769531 86.71875 -14.898438 84.78125 -21.484375 C 80.226562 -21.679688 75.484375 -21.726562 70.546875 -21.625 C 65.609375 -21.53125 60.816406 -21.53125 56.171875 -21.625 C 54.921875 -18.625 53.738281 -15.332031 52.625 -11.75 C 51.507812 -8.175781 50.421875 -4.5 49.359375 -0.71875 C 40.453125 2.5625 32.753906 3.742188 26.265625 2.828125 C 19.785156 1.910156 14.585938 -0.625 10.671875 -4.78125 C 6.753906 -8.945312 4.1875 -14.367188 2.96875 -21.046875 C 1.757812 -27.722656 1.929688 -35.175781 3.484375 -43.40625 Z M 61.40625 -63.578125 C 64.5 -63.578125 67.5 -63.578125 70.40625 -63.578125 C 73.3125 -63.578125 76.265625 -63.578125 79.265625 -63.578125 C 77.910156 -69.484375 76.503906 -75.316406 75.046875 -81.078125 C 73.597656 -86.835938 72.195312 -92.617188 70.84375 -98.421875 C 70.550781 -98.328125 70.113281 -98.28125 69.53125 -98.28125 C 68.269531 -92.570312 66.9375 -86.859375 65.53125 -81.140625 C 64.132812 -75.429688 62.757812 -69.578125 61.40625 -63.578125 Z M 61.40625 -63.578125 "/></g></g></g></svg>