<svg xmlns="http://www.w3.org/2000/svg" xmlns:xlink="http://www.w3.org/1999/xlink" width="500" zoomAndPan="magnify" viewBox="0 0 375 374.999991" height="500" preserveAspectRatio="xMidYMid meet" version="1.0"><defs><g/></defs><path stroke-linecap="butt" transform="matrix(0.602618, 0, 0, 0.602618, -16.083971, 54.954253)" fill="none" stroke-linejoin="miter" d="M 329.872536 78.140253 C 337.748329 74.257455 345.896371 71.612744 354.303699 70.199639 C 362.775848 68.734677 370.80073 68.643927 378.391309 69.940354 C 386.033745 71.230298 392.768682 73.998169 398.589639 78.231003 C 404.468934 82.463836 408.850857 88.284793 411.735406 95.693872 C 414.671813 103.044612 415.495044 112.106635 414.205099 122.866978 C 413.381868 129.627843 412.027102 138.009243 410.147283 148.004693 C 408.325804 157.948287 406.173735 168.708629 403.704042 180.292203 C 401.234349 191.823919 398.531299 203.640849 395.588411 215.755958 C 392.710343 227.871066 389.767454 239.694478 386.766226 251.219713 C 383.829819 262.686608 380.977681 273.155254 378.209809 282.625652 C 375.506759 292.089567 373.037066 299.945914 370.80073 306.175245 C 365.329809 308.003206 358.860639 309.973775 351.393221 312.086951 C 343.925803 314.264948 335.926849 316.028088 327.402843 317.382854 C 318.930694 318.789477 310.348349 319.236745 301.642843 318.70521 C 292.995676 318.232014 284.763366 316.352195 276.93943 313.059271 C 269.180316 309.766347 262.270361 304.444515 256.209566 297.093775 C 250.213592 289.684696 245.533491 279.715174 242.182228 267.185209 C 240.24407 259.951147 238.746697 253.21621 237.683627 246.986879 C 236.685378 240.692727 235.803808 233.899451 235.038916 226.60705 C 234.332363 219.314649 233.418382 210.524876 232.303455 200.231247 C 231.655242 200.231247 231.130189 200.231247 230.715333 200.231247 C 230.365297 200.231247 229.924512 200.231247 229.392977 200.231247 C 227.629837 214.69937 225.626857 231.047312 223.397003 249.281555 C 221.160667 267.509315 218.833581 285.685219 216.422227 303.796301 C 210.957788 305.559442 204.572886 307.504082 197.280485 309.617258 C 189.988085 311.678576 182.170631 313.383378 173.81516 314.731661 C 165.466172 316.144767 157.026433 316.676302 148.502427 316.319784 C 139.971939 316.028088 131.68129 314.472376 123.623997 311.646166 C 115.625044 308.826437 108.332643 304.204676 101.746795 297.800328 C 95.160947 291.389497 89.631686 282.70992 85.159014 271.77456 C 82.572642 265.480407 80.310378 257.274026 78.365737 247.161897 C 76.427579 237.043286 74.664439 225.72548 73.076316 213.201997 C 71.488193 200.672032 69.95841 187.558675 68.486965 173.855444 C 67.07386 160.093873 65.725576 146.448981 64.429149 132.920767 C 63.139205 119.340697 61.752028 106.519036 60.287066 94.462266 C 61.752028 89.52288 64.811595 85.082619 69.459285 81.141481 C 74.106975 77.200344 79.603825 74.082437 85.956316 71.787762 C 92.308808 69.434747 98.920584 68.170731 105.804611 67.995713 C 112.740494 67.820696 119.326342 68.909694 125.562155 71.262709 C 131.856307 73.550902 137.1198 77.4337 141.352633 82.904622 C 145.650288 88.375543 148.262588 95.609604 149.202498 104.606806 C 152.262065 132.246625 153.908527 156.593521 154.148366 177.647492 C 154.381723 198.643124 155.289221 215.963386 156.877344 229.608278 C 157.233862 229.608278 157.583897 229.608278 157.940414 229.608278 C 158.348789 229.608278 158.821985 229.608278 159.347037 229.608278 C 161.583374 220.312898 163.81971 211.024 166.056046 201.72862 C 168.2859 192.381382 170.554647 182.885056 172.849322 173.239641 C 174.904159 164.88417 177.257174 155.744361 179.901884 145.800768 C 182.553077 135.863656 185.165377 126.069152 187.758231 116.423736 C 190.344602 106.784803 192.665206 98.286726 194.726525 90.929503 C 196.8397 83.520424 198.285216 78.289342 199.043626 75.229775 C 202.751407 73.933348 207.340757 72.643403 212.805196 71.346977 C 218.276117 70.057032 224.097074 69.25973 230.274547 68.968033 C 236.452021 68.611516 242.422067 69.143051 248.184684 70.556156 C 254.00564 71.90444 259.178383 74.523222 263.709395 78.406021 C 268.298745 82.23048 271.708348 87.818079 273.944684 95.168819 C 280.057336 114.634667 286.05331 135.921995 291.939088 159.037285 C 297.818384 182.146093 304.112536 206.142953 310.815062 231.021383 C 311.288258 230.898223 312.020739 230.839883 313.018988 230.839883 C 314.315415 223.430804 315.63777 214.524352 316.992536 204.114045 C 318.34082 193.645399 319.669657 182.528539 320.959602 170.769948 C 322.256029 158.946535 323.487634 147.213873 324.667383 135.57196 C 325.898988 123.923565 326.962058 113.130812 327.843628 103.193701 C 328.725198 93.19825 329.39934 84.84278 329.872536 78.140253 Z M 433.437591 256.334116 C 433.139413 250.869677 432.906056 243.512455 432.731038 234.281897 C 432.549539 225.051338 432.465271 214.69937 432.465271 203.232475 C 432.465271 191.76558 432.581949 179.883828 432.815306 167.593702 C 433.055145 155.297094 433.37277 143.214396 433.787626 131.332645 C 434.202483 119.457375 434.669196 108.457194 435.200731 98.345065 C 435.784123 88.226454 436.490676 79.786715 437.313907 73.025849 C 445.31286 72.260958 455.049026 71.671083 466.515921 71.262709 C 478.041155 70.847852 490.38962 70.556156 503.567799 70.381139 C 516.739495 70.199639 529.943602 70.257978 543.173637 70.556156 C 556.410155 70.789513 568.933638 71.139548 580.75705 71.612744 C 592.57398 72.08594 602.71852 72.643403 611.190669 73.291617 C 612.662114 75.346453 613.952058 78.55511 615.066985 82.904622 C 616.188394 87.254133 616.778269 92.167591 616.836608 97.638512 C 616.953286 103.102951 616.272662 108.664622 614.8077 114.310561 C 613.394595 119.89816 610.866562 125.103314 607.217121 129.926022 C 603.632501 134.748729 598.660704 138.599117 592.308213 141.477184 C 585.962204 144.361734 577.96325 145.800768 568.317835 145.800768 C 565.141589 145.800768 562.172772 145.800768 559.404901 145.800768 C 556.701851 145.800768 553.642284 145.800768 550.232681 145.800768 C 546.881418 145.800768 542.706924 145.800768 537.702716 145.800768 C 532.76333 145.800768 526.443249 145.800768 518.735992 145.800768 C 518.735992 147.745408 518.735992 149.715977 518.735992 151.712474 C 518.735992 153.715453 518.735992 155.919379 518.735992 158.330733 C 522.268755 158.330733 527.117391 158.239983 533.294865 158.064965 C 539.472339 157.889948 546.174865 157.799198 553.408927 157.799198 C 560.642988 157.799198 567.760371 158.123304 574.754594 158.771518 C 581.755299 159.419731 587.809612 160.560587 592.930498 162.213531 C 597.753205 172.798856 599.749703 182.677628 598.926472 191.849847 C 598.16158 200.963728 594.602888 208.437628 588.250397 214.258585 C 581.904388 220.021202 572.784025 223.223376 560.908756 223.871589 C 556.85094 223.988268 553.052409 224.046607 549.526128 224.046607 C 545.999848 224.046607 541.909621 224.020678 537.261931 223.962339 C 532.620723 223.904 526.533999 223.871589 519.00176 223.871589 C 519.00176 226.399622 519.00176 228.843386 519.00176 231.196401 C 519.00176 233.491076 519.00176 235.928359 519.00176 238.51473 C 519.766651 238.51473 520.622293 238.51473 521.562202 238.51473 C 522.560451 238.51473 523.532771 238.51473 524.472681 238.51473 C 537.352681 238.51473 550.232681 238.51473 563.112681 238.51473 C 576.051021 238.51473 588.95695 238.51473 601.83695 238.51473 C 606.48464 244.925561 609.453457 252.042944 610.749884 259.866879 C 612.039829 267.625994 611.482365 275.216573 609.071011 282.625652 C 606.659657 289.976392 602.070307 296.354812 595.309441 301.767394 C 588.606914 307.121636 579.551373 310.531239 568.142817 312.002683 C 564.078519 312.469397 558.640009 312.910182 551.820804 313.325038 C 544.995117 313.733413 537.50177 313.973252 529.327799 314.031591 C 521.147346 314.148269 513.005786 314.115859 504.890154 313.940841 C 496.774522 313.765824 489.449711 313.441717 482.922202 312.968521 C 476.453032 312.501807 471.455307 311.853594 467.929026 311.030363 C 456.695488 308.145813 448.372428 302.415607 442.959846 293.826779 C 437.612085 285.244434 434.43584 272.74688 433.437591 256.334116 Z M 433.437591 256.334116 " stroke="#5a0073" stroke-width="13.550025" stroke-opacity="1" stroke-miterlimit="4"/><g fill="#cb6ce6" fill-opacity="1"><g transform="translate(15.61938, 242.971039)"><g><path d="M 167.09375 -140.953125 C 171.832031 -143.273438 176.738281 -144.867188 181.8125 -145.734375 C 186.894531 -146.609375 191.734375 -146.660156 196.328125 -145.890625 C 200.929688 -145.117188 205 -143.445312 208.53125 -140.875 C 212.0625 -138.3125 214.695312 -134.804688 216.4375 -130.359375 C 218.1875 -125.910156 218.671875 -120.441406 217.890625 -113.953125 C 217.410156 -109.890625 216.613281 -104.859375 215.5 -98.859375 C 214.382812 -92.859375 213.078125 -86.375 211.578125 -79.40625 C 210.078125 -72.4375 208.457031 -65.296875 206.71875 -57.984375 C 204.976562 -50.679688 203.210938 -43.570312 201.421875 -36.65625 C 199.628906 -29.738281 197.910156 -23.421875 196.265625 -17.703125 C 194.617188 -11.992188 193.117188 -7.253906 191.765625 -3.484375 C 188.472656 -2.421875 184.578125 -1.238281 180.078125 0.0625 C 175.578125 1.375 170.757812 2.441406 165.625 3.265625 C 160.5 4.085938 155.320312 4.351562 150.09375 4.0625 C 144.875 3.769531 139.914062 2.628906 135.21875 0.640625 C 130.53125 -1.335938 126.367188 -4.550781 122.734375 -9 C 119.109375 -13.445312 116.28125 -19.445312 114.25 -27 C 113.082031 -31.351562 112.179688 -35.414062 111.546875 -39.1875 C 110.921875 -42.96875 110.390625 -47.054688 109.953125 -51.453125 C 109.523438 -55.859375 108.972656 -61.160156 108.296875 -67.359375 C 107.910156 -67.359375 107.59375 -67.359375 107.34375 -67.359375 C 107.101562 -67.359375 106.835938 -67.359375 106.546875 -67.359375 C 105.484375 -58.648438 104.273438 -48.800781 102.921875 -37.8125 C 101.566406 -26.832031 100.164062 -15.875 98.71875 -4.9375 C 95.425781 -3.875 91.578125 -2.710938 87.171875 -1.453125 C 82.765625 -0.191406 78.046875 0.847656 73.015625 1.671875 C 67.984375 2.492188 62.898438 2.804688 57.765625 2.609375 C 52.640625 2.421875 47.65625 1.476562 42.8125 -0.21875 C 37.976562 -1.914062 33.578125 -4.695312 29.609375 -8.5625 C 25.640625 -12.4375 22.300781 -17.664062 19.59375 -24.25 C 18.050781 -28.019531 16.695312 -32.953125 15.53125 -39.046875 C 14.375 -45.148438 13.3125 -51.972656 12.34375 -59.515625 C 11.375 -67.066406 10.453125 -74.976562 9.578125 -83.25 C 8.710938 -91.53125 7.890625 -99.757812 7.109375 -107.9375 C 6.335938 -116.113281 5.515625 -123.828125 4.640625 -131.078125 C 5.515625 -134.078125 7.351562 -136.765625 10.15625 -139.140625 C 12.96875 -141.515625 16.285156 -143.398438 20.109375 -144.796875 C 23.929688 -146.203125 27.921875 -146.953125 32.078125 -147.046875 C 36.242188 -147.148438 40.210938 -146.5 43.984375 -145.09375 C 47.753906 -143.6875 50.921875 -141.335938 53.484375 -138.046875 C 56.054688 -134.765625 57.632812 -130.410156 58.21875 -124.984375 C 60.050781 -108.335938 61.039062 -93.675781 61.1875 -81 C 61.332031 -68.320312 61.890625 -57.867188 62.859375 -49.640625 C 63.046875 -49.640625 63.257812 -49.640625 63.5 -49.640625 C 63.75 -49.640625 64.019531 -49.640625 64.3125 -49.640625 C 65.664062 -55.253906 67.019531 -60.867188 68.375 -66.484375 C 69.726562 -72.097656 71.082031 -77.804688 72.4375 -83.609375 C 73.695312 -88.648438 75.125 -94.171875 76.71875 -100.171875 C 78.3125 -106.171875 79.882812 -112.070312 81.4375 -117.875 C 82.988281 -123.675781 84.390625 -128.800781 85.640625 -133.25 C 86.898438 -137.707031 87.773438 -140.859375 88.265625 -142.703125 C 90.484375 -143.472656 93.238281 -144.242188 96.53125 -145.015625 C 99.820312 -145.796875 103.332031 -146.28125 107.0625 -146.46875 C 110.789062 -146.664062 114.394531 -146.351562 117.875 -145.53125 C 121.351562 -144.707031 124.472656 -143.132812 127.234375 -140.8125 C 129.992188 -138.488281 132.050781 -135.101562 133.40625 -130.65625 C 137.082031 -118.9375 140.6875 -106.109375 144.21875 -92.171875 C 147.75 -78.242188 151.550781 -63.78125 155.625 -48.78125 C 155.90625 -48.875 156.335938 -48.921875 156.921875 -48.921875 C 157.703125 -53.367188 158.5 -58.738281 159.3125 -65.03125 C 160.132812 -71.320312 160.929688 -78.023438 161.703125 -85.140625 C 162.484375 -92.253906 163.234375 -99.316406 163.953125 -106.328125 C 164.679688 -113.347656 165.3125 -119.859375 165.84375 -125.859375 C 166.382812 -131.859375 166.800781 -136.890625 167.09375 -140.953125 Z M 167.09375 -140.953125 "/></g></g></g><g fill="#cb6ce6" fill-opacity="1"><g transform="translate(237.137569, 242.971039)"><g><path d="M 7.984375 -33.53125 C 7.785156 -36.820312 7.640625 -41.25 7.546875 -46.8125 C 7.453125 -52.375 7.40625 -58.613281 7.40625 -65.53125 C 7.40625 -72.457031 7.476562 -79.617188 7.625 -87.015625 C 7.769531 -94.421875 7.960938 -101.707031 8.203125 -108.875 C 8.441406 -116.039062 8.726562 -122.671875 9.0625 -128.765625 C 9.40625 -134.859375 9.820312 -139.9375 10.3125 -144 C 15.144531 -144.488281 21.019531 -144.851562 27.9375 -145.09375 C 34.863281 -145.332031 42.289062 -145.5 50.21875 -145.59375 C 58.15625 -145.695312 66.113281 -145.675781 74.09375 -145.53125 C 82.082031 -145.382812 89.632812 -145.164062 96.75 -144.875 C 103.863281 -144.582031 109.984375 -144.242188 115.109375 -143.859375 C 115.984375 -142.597656 116.757812 -140.660156 117.4375 -138.046875 C 118.113281 -135.441406 118.472656 -132.492188 118.515625 -129.203125 C 118.566406 -125.910156 118.15625 -122.566406 117.28125 -119.171875 C 116.414062 -115.785156 114.894531 -112.640625 112.71875 -109.734375 C 110.539062 -106.835938 107.539062 -104.519531 103.71875 -102.78125 C 99.894531 -101.039062 95.082031 -100.171875 89.28125 -100.171875 C 87.34375 -100.171875 85.550781 -100.171875 83.90625 -100.171875 C 82.257812 -100.171875 80.421875 -100.171875 78.390625 -100.171875 C 76.359375 -100.171875 73.84375 -100.171875 70.84375 -100.171875 C 67.84375 -100.171875 64.019531 -100.171875 59.375 -100.171875 C 59.375 -99.003906 59.375 -97.816406 59.375 -96.609375 C 59.375 -95.398438 59.375 -94.066406 59.375 -92.609375 C 61.5 -92.609375 64.425781 -92.65625 68.15625 -92.75 C 71.882812 -92.851562 75.925781 -92.90625 80.28125 -92.90625 C 84.632812 -92.90625 88.914062 -92.710938 93.125 -92.328125 C 97.332031 -91.941406 100.984375 -91.265625 104.078125 -90.296875 C 106.984375 -83.910156 108.191406 -77.957031 107.703125 -72.4375 C 107.222656 -66.914062 105.070312 -62.414062 101.25 -58.9375 C 97.425781 -55.457031 91.9375 -53.519531 84.78125 -53.125 C 82.351562 -53.03125 80.078125 -52.984375 77.953125 -52.984375 C 75.828125 -52.984375 73.359375 -53.003906 70.546875 -53.046875 C 67.742188 -53.097656 64.066406 -53.125 59.515625 -53.125 C 59.515625 -51.582031 59.515625 -50.109375 59.515625 -48.703125 C 59.515625 -47.296875 59.515625 -45.820312 59.515625 -44.28125 C 60.003906 -44.28125 60.535156 -44.28125 61.109375 -44.28125 C 61.691406 -44.28125 62.273438 -44.28125 62.859375 -44.28125 C 70.597656 -44.28125 78.363281 -44.28125 86.15625 -44.28125 C 93.945312 -44.28125 101.710938 -44.28125 109.453125 -44.28125 C 112.265625 -40.40625 114.054688 -36.117188 114.828125 -31.421875 C 115.597656 -26.734375 115.257812 -22.160156 113.8125 -17.703125 C 112.363281 -13.253906 109.601562 -9.410156 105.53125 -6.171875 C 101.46875 -2.929688 96 -0.875 89.125 0 C 86.707031 0.289062 83.441406 0.554688 79.328125 0.796875 C 75.210938 1.035156 70.6875 1.179688 65.75 1.234375 C 60.820312 1.285156 55.910156 1.257812 51.015625 1.15625 C 46.128906 1.0625 41.726562 0.867188 37.8125 0.578125 C 33.894531 0.285156 30.875 -0.0976562 28.75 -0.578125 C 21.96875 -2.316406 16.957031 -5.773438 13.71875 -10.953125 C 10.476562 -16.128906 8.566406 -23.65625 7.984375 -33.53125 Z M 7.984375 -33.53125 "/></g></g></g></svg>