<svg xmlns="http://www.w3.org/2000/svg" xmlns:xlink="http://www.w3.org/1999/xlink" width="500" zoomAndPan="magnify" viewBox="0 0 375 374.999991" height="500" preserveAspectRatio="xMidYMid meet" version="1.0"><defs><g/></defs><path stroke-linecap="butt" transform="matrix(0.602618, 0, 0, 0.602618, -16.083971, 54.954253)" fill="none" stroke-linejoin="miter" d="M 373.711208 78.140253 C 381.593483 74.257455 389.741526 71.612744 398.148853 70.199639 C 406.621003 68.734677 414.645884 68.643927 422.229981 69.940354 C 429.878899 71.230298 436.613837 73.998169 442.434793 78.231003 C 448.314088 82.463836 452.696011 88.284793 455.580561 95.693872 C 458.516967 103.044612 459.340198 112.106635 458.050254 122.866978 C 457.227023 129.627843 455.872257 138.009243 453.992438 148.004693 C 452.164476 157.948287 450.01889 168.708629 447.549197 180.292203 C 445.079504 191.823919 442.376454 203.640849 439.433565 215.755958 C 436.555497 227.871066 433.612609 239.694478 430.61138 251.219713 C 427.674974 262.686608 424.822835 273.155254 422.054964 282.625652 C 419.351914 292.089567 416.882221 299.945914 414.645884 306.175245 C 409.174963 308.003206 402.705794 309.973775 395.238375 312.086951 C 387.770957 314.264948 379.772004 316.028088 371.241515 317.382854 C 362.775848 318.789477 354.187021 319.236745 345.487997 318.70521 C 336.84083 318.232014 328.60852 316.352195 320.784584 313.059271 C 313.018988 309.766347 306.109033 304.444515 300.05472 297.093775 C 294.052264 289.684696 289.378645 279.715174 286.027382 267.185209 C 284.089224 259.951147 282.585369 253.21621 281.528781 246.986879 C 280.530532 240.692727 279.648962 233.899451 278.88407 226.60705 C 278.177518 219.314649 277.263537 210.524876 276.14861 200.231247 C 275.500396 200.231247 274.968861 200.231247 274.560487 200.231247 C 274.203969 200.231247 273.763184 200.231247 273.238132 200.231247 C 271.474991 214.69937 269.472012 231.047312 267.235675 249.281555 C 265.005821 267.509315 262.678735 285.685219 260.267381 303.796301 C 254.79646 305.559442 248.41804 307.504082 241.12564 309.617258 C 233.833239 311.678576 226.009303 313.383378 217.660315 314.731661 C 209.311326 316.144767 200.871588 316.676302 192.341099 316.319784 C 183.817093 316.028088 175.526444 314.472376 167.469151 311.646166 C 159.470198 308.826437 152.177797 304.204676 145.591949 297.800328 C 138.999619 291.389497 133.476841 282.70992 129.004168 271.77456 C 126.417797 265.480407 124.155532 257.274026 122.210892 247.161897 C 120.272734 237.043286 118.509593 225.72548 116.92147 213.201997 C 115.333348 200.672032 113.803564 187.558675 112.33212 173.855444 C 110.919014 160.093873 109.57073 146.448981 108.274304 132.920767 C 106.977877 119.340697 105.597182 106.519036 104.125738 94.462266 C 105.597182 89.52288 108.65675 85.082619 113.30444 81.141481 C 117.945648 77.200344 123.448979 74.082437 129.801471 71.787762 C 136.14748 69.434747 142.765739 68.170731 149.649765 67.995713 C 156.585648 67.820696 163.171496 68.909694 169.407309 71.262709 C 175.701461 73.550902 180.964954 77.4337 185.197788 82.904622 C 189.48896 88.375543 192.107743 95.609604 193.047652 104.606806 C 196.107219 132.246625 197.753681 156.593521 197.987038 177.647492 C 198.226877 198.643124 199.134376 215.963386 200.722499 229.608278 C 201.079016 229.608278 201.429051 229.608278 201.779086 229.608278 C 202.193943 229.608278 202.667139 229.608278 203.192192 229.608278 C 205.428528 220.312898 207.664864 211.024 209.9012 201.72862 C 212.131054 192.381382 214.399801 182.885056 216.687995 173.239641 C 218.749313 164.88417 221.102328 155.744361 223.747039 145.800768 C 226.391749 135.863656 229.010531 126.069152 231.596903 116.423736 C 234.189756 106.784803 236.51036 98.286726 238.565197 90.929503 C 240.684855 83.520424 242.123888 78.289342 242.88878 75.229775 C 246.596561 73.933348 251.185912 72.643403 256.650351 71.346977 C 262.121272 70.057032 267.942228 69.25973 274.119702 68.968033 C 280.290693 68.611516 286.260739 69.143051 292.023356 70.556156 C 297.850794 71.90444 303.023537 74.523222 307.554549 78.406021 C 312.137418 82.23048 315.553502 87.818079 317.783356 95.168819 C 323.902491 114.634667 329.898465 135.921995 335.784242 159.037285 C 341.663538 182.146093 347.95769 206.142953 354.660217 231.021383 C 355.12693 230.898223 355.865893 230.839883 356.864142 230.839883 C 358.160569 223.430804 359.482924 214.524352 360.83769 204.114045 C 362.185974 193.645399 363.508329 182.528539 364.804756 170.769948 C 366.101183 158.946535 367.332789 147.213873 368.506055 135.57196 C 369.744142 123.923565 370.80073 113.130812 371.6823 103.193701 C 372.563871 93.19825 373.244495 84.84278 373.711208 78.140253 Z M 563.021931 118.368377 C 563.845162 123.132745 564.467447 130.068628 564.875822 139.188991 C 565.290678 148.244532 565.524035 158.654839 565.582374 170.41343 C 565.640714 182.120164 565.582374 194.319541 565.407357 207.024523 C 565.290678 219.671167 564.966572 232.194649 564.435037 244.601454 C 563.961841 256.956401 563.404377 268.306618 562.756164 278.652104 C 562.172772 289.004072 561.375469 297.560489 560.377221 304.327836 C 556.377744 308.619009 551.289269 311.736916 545.118277 313.675074 C 538.940804 315.619714 532.354956 316.144767 525.354251 315.263196 C 518.360028 314.381626 511.566752 311.970272 504.980904 308.029135 C 498.388573 304.087997 492.567617 298.474469 487.511553 291.182069 C 482.455488 283.889668 478.896797 274.860055 476.835478 264.099713 C 476.193747 261.040146 475.603872 255.95167 475.072338 248.84077 C 474.605624 241.665047 474.158357 233.225309 473.749982 223.521554 C 473.399947 213.75946 473.134179 203.258403 472.959162 192.024865 C 472.777662 180.791327 472.719323 169.53186 472.777662 158.239983 C 472.89434 146.889766 473.101769 136.071085 473.399947 125.777456 C 473.749982 115.483827 474.281517 106.369947 474.98807 98.429332 C 475.746479 90.488718 476.692871 84.434405 477.807798 80.259911 C 482.280471 76.260434 487.744909 73.233278 494.214079 71.171959 C 500.741588 69.052301 507.625614 68.170731 514.859676 68.527248 C 522.093737 68.818944 529.029621 70.731174 535.68029 74.257455 C 542.382817 77.790218 548.171362 83.137978 553.052409 90.313701 C 557.939938 97.431084 561.258791 106.784803 563.021931 118.368377 Z M 563.021931 118.368377 " stroke="#004b59" stroke-width="13.550025" stroke-opacity="1" stroke-miterlimit="4"/><g fill="#0097b2" fill-opacity="1"><g transform="translate(42.040409, 242.971039)"><g><path d="M 167.09375 -140.953125 C 171.832031 -143.273438 176.738281 -144.867188 181.8125 -145.734375 C 186.894531 -146.609375 191.734375 -146.660156 196.328125 -145.890625 C 200.929688 -145.117188 205 -143.445312 208.53125 -140.875 C 212.0625 -138.3125 214.695312 -134.804688 216.4375 -130.359375 C 218.1875 -125.910156 218.671875 -120.441406 217.890625 -113.953125 C 217.410156 -109.890625 216.613281 -104.859375 215.5 -98.859375 C 214.382812 -92.859375 213.078125 -86.375 211.578125 -79.40625 C 210.078125 -72.4375 208.457031 -65.296875 206.71875 -57.984375 C 204.976562 -50.679688 203.210938 -43.570312 201.421875 -36.65625 C 199.628906 -29.738281 197.910156 -23.421875 196.265625 -17.703125 C 194.617188 -11.992188 193.117188 -7.253906 191.765625 -3.484375 C 188.472656 -2.421875 184.578125 -1.238281 180.078125 0.0625 C 175.578125 1.375 170.757812 2.441406 165.625 3.265625 C 160.5 4.085938 155.320312 4.351562 150.09375 4.0625 C 144.875 3.769531 139.914062 2.628906 135.21875 0.640625 C 130.53125 -1.335938 126.367188 -4.550781 122.734375 -9 C 119.109375 -13.445312 116.28125 -19.445312 114.25 -27 C 113.082031 -31.351562 112.179688 -35.414062 111.546875 -39.1875 C 110.921875 -42.96875 110.390625 -47.054688 109.953125 -51.453125 C 109.523438 -55.859375 108.972656 -61.160156 108.296875 -67.359375 C 107.910156 -67.359375 107.59375 -67.359375 107.34375 -67.359375 C 107.101562 -67.359375 106.835938 -67.359375 106.546875 -67.359375 C 105.484375 -58.648438 104.273438 -48.800781 102.921875 -37.8125 C 101.566406 -26.832031 100.164062 -15.875 98.71875 -4.9375 C 95.425781 -3.875 91.578125 -2.710938 87.171875 -1.453125 C 82.765625 -0.191406 78.046875 0.847656 73.015625 1.671875 C 67.984375 2.492188 62.898438 2.804688 57.765625 2.609375 C 52.640625 2.421875 47.65625 1.476562 42.8125 -0.21875 C 37.976562 -1.914062 33.578125 -4.695312 29.609375 -8.5625 C 25.640625 -12.4375 22.300781 -17.664062 19.59375 -24.25 C 18.050781 -28.019531 16.695312 -32.953125 15.53125 -39.046875 C 14.375 -45.148438 13.3125 -51.972656 12.34375 -59.515625 C 11.375 -67.066406 10.453125 -74.976562 9.578125 -83.25 C 8.710938 -91.53125 7.890625 -99.757812 7.109375 -107.9375 C 6.335938 -116.113281 5.515625 -123.828125 4.640625 -131.078125 C 5.515625 -134.078125 7.351562 -136.765625 10.15625 -139.140625 C 12.96875 -141.515625 16.285156 -143.398438 20.109375 -144.796875 C 23.929688 -146.203125 27.921875 -146.953125 32.078125 -147.046875 C 36.242188 -147.148438 40.210938 -146.5 43.984375 -145.09375 C 47.753906 -143.6875 50.921875 -141.335938 53.484375 -138.046875 C 56.054688 -134.765625 57.632812 -130.410156 58.21875 -124.984375 C 60.050781 -108.335938 61.039062 -93.675781 61.1875 -81 C 61.332031 -68.320312 61.890625 -57.867188 62.859375 -49.640625 C 63.046875 -49.640625 63.257812 -49.640625 63.5 -49.640625 C 63.75 -49.640625 64.019531 -49.640625 64.3125 -49.640625 C 65.664062 -55.253906 67.019531 -60.867188 68.375 -66.484375 C 69.726562 -72.097656 71.082031 -77.804688 72.4375 -83.609375 C 73.695312 -88.648438 75.125 -94.171875 76.71875 -100.171875 C 78.3125 -106.171875 79.882812 -112.070312 81.4375 -117.875 C 82.988281 -123.675781 84.390625 -128.800781 85.640625 -133.25 C 86.898438 -137.707031 87.773438 -140.859375 88.265625 -142.703125 C 90.484375 -143.472656 93.238281 -144.242188 96.53125 -145.015625 C 99.820312 -145.796875 103.332031 -146.28125 107.0625 -146.46875 C 110.789062 -146.664062 114.394531 -146.351562 117.875 -145.53125 C 121.351562 -144.707031 124.472656 -143.132812 127.234375 -140.8125 C 129.992188 -138.488281 132.050781 -135.101562 133.40625 -130.65625 C 137.082031 -118.9375 140.6875 -106.109375 144.21875 -92.171875 C 147.75 -78.242188 151.550781 -63.78125 155.625 -48.78125 C 155.90625 -48.875 156.335938 -48.921875 156.921875 -48.921875 C 157.703125 -53.367188 158.5 -58.738281 159.3125 -65.03125 C 160.132812 -71.320312 160.929688 -78.023438 161.703125 -85.140625 C 162.484375 -92.253906 163.234375 -99.316406 163.953125 -106.328125 C 164.679688 -113.347656 165.3125 -119.859375 165.84375 -125.859375 C 166.382812 -131.859375 166.800781 -136.890625 167.09375 -140.953125 Z M 167.09375 -140.953125 "/></g></g></g><g fill="#0097b2" fill-opacity="1"><g transform="translate(263.558598, 242.971039)"><g><path d="M 59.65625 -116.71875 C 60.144531 -113.8125 60.507812 -109.625 60.75 -104.15625 C 60.988281 -98.6875 61.132812 -92.421875 61.1875 -85.359375 C 61.238281 -78.296875 61.210938 -70.941406 61.109375 -63.296875 C 61.015625 -55.648438 60.820312 -48.097656 60.53125 -40.640625 C 60.238281 -33.191406 59.898438 -26.347656 59.515625 -20.109375 C 59.128906 -13.867188 58.644531 -8.710938 58.0625 -4.640625 C 55.644531 -2.023438 52.570312 -0.140625 48.84375 1.015625 C 45.125 2.179688 41.15625 2.492188 36.9375 1.953125 C 32.726562 1.421875 28.640625 -0.0234375 24.671875 -2.390625 C 20.703125 -4.765625 17.191406 -8.148438 14.140625 -12.546875 C 11.097656 -16.953125 8.945312 -22.398438 7.6875 -28.890625 C 7.300781 -30.722656 6.960938 -33.789062 6.671875 -38.09375 C 6.378906 -42.40625 6.113281 -47.488281 5.875 -53.34375 C 5.632812 -59.195312 5.460938 -65.507812 5.359375 -72.28125 C 5.265625 -79.0625 5.242188 -85.863281 5.296875 -92.6875 C 5.347656 -99.507812 5.46875 -106.015625 5.65625 -112.203125 C 5.851562 -118.398438 6.171875 -123.894531 6.609375 -128.6875 C 7.046875 -133.476562 7.601562 -137.132812 8.28125 -139.65625 C 10.988281 -142.070312 14.300781 -143.90625 18.21875 -145.15625 C 22.132812 -146.414062 26.269531 -146.945312 30.625 -146.75 C 34.976562 -146.5625 39.164062 -145.398438 43.1875 -143.265625 C 47.207031 -141.140625 50.691406 -137.925781 53.640625 -133.625 C 56.585938 -129.320312 58.59375 -123.6875 59.65625 -116.71875 Z M 59.65625 -116.71875 "/></g></g></g></svg>