<svg xmlns="http://www.w3.org/2000/svg" xmlns:xlink="http://www.w3.org/1999/xlink" width="500" zoomAndPan="magnify" viewBox="0 0 375 374.999991" height="500" preserveAspectRatio="xMidYMid meet" version="1.0"><defs><g/></defs><path stroke-linecap="butt" transform="matrix(0.75, 0, 0, 0.75, -16.083971, 56.053943)" fill="none" stroke-linejoin="miter" d="M 239.835936 59.589539 C 245.846353 56.625997 252.059895 54.610372 258.476562 53.532247 C 264.940104 52.407246 271.065105 52.344746 276.851563 53.329122 C 282.684897 54.318705 287.820314 56.422872 292.263023 59.657247 C 296.747398 62.886414 300.091148 67.329122 302.289065 72.980165 C 304.533857 78.58954 305.164065 85.500999 304.174482 93.709333 C 303.544274 98.870791 302.513024 105.261417 301.080732 112.891625 C 299.690107 120.469751 298.049482 128.683293 296.164065 137.521835 C 294.283856 146.313503 292.216148 155.334337 289.976564 164.573921 C 287.773439 173.818713 285.533856 182.834338 283.242189 191.631214 C 281.002605 200.381215 278.825522 208.36559 276.716147 215.589549 C 274.653647 222.813508 272.76823 228.803091 271.065105 233.5583 C 266.888021 234.948925 261.955729 236.454134 256.257812 238.068717 C 250.559895 239.724967 244.455728 241.073926 237.950519 242.105176 C 231.492186 243.183301 224.940102 243.516634 218.299476 243.115592 C 211.705726 242.756217 205.424475 241.318717 199.455725 238.8083 C 193.53385 236.292675 188.263016 232.235383 183.638016 226.626008 C 179.065099 220.974966 175.49739 213.370799 172.940098 203.813506 C 171.460932 198.292673 170.315098 193.157256 169.507806 188.402047 C 168.742181 183.599963 168.070306 178.417671 167.486973 172.855171 C 166.950515 167.292671 166.252598 160.584337 165.40364 152.73017 C 164.908848 152.73017 164.502598 152.73017 164.190098 152.73017 C 163.919264 152.73017 163.585931 152.73017 163.179681 152.73017 C 161.835931 163.766629 160.309889 176.240588 158.606764 190.152047 C 156.898431 204.058298 155.127597 217.922882 153.289055 231.740592 C 149.11718 233.08955 144.247388 234.568717 138.684888 236.1833 C 133.122387 237.751009 127.153637 239.053092 120.783845 240.084342 C 114.408844 241.162467 107.971344 241.568717 101.466135 241.297884 C 94.960927 241.073926 88.638009 239.886425 82.486967 237.730175 C 76.388009 235.579134 70.825508 232.053092 65.799466 227.162466 C 60.773424 222.271841 56.554674 215.657257 53.148424 207.313507 C 51.174465 202.511423 49.445299 196.251006 47.966132 188.532255 C 46.481757 180.818713 45.138007 172.183296 43.924465 162.626004 C 42.716131 153.068711 41.549465 143.063502 40.424465 132.610377 C 39.351548 122.110376 38.320298 111.698917 37.330714 101.381208 C 36.341131 91.016624 35.289048 81.235373 34.169256 72.037456 C 35.289048 68.271831 37.622381 64.881206 41.169256 61.875997 C 44.710923 58.870789 48.90884 56.49058 53.752591 54.74058 C 58.596341 52.948913 63.643216 51.985371 68.893217 51.849955 C 74.190092 51.714538 79.216134 52.542663 83.971342 54.339538 C 88.768218 56.089538 92.783843 59.047872 96.018218 63.224956 C 99.289052 67.396831 101.289052 72.912456 102.007802 79.77704 C 104.341135 100.865583 105.596344 119.438501 105.773427 135.501002 C 105.955719 151.521836 106.648427 164.735379 107.861969 175.14163 C 108.127594 175.14163 108.398427 175.14163 108.669261 175.14163 C 108.981761 175.14163 109.341136 175.14163 109.747386 175.14163 C 111.450511 168.053087 113.153636 160.964545 114.86197 153.876003 C 116.565095 146.740586 118.294261 139.495794 120.044262 132.136418 C 121.61197 125.766626 123.408845 118.787459 125.42447 111.209334 C 127.445304 103.626 129.440095 96.152041 131.414054 88.797874 C 133.388012 81.438498 135.164054 74.954123 136.731763 69.344748 C 138.346346 63.693706 139.445304 59.698914 140.028638 57.36558 C 142.856763 56.381205 146.356763 55.391622 150.528639 54.407247 C 154.700514 53.417663 159.143222 52.813497 163.856764 52.589538 C 168.565098 52.318705 173.117182 52.724955 177.518224 53.797872 C 181.955724 54.83433 185.903641 56.829122 189.361974 59.792664 C 192.861975 62.704122 195.460933 66.969747 197.169267 72.579123 C 201.835934 87.428082 206.408851 103.667667 210.898434 121.303084 C 215.382809 138.933294 220.184893 157.240587 225.299477 176.219755 C 225.658852 176.131213 226.221352 176.084338 226.981769 176.084338 C 227.966144 170.433296 228.97656 163.631212 230.00781 155.693712 C 231.044269 147.704128 232.049477 139.224961 233.039061 130.251002 C 234.023436 121.235376 234.966144 112.28225 235.867186 103.402041 C 236.809894 94.516624 237.617186 86.282249 238.289061 78.698915 C 238.960936 71.073914 239.476561 64.704122 239.835936 59.589539 Z M 410.372406 50.568705 C 422.89324 50.433288 433.815115 51.849955 443.148449 54.808288 C 452.52345 57.724955 460.513034 61.516622 467.106784 66.183289 C 473.74741 70.849956 479.242202 75.80829 483.596369 81.05829 C 487.945327 86.30829 491.377619 91.308291 493.893244 96.063499 C 496.403661 100.777041 498.22137 104.589542 499.341161 107.506208 C 503.606787 119.261418 506.143245 131.126002 506.950537 143.105169 C 507.757829 155.04267 506.320329 167.063504 502.643245 179.178088 C 492.591161 211.391632 471.210951 231.360383 438.502616 239.079134 C 425.26824 242.261426 412.210947 243.271842 399.335947 242.105176 C 386.460946 240.938509 373.898445 237.193717 361.648444 230.865592 C 350.028652 224.855174 340.742193 217.047882 333.783859 207.443715 C 326.877608 197.797881 322.02865 186.67288 319.2474 174.063504 C 317.408858 166.079129 316.330733 157.933295 316.018233 149.63642 C 315.705733 141.292669 316.174483 133.19371 317.434899 125.339543 C 318.731775 117.490584 320.867191 110.443709 323.825525 104.209333 C 326.742192 97.704124 330.533859 91.308291 335.200526 85.02704 C 339.867193 78.698915 345.632818 72.938498 352.497402 67.730164 C 359.361986 62.527039 367.570319 58.375997 377.127612 55.282247 C 386.684904 52.141621 397.768238 50.568705 410.372406 50.568705 Z M 411.315114 116.323917 C 406.783864 116.323917 402.591155 117.579126 398.73178 120.089543 C 394.872405 122.605168 391.820321 126.34996 389.575529 131.329127 C 387.377612 136.266627 386.528654 142.412461 387.018237 149.771836 C 387.513029 156.902045 389.127613 162.558295 391.867196 166.730171 C 394.648446 170.855171 397.898446 173.818713 401.622405 175.615588 C 405.393239 177.407255 408.872405 178.17288 412.054697 177.902046 C 415.330739 177.678088 418.653656 176.620796 422.01824 174.740588 C 425.42449 172.808296 428.320323 169.756213 430.700532 165.584337 C 433.075532 161.412462 434.445324 155.896837 434.804699 149.032253 C 435.294282 142.073919 434.466157 136.172877 432.315115 131.329127 C 430.20574 126.485376 427.263032 122.782251 423.497406 120.224959 C 419.773448 117.620792 415.710948 116.323917 411.315114 116.323917 Z M 411.315114 116.323917 " stroke="#431b72" stroke-width="10.337475" stroke-opacity="1" stroke-miterlimit="4"/><g fill="#b58de4" fill-opacity="1"><g transform="translate(5.150402, 234.553931)"><g><path d="M 158.640625 -133.84375 C 163.148438 -136.039062 167.816406 -137.550781 172.640625 -138.375 C 177.460938 -139.207031 182.054688 -139.253906 186.421875 -138.515625 C 190.785156 -137.785156 194.644531 -136.203125 198 -133.765625 C 201.351562 -131.328125 203.851562 -127.992188 205.5 -123.765625 C 207.15625 -119.546875 207.617188 -114.359375 206.890625 -108.203125 C 206.429688 -104.335938 205.671875 -99.554688 204.609375 -93.859375 C 203.554688 -88.160156 202.316406 -82.003906 200.890625 -75.390625 C 199.460938 -68.773438 197.921875 -62 196.265625 -55.0625 C 194.617188 -48.125 192.941406 -41.367188 191.234375 -34.796875 C 189.535156 -28.234375 187.90625 -22.238281 186.34375 -16.8125 C 184.78125 -11.394531 183.359375 -6.894531 182.078125 -3.3125 C 178.953125 -2.300781 175.253906 -1.175781 170.984375 0.0625 C 166.710938 1.300781 162.140625 2.3125 157.265625 3.09375 C 152.398438 3.875 147.484375 4.128906 142.515625 3.859375 C 137.554688 3.585938 132.847656 2.507812 128.390625 0.625 C 123.929688 -1.257812 119.976562 -4.316406 116.53125 -8.546875 C 113.09375 -12.773438 110.40625 -18.472656 108.46875 -25.640625 C 107.375 -29.773438 106.523438 -33.632812 105.921875 -37.21875 C 105.328125 -40.800781 104.820312 -44.679688 104.40625 -48.859375 C 103.988281 -53.046875 103.460938 -58.078125 102.828125 -63.953125 C 102.453125 -63.953125 102.148438 -63.953125 101.921875 -63.953125 C 101.691406 -63.953125 101.441406 -63.953125 101.171875 -63.953125 C 100.160156 -55.679688 99.007812 -46.332031 97.71875 -35.90625 C 96.4375 -25.476562 95.109375 -15.070312 93.734375 -4.6875 C 90.609375 -3.675781 86.953125 -2.570312 82.765625 -1.375 C 78.585938 -0.1875 74.109375 0.796875 69.328125 1.578125 C 64.546875 2.359375 59.71875 2.65625 54.84375 2.46875 C 49.976562 2.289062 45.25 1.398438 40.65625 -0.203125 C 36.0625 -1.816406 31.878906 -4.457031 28.109375 -8.125 C 24.347656 -11.800781 21.179688 -16.765625 18.609375 -23.015625 C 17.140625 -26.597656 15.851562 -31.285156 14.75 -37.078125 C 13.644531 -42.867188 12.632812 -49.347656 11.71875 -56.515625 C 10.800781 -63.679688 9.925781 -71.191406 9.09375 -79.046875 C 8.269531 -86.898438 7.488281 -94.707031 6.75 -102.46875 C 6.019531 -110.238281 5.238281 -117.570312 4.40625 -124.46875 C 5.238281 -127.3125 6.984375 -129.859375 9.640625 -132.109375 C 12.304688 -134.359375 15.453125 -136.148438 19.078125 -137.484375 C 22.710938 -138.816406 26.503906 -139.53125 30.453125 -139.625 C 34.410156 -139.71875 38.179688 -139.097656 41.765625 -137.765625 C 45.347656 -136.429688 48.351562 -134.203125 50.78125 -131.078125 C 53.21875 -127.953125 54.710938 -123.816406 55.265625 -118.671875 C 57.015625 -102.867188 57.957031 -88.945312 58.09375 -76.90625 C 58.226562 -64.875 58.757812 -54.953125 59.6875 -47.140625 C 59.863281 -47.140625 60.066406 -47.140625 60.296875 -47.140625 C 60.523438 -47.140625 60.78125 -47.140625 61.0625 -47.140625 C 62.34375 -52.472656 63.625 -57.800781 64.90625 -63.125 C 66.195312 -68.457031 67.488281 -73.878906 68.78125 -79.390625 C 69.976562 -84.171875 71.332031 -89.410156 72.84375 -95.109375 C 74.363281 -100.804688 75.859375 -106.410156 77.328125 -111.921875 C 78.796875 -117.429688 80.125 -122.300781 81.3125 -126.53125 C 82.507812 -130.757812 83.335938 -133.742188 83.796875 -135.484375 C 85.910156 -136.222656 88.53125 -136.957031 91.65625 -137.6875 C 94.78125 -138.425781 98.109375 -138.882812 101.640625 -139.0625 C 105.179688 -139.25 108.601562 -138.953125 111.90625 -138.171875 C 115.21875 -137.390625 118.179688 -135.894531 120.796875 -133.6875 C 123.421875 -131.488281 125.378906 -128.273438 126.671875 -124.046875 C 130.160156 -112.929688 133.582031 -100.753906 136.9375 -87.515625 C 140.289062 -74.285156 143.894531 -60.550781 147.75 -46.3125 C 148.03125 -46.40625 148.445312 -46.453125 149 -46.453125 C 149.726562 -50.679688 150.484375 -55.78125 151.265625 -61.75 C 152.046875 -67.71875 152.804688 -74.078125 153.546875 -80.828125 C 154.285156 -87.585938 155 -94.296875 155.6875 -100.953125 C 156.375 -107.617188 156.96875 -113.800781 157.46875 -119.5 C 157.976562 -125.195312 158.367188 -129.976562 158.640625 -133.84375 Z M 158.640625 -133.84375 "/></g></g></g><g fill="#b58de4" fill-opacity="1"><g transform="translate(215.479016, 234.553931)"><g><path d="M 76.21875 -140.59375 C 85.59375 -140.6875 93.796875 -139.628906 100.828125 -137.421875 C 107.859375 -135.210938 113.851562 -132.363281 118.8125 -128.875 C 123.769531 -125.382812 127.878906 -121.660156 131.140625 -117.703125 C 134.410156 -113.753906 136.984375 -110.007812 138.859375 -106.46875 C 140.742188 -102.9375 142.101562 -100.066406 142.9375 -97.859375 C 146.144531 -89.035156 148.046875 -80.144531 148.640625 -71.1875 C 149.242188 -62.226562 148.171875 -53.203125 145.421875 -44.109375 C 137.878906 -19.941406 121.84375 -4.960938 97.3125 0.828125 C 87.382812 3.210938 77.597656 3.96875 67.953125 3.09375 C 58.304688 2.226562 48.890625 -0.59375 39.703125 -5.375 C 30.972656 -9.875 24.007812 -15.726562 18.8125 -22.9375 C 13.625 -30.15625 9.972656 -38.5 7.859375 -47.96875 C 6.472656 -53.9375 5.664062 -60.046875 5.4375 -66.296875 C 5.207031 -72.546875 5.578125 -78.609375 6.546875 -84.484375 C 7.515625 -90.367188 9.097656 -95.65625 11.296875 -100.34375 C 13.503906 -105.207031 16.351562 -110.003906 19.84375 -114.734375 C 23.332031 -119.472656 27.648438 -123.796875 32.796875 -127.703125 C 37.941406 -131.609375 44.097656 -134.734375 51.265625 -137.078125 C 58.441406 -139.421875 66.757812 -140.59375 76.21875 -140.59375 Z M 76.90625 -91.25 C 73.507812 -91.25 70.363281 -90.304688 67.46875 -88.421875 C 64.570312 -86.535156 62.296875 -83.734375 60.640625 -80.015625 C 58.992188 -76.296875 58.351562 -71.675781 58.71875 -66.15625 C 59.082031 -60.832031 60.296875 -56.609375 62.359375 -53.484375 C 64.429688 -50.359375 66.867188 -48.128906 69.671875 -46.796875 C 72.472656 -45.460938 75.070312 -44.890625 77.46875 -45.078125 C 79.945312 -45.253906 82.445312 -46.054688 84.96875 -47.484375 C 87.5 -48.910156 89.660156 -51.1875 91.453125 -54.3125 C 93.242188 -57.4375 94.273438 -61.570312 94.546875 -66.71875 C 94.921875 -71.945312 94.300781 -76.375 92.6875 -80 C 91.082031 -83.632812 88.878906 -86.414062 86.078125 -88.34375 C 83.273438 -90.28125 80.21875 -91.25 76.90625 -91.25 Z M 76.90625 -91.25 "/></g></g></g></svg>