<svg xmlns="http://www.w3.org/2000/svg" xmlns:xlink="http://www.w3.org/1999/xlink" width="500" zoomAndPan="magnify" viewBox="0 0 375 374.999991" height="500" preserveAspectRatio="xMidYMid meet" version="1.0"><defs><g/></defs><path stroke-linecap="butt" transform="matrix(0.75, 0, 0, 0.75, -16.083971, 56.253863)" fill="none" stroke-linejoin="miter" d="M 242.591145 59.307354 C 248.54427 56.375062 254.70052 54.38027 261.054687 53.312562 C 267.450521 52.197978 273.51823 52.135478 279.247397 53.109437 C 285.023439 54.088603 290.111981 56.177145 294.513023 59.375062 C 298.955732 62.578187 302.268232 66.974021 304.445315 72.572979 C 306.664065 78.125063 307.289065 84.968814 306.309899 93.099023 C 305.684899 98.213606 304.664065 104.541732 303.24219 112.099024 C 301.86719 119.604233 300.24219 127.73965 298.377607 136.48965 C 296.513023 145.197984 294.466148 154.130277 292.247398 163.286527 C 290.070314 172.437569 287.846356 181.369862 285.580731 190.078196 C 283.361981 198.744863 281.20573 206.651113 279.117189 213.807364 C 277.070314 220.958406 275.20573 226.890698 273.51823 231.599032 C 269.382813 232.97924 264.497396 234.468823 258.856771 236.067782 C 253.210937 237.708407 247.16927 239.04174 240.726561 240.067782 C 234.325519 241.130282 227.841144 241.463616 221.263018 241.067782 C 214.731768 240.708407 208.513017 239.286532 202.601559 236.802157 C 196.736975 234.312573 191.513016 230.29174 186.940099 224.734448 C 182.408849 219.135489 178.87239 211.604239 176.34114 202.140696 C 174.87239 196.677154 173.742182 191.588612 172.940098 186.880279 C 172.18489 182.12507 171.518223 176.989653 170.940098 171.484444 C 170.408848 165.974027 169.721348 159.328194 168.877598 151.552151 C 168.388015 151.552151 167.986973 151.552151 167.674473 151.552151 C 167.408848 151.552151 167.075515 151.552151 166.674473 151.552151 C 165.346348 162.484444 163.830723 174.838611 162.143223 188.609445 C 160.455723 202.385488 158.700514 216.114656 156.877597 229.802156 C 152.747389 231.13549 147.924472 232.599032 142.414055 234.19799 C 136.908846 235.755282 130.997387 237.04174 124.684887 238.067782 C 118.377595 239.130282 112.002594 239.531324 105.559886 239.265699 C 99.117177 239.04174 92.851551 237.864657 86.763009 235.734449 C 80.721342 233.599032 75.210925 230.114657 70.231758 225.270906 C 65.2578 220.427156 61.080716 213.869864 57.705716 205.609447 C 55.747382 200.854238 54.039049 194.656321 52.570299 187.010487 C 51.106757 179.369862 49.773424 170.817778 48.570299 161.349027 C 47.372382 151.885485 46.216132 141.979234 45.106757 131.625067 C 44.039048 121.229233 43.018215 110.92194 42.039048 100.697981 C 41.06509 90.437564 40.018215 80.750063 38.90884 71.640688 C 40.018215 67.906313 42.330715 64.552146 45.841132 61.578187 C 49.351549 58.59902 53.50259 56.244853 58.304674 54.510478 C 63.101549 52.734437 68.10155 51.776103 73.299467 51.645895 C 78.544259 51.510478 83.518217 52.333395 88.231759 54.109437 C 92.98176 55.843812 96.960927 58.776104 100.158844 62.911521 C 103.403635 67.041729 105.382802 72.505271 106.091136 79.307355 C 108.403636 100.187565 109.648428 118.583399 109.825511 134.48965 C 110.002594 150.354235 110.690094 163.437569 111.888011 173.750069 C 112.158844 173.750069 112.424469 173.750069 112.690094 173.750069 C 113.002594 173.750069 113.356761 173.750069 113.757803 173.750069 C 115.445303 166.729236 117.132803 159.708402 118.820303 152.687568 C 120.507803 145.619859 122.221345 138.447984 123.95572 131.161525 C 125.507804 124.849025 127.283845 117.937566 129.283845 110.432357 C 131.283846 102.92194 133.263012 95.520898 135.216138 88.234439 C 137.174471 80.94798 138.929679 74.526105 140.481763 68.974021 C 142.080721 63.375062 143.169263 59.421937 143.747388 57.109437 C 146.549472 56.13027 150.013013 55.156312 154.14843 54.177145 C 158.278639 53.197978 162.679681 52.59902 167.34114 52.38027 C 172.007807 52.109436 176.518224 52.510478 180.872391 53.578187 C 185.273432 54.59902 189.184891 56.578187 192.601558 59.510479 C 196.070308 62.395895 198.648433 66.619854 200.335933 72.171938 C 204.955725 86.880272 209.486976 102.963606 213.929684 120.427149 C 218.377601 137.890692 223.127602 156.020902 228.19531 174.81257 C 228.549477 174.724028 229.106769 174.682361 229.861977 174.682361 C 230.841144 169.083402 231.841144 162.349027 232.861977 154.484443 C 233.882811 146.578193 234.882811 138.17715 235.861977 129.291733 C 236.835936 120.359441 237.768228 111.494857 238.658853 102.697981 C 239.591144 93.901106 240.393228 85.750064 241.059894 78.239647 C 241.726561 70.682354 242.236978 64.375062 242.591145 59.307354 Z M 496.664078 174.145903 C 495.330745 185.791737 491.929703 195.807363 486.466161 204.208405 C 480.99741 212.562572 474.200535 219.468822 466.070326 224.937573 C 457.940117 230.359448 449.143241 234.380282 439.674491 237.000074 C 430.210949 239.619865 420.747406 240.932366 411.283864 240.932366 C 403.643238 240.932366 395.976571 240.489657 388.289071 239.599032 C 380.60157 238.755282 373.158861 237.067782 365.960944 234.531323 C 358.809902 232.000073 352.231777 228.312573 346.231776 223.468823 C 340.231776 218.583406 335.169276 212.208405 331.039067 204.338613 C 326.90365 196.432363 324.0599 186.588612 322.507816 174.81257 C 320.90365 163.796944 320.127608 151.796943 320.174483 138.822984 C 320.263025 125.849025 320.84115 112.60944 321.90365 99.099023 C 323.018233 85.546939 324.414067 72.505271 326.106775 59.97402 C 327.4349 58.552145 329.856775 57.244853 333.367192 56.041728 C 336.924484 54.802145 341.101568 53.890687 345.898443 53.312562 C 350.700527 52.687562 355.674485 52.59902 360.830736 53.046937 C 365.981778 53.44277 370.825528 54.557353 375.356778 56.375062 C 379.893237 58.197979 383.736987 60.822979 386.888029 64.239646 C 390.044279 67.619854 391.997404 72.083396 392.752613 77.640688 C 392.976571 79.593813 393.111988 83.349022 393.153654 88.901106 C 393.242196 94.411523 393.289071 100.968815 393.289071 108.562565 C 393.289071 116.119857 393.377613 124.05215 393.554696 132.359442 C 393.73178 140.666734 394.023446 148.599026 394.41928 156.15111 C 394.867196 163.661527 395.507821 170.015694 396.351571 175.213611 C 397.10678 179.213611 398.773446 182.369862 401.351572 184.677154 C 403.976572 186.989654 406.929697 188.234445 410.216156 188.411529 C 413.507822 188.588612 416.528656 187.567779 419.283865 185.34382 C 422.08074 183.078195 423.971365 179.458403 424.945323 174.479236 C 425.789073 170.125069 426.544282 164.437569 427.210948 157.416735 C 427.877615 150.354235 428.388032 142.645901 428.747407 134.291734 C 429.148448 125.8959 429.29949 117.385482 429.210948 108.76569 C 429.169282 100.145898 428.903657 91.989647 428.414073 84.302147 C 427.92449 76.614646 427.148448 70.041729 426.08074 64.572979 C 428.481782 62.13027 431.76824 60.041729 435.945324 58.312562 C 440.164074 56.531312 444.877616 55.312562 450.075533 54.645895 C 455.27345 53.979228 460.518242 54.046937 465.804701 54.843812 C 471.09116 55.59902 476.023452 57.28652 480.601577 59.91152 C 485.221369 62.531312 489.085952 66.265687 492.195328 71.109438 C 495.309911 75.94798 497.216161 82.083397 497.929703 89.500064 C 498.419286 94.479231 498.861995 99.010481 499.263036 103.099023 C 499.705745 107.14069 500.018245 111.255274 500.195328 115.427149 C 500.372412 119.604233 500.393245 124.317775 500.263036 129.557358 C 500.174495 134.760484 499.841161 140.932359 499.263036 148.088609 C 498.726578 155.239652 497.861995 163.927152 496.664078 174.145903 Z M 496.664078 174.145903 " stroke="#800000" stroke-width="10.2375" stroke-opacity="1" stroke-miterlimit="4"/><g fill="#ff5757" fill-opacity="1"><g transform="translate(8.748058, 233.253851)"><g><path d="M 157.109375 -132.546875 C 161.566406 -134.722656 166.179688 -136.222656 170.953125 -137.046875 C 175.734375 -137.867188 180.285156 -137.914062 184.609375 -137.1875 C 188.929688 -136.457031 192.753906 -134.882812 196.078125 -132.46875 C 199.398438 -130.0625 201.878906 -126.765625 203.515625 -122.578125 C 205.160156 -118.390625 205.617188 -113.25 204.890625 -107.15625 C 204.429688 -103.332031 203.675781 -98.597656 202.625 -92.953125 C 201.582031 -87.316406 200.351562 -81.222656 198.9375 -74.671875 C 197.53125 -68.117188 196.007812 -61.40625 194.375 -54.53125 C 192.738281 -47.65625 191.078125 -40.960938 189.390625 -34.453125 C 187.710938 -27.953125 186.097656 -22.015625 184.546875 -16.640625 C 183.003906 -11.273438 181.59375 -6.820312 180.3125 -3.28125 C 177.21875 -2.28125 173.554688 -1.164062 169.328125 0.0625 C 165.097656 1.289062 160.570312 2.289062 155.75 3.0625 C 150.925781 3.84375 146.054688 4.09375 141.140625 3.8125 C 136.222656 3.539062 131.554688 2.472656 127.140625 0.609375 C 122.734375 -1.253906 118.820312 -4.273438 115.40625 -8.453125 C 112 -12.640625 109.335938 -18.285156 107.421875 -25.390625 C 106.328125 -29.484375 105.484375 -33.300781 104.890625 -36.84375 C 104.304688 -40.394531 103.804688 -44.238281 103.390625 -48.375 C 102.984375 -52.519531 102.460938 -57.507812 101.828125 -63.34375 C 101.460938 -63.34375 101.164062 -63.34375 100.9375 -63.34375 C 100.707031 -63.34375 100.457031 -63.34375 100.1875 -63.34375 C 99.1875 -55.144531 98.050781 -45.878906 96.78125 -35.546875 C 95.507812 -25.222656 94.1875 -14.921875 92.8125 -4.640625 C 89.71875 -3.640625 86.097656 -2.546875 81.953125 -1.359375 C 77.816406 -0.179688 73.382812 0.789062 68.65625 1.5625 C 63.925781 2.34375 59.148438 2.640625 54.328125 2.453125 C 49.503906 2.273438 44.816406 1.390625 40.265625 -0.203125 C 35.710938 -1.796875 31.570312 -4.410156 27.84375 -8.046875 C 24.113281 -11.691406 20.972656 -16.609375 18.421875 -22.796875 C 16.972656 -26.347656 15.703125 -30.988281 14.609375 -36.71875 C 13.515625 -42.445312 12.507812 -48.859375 11.59375 -55.953125 C 10.6875 -63.054688 9.820312 -70.5 9 -78.28125 C 8.1875 -86.0625 7.414062 -93.796875 6.6875 -101.484375 C 5.957031 -109.171875 5.1875 -116.429688 4.375 -123.265625 C 5.1875 -126.078125 6.910156 -128.597656 9.546875 -130.828125 C 12.191406 -133.054688 15.3125 -134.832031 18.90625 -136.15625 C 22.5 -137.476562 26.25 -138.179688 30.15625 -138.265625 C 34.070312 -138.359375 37.804688 -137.742188 41.359375 -136.421875 C 44.910156 -135.109375 47.890625 -132.90625 50.296875 -129.8125 C 52.710938 -126.71875 54.191406 -122.625 54.734375 -117.53125 C 56.460938 -101.875 57.394531 -88.082031 57.53125 -76.15625 C 57.664062 -64.238281 58.191406 -54.414062 59.109375 -46.6875 C 59.285156 -46.6875 59.488281 -46.6875 59.71875 -46.6875 C 59.945312 -46.6875 60.195312 -46.6875 60.46875 -46.6875 C 61.738281 -51.957031 63.007812 -57.234375 64.28125 -62.515625 C 65.5625 -67.796875 66.835938 -73.164062 68.109375 -78.625 C 69.296875 -83.351562 70.640625 -88.535156 72.140625 -94.171875 C 73.640625 -99.816406 75.117188 -105.367188 76.578125 -110.828125 C 78.035156 -116.296875 79.351562 -121.117188 80.53125 -125.296875 C 81.71875 -129.484375 82.535156 -132.441406 82.984375 -134.171875 C 85.078125 -134.898438 87.671875 -135.628906 90.765625 -136.359375 C 93.859375 -137.085938 97.15625 -137.539062 100.65625 -137.71875 C 104.164062 -137.90625 107.554688 -137.613281 110.828125 -136.84375 C 114.109375 -136.070312 117.046875 -134.59375 119.640625 -132.40625 C 122.234375 -130.21875 124.164062 -127.03125 125.4375 -122.84375 C 128.894531 -111.832031 132.285156 -99.773438 135.609375 -86.671875 C 138.929688 -73.566406 142.503906 -59.960938 146.328125 -45.859375 C 146.597656 -45.953125 147.007812 -46 147.5625 -46 C 148.28125 -50.1875 149.023438 -55.238281 149.796875 -61.15625 C 150.578125 -67.070312 151.332031 -73.375 152.0625 -80.0625 C 152.789062 -86.75 153.492188 -93.390625 154.171875 -99.984375 C 154.859375 -106.578125 155.453125 -112.695312 155.953125 -118.34375 C 156.453125 -123.988281 156.835938 -128.722656 157.109375 -132.546875 Z M 157.109375 -132.546875 "/></g></g></g><g fill="#ff5757" fill-opacity="1"><g transform="translate(217.047089, 233.253851)"><g><path d="M 139.359375 -46.40625 C 138.359375 -37.675781 135.8125 -30.171875 131.71875 -23.890625 C 127.625 -17.609375 122.523438 -12.421875 116.421875 -8.328125 C 110.328125 -4.234375 103.734375 -1.207031 96.640625 0.75 C 89.546875 2.707031 82.445312 3.6875 75.34375 3.6875 C 69.613281 3.6875 63.859375 3.367188 58.078125 2.734375 C 52.296875 2.097656 46.722656 0.828125 41.359375 -1.078125 C 35.992188 -2.992188 31.054688 -5.769531 26.546875 -9.40625 C 22.046875 -13.050781 18.25 -17.832031 15.15625 -23.75 C 12.0625 -29.664062 9.921875 -37.035156 8.734375 -45.859375 C 7.554688 -54.140625 6.988281 -63.148438 7.03125 -72.890625 C 7.070312 -82.628906 7.503906 -92.570312 8.328125 -102.71875 C 9.148438 -112.863281 10.195312 -122.625 11.46875 -132 C 12.46875 -133.09375 14.285156 -134.09375 16.921875 -135 C 19.566406 -135.90625 22.6875 -136.585938 26.28125 -137.046875 C 29.875 -137.503906 33.601562 -137.570312 37.46875 -137.25 C 41.332031 -136.925781 44.972656 -136.082031 48.390625 -134.71875 C 51.804688 -133.351562 54.695312 -131.394531 57.0625 -128.84375 C 59.425781 -126.300781 60.878906 -122.9375 61.421875 -118.75 C 61.609375 -117.300781 61.722656 -114.503906 61.765625 -110.359375 C 61.804688 -106.222656 61.828125 -101.3125 61.828125 -95.625 C 61.828125 -89.9375 61.894531 -83.972656 62.03125 -77.734375 C 62.175781 -71.503906 62.40625 -65.566406 62.71875 -59.921875 C 63.039062 -54.273438 63.519531 -49.5 64.15625 -45.59375 C 64.695312 -42.59375 65.945312 -40.226562 67.90625 -38.5 C 69.863281 -36.769531 72.070312 -35.832031 74.53125 -35.6875 C 76.988281 -35.550781 79.265625 -36.328125 81.359375 -38.015625 C 83.453125 -39.703125 84.859375 -42.410156 85.578125 -46.140625 C 86.222656 -49.410156 86.796875 -53.6875 87.296875 -58.96875 C 87.796875 -64.25 88.179688 -70.023438 88.453125 -76.296875 C 88.722656 -82.578125 88.832031 -88.945312 88.78125 -95.40625 C 88.738281 -101.875 88.535156 -107.992188 88.171875 -113.765625 C 87.816406 -119.546875 87.226562 -124.484375 86.40625 -128.578125 C 88.226562 -130.398438 90.707031 -131.96875 93.84375 -133.28125 C 96.976562 -134.601562 100.503906 -135.515625 104.421875 -136.015625 C 108.335938 -136.515625 112.273438 -136.46875 116.234375 -135.875 C 120.191406 -135.289062 123.898438 -134.019531 127.359375 -132.0625 C 130.816406 -130.101562 133.703125 -127.300781 136.015625 -123.65625 C 138.335938 -120.019531 139.773438 -115.425781 140.328125 -109.875 C 140.691406 -106.144531 141.03125 -102.753906 141.34375 -99.703125 C 141.664062 -96.660156 141.894531 -93.566406 142.03125 -90.421875 C 142.164062 -87.285156 142.1875 -83.757812 142.09375 -79.84375 C 142 -75.9375 141.75 -71.296875 141.34375 -65.921875 C 140.9375 -60.554688 140.273438 -54.050781 139.359375 -46.40625 Z M 139.359375 -46.40625 "/></g></g></g></svg>