<svg xmlns="http://www.w3.org/2000/svg" xmlns:xlink="http://www.w3.org/1999/xlink" width="500" zoomAndPan="magnify" viewBox="0 0 375 374.999991" height="500" preserveAspectRatio="xMidYMid meet" version="1.0"><defs><g/></defs><path stroke-linecap="butt" transform="matrix(0.702306, 0, 0, 0.702306, -49.761851, 45.712135)" fill="none" stroke-linejoin="miter" d="M 224.600684 163.622212 C 225.423865 161.859047 226.981235 158.238163 229.278355 152.770684 C 231.625533 147.303204 234.362054 140.801186 237.482355 133.275754 C 240.597094 125.750322 243.889818 117.924541 247.360527 109.809533 C 250.831237 101.694525 254.151771 94.107911 257.327692 87.04969 C 260.564796 79.935848 263.295755 74.140209 265.531692 69.673895 C 272.473111 67.732746 279.408967 67.204352 286.350386 68.083154 C 293.347425 68.967517 299.78826 71.02547 305.672892 74.257012 C 311.551962 77.432933 316.402056 81.726823 320.223173 87.138682 C 324.105473 92.489359 326.36922 98.752209 327.019978 105.927233 C 327.665174 113.046637 326.135615 120.955849 322.4313 129.660432 C 318.371016 138.949029 314.344103 147.53681 310.345 155.418212 C 306.345898 163.299614 302.202183 171.147644 297.908292 178.973426 C 293.675585 186.732463 289.175899 195.114448 284.409236 204.11382 C 279.703755 213.113191 274.709049 223.286151 269.413992 234.6327 C 267.000069 238.987773 265.79867 243.426276 265.79867 247.953772 C 265.79867 253.248828 265.79867 259.038905 265.79867 265.335128 C 265.79867 271.570168 265.709678 277.627223 265.531692 283.506293 C 265.41489 289.329743 265.298087 294.268829 265.181284 298.329114 C 265.120102 302.328216 265.092292 304.797759 265.092292 305.737743 C 263.329127 308.146104 260.030841 310.237428 255.208557 312.000593 C 250.386274 313.763758 244.740809 314.998529 238.272164 315.704908 C 231.864701 316.466906 225.21807 316.350104 218.337834 315.3545 C 211.457598 314.408954 204.988952 312.467804 198.931897 309.53105 C 192.930463 306.533114 187.963566 302.239223 184.020084 296.649379 C 180.082164 291.003915 177.963029 283.828891 177.668241 275.124308 C 177.668241 273.717113 177.668241 271.570168 177.668241 268.689034 C 177.668241 265.746718 177.668241 262.6876 177.668241 259.511678 C 177.668241 256.274574 177.701613 253.426813 177.757234 250.95727 C 177.818416 248.426544 177.846226 246.780182 177.846226 246.012622 C 177.729424 243.899049 177.462446 242.219314 177.050855 240.984543 C 176.639265 239.694151 176.021879 238.220212 175.198698 236.57385 C 170.376415 227.285253 164.964556 216.784133 158.968683 205.081613 C 152.967248 193.323474 146.821201 181.148181 140.53054 168.561298 C 134.2955 155.974415 128.355248 143.537707 122.709783 131.245612 C 117.064319 118.953517 112.097422 107.573595 107.803532 97.105847 C 110.979453 89.40243 115.301154 83.11177 120.768633 78.228304 C 126.241675 73.3504 132.209737 69.818508 138.678383 67.643753 C 145.208211 65.468998 151.649046 64.556824 157.995327 64.907232 C 164.34717 65.20202 169.992634 66.670397 174.937283 69.317925 C 179.931989 71.965454 183.725296 75.614148 186.317204 80.258446 C 188.90355 85.08073 191.667881 90.787377 194.604635 97.372825 C 197.608133 103.958273 200.606069 110.866319 203.604006 118.102526 C 206.663125 125.338732 209.544258 132.274588 212.252969 138.921219 C 215.011738 145.56785 217.514653 151.391299 219.750591 156.386006 C 220.278984 157.503975 220.779567 158.621943 221.246778 159.739912 C 221.719551 160.857881 222.186761 162.064842 222.659534 163.355234 C 223.6607 163.355234 224.305896 163.444227 224.600684 163.622212 Z M 338.34428 240.016749 C 340.229809 230.372182 342.63817 219.581836 345.580486 207.640149 C 348.578422 195.642842 351.932329 183.295126 355.636643 170.591441 C 359.340958 157.887755 363.162075 145.56785 367.105558 133.626163 C 371.043478 121.690038 374.897967 110.810699 378.657902 100.988147 C 382.423399 91.165595 385.832926 83.289755 388.892045 77.349502 C 395.477493 75.113565 403.331085 73.055612 412.447259 71.170083 C 421.619053 69.228933 431.352612 68.144336 441.647937 67.910731 C 451.9377 67.615943 462.138471 68.939707 472.25581 71.876461 C 482.37315 74.757595 491.661747 79.908038 500.132725 87.316667 C 508.659323 94.664114 515.656362 105.01506 521.129403 118.369503 C 523.715749 124.776966 526.713685 133.008777 530.123212 143.064934 C 533.593921 153.065471 537.214806 164.211788 540.974741 176.503883 C 544.80142 188.790416 548.505735 201.438481 552.093247 214.431393 C 555.680759 227.429866 558.94011 240.133552 561.882426 252.54245 C 564.880363 264.895727 567.294286 276.125474 569.118633 286.242814 C 568.590239 290.592324 566.32093 294.886215 562.321827 299.118922 C 558.322725 303.357192 553.239026 306.972514 547.065168 309.970451 C 540.885748 312.912767 534.211307 314.853917 527.036283 315.7939 C 519.86126 316.795066 512.747418 316.233301 505.689197 314.119728 C 498.630976 312.056213 492.251323 308.001491 486.544676 301.944436 C 480.843591 295.826198 476.405088 287.2996 473.229166 276.359079 C 465.642552 276.008671 457.76115 275.919679 449.58496 276.097664 C 441.40877 276.270087 433.471747 276.270087 425.76833 276.097664 C 423.649195 281.097932 421.652425 286.565412 419.766896 292.505664 C 417.942548 298.445916 416.151573 304.530781 414.388409 310.765822 C 399.62677 316.233301 386.861902 318.202261 376.099367 316.672702 C 365.336831 315.148704 356.69343 310.943807 350.169164 304.058009 C 343.694956 297.122152 339.462249 288.122781 337.465478 277.065458 C 335.463146 266.008134 335.757934 253.660418 338.34428 240.016749 Z M 434.411731 206.49437 C 439.528802 206.49437 444.495699 206.49437 449.317982 206.49437 C 454.140266 206.49437 459.051542 206.49437 464.05181 206.49437 C 461.815873 196.671818 459.496504 186.999441 457.082582 177.471677 C 454.674221 167.888292 452.349291 158.299345 450.113353 148.715961 C 449.58496 148.832763 448.850771 148.888384 447.910788 148.888384 C 445.791653 158.360528 443.555715 167.85492 441.202975 177.382684 C 438.911417 186.849266 436.647669 196.555015 434.411731 206.49437 Z M 434.411731 206.49437 " stroke="#803a00" stroke-width="13.550025" stroke-opacity="1" stroke-miterlimit="4"/><g fill="#ff7c10" fill-opacity="1"><g transform="translate(23.223108, 264.831615)"><g><path d="M 84.75 -104.21875 C 85.320312 -105.457031 86.425781 -107.992188 88.0625 -111.828125 C 89.695312 -115.660156 91.613281 -120.226562 93.8125 -125.53125 C 96.007812 -130.832031 98.316406 -136.328125 100.734375 -142.015625 C 103.160156 -147.710938 105.503906 -153.039062 107.765625 -158 C 110.023438 -162.96875 111.941406 -167.03125 113.515625 -170.1875 C 118.367188 -171.539062 123.25 -171.90625 128.15625 -171.28125 C 133.0625 -170.664062 137.570312 -169.226562 141.6875 -166.96875 C 145.800781 -164.71875 149.210938 -161.703125 151.921875 -157.921875 C 154.628906 -154.148438 156.207031 -149.753906 156.65625 -144.734375 C 157.101562 -139.710938 156.03125 -134.15625 153.4375 -128.0625 C 150.625 -121.519531 147.804688 -115.484375 144.984375 -109.953125 C 142.160156 -104.429688 139.253906 -98.9375 136.265625 -93.46875 C 133.273438 -88 130.117188 -82.101562 126.796875 -75.78125 C 123.472656 -69.46875 119.945312 -62.3125 116.21875 -54.3125 C 114.53125 -51.257812 113.6875 -48.15625 113.6875 -45 C 113.6875 -41.28125 113.6875 -37.21875 113.6875 -32.8125 C 113.6875 -28.414062 113.628906 -24.160156 113.515625 -20.046875 C 113.398438 -15.929688 113.3125 -12.460938 113.25 -9.640625 C 113.195312 -6.816406 113.171875 -5.070312 113.171875 -4.40625 C 111.929688 -2.707031 109.617188 -1.238281 106.234375 0 C 102.859375 1.238281 98.914062 2.113281 94.40625 2.625 C 89.894531 3.132812 85.210938 3.050781 80.359375 2.375 C 75.503906 1.695312 70.960938 0.316406 66.734375 -1.765625 C 62.503906 -3.859375 59.007812 -6.878906 56.25 -10.828125 C 53.488281 -14.773438 51.992188 -19.796875 51.765625 -25.890625 C 51.765625 -26.898438 51.765625 -28.421875 51.765625 -30.453125 C 51.765625 -32.484375 51.765625 -34.625 51.765625 -36.875 C 51.765625 -39.132812 51.789062 -41.140625 51.84375 -42.890625 C 51.90625 -44.640625 51.9375 -45.796875 51.9375 -46.359375 C 51.820312 -47.816406 51.625 -49 51.34375 -49.90625 C 51.0625 -50.8125 50.640625 -51.828125 50.078125 -52.953125 C 46.691406 -59.492188 42.882812 -66.878906 38.65625 -75.109375 C 34.425781 -83.347656 30.109375 -91.894531 25.703125 -100.75 C 21.304688 -109.601562 17.132812 -118.34375 13.1875 -126.96875 C 9.25 -135.59375 5.753906 -143.570312 2.703125 -150.90625 C 4.960938 -156.320312 8.007812 -160.75 11.84375 -164.1875 C 15.675781 -167.625 19.875 -170.101562 24.4375 -171.625 C 29.007812 -173.144531 33.519531 -173.789062 37.96875 -173.5625 C 42.425781 -173.34375 46.40625 -172.300781 49.90625 -170.4375 C 53.40625 -168.582031 56.054688 -166.019531 57.859375 -162.75 C 59.660156 -159.363281 61.601562 -155.359375 63.6875 -150.734375 C 65.78125 -146.109375 67.894531 -141.257812 70.03125 -136.1875 C 72.175781 -131.113281 74.207031 -126.234375 76.125 -121.546875 C 78.039062 -116.867188 79.789062 -112.78125 81.375 -109.28125 C 81.707031 -108.5 82.039062 -107.710938 82.375 -106.921875 C 82.71875 -106.128906 83.0625 -105.28125 83.40625 -104.375 C 84.082031 -104.375 84.53125 -104.320312 84.75 -104.21875 Z M 84.75 -104.21875 "/></g></g></g><g fill="#ff7c10" fill-opacity="1"><g transform="translate(183.771319, 264.831615)"><g><path d="M 4.0625 -50.578125 C 5.414062 -57.347656 7.132812 -64.929688 9.21875 -73.328125 C 11.300781 -81.734375 13.640625 -90.390625 16.234375 -99.296875 C 18.828125 -108.210938 21.503906 -116.867188 24.265625 -125.265625 C 27.035156 -133.671875 29.742188 -141.3125 32.390625 -148.1875 C 35.046875 -155.070312 37.445312 -160.601562 39.59375 -164.78125 C 44.21875 -166.351562 49.742188 -167.816406 56.171875 -169.171875 C 62.597656 -170.523438 69.421875 -171.285156 76.640625 -171.453125 C 83.859375 -171.628906 91.019531 -170.703125 98.125 -168.671875 C 105.226562 -166.640625 111.769531 -163.03125 117.75 -157.84375 C 123.726562 -152.65625 128.632812 -145.378906 132.46875 -136.015625 C 134.269531 -131.503906 136.382812 -125.722656 138.8125 -118.671875 C 141.238281 -111.628906 143.773438 -103.789062 146.421875 -95.15625 C 149.066406 -86.53125 151.660156 -77.648438 154.203125 -68.515625 C 156.742188 -59.378906 159.054688 -50.46875 161.140625 -41.78125 C 163.222656 -33.101562 164.882812 -25.210938 166.125 -18.109375 C 165.789062 -15.054688 164.210938 -12.035156 161.390625 -9.046875 C 158.578125 -6.054688 155 -3.519531 150.65625 -1.4375 C 146.3125 0.644531 141.628906 2.023438 136.609375 2.703125 C 131.585938 3.378906 126.59375 2.984375 121.625 1.515625 C 116.664062 0.0546875 112.1875 -2.8125 108.1875 -7.09375 C 104.1875 -11.382812 101.054688 -17.363281 98.796875 -25.03125 C 93.492188 -25.257812 87.96875 -25.316406 82.21875 -25.203125 C 76.46875 -25.085938 70.882812 -25.085938 65.46875 -25.203125 C 64 -21.710938 62.613281 -17.878906 61.3125 -13.703125 C 60.019531 -9.523438 58.753906 -5.238281 57.515625 -0.84375 C 47.140625 2.988281 38.171875 4.367188 30.609375 3.296875 C 23.054688 2.222656 16.992188 -0.734375 12.421875 -5.578125 C 7.859375 -10.429688 4.875 -16.75 3.46875 -24.53125 C 2.0625 -32.3125 2.257812 -40.992188 4.0625 -50.578125 Z M 71.5625 -74.09375 C 75.164062 -74.09375 78.660156 -74.09375 82.046875 -74.09375 C 85.429688 -74.09375 88.875 -74.09375 92.375 -74.09375 C 90.789062 -80.976562 89.148438 -87.773438 87.453125 -94.484375 C 85.765625 -101.191406 84.132812 -107.929688 82.5625 -114.703125 C 82.21875 -114.585938 81.707031 -114.53125 81.03125 -114.53125 C 79.570312 -107.875 78.023438 -101.21875 76.390625 -94.5625 C 74.753906 -87.914062 73.144531 -81.09375 71.5625 -74.09375 Z M 71.5625 -74.09375 "/></g></g></g></svg>