<svg xmlns="http://www.w3.org/2000/svg" xmlns:xlink="http://www.w3.org/1999/xlink" width="500" zoomAndPan="magnify" viewBox="0 0 375 374.999991" height="500" preserveAspectRatio="xMidYMid meet" version="1.0"><defs><g/></defs><path stroke-linecap="butt" transform="matrix(0.751089, 0, 0, 0.751089, -66.242444, 49.58944)" fill="none" stroke-linejoin="miter" d="M 242.788314 163.62225 C 243.610038 161.859186 245.170271 158.239444 247.463815 152.773425 C 249.814567 147.302205 252.550177 140.801232 255.665444 133.275704 C 258.785911 125.750177 262.078004 117.928205 265.546924 109.809789 C 269.015844 101.696573 272.339142 94.108636 275.516818 87.051179 C 278.751702 79.936513 281.487312 74.142845 283.718446 69.670175 C 290.661486 67.730284 297.599326 67.205006 304.537165 68.083937 C 311.537414 68.96807 317.975979 71.027578 323.85806 74.257262 C 329.740141 77.434938 334.592468 81.730782 338.415041 87.139592 C 342.294822 92.491194 344.557161 98.752932 345.207258 105.930007 C 345.852155 113.044673 344.323126 120.955058 340.620171 129.661163 C 336.558362 138.949754 332.532959 147.536241 328.53356 155.415421 C 324.534161 163.299802 320.38914 171.147778 316.093297 178.96975 C 311.859862 186.734513 307.361188 195.112968 302.597275 204.110316 C 297.890569 213.112865 292.892621 223.285589 287.603428 234.633689 C 285.190267 238.986741 283.983686 243.428206 283.983686 247.958085 C 283.983686 253.247277 283.983686 259.040945 283.983686 265.333888 C 283.983686 271.569622 283.895273 277.623329 283.718446 283.505411 C 283.604029 289.330283 283.484411 294.271023 283.364793 298.327631 C 283.307585 302.32703 283.27638 304.7974 283.27638 305.738741 C 281.513316 308.146702 278.221223 310.237415 273.4001 312.00048 C 268.573777 313.763544 262.930932 315.001329 256.461163 315.703434 C 250.048602 316.467949 243.407207 316.353532 236.526576 315.349781 C 229.645946 314.413641 223.176176 312.46855 217.117269 309.530109 C 211.12077 306.52926 206.148825 302.238617 202.206635 296.65298 C 198.269645 291.004934 196.152928 283.827859 195.856483 275.126955 C 195.856483 273.712343 195.856483 271.569622 195.856483 268.688391 C 195.856483 265.74475 195.856483 262.686692 195.856483 259.514216 C 195.856483 256.279332 195.887688 253.424104 195.944897 250.953734 C 196.002105 248.426155 196.03331 246.777508 196.03331 246.012994 C 195.913692 243.896277 195.653653 242.221626 195.237591 240.989041 C 194.826729 239.694047 194.213037 238.222227 193.386113 236.57358 C 188.564991 227.284988 183.156181 216.784615 177.154482 205.082862 C 171.157983 193.318699 165.010662 181.148876 158.717719 168.562991 C 152.487186 155.977105 146.542696 143.536841 140.89985 131.2474 C 135.251804 118.957959 130.28506 107.573454 125.989216 97.109486 C 129.166892 89.401931 133.48874 83.108988 138.95996 78.230658 C 144.425978 73.347126 150.396473 69.820998 156.866242 67.641871 C 163.39322 65.467946 169.831785 64.557809 176.187137 64.906261 C 182.537288 65.202706 188.180133 66.674526 193.120874 69.321723 C 198.124023 71.963719 201.915391 75.614666 204.500178 80.258961 C 207.090166 85.080084 209.85178 90.785338 212.795421 97.369525 C 215.796271 103.958912 218.791919 110.870748 221.792769 118.105031 C 224.850827 125.334114 227.732059 132.277154 230.436464 138.92375 C 233.203278 145.565145 235.699652 151.390018 237.935987 156.387967 C 238.466467 157.506134 238.965742 158.624302 239.433812 159.742469 C 239.907083 160.855436 240.375153 162.062017 240.848424 163.357011 C 241.846973 163.357011 242.49187 163.445424 242.788314 163.62225 Z M 363.945665 256.33654 C 363.649221 250.865321 363.415186 243.51662 363.238359 234.280036 C 363.061533 225.048653 362.97312 214.699102 362.97312 203.231384 C 362.97312 191.763666 363.092738 179.885087 363.326773 167.590445 C 363.560808 155.301004 363.883256 143.214393 364.294118 131.335813 C 364.71018 119.457234 365.17825 108.457586 365.70873 98.342071 C 366.296418 88.226555 367.003724 79.785691 367.825447 73.024678 C 375.824245 72.260163 385.554903 71.672475 397.022621 71.261614 C 408.552748 70.850752 420.899398 70.554308 434.072971 70.377481 C 447.246545 70.200655 460.451323 70.263064 473.682105 70.554308 C 486.912888 70.788343 499.441565 71.141996 511.262936 71.615267 C 523.084307 72.083337 533.225826 72.63982 541.697895 73.289917 C 543.169716 75.349426 544.459509 78.553106 545.577676 82.906158 C 546.695844 87.25921 547.283532 92.168746 547.340741 97.634765 C 547.460358 103.105984 546.784257 108.665617 545.312437 114.308463 C 543.903026 119.894099 541.375447 125.100079 537.729701 129.921202 C 534.141163 134.747525 529.169218 138.596101 522.819067 141.477333 C 516.468916 144.363765 508.470117 145.804381 498.822672 145.804381 C 495.650197 145.804381 492.680552 145.804381 489.913737 145.804381 C 487.209332 145.804381 484.151274 145.804381 480.739563 145.804381 C 477.390261 145.804381 473.214035 145.804381 468.216087 145.804381 C 463.275346 145.804381 456.951199 145.804381 449.248845 145.804381 C 449.248845 147.744272 449.248845 149.715367 449.248845 151.712466 C 449.248845 153.714766 449.248845 155.919896 449.248845 158.327857 C 452.774973 158.327857 457.6273 158.239444 463.800625 158.062618 C 469.979151 157.885791 476.682955 157.797378 483.917239 157.797378 C 491.151523 157.797378 498.266189 158.125027 505.266437 158.769923 C 512.261485 159.41482 518.320393 160.564192 523.43796 162.212839 C 528.259082 172.796425 530.256181 182.677905 529.434458 191.85208 C 528.669943 200.963845 525.11261 208.437364 518.762459 214.257036 C 512.407107 220.019499 503.295342 223.22838 491.416762 223.873277 C 487.354954 223.992895 483.563586 224.050103 480.032257 224.050103 C 476.506129 224.050103 472.418316 224.018899 467.77402 223.96169 C 463.124524 223.904482 457.039612 223.873277 449.514085 223.873277 C 449.514085 226.400856 449.514085 228.840021 449.514085 231.195974 C 449.514085 233.489517 449.514085 235.928683 449.514085 238.518671 C 450.278599 238.518671 451.131527 238.518671 452.072868 238.518671 C 453.071418 238.518671 454.038763 238.518671 454.980104 238.518671 C 467.862434 238.518671 480.739563 238.518671 493.621893 238.518671 C 506.55623 238.518671 519.464564 238.518671 532.346894 238.518671 C 536.99119 244.926031 539.960835 252.040697 541.255829 259.862669 C 542.550823 267.627432 541.989139 275.215369 539.581178 282.626479 C 537.168017 289.97518 532.580929 296.356536 525.819916 301.765346 C 519.116112 307.116948 510.056355 310.528659 498.645845 312.00048 C 494.589238 312.46855 489.149223 312.910616 482.3258 313.321477 C 475.507579 313.732339 468.008055 313.971575 459.832431 314.028783 C 451.656806 314.148401 443.512386 314.117197 435.39917 313.94037 C 427.280754 313.763544 419.958057 313.441095 413.431079 312.967824 C 406.96131 312.499754 401.963361 311.854858 398.437233 311.027934 C 387.20355 308.146702 378.882303 302.415444 373.468292 293.828957 C 368.11669 285.242471 364.944215 272.744999 363.945665 256.33654 Z M 363.945665 256.33654 " stroke="#5a0073" stroke-width="13.550025" stroke-opacity="1" stroke-miterlimit="4"/><g fill="#cb6ce6" fill-opacity="1"><g transform="translate(25.472611, 283.929327)"><g><path d="M 90.640625 -111.453125 C 91.242188 -112.773438 92.421875 -115.488281 94.171875 -119.59375 C 95.921875 -123.695312 97.972656 -128.582031 100.328125 -134.25 C 102.679688 -139.914062 105.148438 -145.796875 107.734375 -151.890625 C 110.328125 -157.984375 112.832031 -163.679688 115.25 -168.984375 C 117.664062 -174.296875 119.71875 -178.640625 121.40625 -182.015625 C 126.59375 -183.460938 131.804688 -183.851562 137.046875 -183.1875 C 142.296875 -182.519531 147.117188 -180.976562 151.515625 -178.5625 C 155.921875 -176.15625 159.570312 -172.929688 162.46875 -168.890625 C 165.363281 -164.847656 167.050781 -160.144531 167.53125 -154.78125 C 168.019531 -149.414062 166.875 -143.476562 164.09375 -136.96875 C 161.082031 -129.96875 158.066406 -123.507812 155.046875 -117.59375 C 152.035156 -111.6875 148.929688 -105.804688 145.734375 -99.953125 C 142.535156 -94.109375 139.15625 -87.804688 135.59375 -81.046875 C 132.039062 -74.296875 128.273438 -66.640625 124.296875 -58.078125 C 122.484375 -54.816406 121.578125 -51.5 121.578125 -48.125 C 121.578125 -44.144531 121.578125 -39.800781 121.578125 -35.09375 C 121.578125 -30.394531 121.515625 -25.84375 121.390625 -21.4375 C 121.273438 -17.039062 121.1875 -13.332031 121.125 -10.3125 C 121.070312 -7.300781 121.046875 -5.429688 121.046875 -4.703125 C 119.710938 -2.890625 117.234375 -1.320312 113.609375 0 C 109.992188 1.320312 105.773438 2.253906 100.953125 2.796875 C 96.128906 3.347656 91.125 3.257812 85.9375 2.53125 C 80.75 1.8125 75.894531 0.335938 71.375 -1.890625 C 66.851562 -4.128906 63.113281 -7.359375 60.15625 -11.578125 C 57.195312 -15.796875 55.597656 -21.164062 55.359375 -27.6875 C 55.359375 -28.769531 55.359375 -30.394531 55.359375 -32.5625 C 55.359375 -34.738281 55.359375 -37.03125 55.359375 -39.4375 C 55.359375 -41.851562 55.390625 -43.992188 55.453125 -45.859375 C 55.515625 -47.734375 55.546875 -48.972656 55.546875 -49.578125 C 55.421875 -51.140625 55.207031 -52.40625 54.90625 -53.375 C 54.601562 -54.34375 54.148438 -55.425781 53.546875 -56.625 C 49.929688 -63.625 45.863281 -71.523438 41.34375 -80.328125 C 36.820312 -89.140625 32.207031 -98.273438 27.5 -107.734375 C 22.789062 -117.203125 18.328125 -126.550781 14.109375 -135.78125 C 9.890625 -145.007812 6.148438 -153.546875 2.890625 -161.390625 C 5.304688 -167.179688 8.5625 -171.914062 12.65625 -175.59375 C 16.757812 -179.269531 21.253906 -181.921875 26.140625 -183.546875 C 31.023438 -185.179688 35.847656 -185.875 40.609375 -185.625 C 45.378906 -185.382812 49.632812 -184.269531 53.375 -182.28125 C 57.113281 -180.289062 59.945312 -177.546875 61.875 -174.046875 C 63.800781 -170.429688 65.878906 -166.148438 68.109375 -161.203125 C 70.347656 -156.253906 72.613281 -151.066406 74.90625 -145.640625 C 77.195312 -140.210938 79.367188 -134.992188 81.421875 -129.984375 C 83.472656 -124.984375 85.34375 -120.613281 87.03125 -116.875 C 87.382812 -116.03125 87.742188 -115.1875 88.109375 -114.34375 C 88.472656 -113.5 88.835938 -112.59375 89.203125 -111.625 C 89.921875 -111.625 90.398438 -111.566406 90.640625 -111.453125 Z M 90.640625 -111.453125 "/></g></g></g><g fill="#cb6ce6" fill-opacity="1"><g transform="translate(197.172771, 283.929327)"><g><path d="M 9.953125 -41.796875 C 9.710938 -45.898438 9.53125 -51.414062 9.40625 -58.34375 C 9.289062 -65.28125 9.234375 -73.0625 9.234375 -81.6875 C 9.234375 -90.3125 9.320312 -99.238281 9.5 -108.46875 C 9.675781 -117.695312 9.914062 -126.769531 10.21875 -135.6875 C 10.519531 -144.613281 10.878906 -152.875 11.296875 -160.46875 C 11.722656 -168.070312 12.238281 -174.410156 12.84375 -179.484375 C 18.875 -180.085938 26.203125 -180.535156 34.828125 -180.828125 C 43.453125 -181.128906 52.707031 -181.34375 62.59375 -181.46875 C 72.488281 -181.59375 82.410156 -181.5625 92.359375 -181.375 C 102.316406 -181.195312 111.726562 -180.925781 120.59375 -180.5625 C 129.457031 -180.195312 137.082031 -179.773438 143.46875 -179.296875 C 144.5625 -177.734375 145.53125 -175.320312 146.375 -172.0625 C 147.21875 -168.800781 147.664062 -165.117188 147.71875 -161.015625 C 147.78125 -156.921875 147.269531 -152.757812 146.1875 -148.53125 C 145.101562 -144.3125 143.203125 -140.394531 140.484375 -136.78125 C 137.773438 -133.164062 134.035156 -130.269531 129.265625 -128.09375 C 124.503906 -125.925781 118.503906 -124.84375 111.265625 -124.84375 C 108.859375 -124.84375 106.628906 -124.84375 104.578125 -124.84375 C 102.523438 -124.84375 100.234375 -124.84375 97.703125 -124.84375 C 95.171875 -124.84375 92.035156 -124.84375 88.296875 -124.84375 C 84.554688 -124.84375 79.789062 -124.84375 74 -124.84375 C 74 -123.394531 74 -121.914062 74 -120.40625 C 74 -118.894531 74 -117.238281 74 -115.4375 C 76.65625 -115.4375 80.300781 -115.492188 84.9375 -115.609375 C 89.582031 -115.734375 94.617188 -115.796875 100.046875 -115.796875 C 105.472656 -115.796875 110.8125 -115.550781 116.0625 -115.0625 C 121.3125 -114.582031 125.863281 -113.738281 129.71875 -112.53125 C 133.34375 -104.570312 134.851562 -97.15625 134.25 -90.28125 C 133.644531 -83.40625 130.957031 -77.796875 126.1875 -73.453125 C 121.425781 -69.109375 114.582031 -66.695312 105.65625 -66.21875 C 102.644531 -66.09375 99.8125 -66.03125 97.15625 -66.03125 C 94.5 -66.03125 91.421875 -66.0625 87.921875 -66.125 C 84.429688 -66.1875 79.851562 -66.21875 74.1875 -66.21875 C 74.1875 -64.289062 74.1875 -62.453125 74.1875 -60.703125 C 74.1875 -58.953125 74.1875 -57.113281 74.1875 -55.1875 C 74.78125 -55.1875 75.4375 -55.1875 76.15625 -55.1875 C 76.882812 -55.1875 77.613281 -55.1875 78.34375 -55.1875 C 87.988281 -55.1875 97.664062 -55.1875 107.375 -55.1875 C 117.082031 -55.1875 126.765625 -55.1875 136.421875 -55.1875 C 139.921875 -50.363281 142.148438 -45.023438 143.109375 -39.171875 C 144.078125 -33.316406 143.65625 -27.613281 141.84375 -22.0625 C 140.039062 -16.519531 136.601562 -11.726562 131.53125 -7.6875 C 126.46875 -3.644531 119.65625 -1.082031 111.09375 0 C 108.070312 0.363281 104 0.695312 98.875 1 C 93.75 1.300781 88.109375 1.476562 81.953125 1.53125 C 75.804688 1.59375 69.6875 1.5625 63.59375 1.4375 C 57.5 1.320312 52.007812 1.082031 47.125 0.71875 C 42.238281 0.363281 38.472656 -0.113281 35.828125 -0.71875 C 27.378906 -2.894531 21.132812 -7.207031 17.09375 -13.65625 C 13.050781 -20.113281 10.671875 -29.492188 9.953125 -41.796875 Z M 9.953125 -41.796875 "/></g></g></g></svg>