<svg xmlns="http://www.w3.org/2000/svg" xmlns:xlink="http://www.w3.org/1999/xlink" width="500" zoomAndPan="magnify" viewBox="0 0 375 374.999991" height="500" preserveAspectRatio="xMidYMid meet" version="1.0"><defs><g/></defs><path stroke-linecap="butt" transform="matrix(0.843694, 0, 0, 0.843694, 13.820578, 31.734941)" fill="none" stroke-linejoin="miter" d="M 155.06547 171.742141 C 165.005941 175.168293 172.719413 181.224248 178.205886 189.914636 C 183.692359 198.554095 186.299012 208.952929 186.030476 221.125029 C 185.863799 235.954711 182.034842 248.82593 174.538977 259.747947 C 167.043112 270.665334 156.394262 279.087186 142.597055 285.008873 C 128.799849 290.93056 112.206161 293.889088 92.811363 293.889088 C 66.68001 293.889088 46.447194 287.911842 32.103655 275.96198 C 17.815675 264.012117 9.426233 246.548002 6.926068 223.569634 C 5.893592 214.823687 5.212992 204.475782 4.888896 192.52129 C 4.61573 180.571427 4.61573 167.885405 4.888896 154.467853 C 5.212992 141.050302 5.703765 127.794797 6.356586 114.705971 C 7.009407 101.556955 7.847425 89.417266 8.8799 78.282272 C 15.996111 74.15237 24.529081 70.837336 34.469552 68.341801 C 44.410022 65.786077 54.975534 64.105411 66.166087 63.290542 C 77.412199 62.475673 88.385145 62.392335 99.084925 63.045155 C 109.840265 63.697976 119.674247 65.133256 128.582242 67.360255 C 137.490237 69.591884 144.606447 72.494853 149.930872 76.083053 C 158.838867 82.00474 165.519864 89.009831 169.978491 97.102958 C 174.432489 105.200714 176.877095 113.617936 177.312308 122.363884 C 177.798452 131.109831 176.52059 139.448344 173.478722 147.379423 C 170.436855 155.310502 165.79303 162.102616 159.547248 167.751137 C 158.949986 168.348399 158.297165 168.94566 157.588785 169.542922 C 156.940594 170.140184 156.097946 170.876343 155.06547 171.742141 Z M 83.847809 226.500383 C 86.565581 227.968073 89.607448 228.755162 92.973411 228.86628 C 96.394933 228.917209 99.520139 228.269018 102.3444 226.907818 C 105.603874 225.606806 107.858652 223.597414 109.108735 220.879642 C 110.409747 218.106311 110.90052 214.930176 110.576424 211.346606 C 110.409747 208.355668 109.354121 205.887912 107.395659 203.92945 C 105.497386 201.920058 103.159268 200.614416 100.390567 200.017155 C 98.163568 199.586571 95.390237 199.392113 92.075204 199.447673 C 88.815729 199.503232 86.158147 200.591267 84.093196 202.707147 C 83.931148 206.512954 83.847809 210.420619 83.847809 214.444032 C 83.847809 218.462816 83.847809 222.4816 83.847809 226.500383 Z M 82.301411 147.948905 C 84.690457 149.254547 87.35267 149.879588 90.283419 149.824029 C 93.274357 149.768469 95.90879 148.712844 98.186718 146.647893 C 100.524835 144.527383 101.61287 141.105861 101.446192 136.378697 C 101.284145 132.197866 99.816455 129.345826 97.047754 127.822577 C 94.329982 126.248399 91.477942 125.623358 88.491634 125.947453 C 85.560885 126.22062 83.495934 127.091047 82.301411 128.558737 C 81.430983 130.623688 80.94021 133.526657 80.833721 137.276904 C 80.778162 140.971593 81.268935 144.527383 82.301411 147.948905 Z M 194.253241 221.77322 C 196.045026 212.865224 198.378513 202.896974 201.258333 191.868469 C 204.138152 180.844594 207.397627 169.515142 211.036756 157.889375 C 214.675884 146.212679 218.370573 134.938787 222.12082 124.07696 C 225.921997 113.154943 229.644465 103.163543 233.283594 94.08887 C 236.922723 85.018827 240.154417 77.735939 242.978678 72.249466 C 249.062412 70.189145 256.317521 68.286242 264.734742 66.545386 C 273.212154 64.753602 282.198858 63.748906 291.708744 63.531299 C 301.214001 63.262762 310.640549 64.485065 319.983758 67.198207 C 329.326967 69.86042 337.910866 74.615363 345.730827 81.458407 C 353.606346 88.250522 360.074366 97.811338 365.125625 110.140855 C 367.514671 116.062542 370.255593 123.669525 373.353019 132.957175 C 376.450446 142.193896 379.70992 152.458462 383.131442 163.760133 C 386.552964 175.001615 389.895777 186.599603 393.155252 198.554095 C 396.414726 210.503958 399.401034 222.157504 402.118806 233.510105 C 404.887507 244.862706 407.086726 255.210611 408.716463 264.55382 C 408.285879 268.521674 406.220928 272.484898 402.52624 276.452753 C 398.831552 280.360418 394.104388 283.703231 388.349379 286.471932 C 382.645299 289.189704 376.478225 290.981489 369.848158 291.851917 C 363.278281 292.773274 356.731552 292.259351 350.212604 290.305519 C 343.693655 288.402615 337.799748 284.629218 332.530882 278.976067 C 327.262016 273.327547 323.159893 265.479807 320.224514 255.428218 C 313.219423 255.104122 305.941165 255.020783 298.389741 255.182831 C 290.838316 255.344879 283.504499 255.344879 276.388289 255.182831 C 274.434456 259.803506 272.587112 264.854765 270.846257 270.341238 C 269.16096 275.827712 267.508074 281.448453 265.878336 287.208092 C 252.243178 292.259351 240.372024 294.078916 230.269506 292.666785 C 220.217917 291.254655 212.097011 287.37014 205.902158 281.013239 C 199.767494 274.605409 195.693151 266.294675 193.679129 256.081038 C 191.669737 245.811842 191.859564 234.380533 194.253241 221.77322 Z M 285.023118 191.544373 C 289.750282 191.544373 294.343177 191.544373 298.797175 191.544373 C 303.251172 191.544373 307.788509 191.544373 312.404554 191.544373 C 310.339603 182.474331 308.195943 173.538556 305.968944 164.737049 C 303.737316 155.879984 301.593656 147.027548 299.528705 138.170482 C 299.042561 138.2816 298.361961 138.33716 297.491533 138.33716 C 295.537701 147.083107 293.472749 155.856834 291.30131 164.653711 C 289.1808 173.399658 287.088069 182.363212 285.023118 191.544373 Z M 285.023118 191.544373 " stroke="#436100" stroke-width="12.516188" stroke-opacity="1" stroke-miterlimit="4"/><g fill="#91c123" fill-opacity="1"><g transform="translate(13.820578, 275.562604)"><g><path d="M 130.84375 -98.9375 C 139.226562 -96.050781 145.734375 -90.945312 150.359375 -83.625 C 154.992188 -76.3125 157.1875 -67.519531 156.9375 -57.25 C 156.8125 -44.738281 153.585938 -33.882812 147.265625 -24.6875 C 140.953125 -15.488281 131.972656 -8.382812 120.328125 -3.375 C 108.691406 1.625 94.675781 4.125 78.28125 4.125 C 56.257812 4.125 39.207031 -0.910156 27.125 -10.984375 C 15.050781 -21.054688 7.945312 -35.789062 5.8125 -55.1875 C 4.9375 -62.570312 4.375 -71.300781 4.125 -81.375 C 3.875 -91.457031 3.875 -102.160156 4.125 -113.484375 C 4.375 -124.804688 4.78125 -136.003906 5.34375 -147.078125 C 5.90625 -158.160156 6.628906 -168.394531 7.515625 -177.78125 C 13.515625 -181.28125 20.707031 -184.09375 29.09375 -186.21875 C 37.476562 -188.351562 46.394531 -189.765625 55.84375 -190.453125 C 65.289062 -191.140625 74.550781 -191.203125 83.625 -190.640625 C 92.707031 -190.078125 101 -188.851562 108.5 -186.96875 C 116.007812 -185.09375 122.019531 -182.65625 126.53125 -179.65625 C 134.039062 -174.644531 139.671875 -168.726562 143.421875 -161.90625 C 147.179688 -155.09375 149.25 -147.992188 149.625 -140.609375 C 150 -133.222656 148.898438 -126.179688 146.328125 -119.484375 C 143.765625 -112.796875 139.859375 -107.070312 134.609375 -102.3125 C 134.097656 -101.8125 133.5625 -101.3125 133 -100.8125 C 132.4375 -100.3125 131.71875 -99.6875 130.84375 -98.9375 Z M 70.78125 -52.75 C 73.03125 -51.5 75.59375 -50.84375 78.46875 -50.78125 C 81.34375 -50.71875 83.972656 -51.25 86.359375 -52.375 C 89.109375 -53.5 91.015625 -55.21875 92.078125 -57.53125 C 93.140625 -59.851562 93.546875 -62.515625 93.296875 -65.515625 C 93.171875 -68.015625 92.296875 -70.109375 90.671875 -71.796875 C 89.046875 -73.492188 87.046875 -74.59375 84.671875 -75.09375 C 82.785156 -75.46875 80.46875 -75.625 77.71875 -75.5625 C 74.96875 -75.5 72.71875 -74.59375 70.96875 -72.84375 C 70.84375 -69.582031 70.78125 -66.265625 70.78125 -62.890625 C 70.78125 -59.515625 70.78125 -56.132812 70.78125 -52.75 Z M 69.453125 -119.015625 C 71.460938 -117.890625 73.71875 -117.359375 76.21875 -117.421875 C 78.71875 -117.484375 80.9375 -118.390625 82.875 -120.140625 C 84.820312 -121.898438 85.734375 -124.78125 85.609375 -128.78125 C 85.484375 -132.28125 84.257812 -134.6875 81.9375 -136 C 79.625 -137.320312 77.21875 -137.859375 74.71875 -137.609375 C 72.21875 -137.359375 70.460938 -136.609375 69.453125 -135.359375 C 68.703125 -133.597656 68.296875 -131.15625 68.234375 -128.03125 C 68.171875 -124.90625 68.578125 -121.898438 69.453125 -119.015625 Z M 69.453125 -119.015625 "/></g></g></g><g fill="#91c123" fill-opacity="1"><g transform="translate(174.890888, 275.562604)"><g><path d="M 2.8125 -56.6875 C 4.3125 -64.195312 6.28125 -72.613281 8.71875 -81.9375 C 11.164062 -91.257812 13.921875 -100.832031 16.984375 -110.65625 C 20.054688 -120.488281 23.1875 -130.003906 26.375 -139.203125 C 29.5625 -148.398438 32.6875 -156.816406 35.75 -164.453125 C 38.820312 -172.085938 41.546875 -178.21875 43.921875 -182.84375 C 49.054688 -184.59375 55.191406 -186.21875 62.328125 -187.71875 C 69.460938 -189.226562 77.035156 -190.078125 85.046875 -190.265625 C 93.054688 -190.453125 101 -189.414062 108.875 -187.15625 C 116.757812 -184.90625 124.019531 -180.898438 130.65625 -175.140625 C 137.289062 -169.390625 142.734375 -161.320312 146.984375 -150.9375 C 148.992188 -145.925781 151.3125 -139.507812 153.9375 -131.6875 C 156.5625 -123.863281 159.3125 -115.195312 162.1875 -105.6875 C 165.070312 -96.175781 167.890625 -86.382812 170.640625 -76.3125 C 173.398438 -66.238281 175.9375 -56.414062 178.25 -46.84375 C 180.5625 -37.269531 182.40625 -28.539062 183.78125 -20.65625 C 183.40625 -17.269531 181.65625 -13.914062 178.53125 -10.59375 C 175.40625 -7.28125 171.429688 -4.46875 166.609375 -2.15625 C 161.785156 0.15625 156.585938 1.6875 151.015625 2.4375 C 145.453125 3.1875 139.914062 2.75 134.40625 1.125 C 128.90625 -0.5 123.929688 -3.6875 119.484375 -8.4375 C 115.046875 -13.195312 111.578125 -19.832031 109.078125 -28.34375 C 103.191406 -28.59375 97.054688 -28.65625 90.671875 -28.53125 C 84.285156 -28.40625 78.09375 -28.40625 72.09375 -28.53125 C 70.457031 -24.65625 68.921875 -20.398438 67.484375 -15.765625 C 66.046875 -11.140625 64.640625 -6.382812 63.265625 -1.5 C 51.753906 2.75 41.742188 4.28125 33.234375 3.09375 C 24.722656 1.90625 17.867188 -1.375 12.671875 -6.75 C 7.472656 -12.132812 4.03125 -19.144531 2.34375 -27.78125 C 0.65625 -36.414062 0.8125 -46.050781 2.8125 -56.6875 Z M 79.40625 -82.21875 C 83.414062 -82.21875 87.296875 -82.21875 91.046875 -82.21875 C 94.804688 -82.21875 98.625 -82.21875 102.5 -82.21875 C 100.75 -89.851562 98.929688 -97.394531 97.046875 -104.84375 C 95.171875 -112.289062 93.359375 -119.769531 91.609375 -127.28125 C 91.234375 -127.15625 90.671875 -127.09375 89.921875 -127.09375 C 88.296875 -119.707031 86.570312 -112.320312 84.75 -104.9375 C 82.9375 -97.550781 81.15625 -89.976562 79.40625 -82.21875 Z M 79.40625 -82.21875 "/></g></g></g></svg>