<svg xmlns="http://www.w3.org/2000/svg" xmlns:xlink="http://www.w3.org/1999/xlink" width="500" zoomAndPan="magnify" viewBox="0 0 375 374.999991" height="500" preserveAspectRatio="xMidYMid meet" version="1.0"><defs><g/></defs><path stroke-linecap="butt" transform="matrix(0.801399, 0, 0, 0.801399, -83.238638, 25.385741)" fill="none" stroke-linejoin="miter" d="M 286.633039 163.62137 C 287.456794 161.856877 289.011692 158.240155 291.307482 152.771202 C 293.661764 147.302249 296.396241 140.804821 299.510912 133.274044 C 302.630457 125.748141 305.920602 117.924906 309.391096 109.809214 C 312.861591 101.693522 316.185856 94.109128 319.359018 87.051157 C 322.595547 79.934694 325.330023 74.144038 327.562448 69.674315 C 334.503436 67.729473 341.444424 67.20305 348.380538 68.085296 C 355.380018 68.967543 361.818954 71.024493 367.702222 74.261021 C 373.580615 77.434183 378.435407 81.728432 382.25685 87.138894 C 386.136784 92.490864 388.403329 98.754326 389.05161 105.92928 C 389.695016 113.045742 388.169363 120.956714 384.464903 129.657321 C 380.40462 138.952591 376.378457 147.536215 372.376665 155.417941 C 368.379748 163.299667 364.231727 171.147273 359.937478 178.970508 C 355.706595 186.735251 351.207626 195.114155 346.440571 204.112093 C 341.736881 213.110031 336.73586 223.282674 331.447256 234.634894 C 329.034483 238.987634 327.830534 243.428112 327.830534 247.956327 C 327.830534 253.249805 327.830534 259.040461 327.830534 265.333169 C 327.830534 271.567385 327.737922 277.626127 327.562448 283.50452 C 327.445465 289.329296 327.328482 294.266951 327.211499 298.327235 C 327.153007 302.324152 327.123762 304.795417 327.123762 305.736155 C 325.359269 308.148928 322.064249 310.235124 317.243577 311.999617 C 312.41803 313.764109 306.773603 314.997305 300.305421 315.704077 C 293.89573 316.46934 287.247199 316.352357 280.369577 315.353128 C 273.48708 314.41239 267.018898 312.472423 260.960156 309.528352 C 254.96478 306.530664 249.993005 302.236415 246.054579 296.650479 C 242.111279 291.006052 239.995837 283.831098 239.70338 275.125617 C 239.70338 273.716947 239.70338 271.567385 239.70338 268.68668 C 239.70338 265.747484 239.70338 262.68643 239.70338 259.513267 C 239.70338 256.276739 239.732625 253.42528 239.791117 250.954015 C 239.849608 248.424259 239.878854 246.781623 239.878854 246.01636 C 239.761871 243.896044 239.493785 242.219288 239.084345 240.986093 C 238.67003 239.694406 238.05587 238.222371 237.232115 236.574861 C 232.406568 227.284465 226.996107 216.785246 221.000731 205.082077 C 215.00048 193.320416 208.854001 181.149315 202.561294 168.5639 C 196.327077 155.978484 190.390193 143.539298 184.740891 131.246339 C 179.096464 118.953381 174.129563 107.57679 169.835314 97.106816 C 173.008476 89.405438 177.331971 83.112731 182.800924 78.228693 C 188.269877 73.349529 194.240881 69.820543 200.709064 67.641736 C 207.235737 65.467803 213.679548 64.556311 220.030747 64.907259 C 226.381946 65.204591 232.026374 66.671752 236.964029 69.318491 C 241.96505 71.965231 245.757247 75.611199 248.345495 80.256397 C 250.933743 85.081944 253.697465 90.784862 256.636661 97.370027 C 259.639224 103.960067 262.636912 110.866935 265.6346 118.100381 C 268.695653 125.338701 271.576359 132.274815 274.281589 138.923345 C 277.045311 145.567002 279.545822 151.386904 281.778246 156.387925 C 282.309544 157.504137 282.806722 158.625224 283.279528 159.741436 C 283.752334 160.857648 284.220265 162.061598 284.693072 163.358159 C 285.692301 163.358159 286.335707 163.445896 286.633039 163.62137 Z M 493.532005 118.368467 C 494.35576 123.130647 494.974795 130.071636 495.384235 139.186557 C 495.798549 148.242987 496.032515 158.654469 496.091007 170.41613 C 496.149498 182.119299 496.091007 194.319645 495.915532 207.022044 C 495.798549 219.665951 495.471972 232.192875 494.945549 244.602816 C 494.472743 256.954265 493.912199 268.301611 493.268793 278.654602 C 492.679004 289.007593 491.884495 297.561971 490.885266 304.327485 C 486.888348 308.61686 481.79959 311.736405 475.623865 313.676372 C 469.44814 315.616339 462.862975 316.147637 455.863496 315.265391 C 448.864016 314.383144 442.074131 311.970371 435.488966 308.031945 C 428.898926 304.088645 423.079025 298.473463 418.019512 291.181526 C 412.96 283.889589 409.406642 274.862405 407.344818 264.099974 C 406.696538 261.03892 406.111623 255.955036 405.580325 248.838573 C 405.112393 241.663619 404.668833 233.22135 404.259393 223.521514 C 403.90357 213.758312 403.640358 203.259092 403.464884 192.028729 C 403.289409 180.793492 403.230918 169.533883 403.289409 158.240155 C 403.406392 146.887934 403.611112 136.067012 403.90357 125.777387 C 404.259393 115.487762 404.785816 106.367966 405.492588 98.432623 C 406.257851 90.492405 407.198589 84.433663 408.314802 80.256397 C 412.784525 76.25948 418.253478 73.232546 424.726534 71.170721 C 431.253208 69.05528 438.13083 68.173033 445.364276 68.523982 C 452.602596 68.821314 459.53871 70.732035 466.187241 74.261021 C 472.889389 77.790007 478.684919 83.141976 483.564083 90.316931 C 488.443247 97.428519 491.767512 106.78228 493.532005 118.368467 Z M 493.532005 118.368467 " stroke="#806600" stroke-width="13.550025" stroke-opacity="1" stroke-miterlimit="4"/><g fill="#ffde59" fill-opacity="1"><g transform="translate(49.756006, 275.422182)"><g><path d="M 96.71875 -118.90625 C 97.351562 -120.320312 98.601562 -123.21875 100.46875 -127.59375 C 102.34375 -131.96875 104.535156 -137.179688 107.046875 -143.234375 C 109.554688 -149.285156 112.191406 -155.5625 114.953125 -162.0625 C 117.722656 -168.5625 120.394531 -174.640625 122.96875 -180.296875 C 125.539062 -185.960938 127.726562 -190.597656 129.53125 -194.203125 C 135.0625 -195.742188 140.625 -196.160156 146.21875 -195.453125 C 151.820312 -194.742188 156.972656 -193.101562 161.671875 -190.53125 C 166.367188 -187.957031 170.257812 -184.515625 173.34375 -180.203125 C 176.4375 -175.890625 178.238281 -170.867188 178.75 -165.140625 C 179.269531 -159.421875 178.050781 -153.082031 175.09375 -146.125 C 171.875 -138.664062 168.65625 -131.78125 165.4375 -125.46875 C 162.21875 -119.164062 158.898438 -112.894531 155.484375 -106.65625 C 152.078125 -100.414062 148.472656 -93.691406 144.671875 -86.484375 C 140.878906 -79.273438 136.863281 -71.101562 132.625 -61.96875 C 130.6875 -58.488281 129.71875 -54.945312 129.71875 -51.34375 C 129.71875 -47.101562 129.71875 -42.472656 129.71875 -37.453125 C 129.71875 -32.429688 129.65625 -27.570312 129.53125 -22.875 C 129.40625 -18.175781 129.304688 -14.21875 129.234375 -11 C 129.171875 -7.78125 129.140625 -5.785156 129.140625 -5.015625 C 127.722656 -3.085938 125.082031 -1.414062 121.21875 0 C 117.363281 1.414062 112.863281 2.410156 107.71875 2.984375 C 102.570312 3.566406 97.226562 3.472656 91.6875 2.703125 C 86.15625 1.929688 80.976562 0.359375 76.15625 -2.015625 C 71.332031 -4.398438 67.34375 -7.84375 64.1875 -12.34375 C 61.03125 -16.851562 59.328125 -22.582031 59.078125 -29.53125 C 59.078125 -30.6875 59.078125 -32.421875 59.078125 -34.734375 C 59.078125 -37.054688 59.078125 -39.503906 59.078125 -42.078125 C 59.078125 -44.648438 59.109375 -46.929688 59.171875 -48.921875 C 59.234375 -50.921875 59.265625 -52.242188 59.265625 -52.890625 C 59.140625 -54.566406 58.914062 -55.914062 58.59375 -56.9375 C 58.269531 -57.96875 57.785156 -59.128906 57.140625 -60.421875 C 53.273438 -67.890625 48.929688 -76.316406 44.109375 -85.703125 C 39.285156 -95.097656 34.363281 -104.847656 29.34375 -114.953125 C 24.320312 -125.054688 19.554688 -135.03125 15.046875 -144.875 C 10.546875 -154.71875 6.5625 -163.820312 3.09375 -172.1875 C 5.664062 -178.363281 9.140625 -183.414062 13.515625 -187.34375 C 17.890625 -191.269531 22.679688 -194.101562 27.890625 -195.84375 C 33.109375 -197.582031 38.257812 -198.320312 43.34375 -198.0625 C 48.425781 -197.800781 52.960938 -196.609375 56.953125 -194.484375 C 60.941406 -192.359375 63.960938 -189.429688 66.015625 -185.703125 C 68.078125 -181.847656 70.296875 -177.28125 72.671875 -172 C 75.054688 -166.71875 77.472656 -161.179688 79.921875 -155.390625 C 82.367188 -149.609375 84.6875 -144.046875 86.875 -138.703125 C 89.0625 -133.359375 91.054688 -128.691406 92.859375 -124.703125 C 93.242188 -123.804688 93.628906 -122.90625 94.015625 -122 C 94.398438 -121.101562 94.785156 -120.140625 95.171875 -119.109375 C 95.941406 -119.109375 96.457031 -119.039062 96.71875 -118.90625 Z M 96.71875 -118.90625 "/></g></g></g><g fill="#ffde59" fill-opacity="1"><g transform="translate(232.956985, 275.422182)"><g><path d="M 79.34375 -155.203125 C 79.988281 -151.347656 80.46875 -145.78125 80.78125 -138.5 C 81.101562 -131.226562 81.296875 -122.894531 81.359375 -113.5 C 81.429688 -104.113281 81.398438 -94.335938 81.265625 -84.171875 C 81.140625 -74.003906 80.882812 -63.960938 80.5 -54.046875 C 80.113281 -44.140625 79.660156 -35.035156 79.140625 -26.734375 C 78.628906 -18.429688 77.988281 -11.578125 77.21875 -6.171875 C 74 -2.703125 69.910156 -0.195312 64.953125 1.34375 C 60.003906 2.894531 54.726562 3.316406 49.125 2.609375 C 43.53125 1.898438 38.09375 -0.03125 32.8125 -3.1875 C 27.539062 -6.34375 22.875 -10.847656 18.8125 -16.703125 C 14.757812 -22.554688 11.898438 -29.796875 10.234375 -38.421875 C 9.710938 -40.859375 9.257812 -44.941406 8.875 -50.671875 C 8.488281 -56.398438 8.132812 -63.15625 7.8125 -70.9375 C 7.488281 -78.726562 7.265625 -87.125 7.140625 -96.125 C 7.015625 -105.132812 6.984375 -114.175781 7.046875 -123.25 C 7.109375 -132.320312 7.269531 -140.976562 7.53125 -149.21875 C 7.789062 -157.457031 8.207031 -164.757812 8.78125 -171.125 C 9.363281 -177.5 10.101562 -182.359375 11 -185.703125 C 14.601562 -188.921875 19.007812 -191.363281 24.21875 -193.03125 C 29.4375 -194.707031 34.941406 -195.414062 40.734375 -195.15625 C 46.523438 -194.90625 52.085938 -193.363281 57.421875 -190.53125 C 62.765625 -187.695312 67.398438 -183.414062 71.328125 -177.6875 C 75.253906 -171.96875 77.925781 -164.472656 79.34375 -155.203125 Z M 79.34375 -155.203125 "/></g></g></g></svg>