<svg xmlns="http://www.w3.org/2000/svg" xmlns:xlink="http://www.w3.org/1999/xlink" width="500" zoomAndPan="magnify" viewBox="0 0 375 374.999991" height="500" preserveAspectRatio="xMidYMid meet" version="1.0"><defs><g/></defs><path stroke-linecap="butt" transform="matrix(0.75, 0, 0, 0.75, -66.242444, 50.189294)" fill="none" stroke-linejoin="miter" d="M 212.448273 160.690328 C 213.255564 158.961161 214.781606 155.419494 217.026398 150.065327 C 219.33369 144.705951 222.010773 138.341368 225.062857 130.971576 C 228.11494 123.596575 231.338899 115.940325 234.739941 107.992407 C 238.135774 100.04449 241.390983 92.612198 244.500358 85.700739 C 247.667025 78.731989 250.344108 73.060113 252.536817 68.679905 C 259.333692 66.784071 266.125359 66.263238 272.922235 67.127821 C 279.776402 67.992405 286.083694 70.00803 291.844111 73.174697 C 297.604528 76.284072 302.354528 80.487197 306.09932 85.789281 C 309.901404 91.028865 312.114946 97.164282 312.750362 104.190324 C 313.385779 111.159074 311.885779 118.903866 308.255571 127.429909 C 304.281612 136.528868 300.338903 144.935118 296.422236 152.653869 C 292.505569 160.372619 288.443069 168.06012 284.239944 175.721579 C 280.09411 183.325746 275.68786 191.528871 271.021193 200.341372 C 266.417026 209.153872 261.521192 219.117415 256.333692 230.231999 C 253.974317 234.497624 252.792025 238.846583 252.792025 243.278875 C 252.792025 248.461167 252.792025 254.13825 252.792025 260.299709 C 252.792025 266.403876 252.708692 272.336168 252.536817 278.096585 C 252.422234 283.799711 252.302442 288.633044 252.187858 292.607003 C 252.130567 296.52367 252.104525 298.945545 252.104525 299.86742 C 250.375358 302.226795 247.1514 304.27367 242.427441 305.997629 C 237.703483 307.726796 232.177441 308.935129 225.838898 309.627837 C 219.562856 310.377837 213.052439 310.263254 206.318064 309.284087 C 199.57848 308.362212 193.239938 306.46117 187.307646 303.580962 C 181.432646 300.643462 176.568062 296.440336 172.708687 290.966378 C 168.849311 285.440336 166.776395 278.414294 166.489936 269.888251 C 166.489936 268.508043 166.489936 266.403876 166.489936 263.580959 C 166.489936 260.700751 166.489936 257.705959 166.489936 254.596584 C 166.489936 251.429917 166.515978 248.63825 166.57327 246.216375 C 166.630561 243.742416 166.661811 242.127833 166.661811 241.377833 C 166.547228 239.304916 166.286811 237.664291 165.885769 236.455958 C 165.479519 235.185124 164.875353 233.747624 164.068061 232.133041 C 159.349311 223.034082 154.047227 212.752831 148.172227 201.294497 C 142.297226 189.773663 136.281601 177.851787 130.120142 165.52887 C 124.010767 153.200744 118.198266 141.018451 112.667016 128.981992 C 107.135766 116.945533 102.271182 105.799699 98.068057 95.549698 C 101.177432 88.002823 105.411807 81.841364 110.765974 77.060114 C 116.120141 72.284072 121.9691 68.825738 128.302434 66.69553 C 134.698267 64.565321 141.00556 63.669488 147.22431 64.018446 C 153.44306 64.304905 158.974311 65.742405 163.812853 68.336155 C 168.708686 70.929905 172.422228 74.497614 174.953478 79.049697 C 177.489937 83.773656 180.19827 89.35699 183.078479 95.810115 C 186.015979 102.258032 188.948271 109.028866 191.885771 116.1122 C 194.880563 123.195533 197.70348 129.992409 200.354522 136.497618 C 203.062855 143.008035 205.510772 148.71116 207.698272 153.606994 C 208.213897 154.700744 208.703481 155.794494 209.167022 156.888244 C 209.625356 157.981994 210.088897 159.164286 210.547231 160.429911 C 211.526397 160.429911 212.161814 160.518453 212.448273 160.690328 Z M 448.594121 65.398655 C 464.661831 65.22678 478.687873 67.03928 490.667041 70.841363 C 502.7035 74.586155 512.953501 79.450739 521.422251 85.440323 C 529.943085 91.429906 537.000377 97.79449 542.588919 104.534074 C 548.172253 111.273658 552.578503 117.695533 555.802462 123.7997 C 559.031629 129.846576 561.359754 134.742409 562.802462 138.487201 C 568.271213 153.575744 571.526421 168.81012 572.56288 184.190329 C 573.599338 199.508038 571.755588 214.945539 567.036838 230.492415 C 554.135795 271.846585 526.687877 297.476795 484.703499 307.383046 C 467.713914 311.471587 450.953497 312.768463 434.422245 311.268462 C 417.896203 309.773671 401.765993 304.96117 386.047242 296.841378 C 371.125366 289.122628 359.203491 279.101794 350.276407 266.778876 C 341.411823 254.393459 335.187864 240.112208 331.620155 223.929915 C 329.255572 213.674706 327.875363 203.22158 327.469113 192.56533 C 327.068072 181.856996 327.672238 171.461162 329.286822 161.383036 C 330.953489 151.299702 333.693072 142.258035 337.495156 134.252826 C 341.234739 125.903867 346.104531 117.695533 352.094115 109.633033 C 358.083699 101.51324 365.484741 94.112198 374.297242 87.429906 C 383.109742 80.747614 393.646201 75.419489 405.917035 71.44553 C 418.182661 67.41428 432.40662 65.398655 448.594121 65.398655 Z M 449.802455 149.80491 C 443.984746 149.80491 438.599329 151.414285 433.646204 154.643452 C 428.693078 157.867411 424.776411 162.674703 421.896203 169.070536 C 419.073286 175.40387 417.979536 183.294496 418.614953 192.742413 C 419.250369 201.898664 421.323286 209.153872 424.833703 214.513248 C 428.40662 219.810123 432.583704 223.612207 437.359746 225.91429 C 442.198288 228.216374 446.66183 229.19554 450.750372 228.85179 C 454.958705 228.565332 459.219122 227.211165 463.536831 224.794498 C 467.917039 222.315332 471.630581 218.398665 474.682665 213.044498 C 477.734748 207.685122 479.489957 200.601789 479.953498 191.789288 C 480.583707 182.862204 479.521207 175.289287 476.755582 169.070536 C 474.047248 162.846578 470.276414 158.096577 465.437872 154.815327 C 460.656622 151.476785 455.448289 149.80491 449.802455 149.80491 Z M 449.802455 149.80491 " stroke="#80004e" stroke-width="13.269788" stroke-opacity="1" stroke-miterlimit="4"/><g fill="#ff66c4" fill-opacity="1"><g transform="translate(4.45677, 279.689278)"><g><path d="M 88.640625 -108.984375 C 89.234375 -110.285156 90.382812 -112.941406 92.09375 -116.953125 C 93.800781 -120.960938 95.804688 -125.738281 98.109375 -131.28125 C 100.410156 -136.820312 102.828125 -142.570312 105.359375 -148.53125 C 107.890625 -154.488281 110.332031 -160.0625 112.6875 -165.25 C 115.050781 -170.4375 117.0625 -174.679688 118.71875 -177.984375 C 123.789062 -179.398438 128.890625 -179.785156 134.015625 -179.140625 C 139.148438 -178.492188 143.867188 -176.988281 148.171875 -174.625 C 152.484375 -172.269531 156.050781 -169.113281 158.875 -165.15625 C 161.707031 -161.207031 163.359375 -156.609375 163.828125 -151.359375 C 164.304688 -146.109375 163.1875 -140.300781 160.46875 -133.9375 C 157.519531 -127.09375 154.570312 -120.78125 151.625 -115 C 148.675781 -109.21875 145.640625 -103.46875 142.515625 -97.75 C 139.390625 -92.03125 136.085938 -85.867188 132.609375 -79.265625 C 129.128906 -72.660156 125.441406 -65.171875 121.546875 -56.796875 C 119.773438 -53.609375 118.890625 -50.363281 118.890625 -47.0625 C 118.890625 -43.164062 118.890625 -38.914062 118.890625 -34.3125 C 118.890625 -29.71875 118.832031 -25.269531 118.71875 -20.96875 C 118.601562 -16.664062 118.515625 -13.035156 118.453125 -10.078125 C 118.390625 -7.128906 118.359375 -5.300781 118.359375 -4.59375 C 117.066406 -2.832031 114.648438 -1.300781 111.109375 0 C 107.566406 1.300781 103.4375 2.210938 98.71875 2.734375 C 94 3.265625 89.101562 3.175781 84.03125 2.46875 C 78.96875 1.769531 74.222656 0.332031 69.796875 -1.84375 C 65.367188 -4.03125 61.710938 -7.1875 58.828125 -11.3125 C 55.941406 -15.445312 54.378906 -20.695312 54.140625 -27.0625 C 54.140625 -28.125 54.140625 -29.71875 54.140625 -31.84375 C 54.140625 -33.96875 54.140625 -36.207031 54.140625 -38.5625 C 54.140625 -40.925781 54.164062 -43.019531 54.21875 -44.84375 C 54.28125 -46.675781 54.3125 -47.890625 54.3125 -48.484375 C 54.195312 -50.015625 53.988281 -51.25 53.6875 -52.1875 C 53.394531 -53.132812 52.957031 -54.195312 52.375 -55.375 C 48.832031 -62.21875 44.847656 -69.941406 40.421875 -78.546875 C 36.003906 -87.160156 31.492188 -96.097656 26.890625 -105.359375 C 22.296875 -114.617188 17.929688 -123.757812 13.796875 -132.78125 C 9.671875 -141.800781 6.015625 -150.144531 2.828125 -157.8125 C 5.191406 -163.476562 8.378906 -168.109375 12.390625 -171.703125 C 16.398438 -175.304688 20.789062 -177.898438 25.5625 -179.484375 C 30.34375 -181.078125 35.0625 -181.753906 39.71875 -181.515625 C 44.375 -181.285156 48.53125 -180.195312 52.1875 -178.25 C 55.84375 -176.300781 58.617188 -173.617188 60.515625 -170.203125 C 62.398438 -166.660156 64.429688 -162.472656 66.609375 -157.640625 C 68.796875 -152.804688 71.007812 -147.734375 73.25 -142.421875 C 75.488281 -137.117188 77.609375 -132.019531 79.609375 -127.125 C 81.617188 -122.226562 83.453125 -117.953125 85.109375 -114.296875 C 85.453125 -113.472656 85.800781 -112.644531 86.15625 -111.8125 C 86.507812 -110.988281 86.863281 -110.101562 87.21875 -109.15625 C 87.925781 -109.15625 88.398438 -109.097656 88.640625 -108.984375 Z M 88.640625 -108.984375 "/></g></g></g><g fill="#ff66c4" fill-opacity="1"><g transform="translate(172.363362, 279.689278)"><g><path d="M 97.84375 -180.46875 C 109.875 -180.582031 120.398438 -179.222656 129.421875 -176.390625 C 138.441406 -173.566406 146.132812 -169.910156 152.5 -165.421875 C 158.875 -160.941406 164.15625 -156.164062 168.34375 -151.09375 C 172.53125 -146.019531 175.832031 -141.210938 178.25 -136.671875 C 180.664062 -132.128906 182.40625 -128.445312 183.46875 -125.625 C 187.601562 -114.300781 190.050781 -102.882812 190.8125 -91.375 C 191.582031 -79.875 190.195312 -68.285156 186.65625 -56.609375 C 176.988281 -25.585938 156.40625 -6.363281 124.90625 1.0625 C 112.164062 4.125 99.601562 5.09375 87.21875 3.96875 C 74.832031 2.851562 62.742188 -0.769531 50.953125 -6.90625 C 39.742188 -12.675781 30.804688 -20.191406 24.140625 -29.453125 C 17.484375 -38.710938 12.796875 -49.421875 10.078125 -61.578125 C 8.316406 -69.242188 7.285156 -77.085938 6.984375 -85.109375 C 6.691406 -93.128906 7.164062 -100.910156 8.40625 -108.453125 C 9.644531 -116.003906 11.679688 -122.785156 14.515625 -128.796875 C 17.335938 -135.054688 20.988281 -141.222656 25.46875 -147.296875 C 29.957031 -153.367188 35.503906 -158.910156 42.109375 -163.921875 C 48.710938 -168.929688 56.613281 -172.941406 65.8125 -175.953125 C 75.019531 -178.960938 85.695312 -180.46875 97.84375 -180.46875 Z M 98.71875 -117.125 C 94.351562 -117.125 90.3125 -115.914062 86.59375 -113.5 C 82.882812 -111.082031 79.96875 -107.484375 77.84375 -102.703125 C 75.71875 -97.929688 74.894531 -92.003906 75.375 -84.921875 C 75.84375 -78.078125 77.40625 -72.648438 80.0625 -68.640625 C 82.71875 -64.628906 85.84375 -61.769531 89.4375 -60.0625 C 93.03125 -58.351562 96.363281 -57.617188 99.4375 -57.859375 C 102.613281 -58.085938 105.820312 -59.113281 109.0625 -60.9375 C 112.3125 -62.769531 115.085938 -65.691406 117.390625 -69.703125 C 119.691406 -73.710938 121.019531 -79.019531 121.375 -85.625 C 121.84375 -92.351562 121.046875 -98.046875 118.984375 -102.703125 C 116.921875 -107.359375 114.085938 -110.925781 110.484375 -113.40625 C 106.890625 -115.882812 102.96875 -117.125 98.71875 -117.125 Z M 98.71875 -117.125 "/></g></g></g></svg>