<svg xmlns="http://www.w3.org/2000/svg" xmlns:xlink="http://www.w3.org/1999/xlink" width="500" zoomAndPan="magnify" viewBox="0 0 375 374.999991" height="500" preserveAspectRatio="xMidYMid meet" version="1.0"><defs><g/></defs><path stroke-linecap="butt" transform="matrix(0.75, 0, 0, 0.75, -66.242444, 50.189176)" fill="none" stroke-linejoin="miter" d="M 215.635773 160.690484 C 216.443064 158.961318 217.969106 155.419651 220.213898 150.065484 C 222.52119 144.706108 225.198273 138.341525 228.250357 130.971732 C 231.30244 123.596732 234.526399 115.940481 237.927441 107.992564 C 241.323274 100.044647 244.578483 92.612355 247.687858 85.700896 C 250.854525 78.732146 253.531609 73.06027 255.724317 68.680062 C 262.521193 66.784228 269.31286 66.263395 276.109735 67.127978 C 282.963902 67.992562 289.271194 70.008187 295.031611 73.174854 C 300.792028 76.284229 305.542029 80.487354 309.286821 85.789438 C 313.088904 91.029021 315.302446 97.164439 315.937863 104.190481 C 316.573279 111.159231 315.073279 118.904023 311.443071 127.430065 C 307.469112 136.529024 303.526404 144.935275 299.609737 152.654025 C 295.69307 160.372776 291.630569 168.060276 287.427444 175.721735 C 283.281611 183.325902 278.87536 191.529028 274.208693 200.341529 C 269.604526 209.154029 264.708693 219.117572 259.521192 230.232156 C 257.161817 234.497781 255.979525 238.846739 255.979525 243.279031 C 255.979525 248.461323 255.979525 254.138407 255.979525 260.299866 C 255.979525 266.404033 255.896192 272.336325 255.724317 278.096742 C 255.609734 283.799867 255.489942 288.633201 255.375359 292.60716 C 255.318067 296.523827 255.292025 298.945702 255.292025 299.867577 C 253.562859 302.226952 250.3389 304.273827 245.614941 305.997786 C 240.890983 307.726952 235.364941 308.935286 229.026399 309.627994 C 222.750357 310.377994 216.239939 310.263411 209.505564 309.284244 C 202.76598 308.362369 196.427438 306.461327 190.495146 303.581119 C 184.620146 300.643619 179.755562 296.440493 175.896187 290.966535 C 172.036812 285.440493 169.963895 278.41445 169.677436 269.888408 C 169.677436 268.5082 169.677436 266.404033 169.677436 263.581116 C 169.677436 260.700908 169.677436 257.706116 169.677436 254.596741 C 169.677436 251.430074 169.703478 248.638407 169.76077 246.216532 C 169.818061 243.742573 169.849311 242.12799 169.849311 241.37799 C 169.734728 239.305073 169.474311 237.664448 169.07327 236.456114 C 168.66702 235.185281 168.062853 233.747781 167.255561 232.133197 C 162.536811 223.034238 157.234727 212.752988 151.359727 201.294654 C 145.484726 189.77382 139.469101 177.851944 133.307642 165.529026 C 127.198267 153.200901 121.385767 141.018608 115.854516 128.982149 C 110.323266 116.94569 105.458682 105.799856 101.255557 95.549855 C 104.364932 88.00298 108.599307 81.841521 113.953474 77.060271 C 119.307641 72.284229 125.1566 68.825895 131.489934 66.695687 C 137.885768 64.565478 144.19306 63.669645 150.41181 64.018603 C 156.630561 64.305061 162.161811 65.742561 167.000353 68.336312 C 171.896187 70.930062 175.609728 74.49777 178.140979 79.049854 C 180.677437 83.773813 183.385771 89.357146 186.265979 95.810272 C 189.203479 102.258189 192.135771 109.029023 195.073271 116.112356 C 198.068063 123.19569 200.89098 129.992566 203.542022 136.497774 C 206.250355 143.008192 208.698272 148.711317 210.885772 153.607151 C 211.401397 154.700901 211.890981 155.794651 212.354523 156.888401 C 212.812856 157.982151 213.276398 159.164443 213.734731 160.430068 C 214.713898 160.430068 215.349314 160.518609 215.635773 160.690484 Z M 562.187879 225.831114 C 560.458712 240.919656 556.052462 253.904032 548.969128 264.78945 C 541.885794 275.617575 533.073294 284.575909 522.536835 291.659243 C 511.995167 298.685285 500.588916 303.898827 488.323291 307.294661 C 476.057665 310.695703 463.786831 312.393619 451.521205 312.393619 C 441.614954 312.393619 431.677454 311.815494 421.713911 310.664453 C 411.750369 309.570702 402.104535 307.383202 392.776409 304.101952 C 383.500367 300.815494 374.979533 296.034243 367.203491 289.758201 C 359.427449 283.424867 352.85974 275.159242 347.505573 264.966533 C 342.151406 254.711324 338.463906 241.956115 336.448281 226.690489 C 334.375364 212.409238 333.364947 196.857153 333.422239 180.039444 C 333.536822 163.221735 334.286822 146.060275 335.667031 128.549857 C 337.109739 110.987356 338.922239 94.081105 341.109739 77.841521 C 342.838906 75.99777 345.979531 74.299854 350.526407 72.742562 C 355.135782 71.127978 360.552449 69.950895 366.771199 69.200895 C 372.98995 68.393603 379.443075 68.27902 386.120159 68.857145 C 392.802451 69.37277 399.078493 70.815478 404.953494 73.174854 C 410.828494 75.534229 415.812869 78.935271 419.901411 83.367563 C 423.989953 87.747771 426.526412 93.53423 427.505578 100.732147 C 427.792037 103.268606 427.963912 108.133189 428.021203 115.336315 C 428.135787 122.47694 428.193078 130.971732 428.193078 140.820691 C 428.193078 150.612359 428.307662 160.888401 428.542037 171.659235 C 428.771203 182.430069 429.146203 192.71132 429.661828 202.502987 C 430.239954 212.237363 431.073287 220.471738 432.167037 227.211322 C 433.146204 232.393614 435.307662 236.482156 438.646204 239.476948 C 442.047246 242.47174 445.875371 244.086323 450.140996 244.31549 C 454.401413 244.544657 458.31808 243.22174 461.885789 240.341531 C 465.515998 237.404031 467.963914 232.711322 469.229539 226.258197 C 470.323289 220.617572 471.302456 213.242571 472.16704 204.143612 C 473.031623 194.987362 473.693081 184.992569 474.156623 174.164444 C 474.672248 163.279026 474.875373 152.252984 474.76079 141.0759 C 474.703498 129.904024 474.35454 119.336315 473.724331 109.372773 C 473.088915 99.40923 472.083706 90.883188 470.69829 83.799854 C 473.807665 80.633187 478.07329 77.924854 483.484749 75.680062 C 488.958707 73.377979 495.062874 71.794645 501.802458 70.930062 C 508.536834 70.065478 515.333709 70.148812 522.187876 71.18527 C 529.042043 72.164437 535.437877 74.357145 541.370169 77.752979 C 547.359753 81.154021 552.37017 85.987354 556.40142 92.268605 C 560.43267 98.544647 562.906629 106.492564 563.828504 116.112356 C 564.463921 122.560274 565.036837 128.435274 565.557671 133.737358 C 566.135796 138.976941 566.536837 144.305067 566.766004 149.716525 C 566.995171 155.133192 567.026421 161.237359 566.854546 168.034235 C 566.739962 174.76861 566.307671 182.779027 565.557671 192.049861 C 564.864962 201.320695 563.745171 212.581113 562.187879 225.831114 Z M 562.187879 225.831114 " stroke="#806400" stroke-width="13.269788" stroke-opacity="1" stroke-miterlimit="4"/><g fill="#ffce1f" fill-opacity="1"><g transform="translate(6.847395, 279.689161)"><g><path d="M 88.640625 -108.984375 C 89.234375 -110.285156 90.382812 -112.941406 92.09375 -116.953125 C 93.800781 -120.960938 95.804688 -125.738281 98.109375 -131.28125 C 100.410156 -136.820312 102.828125 -142.570312 105.359375 -148.53125 C 107.890625 -154.488281 110.332031 -160.0625 112.6875 -165.25 C 115.050781 -170.4375 117.0625 -174.679688 118.71875 -177.984375 C 123.789062 -179.398438 128.890625 -179.785156 134.015625 -179.140625 C 139.148438 -178.492188 143.867188 -176.988281 148.171875 -174.625 C 152.484375 -172.269531 156.050781 -169.113281 158.875 -165.15625 C 161.707031 -161.207031 163.359375 -156.609375 163.828125 -151.359375 C 164.304688 -146.109375 163.1875 -140.300781 160.46875 -133.9375 C 157.519531 -127.09375 154.570312 -120.78125 151.625 -115 C 148.675781 -109.21875 145.640625 -103.46875 142.515625 -97.75 C 139.390625 -92.03125 136.085938 -85.867188 132.609375 -79.265625 C 129.128906 -72.660156 125.441406 -65.171875 121.546875 -56.796875 C 119.773438 -53.609375 118.890625 -50.363281 118.890625 -47.0625 C 118.890625 -43.164062 118.890625 -38.914062 118.890625 -34.3125 C 118.890625 -29.71875 118.832031 -25.269531 118.71875 -20.96875 C 118.601562 -16.664062 118.515625 -13.035156 118.453125 -10.078125 C 118.390625 -7.128906 118.359375 -5.300781 118.359375 -4.59375 C 117.066406 -2.832031 114.648438 -1.300781 111.109375 0 C 107.566406 1.300781 103.4375 2.210938 98.71875 2.734375 C 94 3.265625 89.101562 3.175781 84.03125 2.46875 C 78.96875 1.769531 74.222656 0.332031 69.796875 -1.84375 C 65.367188 -4.03125 61.710938 -7.1875 58.828125 -11.3125 C 55.941406 -15.445312 54.378906 -20.695312 54.140625 -27.0625 C 54.140625 -28.125 54.140625 -29.71875 54.140625 -31.84375 C 54.140625 -33.96875 54.140625 -36.207031 54.140625 -38.5625 C 54.140625 -40.925781 54.164062 -43.019531 54.21875 -44.84375 C 54.28125 -46.675781 54.3125 -47.890625 54.3125 -48.484375 C 54.195312 -50.015625 53.988281 -51.25 53.6875 -52.1875 C 53.394531 -53.132812 52.957031 -54.195312 52.375 -55.375 C 48.832031 -62.21875 44.847656 -69.941406 40.421875 -78.546875 C 36.003906 -87.160156 31.492188 -96.097656 26.890625 -105.359375 C 22.296875 -114.617188 17.929688 -123.757812 13.796875 -132.78125 C 9.671875 -141.800781 6.015625 -150.144531 2.828125 -157.8125 C 5.191406 -163.476562 8.378906 -168.109375 12.390625 -171.703125 C 16.398438 -175.304688 20.789062 -177.898438 25.5625 -179.484375 C 30.34375 -181.078125 35.0625 -181.753906 39.71875 -181.515625 C 44.375 -181.285156 48.53125 -180.195312 52.1875 -178.25 C 55.84375 -176.300781 58.617188 -173.617188 60.515625 -170.203125 C 62.398438 -166.660156 64.429688 -162.472656 66.609375 -157.640625 C 68.796875 -152.804688 71.007812 -147.734375 73.25 -142.421875 C 75.488281 -137.117188 77.609375 -132.019531 79.609375 -127.125 C 81.617188 -122.226562 83.453125 -117.953125 85.109375 -114.296875 C 85.453125 -113.472656 85.800781 -112.644531 86.15625 -111.8125 C 86.507812 -110.988281 86.863281 -110.101562 87.21875 -109.15625 C 87.925781 -109.15625 88.398438 -109.097656 88.640625 -108.984375 Z M 88.640625 -108.984375 "/></g></g></g><g fill="#ffce1f" fill-opacity="1"><g transform="translate(174.753986, 279.689161)"><g><path d="M 180.640625 -60.15625 C 179.347656 -48.832031 176.046875 -39.097656 170.734375 -30.953125 C 165.421875 -22.816406 158.8125 -16.09375 150.90625 -10.78125 C 143.007812 -5.476562 134.460938 -1.5625 125.265625 0.96875 C 116.066406 3.507812 106.863281 4.78125 97.65625 4.78125 C 90.226562 4.78125 82.769531 4.363281 75.28125 3.53125 C 67.789062 2.707031 60.566406 1.0625 53.609375 -1.40625 C 46.648438 -3.882812 40.25 -7.484375 34.40625 -12.203125 C 28.570312 -16.921875 23.648438 -23.113281 19.640625 -30.78125 C 15.628906 -38.445312 12.859375 -48.003906 11.328125 -59.453125 C 9.785156 -70.179688 9.046875 -81.851562 9.109375 -94.46875 C 9.171875 -107.09375 9.734375 -119.976562 10.796875 -133.125 C 11.859375 -146.28125 13.210938 -158.9375 14.859375 -171.09375 C 16.160156 -172.507812 18.519531 -173.804688 21.9375 -174.984375 C 25.351562 -176.160156 29.390625 -177.039062 34.046875 -177.625 C 38.710938 -178.21875 43.550781 -178.304688 48.5625 -177.890625 C 53.570312 -177.484375 58.289062 -176.394531 62.71875 -174.625 C 67.144531 -172.851562 70.890625 -170.316406 73.953125 -167.015625 C 77.023438 -163.710938 78.914062 -159.347656 79.625 -153.921875 C 79.851562 -152.035156 79.992188 -148.410156 80.046875 -143.046875 C 80.109375 -137.679688 80.140625 -131.3125 80.140625 -123.9375 C 80.140625 -116.5625 80.226562 -108.832031 80.40625 -100.75 C 80.582031 -92.675781 80.878906 -84.984375 81.296875 -77.671875 C 81.710938 -70.359375 82.332031 -64.164062 83.15625 -59.09375 C 83.863281 -55.195312 85.484375 -52.128906 88.015625 -49.890625 C 90.554688 -47.648438 93.414062 -46.441406 96.59375 -46.265625 C 99.78125 -46.085938 102.726562 -47.085938 105.4375 -49.265625 C 108.15625 -51.453125 109.988281 -54.960938 110.9375 -59.796875 C 111.757812 -64.046875 112.492188 -69.585938 113.140625 -76.421875 C 113.796875 -83.265625 114.296875 -90.753906 114.640625 -98.890625 C 114.992188 -107.035156 115.140625 -115.296875 115.078125 -123.671875 C 115.023438 -132.046875 114.765625 -139.976562 114.296875 -147.46875 C 113.828125 -154.957031 113.0625 -161.359375 112 -166.671875 C 114.351562 -169.023438 117.5625 -171.054688 121.625 -172.765625 C 125.695312 -174.472656 130.269531 -175.648438 135.34375 -176.296875 C 140.414062 -176.953125 145.515625 -176.894531 150.640625 -176.125 C 155.773438 -175.363281 160.582031 -173.710938 165.0625 -171.171875 C 169.550781 -168.640625 173.296875 -165.015625 176.296875 -160.296875 C 179.304688 -155.578125 181.164062 -149.617188 181.875 -142.421875 C 182.351562 -137.585938 182.796875 -133.191406 183.203125 -129.234375 C 183.617188 -125.285156 183.914062 -121.273438 184.09375 -117.203125 C 184.269531 -113.140625 184.296875 -108.570312 184.171875 -103.5 C 184.054688 -98.425781 183.734375 -92.410156 183.203125 -85.453125 C 182.671875 -78.492188 181.816406 -70.0625 180.640625 -60.15625 Z M 180.640625 -60.15625 "/></g></g></g></svg>