<svg xmlns="http://www.w3.org/2000/svg" xmlns:xlink="http://www.w3.org/1999/xlink" width="500" zoomAndPan="magnify" viewBox="0 0 375 374.999991" height="500" preserveAspectRatio="xMidYMid meet" version="1.0"><defs><g/></defs><path stroke-linecap="butt" transform="matrix(0.843694, 0, 0, 0.843694, 27.931023, 31.73493)" fill="none" stroke-linejoin="miter" d="M 155.064203 171.742154 C 165.004674 175.168306 172.718145 181.224261 178.204618 189.914649 C 183.691092 198.554108 186.302375 208.952942 186.029209 221.125042 C 185.867161 235.954724 182.038205 248.825943 174.53771 259.74796 C 167.041845 270.665347 156.397624 279.087199 142.595788 285.008886 C 128.798581 290.930573 112.204894 293.889101 92.810096 293.889101 C 66.683372 293.889101 46.445926 287.911855 32.107017 275.961993 C 17.819038 264.01213 9.424965 246.548015 6.9248 223.569647 C 5.892325 214.8237 5.216354 204.475795 4.887629 192.521303 C 4.619093 180.57144 4.619093 167.885418 4.887629 154.467867 C 5.216354 141.050315 5.702497 127.794811 6.355318 114.705984 C 7.008139 101.556968 7.850787 89.417279 8.883263 78.282285 C 15.999473 74.152383 24.527813 70.837349 34.468284 68.341814 C 44.408755 65.78609 54.974267 64.105424 66.16482 63.290555 C 77.410932 62.475687 88.383878 62.392348 99.083658 63.045169 C 109.838997 63.697989 119.672979 65.133269 128.580974 67.360268 C 137.493599 69.591897 144.60981 72.494866 149.929605 76.083066 C 158.84223 82.004753 165.523226 89.009844 169.977224 97.102971 C 174.431221 105.196097 176.875827 113.617949 177.311041 122.363897 C 177.797184 131.109844 176.523952 139.448357 173.482085 147.379436 C 170.440217 155.310515 165.791763 162.102629 159.54598 167.75115 C 158.948718 168.348412 158.295898 168.945673 157.592147 169.542935 C 156.939327 170.140197 156.096678 170.876356 155.064203 171.742154 Z M 83.846542 226.500396 C 86.564314 227.968086 89.606181 228.755175 92.972144 228.866293 C 96.398296 228.917222 99.518872 228.269032 102.343132 226.907831 C 105.602607 225.606819 107.857385 223.597427 109.107467 220.879655 C 110.413109 218.106324 110.899252 214.930189 110.575157 211.346619 C 110.413109 208.355681 109.352854 205.887925 107.394391 203.929463 C 105.496118 201.920071 103.158001 200.614429 100.3893 200.017168 C 98.162301 199.586584 95.38897 199.392127 92.078566 199.447686 C 88.819092 199.503245 86.156879 200.59128 84.091928 202.70716 C 83.92988 206.508337 83.846542 210.420632 83.846542 214.444045 C 83.846542 218.462829 83.846542 222.481613 83.846542 226.500396 Z M 82.300143 147.948918 C 84.68919 149.25456 87.351403 149.879601 90.286781 149.824042 C 93.273089 149.768482 95.907523 148.712857 98.190081 146.647906 C 100.523568 144.527396 101.611603 141.105874 101.449555 136.37871 C 101.282877 132.197879 99.819818 129.345839 97.046487 127.82259 C 94.333345 126.248412 91.481305 125.623371 88.490367 125.947466 C 85.559618 126.220633 83.494667 127.09106 82.300143 128.55875 C 81.429716 130.623701 80.938942 133.52667 80.832454 137.276918 C 80.776895 140.971606 81.267668 144.527396 82.300143 147.948918 Z M 203.132189 237.584461 C 202.863653 232.533202 202.646046 225.741087 202.479368 217.212747 C 202.31732 208.684406 202.238611 199.12359 202.238611 188.530299 C 202.238611 177.937007 202.3451 166.964061 202.562707 155.61146 C 202.780314 144.25886 203.08126 133.091456 203.460914 122.11851 C 203.840569 111.145564 204.275783 100.987486 204.761926 91.644277 C 205.308258 82.301069 205.956449 74.504258 206.720389 68.258475 C 214.105135 67.554725 223.096469 67.008393 233.68976 66.628738 C 244.338611 66.249084 255.746771 65.975917 267.91424 65.81387 C 280.08171 65.651822 292.276959 65.707381 304.499987 65.975917 C 316.723016 66.193524 328.293224 66.52225 339.210611 66.952834 C 350.132627 67.388048 359.503616 67.9066 367.323576 68.503862 C 368.680147 70.406765 369.879301 73.365294 370.911776 77.384077 C 371.939622 81.402861 372.485954 85.940197 372.541513 90.991457 C 372.648002 96.042716 372.02296 101.177314 370.666389 106.395251 C 369.360748 111.552998 367.027261 116.363501 363.656668 120.817498 C 360.341634 125.271496 355.753369 128.827286 349.887241 131.489499 C 344.021113 134.151711 336.631737 135.485133 327.723742 135.485133 C 324.788363 135.485133 322.047441 135.485133 319.491717 135.485133 C 316.996182 135.485133 314.167292 135.485133 311.018936 135.485133 C 307.921509 135.485133 304.064773 135.485133 299.448728 135.485133 C 294.883612 135.485133 289.045264 135.485133 281.929054 135.485133 C 281.929054 137.276918 281.929054 139.096482 281.929054 140.943826 C 281.929054 142.79117 281.929054 144.828342 281.929054 147.05534 C 285.188528 147.05534 289.670305 146.972002 295.374385 146.809954 C 301.078465 146.647906 307.268689 146.564567 313.954315 146.564567 C 320.635311 146.564567 327.205189 146.865513 333.673208 147.462775 C 340.136598 148.060036 345.729559 149.120291 350.456723 150.63891 C 354.91072 160.417333 356.758065 169.542935 355.998755 178.020346 C 355.290375 186.437568 352.003121 193.336171 346.136993 198.716156 C 340.270866 204.040581 331.853644 206.99911 320.876068 207.596371 C 317.13045 207.70749 313.625589 207.758419 310.366115 207.758419 C 307.106641 207.758419 303.333244 207.73064 299.041294 207.67971 C 294.749344 207.624151 289.128603 207.596371 282.17444 207.596371 C 282.17444 209.934489 282.17444 212.189267 282.17444 214.360707 C 282.17444 216.481217 282.17444 218.731365 282.17444 221.125042 C 282.878191 221.125042 283.66528 221.125042 284.535707 221.125042 C 285.461694 221.125042 286.355272 221.125042 287.2257 221.125042 C 299.120003 221.125042 311.018936 221.125042 322.913239 221.125042 C 334.867732 221.125042 346.789814 221.125042 358.688747 221.125042 C 362.980697 227.046729 365.721619 233.616607 366.916142 240.843935 C 368.110665 248.011075 367.596743 255.020796 365.369744 261.86384 C 363.142745 268.655955 358.906354 274.549863 352.655942 279.545563 C 346.465719 284.490333 338.099426 287.643319 327.561694 288.99989 C 323.811447 289.435104 318.787967 289.842538 312.486625 290.222193 C 306.185284 290.601847 299.258901 290.819454 291.707477 290.875014 C 284.156053 290.981502 276.632408 290.953723 269.136543 290.791675 C 261.640678 290.629627 254.876343 290.328681 248.848168 289.898097 C 242.870922 289.462883 238.254876 288.865622 234.995402 288.101683 C 224.619718 285.4441 216.929395 280.147454 211.933695 272.216375 C 206.988925 264.285297 204.058176 252.738238 203.132189 237.584461 Z M 203.132189 237.584461 " stroke="#7c002c" stroke-width="12.516188" stroke-opacity="1" stroke-miterlimit="4"/><g fill="#f87ca8" fill-opacity="1"><g transform="translate(27.931023, 275.562593)"><g><path d="M 130.84375 -98.9375 C 139.226562 -96.050781 145.734375 -90.945312 150.359375 -83.625 C 154.992188 -76.3125 157.1875 -67.519531 156.9375 -57.25 C 156.8125 -44.738281 153.585938 -33.882812 147.265625 -24.6875 C 140.953125 -15.488281 131.972656 -8.382812 120.328125 -3.375 C 108.691406 1.625 94.675781 4.125 78.28125 4.125 C 56.257812 4.125 39.207031 -0.910156 27.125 -10.984375 C 15.050781 -21.054688 7.945312 -35.789062 5.8125 -55.1875 C 4.9375 -62.570312 4.375 -71.300781 4.125 -81.375 C 3.875 -91.457031 3.875 -102.160156 4.125 -113.484375 C 4.375 -124.804688 4.78125 -136.003906 5.34375 -147.078125 C 5.90625 -158.160156 6.628906 -168.394531 7.515625 -177.78125 C 13.515625 -181.28125 20.707031 -184.09375 29.09375 -186.21875 C 37.476562 -188.351562 46.394531 -189.765625 55.84375 -190.453125 C 65.289062 -191.140625 74.550781 -191.203125 83.625 -190.640625 C 92.707031 -190.078125 101 -188.851562 108.5 -186.96875 C 116.007812 -185.09375 122.019531 -182.65625 126.53125 -179.65625 C 134.039062 -174.644531 139.671875 -168.726562 143.421875 -161.90625 C 147.179688 -155.09375 149.25 -147.992188 149.625 -140.609375 C 150 -133.222656 148.898438 -126.179688 146.328125 -119.484375 C 143.765625 -112.796875 139.859375 -107.070312 134.609375 -102.3125 C 134.097656 -101.8125 133.5625 -101.3125 133 -100.8125 C 132.4375 -100.3125 131.71875 -99.6875 130.84375 -98.9375 Z M 70.78125 -52.75 C 73.03125 -51.5 75.59375 -50.84375 78.46875 -50.78125 C 81.34375 -50.71875 83.972656 -51.25 86.359375 -52.375 C 89.109375 -53.5 91.015625 -55.21875 92.078125 -57.53125 C 93.140625 -59.851562 93.546875 -62.515625 93.296875 -65.515625 C 93.171875 -68.015625 92.296875 -70.109375 90.671875 -71.796875 C 89.046875 -73.492188 87.046875 -74.59375 84.671875 -75.09375 C 82.785156 -75.46875 80.46875 -75.625 77.71875 -75.5625 C 74.96875 -75.5 72.71875 -74.59375 70.96875 -72.84375 C 70.84375 -69.582031 70.78125 -66.265625 70.78125 -62.890625 C 70.78125 -59.515625 70.78125 -56.132812 70.78125 -52.75 Z M 69.453125 -119.015625 C 71.460938 -117.890625 73.71875 -117.359375 76.21875 -117.421875 C 78.71875 -117.484375 80.9375 -118.390625 82.875 -120.140625 C 84.820312 -121.898438 85.734375 -124.78125 85.609375 -128.78125 C 85.484375 -132.28125 84.257812 -134.6875 81.9375 -136 C 79.625 -137.320312 77.21875 -137.859375 74.71875 -137.609375 C 72.21875 -137.359375 70.460938 -136.609375 69.453125 -135.359375 C 68.703125 -133.597656 68.296875 -131.15625 68.234375 -128.03125 C 68.171875 -124.90625 68.578125 -121.898438 69.453125 -119.015625 Z M 69.453125 -119.015625 "/></g></g></g><g fill="#f87ca8" fill-opacity="1"><g transform="translate(189.001333, 275.562593)"><g><path d="M 10.328125 -43.359375 C 10.078125 -47.617188 9.890625 -53.347656 9.765625 -60.546875 C 9.640625 -67.742188 9.578125 -75.816406 9.578125 -84.765625 C 9.578125 -93.710938 9.671875 -102.972656 9.859375 -112.546875 C 10.046875 -122.117188 10.296875 -131.535156 10.609375 -140.796875 C 10.921875 -150.054688 11.296875 -158.628906 11.734375 -166.515625 C 12.171875 -174.398438 12.703125 -180.972656 13.328125 -186.234375 C 19.585938 -186.859375 27.191406 -187.328125 36.140625 -187.640625 C 45.085938 -187.953125 54.691406 -188.171875 64.953125 -188.296875 C 75.210938 -188.421875 85.503906 -188.390625 95.828125 -188.203125 C 106.160156 -188.015625 115.925781 -187.734375 125.125 -187.359375 C 134.320312 -186.984375 142.238281 -186.546875 148.875 -186.046875 C 150 -184.410156 151 -181.90625 151.875 -178.53125 C 152.75 -175.15625 153.21875 -171.335938 153.28125 -167.078125 C 153.34375 -162.828125 152.8125 -158.507812 151.6875 -154.125 C 150.5625 -149.75 148.585938 -145.679688 145.765625 -141.921875 C 142.953125 -138.171875 139.070312 -135.164062 134.125 -132.90625 C 129.1875 -130.65625 122.960938 -129.53125 115.453125 -129.53125 C 112.953125 -129.53125 110.632812 -129.53125 108.5 -129.53125 C 106.375 -129.53125 104 -129.53125 101.375 -129.53125 C 98.75 -129.53125 95.492188 -129.53125 91.609375 -129.53125 C 87.734375 -129.53125 82.789062 -129.53125 76.78125 -129.53125 C 76.78125 -128.03125 76.78125 -126.5 76.78125 -124.9375 C 76.78125 -123.375 76.78125 -121.648438 76.78125 -119.765625 C 79.53125 -119.765625 83.3125 -119.828125 88.125 -119.953125 C 92.945312 -120.078125 98.175781 -120.140625 103.8125 -120.140625 C 109.445312 -120.140625 114.984375 -119.890625 120.421875 -119.390625 C 125.867188 -118.890625 130.597656 -118.015625 134.609375 -116.765625 C 138.359375 -108.503906 139.921875 -100.804688 139.296875 -93.671875 C 138.671875 -86.535156 135.882812 -80.710938 130.9375 -76.203125 C 126 -71.703125 118.898438 -69.203125 109.640625 -68.703125 C 106.503906 -68.578125 103.5625 -68.515625 100.8125 -68.515625 C 98.0625 -68.515625 94.867188 -68.546875 91.234375 -68.609375 C 87.609375 -68.671875 82.851562 -68.703125 76.96875 -68.703125 C 76.96875 -66.703125 76.96875 -64.796875 76.96875 -62.984375 C 76.96875 -61.171875 76.96875 -59.257812 76.96875 -57.25 C 77.59375 -57.25 78.28125 -57.25 79.03125 -57.25 C 79.78125 -57.25 80.53125 -57.25 81.28125 -57.25 C 91.300781 -57.25 101.347656 -57.25 111.421875 -57.25 C 121.492188 -57.25 131.535156 -57.25 141.546875 -57.25 C 145.171875 -52.25 147.484375 -46.710938 148.484375 -40.640625 C 149.492188 -34.566406 149.054688 -28.648438 147.171875 -22.890625 C 145.296875 -17.140625 141.726562 -12.164062 136.46875 -7.96875 C 131.21875 -3.78125 124.148438 -1.125 115.265625 0 C 112.140625 0.375 107.914062 0.71875 102.59375 1.03125 C 97.269531 1.34375 91.414062 1.53125 85.03125 1.59375 C 78.65625 1.65625 72.304688 1.625 65.984375 1.5 C 59.660156 1.375 53.960938 1.125 48.890625 0.75 C 43.828125 0.375 39.921875 -0.125 37.171875 -0.75 C 28.410156 -3 21.929688 -7.472656 17.734375 -14.171875 C 13.546875 -20.867188 11.078125 -30.597656 10.328125 -43.359375 Z M 10.328125 -43.359375 "/></g></g></g></svg>